<svg viewBox="0 0 600 400" xmlns="http://www.w3.org/2000/svg">
<g transform="translate(50, 360)">
<g>
<circle cx="0" cy="-0.0017034051068085102" fill="#000000" r="2"/>
<circle cx="2.5" cy="-1.7034051068085103" fill="#000000" r="2"/>
<circle cx="5" cy="-3.405106808510212" fill="#000000" r="2"/>
<circle cx="7.5" cy="-5.106808510211914" fill="#000000" r="2"/>
<circle cx="10" cy="-6.808510211913615" fill="#000000" r="2"/>
<circle cx="12.5" cy="-8.510211913615317" fill="#000000" r="2"/>
<circle cx="15" cy="-10.21191361531702" fill="#000000" r="2"/>
<circle cx="17.5" cy="-11.91361531701872" fill="#000000" r="2"/>
<circle cx="20" cy="-13.615317018720422" fill="#000000" r="2"/>
<circle cx="22.5" cy="-15.317018720422125" fill="#000000" r="2"/>
<circle cx="25" cy="-17.018720422123824" fill="#000000" r="2"/>
<circle cx="27.5" cy="-18.720422123825525" fill="#000000" r="2"/>
<circle cx="30" cy="-20.42212382552723" fill="#000000" r="2"/>
<circle cx="32.5" cy="-22.12382552722893" fill="#000000" r="2"/>
<circle cx="35" cy="-23.82552722893063" fill="#000000" r="2"/>
<circle cx="37.5" cy="-25.527228930632333" fill="#000000" r="2"/>
<circle cx="40" cy="-27.228930632334034" fill="#000000" r="2"/>
<circle cx="42.5" cy="-28.930632334035742" fill="#000000" r="2"/>
<circle cx="45" cy="-30.63233403573744" fill="#000000" r="2"/>
<circle cx="47.5" cy="-32.334035737439144" fill="#000000" r="2"/>
<circle cx="50" cy="-34.035737439140846" fill="#000000" r="2"/>
<circle cx="52.5" cy="-35.73743914084255" fill="#000000" r="2"/>
<circle cx="55" cy="-37.43914084254425" fill="#000000" r="2"/>
<circle cx="57.5" cy="-39.14084254424595" fill="#000000" r="2"/>
<circle cx="60" cy="-40.84254424594765" fill="#000000" r="2"/>
<circle cx="62.5" cy="-42.54424594764936" fill="#000000" r="2"/>
<circle cx="65" cy="-44.24594764935105" fill="#000000" r="2"/>
<circle cx="67.5" cy="-45.94764935105275" fill="#000000" r="2"/>
<circle cx="70" cy="-47.649351052754454" fill="#000000" r="2"/>
<circle cx="72.5" cy="-49.351052754456155" fill="#000000" r="2"/>
<circle cx="75" cy="-51.052754456157864" fill="#000000" r="2"/>
<circle cx="77.5" cy="-52.754456157859565" fill="#000000" r="2"/>
<circle cx="80" cy="-54.456157859561266" fill="#000000" r="2"/>
<circle cx="82.5" cy="-56.15785956126296" fill="#000000" r="2"/>
<circle cx="85" cy="-57.85956126296466" fill="#000000" r="2"/>
<circle cx="87.5" cy="-59.56126296466636" fill="#000000" r="2"/>
<circle cx="90" cy="-61.26296466636807" fill="#000000" r="2"/>
<circle cx="92.5" cy="-62.96466636806977" fill="#000000" r="2"/>
<circle cx="95" cy="-64.66636806977147" fill="#000000" r="2"/>
<circle cx="97.5" cy="-66.36806977147317" fill="#000000" r="2"/>
<circle cx="100" cy="-68.06977147317487" fill="#000000" r="2"/>
<circle cx="102.5" cy="-69.77147317487658" fill="#000000" r="2"/>
<circle cx="105" cy="-71.47317487657827" fill="#000000" r="2"/>
<circle cx="107.5" cy="-73.17487657827998" fill="#000000" r="2"/>
<circle cx="110" cy="-74.87657827998167" fill="#000000" r="2"/>
<circle cx="112.5" cy="-76.57827998168338" fill="#000000" r="2"/>
<circle cx="115" cy="-78.27998168338509" fill="#000000" r="2"/>
<circle cx="117.5" cy="-79.98168338508678" fill="#000000" r="2"/>
<circle cx="120" cy="-81.68338508678849" fill="#000000" r="2"/>
<circle cx="122.5" cy="-83.38508678849018" fill="#000000" r="2"/>
<circle cx="125" cy="-85.08678849019188" fill="#000000" r="2"/>
<circle cx="127.5" cy="-86.7884901918936" fill="#000000" r="2"/>
<circle cx="130" cy="-88.4901918935953" fill="#000000" r="2"/>
<circle cx="132.5" cy="-90.191893595297" fill="#000000" r="2"/>
<circle cx="135" cy="-91.8935952969987" fill="#000000" r="2"/>
<circle cx="137.5" cy="-93.5952969987004" fill="#000000" r="2"/>
<circle cx="140" cy="-95.2969987004021" fill="#000000" r="2"/>
<circle cx="142.5" cy="-96.9987004021038" fill="#000000" r="2"/>
<circle cx="145" cy="-98.7004021038055" fill="#000000" r="2"/>
<circle cx="147.5" cy="-100.4021038055072" fill="#000000" r="2"/>
<circle cx="150" cy="-102.1038055072089" fill="#000000" r="2"/>
<circle cx="152.5" cy="-103.8055072089106" fill="#000000" r="2"/>
<circle cx="155" cy="-105.50720891061232" fill="#000000" r="2"/>
<circle cx="157.5" cy="-107.20891061231401" fill="#000000" r="2"/>
<circle cx="160" cy="-108.91061231401572" fill="#000000" r="2"/>
<circle cx="162.5" cy="-110.61231401571742" fill="#000000" r="2"/>
<circle cx="165" cy="-112.31401571741912" fill="#000000" r="2"/>
<circle cx="167.5" cy="-114.01571741912082" fill="#000000" r="2"/>
<circle cx="170" cy="-115.71741912082251" fill="#000000" r="2"/>
<circle cx="172.5" cy="-117.41912082252422" fill="#000000" r="2"/>
<circle cx="175" cy="-119.12082252422591" fill="#000000" r="2"/>
<circle cx="177.5" cy="-120.82252422592762" fill="#000000" r="2"/>
<circle cx="180" cy="-122.52422592762932" fill="#000000" r="2"/>
<circle cx="182.5" cy="-124.22592762933104" fill="#000000" r="2"/>
<circle cx="185" cy="-125.92762933103273" fill="#000000" r="2"/>
<circle cx="187.5" cy="-127.62933103273444" fill="#000000" r="2"/>
<circle cx="190" cy="-129.33103273443612" fill="#000000" r="2"/>
<circle cx="192.5" cy="-131.03273443613782" fill="#000000" r="2"/>
<circle cx="195" cy="-132.73443613783954" fill="#000000" r="2"/>
<circle cx="197.5" cy="-134.43613783954123" fill="#000000" r="2"/>
<circle cx="200" cy="-136.13783954124295" fill="#000000" r="2"/>
<circle cx="202.5" cy="-137.83954124294465" fill="#000000" r="2"/>
<circle cx="205" cy="-139.54124294464634" fill="#000000" r="2"/>
<circle cx="207.5" cy="-141.24294464634804" fill="#000000" r="2"/>
<circle cx="210" cy="-142.94464634804976" fill="#000000" r="2"/>
<circle cx="212.5" cy="-144.64634804975145" fill="#000000" r="2"/>
<circle cx="215" cy="-146.34804975145315" fill="#000000" r="2"/>
<circle cx="217.5" cy="-148.04975145315484" fill="#000000" r="2"/>
<circle cx="220" cy="-149.75145315485653" fill="#000000" r="2"/>
<circle cx="222.5" cy="-151.45315485655826" fill="#000000" r="2"/>
<circle cx="225" cy="-153.15485655825995" fill="#000000" r="2"/>
<circle cx="227.5" cy="-154.85655825996167" fill="#000000" r="2"/>
<circle cx="230" cy="-156.55825996166337" fill="#000000" r="2"/>
<circle cx="232.5" cy="-158.25996166336506" fill="#000000" r="2"/>
<circle cx="235" cy="-159.96166336506676" fill="#000000" r="2"/>
<circle cx="237.5" cy="-161.66336506676848" fill="#000000" r="2"/>
<circle cx="240" cy="-163.36506676847017" fill="#000000" r="2"/>
<circle cx="242.5" cy="-165.06676847017187" fill="#000000" r="2"/>
<circle cx="245" cy="-166.76847017187356" fill="#000000" r="2"/>
<circle cx="247.5" cy="-168.47017187357525" fill="#000000" r="2"/>
<circle cx="250" cy="-170.17187357527695" fill="#000000" r="2"/>
<circle cx="252.5" cy="-171.8735752769787" fill="#000000" r="2"/>
<circle cx="255" cy="-173.5752769786804" fill="#000000" r="2"/>
<circle cx="257.5" cy="-175.2769786803821" fill="#000000" r="2"/>
<circle cx="260" cy="-176.97868038208375" fill="#000000" r="2"/>
<circle cx="262.5" cy="-178.6803820837855" fill="#000000" r="2"/>
<circle cx="265" cy="-180.3820837854872" fill="#000000" r="2"/>
<circle cx="267.5" cy="-182.0837854871889" fill="#000000" r="2"/>
<circle cx="270" cy="-183.78548718889058" fill="#000000" r="2"/>
<circle cx="272.5" cy="-185.4871888905923" fill="#000000" r="2"/>
<circle cx="275" cy="-187.188890592294" fill="#000000" r="2"/>
<circle cx="277.5" cy="-188.8905922939957" fill="#000000" r="2"/>
<circle cx="280" cy="-190.5922939956974" fill="#000000" r="2"/>
<circle cx="282.5" cy="-192.29399569739908" fill="#000000" r="2"/>
<circle cx="285" cy="-193.9956973991008" fill="#000000" r="2"/>
<circle cx="287.5" cy="-195.6973991008025" fill="#000000" r="2"/>
<circle cx="290" cy="-197.3991008025042" fill="#000000" r="2"/>
<circle cx="292.5" cy="-199.1008025042059" fill="#000000" r="2"/>
<circle cx="295" cy="-200.8025042059076" fill="#000000" r="2"/>
<circle cx="297.5" cy="-202.5042059076093" fill="#000000" r="2"/>
<circle cx="300" cy="-204.205907609311" fill="#000000" r="2"/>
<circle cx="302.5" cy="-205.9076093110127" fill="#000000" r="2"/>
<circle cx="305" cy="-207.6093110127144" fill="#000000" r="2"/>
<circle cx="307.5" cy="-209.31101271441614" fill="#000000" r="2"/>
<circle cx="310" cy="-211.01271441611783" fill="#000000" r="2"/>
<circle cx="312.5" cy="-212.7144161178195" fill="#000000" r="2"/>
<circle cx="315" cy="-214.4161178195212" fill="#000000" r="2"/>
<circle cx="317.5" cy="-216.11781952122294" fill="#000000" r="2"/>
<circle cx="320" cy="-217.81952122292464" fill="#000000" r="2"/>
<circle cx="322.5" cy="-219.52122292462633" fill="#000000" r="2"/>
<circle cx="325" cy="-221.22292462632802" fill="#000000" r="2"/>
<circle cx="327.5" cy="-222.92462632802972" fill="#000000" r="2"/>
<circle cx="330" cy="-224.62632802973144" fill="#000000" r="2"/>
<circle cx="332.5" cy="-226.32802973143313" fill="#000000" r="2"/>
<circle cx="335" cy="-228.02973143313486" fill="#000000" r="2"/>
<circle cx="337.5" cy="-229.73143313483652" fill="#000000" r="2"/>
<circle cx="340" cy="-231.43313483653824" fill="#000000" r="2"/>
<circle cx="342.5" cy="-233.13483653823994" fill="#000000" r="2"/>
<circle cx="345" cy="-234.83653823994166" fill="#000000" r="2"/>
<circle cx="347.5" cy="-236.53823994164333" fill="#000000" r="2"/>
<circle cx="350" cy="-238.23994164334505" fill="#000000" r="2"/>
<circle cx="352.5" cy="-239.94164334504674" fill="#000000" r="2"/>
<circle cx="355" cy="-241.6433450467485" fill="#000000" r="2"/>
<circle cx="357.5" cy="-243.34504674845013" fill="#000000" r="2"/>
<circle cx="360" cy="-245.04674845015188" fill="#000000" r="2"/>
<circle cx="362.5" cy="-246.74845015185358" fill="#000000" r="2"/>
<circle cx="365" cy="-248.4501518535553" fill="#000000" r="2"/>
<circle cx="367.5" cy="-250.15185355525693" fill="#000000" r="2"/>
<circle cx="370" cy="-251.85355525695869" fill="#000000" r="2"/>
<circle cx="372.5" cy="-253.55525695866038" fill="#000000" r="2"/>
<circle cx="375" cy="-255.25695866036207" fill="#000000" r="2"/>
<circle cx="377.5" cy="-256.95866036206377" fill="#000000" r="2"/>
<circle cx="380" cy="-258.6603620637655" fill="#000000" r="2"/>
<circle cx="382.5" cy="-260.36206376546716" fill="#000000" r="2"/>
<circle cx="385" cy="-262.0637654671689" fill="#000000" r="2"/>
<circle cx="387.5" cy="-263.76546716887054" fill="#000000" r="2"/>
<circle cx="390" cy="-265.4671688705723" fill="#000000" r="2"/>
<circle cx="392.5" cy="-267.16887057227393" fill="#000000" r="2"/>
<circle cx="395" cy="-268.8705722739757" fill="#000000" r="2"/>
<circle cx="397.5" cy="-270.5722739756774" fill="#000000" r="2"/>
<circle cx="400" cy="-272.2739756773791" fill="#000000" r="2"/>
<circle cx="402.5" cy="-273.97567737908076" fill="#000000" r="2"/>
<circle cx="405" cy="-275.6773790807825" fill="#000000" r="2"/>
<circle cx="407.5" cy="-277.3790807824842" fill="#000000" r="2"/>
<circle cx="410" cy="-279.08078248418593" fill="#000000" r="2"/>
<circle cx="412.5" cy="-280.7824841858876" fill="#000000" r="2"/>
<circle cx="415" cy="-282.4841858875893" fill="#000000" r="2"/>
<circle cx="417.5" cy="-284.185887589291" fill="#000000" r="2"/>
<circle cx="420" cy="-285.8875892909927" fill="#000000" r="2"/>
<circle cx="422.5" cy="-287.5892909926944" fill="#000000" r="2"/>
<circle cx="425" cy="-289.2909926943961" fill="#000000" r="2"/>
<circle cx="427.5" cy="-290.9926943960978" fill="#000000" r="2"/>
<circle cx="430" cy="-292.6943960977995" fill="#000000" r="2"/>
<circle cx="432.5" cy="-294.3960977995012" fill="#000000" r="2"/>
<circle cx="435" cy="-296.0977995012029" fill="#000000" r="2"/>
<circle cx="437.5" cy="-297.7995012029046" fill="#000000" r="2"/>
<circle cx="440" cy="-299.5012029046063" fill="#000000" r="2"/>
<circle cx="442.5" cy="-301.202904606308" fill="#000000" r="2"/>
<circle cx="445" cy="-302.90460630800976" fill="#000000" r="2"/>
<circle cx="447.5" cy="-304.60630800971137" fill="#000000" r="2"/>
<circle cx="450" cy="-306.30800971141315" fill="#000000" r="2"/>
<circle cx="452.5" cy="-308.0097114131148" fill="#000000" r="2"/>
<circle cx="455" cy="-309.71141311481654" fill="#000000" r="2"/>
<circle cx="457.5" cy="-311.4131148165182" fill="#000000" r="2"/>
<circle cx="460" cy="-313.1148165182199" fill="#000000" r="2"/>
<circle cx="462.5" cy="-314.81651821992165" fill="#000000" r="2"/>
<circle cx="465" cy="-316.51821992162337" fill="#000000" r="2"/>
<circle cx="467.5" cy="-318.21992162332504" fill="#000000" r="2"/>
<circle cx="470" cy="-319.92162332502676" fill="#000000" r="2"/>
<circle cx="472.5" cy="-321.6233250267284" fill="#000000" r="2"/>
<circle cx="475" cy="-323.32502672843015" fill="#000000" r="2"/>
<circle cx="477.5" cy="-325.0267284301318" fill="#000000" r="2"/>
<circle cx="480" cy="-326.72843013183353" fill="#000000" r="2"/>
<circle cx="482.5" cy="-328.43013183353526" fill="#000000" r="2"/>
<circle cx="485" cy="-330.1318335352369" fill="#000000" r="2"/>
<circle cx="487.5" cy="-331.8335352369383" fill="#000000" r="2"/>
<circle cx="490" cy="-333.53523693830005" fill="#000000" r="2"/>
<circle cx="492.5" cy="-335.23693829999996" fill="#000000" r="2"/>
<circle cx="495" cy="-336.9383" fill="#000000" r="2"/>
<circle cx="497.5" cy="-338.3" fill="#000000" r="2"/>
</g>
<g>
<g>
<line stroke="black" stroke-width="1" x1="0" x2="0" y1="0" y2="10"/>
<line stroke="black" stroke-width="1" x1="100" x2="100" y1="0" y2="10"/>
<line stroke="black" stroke-width="1" x1="200" x2="200" y1="0" y2="10"/>
<line stroke="black" stroke-width="1" x1="300" x2="300" y1="0" y2="10"/>
<line stroke="black" stroke-width="1" x1="400" x2="400" y1="0" y2="10"/>
<line stroke="black" stroke-width="1" x1="500" x2="500" y1="0" y2="10"/>
</g>
<line stroke="black" stroke-width="1" x1="0" x2="500" y1="0" y2="0"/>
<g>
<text font-size="12" text-anchor="middle" x="0" y="20">
0
</text>
<text font-size="12" text-anchor="middle" x="100" y="20">
40000
</text>
<text font-size="12" text-anchor="middle" x="200" y="20">
80000
</text>
<text font-size="12" text-anchor="middle" x="300" y="20">
120000
</text>
<text font-size="12" text-anchor="middle" x="400" y="20">
160000
</text>
<text font-size="12" text-anchor="middle" x="500" y="20">
200000
</text>
</g>
<text font-size="12" text-anchor="middle" x="250" y="30">
Gas Price
</text>
</g>
<g>
<g>
<line stroke="black" stroke-width="1" x1="0" x2="-10" y1="0" y2="0"/>
<line stroke="black" stroke-width="1" x1="0" x2="-10" y1="-68" y2="-68"/>
<line stroke="black" stroke-width="1" x1="0" x2="-10" y1="-136" y2="-136"/>
<line stroke="black" stroke-width="1" x1="0" x2="-10" y1="-204" y2="-204"/>
<line stroke="black" stroke-width="1" x1="0" x2="-10" y1="-272" y2="-272"/>
<line stroke="black" stroke-width="1" x1="0" x2="-10" y1="-340" y2="-340"/>
</g>
<line stroke="black" stroke-0="1" x1="0" x2="0" y1="0" y2="-340"/>
<g>
<text dominant-baseline="middle" font-size="12" text-anchor="end" x="-15" y="0">
0
</text>
<text dominant-baseline="middle" font-size="12" text-anchor="end" x="-15" y="-68">
40000
</text>
<text dominant-baseline="middle" font-size="12" text-anchor="end" x="-15" y="-136">
80000
</text>
<text dominant-baseline="middle" font-size="12" text-anchor="end" x="-15" y="-204">
120000
</text>
<text dominant-baseline="middle" font-size="12" text-anchor="end" x="-15" y="-272">
160000
</text>
<text dominant-baseline="middle" font-size="12" text-anchor="end" x="-15" y="-340">
200000
</text>
</g>
<text font-size="12" text-anchor="middle" transform="rotate(-90 -30 -170)" x="-30" y="-170">
Score
</text>
</g>
</g>
</svg>