<svg viewBox="0 0 600 400" xmlns="http://www.w3.org/2000/svg">
<g transform="translate(50, 360)">
<g>
<circle cx="0" cy="-14.277342560000001" fill="#000000" r="5"/>
<circle cx="2.380952380952381" cy="-18.23962537728" fill="#000000" r="5"/>
<circle cx="4.761904761904762" cy="-20.92367774848" fill="#000000" r="5"/>
<circle cx="7.142857142857143" cy="-22.728144266239998" fill="#000000" r="5"/>
<circle cx="9.523809523809524" cy="-23.927347157760003" fill="#000000" r="5"/>
<circle cx="11.904761904761905" cy="-24.71006573824" fill="#000000" r="5"/>
<circle cx="14.285714285714286" cy="-25.206179006720003" fill="#000000" r="5"/>
<circle cx="16.666666666666668" cy="-25.505061027840004" fill="#000000" r="5"/>
<circle cx="19.047619047619047" cy="-25.668244207360004" fill="#000000" r="5"/>
<circle cx="21.428571428571427" cy="-25.73801745152" fill="#000000" r="5"/>
<circle cx="23.80952380952381" cy="-25.743538464" fill="#000000" r="5"/>
<circle cx="26.19047619047619" cy="-25.7048403712" fill="#000000" r="5"/>
<circle cx="28.571428571428573" cy="-25.635697775360004" fill="#000000" r="5"/>
<circle cx="30.952380952380953" cy="-25.54561544448" fill="#000000" r="5"/>
<circle cx="33.333333333333336" cy="-25.441144357119995" fill="#000000" r="5"/>
<circle cx="35.714285714285715" cy="-25.3267590656" fill="#000000" r="5"/>
<circle cx="38.095238095238095" cy="-25.205530341120003" fill="#000000" r="5"/>
<circle cx="40.476190476190474" cy="-25.079622346240004" fill="#000000" r="5"/>
<circle cx="42.857142857142854" cy="-24.950468107520003" fill="#000000" r="5"/>
<circle cx="45.23809523809524" cy="-24.819091215359997" fill="#000000" r="5"/>
<circle cx="47.61904761904762" cy="-24.68619356032" fill="#000000" r="5"/>
<circle cx="50" cy="-24.55224306944" fill="#000000" r="5"/>
<circle cx="52.38095238095238" cy="-24.417561442559997" fill="#000000" r="5"/>
<circle cx="54.76190476190476" cy="-24.2823826432" fill="#000000" r="5"/>
<circle cx="57.142857142857146" cy="-24.146882144000003" fill="#000000" r="5"/>
<circle cx="59.523809523809526" cy="-24.011118435840004" fill="#000000" r="5"/>
<circle cx="61.904761904761905" cy="-23.87520850048" fill="#000000" r="5"/>
<circle cx="64.28571428571429" cy="-23.739181583359997" fill="#000000" r="5"/>
<circle cx="66.66666666666667" cy="-23.603066929920004" fill="#000000" r="5"/>
<circle cx="69.04761904761905" cy="-23.46692303104" fill="#000000" r="5"/>
<circle cx="71.42857142857143" cy="-23.33072064128" fill="#000000" r="5"/>
<circle cx="73.80952380952381" cy="-23.19451825152" fill="#000000" r="5"/>
<circle cx="76.19047619047619" cy="-23.058286616320004" fill="#000000" r="5"/>
<circle cx="78.57142857142857" cy="-22.92202573568" fill="#000000" r="5"/>
<circle cx="80.95238095238095" cy="-22.78576485504" fill="#000000" r="5"/>
<circle cx="83.33333333333333" cy="-22.649503974399995" fill="#000000" r="5"/>
<circle cx="85.71428571428571" cy="-22.51324309376" fill="#000000" r="5"/>
<circle cx="88.0952380952381" cy="-22.37698221312" fill="#000000" r="5"/>
<circle cx="90.47619047619048" cy="-22.240721332480003" fill="#000000" r="5"/>
<circle cx="92.85714285714286" cy="-22.10446045184" fill="#000000" r="5"/>
<circle cx="95.23809523809524" cy="-21.96817032576" fill="#000000" r="5"/>
<circle cx="97.61904761904762" cy="-21.83190944512" fill="#000000" r="5"/>
<circle cx="100" cy="-21.695619319040002" fill="#000000" r="5"/>
<circle cx="102.38095238095238" cy="-21.5593584384" fill="#000000" r="5"/>
<circle cx="104.76190476190476" cy="-21.42309755776" fill="#000000" r="5"/>
<circle cx="107.14285714285714" cy="-21.28680743168" fill="#000000" r="5"/>
<circle cx="109.52380952380952" cy="-21.15054655104" fill="#000000" r="5"/>
<circle cx="111.9047619047619" cy="-21.01425642496" fill="#000000" r="5"/>
<circle cx="114.28571428571429" cy="-20.87799554432" fill="#000000" r="5"/>
<circle cx="116.66666666666667" cy="-20.74170541824" fill="#000000" r="5"/>
<circle cx="119.04761904761905" cy="-20.6054445376" fill="#000000" r="5"/>
<circle cx="121.42857142857143" cy="-20.46915441152" fill="#000000" r="5"/>
<circle cx="123.80952380952381" cy="-20.33289353088" fill="#000000" r="5"/>
<circle cx="126.19047619047619" cy="-20.19663265024" fill="#000000" r="5"/>
<circle cx="128.57142857142858" cy="-20.060342524160003" fill="#000000" r="5"/>
<circle cx="130.95238095238096" cy="-19.924081643519997" fill="#000000" r="5"/>
<circle cx="133.33333333333334" cy="-19.78779151744" fill="#000000" r="5"/>
<circle cx="135.71428571428572" cy="-19.651530636799997" fill="#000000" r="5"/>
<circle cx="138.0952380952381" cy="-19.515240510719998" fill="#000000" r="5"/>
<circle cx="140.47619047619048" cy="-19.37897963008" fill="#000000" r="5"/>
<circle cx="142.85714285714286" cy="-19.242689504" fill="#000000" r="5"/>
<circle cx="145.23809523809524" cy="-19.10642862336" fill="#000000" r="5"/>
<circle cx="147.61904761904762" cy="-18.97016774272" fill="#000000" r="5"/>
<circle cx="150" cy="-18.833877616640002" fill="#000000" r="5"/>
<circle cx="152.38095238095238" cy="-18.697616735999997" fill="#000000" r="5"/>
<circle cx="154.76190476190476" cy="-18.561326609920002" fill="#000000" r="5"/>
<circle cx="157.14285714285714" cy="-18.425065729280004" fill="#000000" r="5"/>
<circle cx="159.52380952380952" cy="-18.2887756032" fill="#000000" r="5"/>
<circle cx="161.9047619047619" cy="-18.15251472256" fill="#000000" r="5"/>
<circle cx="164.28571428571428" cy="-18.01622459648" fill="#000000" r="5"/>
<circle cx="166.66666666666666" cy="-17.879963715839995" fill="#000000" r="5"/>
<circle cx="169.04761904761904" cy="-17.7437028352" fill="#000000" r="5"/>
<circle cx="171.42857142857142" cy="-17.607412709120002" fill="#000000" r="5"/>
<circle cx="173.8095238095238" cy="-17.47115182848" fill="#000000" r="5"/>
<circle cx="176.1904761904762" cy="-17.334861702399998" fill="#000000" r="5"/>
<circle cx="178.57142857142858" cy="-17.198600821760003" fill="#000000" r="5"/>
<circle cx="180.95238095238096" cy="-17.06231069568" fill="#000000" r="5"/>
<circle cx="183.33333333333334" cy="-16.92604981504" fill="#000000" r="5"/>
<circle cx="185.71428571428572" cy="-16.78975968896" fill="#000000" r="5"/>
<circle cx="188.0952380952381" cy="-16.653498808320002" fill="#000000" r="5"/>
<circle cx="190.47619047619048" cy="-16.51723792768" fill="#000000" r="5"/>
<circle cx="192.85714285714286" cy="-16.380947801599998" fill="#000000" r="5"/>
<circle cx="195.23809523809524" cy="-16.24468692096" fill="#000000" r="5"/>
<circle cx="197.61904761904762" cy="-16.108396794879997" fill="#000000" r="5"/>
<circle cx="200" cy="-15.97213591424" fill="#000000" r="5"/>
<circle cx="202.38095238095238" cy="-15.83584578816" fill="#000000" r="5"/>
<circle cx="204.76190476190476" cy="-15.699584907519998" fill="#000000" r="5"/>
<circle cx="207.14285714285714" cy="-15.563294781440002" fill="#000000" r="5"/>
<circle cx="209.52380952380952" cy="-15.4270339008" fill="#000000" r="5"/>
<circle cx="211.9047619047619" cy="-15.290773020160001" fill="#000000" r="5"/>
<circle cx="214.28571428571428" cy="-15.15448289408" fill="#000000" r="5"/>
<circle cx="216.66666666666666" cy="-15.018222013439997" fill="#000000" r="5"/>
<circle cx="219.04761904761904" cy="-14.88193188736" fill="#000000" r="5"/>
<circle cx="221.42857142857142" cy="-14.745671006719999" fill="#000000" r="5"/>
<circle cx="223.8095238095238" cy="-14.609380880640002" fill="#000000" r="5"/>
<circle cx="226.1904761904762" cy="-14.47312" fill="#000000" r="5"/>
<circle cx="228.57142857142858" cy="-14.336859119359998" fill="#000000" r="5"/>
<circle cx="230.95238095238096" cy="-14.200568993280001" fill="#000000" r="5"/>
<circle cx="233.33333333333334" cy="-14.06430811264" fill="#000000" r="5"/>
<circle cx="235.71428571428572" cy="-13.928017986560002" fill="#000000" r="5"/>
<circle cx="238.0952380952381" cy="-13.79175710592" fill="#000000" r="5"/>
<circle cx="240.47619047619048" cy="-13.65546697984" fill="#000000" r="5"/>
<circle cx="242.85714285714286" cy="-13.519206099200002" fill="#000000" r="5"/>
<circle cx="245.23809523809524" cy="-13.382915973119998" fill="#000000" r="5"/>
<circle cx="247.61904761904762" cy="-13.246655092480003" fill="#000000" r="5"/>
<circle cx="250" cy="-13.11039421184" fill="#000000" r="5"/>
<circle cx="252.38095238095238" cy="-12.974104085759999" fill="#000000" r="5"/>
<circle cx="254.76190476190476" cy="-12.83784320512" fill="#000000" r="5"/>
<circle cx="257.14285714285717" cy="-12.70155307904" fill="#000000" r="5"/>
<circle cx="259.5238095238095" cy="-12.565292198400002" fill="#000000" r="5"/>
<circle cx="261.9047619047619" cy="-12.42900207232" fill="#000000" r="5"/>
<circle cx="264.2857142857143" cy="-12.29274119168" fill="#000000" r="5"/>
<circle cx="266.6666666666667" cy="-12.1564510656" fill="#000000" r="5"/>
<circle cx="269.04761904761904" cy="-12.020190184959999" fill="#000000" r="5"/>
<circle cx="271.42857142857144" cy="-11.883929304320002" fill="#000000" r="5"/>
<circle cx="273.8095238095238" cy="-11.74763917824" fill="#000000" r="5"/>
<circle cx="276.1904761904762" cy="-11.6113782976" fill="#000000" r="5"/>
<circle cx="278.57142857142856" cy="-11.47508817152" fill="#000000" r="5"/>
<circle cx="280.95238095238096" cy="-11.33882729088" fill="#000000" r="5"/>
<circle cx="283.3333333333333" cy="-11.2025371648" fill="#000000" r="5"/>
<circle cx="285.7142857142857" cy="-11.066276284159999" fill="#000000" r="5"/>
<circle cx="288.0952380952381" cy="-10.929986158079998" fill="#000000" r="5"/>
<circle cx="290.4761904761905" cy="-10.79372527744" fill="#000000" r="5"/>
<circle cx="292.85714285714283" cy="-10.6574643968" fill="#000000" r="5"/>
<circle cx="295.23809523809524" cy="-10.521174270720001" fill="#000000" r="5"/>
<circle cx="297.6190476190476" cy="-10.38491339008" fill="#000000" r="5"/>
<circle cx="300" cy="-10.248623264" fill="#000000" r="5"/>
<circle cx="302.3809523809524" cy="-10.11236238336" fill="#000000" r="5"/>
<circle cx="304.76190476190476" cy="-9.97607225728" fill="#000000" r="5"/>
<circle cx="307.14285714285717" cy="-9.83981137664" fill="#000000" r="5"/>
<circle cx="309.5238095238095" cy="-9.70352125056" fill="#000000" r="5"/>
<circle cx="311.9047619047619" cy="-9.56726036992" fill="#000000" r="5"/>
<circle cx="314.2857142857143" cy="-9.43099948928" fill="#000000" r="5"/>
<circle cx="316.6666666666667" cy="-9.294709363199999" fill="#000000" r="5"/>
<circle cx="319.04761904761904" cy="-9.15844848256" fill="#000000" r="5"/>
<circle cx="321.42857142857144" cy="-9.02215835648" fill="#000000" r="5"/>
<circle cx="323.8095238095238" cy="-8.88589747584" fill="#000000" r="5"/>
<circle cx="326.1904761904762" cy="-8.74960734976" fill="#000000" r="5"/>
<circle cx="328.57142857142856" cy="-8.61334646912" fill="#000000" r="5"/>
<circle cx="330.95238095238096" cy="-8.477056343040001" fill="#000000" r="5"/>
<circle cx="333.3333333333333" cy="-8.3407954624" fill="#000000" r="5"/>
<circle cx="335.7142857142857" cy="-8.20453458176" fill="#000000" r="5"/>
<circle cx="338.0952380952381" cy="-8.06824445568" fill="#000000" r="5"/>
<circle cx="340.4761904761905" cy="-7.931983575039999" fill="#000000" r="5"/>
<circle cx="342.85714285714283" cy="-7.79569344896" fill="#000000" r="5"/>
<circle cx="345.23809523809524" cy="-7.659432568320001" fill="#000000" r="5"/>
<circle cx="347.6190476190476" cy="-7.523142442240001" fill="#000000" r="5"/>
<circle cx="350" cy="-7.386881561600001" fill="#000000" r="5"/>
<circle cx="352.3809523809524" cy="-7.250591435519999" fill="#000000" r="5"/>
<circle cx="354.76190476190476" cy="-7.1143305548799995" fill="#000000" r="5"/>
<circle cx="357.14285714285717" cy="-6.97806967424" fill="#000000" r="5"/>
<circle cx="359.5238095238095" cy="-6.841779548160001" fill="#000000" r="5"/>
<circle cx="361.9047619047619" cy="-6.70551866752" fill="#000000" r="5"/>
<circle cx="364.2857142857143" cy="-6.5692285414399985" fill="#000000" r="5"/>
<circle cx="366.6666666666667" cy="-6.4329676608" fill="#000000" r="5"/>
<circle cx="369.04761904761904" cy="-6.29667753472" fill="#000000" r="5"/>
<circle cx="371.42857142857144" cy="-6.1604166540800005" fill="#000000" r="5"/>
<circle cx="373.8095238095238" cy="-6.024126528" fill="#000000" r="5"/>
<circle cx="376.1904761904762" cy="-5.887865647359999" fill="#000000" r="5"/>
<circle cx="378.57142857142856" cy="-5.75160476672" fill="#000000" r="5"/>
<circle cx="380.95238095238096" cy="-5.61531464064" fill="#000000" r="5"/>
<circle cx="383.3333333333333" cy="-5.47905376" fill="#000000" r="5"/>
<circle cx="385.7142857142857" cy="-5.34276363392" fill="#000000" r="5"/>
<circle cx="388.0952380952381" cy="-5.20650275328" fill="#000000" r="5"/>
<circle cx="390.4761904761905" cy="-5.0702126272" fill="#000000" r="5"/>
<circle cx="392.85714285714283" cy="-4.93395174656" fill="#000000" r="5"/>
<circle cx="395.23809523809524" cy="-4.79766162048" fill="#000000" r="5"/>
<circle cx="397.6190476190476" cy="-4.661400739840001" fill="#000000" r="5"/>
<circle cx="400" cy="-4.525139859199999" fill="#000000" r="5"/>
<circle cx="402.3809523809524" cy="-4.38884973312" fill="#000000" r="5"/>
<circle cx="404.76190476190476" cy="-4.25258885248" fill="#000000" r="5"/>
<circle cx="407.14285714285717" cy="-4.1162987264" fill="#000000" r="5"/>
<circle cx="409.5238095238095" cy="-3.98003784576" fill="#000000" r="5"/>
<circle cx="411.9047619047619" cy="-3.84374771968" fill="#000000" r="5"/>
<circle cx="414.2857142857143" cy="-3.70748683904" fill="#000000" r="5"/>
<circle cx="416.6666666666667" cy="-3.57119671296" fill="#000000" r="5"/>
<circle cx="419.04761904761904" cy="-3.4349358323199994" fill="#000000" r="5"/>
<circle cx="421.42857142857144" cy="-3.2986749516800002" fill="#000000" r="5"/>
<circle cx="423.8095238095238" cy="-3.1623848256000002" fill="#000000" r="5"/>
<circle cx="426.1904761904762" cy="-3.02612394496" fill="#000000" r="5"/>
<circle cx="428.57142857142856" cy="-2.88983381888" fill="#000000" r="5"/>
<circle cx="430.95238095238096" cy="-2.75357293824" fill="#000000" r="5"/>
<circle cx="433.3333333333333" cy="-2.6172828121599996" fill="#000000" r="5"/>
<circle cx="435.7142857142857" cy="-2.48102193152" fill="#000000" r="5"/>
<circle cx="438.0952380952381" cy="-2.34473180544" fill="#000000" r="5"/>
<circle cx="440.4761904761905" cy="-2.2084709248" fill="#000000" r="5"/>
<circle cx="442.85714285714283" cy="-2.0722100441599998" fill="#000000" r="5"/>
<circle cx="445.23809523809524" cy="-1.93591991808" fill="#000000" r="5"/>
<circle cx="447.6190476190476" cy="-1.79965903744" fill="#000000" r="5"/>
<circle cx="450" cy="-1.66336891136" fill="#000000" r="5"/>
<circle cx="452.3809523809524" cy="-1.52710803072" fill="#000000" r="5"/>
<circle cx="454.76190476190476" cy="-1.39081790464" fill="#000000" r="5"/>
<circle cx="457.14285714285717" cy="-1.254557024" fill="#000000" r="5"/>
<circle cx="459.5238095238095" cy="-1.1182668979200001" fill="#000000" r="5"/>
<circle cx="461.9047619047619" cy="-0.98200601728" fill="#000000" r="5"/>
<circle cx="464.2857142857143" cy="-0.84574513664" fill="#000000" r="5"/>
<circle cx="466.6666666666667" cy="-0.7094550105599999" fill="#000000" r="5"/>
<circle cx="469.04761904761904" cy="-0.57319412992" fill="#000000" r="5"/>
<circle cx="471.42857142857144" cy="-0.43690400384" fill="#000000" r="5"/>
<circle cx="473.8095238095238" cy="-0.3006431232" fill="#000000" r="5"/>
</g>
<g>
<g>
<line stroke="black" stroke-width="1" x1="0" x2="0" y1="0" y2="10"/>
<line stroke="black" stroke-width="1" x1="95.23809523809524" x2="95.23809523809524" y1="0" y2="10"/>
<line stroke="black" stroke-width="1" x1="190.47619047619048" x2="190.47619047619048" y1="0" y2="10"/>
<line stroke="black" stroke-width="1" x1="285.7142857142857" x2="285.7142857142857" y1="0" y2="10"/>
<line stroke="black" stroke-width="1" x1="380.95238095238096" x2="380.95238095238096" y1="0" y2="10"/>
<line stroke="black" stroke-width="1" x1="476.1904761904762" x2="476.1904761904762" y1="0" y2="10"/>
</g>
<line stroke="black" stroke-width="1" x1="0" x2="500" y1="0" y2="0"/>
<g>
<text font-size="12" text-anchor="middle" x="0" y="20">
0
</text>
<text font-size="12" text-anchor="middle" x="95.23809523809524" y="20">
40000
</text>
<text font-size="12" text-anchor="middle" x="190.47619047619048" y="20">
80000
</text>
<text font-size="12" text-anchor="middle" x="285.7142857142857" y="20">
120000
</text>
<text font-size="12" text-anchor="middle" x="380.95238095238096" y="20">
160000
</text>
<text font-size="12" text-anchor="middle" x="476.1904761904762" y="20">
200000
</text>
</g>
<text font-size="12" text-anchor="middle" x="250" y="30">
Gas Price
</text>
</g>
<g>
<g>
<line stroke="black" stroke-width="1" x1="0" x2="-10" y1="0" y2="0"/>
<line stroke="black" stroke-width="1" x1="0" x2="-10" y1="-85" y2="-85"/>
<line stroke="black" stroke-width="1" x1="0" x2="-10" y1="-170" y2="-170"/>
<line stroke="black" stroke-width="1" x1="0" x2="-10" y1="-255" y2="-255"/>
<line stroke="black" stroke-width="1" x1="0" x2="-10" y1="-340" y2="-340"/>
</g>
<line stroke="black" stroke-0="1" x1="0" x2="0" y1="0" y2="-340"/>
<g>
<text dominant-baseline="middle" font-size="12" text-anchor="end" x="-15" y="0">
0
</text>
<text dominant-baseline="middle" font-size="12" text-anchor="end" x="-15" y="-85">
2000000
</text>
<text dominant-baseline="middle" font-size="12" text-anchor="end" x="-15" y="-170">
4000000
</text>
<text dominant-baseline="middle" font-size="12" text-anchor="end" x="-15" y="-255">
6000000
</text>
<text dominant-baseline="middle" font-size="12" text-anchor="end" x="-15" y="-340">
8000000
</text>
</g>
<text font-size="12" text-anchor="middle" transform="rotate(-90 -30 -170)" x="-30" y="-170">
Score
</text>
</g>
</g>
</svg>