<svg viewBox="0 0 600 400" xmlns="http://www.w3.org/2000/svg">
<g transform="translate(50, 360)">
<g>
<circle cx="0" cy="-inf" fill="#000000" r="2"/>
<circle cx="2.380952380952381" cy="-inf" fill="#000000" r="2"/>
<circle cx="4.761904761904762" cy="-118.33185816007025" fill="#000000" r="2"/>
<circle cx="7.142857142857143" cy="-115.83250827251759" fill="#000000" r="2"/>
<circle cx="9.523809523809524" cy="-114.99942080200636" fill="#000000" r="2"/>
<circle cx="11.904761904761905" cy="-114.58288581417122" fill="#000000" r="2"/>
<circle cx="14.285714285714286" cy="-114.33296832038225" fill="#000000" r="2"/>
<circle cx="16.666666666666668" cy="-114.16635832399018" fill="#000000" r="2"/>
<circle cx="19.047619047619047" cy="-114.04735207626995" fill="#000000" r="2"/>
<circle cx="21.428571428571427" cy="-113.95809791113861" fill="#000000" r="2"/>
<circle cx="23.80952380952381" cy="-113.88867832888839" fill="#000000" r="2"/>
<circle cx="26.19047619047619" cy="-113.83314287513713" fill="#000000" r="2"/>
<circle cx="28.571428571428573" cy="-113.7877049211871" fill="#000000" r="2"/>
<circle cx="30.952380952380953" cy="-113.74984006151256" fill="#000000" r="2"/>
<circle cx="33.333333333333336" cy="-113.71780063879706" fill="#000000" r="2"/>
<circle cx="35.714285714285715" cy="-113.69033833139959" fill="#000000" r="2"/>
<circle cx="38.095238095238095" cy="-113.66653770663834" fill="#000000" r="2"/>
<circle cx="40.476190476190474" cy="-113.64571219212836" fill="#000000" r="2"/>
<circle cx="42.857142857142854" cy="-113.62733676337083" fill="#000000" r="2"/>
<circle cx="45.23809523809524" cy="-113.61100306898152" fill="#000000" r="2"/>
<circle cx="47.61904761904762" cy="-113.59638872699409" fill="#000000" r="2"/>
<circle cx="50" cy="-113.58323583235833" fill="#000000" r="2"/>
<circle cx="52.38095238095238" cy="-113.5713356051742" fill="#000000" r="2"/>
<circle cx="54.76190476190476" cy="-113.56051722580159" fill="#000000" r="2"/>
<circle cx="57.142857142857146" cy="-113.5506395825864" fill="#000000" r="2"/>
<circle cx="59.523809523809526" cy="-113.54158508264567" fill="#000000" r="2"/>
<circle cx="61.904761904761905" cy="-113.5332549480862" fill="#000000" r="2"/>
<circle cx="64.28571428571429" cy="-113.5255655977048" fill="#000000" r="2"/>
<circle cx="66.66666666666667" cy="-113.51844583278896" fill="#000000" r="2"/>
<circle cx="69.04761904761905" cy="-113.51183462592914" fill="#000000" r="2"/>
<circle cx="71.42857142857143" cy="-113.50567936734029" fill="#000000" r="2"/>
<circle cx="73.80952380952381" cy="-113.49993446192238" fill="#000000" r="2"/>
<circle cx="76.19047619047619" cy="-113.49456019783563" fill="#000000" r="2"/>
<circle cx="78.57142857142857" cy="-113.48952182725989" fill="#000000" r="2"/>
<circle cx="80.95238095238095" cy="-113.48478881424866" fill="#000000" r="2"/>
<circle cx="83.33333333333333" cy="-113.48033421533667" fill="#000000" r="2"/>
<circle cx="85.71428571428571" cy="-113.4761341663366" fill="#000000" r="2"/>
<circle cx="88.0952380952381" cy="-113.47216745464344" fill="#000000" r="2"/>
<circle cx="90.47619047619048" cy="-113.46841516091736" fill="#000000" r="2"/>
<circle cx="92.85714285714286" cy="-113.46486035734706" fill="#000000" r="2"/>
<circle cx="95.23809523809524" cy="-113.46148785229744" fill="#000000" r="2"/>
<circle cx="97.61904761904762" cy="-113.45828397332613" fill="#000000" r="2"/>
<circle cx="100" cy="-113.45523638187345" fill="#000000" r="2"/>
<circle cx="102.38095238095238" cy="-113.45233391450044" fill="#000000" r="2"/>
<circle cx="104.76190476190476" cy="-113.4495664462224" fill="#000000" r="2"/>
<circle cx="107.14285714285714" cy="-113.44692477251569" fill="#000000" r="2"/>
<circle cx="109.52380952380952" cy="-113.44440050704556" fill="#000000" r="2"/>
<circle cx="111.9047619047619" cy="-113.44198599271573" fill="#000000" r="2"/>
<circle cx="114.28571428571429" cy="-113.43967422410569" fill="#000000" r="2"/>
<circle cx="116.66666666666667" cy="-113.43745877958476" fill="#000000" r="2"/>
<circle cx="119.04761904761905" cy="-113.43533376173413" fill="#000000" r="2"/>
<circle cx="121.42857142857143" cy="-113.43329374493479" fill="#000000" r="2"/>
<circle cx="123.80952380952381" cy="-113.43133372910282" fill="#000000" r="2"/>
<circle cx="126.19047619047619" cy="-113.42944909878473" fill="#000000" r="2"/>
<circle cx="128.57142857142858" cy="-113.42763558685813" fill="#000000" r="2"/>
<circle cx="130.95238095238096" cy="-113.42588924228548" fill="#000000" r="2"/>
<circle cx="133.33333333333334" cy="-113.42420640138056" fill="#000000" r="2"/>
<circle cx="135.71428571428572" cy="-113.42258366215077" fill="#000000" r="2"/>
<circle cx="138.0952380952381" cy="-113.42101786134008" fill="#000000" r="2"/>
<circle cx="140.47619047619048" cy="-113.41950605384264" fill="#000000" r="2"/>
<circle cx="142.85714285714286" cy="-113.41804549423154" fill="#000000" r="2"/>
<circle cx="145.23809523809524" cy="-113.41663362010586" fill="#000000" r="2"/>
<circle cx="147.61904761904762" cy="-113.41526803708281" fill="#000000" r="2"/>
<circle cx="150" cy="-113.41394650526999" fill="#000000" r="2"/>
<circle cx="152.38095238095238" cy="-113.41266692697876" fill="#000000" r="2"/>
<circle cx="154.76190476190476" cy="-113.41142733563733" fill="#000000" r="2"/>
<circle cx="157.14285714285714" cy="-113.41022588568521" fill="#000000" r="2"/>
<circle cx="159.52380952380952" cy="-113.40906084341599" fill="#000000" r="2"/>
<circle cx="161.9047619047619" cy="-113.40793057863218" fill="#000000" r="2"/>
<circle cx="164.28571428571428" cy="-113.40683355703004" fill="#000000" r="2"/>
<circle cx="166.66666666666666" cy="-113.40576833324812" fill="#000000" r="2"/>
<circle cx="169.04761904761904" cy="-113.40473354451775" fill="#000000" r="2"/>
<circle cx="171.42857142857142" cy="-113.40372790484956" fill="#000000" r="2"/>
<circle cx="173.8095238095238" cy="-113.40275019969413" fill="#000000" r="2"/>
<circle cx="176.1904761904762" cy="-113.40179928105208" fill="#000000" r="2"/>
<circle cx="178.57142857142858" cy="-113.4008740629882" fill="#000000" r="2"/>
<circle cx="180.95238095238096" cy="-113.39997351747128" fill="#000000" r="2"/>
<circle cx="183.33333333333334" cy="-113.39909667058092" fill="#000000" r="2"/>
<circle cx="185.71428571428572" cy="-113.39824259899882" fill="#000000" r="2"/>
<circle cx="188.0952380952381" cy="-113.39741042674335" fill="#000000" r="2"/>
<circle cx="190.47619047619048" cy="-113.39659932219269" fill="#000000" r="2"/>
<circle cx="192.85714285714286" cy="-113.39580849530587" fill="#000000" r="2"/>
<circle cx="195.23809523809524" cy="-113.39503719505835" fill="#000000" r="2"/>
<circle cx="197.61904761904762" cy="-113.39428470705873" fill="#000000" r="2"/>
<circle cx="200" cy="-113.39355035134722" fill="#000000" r="2"/>
<circle cx="202.38095238095238" cy="-113.39283348033399" fill="#000000" r="2"/>
<circle cx="204.76190476190476" cy="-113.39213347691499" fill="#000000" r="2"/>
<circle cx="207.14285714285714" cy="-113.39144975268258" fill="#000000" r="2"/>
<circle cx="209.52380952380952" cy="-113.39078174628861" fill="#000000" r="2"/>
<circle cx="211.9047619047619" cy="-113.39012892189008" fill="#000000" r="2"/>
<circle cx="214.28571428571428" cy="-113.38949076773909" fill="#000000" r="2"/>
<circle cx="216.66666666666666" cy="-113.38886679482215" fill="#000000" r="2"/>
<circle cx="219.04761904761904" cy="-113.38825653562331" fill="#000000" r="2"/>
<circle cx="221.42857142857142" cy="-113.38765954296153" fill="#000000" r="2"/>
<circle cx="223.8095238095238" cy="-113.38707538887732" fill="#000000" r="2"/>
<circle cx="226.1904761904762" cy="-113.38650366363508" fill="#000000" r="2"/>
<circle cx="228.57142857142858" cy="-113.38594397473352" fill="#000000" r="2"/>
<circle cx="230.95238095238096" cy="-113.38539594604808" fill="#000000" r="2"/>
<circle cx="233.33333333333334" cy="-113.38485921694034" fill="#000000" r="2"/>
<circle cx="235.71428571428572" cy="-113.38433344151586" fill="#000000" r="2"/>
<circle cx="238.0952380952381" cy="-113.38381828783676" fill="#000000" r="2"/>
<circle cx="240.47619047619048" cy="-113.38331343725368" fill="#000000" r="2"/>
<circle cx="242.85714285714286" cy="-113.38281858372963" fill="#000000" r="2"/>
<circle cx="245.23809523809524" cy="-113.38233343323809" fill="#000000" r="2"/>
<circle cx="247.61904761904762" cy="-113.38185770316097" fill="#000000" r="2"/>
<circle cx="250" cy="-113.3813911217568" fill="#000000" r="2"/>
<circle cx="252.38095238095238" cy="-113.38093342763702" fill="#000000" r="2"/>
<circle cx="254.76190476190476" cy="-113.38048436926717" fill="#000000" r="2"/>
<circle cx="257.14285714285717" cy="-113.38004370453395" fill="#000000" r="2"/>
<circle cx="259.5238095238095" cy="-113.37961120027103" fill="#000000" r="2"/>
<circle cx="261.9047619047619" cy="-113.3791866318798" fill="#000000" r="2"/>
<circle cx="264.2857142857143" cy="-113.3787697829294" fill="#000000" r="2"/>
<circle cx="266.6666666666667" cy="-113.3783604447856" fill="#000000" r="2"/>
<circle cx="269.04761904761904" cy="-113.37795841626455" fill="#000000" r="2"/>
<circle cx="271.42857142857144" cy="-113.37756350330697" fill="#000000" r="2"/>
<circle cx="273.8095238095238" cy="-113.37717551865668" fill="#000000" r="2"/>
<circle cx="276.1904761904762" cy="-113.37679428157595" fill="#000000" r="2"/>
<circle cx="278.57142857142856" cy="-113.37641961756526" fill="#000000" r="2"/>
<circle cx="280.95238095238096" cy="-113.37605135807462" fill="#000000" r="2"/>
<circle cx="283.3333333333333" cy="-113.37568934028096" fill="#000000" r="2"/>
<circle cx="285.7142857142857" cy="-113.37533340683245" fill="#000000" r="2"/>
<circle cx="288.0952380952381" cy="-113.37498340561773" fill="#000000" r="2"/>
<circle cx="290.4761904761905" cy="-113.37463918955957" fill="#000000" r="2"/>
<circle cx="292.85714285714283" cy="-113.37430061639243" fill="#000000" r="2"/>
<circle cx="295.23809523809524" cy="-113.37396754848912" fill="#000000" r="2"/>
<circle cx="297.6190476190476" cy="-113.37363985266299" fill="#000000" r="2"/>
<circle cx="300" cy="-113.37331739997414" fill="#000000" r="2"/>
<circle cx="302.3809523809524" cy="-113.3730000655892" fill="#000000" r="2"/>
<circle cx="304.76190476190476" cy="-113.3726877286082" fill="#000000" r="2"/>
<circle cx="307.14285714285717" cy="-113.3723802718996" fill="#000000" r="2"/>
<circle cx="309.5238095238095" cy="-113.37207758196843" fill="#000000" r="2"/>
<circle cx="311.9047619047619" cy="-113.3717795488119" fill="#000000" r="2"/>
<circle cx="314.2857142857143" cy="-113.37148606578752" fill="#000000" r="2"/>
<circle cx="316.6666666666667" cy="-113.37119702948112" fill="#000000" r="2"/>
<circle cx="319.04761904761904" cy="-113.37091233959558" fill="#000000" r="2"/>
<circle cx="321.42857142857144" cy="-113.37063189881471" fill="#000000" r="2"/>
<circle cx="323.8095238095238" cy="-113.37035561272084" fill="#000000" r="2"/>
<circle cx="326.1904761904762" cy="-113.37008338966697" fill="#000000" r="2"/>
<circle cx="328.57142857142856" cy="-113.36981514067375" fill="#000000" r="2"/>
<circle cx="330.95238095238096" cy="-113.36955077935515" fill="#000000" r="2"/>
<circle cx="333.3333333333333" cy="-113.36929022179902" fill="#000000" r="2"/>
<circle cx="335.7142857142857" cy="-113.36903338650518" fill="#000000" r="2"/>
<circle cx="338.0952380952381" cy="-113.36878019426585" fill="#000000" r="2"/>
<circle cx="340.4761904761905" cy="-113.36853056812033" fill="#000000" r="2"/>
<circle cx="342.85714285714283" cy="-113.368284433256" fill="#000000" r="2"/>
<circle cx="345.23809523809524" cy="-113.36804171693414" fill="#000000" r="2"/>
<circle cx="347.6190476190476" cy="-113.36780234842809" fill="#000000" r="2"/>
<circle cx="350" cy="-113.36756625894898" fill="#000000" r="2"/>
<circle cx="352.3809523809524" cy="-113.36733338157573" fill="#000000" r="2"/>
<circle cx="354.76190476190476" cy="-113.36710365120138" fill="#000000" r="2"/>
<circle cx="357.14285714285717" cy="-113.36687700445472" fill="#000000" r="2"/>
<circle cx="359.5238095238095" cy="-113.36665337967158" fill="#000000" r="2"/>
<circle cx="361.9047619047619" cy="-113.36643271681217" fill="#000000" r="2"/>
<circle cx="364.2857142857143" cy="-113.36621495741177" fill="#000000" r="2"/>
<circle cx="366.6666666666667" cy="-113.36600004454353" fill="#000000" r="2"/>
<circle cx="369.04761904761904" cy="-113.36578792275662" fill="#000000" r="2"/>
<circle cx="371.42857142857144" cy="-113.36557853803097" fill="#000000" r="2"/>
<circle cx="373.8095238095238" cy="-113.36537183772768" fill="#000000" r="2"/>
<circle cx="376.1904761904762" cy="-113.36516777054786" fill="#000000" r="2"/>
<circle cx="378.57142857142856" cy="-113.36496628650372" fill="#000000" r="2"/>
<circle cx="380.95238095238096" cy="-113.36476733685268" fill="#000000" r="2"/>
<circle cx="383.3333333333333" cy="-113.36457087407665" fill="#000000" r="2"/>
<circle cx="385.7142857142857" cy="-113.36437685183677" fill="#000000" r="2"/>
<circle cx="388.0952380952381" cy="-113.3641852249321" fill="#000000" r="2"/>
<circle cx="390.4761904761905" cy="-113.36399594928322" fill="#000000" r="2"/>
<circle cx="392.85714285714283" cy="-113.36380898187853" fill="#000000" r="2"/>
<circle cx="395.23809523809524" cy="-113.36362428074547" fill="#000000" r="2"/>
<circle cx="397.6190476190476" cy="-113.36344180492985" fill="#000000" r="2"/>
<circle cx="400" cy="-113.36326151445465" fill="#000000" r="2"/>
<circle cx="402.3809523809524" cy="-113.36308337029938" fill="#000000" r="2"/>
<circle cx="404.76190476190476" cy="-113.36290733436302" fill="#000000" r="2"/>
<circle cx="407.14285714285717" cy="-113.36273336943923" fill="#000000" r="2"/>
<circle cx="409.5238095238095" cy="-113.36256143919576" fill="#000000" r="2"/>
<circle cx="411.9047619047619" cy="-113.36239150814144" fill="#000000" r="2"/>
<circle cx="414.2857142857143" cy="-113.36222354160977" fill="#000000" r="2"/>
<circle cx="416.6666666666667" cy="-113.36205750573403" fill="#000000" r="2"/>
<circle cx="419.04761904761904" cy="-113.36189336741033" fill="#000000" r="2"/>
<circle cx="421.42857142857144" cy="-113.36173109429753" fill="#000000" r="2"/>
<circle cx="423.8095238095238" cy="-113.36157065478424" fill="#000000" r="2"/>
<circle cx="426.1904761904762" cy="-113.36141201796005" fill="#000000" r="2"/>
<circle cx="428.57142857142856" cy="-113.36125515361952" fill="#000000" r="2"/>
<circle cx="430.95238095238096" cy="-113.36110003221692" fill="#000000" r="2"/>
<circle cx="433.3333333333333" cy="-113.36094662486212" fill="#000000" r="2"/>
<circle cx="435.7142857142857" cy="-113.36079490330812" fill="#000000" r="2"/>
<circle cx="438.0952380952381" cy="-113.36064483991407" fill="#000000" r="2"/>
<circle cx="440.4761904761905" cy="-113.36049640764516" fill="#000000" r="2"/>
<circle cx="442.85714285714283" cy="-113.36034958005209" fill="#000000" r="2"/>
<circle cx="445.23809523809524" cy="-113.36020433125037" fill="#000000" r="2"/>
<circle cx="447.6190476190476" cy="-113.36006063591631" fill="#000000" r="2"/>
<circle cx="450" cy="-113.3599184692539" fill="#000000" r="2"/>
<circle cx="452.3809523809524" cy="-113.35977780700729" fill="#000000" r="2"/>
<circle cx="454.76190476190476" cy="-113.35963862541126" fill="#000000" r="2"/>
<circle cx="457.14285714285717" cy="-113.35950090122012" fill="#000000" r="2"/>
<circle cx="459.5238095238095" cy="-113.35936461165814" fill="#000000" r="2"/>
<circle cx="461.9047619047619" cy="-113.3592297344238" fill="#000000" r="2"/>
<circle cx="464.2857142857143" cy="-113.35909624767737" fill="#000000" r="2"/>
<circle cx="466.6666666666667" cy="-113.35896413002435" fill="#000000" r="2"/>
<circle cx="469.04761904761904" cy="-113.35883336051556" fill="#000000" r="2"/>
<circle cx="471.42857142857144" cy="-113.35870391861826" fill="#000000" r="2"/>
<circle cx="473.8095238095238" cy="-113.35857575757716" fill="#000000" r="2"/>
</g>
<g>
<g>
<line stroke="black" stroke-width="1" x1="0" x2="0" y1="0" y2="10"/>
<line stroke="black" stroke-width="1" x1="95.23809523809524" x2="95.23809523809524" y1="0" y2="10"/>
<line stroke="black" stroke-width="1" x1="190.47619047619048" x2="190.47619047619048" y1="0" y2="10"/>
<line stroke="black" stroke-width="1" x1="285.7142857142857" x2="285.7142857142857" y1="0" y2="10"/>
<line stroke="black" stroke-width="1" x1="380.95238095238096" x2="380.95238095238096" y1="0" y2="10"/>
<line stroke="black" stroke-width="1" x1="476.1904761904762" x2="476.1904761904762" y1="0" y2="10"/>
</g>
<line stroke="black" stroke-width="1" x1="0" x2="500" y1="0" y2="0"/>
<g>
<text font-size="12" text-anchor="middle" x="0" y="20">
0
</text>
<text font-size="12" text-anchor="middle" x="95.23809523809524" y="20">
4000000
</text>
<text font-size="12" text-anchor="middle" x="190.47619047619048" y="20">
8000000
</text>
<text font-size="12" text-anchor="middle" x="285.7142857142857" y="20">
12000000
</text>
<text font-size="12" text-anchor="middle" x="380.95238095238096" y="20">
16000000
</text>
<text font-size="12" text-anchor="middle" x="476.1904761904762" y="20">
20000000
</text>
</g>
<text font-size="12" text-anchor="middle" x="250" y="30">
Gas
</text>
</g>
<g>
<g>
<line stroke="black" stroke-width="1" x1="0" x2="-10" y1="0" y2="0"/>
<line stroke="black" stroke-width="1" x1="0" x2="-10" y1="-113.33333333333333" y2="-113.33333333333333"/>
<line stroke="black" stroke-width="1" x1="0" x2="-10" y1="-226.66666666666666" y2="-226.66666666666666"/>
<line stroke="black" stroke-width="1" x1="0" x2="-10" y1="-340" y2="-340"/>
</g>
<line stroke="black" stroke-0="1" x1="0" x2="0" y1="0" y2="-340"/>
<g>
<text dominant-baseline="middle" font-size="12" text-anchor="end" x="-15" y="0">
20900
</text>
<text dominant-baseline="middle" font-size="12" text-anchor="end" x="-15" y="-113.33333333333333">
21000
</text>
<text dominant-baseline="middle" font-size="12" text-anchor="end" x="-15" y="-226.66666666666666">
21100
</text>
<text dominant-baseline="middle" font-size="12" text-anchor="end" x="-15" y="-340">
21200
</text>
</g>
<text font-size="12" text-anchor="middle" transform="rotate(-90 -30 -170)" x="-30" y="-170">
Score
</text>
</g>
</g>
</svg>