<svg viewBox="0 0 600 400" xmlns="http://www.w3.org/2000/svg">
<g transform="translate(50, 360)">
<g>
<circle cx="0" cy="-0.0000101046405360134" fill="#000000" r="5"/>
<circle cx="20" cy="-0.00003737694978585859" fill="#000000" r="5"/>
<circle cx="40" cy="-0.00013281910258138748" fill="#000000" r="5"/>
<circle cx="60" cy="-0.0004685702863238095" fill="#000000" r="5"/>
<circle cx="80" cy="-0.0016557848472287175" fill="#000000" r="5"/>
<circle cx="100" cy="-0.005875418337297594" fill="#000000" r="5"/>
<circle cx="120" cy="-0.02095065714466045" fill="#000000" r="5"/>
<circle cx="140" cy="-0.07508941394773333" fill="#000000" r="5"/>
<circle cx="160" cy="-0.2705317288014185" fill="#000000" r="5"/>
<circle cx="180" cy="-0.9797941457031635" fill="#000000" r="5"/>
<circle cx="200" cy="-3.567323884294637" fill="#000000" r="5"/>
<circle cx="220" cy="-13.057318483324368" fill="#000000" r="5"/>
<circle cx="240" cy="-48.048699871023324" fill="#000000" r="5"/>
<circle cx="260" cy="-177.76159228894275" fill="#000000" r="5"/>
<circle cx="280" cy="-661.2039426900391" fill="#000000" r="5"/>
<circle cx="300" cy="-2472.7877559372337" fill="#000000" r="5"/>
<circle cx="320" cy="-9298.330564656166" fill="#000000" r="5"/>
<circle cx="340" cy="-35156.27261102817" fill="#000000" r="5"/>
<circle cx="360" cy="-133657.54452868213" fill="#000000" r="5"/>
<circle cx="380" cy="-510963.88223244227" fill="#000000" r="5"/>
<circle cx="400" cy="-1964293.5997388314" fill="#000000" r="5"/>
<circle cx="420" cy="-2660788.81063433" fill="#000000" r="5"/>
<circle cx="440" cy="-422786.70546571765" fill="#000000" r="5"/>
<circle cx="460" cy="-1653019.1480631374" fill="#000000" r="5"/>
<circle cx="480" cy="-1482421.3852012104" fill="#000000" r="5"/>
<circle cx="500" cy="-816268.0749859596" fill="#000000" r="5"/>
<circle cx="520" cy="-3246802.993666645" fill="#000000" r="5"/>
<circle cx="540" cy="-2779569.8523783823" fill="#000000" r="5"/>
<circle cx="560" cy="-915612.9097115198" fill="#000000" r="5"/>
<circle cx="580" cy="-3706228.7078491333" fill="#000000" r="5"/>
<circle cx="600" cy="-4699584.09738486" fill="#000000" r="5"/>
<circle cx="620" cy="-3569764.0002375343" fill="#000000" r="5"/>
<circle cx="640" cy="-4193560.036758575" fill="#000000" r="5"/>
<circle cx="660" cy="-1515126.6701762434" fill="#000000" r="5"/>
<circle cx="680" cy="-997188.2871929508" fill="#000000" r="5"/>
<circle cx="700" cy="-4184104.766401717" fill="#000000" r="5"/>
<circle cx="720" cy="-1503095.6501173368" fill="#000000" r="5"/>
<circle cx="740" cy="-964550.5284921869" fill="#000000" r="5"/>
<circle cx="760" cy="-4122572.832736872" fill="#000000" r="5"/>
<circle cx="780" cy="-1266642.1532512265" fill="#000000" r="5"/>
<circle cx="800" cy="-5481836.048005153" fill="#000000" r="5"/>
<circle cx="820" cy="-1645220.2810617015" fill="#000000" r="5"/>
<circle cx="840" cy="-1618198.2398611961" fill="#000000" r="5"/>
<circle cx="860" cy="-1509375.003147333" fill="#000000" r="5"/>
<circle cx="880" cy="-1035988.2855325369" fill="#000000" r="5"/>
<circle cx="900" cy="-4629172.382774556" fill="#000000" r="5"/>
<circle cx="920" cy="-3603059.3443693626" fill="#000000" r="5"/>
<circle cx="940" cy="-4758131.478324969" fill="#000000" r="5"/>
<circle cx="960" cy="-4238466.517823989" fill="#000000" r="5"/>
<circle cx="980" cy="-1882749.5616786783" fill="#000000" r="5"/>
<circle cx="1000" cy="-2802064.9159099874" fill="#000000" r="5"/>
<circle cx="1020" cy="-1162495.2070168452" fill="#000000" r="5"/>
<circle cx="1040" cy="-5441806.134791971" fill="#000000" r="5"/>
<circle cx="1060" cy="-1591774.6595079529" fill="#000000" r="5"/>
<circle cx="1080" cy="-1498480.6551009768" fill="#000000" r="5"/>
<circle cx="1100" cy="-1063065.8217019145" fill="#000000" r="5"/>
<circle cx="1120" cy="-5115561.942352572" fill="#000000" r="5"/>
<circle cx="1140" cy="-55643.21572685525" fill="#000000" r="5"/>
<circle cx="1160" cy="-271557.8351206228" fill="#000000" r="5"/>
<circle cx="1180" cy="-1334761.0711871486" fill="#000000" r="5"/>
<circle cx="1200" cy="-290801.7876662577" fill="#000000" r="5"/>
<circle cx="1220" cy="-1450064.1488660714" fill="#000000" r="5"/>
<circle cx="1240" cy="-874195.0709682235" fill="#000000" r="5"/>
<circle cx="1260" cy="-4423221.3661435945" fill="#000000" r="5"/>
<circle cx="1280" cy="-3033684.581601783" fill="#000000" r="5"/>
<circle cx="1300" cy="-2473382.5966539276" fill="#000000" r="5"/>
<circle cx="1320" cy="-6195028.583172932" fill="#000000" r="5"/>
<circle cx="1340" cy="-5687216.342785029" fill="#000000" r="5"/>
<circle cx="1360" cy="-3063150.655679191" fill="#000000" r="5"/>
<circle cx="1380" cy="-2705459.219802733" fill="#000000" r="5"/>
<circle cx="1400" cy="-818389.1952523832" fill="#000000" r="5"/>
<circle cx="1420" cy="-4399660.313679071" fill="#000000" r="5"/>
<circle cx="1440" cy="-3097121.248865481" fill="#000000" r="5"/>
<circle cx="1460" cy="-2976871.547003502" fill="#000000" r="5"/>
<circle cx="1480" cy="-2338709.024636479" fill="#000000" r="5"/>
<circle cx="1500" cy="-5897307.627393204" fill="#000000" r="5"/>
<circle cx="1520" cy="-4437743.344624471" fill="#000000" r="5"/>
<circle cx="1540" cy="-3438855.7256090227" fill="#000000" r="5"/>
<circle cx="1560" cy="-5043329.56144636" fill="#000000" r="5"/>
<circle cx="1580" cy="-6968843.589445912" fill="#000000" r="5"/>
<circle cx="1600" cy="-3404464.806517918" fill="#000000" r="5"/>
<circle cx="1620" cy="-4970995.953921012" fill="#000000" r="5"/>
<circle cx="1640" cy="-6722106.410720508" fill="#000000" r="5"/>
<circle cx="1660" cy="-2028832.3332213035" fill="#000000" r="5"/>
<circle cx="1680" cy="-4504620.155535608" fill="#000000" r="5"/>
<circle cx="1700" cy="-4083861.444411765" fill="#000000" r="5"/>
<circle cx="1720" cy="-1557737.6486257608" fill="#000000" r="5"/>
<circle cx="1740" cy="-1730873.881832371" fill="#000000" r="5"/>
<circle cx="1760" cy="-2819799.68152452" fill="#000000" r="5"/>
<circle cx="1780" cy="-1675027.9948291262" fill="#000000" r="5"/>
<circle cx="1800" cy="-2518978.404747231" fill="#000000" r="5"/>
<circle cx="1820" cy="-7919579.201792331" fill="#000000" r="5"/>
<circle cx="1840" cy="-1694337.2852312834" fill="#000000" r="5"/>
<circle cx="1860" cy="-2715621.7877669535" fill="#000000" r="5"/>
<circle cx="1880" cy="-1072050.9881484418" fill="#000000" r="5"/>
<circle cx="1900" cy="-7093349.061277363" fill="#000000" r="5"/>
<circle cx="1920" cy="-4765116.633942033" fill="#000000" r="5"/>
<circle cx="1940" cy="-6321716.915252651" fill="#000000" r="5"/>
<circle cx="1960" cy="-8295944.01806837" fill="#000000" r="5"/>
<circle cx="1980" cy="-4402812.578141306" fill="#000000" r="5"/>
<circle cx="2000" cy="-3994985.4550072635" fill="#000000" r="5"/>
<circle cx="2020" cy="-1172105.0760993385" fill="#000000" r="5"/>
<circle cx="2040" cy="-8315034.245425828" fill="#000000" r="5"/>
<circle cx="2060" cy="-4723101.851928684" fill="#000000" r="5"/>
<circle cx="2080" cy="-6483195.551983913" fill="#000000" r="5"/>
<circle cx="2100" cy="-754715.9494992001" fill="#000000" r="5"/>
<circle cx="2120" cy="-5584313.7300773645" fill="#000000" r="5"/>
<circle cx="2140" cy="-3591984.4219194204" fill="#000000" r="5"/>
<circle cx="2160" cy="-7863901.323842012" fill="#000000" r="5"/>
<circle cx="2180" cy="-1588673.1413501345" fill="#000000" r="5"/>
<circle cx="2200" cy="-2417364.6460967693" fill="#000000" r="5"/>
<circle cx="2220" cy="-8924900.923646616" fill="#000000" r="5"/>
<circle cx="2240" cy="-10035449.601561464" fill="#000000" r="5"/>
<circle cx="2260" cy="-8828124.861203" fill="#000000" r="5"/>
<circle cx="2280" cy="-9488115.259278147" fill="#000000" r="5"/>
<circle cx="2300" cy="-4554555.378294294" fill="#000000" r="5"/>
<circle cx="2320" cy="-6023156.9834862575" fill="#000000" r="5"/>
<circle cx="2340" cy="-7712718.2572965715" fill="#000000" r="5"/>
<circle cx="2360" cy="-480830.63587296824" fill="#000000" r="5"/>
<circle cx="2380" cy="-4135912.7975271894" fill="#000000" r="5"/>
<circle cx="2400" cy="-2681548.706471454" fill="#000000" r="5"/>
<circle cx="2420" cy="-1142547.5957668575" fill="#000000" r="5"/>
<circle cx="2440" cy="-10210636.259480922" fill="#000000" r="5"/>
<circle cx="2460" cy="-22428.482837652908" fill="#000000" r="5"/>
<circle cx="2480" cy="-205782.22717703483" fill="#000000" r="5"/>
<circle cx="2500" cy="-1913574.492203315" fill="#000000" r="5"/>
<circle cx="2520" cy="-6009851.647431143" fill="#000000" r="5"/>
<circle cx="2540" cy="-8656765.594574472" fill="#000000" r="5"/>
<circle cx="2560" cy="-9698206.86777543" fill="#000000" r="5"/>
<circle cx="2580" cy="-7530751.002124398" fill="#000000" r="5"/>
<circle cx="2600" cy="-11475297.62387161" fill="#000000" r="5"/>
<circle cx="2620" cy="-12822845.000751164" fill="#000000" r="5"/>
<circle cx="2640" cy="-643410.5312134697" fill="#000000" r="5"/>
<circle cx="2660" cy="-6708315.1821668465" fill="#000000" r="5"/>
<circle cx="2680" cy="-3474683.386636642" fill="#000000" r="5"/>
<circle cx="2700" cy="-9920263.963476477" fill="#000000" r="5"/>
<circle cx="2720" cy="-10792956.750781918" fill="#000000" r="5"/>
<circle cx="2740" cy="-6490574.18925165" fill="#000000" r="5"/>
<circle cx="2760" cy="-1246241.7403053255" fill="#000000" r="5"/>
<circle cx="2780" cy="-14292897.271215968" fill="#000000" r="5"/>
<circle cx="2800" cy="-2993688.4144595615" fill="#000000" r="5"/>
<circle cx="2820" cy="-5239841.128417422" fill="#000000" r="5"/>
<circle cx="2840" cy="-1638970.6031833983" fill="#000000" r="5"/>
<circle cx="2860" cy="-4459938.309266725" fill="#000000" r="5"/>
<circle cx="2880" cy="-7905697.730063517" fill="#000000" r="5"/>
<circle cx="2900" cy="-3180404.8174411324" fill="#000000" r="5"/>
<circle cx="2920" cy="-8158406.98866229" fill="#000000" r="5"/>
<circle cx="2940" cy="-6646888.016209117" fill="#000000" r="5"/>
<circle cx="2960" cy="-3599699.358337046" fill="#000000" r="5"/>
<circle cx="2980" cy="-14418477.68473437" fill="#000000" r="5"/>
<circle cx="3000" cy="-5368224.800952711" fill="#000000" r="5"/>
<circle cx="3020" cy="-3786785.920745779" fill="#000000" r="5"/>
<circle cx="3040" cy="-18077944.38838101" fill="#000000" r="5"/>
<circle cx="3060" cy="-3196292.725389346" fill="#000000" r="5"/>
<circle cx="3080" cy="-9851744.104881605" fill="#000000" r="5"/>
<circle cx="3100" cy="-14381950.955546476" fill="#000000" r="5"/>
<circle cx="3120" cy="-5532743.026606074" fill="#000000" r="5"/>
<circle cx="3140" cy="-7023221.947099529" fill="#000000" r="5"/>
<circle cx="3160" cy="-10793916.645632302" fill="#000000" r="5"/>
<circle cx="3180" cy="-10076903.256428968" fill="#000000" r="5"/>
<circle cx="3200" cy="-20198568.171282485" fill="#000000" r="5"/>
<circle cx="3220" cy="-19163817.103677418" fill="#000000" r="5"/>
<circle cx="3240" cy="-437401.8186702716" fill="#000000" r="5"/>
<circle cx="3260" cy="-8360789.9632782545" fill="#000000" r="5"/>
<circle cx="3280" cy="-13854387.6685534" fill="#000000" r="5"/>
<circle cx="3300" cy="-22145349.95590132" fill="#000000" r="5"/>
<circle cx="3320" cy="-9446365.757841468" fill="#000000" r="5"/>
<circle cx="3340" cy="-11057926.589124467" fill="#000000" r="5"/>
<circle cx="3360" cy="-18862863.37588758" fill="#000000" r="5"/>
<circle cx="3380" cy="-22905139.946759786" fill="#000000" r="5"/>
<circle cx="3400" cy="-28778028.856490154" fill="#000000" r="5"/>
<circle cx="3420" cy="-17340608.820367116" fill="#000000" r="5"/>
<circle cx="3440" cy="-19174564.20482127" fill="#000000" r="5"/>
<circle cx="3460" cy="-906894.1733342117" fill="#000000" r="5"/>
<circle cx="3480" cy="-24962370.948327195" fill="#000000" r="5"/>
<circle cx="3500" cy="-20586293.986151334" fill="#000000" r="5"/>
<circle cx="3520" cy="-5085435.720226267" fill="#000000" r="5"/>
<circle cx="3540" cy="-39328893.52555394" fill="#000000" r="5"/>
<circle cx="3560" cy="-34350586.03310432" fill="#000000" r="5"/>
<circle cx="3580" cy="-40395480.00825568" fill="#000000" r="5"/>
<circle cx="3600" cy="-30381332.208168164" fill="#000000" r="5"/>
<circle cx="3620" cy="-39486108.769175924" fill="#000000" r="5"/>
<circle cx="3640" cy="-48796853.991663896" fill="#000000" r="5"/>
<circle cx="3660" cy="-13250678.94061841" fill="#000000" r="5"/>
<circle cx="3680" cy="-22500867.930943538" fill="#000000" r="5"/>
<circle cx="3700" cy="-39740853.0813269" fill="#000000" r="5"/>
<circle cx="3720" cy="-9752168.76781028" fill="#000000" r="5"/>
<circle cx="3740" cy="-47023772.04131296" fill="#000000" r="5"/>
<circle cx="3760" cy="-68003051.13963161" fill="#000000" r="5"/>
<circle cx="3780" cy="-25735762.545798395" fill="#000000" r="5"/>
<circle cx="3800" cy="-16466494.54929817" fill="#000000" r="5"/>
<circle cx="3820" cy="-99284468.2895715" fill="#000000" r="5"/>
<circle cx="3840" cy="-101345173.74371764" fill="#000000" r="5"/>
<circle cx="3860" cy="-61885883.85659101" fill="#000000" r="5"/>
<circle cx="3880" cy="-87657725.37133692" fill="#000000" r="5"/>
<circle cx="3900" cy="-152828506.63606712" fill="#000000" r="5"/>
<circle cx="3920" cy="-225279161.1144079" fill="#000000" r="5"/>
<circle cx="3940" cy="-240727713.71307132" fill="#000000" r="5"/>
<circle cx="3960" cy="-575256815.1363091" fill="#000000" r="5"/>
<circle cx="3980" cy="-inf" fill="#000000" r="5"/>
</g>
<g>
<g>
<line stroke="black" stroke-width="1" x1="0" x2="0" y1="0" y2="10"/>
<line stroke="black" stroke-width="1" x1="100" x2="100" y1="0" y2="10"/>
<line stroke="black" stroke-width="1" x1="200" x2="200" y1="0" y2="10"/>
<line stroke="black" stroke-width="1" x1="300" x2="300" y1="0" y2="10"/>
<line stroke="black" stroke-width="1" x1="400" x2="400" y1="0" y2="10"/>
<line stroke="black" stroke-width="1" x1="500" x2="500" y1="0" y2="10"/>
</g>
<line stroke="black" stroke-width="1" x1="0" x2="500" y1="0" y2="0"/>
<g>
<text font-size="12" text-anchor="middle" x="0" y="20">
0
</text>
<text font-size="12" text-anchor="middle" x="100" y="20">
5000
</text>
<text font-size="12" text-anchor="middle" x="200" y="20">
10000
</text>
<text font-size="12" text-anchor="middle" x="300" y="20">
15000
</text>
<text font-size="12" text-anchor="middle" x="400" y="20">
20000
</text>
<text font-size="12" text-anchor="middle" x="500" y="20">
25000
</text>
</g>
<text font-size="12" text-anchor="middle" x="250" y="30">
Gas
</text>
</g>
<g>
<g>
<line stroke="black" stroke-width="1" x1="0" x2="-10" y1="0" y2="0"/>
<line stroke="black" stroke-width="1" x1="0" x2="-10" y1="-113.33333333333333" y2="-113.33333333333333"/>
<line stroke="black" stroke-width="1" x1="0" x2="-10" y1="-226.66666666666666" y2="-226.66666666666666"/>
<line stroke="black" stroke-width="1" x1="0" x2="-10" y1="-340" y2="-340"/>
</g>
<line stroke="black" stroke-0="1" x1="0" x2="0" y1="0" y2="-340"/>
<g>
<text dominant-baseline="middle" font-size="12" text-anchor="end" x="-15" y="0">
0
</text>
<text dominant-baseline="middle" font-size="12" text-anchor="end" x="-15" y="-113.33333333333333">
50000000000
</text>
<text dominant-baseline="middle" font-size="12" text-anchor="end" x="-15" y="-226.66666666666666">
100000000000
</text>
<text dominant-baseline="middle" font-size="12" text-anchor="end" x="-15" y="-340">
150000000000
</text>
</g>
<text font-size="12" text-anchor="middle" transform="rotate(-90 -30 -170)" x="-30" y="-170">
Score
</text>
</g>
</g>
</svg>