<svg viewBox="0 0 600 400" xmlns="http://www.w3.org/2000/svg">
<g transform="translate(50, 360)">
<g>
<circle cx="0" cy="-96.68363636363637" fill="#000000" r="2"/>
<circle cx="2.5" cy="-96.68363636363637" fill="#000000" r="2"/>
<circle cx="5" cy="-97.69646545454546" fill="#000000" r="2"/>
<circle cx="7.5" cy="-98.70929454545454" fill="#000000" r="2"/>
<circle cx="10" cy="-99.72212363636363" fill="#000000" r="2"/>
<circle cx="12.5" cy="-100.73495272727273" fill="#000000" r="2"/>
<circle cx="15" cy="-101.74778181818182" fill="#000000" r="2"/>
<circle cx="17.5" cy="-102.76061090909091" fill="#000000" r="2"/>
<circle cx="20" cy="-103.77344" fill="#000000" r="2"/>
<circle cx="22.5" cy="-104.78626909090909" fill="#000000" r="2"/>
<circle cx="25" cy="-105.79909818181818" fill="#000000" r="2"/>
<circle cx="27.5" cy="-106.81192727272727" fill="#000000" r="2"/>
<circle cx="30" cy="-107.82475636363637" fill="#000000" r="2"/>
<circle cx="32.5" cy="-108.83758545454546" fill="#000000" r="2"/>
<circle cx="35" cy="-109.85041454545454" fill="#000000" r="2"/>
<circle cx="37.5" cy="-110.86324363636363" fill="#000000" r="2"/>
<circle cx="40" cy="-111.87607272727273" fill="#000000" r="2"/>
<circle cx="42.5" cy="-112.88890181818182" fill="#000000" r="2"/>
<circle cx="45" cy="-113.90173090909092" fill="#000000" r="2"/>
<circle cx="47.5" cy="-114.91456" fill="#000000" r="2"/>
<circle cx="50" cy="-115.92738909090909" fill="#000000" r="2"/>
<circle cx="52.5" cy="-116.94021818181818" fill="#000000" r="2"/>
<circle cx="55" cy="-117.95304727272728" fill="#000000" r="2"/>
<circle cx="57.5" cy="-118.96587636363637" fill="#000000" r="2"/>
<circle cx="60" cy="-119.97870545454545" fill="#000000" r="2"/>
<circle cx="62.5" cy="-120.99153454545454" fill="#000000" r="2"/>
<circle cx="65" cy="-122.00436363636364" fill="#000000" r="2"/>
<circle cx="67.5" cy="-123.01719272727273" fill="#000000" r="2"/>
<circle cx="70" cy="-124.03002181818182" fill="#000000" r="2"/>
<circle cx="72.5" cy="-125.04285090909092" fill="#000000" r="2"/>
<circle cx="75" cy="-126.05568" fill="#000000" r="2"/>
<circle cx="77.5" cy="-127.06850909090909" fill="#000000" r="2"/>
<circle cx="80" cy="-128.08133818181818" fill="#000000" r="2"/>
<circle cx="82.5" cy="-129.09416727272728" fill="#000000" r="2"/>
<circle cx="85" cy="-130.10699636363637" fill="#000000" r="2"/>
<circle cx="87.5" cy="-131.11982545454546" fill="#000000" r="2"/>
<circle cx="90" cy="-132.13265454545456" fill="#000000" r="2"/>
<circle cx="92.5" cy="-133.14548363636365" fill="#000000" r="2"/>
<circle cx="95" cy="-134.15831272727272" fill="#000000" r="2"/>
<circle cx="97.5" cy="-135.1711418181818" fill="#000000" r="2"/>
<circle cx="100" cy="-136.1839709090909" fill="#000000" r="2"/>
<circle cx="102.5" cy="-137.1968" fill="#000000" r="2"/>
<circle cx="105" cy="-138.2096290909091" fill="#000000" r="2"/>
<circle cx="107.5" cy="-139.22245818181818" fill="#000000" r="2"/>
<circle cx="110" cy="-140.23528727272728" fill="#000000" r="2"/>
<circle cx="112.5" cy="-141.24811636363637" fill="#000000" r="2"/>
<circle cx="115" cy="-142.26094545454546" fill="#000000" r="2"/>
<circle cx="117.5" cy="-143.27377454545456" fill="#000000" r="2"/>
<circle cx="120" cy="-144.28660363636362" fill="#000000" r="2"/>
<circle cx="122.5" cy="-145.29943272727272" fill="#000000" r="2"/>
<circle cx="125" cy="-146.3122618181818" fill="#000000" r="2"/>
<circle cx="127.5" cy="-147.3250909090909" fill="#000000" r="2"/>
<circle cx="130" cy="-148.33792" fill="#000000" r="2"/>
<circle cx="132.5" cy="-149.3507490909091" fill="#000000" r="2"/>
<circle cx="135" cy="-150.36357818181818" fill="#000000" r="2"/>
<circle cx="137.5" cy="-151.37640727272728" fill="#000000" r="2"/>
<circle cx="140" cy="-152.38923636363637" fill="#000000" r="2"/>
<circle cx="142.5" cy="-153.40206545454546" fill="#000000" r="2"/>
<circle cx="145" cy="-154.41489454545456" fill="#000000" r="2"/>
<circle cx="147.5" cy="-155.42772363636362" fill="#000000" r="2"/>
<circle cx="150" cy="-156.44055272727272" fill="#000000" r="2"/>
<circle cx="152.5" cy="-157.4533818181818" fill="#000000" r="2"/>
<circle cx="155" cy="-158.4662109090909" fill="#000000" r="2"/>
<circle cx="157.5" cy="-159.47904" fill="#000000" r="2"/>
<circle cx="160" cy="-160.4918690909091" fill="#000000" r="2"/>
<circle cx="162.5" cy="-161.50469818181818" fill="#000000" r="2"/>
<circle cx="165" cy="-162.51752727272728" fill="#000000" r="2"/>
<circle cx="167.5" cy="-163.53035636363637" fill="#000000" r="2"/>
<circle cx="170" cy="-164.54318545454547" fill="#000000" r="2"/>
<circle cx="172.5" cy="-165.55601454545456" fill="#000000" r="2"/>
<circle cx="175" cy="-166.56884363636362" fill="#000000" r="2"/>
<circle cx="177.5" cy="-167.58167272727272" fill="#000000" r="2"/>
<circle cx="180" cy="-168.5945018181818" fill="#000000" r="2"/>
<circle cx="182.5" cy="-169.6073309090909" fill="#000000" r="2"/>
<circle cx="185" cy="-170.62016" fill="#000000" r="2"/>
<circle cx="187.5" cy="-171.6329890909091" fill="#000000" r="2"/>
<circle cx="190" cy="-172.64581818181819" fill="#000000" r="2"/>
<circle cx="192.5" cy="-173.65864727272728" fill="#000000" r="2"/>
<circle cx="195" cy="-174.67147636363637" fill="#000000" r="2"/>
<circle cx="197.5" cy="-175.68430545454547" fill="#000000" r="2"/>
<circle cx="200" cy="-176.69713454545453" fill="#000000" r="2"/>
<circle cx="202.5" cy="-177.70996363636363" fill="#000000" r="2"/>
<circle cx="205" cy="-178.72279272727272" fill="#000000" r="2"/>
<circle cx="207.5" cy="-179.7356218181818" fill="#000000" r="2"/>
<circle cx="210" cy="-180.7484509090909" fill="#000000" r="2"/>
<circle cx="212.5" cy="-181.76128" fill="#000000" r="2"/>
<circle cx="215" cy="-182.7741090909091" fill="#000000" r="2"/>
<circle cx="217.5" cy="-183.7869381818182" fill="#000000" r="2"/>
<circle cx="220" cy="-184.79976727272728" fill="#000000" r="2"/>
<circle cx="222.5" cy="-185.81259636363637" fill="#000000" r="2"/>
<circle cx="225" cy="-186.82542545454547" fill="#000000" r="2"/>
<circle cx="227.5" cy="-187.83825454545453" fill="#000000" r="2"/>
<circle cx="230" cy="-188.85108363636363" fill="#000000" r="2"/>
<circle cx="232.5" cy="-189.86391272727272" fill="#000000" r="2"/>
<circle cx="235" cy="-190.8767418181818" fill="#000000" r="2"/>
<circle cx="237.5" cy="-191.8895709090909" fill="#000000" r="2"/>
<circle cx="240" cy="-192.9024" fill="#000000" r="2"/>
<circle cx="242.5" cy="-193.9152290909091" fill="#000000" r="2"/>
<circle cx="245" cy="-194.9280581818182" fill="#000000" r="2"/>
<circle cx="247.5" cy="-195.94088727272728" fill="#000000" r="2"/>
<circle cx="250" cy="-196.95371636363637" fill="#000000" r="2"/>
<circle cx="252.5" cy="-197.96654545454547" fill="#000000" r="2"/>
<circle cx="255" cy="-198.97937454545453" fill="#000000" r="2"/>
<circle cx="257.5" cy="-199.99220363636363" fill="#000000" r="2"/>
<circle cx="260" cy="-201.00503272727272" fill="#000000" r="2"/>
<circle cx="262.5" cy="-202.0178618181818" fill="#000000" r="2"/>
<circle cx="265" cy="-203.0306909090909" fill="#000000" r="2"/>
<circle cx="267.5" cy="-204.04352" fill="#000000" r="2"/>
<circle cx="270" cy="-205.0563490909091" fill="#000000" r="2"/>
<circle cx="272.5" cy="-206.0691781818182" fill="#000000" r="2"/>
<circle cx="275" cy="-207.08200727272728" fill="#000000" r="2"/>
<circle cx="277.5" cy="-208.09483636363638" fill="#000000" r="2"/>
<circle cx="280" cy="-209.10766545454547" fill="#000000" r="2"/>
<circle cx="282.5" cy="-210.12049454545453" fill="#000000" r="2"/>
<circle cx="285" cy="-211.13332363636363" fill="#000000" r="2"/>
<circle cx="287.5" cy="-212.14615272727272" fill="#000000" r="2"/>
<circle cx="290" cy="-213.15898181818181" fill="#000000" r="2"/>
<circle cx="292.5" cy="-214.1718109090909" fill="#000000" r="2"/>
<circle cx="295" cy="-215.18464" fill="#000000" r="2"/>
<circle cx="297.5" cy="-216.1974690909091" fill="#000000" r="2"/>
<circle cx="300" cy="-217.2102981818182" fill="#000000" r="2"/>
<circle cx="302.5" cy="-218.22312727272728" fill="#000000" r="2"/>
<circle cx="305" cy="-219.23595636363638" fill="#000000" r="2"/>
<circle cx="307.5" cy="-220.24878545454544" fill="#000000" r="2"/>
<circle cx="310" cy="-221.26161454545453" fill="#000000" r="2"/>
<circle cx="312.5" cy="-222.27444363636363" fill="#000000" r="2"/>
<circle cx="315" cy="-223.28727272727272" fill="#000000" r="2"/>
<circle cx="317.5" cy="-224.30010181818182" fill="#000000" r="2"/>
<circle cx="320" cy="-225.3129309090909" fill="#000000" r="2"/>
<circle cx="322.5" cy="-226.32576" fill="#000000" r="2"/>
<circle cx="325" cy="-227.3385890909091" fill="#000000" r="2"/>
<circle cx="327.5" cy="-228.3514181818182" fill="#000000" r="2"/>
<circle cx="330" cy="-229.36424727272728" fill="#000000" r="2"/>
<circle cx="332.5" cy="-230.37707636363638" fill="#000000" r="2"/>
<circle cx="335" cy="-231.38990545454544" fill="#000000" r="2"/>
<circle cx="337.5" cy="-232.40273454545454" fill="#000000" r="2"/>
<circle cx="340" cy="-233.41556363636363" fill="#000000" r="2"/>
<circle cx="342.5" cy="-234.42839272727272" fill="#000000" r="2"/>
<circle cx="345" cy="-235.44122181818182" fill="#000000" r="2"/>
<circle cx="347.5" cy="-236.4540509090909" fill="#000000" r="2"/>
<circle cx="350" cy="-237.46688" fill="#000000" r="2"/>
<circle cx="352.5" cy="-238.4797090909091" fill="#000000" r="2"/>
<circle cx="355" cy="-239.4925381818182" fill="#000000" r="2"/>
<circle cx="357.5" cy="-240.50536727272728" fill="#000000" r="2"/>
<circle cx="360" cy="-241.51819636363638" fill="#000000" r="2"/>
<circle cx="362.5" cy="-242.53102545454544" fill="#000000" r="2"/>
<circle cx="365" cy="-242.53102545454544" fill="#000000" r="2"/>
<circle cx="367.5" cy="-243.54385454545454" fill="#000000" r="2"/>
<circle cx="370" cy="-244.55668363636363" fill="#000000" r="2"/>
<circle cx="372.5" cy="-245.56951272727272" fill="#000000" r="2"/>
<circle cx="375" cy="-246.58234181818182" fill="#000000" r="2"/>
<circle cx="377.5" cy="-247.5951709090909" fill="#000000" r="2"/>
<circle cx="380" cy="-248.608" fill="#000000" r="2"/>
<circle cx="382.5" cy="-249.6208290909091" fill="#000000" r="2"/>
<circle cx="385" cy="-250.6336581818182" fill="#000000" r="2"/>
<circle cx="387.5" cy="-251.64648727272728" fill="#000000" r="2"/>
<circle cx="390" cy="-252.65931636363635" fill="#000000" r="2"/>
<circle cx="392.5" cy="-253.67214545454544" fill="#000000" r="2"/>
<circle cx="395" cy="-254.68497454545454" fill="#000000" r="2"/>
<circle cx="397.5" cy="-255.69780363636363" fill="#000000" r="2"/>
<circle cx="400" cy="-256.71063272727275" fill="#000000" r="2"/>
<circle cx="402.5" cy="-257.7234618181818" fill="#000000" r="2"/>
<circle cx="405" cy="-258.7362909090909" fill="#000000" r="2"/>
<circle cx="407.5" cy="-259.74912" fill="#000000" r="2"/>
<circle cx="410" cy="-260.76194909090907" fill="#000000" r="2"/>
<circle cx="412.5" cy="-261.7747781818182" fill="#000000" r="2"/>
<circle cx="415" cy="-262.78760727272726" fill="#000000" r="2"/>
<circle cx="417.5" cy="-263.8004363636364" fill="#000000" r="2"/>
<circle cx="420" cy="-264.81326545454544" fill="#000000" r="2"/>
<circle cx="422.5" cy="-265.82609454545457" fill="#000000" r="2"/>
<circle cx="425" cy="-266.83892363636363" fill="#000000" r="2"/>
<circle cx="427.5" cy="-267.85175272727275" fill="#000000" r="2"/>
<circle cx="430" cy="-268.8645818181818" fill="#000000" r="2"/>
<circle cx="432.5" cy="-269.8774109090909" fill="#000000" r="2"/>
<circle cx="435" cy="-270.89024" fill="#000000" r="2"/>
<circle cx="437.5" cy="-271.90306909090907" fill="#000000" r="2"/>
<circle cx="440" cy="-272.9158981818182" fill="#000000" r="2"/>
<circle cx="442.5" cy="-273.92872727272726" fill="#000000" r="2"/>
<circle cx="445" cy="-274.9415563636364" fill="#000000" r="2"/>
<circle cx="447.5" cy="-275.95438545454545" fill="#000000" r="2"/>
<circle cx="450" cy="-276.96721454545457" fill="#000000" r="2"/>
<circle cx="452.5" cy="-277.98004363636363" fill="#000000" r="2"/>
<circle cx="455" cy="-278.99287272727275" fill="#000000" r="2"/>
<circle cx="457.5" cy="-280.0057018181818" fill="#000000" r="2"/>
<circle cx="460" cy="-281.0185309090909" fill="#000000" r="2"/>
<circle cx="462.5" cy="-282.03136" fill="#000000" r="2"/>
<circle cx="465" cy="-283.0441890909091" fill="#000000" r="2"/>
<circle cx="467.5" cy="-284.0570181818182" fill="#000000" r="2"/>
<circle cx="470" cy="-285.06984727272726" fill="#000000" r="2"/>
<circle cx="472.5" cy="-286.0826763636364" fill="#000000" r="2"/>
<circle cx="475" cy="-287.09550545454545" fill="#000000" r="2"/>
<circle cx="477.5" cy="-288.10833454545457" fill="#000000" r="2"/>
<circle cx="480" cy="-289.12116363636363" fill="#000000" r="2"/>
<circle cx="482.5" cy="-290.13399272727276" fill="#000000" r="2"/>
<circle cx="485" cy="-291.1468218181818" fill="#000000" r="2"/>
<circle cx="487.5" cy="-292.1596509090909" fill="#000000" r="2"/>
<circle cx="490" cy="-293.17248" fill="#000000" r="2"/>
<circle cx="492.5" cy="-294.1853090909091" fill="#000000" r="2"/>
<circle cx="495" cy="-297.2237963636364" fill="#000000" r="2"/>
<circle cx="497.5" cy="-96.68363636363637" fill="#000000" r="2"/>
</g>
<g>
<g>
<line stroke="black" stroke-width="1" x1="0" x2="0" y1="0" y2="10"/>
<line stroke="black" stroke-width="1" x1="100" x2="100" y1="0" y2="10"/>
<line stroke="black" stroke-width="1" x1="200" x2="200" y1="0" y2="10"/>
<line stroke="black" stroke-width="1" x1="300" x2="300" y1="0" y2="10"/>
<line stroke="black" stroke-width="1" x1="400" x2="400" y1="0" y2="10"/>
<line stroke="black" stroke-width="1" x1="500" x2="500" y1="0" y2="10"/>
</g>
<line stroke="black" stroke-width="1" x1="0" x2="500" y1="0" y2="0"/>
<g>
<text font-size="12" text-anchor="middle" x="0" y="20">
0
</text>
<text font-size="12" text-anchor="middle" x="100" y="20">
40000
</text>
<text font-size="12" text-anchor="middle" x="200" y="20">
80000
</text>
<text font-size="12" text-anchor="middle" x="300" y="20">
120000
</text>
<text font-size="12" text-anchor="middle" x="400" y="20">
160000
</text>
<text font-size="12" text-anchor="middle" x="500" y="20">
200000
</text>
</g>
<text font-size="12" text-anchor="middle" x="250" y="30">
Gas
</text>
</g>
<g>
<g>
<line stroke="black" stroke-width="1" x1="0" x2="-10" y1="-30.90909090909091" y2="-30.90909090909091"/>
<line stroke="black" stroke-width="1" x1="0" x2="-10" y1="-92.72727272727273" y2="-92.72727272727273"/>
<line stroke="black" stroke-width="1" x1="0" x2="-10" y1="-154.54545454545453" y2="-154.54545454545453"/>
<line stroke="black" stroke-width="1" x1="0" x2="-10" y1="-216.36363636363637" y2="-216.36363636363637"/>
<line stroke="black" stroke-width="1" x1="0" x2="-10" y1="-278.1818181818182" y2="-278.1818181818182"/>
<line stroke="black" stroke-width="1" x1="0" x2="-10" y1="-340" y2="-340"/>
</g>
<line stroke="black" stroke-0="1" x1="0" x2="0" y1="0" y2="-340"/>
<g>
<text dominant-baseline="middle" font-size="12" text-anchor="end" x="-15" y="-30.90909090909091">
686000000
</text>
<text dominant-baseline="middle" font-size="12" text-anchor="end" x="-15" y="-92.72727272727273">
688000000
</text>
<text dominant-baseline="middle" font-size="12" text-anchor="end" x="-15" y="-154.54545454545453">
690000000
</text>
<text dominant-baseline="middle" font-size="12" text-anchor="end" x="-15" y="-216.36363636363637">
692000000
</text>
<text dominant-baseline="middle" font-size="12" text-anchor="end" x="-15" y="-278.1818181818182">
694000000
</text>
<text dominant-baseline="middle" font-size="12" text-anchor="end" x="-15" y="-340">
696000000
</text>
</g>
<text font-size="12" text-anchor="middle" transform="rotate(-90 -30 -170)" x="-30" y="-170">
Score
</text>
</g>
</g>
</svg>