<svg viewBox="0 0 600 400" xmlns="http://www.w3.org/2000/svg">
<g transform="translate(50, 360)">
<g>
<circle cx="0" cy="-0.000005667264656616416" fill="#000000" r="5"/>
<circle cx="20" cy="-0.000025360565656565663" fill="#000000" r="5"/>
<circle cx="40" cy="-0.0000942442260575296" fill="#000000" r="5"/>
<circle cx="60" cy="-0.0003365380358095238" fill="#000000" r="5"/>
<circle cx="80" cy="-0.0011932614948102563" fill="#000000" r="5"/>
<circle cx="100" cy="-0.004238215483161512" fill="#000000" r="5"/>
<circle cx="120" cy="-0.015116719851329879" fill="#000000" r="5"/>
<circle cx="140" cy="-0.05418398158933334" fill="#000000" r="5"/>
<circle cx="160" cy="-0.19521778435026876" fill="#000000" r="5"/>
<circle cx="180" cy="-0.7070310486678456" fill="#000000" r="5"/>
<circle cx="200" cy="-2.5742271546429634" fill="#000000" r="5"/>
<circle cx="220" cy="-9.422334297352625" fill="#000000" r="5"/>
<circle cx="240" cy="-34.67258350279175" fill="#000000" r="5"/>
<circle cx="260" cy="-128.27514297390726" fill="#000000" r="5"/>
<circle cx="280" cy="-477.1336142186608" fill="#000000" r="5"/>
<circle cx="300" cy="-1784.3967430642933" fill="#000000" r="5"/>
<circle cx="320" cy="-6709.799798063502" fill="#000000" r="5"/>
<circle cx="340" cy="-25369.23690369182" fill="#000000" r="5"/>
<circle cx="360" cy="-96449.07322148733" fill="#000000" r="5"/>
<circle cx="380" cy="-368718.37699318014" fill="#000000" r="5"/>
<circle cx="400" cy="-1417460.5548858978" fill="#000000" r="5"/>
<circle cx="420" cy="-5479743.239963644" fill="#000000" r="5"/>
<circle cx="440" cy="-8901707.409374384" fill="#000000" r="5"/>
<circle cx="460" cy="-9859028.560546009" fill="#000000" r="5"/>
<circle cx="480" cy="-1135919.834274771" fill="#000000" r="5"/>
<circle cx="500" cy="-4492288.757016167" fill="#000000" r="5"/>
<circle cx="520" cy="-5179810.017442565" fill="#000000" r="5"/>
<circle cx="540" cy="-7960521.877396821" fill="#000000" r="5"/>
<circle cx="560" cy="-6359841.572557986" fill="#000000" r="5"/>
<circle cx="580" cy="-12830720.687474739" fill="#000000" r="5"/>
<circle cx="600" cy="-287147.84701672324" fill="#000000" r="5"/>
<circle cx="620" cy="-1176157.581386156" fill="#000000" r="5"/>
<circle cx="640" cy="-4846389.0069762645" fill="#000000" r="5"/>
<circle cx="660" cy="-6866104.998928107" fill="#000000" r="5"/>
<circle cx="680" cy="-2026872.7949118796" fill="#000000" r="5"/>
<circle cx="700" cy="-8504560.503768604" fill="#000000" r="5"/>
<circle cx="720" cy="-8968718.532486683" fill="#000000" r="5"/>
<circle cx="740" cy="-10995686.770253321" fill="#000000" r="5"/>
<circle cx="760" cy="-6092871.50017066" fill="#000000" r="5"/>
<circle cx="780" cy="-12484455.843118155" fill="#000000" r="5"/>
<circle cx="800" cy="-12612679.22075345" fill="#000000" r="5"/>
<circle cx="820" cy="-13250949.952564644" fill="#000000" r="5"/>
<circle cx="840" cy="-2150952.292188184" fill="#000000" r="5"/>
<circle cx="860" cy="-9488016.018716374" fill="#000000" r="5"/>
<circle cx="880" cy="-13797705.789582364" fill="#000000" r="5"/>
<circle cx="900" cy="-4635957.860317265" fill="#000000" r="5"/>
<circle cx="920" cy="-6503071.0178681575" fill="#000000" r="5"/>
<circle cx="940" cy="-556711.6042208232" fill="#000000" r="5"/>
<circle cx="960" cy="-2537012.203908071" fill="#000000" r="5"/>
<circle cx="980" cy="-11638594.225678014" fill="#000000" r="5"/>
<circle cx="1000" cy="-9552717.671234177" fill="#000000" r="5"/>
<circle cx="1020" cy="-14751131.190060785" fill="#000000" r="5"/>
<circle cx="1040" cy="-9319838.261695474" fill="#000000" r="5"/>
<circle cx="1060" cy="-13855592.971246138" fill="#000000" r="5"/>
<circle cx="1080" cy="-5198422.765743001" fill="#000000" r="5"/>
<circle cx="1100" cy="-9597345.251212357" fill="#000000" r="5"/>
<circle cx="1120" cy="-130869.64134794606" fill="#000000" r="5"/>
<circle cx="1140" cy="-634190.5955090425" fill="#000000" r="5"/>
<circle cx="1160" cy="-3095066.0007606" fill="#000000" r="5"/>
<circle cx="1180" cy="-15212868.40694416" fill="#000000" r="5"/>
<circle cx="1200" cy="-12142090.15862381" fill="#000000" r="5"/>
<circle cx="1220" cy="-12824815.814202579" fill="#000000" r="5"/>
<circle cx="1240" cy="-324559.6898585384" fill="#000000" r="5"/>
<circle cx="1260" cy="-1642195.6637039965" fill="#000000" r="5"/>
<circle cx="1280" cy="-8370672.7235116055" fill="#000000" r="5"/>
<circle cx="1300" cy="-10222158.136884166" fill="#000000" r="5"/>
<circle cx="1320" cy="-3373425.56469377" fill="#000000" r="5"/>
<circle cx="1340" cy="-955954.8652341113" fill="#000000" r="5"/>
<circle cx="1360" cy="-5021521.4465996735" fill="#000000" r="5"/>
<circle cx="1380" cy="-9694515.117192604" fill="#000000" r="5"/>
<circle cx="1400" cy="-663408.2499994792" fill="#000000" r="5"/>
<circle cx="1420" cy="-3566482.752002862" fill="#000000" r="5"/>
<circle cx="1440" cy="-2039638.5700748495" fill="#000000" r="5"/>
<circle cx="1460" cy="-11139146.11070775" fill="#000000" r="5"/>
<circle cx="1480" cy="-8637365.604443999" fill="#000000" r="5"/>
<circle cx="1500" cy="-12526516.363811845" fill="#000000" r="5"/>
<circle cx="1520" cy="-16539504.212060984" fill="#000000" r="5"/>
<circle cx="1540" cy="-3323633.037545956" fill="#000000" r="5"/>
<circle cx="1560" cy="-759689.3395840637" fill="#000000" r="5"/>
<circle cx="1580" cy="-4356362.5489164945" fill="#000000" r="5"/>
<circle cx="1600" cy="-6744306.750336532" fill="#000000" r="5"/>
<circle cx="1620" cy="-2123908.6945200823" fill="#000000" r="5"/>
<circle cx="1640" cy="-12491632.838832276" fill="#000000" r="5"/>
<circle cx="1660" cy="-17330643.86039932" fill="#000000" r="5"/>
<circle cx="1680" cy="-8259900.647933303" fill="#000000" r="5"/>
<circle cx="1700" cy="-11346875.644901935" fill="#000000" r="5"/>
<circle cx="1720" cy="-10819603.623552267" fill="#000000" r="5"/>
<circle cx="1740" cy="-7676647.928161589" fill="#000000" r="5"/>
<circle cx="1760" cy="-8037759.423132719" fill="#000000" r="5"/>
<circle cx="1780" cy="-10369838.425265642" fill="#000000" r="5"/>
<circle cx="1800" cy="-5048518.730160587" fill="#000000" r="5"/>
<circle cx="1820" cy="-11841338.444232559" fill="#000000" r="5"/>
<circle cx="1840" cy="-14606251.463917363" fill="#000000" r="5"/>
<circle cx="1860" cy="-11984154.983748883" fill="#000000" r="5"/>
<circle cx="1880" cy="-15820428.250889873" fill="#000000" r="5"/>
<circle cx="1900" cy="-20248360.3109922" fill="#000000" r="5"/>
<circle cx="1920" cy="-7402800.150042743" fill="#000000" r="5"/>
<circle cx="1940" cy="-6899499.726532508" fill="#000000" r="5"/>
<circle cx="1960" cy="-3538751.0720500834" fill="#000000" r="5"/>
<circle cx="1980" cy="-2399511.529368063" fill="#000000" r="5"/>
<circle cx="2000" cy="-16678495.65334895" fill="#000000" r="5"/>
<circle cx="2020" cy="-5113542.174398747" fill="#000000" r="5"/>
<circle cx="2040" cy="-13645453.65581207" fill="#000000" r="5"/>
<circle cx="2060" cy="-6345505.772723367" fill="#000000" r="5"/>
<circle cx="2080" cy="-22856396.33264933" fill="#000000" r="5"/>
<circle cx="2100" cy="-3850941.2999339625" fill="#000000" r="5"/>
<circle cx="2120" cy="-4890085.914731677" fill="#000000" r="5"/>
<circle cx="2140" cy="-12715679.299582204" fill="#000000" r="5"/>
<circle cx="2160" cy="-23786014.62361657" fill="#000000" r="5"/>
<circle cx="2180" cy="-11129831.750227468" fill="#000000" r="5"/>
<circle cx="2200" cy="-12059114.924794607" fill="#000000" r="5"/>
<circle cx="2220" cy="-19462806.82562787" fill="#000000" r="5"/>
<circle cx="2240" cy="-2550885.823879649" fill="#000000" r="5"/>
<circle cx="2260" cy="-20410883.258315586" fill="#000000" r="5"/>
<circle cx="2280" cy="-10286176.542941708" fill="#000000" r="5"/>
<circle cx="2300" cy="-5865695.926518531" fill="#000000" r="5"/>
<circle cx="2320" cy="-22182976.647618968" fill="#000000" r="5"/>
<circle cx="2340" cy="-25533562.023714513" fill="#000000" r="5"/>
<circle cx="2360" cy="-111834.69238995387" fill="#000000" r="5"/>
<circle cx="2380" cy="-961957.2900670777" fill="#000000" r="5"/>
<circle cx="2400" cy="-8379110.710123078" fill="#000000" r="5"/>
<circle cx="2420" cy="-17635584.681963332" fill="#000000" r="5"/>
<circle cx="2440" cy="-15061388.210043052" fill="#000000" r="5"/>
<circle cx="2460" cy="-20835694.304147232" fill="#000000" r="5"/>
<circle cx="2480" cy="-15555325.086613746" fill="#000000" r="5"/>
<circle cx="2500" cy="-25991953.542108323" fill="#000000" r="5"/>
<circle cx="2520" cy="-4445077.381545692" fill="#000000" r="5"/>
<circle cx="2540" cy="-11994717.550517287" fill="#000000" r="5"/>
<circle cx="2560" cy="-23498779.778710544" fill="#000000" r="5"/>
<circle cx="2580" cy="-11486150.259498121" fill="#000000" r="5"/>
<circle cx="2600" cy="-19108028.571797132" fill="#000000" r="5"/>
<circle cx="2620" cy="-31955246.48818847" fill="#000000" r="5"/>
<circle cx="2640" cy="-562304.5926890923" fill="#000000" r="5"/>
<circle cx="2660" cy="-5862689.92058078" fill="#000000" r="5"/>
<circle cx="2680" cy="-28294131.459974445" fill="#000000" r="5"/>
<circle cx="2700" cy="-29823183.36122135" fill="#000000" r="5"/>
<circle cx="2720" cy="-12154041.54044371" fill="#000000" r="5"/>
<circle cx="2740" cy="-28678204.23916915" fill="#000000" r="5"/>
<circle cx="2760" cy="-35622540.46753843" fill="#000000" r="5"/>
<circle cx="2780" cy="-6101325.57268037" fill="#000000" r="5"/>
<circle cx="2800" cy="-33954752.862818524" fill="#000000" r="5"/>
<circle cx="2820" cy="-24372253.970199104" fill="#000000" r="5"/>
<circle cx="2840" cy="-24650746.782551475" fill="#000000" r="5"/>
<circle cx="2860" cy="-28513058.367568567" fill="#000000" r="5"/>
<circle cx="2880" cy="-37442426.73067348" fill="#000000" r="5"/>
<circle cx="2900" cy="-29970263.49702559" fill="#000000" r="5"/>
<circle cx="2920" cy="-16356878.806388611" fill="#000000" r="5"/>
<circle cx="2940" cy="-5381030.2966479" fill="#000000" r="5"/>
<circle cx="2960" cy="-29562256.298050553" fill="#000000" r="5"/>
<circle cx="2980" cy="-11723067.97844566" fill="#000000" r="5"/>
<circle cx="3000" cy="-30234360.970567822" fill="#000000" r="5"/>
<circle cx="3020" cy="-21846821.729421552" fill="#000000" r="5"/>
<circle cx="3040" cy="-39626265.41266044" fill="#000000" r="5"/>
<circle cx="3060" cy="-20130265.839700557" fill="#000000" r="5"/>
<circle cx="3080" cy="-15138317.846957764" fill="#000000" r="5"/>
<circle cx="3100" cy="-37192050.09786036" fill="#000000" r="5"/>
<circle cx="3120" cy="-33630303.657090575" fill="#000000" r="5"/>
<circle cx="3140" cy="-28341146.362673707" fill="#000000" r="5"/>
<circle cx="3160" cy="-47342341.611772455" fill="#000000" r="5"/>
<circle cx="3180" cy="-46132880.545646794" fill="#000000" r="5"/>
<circle cx="3200" cy="-25975671.72602433" fill="#000000" r="5"/>
<circle cx="3220" cy="-8244386.192483991" fill="#000000" r="5"/>
<circle cx="3240" cy="-34672105.19780967" fill="#000000" r="5"/>
<circle cx="3260" cy="-52978359.94011682" fill="#000000" r="5"/>
<circle cx="3280" cy="-38094061.500854775" fill="#000000" r="5"/>
<circle cx="3300" cy="-60788304.705134794" fill="#000000" r="5"/>
<circle cx="3320" cy="-3698369.37811774" fill="#000000" r="5"/>
<circle cx="3340" cy="-10930905.582942095" fill="#000000" r="5"/>
<circle cx="3360" cy="-30205631.053698182" fill="#000000" r="5"/>
<circle cx="3380" cy="-34295919.425882086" fill="#000000" r="5"/>
<circle cx="3400" cy="-56839896.37859259" fill="#000000" r="5"/>
<circle cx="3420" cy="-64120034.07478202" fill="#000000" r="5"/>
<circle cx="3440" cy="-8131107.866037869" fill="#000000" r="5"/>
<circle cx="3460" cy="-46342996.31146837" fill="#000000" r="5"/>
<circle cx="3480" cy="-46305509.560725436" fill="#000000" r="5"/>
<circle cx="3500" cy="-47160085.6751206" fill="#000000" r="5"/>
<circle cx="3520" cy="-74778252.549974" fill="#000000" r="5"/>
<circle cx="3540" cy="-44012310.95298102" fill="#000000" r="5"/>
<circle cx="3560" cy="-83285258.54401727" fill="#000000" r="5"/>
<circle cx="3580" cy="-11834611.36601365" fill="#000000" r="5"/>
<circle cx="3600" cy="-82012621.88200194" fill="#000000" r="5"/>
<circle cx="3620" cy="-86450991.72957861" fill="#000000" r="5"/>
<circle cx="3640" cy="-12938784.003693184" fill="#000000" r="5"/>
<circle cx="3660" cy="-7680586.237982935" fill="#000000" r="5"/>
<circle cx="3680" cy="-59660090.48186212" fill="#000000" r="5"/>
<circle cx="3700" cy="-110060924.0869312" fill="#000000" r="5"/>
<circle cx="3720" cy="-84652080.60484776" fill="#000000" r="5"/>
<circle cx="3740" cy="-98103396.53294875" fill="#000000" r="5"/>
<circle cx="3760" cy="-150256155.11653844" fill="#000000" r="5"/>
<circle cx="3780" cy="-22282790.377589628" fill="#000000" r="5"/>
<circle cx="3800" cy="-240270745.3690473" fill="#000000" r="5"/>
<circle cx="3820" cy="-87479576.43176213" fill="#000000" r="5"/>
<circle cx="3840" cy="-132536751.71526551" fill="#000000" r="5"/>
<circle cx="3860" cy="-200097591.4488933" fill="#000000" r="5"/>
<circle cx="3880" cy="-318535526.543002" fill="#000000" r="5"/>
<circle cx="3900" cy="-468030719.152667" fill="#000000" r="5"/>
<circle cx="3920" cy="-523770390.8188984" fill="#000000" r="5"/>
<circle cx="3940" cy="-207207075.4556638" fill="#000000" r="5"/>
<circle cx="3960" cy="-2094587553.7830617" fill="#000000" r="5"/>
<circle cx="3980" cy="-inf" fill="#000000" r="5"/>
</g>
<g>
<g>
<line stroke="black" stroke-width="1" x1="0" x2="0" y1="0" y2="10"/>
<line stroke="black" stroke-width="1" x1="100" x2="100" y1="0" y2="10"/>
<line stroke="black" stroke-width="1" x1="200" x2="200" y1="0" y2="10"/>
<line stroke="black" stroke-width="1" x1="300" x2="300" y1="0" y2="10"/>
<line stroke="black" stroke-width="1" x1="400" x2="400" y1="0" y2="10"/>
<line stroke="black" stroke-width="1" x1="500" x2="500" y1="0" y2="10"/>
</g>
<line stroke="black" stroke-width="1" x1="0" x2="500" y1="0" y2="0"/>
<g>
<text font-size="12" text-anchor="middle" x="0" y="20">
0
</text>
<text font-size="12" text-anchor="middle" x="100" y="20">
5000
</text>
<text font-size="12" text-anchor="middle" x="200" y="20">
10000
</text>
<text font-size="12" text-anchor="middle" x="300" y="20">
15000
</text>
<text font-size="12" text-anchor="middle" x="400" y="20">
20000
</text>
<text font-size="12" text-anchor="middle" x="500" y="20">
25000
</text>
</g>
<text font-size="12" text-anchor="middle" x="250" y="30">
Gas
</text>
</g>
<g>
<g>
<line stroke="black" stroke-width="1" x1="0" x2="-10" y1="0" y2="0"/>
<line stroke="black" stroke-width="1" x1="0" x2="-10" y1="-113.33333333333333" y2="-113.33333333333333"/>
<line stroke="black" stroke-width="1" x1="0" x2="-10" y1="-226.66666666666666" y2="-226.66666666666666"/>
<line stroke="black" stroke-width="1" x1="0" x2="-10" y1="-340" y2="-340"/>
</g>
<line stroke="black" stroke-0="1" x1="0" x2="0" y1="0" y2="-340"/>
<g>
<text dominant-baseline="middle" font-size="12" text-anchor="end" x="-15" y="0">
0
</text>
<text dominant-baseline="middle" font-size="12" text-anchor="end" x="-15" y="-113.33333333333333">
20000000000
</text>
<text dominant-baseline="middle" font-size="12" text-anchor="end" x="-15" y="-226.66666666666666">
40000000000
</text>
<text dominant-baseline="middle" font-size="12" text-anchor="end" x="-15" y="-340">
60000000000
</text>
</g>
<text font-size="12" text-anchor="middle" transform="rotate(-90 -30 -170)" x="-30" y="-170">
Score
</text>
</g>
</g>
</svg>