<svg viewBox="0 0 600 400" xmlns="http://www.w3.org/2000/svg">
<g transform="translate(50, 360)">
<g>
<circle cx="0" cy="-inf" fill="#000000" r="2"/>
<circle cx="2.5" cy="-0.07892407621163569" fill="#000000" r="2"/>
<circle cx="5" cy="-0.03946065693448825" fill="#000000" r="2"/>
<circle cx="7.5" cy="-0.026306644242205565" fill="#000000" r="2"/>
<circle cx="10" cy="-0.019729776013229734" fill="#000000" r="2"/>
<circle cx="12.5" cy="-0.01578371032182507" fill="#000000" r="2"/>
<circle cx="15" cy="-0.013153026168266049" fill="#000000" r="2"/>
<circle cx="17.5" cy="-0.011273980151630607" fill="#000000" r="2"/>
<circle cx="20" cy="-0.009864703860083337" fill="#000000" r="2"/>
<circle cx="22.5" cy="-0.008768605192974639" fill="#000000" r="2"/>
<circle cx="25" cy="-0.007891729607428332" fill="#000000" r="2"/>
<circle cx="27.5" cy="-0.007174288229270085" fill="#000000" r="2"/>
<circle cx="30" cy="-0.006576422023882563" fill="#000000" r="2"/>
<circle cx="32.5" cy="-0.006070536402058726" fill="#000000" r="2"/>
<circle cx="35" cy="-0.005636921022098824" fill="#000000" r="2"/>
<circle cx="37.5" cy="-0.005261121683763218" fill="#000000" r="2"/>
<circle cx="40" cy="-0.004932297770447852" fill="#000000" r="2"/>
<circle cx="42.5" cy="-0.004642159421644847" fill="#000000" r="2"/>
<circle cx="45" cy="-0.0043842589839186985" fill="#000000" r="2"/>
<circle cx="47.5" cy="-0.0041535062156962295" fill="#000000" r="2"/>
<circle cx="50" cy="-0.003945828931973665" fill="#000000" r="2"/>
<circle cx="52.5" cy="-0.0037579306080136265" fill="#000000" r="2"/>
<circle cx="55" cy="-0.0035871140916041394" fill="#000000" r="2"/>
<circle cx="57.5" cy="-0.003431151303995744" fill="#000000" r="2"/>
<circle cx="60" cy="-0.00328818551545785" fill="#000000" r="2"/>
<circle cx="62.5" cy="-0.0031566570750452996" fill="#000000" r="2"/>
<circle cx="65" cy="-0.003035246279549411" fill="#000000" r="2"/>
<circle cx="67.5" cy="-0.002922828938772957" fill="#000000" r="2"/>
<circle cx="70" cy="-0.002818441462039022" fill="#000000" r="2"/>
<circle cx="72.5" cy="-0.002721253168530989" fill="#000000" r="2"/>
<circle cx="75" cy="-0.002630544135616602" fill="#000000" r="2"/>
<circle cx="77.5" cy="-0.0025456873342466825" fill="#000000" r="2"/>
<circle cx="80" cy="-0.0024661341146297914" fill="#000000" r="2"/>
<circle cx="82.5" cy="-0.002391402330241889" fill="#000000" r="2"/>
<circle cx="85" cy="-0.0023210665579474726" fill="#000000" r="2"/>
<circle cx="87.5" cy="-0.002254749994788558" fill="#000000" r="2"/>
<circle cx="90" cy="-0.002192117704896526" fill="#000000" r="2"/>
<circle cx="92.5" cy="-0.002132870961853003" fill="#000000" r="2"/>
<circle cx="95" cy="-0.0020767424844272777" fill="#000000" r="2"/>
<circle cx="97.5" cy="-0.0020234924046962986" fill="#000000" r="2"/>
<circle cx="100" cy="-0.0019729048419915335" fill="#000000" r="2"/>
<circle cx="102.5" cy="-0.0019247849769492046" fill="#000000" r="2"/>
<circle cx="105" cy="-0.001878956544743759" fill="#000000" r="2"/>
<circle cx="107.5" cy="-0.0018352596771958481" fill="#000000" r="2"/>
<circle cx="110" cy="-0.0017935490397212562" fill="#000000" r="2"/>
<circle cx="112.5" cy="-0.001753692216508697" fill="#000000" r="2"/>
<circle cx="115" cy="-0.0017155683060378867" fill="#000000" r="2"/>
<circle cx="117.5" cy="-0.0016790666964056743" fill="#000000" r="2"/>
<circle cx="120" cy="-0.0016440859934434564" fill="#000000" r="2"/>
<circle cx="122.5" cy="-0.0016105330800124456" fill="#000000" r="2"/>
<circle cx="125" cy="-0.0015783222884439103" fill="#000000" r="2"/>
<circle cx="127.5" cy="-0.001547374670044519" fill="#000000" r="2"/>
<circle cx="130" cy="-0.0015176173492325593" fill="#000000" r="2"/>
<circle cx="132.5" cy="-0.0014889829503916094" fill="#000000" r="2"/>
<circle cx="135" cy="-0.0014614090887181718" fill="#000000" r="2"/>
<circle cx="137.5" cy="-0.0014348379165350803" fill="#000000" r="2"/>
<circle cx="140" cy="-0.001409215718170009" fill="#000000" r="2"/>
<circle cx="142.5" cy="-0.001384492547474924" fill="#000000" r="2"/>
<circle cx="145" cy="-0.00136062190277842" fill="#000000" r="2"/>
<circle cx="147.5" cy="-0.0013375604352347038" fill="#000000" r="2"/>
<circle cx="150" cy="-0.001315267685881975" fill="#000000" r="2"/>
<circle cx="152.5" cy="-0.0012937058486759748" fill="#000000" r="2"/>
<circle cx="155" cy="-0.0012728395568946756" fill="#000000" r="2"/>
<circle cx="157.5" cy="-0.0012526356891382755" fill="#000000" r="2"/>
<circle cx="160" cy="-0.001233063194273487" fill="#000000" r="2"/>
<circle cx="162.5" cy="-0.0012140929318717865" fill="#000000" r="2"/>
<circle cx="165" cy="-0.001195697527620819" fill="#000000" r="2"/>
<circle cx="167.5" cy="-0.0011778512415606345" fill="#000000" r="2"/>
<circle cx="170" cy="-0.0011605298478427454" fill="#000000" r="2"/>
<circle cx="172.5" cy="-0.00114371052497039" fill="#000000" r="2"/>
<circle cx="175" cy="-0.0011273717555434959" fill="#000000" r="2"/>
<circle cx="177.5" cy="-0.0011114932344667306" fill="#000000" r="2"/>
<circle cx="180" cy="-0.0010960557846441301" fill="#000000" r="2"/>
<circle cx="182.5" cy="-0.0010810412797696985" fill="#000000" r="2"/>
<circle cx="185" cy="-0.0010664325734978774" fill="#000000" r="2"/>
<circle cx="187.5" cy="-0.0010522134337569648" fill="#000000" r="2"/>
<circle cx="190" cy="-0.0010383684828564966" fill="#000000" r="2"/>
<circle cx="192.5" cy="-0.001024883142086573" fill="#000000" r="2"/>
<circle cx="195" cy="-0.0010117435801581258" fill="#000000" r="2"/>
<circle cx="197.5" cy="-0.0009989366662002317" fill="#000000" r="2"/>
<circle cx="200" cy="-0.0009864499258822577" fill="#000000" r="2"/>
<circle cx="202.5" cy="-0.0009742715009212444" fill="#000000" r="2"/>
<circle cx="205" cy="-0.0009623901114537148" fill="#000000" r="2"/>
<circle cx="207.5" cy="-0.0009507950212719152" fill="#000000" r="2"/>
<circle cx="210" cy="-0.000939476005273479" fill="#000000" r="2"/>
<circle cx="212.5" cy="-0.0009284233197104186" fill="#000000" r="2"/>
<circle cx="215" cy="-0.0009176276739354331" fill="#000000" r="2"/>
<circle cx="217.5" cy="-0.0009070802045569412" fill="#000000" r="2"/>
<circle cx="220" cy="-0.0008967724508961271" fill="#000000" r="2"/>
<circle cx="222.5" cy="-0.0008866963327225102" fill="#000000" r="2"/>
<circle cx="225" cy="-0.0008768441287707231" fill="#000000" r="2"/>
<circle cx="227.5" cy="-0.0008672084572103095" fill="#000000" r="2"/>
<circle cx="230" cy="-0.0008577822572873342" fill="#000000" r="2"/>
<circle cx="232.5" cy="-0.0008485587717472012" fill="#000000" r="2"/>
<circle cx="235" cy="-0.0008395315310802911" fill="#000000" r="2"/>
<circle cx="237.5" cy="-0.0008306943378977992" fill="#000000" r="2"/>
<circle cx="240" cy="-0.0008220412533907955" fill="#000000" r="2"/>
<circle cx="242.5" cy="-0.0008135665832684792" fill="#000000" r="2"/>
<circle cx="245" cy="-0.0008052648660400576" fill="#000000" r="2"/>
<circle cx="247.5" cy="-0.0007971308605805174" fill="#000000" r="2"/>
<circle cx="250" cy="-0.0007891595355843157" fill="#000000" r="2"/>
<circle cx="252.5" cy="-0.0007813460588888694" fill="#000000" r="2"/>
<circle cx="255" cy="-0.0007736857879698571" fill="#000000" r="2"/>
<circle cx="257.5" cy="-0.0007661742604365204" fill="#000000" r="2"/>
<circle cx="260" cy="-0.0007588071856336778" fill="#000000" r="2"/>
<circle cx="262.5" cy="-0.0007515804363739382" fill="#000000" r="2"/>
<circle cx="265" cy="-0.0007444900410605202" fill="#000000" r="2"/>
<circle cx="267.5" cy="-0.0007375321768516809" fill="#000000" r="2"/>
<circle cx="270" cy="-0.0007307031621741388" fill="#000000" r="2"/>
<circle cx="272.5" cy="-0.0007239994507338116" fill="#000000" r="2"/>
<circle cx="275" cy="-0.0007174176252010511" fill="#000000" r="2"/>
<circle cx="277.5" cy="-0.0007109543913515824" fill="#000000" r="2"/>
<circle cx="280" cy="-0.0007046065725980474" fill="#000000" r="2"/>
<circle cx="282.5" cy="-0.0006983711048470515" fill="#000000" r="2"/>
<circle cx="285" cy="-0.0006922450314213117" fill="#000000" r="2"/>
<circle cx="287.5" cy="-0.0006862254985677091" fill="#000000" r="2"/>
<circle cx="290" cy="-0.0006803097510304437" fill="#000000" r="2"/>
<circle cx="292.5" cy="-0.0006744951274939874" fill="#000000" r="2"/>
<circle cx="295" cy="-0.0006687790570676474" fill="#000000" r="2"/>
<circle cx="297.5" cy="-0.0006631590552493244" fill="#000000" r="2"/>
<circle cx="300" cy="-0.0006576327202798749" fill="#000000" r="2"/>
<circle cx="302.5" cy="-0.000652197729888078" fill="#000000" r="2"/>
<circle cx="305" cy="-0.0006468518377751982" fill="#000000" r="2"/>
<circle cx="307.5" cy="-0.0006415928708807578" fill="#000000" r="2"/>
<circle cx="310" cy="-0.0006364187262577042" fill="#000000" r="2"/>
<circle cx="312.5" cy="-0.0006313273680126785" fill="#000000" r="2"/>
<circle cx="315" cy="-0.0006263168250925925" fill="#000000" r="2"/>
<circle cx="317.5" cy="-0.0006213851885504004" fill="#000000" r="2"/>
<circle cx="320" cy="-0.0006165306089410717" fill="#000000" r="2"/>
<circle cx="322.5" cy="-0.0006117512942383703" fill="#000000" r="2"/>
<circle cx="325" cy="-0.0006070455075563299" fill="#000000" r="2"/>
<circle cx="327.5" cy="-0.0006024115650660334" fill="#000000" r="2"/>
<circle cx="330" cy="-0.0005978478339123907" fill="#000000" r="2"/>
<circle cx="332.5" cy="-0.000593352730456421" fill="#000000" r="2"/>
<circle cx="335" cy="-0.0005889247181269303" fill="#000000" r="2"/>
<circle cx="337.5" cy="-0.000584562306118498" fill="#000000" r="2"/>
<circle cx="340" cy="-0.0005802640473733558" fill="#000000" r="2"/>
<circle cx="342.5" cy="-0.0005760285369538715" fill="#000000" r="2"/>
<circle cx="345" cy="-0.000571854410870736" fill="#000000" r="2"/>
<circle cx="347.5" cy="-0.0005677403441950446" fill="#000000" r="2"/>
<circle cx="350" cy="-0.0005636850500817865" fill="#000000" r="2"/>
<circle cx="352.5" cy="-0.0005596872778819249" fill="#000000" r="2"/>
<circle cx="355" cy="-0.0005557458124262906" fill="#000000" r="2"/>
<circle cx="357.5" cy="-0.0005518594724631648" fill="#000000" r="2"/>
<circle cx="360" cy="-0.0005480271094864675" fill="#000000" r="2"/>
<circle cx="362.5" cy="-0.0005442476067592475" fill="#000000" r="2"/>
<circle cx="365" cy="-0.00054051987814187" fill="#000000" r="2"/>
<circle cx="367.5" cy="-0.000536842866985305" fill="#000000" r="2"/>
<circle cx="370" cy="-0.0005332155452848191" fill="#000000" r="2"/>
<circle cx="372.5" cy="-0.0005296369124430624" fill="#000000" r="2"/>
<circle cx="375" cy="-0.0005261059948143635" fill="#000000" r="2"/>
<circle cx="377.5" cy="-0.0005226218444027166" fill="#000000" r="2"/>
<circle cx="380" cy="-0.000519183538080573" fill="#000000" r="2"/>
<circle cx="382.5" cy="-0.0005157901770029352" fill="#000000" r="2"/>
<circle cx="385" cy="-0.0005124408856308467" fill="#000000" r="2"/>
<circle cx="387.5" cy="-0.0005091348110152849" fill="#000000" r="2"/>
<circle cx="390" cy="-0.0005058711220159526" fill="#000000" r="2"/>
<circle cx="392.5" cy="-0.0005026490086502714" fill="#000000" r="2"/>
<circle cx="395" cy="-0.0004994676816376771" fill="#000000" r="2"/>
<circle cx="397.5" cy="-0.0004963263713580091" fill="#000000" r="2"/>
<circle cx="400" cy="-0.0004932243275260062" fill="#000000" r="2"/>
<circle cx="402.5" cy="-0.0004901608184752006" fill="#000000" r="2"/>
<circle cx="405" cy="-0.00048713513050690956" fill="#000000" r="2"/>
<circle cx="407.5" cy="-0.00048414656762983406" fill="#000000" r="2"/>
<circle cx="410" cy="-0.00048119445071374926" fill="#000000" r="2"/>
<circle cx="412.5" cy="-0.0004782781170338" fill="#000000" r="2"/>
<circle cx="415" cy="-0.00047539691994499757" fill="#000000" r="2"/>
<circle cx="417.5" cy="-0.00047255022823121276" fill="#000000" r="2"/>
<circle cx="420" cy="-0.0004697374257796726" fill="#000000" r="2"/>
<circle cx="422.5" cy="-0.00046695791099505424" fill="#000000" r="2"/>
<circle cx="425" cy="-0.0004642110964088811" fill="#000000" r="2"/>
<circle cx="427.5" cy="-0.0004614964083540192" fill="#000000" r="2"/>
<circle cx="430" cy="-0.000458813286443872" fill="#000000" r="2"/>
<circle cx="432.5" cy="-0.0004561611833119777" fill="#000000" r="2"/>
<circle cx="435" cy="-0.00045353956422140504" fill="#000000" r="2"/>
<circle cx="437.5" cy="-0.0004509479064788473" fill="#000000" r="2"/>
<circle cx="440" cy="-0.0004483856994346225" fill="#000000" r="2"/>
<circle cx="442.5" cy="-0.00044585244396186776" fill="#000000" r="2"/>
<circle cx="445" cy="-0.00044334765200083464" fill="#000000" r="2"/>
<circle cx="447.5" cy="-0.0004408708466239898" fill="#000000" r="2"/>
<circle cx="450" cy="-0.0004384215613199079" fill="#000000" r="2"/>
<circle cx="452.5" cy="-0.0004359993399281704" fill="#000000" r="2"/>
<circle cx="455" cy="-0.00043360373644406395" fill="#000000" r="2"/>
<circle cx="457.5" cy="-0.00043123431443267403" fill="#000000" r="2"/>
<circle cx="460" cy="-0.00042889064702888535" fill="#000000" r="2"/>
<circle cx="462.5" cy="-0.00042657231661187805" fill="#000000" r="2"/>
<circle cx="465" cy="-0.00042427891447962456" fill="#000000" r="2"/>
<circle cx="467.5" cy="-0.000422010040783789" fill="#000000" r="2"/>
<circle cx="470" cy="-0.00041976530400892156" fill="#000000" r="2"/>
<circle cx="472.5" cy="-0.0004175443211677607" fill="#000000" r="2"/>
<circle cx="475" cy="-0.00041534671702002493" fill="#000000" r="2"/>
<circle cx="477.5" cy="-0.00041317212452811775" fill="#000000" r="2"/>
<circle cx="480" cy="-0.0004110201840759194" fill="#000000" r="2"/>
<circle cx="482.5" cy="-0.00040889054353388736" fill="#000000" r="2"/>
<circle cx="485" cy="-0.0004067828580637548" fill="#000000" r="2"/>
<circle cx="487.5" cy="-0.0004046967898581275" fill="#000000" r="2"/>
<circle cx="490" cy="-0.00040263200814048394" fill="#000000" r="2"/>
<circle cx="492.5" cy="-0.0004005881887094706" fill="#000000" r="2"/>
<circle cx="495" cy="-0.00039856459332345126" fill="#000000" r="2"/>
<circle cx="497.5" cy="0" fill="#000000" r="2"/>
</g>
<g>
<g>
<line stroke="black" stroke-width="1" x1="0" x2="0" y1="0" y2="10"/>
<line stroke="black" stroke-width="1" x1="100" x2="100" y1="0" y2="10"/>
<line stroke="black" stroke-width="1" x1="200" x2="200" y1="0" y2="10"/>
<line stroke="black" stroke-width="1" x1="300" x2="300" y1="0" y2="10"/>
<line stroke="black" stroke-width="1" x1="400" x2="400" y1="0" y2="10"/>
<line stroke="black" stroke-width="1" x1="500" x2="500" y1="0" y2="10"/>
</g>
<line stroke="black" stroke-width="1" x1="0" x2="500" y1="0" y2="0"/>
<g>
<text font-size="12" text-anchor="middle" x="0" y="20">
0
</text>
<text font-size="12" text-anchor="middle" x="100" y="20">
4000000
</text>
<text font-size="12" text-anchor="middle" x="200" y="20">
8000000
</text>
<text font-size="12" text-anchor="middle" x="300" y="20">
12000000
</text>
<text font-size="12" text-anchor="middle" x="400" y="20">
16000000
</text>
<text font-size="12" text-anchor="middle" x="500" y="20">
20000000
</text>
</g>
<text font-size="12" text-anchor="middle" x="250" y="30">
Gas
</text>
</g>
<g>
<g>
<line stroke="black" stroke-width="1" x1="0" x2="-10" y1="-53.68421052631579" y2="-53.68421052631579"/>
<line stroke="black" stroke-width="1" x1="0" x2="-10" y1="-125.26315789473684" y2="-125.26315789473684"/>
<line stroke="black" stroke-width="1" x1="0" x2="-10" y1="-196.8421052631579" y2="-196.8421052631579"/>
<line stroke="black" stroke-width="1" x1="0" x2="-10" y1="-268.42105263157896" y2="-268.42105263157896"/>
<line stroke="black" stroke-width="1" x1="0" x2="-10" y1="-340" y2="-340"/>
</g>
<line stroke="black" stroke-0="1" x1="0" x2="0" y1="0" y2="-340"/>
<g>
<text dominant-baseline="middle" font-size="12" text-anchor="end" x="-15" y="-53.68421052631579">
24000
</text>
<text dominant-baseline="middle" font-size="12" text-anchor="end" x="-15" y="-125.26315789473684">
28000
</text>
<text dominant-baseline="middle" font-size="12" text-anchor="end" x="-15" y="-196.8421052631579">
32000
</text>
<text dominant-baseline="middle" font-size="12" text-anchor="end" x="-15" y="-268.42105263157896">
36000
</text>
<text dominant-baseline="middle" font-size="12" text-anchor="end" x="-15" y="-340">
40000
</text>
</g>
<text font-size="12" text-anchor="middle" transform="rotate(-90 -30 -170)" x="-30" y="-170">
Score
</text>
</g>
</g>
</svg>