<svg viewBox="0 0 600 400" xmlns="http://www.w3.org/2000/svg">
<g transform="translate(50, 360)">
<g>
<circle cx="0" cy="-inf" fill="#000000" r="2"/>
<circle cx="2.5" cy="-548.0641729761802" fill="#000000" r="2"/>
<circle cx="5" cy="-321.5839945366573" fill="#000000" r="2"/>
<circle cx="7.5" cy="-246.3544580365853" fill="#000000" r="2"/>
<circle cx="10" cy="-208.8186805510534" fill="#000000" r="2"/>
<circle cx="12.5" cy="-186.32876297115976" fill="#000000" r="2"/>
<circle cx="15" cy="-171.35049096890688" fill="#000000" r="2"/>
<circle cx="17.5" cy="-160.6597573495464" fill="#000000" r="2"/>
<circle cx="20" cy="-152.64638924281684" fill="#000000" r="2"/>
<circle cx="22.5" cy="-146.41668124606002" fill="#000000" r="2"/>
<circle cx="25" cy="-141.43481974031425" fill="#000000" r="2"/>
<circle cx="27.5" cy="-137.36004950047536" fill="#000000" r="2"/>
<circle cx="30" cy="-133.96532275999112" fill="#000000" r="2"/>
<circle cx="32.5" cy="-131.0935251904184" fill="#000000" r="2"/>
<circle cx="35" cy="-128.63247718649822" fill="#000000" r="2"/>
<circle cx="37.5" cy="-126.49994251373117" fill="#000000" r="2"/>
<circle cx="40" cy="-124.63426305472309" fill="#000000" r="2"/>
<circle cx="42.5" cy="-122.98830143521157" fill="#000000" r="2"/>
<circle cx="45" cy="-121.52540426304492" fill="#000000" r="2"/>
<circle cx="47.5" cy="-120.2166410499562" fill="#000000" r="2"/>
<circle cx="50" cy="-119.03887203686931" fill="#000000" r="2"/>
<circle cx="52.5" cy="-117.97336844564113" fill="#000000" r="2"/>
<circle cx="55" cy="-117.00480927576304" fill="#000000" r="2"/>
<circle cx="57.5" cy="-116.12053997559656" fill="#000000" r="2"/>
<circle cx="60" cy="-115.31001656260534" fill="#000000" r="2"/>
<circle cx="62.5" cy="-114.56438323664948" fill="#000000" r="2"/>
<circle cx="65" cy="-113.87614752548825" fill="#000000" r="2"/>
<circle cx="67.5" cy="-113.23892766230107" fill="#000000" r="2"/>
<circle cx="70" cy="-112.6472541273867" fill="#000000" r="2"/>
<circle cx="72.5" cy="-112.09641227303331" fill="#000000" r="2"/>
<circle cx="75" cy="-111.5823164404648" fill="#000000" r="2"/>
<circle cx="77.5" cy="-111.10140845413815" fill="#000000" r="2"/>
<circle cx="80" cy="-110.65057515823862" fill="#000000" r="2"/>
<circle cx="82.5" cy="-110.22708095407724" fill="#000000" r="2"/>
<circle cx="85" cy="-109.82851224855662" fill="#000000" r="2"/>
<circle cx="87.5" cy="-109.45273143038467" fill="#000000" r="2"/>
<circle cx="90" cy="-109.09783852050218" fill="#000000" r="2"/>
<circle cx="92.5" cy="-108.76213904427875" fill="#000000" r="2"/>
<circle cx="95" cy="-108.44411697880702" fill="#000000" r="2"/>
<circle cx="97.5" cy="-108.14241186398463" fill="#000000" r="2"/>
<circle cx="100" cy="-107.85579934847571" fill="#000000" r="2"/>
<circle cx="102.5" cy="-107.58317458375996" fill="#000000" r="2"/>
<circle cx="105" cy="-107.32353799150944" fill="#000000" r="2"/>
<circle cx="107.5" cy="-107.0759830176813" fill="#000000" r="2"/>
<circle cx="110" cy="-106.83968555722366" fill="#000000" r="2"/>
<circle cx="112.5" cy="-106.61389478933962" fill="#000000" r="2"/>
<circle cx="115" cy="-106.39792520864508" fill="#000000" r="2"/>
<circle cx="117.5" cy="-106.1911496740014" fill="#000000" r="2"/>
<circle cx="120" cy="-105.99299332656449" fill="#000000" r="2"/>
<circle cx="122.5" cy="-105.80292825285565" fill="#000000" r="2"/>
<circle cx="125" cy="-105.6204687884788" fill="#000000" r="2"/>
<circle cx="127.5" cy="-105.44516737453915" fill="#000000" r="2"/>
<circle cx="130" cy="-105.27661089234786" fill="#000000" r="2"/>
<circle cx="132.5" cy="-105.11441741319895" fill="#000000" r="2"/>
<circle cx="135" cy="-104.95823330940789" fill="#000000" r="2"/>
<circle cx="137.5" cy="-104.80773068060876" fill="#000000" r="2"/>
<circle cx="140" cy="-104.66260505591023" fill="#000000" r="2"/>
<circle cx="142.5" cy="-104.5225733379932" fill="#000000" r="2"/>
<circle cx="145" cy="-104.38737195996718" fill="#000000" r="2"/>
<circle cx="147.5" cy="-104.25675522970221" fill="#000000" r="2"/>
<circle cx="150" cy="-104.13049383982593" fill="#000000" r="2"/>
<circle cx="152.5" cy="-104.00837352425944" fill="#000000" r="2"/>
<circle cx="155" cy="-103.89019384486545" fill="#000000" r="2"/>
<circle cx="157.5" cy="-103.7757670936435" fill="#000000" r="2"/>
<circle cx="160" cy="-103.66491729789993" fill="#000000" r="2"/>
<circle cx="162.5" cy="-103.55747931726174" fill="#000000" r="2"/>
<circle cx="165" cy="-103.45329802281358" fill="#000000" r="2"/>
<circle cx="167.5" cy="-103.35222754975861" fill="#000000" r="2"/>
<circle cx="170" cy="-103.25413061603437" fill="#000000" r="2"/>
<circle cx="172.5" cy="-103.15887790021853" fill="#000000" r="2"/>
<circle cx="175" cy="-103.06634747273662" fill="#000000" r="2"/>
<circle cx="177.5" cy="-102.97642427518412" fill="#000000" r="2"/>
<circle cx="180" cy="-102.88899964301673" fill="#000000" r="2"/>
<circle cx="182.5" cy="-102.80397086752653" fill="#000000" r="2"/>
<circle cx="185" cy="-102.72124079327908" fill="#000000" r="2"/>
<circle cx="187.5" cy="-102.64071744783553" fill="#000000" r="2"/>
<circle cx="190" cy="-102.56231370065342" fill="#000000" r="2"/>
<circle cx="192.5" cy="-102.48594694860545" fill="#000000" r="2"/>
<circle cx="195" cy="-102.41153882569898" fill="#000000" r="2"/>
<circle cx="197.5" cy="-102.33901493482611" fill="#000000" r="2"/>
<circle cx="200" cy="-102.26830459964297" fill="#000000" r="2"/>
<circle cx="202.5" cy="-102.19934063486122" fill="#000000" r="2"/>
<circle cx="205" cy="-102.13205913329362" fill="#000000" r="2"/>
<circle cx="207.5" cy="-102.06639926836795" fill="#000000" r="2"/>
<circle cx="210" cy="-102.00230311068275" fill="#000000" r="2"/>
<circle cx="212.5" cy="-101.93971545757033" fill="#000000" r="2"/>
<circle cx="215" cy="-101.87858367451668" fill="#000000" r="2"/>
<circle cx="217.5" cy="-101.8188575475359" fill="#000000" r="2"/>
<circle cx="220" cy="-101.7604891456112" fill="#000000" r="2"/>
<circle cx="222.5" cy="-101.7034326924064" fill="#000000" r="2"/>
<circle cx="225" cy="-101.64764444654422" fill="#000000" r="2"/>
<circle cx="227.5" cy="-101.59308258975506" fill="#000000" r="2"/>
<circle cx="230" cy="-101.5397071223582" fill="#000000" r="2"/>
<circle cx="232.5" cy="-101.48747976544901" fill="#000000" r="2"/>
<circle cx="235" cy="-101.43636386936123" fill="#000000" r="2"/>
<circle cx="237.5" cy="-101.38632432789564" fill="#000000" r="2"/>
<circle cx="240" cy="-101.3373274979173" fill="#000000" r="2"/>
<circle cx="242.5" cy="-101.28934112391234" fill="#000000" r="2"/>
<circle cx="245" cy="-101.24233426720207" fill="#000000" r="2"/>
<circle cx="247.5" cy="-101.19627723939094" fill="#000000" r="2"/>
<circle cx="250" cy="-101.15114153986735" fill="#000000" r="2"/>
<circle cx="252.5" cy="-101.10689979697466" fill="#000000" r="2"/>
<circle cx="255" cy="-101.06352571267128" fill="#000000" r="2"/>
<circle cx="257.5" cy="-101.02099401038929" fill="#000000" r="2"/>
<circle cx="260" cy="-100.97928038592534" fill="#000000" r="2"/>
<circle cx="262.5" cy="-100.93836146112832" fill="#000000" r="2"/>
<circle cx="265" cy="-100.89821474021413" fill="#000000" r="2"/>
<circle cx="267.5" cy="-100.85881856850862" fill="#000000" r="2"/>
<circle cx="270" cy="-100.82015209351562" fill="#000000" r="2"/>
<circle cx="272.5" cy="-100.78219522811456" fill="#000000" r="2"/>
<circle cx="275" cy="-100.7449286157517" fill="#000000" r="2"/>
<circle cx="277.5" cy="-100.70833359753978" fill="#000000" r="2"/>
<circle cx="280" cy="-100.6723921810859" fill="#000000" r="2"/>
<circle cx="282.5" cy="-100.63708701102907" fill="#000000" r="2"/>
<circle cx="285" cy="-100.60240134106267" fill="#000000" r="2"/>
<circle cx="287.5" cy="-100.5683190074602" fill="#000000" r="2"/>
<circle cx="290" cy="-100.53482440397175" fill="#000000" r="2"/>
<circle cx="292.5" cy="-100.501902457977" fill="#000000" r="2"/>
<circle cx="295" cy="-100.46953860788715" fill="#000000" r="2"/>
<circle cx="297.5" cy="-100.43771878165613" fill="#000000" r="2"/>
<circle cx="300" cy="-100.40642937637871" fill="#000000" r="2"/>
<circle cx="302.5" cy="-100.37565723892385" fill="#000000" r="2"/>
<circle cx="305" cy="-100.34538964746736" fill="#000000" r="2"/>
<circle cx="307.5" cy="-100.31561429397865" fill="#000000" r="2"/>
<circle cx="310" cy="-100.28631926751461" fill="#000000" r="2"/>
<circle cx="312.5" cy="-100.25749303836085" fill="#000000" r="2"/>
<circle cx="315" cy="-100.22912444286932" fill="#000000" r="2"/>
<circle cx="317.5" cy="-100.20120266906608" fill="#000000" r="2"/>
<circle cx="320" cy="-100.17371724290024" fill="#000000" r="2"/>
<circle cx="322.5" cy="-100.14665801515233" fill="#000000" r="2"/>
<circle cx="325" cy="-100.12001514893228" fill="#000000" r="2"/>
<circle cx="327.5" cy="-100.09377910776334" fill="#000000" r="2"/>
<circle cx="330" cy="-100.06794064419638" fill="#000000" r="2"/>
<circle cx="332.5" cy="-100.04249078893662" fill="#000000" r="2"/>
<circle cx="335" cy="-100.0174208404786" fill="#000000" r="2"/>
<circle cx="337.5" cy="-99.99272235517242" fill="#000000" r="2"/>
<circle cx="340" cy="-99.96838713774682" fill="#000000" r="2"/>
<circle cx="342.5" cy="-99.94440723225225" fill="#000000" r="2"/>
<circle cx="345" cy="-99.92077491337255" fill="#000000" r="2"/>
<circle cx="347.5" cy="-99.89748267813444" fill="#000000" r="2"/>
<circle cx="350" cy="-99.87452323797075" fill="#000000" r="2"/>
<circle cx="352.5" cy="-99.85188951111165" fill="#000000" r="2"/>
<circle cx="355" cy="-99.82957461530013" fill="#000000" r="2"/>
<circle cx="357.5" cy="-99.8075718608169" fill="#000000" r="2"/>
<circle cx="360" cy="-99.78587474379648" fill="#000000" r="2"/>
<circle cx="362.5" cy="-99.76447693981214" fill="#000000" r="2"/>
<circle cx="365" cy="-99.74337229773738" fill="#000000" r="2"/>
<circle cx="367.5" cy="-99.72255483384306" fill="#000000" r="2"/>
<circle cx="370" cy="-99.70201872614882" fill="#000000" r="2"/>
<circle cx="372.5" cy="-99.68175830898458" fill="#000000" r="2"/>
<circle cx="375" cy="-99.66176806778778" fill="#000000" r="2"/>
<circle cx="377.5" cy="-99.64204263409593" fill="#000000" r="2"/>
<circle cx="380" cy="-99.62257678074923" fill="#000000" r="2"/>
<circle cx="382.5" cy="-99.6033654172479" fill="#000000" r="2"/>
<circle cx="385" cy="-99.58440358534163" fill="#000000" r="2"/>
<circle cx="387.5" cy="-99.56568645475171" fill="#000000" r="2"/>
<circle cx="390" cy="-99.54720931906266" fill="#000000" r="2"/>
<circle cx="392.5" cy="-99.52896759179072" fill="#000000" r="2"/>
<circle cx="395" cy="-99.51095680257016" fill="#000000" r="2"/>
<circle cx="397.5" cy="-99.49317259352402" fill="#000000" r="2"/>
<circle cx="400" cy="-99.47561071573041" fill="#000000" r="2"/>
<circle cx="402.5" cy="-99.45826702583638" fill="#000000" r="2"/>
<circle cx="405" cy="-99.44113748282281" fill="#000000" r="2"/>
<circle cx="407.5" cy="-99.42421814483556" fill="#000000" r="2"/>
<circle cx="410" cy="-99.4075051661862" fill="#000000" r="2"/>
<circle cx="412.5" cy="-99.39099479441165" fill="#000000" r="2"/>
<circle cx="415" cy="-99.37468336749598" fill="#000000" r="2"/>
<circle cx="417.5" cy="-99.35856731113998" fill="#000000" r="2"/>
<circle cx="420" cy="-99.34264313615625" fill="#000000" r="2"/>
<circle cx="422.5" cy="-99.32690743595622" fill="#000000" r="2"/>
<circle cx="425" cy="-99.31135688410716" fill="#000000" r="2"/>
<circle cx="427.5" cy="-99.29598823200725" fill="#000000" r="2"/>
<circle cx="430" cy="-99.28079830660842" fill="#000000" r="2"/>
<circle cx="432.5" cy="-99.26578400823506" fill="#000000" r="2"/>
<circle cx="435" cy="-99.25094230847641" fill="#000000" r="2"/>
<circle cx="437.5" cy="-99.23627024815625" fill="#000000" r="2"/>
<circle cx="440" cy="-99.22176493535063" fill="#000000" r="2"/>
<circle cx="442.5" cy="-99.20742354350502" fill="#000000" r="2"/>
<circle cx="445" cy="-99.19324330958821" fill="#000000" r="2"/>
<circle cx="447.5" cy="-99.17922153232011" fill="#000000" r="2"/>
<circle cx="450" cy="-99.16535557045091" fill="#000000" r="2"/>
<circle cx="452.5" cy="-99.15164284111782" fill="#000000" r="2"/>
<circle cx="455" cy="-99.13808081822374" fill="#000000" r="2"/>
<circle cx="457.5" cy="-99.12466703088977" fill="#000000" r="2"/>
<circle cx="460" cy="-99.1113990619666" fill="#000000" r="2"/>
<circle cx="462.5" cy="-99.09827454656427" fill="#000000" r="2"/>
<circle cx="465" cy="-99.08529117066686" fill="#000000" r="2"/>
<circle cx="467.5" cy="-99.07244666974697" fill="#000000" r="2"/>
<circle cx="470" cy="-99.05973882747975" fill="#000000" r="2"/>
<circle cx="472.5" cy="-99.04716547443867" fill="#000000" r="2"/>
<circle cx="475" cy="-99.03472448688312" fill="#000000" r="2"/>
<circle cx="477.5" cy="-99.02241378554994" fill="#000000" r="2"/>
<circle cx="480" cy="-99.01023133449641" fill="#000000" r="2"/>
<circle cx="482.5" cy="-98.99817513998747" fill="#000000" r="2"/>
<circle cx="485" cy="-98.98624324939034" fill="#000000" r="2"/>
<circle cx="487.5" cy="-98.97443375013546" fill="#000000" r="2"/>
<circle cx="490" cy="-98.96274476869215" fill="#000000" r="2"/>
<circle cx="492.5" cy="-98.95117444419384" fill="#000000" r="2"/>
<circle cx="495" cy="-98.93948297520595" fill="#000000" r="2"/>
<circle cx="497.5" cy="-96.68363636363637" fill="#000000" r="2"/>
</g>
<g>
<g>
<line stroke="black" stroke-width="1" x1="0" x2="0" y1="0" y2="10"/>
<line stroke="black" stroke-width="1" x1="100" x2="100" y1="0" y2="10"/>
<line stroke="black" stroke-width="1" x1="200" x2="200" y1="0" y2="10"/>
<line stroke="black" stroke-width="1" x1="300" x2="300" y1="0" y2="10"/>
<line stroke="black" stroke-width="1" x1="400" x2="400" y1="0" y2="10"/>
<line stroke="black" stroke-width="1" x1="500" x2="500" y1="0" y2="10"/>
</g>
<line stroke="black" stroke-width="1" x1="0" x2="500" y1="0" y2="0"/>
<g>
<text font-size="12" text-anchor="middle" x="0" y="20">
0
</text>
<text font-size="12" text-anchor="middle" x="100" y="20">
40000
</text>
<text font-size="12" text-anchor="middle" x="200" y="20">
80000
</text>
<text font-size="12" text-anchor="middle" x="300" y="20">
120000
</text>
<text font-size="12" text-anchor="middle" x="400" y="20">
160000
</text>
<text font-size="12" text-anchor="middle" x="500" y="20">
200000
</text>
</g>
<text font-size="12" text-anchor="middle" x="250" y="30">
Gas
</text>
</g>
<g>
<g>
<line stroke="black" stroke-width="1" x1="0" x2="-10" y1="-30.90909090909091" y2="-30.90909090909091"/>
<line stroke="black" stroke-width="1" x1="0" x2="-10" y1="-92.72727272727273" y2="-92.72727272727273"/>
<line stroke="black" stroke-width="1" x1="0" x2="-10" y1="-154.54545454545453" y2="-154.54545454545453"/>
<line stroke="black" stroke-width="1" x1="0" x2="-10" y1="-216.36363636363637" y2="-216.36363636363637"/>
<line stroke="black" stroke-width="1" x1="0" x2="-10" y1="-278.1818181818182" y2="-278.1818181818182"/>
<line stroke="black" stroke-width="1" x1="0" x2="-10" y1="-340" y2="-340"/>
</g>
<line stroke="black" stroke-0="1" x1="0" x2="0" y1="0" y2="-340"/>
<g>
<text dominant-baseline="middle" font-size="12" text-anchor="end" x="-15" y="-30.90909090909091">
686000000
</text>
<text dominant-baseline="middle" font-size="12" text-anchor="end" x="-15" y="-92.72727272727273">
688000000
</text>
<text dominant-baseline="middle" font-size="12" text-anchor="end" x="-15" y="-154.54545454545453">
690000000
</text>
<text dominant-baseline="middle" font-size="12" text-anchor="end" x="-15" y="-216.36363636363637">
692000000
</text>
<text dominant-baseline="middle" font-size="12" text-anchor="end" x="-15" y="-278.1818181818182">
694000000
</text>
<text dominant-baseline="middle" font-size="12" text-anchor="end" x="-15" y="-340">
696000000
</text>
</g>
<text font-size="12" text-anchor="middle" transform="rotate(-90 -30 -170)" x="-30" y="-170">
Score
</text>
</g>
</g>
</svg>