<svg viewBox="0 0 600 400" xmlns="http://www.w3.org/2000/svg">
<g transform="translate(50, 360)">
<g>
<circle cx="0.000005" cy="-0.000009272727272727273" fill="#000000" r="2"/>
<circle cx="0.005" cy="-0.000009272727272727273" fill="#000000" r="2"/>
<circle cx="5" cy="-0.0061818181818181816" fill="#000000" r="2"/>
</g>
<g>
<g>
<line stroke="black" stroke-width="1" x1="0" x2="0" y1="0" y2="10"/>
<line stroke="black" stroke-width="1" x1="100" x2="100" y1="0" y2="10"/>
<line stroke="black" stroke-width="1" x1="200" x2="200" y1="0" y2="10"/>
<line stroke="black" stroke-width="1" x1="300" x2="300" y1="0" y2="10"/>
<line stroke="black" stroke-width="1" x1="400" x2="400" y1="0" y2="10"/>
<line stroke="black" stroke-width="1" x1="500" x2="500" y1="0" y2="10"/>
</g>
<line stroke="black" stroke-width="1" x1="0" x2="500" y1="0" y2="0"/>
<g>
<text font-size="12" text-anchor="middle" x="0" y="20">
0
</text>
<text font-size="12" text-anchor="middle" x="100" y="20">
20000000
</text>
<text font-size="12" text-anchor="middle" x="200" y="20">
40000000
</text>
<text font-size="12" text-anchor="middle" x="300" y="20">
60000000
</text>
<text font-size="12" text-anchor="middle" x="400" y="20">
80000000
</text>
<text font-size="12" text-anchor="middle" x="500" y="20">
100000000
</text>
</g>
<text font-size="12" text-anchor="middle" x="250" y="30">
Gas Price
</text>
</g>
<g>
<g>
<line stroke="black" stroke-width="1" x1="0" x2="-10" y1="0" y2="0"/>
<line stroke="black" stroke-width="1" x1="0" x2="-10" y1="-61.81818181818182" y2="-61.81818181818182"/>
<line stroke="black" stroke-width="1" x1="0" x2="-10" y1="-123.63636363636364" y2="-123.63636363636364"/>
<line stroke="black" stroke-width="1" x1="0" x2="-10" y1="-185.45454545454547" y2="-185.45454545454547"/>
<line stroke="black" stroke-width="1" x1="0" x2="-10" y1="-247.27272727272728" y2="-247.27272727272728"/>
<line stroke="black" stroke-width="1" x1="0" x2="-10" y1="-309.09090909090907" y2="-309.09090909090907"/>
</g>
<line stroke="black" stroke-0="1" x1="0" x2="0" y1="0" y2="-340"/>
<g>
<text dominant-baseline="middle" font-size="12" text-anchor="end" x="-15" y="0">
0
</text>
<text dominant-baseline="middle" font-size="12" text-anchor="end" x="-15" y="-61.81818181818182">
20000000
</text>
<text dominant-baseline="middle" font-size="12" text-anchor="end" x="-15" y="-123.63636363636364">
40000000
</text>
<text dominant-baseline="middle" font-size="12" text-anchor="end" x="-15" y="-185.45454545454547">
60000000
</text>
<text dominant-baseline="middle" font-size="12" text-anchor="end" x="-15" y="-247.27272727272728">
80000000
</text>
<text dominant-baseline="middle" font-size="12" text-anchor="end" x="-15" y="-309.09090909090907">
100000000
</text>
</g>
<text font-size="12" text-anchor="middle" transform="rotate(-90 -30 -170)" x="-30" y="-170">
Score
</text>
</g>
</g>
</svg>