<svg viewBox="0 0 600 400" xmlns="http://www.w3.org/2000/svg">
<g transform="translate(50, 360)">
<g>
<circle cx="0" cy="-67.66142085999999" fill="#000000" r="5"/>
<circle cx="2.380952380952381" cy="-113.87967633408" fill="#000000" r="5"/>
<circle cx="4.761904761904762" cy="-145.3437413888" fill="#000000" r="5"/>
<circle cx="7.142857142857143" cy="-166.65495949312" fill="#000000" r="5"/>
<circle cx="9.523809523809524" cy="-180.97979292672" fill="#000000" r="5"/>
<circle cx="11.904761904761905" cy="-190.49714395136002" fill="#000000" r="5"/>
<circle cx="14.285714285714286" cy="-196.7062508032" fill="#000000" r="5"/>
<circle cx="16.666666666666668" cy="-200.63889260544002" fill="#000000" r="5"/>
<circle cx="19.047619047619047" cy="-203.00514864128" fill="#000000" r="5"/>
<circle cx="21.428571428571427" cy="-204.29330077696002" fill="#000000" r="5"/>
<circle cx="23.80952380952381" cy="-204.83978855424002" fill="#000000" r="5"/>
<circle cx="26.19047619047619" cy="-204.87576793088" fill="#000000" r="5"/>
<circle cx="28.571428571428573" cy="-204.560568064" fill="#000000" r="5"/>
<circle cx="30.952380952380953" cy="-204.00368388095998" fill="#000000" r="5"/>
<circle cx="33.333333333333336" cy="-203.28045163519997" fill="#000000" r="5"/>
<circle cx="35.714285714285715" cy="-202.44281122816" fill="#000000" r="5"/>
<circle cx="38.095238095238095" cy="-201.5265590784" fill="#000000" r="5"/>
<circle cx="40.476190476190474" cy="-200.55602739199998" fill="#000000" r="5"/>
<circle cx="42.857142857142854" cy="-199.5480615424" fill="#000000" r="5"/>
<circle cx="45.23809523809524" cy="-198.51459366912002" fill="#000000" r="5"/>
<circle cx="47.61904761904762" cy="-197.46334456832003" fill="#000000" r="5"/>
<circle cx="50" cy="-196.39992936448004" fill="#000000" r="5"/>
<circle cx="52.38095238095238" cy="-195.32809147392" fill="#000000" r="5"/>
<circle cx="54.76190476190476" cy="-194.25063845888002" fill="#000000" r="5"/>
<circle cx="57.142857142857146" cy="-193.16920806399997" fill="#000000" r="5"/>
<circle cx="59.523809523809526" cy="-192.08497010688" fill="#000000" r="5"/>
<circle cx="61.904761904761905" cy="-190.9988604416" fill="#000000" r="5"/>
<circle cx="64.28571428571429" cy="-189.91158095872004" fill="#000000" r="5"/>
<circle cx="66.66666666666667" cy="-188.82336562176002" fill="#000000" r="5"/>
<circle cx="69.04761904761905" cy="-187.73444839424" fill="#000000" r="5"/>
<circle cx="71.42857142857143" cy="-186.6452972032" fill="#000000" r="5"/>
<circle cx="73.80952380952381" cy="-185.55567808511998" fill="#000000" r="5"/>
<circle cx="76.19047619047619" cy="-184.46582500352002" fill="#000000" r="5"/>
<circle cx="78.57142857142857" cy="-183.37597192192" fill="#000000" r="5"/>
<circle cx="80.95238095238095" cy="-182.28611884032" fill="#000000" r="5"/>
<circle cx="83.33333333333333" cy="-181.19603179519996" fill="#000000" r="5"/>
<circle cx="85.71428571428571" cy="-180.10594475008" fill="#000000" r="5"/>
<circle cx="88.0952380952381" cy="-179.01585770496" fill="#000000" r="5"/>
<circle cx="90.47619047619048" cy="-177.92577065984003" fill="#000000" r="5"/>
<circle cx="92.85714285714286" cy="-176.83568361472" fill="#000000" r="5"/>
<circle cx="95.23809523809524" cy="-175.74536260608" fill="#000000" r="5"/>
<circle cx="97.61904761904762" cy="-174.65527556096" fill="#000000" r="5"/>
<circle cx="100" cy="-173.56495455232002" fill="#000000" r="5"/>
<circle cx="102.38095238095238" cy="-172.4748675072" fill="#000000" r="5"/>
<circle cx="104.76190476190476" cy="-171.38478046208" fill="#000000" r="5"/>
<circle cx="107.14285714285714" cy="-170.29445945344" fill="#000000" r="5"/>
<circle cx="109.52380952380952" cy="-169.20437240832" fill="#000000" r="5"/>
<circle cx="111.9047619047619" cy="-168.11405139968" fill="#000000" r="5"/>
<circle cx="114.28571428571429" cy="-167.02396435456" fill="#000000" r="5"/>
<circle cx="116.66666666666667" cy="-165.93364334592" fill="#000000" r="5"/>
<circle cx="119.04761904761905" cy="-164.8435563008" fill="#000000" r="5"/>
<circle cx="121.42857142857143" cy="-163.75323529216" fill="#000000" r="5"/>
<circle cx="123.80952380952381" cy="-162.66314824704" fill="#000000" r="5"/>
<circle cx="126.19047619047619" cy="-161.57306120192" fill="#000000" r="5"/>
<circle cx="128.57142857142858" cy="-160.48274019328002" fill="#000000" r="5"/>
<circle cx="130.95238095238096" cy="-159.39265314815998" fill="#000000" r="5"/>
<circle cx="133.33333333333334" cy="-158.30233213952" fill="#000000" r="5"/>
<circle cx="135.71428571428572" cy="-157.21224509439998" fill="#000000" r="5"/>
<circle cx="138.0952380952381" cy="-156.12192408575999" fill="#000000" r="5"/>
<circle cx="140.47619047619048" cy="-155.03183704064" fill="#000000" r="5"/>
<circle cx="142.85714285714286" cy="-153.941516032" fill="#000000" r="5"/>
<circle cx="145.23809523809524" cy="-152.85142898688" fill="#000000" r="5"/>
<circle cx="147.61904761904762" cy="-151.76134194176" fill="#000000" r="5"/>
<circle cx="150" cy="-150.67102093312002" fill="#000000" r="5"/>
<circle cx="152.38095238095238" cy="-149.58093388799998" fill="#000000" r="5"/>
<circle cx="154.76190476190476" cy="-148.49061287936001" fill="#000000" r="5"/>
<circle cx="157.14285714285714" cy="-147.40052583424003" fill="#000000" r="5"/>
<circle cx="159.52380952380952" cy="-146.3102048256" fill="#000000" r="5"/>
<circle cx="161.9047619047619" cy="-145.22011778048" fill="#000000" r="5"/>
<circle cx="164.28571428571428" cy="-144.12979677184" fill="#000000" r="5"/>
<circle cx="166.66666666666666" cy="-143.03970972671996" fill="#000000" r="5"/>
<circle cx="169.04761904761904" cy="-141.9496226816" fill="#000000" r="5"/>
<circle cx="171.42857142857142" cy="-140.85930167296002" fill="#000000" r="5"/>
<circle cx="173.8095238095238" cy="-139.76921462784" fill="#000000" r="5"/>
<circle cx="176.1904761904762" cy="-138.67889361919998" fill="#000000" r="5"/>
<circle cx="178.57142857142858" cy="-137.58880657408002" fill="#000000" r="5"/>
<circle cx="180.95238095238096" cy="-136.49848556544" fill="#000000" r="5"/>
<circle cx="183.33333333333334" cy="-135.40839852032" fill="#000000" r="5"/>
<circle cx="185.71428571428572" cy="-134.31807751168" fill="#000000" r="5"/>
<circle cx="188.0952380952381" cy="-133.22799046656002" fill="#000000" r="5"/>
<circle cx="190.47619047619048" cy="-132.13790342144" fill="#000000" r="5"/>
<circle cx="192.85714285714286" cy="-131.04758241279998" fill="#000000" r="5"/>
<circle cx="195.23809523809524" cy="-129.95749536768" fill="#000000" r="5"/>
<circle cx="197.61904761904762" cy="-128.86717435903998" fill="#000000" r="5"/>
<circle cx="200" cy="-127.77708731392" fill="#000000" r="5"/>
<circle cx="202.38095238095238" cy="-126.68676630528" fill="#000000" r="5"/>
<circle cx="204.76190476190476" cy="-125.59667926015999" fill="#000000" r="5"/>
<circle cx="207.14285714285714" cy="-124.50635825152001" fill="#000000" r="5"/>
<circle cx="209.52380952380952" cy="-123.4162712064" fill="#000000" r="5"/>
<circle cx="211.9047619047619" cy="-122.32618416128001" fill="#000000" r="5"/>
<circle cx="214.28571428571428" cy="-121.23586315264" fill="#000000" r="5"/>
<circle cx="216.66666666666666" cy="-120.14577610751998" fill="#000000" r="5"/>
<circle cx="219.04761904761904" cy="-119.05545509888" fill="#000000" r="5"/>
<circle cx="221.42857142857142" cy="-117.96536805375999" fill="#000000" r="5"/>
<circle cx="223.8095238095238" cy="-116.87504704512001" fill="#000000" r="5"/>
<circle cx="226.1904761904762" cy="-115.78496" fill="#000000" r="5"/>
<circle cx="228.57142857142858" cy="-114.69487295487998" fill="#000000" r="5"/>
<circle cx="230.95238095238096" cy="-113.60455194624001" fill="#000000" r="5"/>
<circle cx="233.33333333333334" cy="-112.51446490112" fill="#000000" r="5"/>
<circle cx="235.71428571428572" cy="-111.42414389248002" fill="#000000" r="5"/>
<circle cx="238.0952380952381" cy="-110.33405684736" fill="#000000" r="5"/>
<circle cx="240.47619047619048" cy="-109.24373583872" fill="#000000" r="5"/>
<circle cx="242.85714285714286" cy="-108.15364879360001" fill="#000000" r="5"/>
<circle cx="245.23809523809524" cy="-107.06332778495998" fill="#000000" r="5"/>
<circle cx="247.61904761904762" cy="-105.97324073984002" fill="#000000" r="5"/>
<circle cx="250" cy="-104.88315369472" fill="#000000" r="5"/>
<circle cx="252.38095238095238" cy="-103.79283268607999" fill="#000000" r="5"/>
<circle cx="254.76190476190476" cy="-102.70274564096" fill="#000000" r="5"/>
<circle cx="257.14285714285717" cy="-101.61242463232" fill="#000000" r="5"/>
<circle cx="259.5238095238095" cy="-100.52233758720001" fill="#000000" r="5"/>
<circle cx="261.9047619047619" cy="-99.43201657856" fill="#000000" r="5"/>
<circle cx="264.2857142857143" cy="-98.34192953344" fill="#000000" r="5"/>
<circle cx="266.6666666666667" cy="-97.2516085248" fill="#000000" r="5"/>
<circle cx="269.04761904761904" cy="-96.16152147967999" fill="#000000" r="5"/>
<circle cx="271.42857142857144" cy="-95.07143443456002" fill="#000000" r="5"/>
<circle cx="273.8095238095238" cy="-93.98111342592" fill="#000000" r="5"/>
<circle cx="276.1904761904762" cy="-92.8910263808" fill="#000000" r="5"/>
<circle cx="278.57142857142856" cy="-91.80070537216" fill="#000000" r="5"/>
<circle cx="280.95238095238096" cy="-90.71061832704" fill="#000000" r="5"/>
<circle cx="283.3333333333333" cy="-89.6202973184" fill="#000000" r="5"/>
<circle cx="285.7142857142857" cy="-88.53021027327999" fill="#000000" r="5"/>
<circle cx="288.0952380952381" cy="-87.43988926463999" fill="#000000" r="5"/>
<circle cx="290.4761904761905" cy="-86.34980221952" fill="#000000" r="5"/>
<circle cx="292.85714285714283" cy="-85.2597151744" fill="#000000" r="5"/>
<circle cx="295.23809523809524" cy="-84.16939416576001" fill="#000000" r="5"/>
<circle cx="297.6190476190476" cy="-83.07930712064" fill="#000000" r="5"/>
<circle cx="300" cy="-81.988986112" fill="#000000" r="5"/>
<circle cx="302.3809523809524" cy="-80.89889906688" fill="#000000" r="5"/>
<circle cx="304.76190476190476" cy="-79.80857805824" fill="#000000" r="5"/>
<circle cx="307.14285714285717" cy="-78.71849101312" fill="#000000" r="5"/>
<circle cx="309.5238095238095" cy="-77.62817000448" fill="#000000" r="5"/>
<circle cx="311.9047619047619" cy="-76.53808295936" fill="#000000" r="5"/>
<circle cx="314.2857142857143" cy="-75.44799591424" fill="#000000" r="5"/>
<circle cx="316.6666666666667" cy="-74.35767490559999" fill="#000000" r="5"/>
<circle cx="319.04761904761904" cy="-73.26758786048" fill="#000000" r="5"/>
<circle cx="321.42857142857144" cy="-72.17726685184" fill="#000000" r="5"/>
<circle cx="323.8095238095238" cy="-71.08717980672" fill="#000000" r="5"/>
<circle cx="326.1904761904762" cy="-69.99685879808" fill="#000000" r="5"/>
<circle cx="328.57142857142856" cy="-68.90677175296" fill="#000000" r="5"/>
<circle cx="330.95238095238096" cy="-67.81645074432001" fill="#000000" r="5"/>
<circle cx="333.3333333333333" cy="-66.7263636992" fill="#000000" r="5"/>
<circle cx="335.7142857142857" cy="-65.63627665408" fill="#000000" r="5"/>
<circle cx="338.0952380952381" cy="-64.54595564544" fill="#000000" r="5"/>
<circle cx="340.4761904761905" cy="-63.455868600319995" fill="#000000" r="5"/>
<circle cx="342.85714285714283" cy="-62.36554759168" fill="#000000" r="5"/>
<circle cx="345.23809523809524" cy="-61.275460546560005" fill="#000000" r="5"/>
<circle cx="347.6190476190476" cy="-60.18513953792001" fill="#000000" r="5"/>
<circle cx="350" cy="-59.09505249280001" fill="#000000" r="5"/>
<circle cx="352.3809523809524" cy="-58.00473148415999" fill="#000000" r="5"/>
<circle cx="354.76190476190476" cy="-56.914644439039996" fill="#000000" r="5"/>
<circle cx="357.14285714285717" cy="-55.82455739392" fill="#000000" r="5"/>
<circle cx="359.5238095238095" cy="-54.734236385280006" fill="#000000" r="5"/>
<circle cx="361.9047619047619" cy="-53.64414934016" fill="#000000" r="5"/>
<circle cx="364.2857142857143" cy="-52.55382833151999" fill="#000000" r="5"/>
<circle cx="366.6666666666667" cy="-51.4637412864" fill="#000000" r="5"/>
<circle cx="369.04761904761904" cy="-50.37342027776" fill="#000000" r="5"/>
<circle cx="371.42857142857144" cy="-49.283333232640004" fill="#000000" r="5"/>
<circle cx="373.8095238095238" cy="-48.193012224" fill="#000000" r="5"/>
<circle cx="376.1904761904762" cy="-47.10292517887999" fill="#000000" r="5"/>
<circle cx="378.57142857142856" cy="-46.01283813376" fill="#000000" r="5"/>
<circle cx="380.95238095238096" cy="-44.92251712512" fill="#000000" r="5"/>
<circle cx="383.3333333333333" cy="-43.83243008" fill="#000000" r="5"/>
<circle cx="385.7142857142857" cy="-42.74210907136" fill="#000000" r="5"/>
<circle cx="388.0952380952381" cy="-41.65202202624" fill="#000000" r="5"/>
<circle cx="390.4761904761905" cy="-40.5617010176" fill="#000000" r="5"/>
<circle cx="392.85714285714283" cy="-39.47161397248" fill="#000000" r="5"/>
<circle cx="395.23809523809524" cy="-38.38129296384" fill="#000000" r="5"/>
<circle cx="397.6190476190476" cy="-37.29120591872001" fill="#000000" r="5"/>
<circle cx="400" cy="-36.201118873599995" fill="#000000" r="5"/>
<circle cx="402.3809523809524" cy="-35.11079786496" fill="#000000" r="5"/>
<circle cx="404.76190476190476" cy="-34.02071081984" fill="#000000" r="5"/>
<circle cx="407.14285714285717" cy="-32.9303898112" fill="#000000" r="5"/>
<circle cx="409.5238095238095" cy="-31.84030276608" fill="#000000" r="5"/>
<circle cx="411.9047619047619" cy="-30.74998175744" fill="#000000" r="5"/>
<circle cx="414.2857142857143" cy="-29.65989471232" fill="#000000" r="5"/>
<circle cx="416.6666666666667" cy="-28.56957370368" fill="#000000" r="5"/>
<circle cx="419.04761904761904" cy="-27.479486658559996" fill="#000000" r="5"/>
<circle cx="421.42857142857144" cy="-26.389399613440002" fill="#000000" r="5"/>
<circle cx="423.8095238095238" cy="-25.299078604800002" fill="#000000" r="5"/>
<circle cx="426.1904761904762" cy="-24.20899155968" fill="#000000" r="5"/>
<circle cx="428.57142857142856" cy="-23.11867055104" fill="#000000" r="5"/>
<circle cx="430.95238095238096" cy="-22.02858350592" fill="#000000" r="5"/>
<circle cx="433.3333333333333" cy="-20.938262497279997" fill="#000000" r="5"/>
<circle cx="435.7142857142857" cy="-19.84817545216" fill="#000000" r="5"/>
<circle cx="438.0952380952381" cy="-18.75785444352" fill="#000000" r="5"/>
<circle cx="440.4761904761905" cy="-17.6677673984" fill="#000000" r="5"/>
<circle cx="442.85714285714283" cy="-16.577680353279998" fill="#000000" r="5"/>
<circle cx="445.23809523809524" cy="-15.48735934464" fill="#000000" r="5"/>
<circle cx="447.6190476190476" cy="-14.39727229952" fill="#000000" r="5"/>
<circle cx="450" cy="-13.30695129088" fill="#000000" r="5"/>
<circle cx="452.3809523809524" cy="-12.21686424576" fill="#000000" r="5"/>
<circle cx="454.76190476190476" cy="-11.12654323712" fill="#000000" r="5"/>
<circle cx="457.14285714285717" cy="-10.036456192" fill="#000000" r="5"/>
<circle cx="459.5238095238095" cy="-8.946135183360001" fill="#000000" r="5"/>
<circle cx="461.9047619047619" cy="-7.85604813824" fill="#000000" r="5"/>
<circle cx="464.2857142857143" cy="-6.76596109312" fill="#000000" r="5"/>
<circle cx="466.6666666666667" cy="-5.6756400844799995" fill="#000000" r="5"/>
<circle cx="469.04761904761904" cy="-4.58555303936" fill="#000000" r="5"/>
<circle cx="471.42857142857144" cy="-3.49523203072" fill="#000000" r="5"/>
<circle cx="473.8095238095238" cy="-2.4051449856" fill="#000000" r="5"/>
</g>
<g>
<g>
<line stroke="black" stroke-width="1" x1="0" x2="0" y1="0" y2="10"/>
<line stroke="black" stroke-width="1" x1="95.23809523809524" x2="95.23809523809524" y1="0" y2="10"/>
<line stroke="black" stroke-width="1" x1="190.47619047619048" x2="190.47619047619048" y1="0" y2="10"/>
<line stroke="black" stroke-width="1" x1="285.7142857142857" x2="285.7142857142857" y1="0" y2="10"/>
<line stroke="black" stroke-width="1" x1="380.95238095238096" x2="380.95238095238096" y1="0" y2="10"/>
<line stroke="black" stroke-width="1" x1="476.1904761904762" x2="476.1904761904762" y1="0" y2="10"/>
</g>
<line stroke="black" stroke-width="1" x1="0" x2="500" y1="0" y2="0"/>
<g>
<text font-size="12" text-anchor="middle" x="0" y="20">
0
</text>
<text font-size="12" text-anchor="middle" x="95.23809523809524" y="20">
40000
</text>
<text font-size="12" text-anchor="middle" x="190.47619047619048" y="20">
80000
</text>
<text font-size="12" text-anchor="middle" x="285.7142857142857" y="20">
120000
</text>
<text font-size="12" text-anchor="middle" x="380.95238095238096" y="20">
160000
</text>
<text font-size="12" text-anchor="middle" x="476.1904761904762" y="20">
200000
</text>
</g>
<text font-size="12" text-anchor="middle" x="250" y="30">
Gas Price
</text>
</g>
<g>
<g>
<line stroke="black" stroke-width="1" x1="0" x2="-10" y1="0" y2="0"/>
<line stroke="black" stroke-width="1" x1="0" x2="-10" y1="-68" y2="-68"/>
<line stroke="black" stroke-width="1" x1="0" x2="-10" y1="-136" y2="-136"/>
<line stroke="black" stroke-width="1" x1="0" x2="-10" y1="-204" y2="-204"/>
<line stroke="black" stroke-width="1" x1="0" x2="-10" y1="-272" y2="-272"/>
<line stroke="black" stroke-width="1" x1="0" x2="-10" y1="-340" y2="-340"/>
</g>
<line stroke="black" stroke-0="1" x1="0" x2="0" y1="0" y2="-340"/>
<g>
<text dominant-baseline="middle" font-size="12" text-anchor="end" x="-15" y="0">
0
</text>
<text dominant-baseline="middle" font-size="12" text-anchor="end" x="-15" y="-68">
200000
</text>
<text dominant-baseline="middle" font-size="12" text-anchor="end" x="-15" y="-136">
400000
</text>
<text dominant-baseline="middle" font-size="12" text-anchor="end" x="-15" y="-204">
600000
</text>
<text dominant-baseline="middle" font-size="12" text-anchor="end" x="-15" y="-272">
800000
</text>
<text dominant-baseline="middle" font-size="12" text-anchor="end" x="-15" y="-340">
1000000
</text>
</g>
<text font-size="12" text-anchor="middle" transform="rotate(-90 -30 -170)" x="-30" y="-170">
Score
</text>
</g>
</g>
</svg>