<svg viewBox="0 0 600 400" xmlns="http://www.w3.org/2000/svg">
<g transform="translate(50, 360)">
<g>
<circle cx="0" cy="-0.0017174516473815774" fill="#000000" r="2"/>
<circle cx="2.5" cy="-1.7174516473815775" fill="#000000" r="2"/>
<circle cx="5" cy="-3.433185843115773" fill="#000000" r="2"/>
<circle cx="7.5" cy="-5.148920038849969" fill="#000000" r="2"/>
<circle cx="10" cy="-6.864654234584164" fill="#000000" r="2"/>
<circle cx="12.5" cy="-8.58038843031836" fill="#000000" r="2"/>
<circle cx="15" cy="-10.296122626052556" fill="#000000" r="2"/>
<circle cx="17.5" cy="-12.011856821786752" fill="#000000" r="2"/>
<circle cx="20" cy="-13.727591017520947" fill="#000000" r="2"/>
<circle cx="22.5" cy="-15.443325213255143" fill="#000000" r="2"/>
<circle cx="25" cy="-17.15905940898934" fill="#000000" r="2"/>
<circle cx="27.5" cy="-18.874793604723536" fill="#000000" r="2"/>
<circle cx="30" cy="-20.590527800457732" fill="#000000" r="2"/>
<circle cx="32.5" cy="-22.306261996191928" fill="#000000" r="2"/>
<circle cx="35" cy="-24.02199619192612" fill="#000000" r="2"/>
<circle cx="37.5" cy="-25.737730387660317" fill="#000000" r="2"/>
<circle cx="40" cy="-27.453464583394513" fill="#000000" r="2"/>
<circle cx="42.5" cy="-29.169198779128713" fill="#000000" r="2"/>
<circle cx="45" cy="-30.884932974862906" fill="#000000" r="2"/>
<circle cx="47.5" cy="-32.6006671705971" fill="#000000" r="2"/>
<circle cx="50" cy="-34.3164013663313" fill="#000000" r="2"/>
<circle cx="52.5" cy="-36.0321355620655" fill="#000000" r="2"/>
<circle cx="55" cy="-37.74786975779969" fill="#000000" r="2"/>
<circle cx="57.5" cy="-39.463603953533884" fill="#000000" r="2"/>
<circle cx="60" cy="-41.179338149268084" fill="#000000" r="2"/>
<circle cx="62.5" cy="-42.89507234500228" fill="#000000" r="2"/>
<circle cx="65" cy="-44.61080654073647" fill="#000000" r="2"/>
<circle cx="67.5" cy="-46.32654073647067" fill="#000000" r="2"/>
<circle cx="70" cy="-48.04227493220486" fill="#000000" r="2"/>
<circle cx="72.5" cy="-49.75800912793906" fill="#000000" r="2"/>
<circle cx="75" cy="-51.473743323673254" fill="#000000" r="2"/>
<circle cx="77.5" cy="-53.189477519407454" fill="#000000" r="2"/>
<circle cx="80" cy="-54.90521171514165" fill="#000000" r="2"/>
<circle cx="82.5" cy="-56.62094591087583" fill="#000000" r="2"/>
<circle cx="85" cy="-58.33668010661003" fill="#000000" r="2"/>
<circle cx="87.5" cy="-60.05241430234423" fill="#000000" r="2"/>
<circle cx="90" cy="-61.768148498078425" fill="#000000" r="2"/>
<circle cx="92.5" cy="-63.483882693812625" fill="#000000" r="2"/>
<circle cx="95" cy="-65.19961688954682" fill="#000000" r="2"/>
<circle cx="97.5" cy="-66.91535108528102" fill="#000000" r="2"/>
<circle cx="100" cy="-68.6310852810152" fill="#000000" r="2"/>
<circle cx="102.5" cy="-70.3468194767494" fill="#000000" r="2"/>
<circle cx="105" cy="-72.0625536724836" fill="#000000" r="2"/>
<circle cx="107.5" cy="-73.77828786821779" fill="#000000" r="2"/>
<circle cx="110" cy="-75.49402206395199" fill="#000000" r="2"/>
<circle cx="112.5" cy="-77.20975625968619" fill="#000000" r="2"/>
<circle cx="115" cy="-78.92549045542039" fill="#000000" r="2"/>
<circle cx="117.5" cy="-80.64122465115457" fill="#000000" r="2"/>
<circle cx="120" cy="-82.35695884688877" fill="#000000" r="2"/>
<circle cx="122.5" cy="-84.07269304262297" fill="#000000" r="2"/>
<circle cx="125" cy="-85.78842723835716" fill="#000000" r="2"/>
<circle cx="127.5" cy="-87.50416143409136" fill="#000000" r="2"/>
<circle cx="130" cy="-89.21989562982556" fill="#000000" r="2"/>
<circle cx="132.5" cy="-90.93562982555976" fill="#000000" r="2"/>
<circle cx="135" cy="-92.65136402129394" fill="#000000" r="2"/>
<circle cx="137.5" cy="-94.36709821702816" fill="#000000" r="2"/>
<circle cx="140" cy="-96.08283241276234" fill="#000000" r="2"/>
<circle cx="142.5" cy="-97.79856660849653" fill="#000000" r="2"/>
<circle cx="145" cy="-99.51430080423073" fill="#000000" r="2"/>
<circle cx="147.5" cy="-101.23003499996491" fill="#000000" r="2"/>
<circle cx="150" cy="-102.94576919569913" fill="#000000" r="2"/>
<circle cx="152.5" cy="-104.66150339143331" fill="#000000" r="2"/>
<circle cx="155" cy="-106.37723758716751" fill="#000000" r="2"/>
<circle cx="157.5" cy="-108.0929717829017" fill="#000000" r="2"/>
<circle cx="160" cy="-109.80870597863591" fill="#000000" r="2"/>
<circle cx="162.5" cy="-111.5244401743701" fill="#000000" r="2"/>
<circle cx="165" cy="-113.2401743701043" fill="#000000" r="2"/>
<circle cx="167.5" cy="-114.95590856583848" fill="#000000" r="2"/>
<circle cx="170" cy="-116.67164276157268" fill="#000000" r="2"/>
<circle cx="172.5" cy="-118.38737695730688" fill="#000000" r="2"/>
<circle cx="175" cy="-120.10311115304107" fill="#000000" r="2"/>
<circle cx="177.5" cy="-121.81884534877528" fill="#000000" r="2"/>
<circle cx="180" cy="-123.53457954450947" fill="#000000" r="2"/>
<circle cx="182.5" cy="-125.25031374024367" fill="#000000" r="2"/>
<circle cx="185" cy="-126.96604793597785" fill="#000000" r="2"/>
<circle cx="187.5" cy="-128.68178213171205" fill="#000000" r="2"/>
<circle cx="190" cy="-130.39751632744625" fill="#000000" r="2"/>
<circle cx="192.5" cy="-132.11325052318043" fill="#000000" r="2"/>
<circle cx="195" cy="-133.82898471891465" fill="#000000" r="2"/>
<circle cx="197.5" cy="-135.54471891464883" fill="#000000" r="2"/>
<circle cx="200" cy="-137.26045311038303" fill="#000000" r="2"/>
<circle cx="202.5" cy="-138.97618730611723" fill="#000000" r="2"/>
<circle cx="205" cy="-140.69192150185143" fill="#000000" r="2"/>
<circle cx="207.5" cy="-142.40765569758562" fill="#000000" r="2"/>
<circle cx="210" cy="-144.12338989331982" fill="#000000" r="2"/>
<circle cx="212.5" cy="-145.83912408905402" fill="#000000" r="2"/>
<circle cx="215" cy="-147.55485828478822" fill="#000000" r="2"/>
<circle cx="217.5" cy="-149.2705924805224" fill="#000000" r="2"/>
<circle cx="220" cy="-150.9863266762566" fill="#000000" r="2"/>
<circle cx="222.5" cy="-152.7020608719908" fill="#000000" r="2"/>
<circle cx="225" cy="-154.417795067725" fill="#000000" r="2"/>
<circle cx="227.5" cy="-156.1335292634592" fill="#000000" r="2"/>
<circle cx="230" cy="-157.84926345919337" fill="#000000" r="2"/>
<circle cx="232.5" cy="-159.5649976549276" fill="#000000" r="2"/>
<circle cx="235" cy="-161.28073185066177" fill="#000000" r="2"/>
<circle cx="237.5" cy="-162.99646604639597" fill="#000000" r="2"/>
<circle cx="240" cy="-164.71220024213017" fill="#000000" r="2"/>
<circle cx="242.5" cy="-166.42793443786437" fill="#000000" r="2"/>
<circle cx="245" cy="-168.14366863359857" fill="#000000" r="2"/>
<circle cx="247.5" cy="-169.85940282933274" fill="#000000" r="2"/>
<circle cx="250" cy="-171.57513702506694" fill="#000000" r="2"/>
<circle cx="252.5" cy="-173.29087122080117" fill="#000000" r="2"/>
<circle cx="255" cy="-175.00660541653534" fill="#000000" r="2"/>
<circle cx="257.5" cy="-176.72233961226954" fill="#000000" r="2"/>
<circle cx="260" cy="-178.4380738080037" fill="#000000" r="2"/>
<circle cx="262.5" cy="-180.15380800373794" fill="#000000" r="2"/>
<circle cx="265" cy="-181.86954219947214" fill="#000000" r="2"/>
<circle cx="267.5" cy="-183.5852763952063" fill="#000000" r="2"/>
<circle cx="270" cy="-185.3010105909405" fill="#000000" r="2"/>
<circle cx="272.5" cy="-187.01674478667474" fill="#000000" r="2"/>
<circle cx="275" cy="-188.7324789824089" fill="#000000" r="2"/>
<circle cx="277.5" cy="-190.4482131781431" fill="#000000" r="2"/>
<circle cx="280" cy="-192.16394737387728" fill="#000000" r="2"/>
<circle cx="282.5" cy="-193.87968156961148" fill="#000000" r="2"/>
<circle cx="285" cy="-195.5954157653457" fill="#000000" r="2"/>
<circle cx="287.5" cy="-197.31114996107988" fill="#000000" r="2"/>
<circle cx="290" cy="-199.02688415681408" fill="#000000" r="2"/>
<circle cx="292.5" cy="-200.74261835254828" fill="#000000" r="2"/>
<circle cx="295" cy="-202.45835254828248" fill="#000000" r="2"/>
<circle cx="297.5" cy="-204.17408674401668" fill="#000000" r="2"/>
<circle cx="300" cy="-205.88982093975088" fill="#000000" r="2"/>
<circle cx="302.5" cy="-207.60555513548505" fill="#000000" r="2"/>
<circle cx="305" cy="-209.32128933121925" fill="#000000" r="2"/>
<circle cx="307.5" cy="-211.03702352695348" fill="#000000" r="2"/>
<circle cx="310" cy="-212.75275772268765" fill="#000000" r="2"/>
<circle cx="312.5" cy="-214.46849191842185" fill="#000000" r="2"/>
<circle cx="315" cy="-216.18422611415602" fill="#000000" r="2"/>
<circle cx="317.5" cy="-217.89996030989025" fill="#000000" r="2"/>
<circle cx="320" cy="-219.61569450562445" fill="#000000" r="2"/>
<circle cx="322.5" cy="-221.33142870135862" fill="#000000" r="2"/>
<circle cx="325" cy="-223.04716289709282" fill="#000000" r="2"/>
<circle cx="327.5" cy="-224.762897092827" fill="#000000" r="2"/>
<circle cx="330" cy="-226.47863128856122" fill="#000000" r="2"/>
<circle cx="332.5" cy="-228.19436548429542" fill="#000000" r="2"/>
<circle cx="335" cy="-229.91009968002965" fill="#000000" r="2"/>
<circle cx="337.5" cy="-231.6258338757638" fill="#000000" r="2"/>
<circle cx="340" cy="-233.34156807149802" fill="#000000" r="2"/>
<circle cx="342.5" cy="-235.0573022672322" fill="#000000" r="2"/>
<circle cx="345" cy="-236.77303646296642" fill="#000000" r="2"/>
<circle cx="347.5" cy="-238.48877065870056" fill="#000000" r="2"/>
<circle cx="350" cy="-240.2045048544348" fill="#000000" r="2"/>
<circle cx="352.5" cy="-241.920239050169" fill="#000000" r="2"/>
<circle cx="355" cy="-243.63597324590322" fill="#000000" r="2"/>
<circle cx="357.5" cy="-245.35170744163736" fill="#000000" r="2"/>
<circle cx="360" cy="-247.0674416373716" fill="#000000" r="2"/>
<circle cx="362.5" cy="-248.78317583310576" fill="#000000" r="2"/>
<circle cx="365" cy="-250.49891002884" fill="#000000" r="2"/>
<circle cx="367.5" cy="-252.21464422457413" fill="#000000" r="2"/>
<circle cx="370" cy="-253.93037842030836" fill="#000000" r="2"/>
<circle cx="372.5" cy="-255.64611261604256" fill="#000000" r="2"/>
<circle cx="375" cy="-257.36184681177673" fill="#000000" r="2"/>
<circle cx="377.5" cy="-259.07758100751096" fill="#000000" r="2"/>
<circle cx="380" cy="-260.79331520324513" fill="#000000" r="2"/>
<circle cx="382.5" cy="-262.5090493989793" fill="#000000" r="2"/>
<circle cx="385" cy="-264.22478359471353" fill="#000000" r="2"/>
<circle cx="387.5" cy="-265.9405177904477" fill="#000000" r="2"/>
<circle cx="390" cy="-267.6562519861819" fill="#000000" r="2"/>
<circle cx="392.5" cy="-269.3719861819161" fill="#000000" r="2"/>
<circle cx="395" cy="-271.0877203776503" fill="#000000" r="2"/>
<circle cx="397.5" cy="-272.8034545733845" fill="#000000" r="2"/>
<circle cx="400" cy="-274.5191887691187" fill="#000000" r="2"/>
<circle cx="402.5" cy="-276.2349229648529" fill="#000000" r="2"/>
<circle cx="405" cy="-277.9506571605871" fill="#000000" r="2"/>
<circle cx="407.5" cy="-279.6663913563213" fill="#000000" r="2"/>
<circle cx="410" cy="-281.3821255520555" fill="#000000" r="2"/>
<circle cx="412.5" cy="-283.09785974778964" fill="#000000" r="2"/>
<circle cx="415" cy="-284.81359394352387" fill="#000000" r="2"/>
<circle cx="417.5" cy="-286.5293281392581" fill="#000000" r="2"/>
<circle cx="420" cy="-288.2450623349923" fill="#000000" r="2"/>
<circle cx="422.5" cy="-289.96079653072644" fill="#000000" r="2"/>
<circle cx="425" cy="-291.67653072646067" fill="#000000" r="2"/>
<circle cx="427.5" cy="-293.39226492219484" fill="#000000" r="2"/>
<circle cx="430" cy="-295.10799911792907" fill="#000000" r="2"/>
<circle cx="432.5" cy="-296.82373331366324" fill="#000000" r="2"/>
<circle cx="435" cy="-298.53946750939747" fill="#000000" r="2"/>
<circle cx="437.5" cy="-300.2552017051316" fill="#000000" r="2"/>
<circle cx="440" cy="-301.9709359008658" fill="#000000" r="2"/>
<circle cx="442.5" cy="-303.68667009660004" fill="#000000" r="2"/>
<circle cx="445" cy="-305.40240429233427" fill="#000000" r="2"/>
<circle cx="447.5" cy="-307.1181384880684" fill="#000000" r="2"/>
<circle cx="450" cy="-308.8338726838026" fill="#000000" r="2"/>
<circle cx="452.5" cy="-310.5496068795368" fill="#000000" r="2"/>
<circle cx="455" cy="-312.265341075271" fill="#000000" r="2"/>
<circle cx="457.5" cy="-313.9810752710052" fill="#000000" r="2"/>
<circle cx="460" cy="-315.6968094667394" fill="#000000" r="2"/>
<circle cx="462.5" cy="-317.4125436624736" fill="#000000" r="2"/>
<circle cx="465" cy="-319.1282778582078" fill="#000000" r="2"/>
<circle cx="467.5" cy="-320.844012053942" fill="#000000" r="2"/>
<circle cx="470" cy="-322.5597462496762" fill="#000000" r="2"/>
<circle cx="472.5" cy="-324.2754804454104" fill="#000000" r="2"/>
<circle cx="475" cy="-325.9912146411446" fill="#000000" r="2"/>
<circle cx="477.5" cy="-327.7069488368788" fill="#000000" r="2"/>
<circle cx="480" cy="-329.422683032613" fill="#000000" r="2"/>
<circle cx="482.5" cy="-331.1384172283472" fill="#000000" r="2"/>
<circle cx="485" cy="-332.85415142408135" fill="#000000" r="2"/>
<circle cx="487.5" cy="-334.5698856198152" fill="#000000" r="2"/>
<circle cx="490" cy="-336.28561981520664" fill="#000000" r="2"/>
<circle cx="492.5" cy="-338.0013536681354" fill="#000000" r="2"/>
<circle cx="495" cy="-339.7167450584615" fill="#000000" r="2"/>
<circle cx="497.5" cy="-341.08967384615386" fill="#000000" r="2"/>
</g>
<g>
<g>
<line stroke="black" stroke-width="1" x1="0" x2="0" y1="0" y2="10"/>
<line stroke="black" stroke-width="1" x1="100" x2="100" y1="0" y2="10"/>
<line stroke="black" stroke-width="1" x1="200" x2="200" y1="0" y2="10"/>
<line stroke="black" stroke-width="1" x1="300" x2="300" y1="0" y2="10"/>
<line stroke="black" stroke-width="1" x1="400" x2="400" y1="0" y2="10"/>
<line stroke="black" stroke-width="1" x1="500" x2="500" y1="0" y2="10"/>
</g>
<line stroke="black" stroke-width="1" x1="0" x2="500" y1="0" y2="0"/>
<g>
<text font-size="12" text-anchor="middle" x="0" y="20">
0
</text>
<text font-size="12" text-anchor="middle" x="100" y="20">
40000
</text>
<text font-size="12" text-anchor="middle" x="200" y="20">
80000
</text>
<text font-size="12" text-anchor="middle" x="300" y="20">
120000
</text>
<text font-size="12" text-anchor="middle" x="400" y="20">
160000
</text>
<text font-size="12" text-anchor="middle" x="500" y="20">
200000
</text>
</g>
<text font-size="12" text-anchor="middle" x="250" y="30">
Gas Price
</text>
</g>
<g>
<g>
<line stroke="black" stroke-width="1" x1="0" x2="-10" y1="0" y2="0"/>
<line stroke="black" stroke-width="1" x1="0" x2="-10" y1="-104.61538461538461" y2="-104.61538461538461"/>
<line stroke="black" stroke-width="1" x1="0" x2="-10" y1="-209.23076923076923" y2="-209.23076923076923"/>
<line stroke="black" stroke-width="1" x1="0" x2="-10" y1="-313.84615384615387" y2="-313.84615384615387"/>
</g>
<line stroke="black" stroke-0="1" x1="0" x2="0" y1="0" y2="-340"/>
<g>
<text dominant-baseline="middle" font-size="12" text-anchor="end" x="-15" y="0">
0
</text>
<text dominant-baseline="middle" font-size="12" text-anchor="end" x="-15" y="-104.61538461538461">
2000000000
</text>
<text dominant-baseline="middle" font-size="12" text-anchor="end" x="-15" y="-209.23076923076923">
4000000000
</text>
<text dominant-baseline="middle" font-size="12" text-anchor="end" x="-15" y="-313.84615384615387">
6000000000
</text>
</g>
<text font-size="12" text-anchor="middle" transform="rotate(-90 -30 -170)" x="-30" y="-170">
Score
</text>
</g>
</g>
</svg>