<svg viewBox="0 0 600 400" xmlns="http://www.w3.org/2000/svg">
<g transform="translate(50, 360)">
<g>
<circle cx="0" cy="0" fill="#000000" r="2"/>
<circle cx="2.5" cy="-1.772823171249103" fill="#000000" r="2"/>
<circle cx="5" cy="-3.529448172740656" fill="#000000" r="2"/>
<circle cx="7.5" cy="-5.27030736311255" fill="#000000" r="2"/>
<circle cx="10" cy="-6.995814324537817" fill="#000000" r="2"/>
<circle cx="12.5" cy="-8.706364978943059" fill="#000000" r="2"/>
<circle cx="15" cy="-10.402338620708036" fill="#000000" r="2"/>
<circle cx="17.5" cy="-12.084098873331797" fill="#000000" r="2"/>
<circle cx="20" cy="-13.75199457677124" fill="#000000" r="2"/>
<circle cx="22.5" cy="-15.406360611473161" fill="#000000" r="2"/>
<circle cx="25" cy="-17.04751866451358" fill="#000000" r="2"/>
<circle cx="27.5" cy="-18.675777942722657" fill="#000000" r="2"/>
<circle cx="30" cy="-20.29143583719504" fill="#000000" r="2"/>
<circle cx="32.5" cy="-21.894778543161944" fill="#000000" r="2"/>
<circle cx="35" cy="-23.486081638824373" fill="#000000" r="2"/>
<circle cx="37.5" cy="-25.06561062640973" fill="#000000" r="2"/>
<circle cx="40" cy="-26.63362143841114" fill="#000000" r="2"/>
<circle cx="42.5" cy="-28.190360911702516" fill="#000000" r="2"/>
<circle cx="45" cy="-29.73606723197726" fill="#000000" r="2"/>
<circle cx="47.5" cy="-31.270970350744037" fill="#000000" r="2"/>
<circle cx="50" cy="-32.79529237691545" fill="#000000" r="2"/>
<circle cx="52.5" cy="-34.30924794485234" fill="#000000" r="2"/>
<circle cx="55" cy="-35.81304456056475" fill="#000000" r="2"/>
<circle cx="57.5" cy="-37.306882927630404" fill="#000000" r="2"/>
<circle cx="60" cy="-38.79095725425883" fill="#000000" r="2"/>
<circle cx="62.5" cy="-40.265455542815545" fill="#000000" r="2"/>
<circle cx="65" cy="-41.730559863010434" fill="#000000" r="2"/>
<circle cx="67.5" cy="-43.18644660986182" fill="#000000" r="2"/>
<circle cx="70" cy="-44.63328674745605" fill="#000000" r="2"/>
<circle cx="72.5" cy="-46.071246039445825" fill="#000000" r="2"/>
<circle cx="75" cy="-47.500485267156435" fill="#000000" r="2"/>
<circle cx="77.5" cy="-48.92116043610157" fill="#000000" r="2"/>
<circle cx="80" cy="-50.333422971651714" fill="#000000" r="2"/>
<circle cx="82.5" cy="-51.73741990454167" fill="#000000" r="2"/>
<circle cx="85" cy="-53.13329404685316" fill="#000000" r="2"/>
<circle cx="87.5" cy="-54.521184159062514" fill="#000000" r="2"/>
<circle cx="90" cy="-55.90122510869983" fill="#000000" r="2"/>
<circle cx="92.5" cy="-57.2735480211279" fill="#000000" r="2"/>
<circle cx="95" cy="-58.63828042291349" fill="#000000" r="2"/>
<circle cx="97.5" cy="-59.99554637822933" fill="#000000" r="2"/>
<circle cx="100" cy="-61.34546661869602" fill="#000000" r="2"/>
<circle cx="102.5" cy="-62.6881586670442" fill="#000000" r="2"/>
<circle cx="105" cy="-64.02373695495247" fill="#000000" r="2"/>
<circle cx="107.5" cy="-65.35231293539184" fill="#000000" r="2"/>
<circle cx="110" cy="-66.67399518978574" fill="#000000" r="2"/>
<circle cx="112.5" cy="-67.98888953027517" fill="#000000" r="2"/>
<circle cx="115" cy="-69.29709909735789" fill="#000000" r="2"/>
<circle cx="117.5" cy="-70.59872445315531" fill="#000000" r="2"/>
<circle cx="120" cy="-71.89386367054372" fill="#000000" r="2"/>
<circle cx="122.5" cy="-73.18261241836969" fill="#000000" r="2"/>
<circle cx="125" cy="-74.4650640429601" fill="#000000" r="2"/>
<circle cx="127.5" cy="-75.74130964611932" fill="#000000" r="2"/>
<circle cx="130" cy="-77.01143815979727" fill="#000000" r="2"/>
<circle cx="132.5" cy="-78.27553641760079" fill="#000000" r="2"/>
<circle cx="135" cy="-79.53368922330766" fill="#000000" r="2"/>
<circle cx="137.5" cy="-80.78597941653804" fill="#000000" r="2"/>
<circle cx="140" cy="-82.03248793572308" fill="#000000" r="2"/>
<circle cx="142.5" cy="-83.27329387850673" fill="#000000" r="2"/>
<circle cx="145" cy="-84.50847455970742" fill="#000000" r="2"/>
<circle cx="147.5" cy="-85.73810556695763" fill="#000000" r="2"/>
<circle cx="150" cy="-86.96226081413522" fill="#000000" r="2"/>
<circle cx="152.5" cy="-88.18101259269174" fill="#000000" r="2"/>
<circle cx="155" cy="-89.39443162097787" fill="#000000" r="2"/>
<circle cx="157.5" cy="-90.60258709166074" fill="#000000" r="2"/>
<circle cx="160" cy="-91.80554671732276" fill="#000000" r="2"/>
<circle cx="162.5" cy="-93.00337677432545" fill="#000000" r="2"/>
<circle cx="165" cy="-94.19614214501922" fill="#000000" r="2"/>
<circle cx="167.5" cy="-95.38390635837374" fill="#000000" r="2"/>
<circle cx="170" cy="-96.5667316291008" fill="#000000" r="2"/>
<circle cx="172.5" cy="-97.74467889533743" fill="#000000" r="2"/>
<circle cx="175" cy="-98.91780785495325" fill="#000000" r="2"/>
<circle cx="177.5" cy="-100.08617700054313" fill="#000000" r="2"/>
<circle cx="180" cy="-101.24984365316212" fill="#000000" r="2"/>
<circle cx="182.5" cy="-102.40886399485848" fill="#000000" r="2"/>
<circle cx="185" cy="-103.5632931000553" fill="#000000" r="2"/>
<circle cx="187.5" cy="-104.71318496583197" fill="#000000" r="2"/>
<circle cx="190" cy="-105.85859254114946" fill="#000000" r="2"/>
<circle cx="192.5" cy="-106.99956775506718" fill="#000000" r="2"/>
<circle cx="195" cy="-108.13616154399084" fill="#000000" r="2"/>
<circle cx="197.5" cy="-109.26842387799363" fill="#000000" r="2"/>
<circle cx="200" cy="-110.3964037862475" fill="#000000" r="2"/>
<circle cx="202.5" cy="-111.52014938160188" fill="#000000" r="2"/>
<circle cx="205" cy="-112.63970788434385" fill="#000000" r="2"/>
<circle cx="207.5" cy="-113.7551256451734" fill="#000000" r="2"/>
<circle cx="210" cy="-114.86644816742482" fill="#000000" r="2"/>
<circle cx="212.5" cy="-115.97372012856417" fill="#000000" r="2"/>
<circle cx="215" cy="-117.07698540099129" fill="#000000" r="2"/>
<circle cx="217.5" cy="-118.1762870721744" fill="#000000" r="2"/>
<circle cx="220" cy="-119.27166746414252" fill="#000000" r="2"/>
<circle cx="222.5" cy="-120.36316815236003" fill="#000000" r="2"/>
<circle cx="225" cy="-121.45082998400892" fill="#000000" r="2"/>
<circle cx="227.5" cy="-122.53469309569905" fill="#000000" r="2"/>
<circle cx="230" cy="-123.61479693063" fill="#000000" r="2"/>
<circle cx="232.5" cy="-124.69118025522407" fill="#000000" r="2"/>
<circle cx="235" cy="-125.76388117524996" fill="#000000" r="2"/>
<circle cx="237.5" cy="-126.83293715145716" fill="#000000" r="2"/>
<circle cx="240" cy="-127.89838501473815" fill="#000000" r="2"/>
<circle cx="242.5" cy="-128.96026098083576" fill="#000000" r="2"/>
<circle cx="245" cy="-130.01860066461273" fill="#000000" r="2"/>
<circle cx="247.5" cy="-131.07343909389888" fill="#000000" r="2"/>
<circle cx="250" cy="-132.1248107229308" fill="#000000" r="2"/>
<circle cx="252.5" cy="-133.17274944539997" fill="#000000" r="2"/>
<circle cx="255" cy="-134.21728860712062" fill="#000000" r="2"/>
<circle cx="257.5" cy="-135.2584610183338" fill="#000000" r="2"/>
<circle cx="260" cy="-136.2962989656577" fill="#000000" r="2"/>
<circle cx="262.5" cy="-137.33083422369873" fill="#000000" r="2"/>
<circle cx="265" cy="-138.3620980663326" fill="#000000" r="2"/>
<circle cx="267.5" cy="-139.39012127766975" fill="#000000" r="2"/>
<circle cx="270" cy="-140.41493416271328" fill="#000000" r="2"/>
<circle cx="272.5" cy="-141.4365665577207" fill="#000000" r="2"/>
<circle cx="275" cy="-142.45504784028088" fill="#000000" r="2"/>
<circle cx="277.5" cy="-143.47040693911282" fill="#000000" r="2"/>
<circle cx="280" cy="-144.48267234359844" fill="#000000" r="2"/>
<circle cx="282.5" cy="-145.4918721130561" fill="#000000" r="2"/>
<circle cx="285" cy="-146.49803388576507" fill="#000000" r="2"/>
<circle cx="287.5" cy="-147.50118488774703" fill="#000000" r="2"/>
<circle cx="290" cy="-148.50135194131494" fill="#000000" r="2"/>
<circle cx="292.5" cy="-149.49856147339491" fill="#000000" r="2"/>
<circle cx="295" cy="-150.4928395236287" fill="#000000" r="2"/>
<circle cx="297.5" cy="-151.48421175226517" fill="#000000" r="2"/>
<circle cx="300" cy="-152.47270344784567" fill="#000000" r="2"/>
<circle cx="302.5" cy="-153.45833953469023" fill="#000000" r="2"/>
<circle cx="305" cy="-154.44114458019249" fill="#000000" r="2"/>
<circle cx="307.5" cy="-155.42114280192672" fill="#000000" r="2"/>
<circle cx="310" cy="-156.39835807457482" fill="#000000" r="2"/>
<circle cx="312.5" cy="-157.37281393667783" fill="#000000" r="2"/>
<circle cx="315" cy="-158.34453359721786" fill="#000000" r="2"/>
<circle cx="317.5" cy="-159.3135399420351" fill="#000000" r="2"/>
<circle cx="320" cy="-160.27985554008526" fill="#000000" r="2"/>
<circle cx="322.5" cy="-161.24350264954276" fill="#000000" r="2"/>
<circle cx="325" cy="-162.20450322375282" fill="#000000" r="2"/>
<circle cx="327.5" cy="-163.16287891703857" fill="#000000" r="2"/>
<circle cx="330" cy="-164.1186510903667" fill="#000000" r="2"/>
<circle cx="332.5" cy="-165.07184081687586" fill="#000000" r="2"/>
<circle cx="335" cy="-166.0224688872722" fill="#000000" r="2"/>
<circle cx="337.5" cy="-166.97055581509477" fill="#000000" r="2"/>
<circle cx="340" cy="-167.9161218418569" fill="#000000" r="2"/>
<circle cx="342.5" cy="-168.85918694206464" fill="#000000" r="2"/>
<circle cx="345" cy="-169.79977082811735" fill="#000000" r="2"/>
<circle cx="347.5" cy="-170.73789295509297" fill="#000000" r="2"/>
<circle cx="350" cy="-171.6735725254223" fill="#000000" r="2"/>
<circle cx="352.5" cy="-172.60682849345375" fill="#000000" r="2"/>
<circle cx="355" cy="-173.537679569914" fill="#000000" r="2"/>
<circle cx="357.5" cy="-174.46614422626476" fill="#000000" r="2"/>
<circle cx="360" cy="-175.39224069896113" fill="#000000" r="2"/>
<circle cx="362.5" cy="-176.31598699361223" fill="#000000" r="2"/>
<circle cx="365" cy="-177.23740088904827" fill="#000000" r="2"/>
<circle cx="367.5" cy="-178.15649994129538" fill="#000000" r="2"/>
<circle cx="370" cy="-179.07330148746246" fill="#000000" r="2"/>
<circle cx="372.5" cy="-179.98782264953968" fill="#000000" r="2"/>
<circle cx="375" cy="-180.9000803381147" fill="#000000" r="2"/>
<circle cx="377.5" cy="-181.81009125600517" fill="#000000" r="2"/>
<circle cx="380" cy="-182.71787190181232" fill="#000000" r="2"/>
<circle cx="382.5" cy="-183.62343857339664" fill="#000000" r="2"/>
<circle cx="385" cy="-184.52680737127764" fill="#000000" r="2"/>
<circle cx="387.5" cy="-185.42799420196062" fill="#000000" r="2"/>
<circle cx="390" cy="-186.32701478119097" fill="#000000" r="2"/>
<circle cx="392.5" cy="-187.2238846371394" fill="#000000" r="2"/>
<circle cx="395" cy="-188.1186191135187" fill="#000000" r="2"/>
<circle cx="397.5" cy="-189.01123337263408" fill="#000000" r="2"/>
<circle cx="400" cy="-189.90174239836995" fill="#000000" r="2"/>
<circle cx="402.5" cy="-190.79016099911277" fill="#000000" r="2"/>
<circle cx="405" cy="-191.67650381061287" fill="#000000" r="2"/>
<circle cx="407.5" cy="-192.56078529878752" fill="#000000" r="2"/>
<circle cx="410" cy="-193.44301976246447" fill="#000000" r="2"/>
<circle cx="412.5" cy="-194.32322133606925" fill="#000000" r="2"/>
<circle cx="415" cy="-195.20140399225934" fill="#000000" r="2"/>
<circle cx="417.5" cy="-196.07758154449562" fill="#000000" r="2"/>
<circle cx="420" cy="-196.951767649588" fill="#000000" r="2"/>
<circle cx="422.5" cy="-197.8239758101134" fill="#000000" r="2"/>
<circle cx="425" cy="-198.69421937700233" fill="#000000" r="2"/>
<circle cx="427.5" cy="-199.56251155144543" fill="#000000" r="2"/>
<circle cx="430" cy="-200.42886538857974" fill="#000000" r="2"/>
<circle cx="432.5" cy="-201.29329379584763" fill="#000000" r="2"/>
<circle cx="435" cy="-202.15580954653504" fill="#000000" r="2"/>
<circle cx="437.5" cy="-203.01642524948957" fill="#000000" r="2"/>
<circle cx="440" cy="-203.87515344432367" fill="#000000" r="2"/>
<circle cx="442.5" cy="-204.73200633760993" fill="#000000" r="2"/>
<circle cx="445" cy="-205.586996562739" fill="#000000" r="2"/>
<circle cx="447.5" cy="-206.44013502826675" fill="#000000" r="2"/>
<circle cx="450" cy="-207.29143702424443" fill="#000000" r="2"/>
<circle cx="452.5" cy="-208.14090496844133" fill="#000000" r="2"/>
<circle cx="455" cy="-208.988577057115" fill="#000000" r="2"/>
<circle cx="457.5" cy="-209.83439047317802" fill="#000000" r="2"/>
<circle cx="460" cy="-210.6785650266951" fill="#000000" r="2"/>
<circle cx="462.5" cy="-211.5205300325224" fill="#000000" r="2"/>
<circle cx="465" cy="-212.36191835181268" fill="#000000" r="2"/>
<circle cx="467.5" cy="-213.19823431705814" fill="#000000" r="2"/>
<circle cx="470" cy="-214.0419821604804" fill="#000000" r="2"/>
<circle cx="472.5" cy="-214.85862735010764" fill="#000000" r="2"/>
<circle cx="475" cy="-215.74346705067612" fill="#000000" r="2"/>
<circle cx="477.5" cy="-216.43435028270474" fill="#000000" r="2"/>
<circle cx="480" cy="-217.65092179286776" fill="#000000" r="2"/>
<circle cx="482.5" cy="-217.42350578310146" fill="#000000" r="2"/>
<circle cx="485" cy="-221.1368646482589" fill="#000000" r="2"/>
<circle cx="487.5" cy="-214.15414677899867" fill="#000000" r="2"/>
<circle cx="490" cy="-236.52996955197912" fill="#000000" r="2"/>
<circle cx="492.5" cy="-181.44736842105263" fill="#000000" r="2"/>
<circle cx="495" cy="-354.3157894736842" fill="#000000" r="2"/>
<circle cx="497.5" cy="0" fill="#000000" r="2"/>
</g>
<g>
<g>
<line stroke="black" stroke-width="1" x1="0" x2="0" y1="0" y2="10"/>
<line stroke="black" stroke-width="1" x1="100" x2="100" y1="0" y2="10"/>
<line stroke="black" stroke-width="1" x1="200" x2="200" y1="0" y2="10"/>
<line stroke="black" stroke-width="1" x1="300" x2="300" y1="0" y2="10"/>
<line stroke="black" stroke-width="1" x1="400" x2="400" y1="0" y2="10"/>
<line stroke="black" stroke-width="1" x1="500" x2="500" y1="0" y2="10"/>
</g>
<line stroke="black" stroke-width="1" x1="0" x2="500" y1="0" y2="0"/>
<g>
<text font-size="12" text-anchor="middle" x="0" y="20">
0
</text>
<text font-size="12" text-anchor="middle" x="100" y="20">
4000000
</text>
<text font-size="12" text-anchor="middle" x="200" y="20">
8000000
</text>
<text font-size="12" text-anchor="middle" x="300" y="20">
12000000
</text>
<text font-size="12" text-anchor="middle" x="400" y="20">
16000000
</text>
<text font-size="12" text-anchor="middle" x="500" y="20">
20000000
</text>
</g>
<text font-size="12" text-anchor="middle" x="250" y="30">
Gas
</text>
</g>
<g>
<g>
<line stroke="black" stroke-width="1" x1="0" x2="-10" y1="-53.68421052631579" y2="-53.68421052631579"/>
<line stroke="black" stroke-width="1" x1="0" x2="-10" y1="-125.26315789473684" y2="-125.26315789473684"/>
<line stroke="black" stroke-width="1" x1="0" x2="-10" y1="-196.8421052631579" y2="-196.8421052631579"/>
<line stroke="black" stroke-width="1" x1="0" x2="-10" y1="-268.42105263157896" y2="-268.42105263157896"/>
<line stroke="black" stroke-width="1" x1="0" x2="-10" y1="-340" y2="-340"/>
</g>
<line stroke="black" stroke-0="1" x1="0" x2="0" y1="0" y2="-340"/>
<g>
<text dominant-baseline="middle" font-size="12" text-anchor="end" x="-15" y="-53.68421052631579">
24000
</text>
<text dominant-baseline="middle" font-size="12" text-anchor="end" x="-15" y="-125.26315789473684">
28000
</text>
<text dominant-baseline="middle" font-size="12" text-anchor="end" x="-15" y="-196.8421052631579">
32000
</text>
<text dominant-baseline="middle" font-size="12" text-anchor="end" x="-15" y="-268.42105263157896">
36000
</text>
<text dominant-baseline="middle" font-size="12" text-anchor="end" x="-15" y="-340">
40000
</text>
</g>
<text font-size="12" text-anchor="middle" transform="rotate(-90 -30 -170)" x="-30" y="-170">
Score
</text>
</g>
</g>
</svg>