<svg viewBox="0 0 600 400" xmlns="http://www.w3.org/2000/svg">
<g transform="translate(50, 360)">
<g>
<circle cx="0" cy="-96.68363636363637" fill="#000000" r="2"/>
<circle cx="2.5" cy="-96.68363636457964" fill="#000000" r="2"/>
<circle cx="5" cy="-96.6836363655229" fill="#000000" r="2"/>
<circle cx="7.5" cy="-96.68363636646617" fill="#000000" r="2"/>
<circle cx="10" cy="-96.68363636740945" fill="#000000" r="2"/>
<circle cx="12.5" cy="-96.68363636835272" fill="#000000" r="2"/>
<circle cx="15" cy="-96.68363636929598" fill="#000000" r="2"/>
<circle cx="17.5" cy="-96.68363637023926" fill="#000000" r="2"/>
<circle cx="20" cy="-96.68363637118253" fill="#000000" r="2"/>
<circle cx="22.5" cy="-96.6836363721258" fill="#000000" r="2"/>
<circle cx="25" cy="-96.68363637306906" fill="#000000" r="2"/>
<circle cx="27.5" cy="-96.68363637401234" fill="#000000" r="2"/>
<circle cx="30" cy="-96.68363637495561" fill="#000000" r="2"/>
<circle cx="32.5" cy="-96.68363637589889" fill="#000000" r="2"/>
<circle cx="35" cy="-96.68363637684214" fill="#000000" r="2"/>
<circle cx="37.5" cy="-96.68363637778542" fill="#000000" r="2"/>
<circle cx="40" cy="-96.68363637872869" fill="#000000" r="2"/>
<circle cx="42.5" cy="-96.68363637967197" fill="#000000" r="2"/>
<circle cx="45" cy="-96.68363638061524" fill="#000000" r="2"/>
<circle cx="47.5" cy="-96.6836363815585" fill="#000000" r="2"/>
<circle cx="50" cy="-96.68363638250177" fill="#000000" r="2"/>
<circle cx="52.5" cy="-96.68363638344505" fill="#000000" r="2"/>
<circle cx="55" cy="-96.68363638438832" fill="#000000" r="2"/>
<circle cx="57.5" cy="-96.68363638533158" fill="#000000" r="2"/>
<circle cx="60" cy="-96.68363638627486" fill="#000000" r="2"/>
<circle cx="62.5" cy="-96.68363638721813" fill="#000000" r="2"/>
<circle cx="65" cy="-96.6836363881614" fill="#000000" r="2"/>
<circle cx="67.5" cy="-96.68363638910466" fill="#000000" r="2"/>
<circle cx="70" cy="-96.68363639004794" fill="#000000" r="2"/>
<circle cx="72.5" cy="-96.68363639099121" fill="#000000" r="2"/>
<circle cx="75" cy="-96.68363639193448" fill="#000000" r="2"/>
<circle cx="77.5" cy="-96.68363639287776" fill="#000000" r="2"/>
<circle cx="80" cy="-96.68363639382102" fill="#000000" r="2"/>
<circle cx="82.5" cy="-96.68363639476429" fill="#000000" r="2"/>
<circle cx="85" cy="-96.68363639570757" fill="#000000" r="2"/>
<circle cx="87.5" cy="-96.68363639665084" fill="#000000" r="2"/>
<circle cx="90" cy="-96.6836363975941" fill="#000000" r="2"/>
<circle cx="92.5" cy="-96.68363639853737" fill="#000000" r="2"/>
<circle cx="95" cy="-96.68363639948065" fill="#000000" r="2"/>
<circle cx="97.5" cy="-96.68363640042392" fill="#000000" r="2"/>
<circle cx="100" cy="-96.68363640136718" fill="#000000" r="2"/>
<circle cx="102.5" cy="-96.68363640231046" fill="#000000" r="2"/>
<circle cx="105" cy="-96.68363640325373" fill="#000000" r="2"/>
<circle cx="107.5" cy="-96.683636404197" fill="#000000" r="2"/>
<circle cx="110" cy="-96.68363640514028" fill="#000000" r="2"/>
<circle cx="112.5" cy="-96.68363640608354" fill="#000000" r="2"/>
<circle cx="115" cy="-96.68363640702681" fill="#000000" r="2"/>
<circle cx="117.5" cy="-96.68363640797008" fill="#000000" r="2"/>
<circle cx="120" cy="-96.68363640891336" fill="#000000" r="2"/>
<circle cx="122.5" cy="-96.68363640985662" fill="#000000" r="2"/>
<circle cx="125" cy="-96.68363641079989" fill="#000000" r="2"/>
<circle cx="127.5" cy="-96.68363641174317" fill="#000000" r="2"/>
<circle cx="130" cy="-96.68363641268644" fill="#000000" r="2"/>
<circle cx="132.5" cy="-96.6836364136297" fill="#000000" r="2"/>
<circle cx="135" cy="-96.68363641457297" fill="#000000" r="2"/>
<circle cx="137.5" cy="-96.68363641551625" fill="#000000" r="2"/>
<circle cx="140" cy="-96.68363641645952" fill="#000000" r="2"/>
<circle cx="142.5" cy="-96.68363641740278" fill="#000000" r="2"/>
<circle cx="145" cy="-96.68363641834605" fill="#000000" r="2"/>
<circle cx="147.5" cy="-96.68363641928933" fill="#000000" r="2"/>
<circle cx="150" cy="-96.6836364202326" fill="#000000" r="2"/>
<circle cx="152.5" cy="-96.68363642117588" fill="#000000" r="2"/>
<circle cx="155" cy="-96.68363642211914" fill="#000000" r="2"/>
<circle cx="157.5" cy="-96.68363642306241" fill="#000000" r="2"/>
<circle cx="160" cy="-96.68363642400568" fill="#000000" r="2"/>
<circle cx="162.5" cy="-96.68363642494896" fill="#000000" r="2"/>
<circle cx="165" cy="-96.68363642589222" fill="#000000" r="2"/>
<circle cx="167.5" cy="-96.68363642683549" fill="#000000" r="2"/>
<circle cx="170" cy="-96.68363642777877" fill="#000000" r="2"/>
<circle cx="172.5" cy="-96.68363642872204" fill="#000000" r="2"/>
<circle cx="175" cy="-96.6836364296653" fill="#000000" r="2"/>
<circle cx="177.5" cy="-96.68363643060857" fill="#000000" r="2"/>
<circle cx="180" cy="-96.68363643155185" fill="#000000" r="2"/>
<circle cx="182.5" cy="-96.68363643249512" fill="#000000" r="2"/>
<circle cx="185" cy="-96.6836364334384" fill="#000000" r="2"/>
<circle cx="187.5" cy="-96.68363643438165" fill="#000000" r="2"/>
<circle cx="190" cy="-96.68363643532493" fill="#000000" r="2"/>
<circle cx="192.5" cy="-96.6836364362682" fill="#000000" r="2"/>
<circle cx="195" cy="-96.68363643721148" fill="#000000" r="2"/>
<circle cx="197.5" cy="-96.68363643815474" fill="#000000" r="2"/>
<circle cx="200" cy="-96.68363643909801" fill="#000000" r="2"/>
<circle cx="202.5" cy="-96.68363644004128" fill="#000000" r="2"/>
<circle cx="205" cy="-96.68363644098456" fill="#000000" r="2"/>
<circle cx="207.5" cy="-96.68363644192782" fill="#000000" r="2"/>
<circle cx="210" cy="-96.68363644287109" fill="#000000" r="2"/>
<circle cx="212.5" cy="-96.68363644381436" fill="#000000" r="2"/>
<circle cx="215" cy="-96.68363644475764" fill="#000000" r="2"/>
<circle cx="217.5" cy="-96.68363644570091" fill="#000000" r="2"/>
<circle cx="220" cy="-96.68363644664417" fill="#000000" r="2"/>
<circle cx="222.5" cy="-96.68363644758745" fill="#000000" r="2"/>
<circle cx="225" cy="-96.68363644853072" fill="#000000" r="2"/>
<circle cx="227.5" cy="-96.683636449474" fill="#000000" r="2"/>
<circle cx="230" cy="-96.68363645041725" fill="#000000" r="2"/>
<circle cx="232.5" cy="-96.68363645136053" fill="#000000" r="2"/>
<circle cx="235" cy="-96.6836364523038" fill="#000000" r="2"/>
<circle cx="237.5" cy="-96.68363645324708" fill="#000000" r="2"/>
<circle cx="240" cy="-96.68363645419034" fill="#000000" r="2"/>
<circle cx="242.5" cy="-96.68363645513361" fill="#000000" r="2"/>
<circle cx="245" cy="-96.68363645607688" fill="#000000" r="2"/>
<circle cx="247.5" cy="-96.68363645702016" fill="#000000" r="2"/>
<circle cx="250" cy="-96.68363645796342" fill="#000000" r="2"/>
<circle cx="252.5" cy="-96.68363645890669" fill="#000000" r="2"/>
<circle cx="255" cy="-96.68363645984996" fill="#000000" r="2"/>
<circle cx="257.5" cy="-96.68363646079324" fill="#000000" r="2"/>
<circle cx="260" cy="-96.68363646173651" fill="#000000" r="2"/>
<circle cx="262.5" cy="-96.68363646267977" fill="#000000" r="2"/>
<circle cx="265" cy="-96.68363646362305" fill="#000000" r="2"/>
<circle cx="267.5" cy="-96.68363646456632" fill="#000000" r="2"/>
<circle cx="270" cy="-96.6836364655096" fill="#000000" r="2"/>
<circle cx="272.5" cy="-96.68363646645285" fill="#000000" r="2"/>
<circle cx="275" cy="-96.68363646739613" fill="#000000" r="2"/>
<circle cx="277.5" cy="-96.6836364683394" fill="#000000" r="2"/>
<circle cx="280" cy="-96.68363646928267" fill="#000000" r="2"/>
<circle cx="282.5" cy="-96.68363647022593" fill="#000000" r="2"/>
<circle cx="285" cy="-96.68363647116921" fill="#000000" r="2"/>
<circle cx="287.5" cy="-96.68363647211248" fill="#000000" r="2"/>
<circle cx="290" cy="-96.68363647305576" fill="#000000" r="2"/>
<circle cx="292.5" cy="-96.68363647399903" fill="#000000" r="2"/>
<circle cx="295" cy="-96.68363647494229" fill="#000000" r="2"/>
<circle cx="297.5" cy="-96.68363647588556" fill="#000000" r="2"/>
<circle cx="300" cy="-96.68363647682884" fill="#000000" r="2"/>
<circle cx="302.5" cy="-96.68363647777211" fill="#000000" r="2"/>
<circle cx="305" cy="-96.68363647871537" fill="#000000" r="2"/>
<circle cx="307.5" cy="-96.68363647965865" fill="#000000" r="2"/>
<circle cx="310" cy="-96.68363648060192" fill="#000000" r="2"/>
<circle cx="312.5" cy="-96.6836364815452" fill="#000000" r="2"/>
<circle cx="315" cy="-96.68363648248845" fill="#000000" r="2"/>
<circle cx="317.5" cy="-96.68363648343173" fill="#000000" r="2"/>
<circle cx="320" cy="-96.683636484375" fill="#000000" r="2"/>
<circle cx="322.5" cy="-96.68363648531827" fill="#000000" r="2"/>
<circle cx="325" cy="-96.68363648626155" fill="#000000" r="2"/>
<circle cx="327.5" cy="-96.68363648720481" fill="#000000" r="2"/>
<circle cx="330" cy="-96.68363648814808" fill="#000000" r="2"/>
<circle cx="332.5" cy="-96.68363648909136" fill="#000000" r="2"/>
<circle cx="335" cy="-96.68363649003463" fill="#000000" r="2"/>
<circle cx="337.5" cy="-96.68363649097789" fill="#000000" r="2"/>
<circle cx="340" cy="-96.68363649192116" fill="#000000" r="2"/>
<circle cx="342.5" cy="-96.68363649286444" fill="#000000" r="2"/>
<circle cx="345" cy="-96.68363649380771" fill="#000000" r="2"/>
<circle cx="347.5" cy="-96.68363649475097" fill="#000000" r="2"/>
<circle cx="350" cy="-96.68363649569424" fill="#000000" r="2"/>
<circle cx="352.5" cy="-96.68363649663752" fill="#000000" r="2"/>
<circle cx="355" cy="-96.68363649758079" fill="#000000" r="2"/>
<circle cx="357.5" cy="-96.68363649852405" fill="#000000" r="2"/>
<circle cx="360" cy="-96.68363649946733" fill="#000000" r="2"/>
<circle cx="362.5" cy="-96.6836365004106" fill="#000000" r="2"/>
<circle cx="365" cy="-96.68363650135387" fill="#000000" r="2"/>
<circle cx="367.5" cy="-96.68363650229715" fill="#000000" r="2"/>
<circle cx="370" cy="-96.68363650324041" fill="#000000" r="2"/>
<circle cx="372.5" cy="-96.68363650418368" fill="#000000" r="2"/>
<circle cx="375" cy="-96.68363650512696" fill="#000000" r="2"/>
<circle cx="377.5" cy="-96.68363650607023" fill="#000000" r="2"/>
<circle cx="380" cy="-96.68363650701349" fill="#000000" r="2"/>
<circle cx="382.5" cy="-96.68363650795676" fill="#000000" r="2"/>
<circle cx="385" cy="-96.68363650890004" fill="#000000" r="2"/>
<circle cx="387.5" cy="-96.68363650984331" fill="#000000" r="2"/>
<circle cx="390" cy="-96.68363651078657" fill="#000000" r="2"/>
<circle cx="392.5" cy="-96.68363651172984" fill="#000000" r="2"/>
<circle cx="395" cy="-96.68363651267312" fill="#000000" r="2"/>
<circle cx="397.5" cy="-96.68363651361639" fill="#000000" r="2"/>
<circle cx="400" cy="-96.68363651455967" fill="#000000" r="2"/>
<circle cx="402.5" cy="-96.68363651550293" fill="#000000" r="2"/>
<circle cx="405" cy="-96.6836365164462" fill="#000000" r="2"/>
<circle cx="407.5" cy="-96.68363651738947" fill="#000000" r="2"/>
<circle cx="410" cy="-96.68363651833275" fill="#000000" r="2"/>
<circle cx="412.5" cy="-96.683636519276" fill="#000000" r="2"/>
<circle cx="415" cy="-96.68363652021928" fill="#000000" r="2"/>
<circle cx="417.5" cy="-96.68363652116255" fill="#000000" r="2"/>
<circle cx="420" cy="-96.68363652210583" fill="#000000" r="2"/>
<circle cx="422.5" cy="-96.68363652304909" fill="#000000" r="2"/>
<circle cx="425" cy="-96.68363652399236" fill="#000000" r="2"/>
<circle cx="427.5" cy="-96.68363652493564" fill="#000000" r="2"/>
<circle cx="430" cy="-96.68363652587891" fill="#000000" r="2"/>
<circle cx="432.5" cy="-96.68363652682217" fill="#000000" r="2"/>
<circle cx="435" cy="-96.68363652776544" fill="#000000" r="2"/>
<circle cx="437.5" cy="-96.68363652870872" fill="#000000" r="2"/>
<circle cx="440" cy="-96.68363652965199" fill="#000000" r="2"/>
<circle cx="442.5" cy="-96.68363653059527" fill="#000000" r="2"/>
<circle cx="445" cy="-96.68363653153853" fill="#000000" r="2"/>
<circle cx="447.5" cy="-96.6836365324818" fill="#000000" r="2"/>
<circle cx="450" cy="-96.68363653342507" fill="#000000" r="2"/>
<circle cx="452.5" cy="-96.68363653436835" fill="#000000" r="2"/>
<circle cx="455" cy="-96.6836365353116" fill="#000000" r="2"/>
<circle cx="457.5" cy="-96.68363653625488" fill="#000000" r="2"/>
<circle cx="460" cy="-96.68363653719815" fill="#000000" r="2"/>
<circle cx="462.5" cy="-96.68363653814143" fill="#000000" r="2"/>
<circle cx="465" cy="-96.68363653908469" fill="#000000" r="2"/>
<circle cx="467.5" cy="-96.68363654002796" fill="#000000" r="2"/>
<circle cx="470" cy="-96.68363654097124" fill="#000000" r="2"/>
<circle cx="472.5" cy="-96.68363654191451" fill="#000000" r="2"/>
<circle cx="475" cy="-96.68363654285778" fill="#000000" r="2"/>
<circle cx="477.5" cy="-96.68363654380104" fill="#000000" r="2"/>
<circle cx="480" cy="-96.68363654474432" fill="#000000" r="2"/>
<circle cx="482.5" cy="-96.68363654568759" fill="#000000" r="2"/>
<circle cx="485" cy="-96.68363654663086" fill="#000000" r="2"/>
<circle cx="487.5" cy="-96.68363654757412" fill="#000000" r="2"/>
<circle cx="490" cy="-96.6836365485174" fill="#000000" r="2"/>
<circle cx="492.5" cy="-96.68363654946067" fill="#000000" r="2"/>
<circle cx="495" cy="-96.68363655040395" fill="#000000" r="2"/>
<circle cx="497.5" cy="-96.68363636363637" fill="#000000" r="2"/>
</g>
<g>
<g>
<line stroke="black" stroke-width="1" x1="0" x2="0" y1="0" y2="10"/>
<line stroke="black" stroke-width="1" x1="100" x2="100" y1="0" y2="10"/>
<line stroke="black" stroke-width="1" x1="200" x2="200" y1="0" y2="10"/>
<line stroke="black" stroke-width="1" x1="300" x2="300" y1="0" y2="10"/>
<line stroke="black" stroke-width="1" x1="400" x2="400" y1="0" y2="10"/>
<line stroke="black" stroke-width="1" x1="500" x2="500" y1="0" y2="10"/>
</g>
<line stroke="black" stroke-width="1" x1="0" x2="500" y1="0" y2="0"/>
<g>
<text font-size="12" text-anchor="middle" x="0" y="20">
0
</text>
<text font-size="12" text-anchor="middle" x="100" y="20">
40000
</text>
<text font-size="12" text-anchor="middle" x="200" y="20">
80000
</text>
<text font-size="12" text-anchor="middle" x="300" y="20">
120000
</text>
<text font-size="12" text-anchor="middle" x="400" y="20">
160000
</text>
<text font-size="12" text-anchor="middle" x="500" y="20">
200000
</text>
</g>
<text font-size="12" text-anchor="middle" x="250" y="30">
Gas
</text>
</g>
<g>
<g>
<line stroke="black" stroke-width="1" x1="0" x2="-10" y1="-30.90909090909091" y2="-30.90909090909091"/>
<line stroke="black" stroke-width="1" x1="0" x2="-10" y1="-92.72727272727273" y2="-92.72727272727273"/>
<line stroke="black" stroke-width="1" x1="0" x2="-10" y1="-154.54545454545453" y2="-154.54545454545453"/>
<line stroke="black" stroke-width="1" x1="0" x2="-10" y1="-216.36363636363637" y2="-216.36363636363637"/>
<line stroke="black" stroke-width="1" x1="0" x2="-10" y1="-278.1818181818182" y2="-278.1818181818182"/>
<line stroke="black" stroke-width="1" x1="0" x2="-10" y1="-340" y2="-340"/>
</g>
<line stroke="black" stroke-0="1" x1="0" x2="0" y1="0" y2="-340"/>
<g>
<text dominant-baseline="middle" font-size="12" text-anchor="end" x="-15" y="-30.90909090909091">
686000000
</text>
<text dominant-baseline="middle" font-size="12" text-anchor="end" x="-15" y="-92.72727272727273">
688000000
</text>
<text dominant-baseline="middle" font-size="12" text-anchor="end" x="-15" y="-154.54545454545453">
690000000
</text>
<text dominant-baseline="middle" font-size="12" text-anchor="end" x="-15" y="-216.36363636363637">
692000000
</text>
<text dominant-baseline="middle" font-size="12" text-anchor="end" x="-15" y="-278.1818181818182">
694000000
</text>
<text dominant-baseline="middle" font-size="12" text-anchor="end" x="-15" y="-340">
696000000
</text>
</g>
<text font-size="12" text-anchor="middle" transform="rotate(-90 -30 -170)" x="-30" y="-170">
Score
</text>
</g>
</g>
</svg>