<svg viewBox="0 0 600 400" xmlns="http://www.w3.org/2000/svg">
<g transform="translate(50, 360)">
<g>
<circle cx="0" cy="-0.621697296986056" fill="#000000" r="2"/>
<circle cx="2.5" cy="-2.050016955484021" fill="#000000" r="2"/>
<circle cx="5" cy="-3.64122360368963" fill="#000000" r="2"/>
<circle cx="7.5" cy="-5.283438189737949" fill="#000000" r="2"/>
<circle cx="10" cy="-6.947789889448154" fill="#000000" r="2"/>
<circle cx="12.5" cy="-8.623661637199557" fill="#000000" r="2"/>
<circle cx="15" cy="-10.30626820784611" fill="#000000" r="2"/>
<circle cx="17.5" cy="-11.993144759207993" fill="#000000" r="2"/>
<circle cx="20" cy="-13.682895428974401" fill="#000000" r="2"/>
<circle cx="22.5" cy="-15.374671628680481" fill="#000000" r="2"/>
<circle cx="25" cy="-17.067928241575224" fill="#000000" r="2"/>
<circle cx="27.5" cy="-18.762299309465586" fill="#000000" r="2"/>
<circle cx="30" cy="-20.45753012244968" fill="#000000" r="2"/>
<circle cx="32.5" cy="-22.15343798572352" fill="#000000" r="2"/>
<circle cx="35" cy="-23.849888478094847" fill="#000000" r="2"/>
<circle cx="37.5" cy="-25.54678051266456" fill="#000000" r="2"/>
<circle cx="40" cy="-27.244036617099535" fill="#000000" r="2"/>
<circle cx="42.5" cy="-28.941596424615593" fill="#000000" r="2"/>
<circle cx="45" cy="-30.639412203767012" fill="#000000" r="2"/>
<circle cx="47.5" cy="-32.33744571945701" fill="#000000" r="2"/>
<circle cx="50" cy="-34.03566598481831" fill="#000000" r="2"/>
<circle cx="52.5" cy="-35.73404762248182" fill="#000000" r="2"/>
<circle cx="55" cy="-37.43256965095289" fill="#000000" r="2"/>
<circle cx="57.5" cy="-39.1312145728344" fill="#000000" r="2"/>
<circle cx="60" cy="-40.829967680838315" fill="#000000" r="2"/>
<circle cx="62.5" cy="-42.528816523244956" fill="#000000" r="2"/>
<circle cx="65" cy="-44.227750487664615" fill="#000000" r="2"/>
<circle cx="67.5" cy="-45.92676047365435" fill="#000000" r="2"/>
<circle cx="70" cy="-47.62583863282911" fill="#000000" r="2"/>
<circle cx="72.5" cy="-49.324978160778315" fill="#000000" r="2"/>
<circle cx="75" cy="-51.024173129131405" fill="#000000" r="2"/>
<circle cx="77.5" cy="-52.72341834901911" fill="#000000" r="2"/>
<circle cx="80" cy="-54.42270925929175" fill="#000000" r="2"/>
<circle cx="82.5" cy="-56.122041834412485" fill="#000000" r="2"/>
<circle cx="85" cy="-57.821412508101815" fill="#000000" r="2"/>
<circle cx="87.5" cy="-59.52081810967829" fill="#000000" r="2"/>
<circle cx="90" cy="-61.22025581069992" fill="#000000" r="2"/>
<circle cx="92.5" cy="-62.91972308001295" fill="#000000" r="2"/>
<circle cx="95" cy="-64.61921764570256" fill="#000000" r="2"/>
<circle cx="97.5" cy="-66.31873746274027" fill="#000000" r="2"/>
<circle cx="100" cy="-68.01828068535738" fill="#000000" r="2"/>
<circle cx="102.5" cy="-69.71784564335815" fill="#000000" r="2"/>
<circle cx="105" cy="-71.41743082173306" fill="#000000" r="2"/>
<circle cx="107.5" cy="-73.11703484304749" fill="#000000" r="2"/>
<circle cx="110" cy="-74.81665645217504" fill="#000000" r="2"/>
<circle cx="112.5" cy="-76.51629450301958" fill="#000000" r="2"/>
<circle cx="115" cy="-78.21594794692979" fill="#000000" r="2"/>
<circle cx="117.5" cy="-79.91561582256011" fill="#000000" r="2"/>
<circle cx="120" cy="-81.61529724697158" fill="#000000" r="2"/>
<circle cx="122.5" cy="-83.31499140779928" fill="#000000" r="2"/>
<circle cx="125" cy="-85.01469755634031" fill="#000000" r="2"/>
<circle cx="127.5" cy="-86.71441500143818" fill="#000000" r="2"/>
<circle cx="130" cy="-88.41414310405905" fill="#000000" r="2"/>
<circle cx="132.5" cy="-90.11388127246973" fill="#000000" r="2"/>
<circle cx="135" cy="-91.81362895794146" fill="#000000" r="2"/>
<circle cx="137.5" cy="-93.51338565091326" fill="#000000" r="2"/>
<circle cx="140" cy="-95.21315087755903" fill="#000000" r="2"/>
<circle cx="142.5" cy="-96.91292419670927" fill="#000000" r="2"/>
<circle cx="145" cy="-98.6127051970856" fill="#000000" r="2"/>
<circle cx="147.5" cy="-100.31249349481179" fill="#000000" r="2"/>
<circle cx="150" cy="-102.01228873116904" fill="#000000" r="2"/>
<circle cx="152.5" cy="-103.71209057056872" fill="#000000" r="2"/>
<circle cx="155" cy="-105.41189869871776" fill="#000000" r="2"/>
<circle cx="157.5" cy="-107.11171282095596" fill="#000000" r="2"/>
<circle cx="160" cy="-108.81153266074678" fill="#000000" r="2"/>
<circle cx="162.5" cy="-110.51135795830511" fill="#000000" r="2"/>
<circle cx="165" cy="-112.21118846934782" fill="#000000" r="2"/>
<circle cx="167.5" cy="-113.91102396395475" fill="#000000" r="2"/>
<circle cx="170" cy="-115.61086422552827" fill="#000000" r="2"/>
<circle cx="172.5" cy="-117.31070904984234" fill="#000000" r="2"/>
<circle cx="175" cy="-119.01055824417155" fill="#000000" r="2"/>
<circle cx="177.5" cy="-120.71041162649306" fill="#000000" r="2"/>
<circle cx="180" cy="-122.41026902475376" fill="#000000" r="2"/>
<circle cx="182.5" cy="-124.11013027619708" fill="#000000" r="2"/>
<circle cx="185" cy="-125.80999522674335" fill="#000000" r="2"/>
<circle cx="187.5" cy="-127.50986373041937" fill="#000000" r="2"/>
<circle cx="190" cy="-129.20973564883218" fill="#000000" r="2"/>
<circle cx="192.5" cy="-130.9096108506833" fill="#000000" r="2"/>
<circle cx="195" cy="-132.60948921132" fill="#000000" r="2"/>
<circle cx="197.5" cy="-134.30937061232012" fill="#000000" r="2"/>
<circle cx="200" cy="-136.0092549411074" fill="#000000" r="2"/>
<circle cx="202.5" cy="-137.70914209059552" fill="#000000" r="2"/>
<circle cx="205" cy="-139.40903195885716" fill="#000000" r="2"/>
<circle cx="207.5" cy="-141.10892444881728" fill="#000000" r="2"/>
<circle cx="210" cy="-142.80881946796768" fill="#000000" r="2"/>
<circle cx="212.5" cy="-144.5087169281016" fill="#000000" r="2"/>
<circle cx="215" cy="-146.20861674506654" fill="#000000" r="2"/>
<circle cx="217.5" cy="-147.90851883853406" fill="#000000" r="2"/>
<circle cx="220" cy="-149.60842313178514" fill="#000000" r="2"/>
<circle cx="222.5" cy="-151.30832955150933" fill="#000000" r="2"/>
<circle cx="225" cy="-153.00823802761792" fill="#000000" r="2"/>
<circle cx="227.5" cy="-154.7081484930687" fill="#000000" r="2"/>
<circle cx="230" cy="-156.40806088370235" fill="#000000" r="2"/>
<circle cx="232.5" cy="-158.10797513808896" fill="#000000" r="2"/>
<circle cx="235" cy="-159.80789119738452" fill="#000000" r="2"/>
<circle cx="237.5" cy="-161.50780900519635" fill="#000000" r="2"/>
<circle cx="240" cy="-163.20772850745666" fill="#000000" r="2"/>
<circle cx="242.5" cy="-164.907649652304" fill="#000000" r="2"/>
<circle cx="245" cy="-166.6075723899719" fill="#000000" r="2"/>
<circle cx="247.5" cy="-168.30749667268404" fill="#000000" r="2"/>
<circle cx="250" cy="-170.0074224545559" fill="#000000" r="2"/>
<circle cx="252.5" cy="-171.70734969150192" fill="#000000" r="2"/>
<circle cx="255" cy="-173.40727834114836" fill="#000000" r="2"/>
<circle cx="257.5" cy="-175.10720836275075" fill="#000000" r="2"/>
<circle cx="260" cy="-176.80713971711654" fill="#000000" r="2"/>
<circle cx="262.5" cy="-178.50707236653193" fill="#000000" r="2"/>
<circle cx="265" cy="-180.20700627469267" fill="#000000" r="2"/>
<circle cx="267.5" cy="-181.90694140663882" fill="#000000" r="2"/>
<circle cx="270" cy="-183.60687772869318" fill="#000000" r="2"/>
<circle cx="272.5" cy="-185.30681520840295" fill="#000000" r="2"/>
<circle cx="275" cy="-187.0067538144845" fill="#000000" r="2"/>
<circle cx="277.5" cy="-188.7066935167715" fill="#000000" r="2"/>
<circle cx="280" cy="-190.40663428616506" fill="#000000" r="2"/>
<circle cx="282.5" cy="-192.1065760945872" fill="#000000" r="2"/>
<circle cx="285" cy="-193.80651891493642" fill="#000000" r="2"/>
<circle cx="287.5" cy="-195.5064627210456" fill="#000000" r="2"/>
<circle cx="290" cy="-197.20640748764208" fill="#000000" r="2"/>
<circle cx="292.5" cy="-198.90635319030974" fill="#000000" r="2"/>
<circle cx="295" cy="-200.60629980545312" fill="#000000" r="2"/>
<circle cx="297.5" cy="-202.306247310263" fill="#000000" r="2"/>
<circle cx="300" cy="-204.0061956826842" fill="#000000" r="2"/>
<circle cx="302.5" cy="-205.70614490138456" fill="#000000" r="2"/>
<circle cx="305" cy="-207.4060949457255" fill="#000000" r="2"/>
<circle cx="307.5" cy="-209.1060457957341" fill="#000000" r="2"/>
<circle cx="310" cy="-210.8059974320765" fill="#000000" r="2"/>
<circle cx="312.5" cy="-212.50594983603258" fill="#000000" r="2"/>
<circle cx="315" cy="-214.20590298947167" fill="#000000" r="2"/>
<circle cx="317.5" cy="-215.9058568748296" fill="#000000" r="2"/>
<circle cx="320" cy="-217.6058114750868" fill="#000000" r="2"/>
<circle cx="322.5" cy="-219.30576677374737" fill="#000000" r="2"/>
<circle cx="325" cy="-221.00572275481892" fill="#000000" r="2"/>
<circle cx="327.5" cy="-222.70567940279363" fill="#000000" r="2"/>
<circle cx="330" cy="-224.40563670263018" fill="#000000" r="2"/>
<circle cx="332.5" cy="-226.10559463973593" fill="#000000" r="2"/>
<circle cx="335" cy="-227.8055531999508" fill="#000000" r="2"/>
<circle cx="337.5" cy="-229.50551236953098" fill="#000000" r="2"/>
<circle cx="340" cy="-231.20547213513404" fill="#000000" r="2"/>
<circle cx="342.5" cy="-232.90543248380405" fill="#000000" r="2"/>
<circle cx="345" cy="-234.605393402958" fill="#000000" r="2"/>
<circle cx="347.5" cy="-236.30535488037233" fill="#000000" r="2"/>
<circle cx="350" cy="-238.00531690417023" fill="#000000" r="2"/>
<circle cx="352.5" cy="-239.7052794628094" fill="#000000" r="2"/>
<circle cx="355" cy="-241.40524254507025" fill="#000000" r="2"/>
<circle cx="357.5" cy="-243.10520614004503" fill="#000000" r="2"/>
<circle cx="360" cy="-244.80517023712673" fill="#000000" r="2"/>
<circle cx="362.5" cy="-246.50513482599888" fill="#000000" r="2"/>
<circle cx="365" cy="-248.2050998966258" fill="#000000" r="2"/>
<circle cx="367.5" cy="-249.90506543924295" fill="#000000" r="2"/>
<circle cx="370" cy="-251.60503144434796" fill="#000000" r="2"/>
<circle cx="372.5" cy="-253.30499790269172" fill="#000000" r="2"/>
<circle cx="375" cy="-255.00496480527022" fill="#000000" r="2"/>
<circle cx="377.5" cy="-256.7049321433164" fill="#000000" r="2"/>
<circle cx="380" cy="-258.4048999082922" fill="#000000" r="2"/>
<circle cx="382.5" cy="-260.1048680918815" fill="#000000" r="2"/>
<circle cx="385" cy="-261.8048366859826" fill="#000000" r="2"/>
<circle cx="387.5" cy="-263.5048056827018" fill="#000000" r="2"/>
<circle cx="390" cy="-265.2047750743461" fill="#000000" r="2"/>
<circle cx="392.5" cy="-266.9047448534175" fill="#000000" r="2"/>
<circle cx="395" cy="-268.60471501260673" fill="#000000" r="2"/>
<circle cx="397.5" cy="-270.3046855447869" fill="#000000" r="2"/>
<circle cx="400" cy="-272.0046564430083" fill="#000000" r="2"/>
<circle cx="402.5" cy="-273.704627700493" fill="#000000" r="2"/>
<circle cx="405" cy="-275.40459931062907" fill="#000000" r="2"/>
<circle cx="407.5" cy="-277.1045712669661" fill="#000000" r="2"/>
<circle cx="410" cy="-278.80454356320996" fill="#000000" r="2"/>
<circle cx="412.5" cy="-280.504516193218" fill="#000000" r="2"/>
<circle cx="415" cy="-282.20448915099496" fill="#000000" r="2"/>
<circle cx="417.5" cy="-283.90446243068817" fill="#000000" r="2"/>
<circle cx="420" cy="-285.60443602658347" fill="#000000" r="2"/>
<circle cx="422.5" cy="-287.3044099331011" fill="#000000" r="2"/>
<circle cx="425" cy="-289.0043841447919" fill="#000000" r="2"/>
<circle cx="427.5" cy="-290.7043586563335" fill="#000000" r="2"/>
<circle cx="430" cy="-292.40433346252644" fill="#000000" r="2"/>
<circle cx="432.5" cy="-294.10430855829077" fill="#000000" r="2"/>
<circle cx="435" cy="-295.80428393866265" fill="#000000" r="2"/>
<circle cx="437.5" cy="-297.5042595987912" fill="#000000" r="2"/>
<circle cx="440" cy="-299.204235533935" fill="#000000" r="2"/>
<circle cx="442.5" cy="-300.9042117394592" fill="#000000" r="2"/>
<circle cx="445" cy="-302.6041882108325" fill="#000000" r="2"/>
<circle cx="447.5" cy="-304.3041649436244" fill="#000000" r="2"/>
<circle cx="450" cy="-306.0041419335023" fill="#000000" r="2"/>
<circle cx="452.5" cy="-307.7041191762285" fill="#000000" r="2"/>
<circle cx="455" cy="-309.40409666765834" fill="#000000" r="2"/>
<circle cx="457.5" cy="-311.1040744037371" fill="#000000" r="2"/>
<circle cx="460" cy="-312.8040523804976" fill="#000000" r="2"/>
<circle cx="462.5" cy="-314.5040305940581" fill="#000000" r="2"/>
<circle cx="465" cy="-316.20400904061995" fill="#000000" r="2"/>
<circle cx="467.5" cy="-317.90398771646517" fill="#000000" r="2"/>
<circle cx="470" cy="-319.60396661795437" fill="#000000" r="2"/>
<circle cx="472.5" cy="-321.3039457415252" fill="#000000" r="2"/>
<circle cx="475" cy="-323.0039250836894" fill="#000000" r="2"/>
<circle cx="477.5" cy="-324.7039046410318" fill="#000000" r="2"/>
<circle cx="480" cy="-326.40388441020764" fill="#000000" r="2"/>
<circle cx="482.5" cy="-328.1038643879414" fill="#000000" r="2"/>
<circle cx="485" cy="-329.8038445710247" fill="#000000" r="2"/>
<circle cx="487.5" cy="-331.5038249563145" fill="#000000" r="2"/>
<circle cx="490" cy="-333.2038055407316" fill="#000000" r="2"/>
<circle cx="492.5" cy="-334.9037863212586" fill="#000000" r="2"/>
<circle cx="495" cy="-336.6037673366834" fill="#000000" r="2"/>
<circle cx="497.5" cy="-338.3" fill="#000000" r="2"/>
</g>
<g>
<g>
<line stroke="black" stroke-width="1" x1="0" x2="0" y1="0" y2="10"/>
<line stroke="black" stroke-width="1" x1="100" x2="100" y1="0" y2="10"/>
<line stroke="black" stroke-width="1" x1="200" x2="200" y1="0" y2="10"/>
<line stroke="black" stroke-width="1" x1="300" x2="300" y1="0" y2="10"/>
<line stroke="black" stroke-width="1" x1="400" x2="400" y1="0" y2="10"/>
<line stroke="black" stroke-width="1" x1="500" x2="500" y1="0" y2="10"/>
</g>
<line stroke="black" stroke-width="1" x1="0" x2="500" y1="0" y2="0"/>
<g>
<text font-size="12" text-anchor="middle" x="0" y="20">
0
</text>
<text font-size="12" text-anchor="middle" x="100" y="20">
40000
</text>
<text font-size="12" text-anchor="middle" x="200" y="20">
80000
</text>
<text font-size="12" text-anchor="middle" x="300" y="20">
120000
</text>
<text font-size="12" text-anchor="middle" x="400" y="20">
160000
</text>
<text font-size="12" text-anchor="middle" x="500" y="20">
200000
</text>
</g>
<text font-size="12" text-anchor="middle" x="250" y="30">
Gas Price
</text>
</g>
<g>
<g>
<line stroke="black" stroke-width="1" x1="0" x2="-10" y1="0" y2="0"/>
<line stroke="black" stroke-width="1" x1="0" x2="-10" y1="-68" y2="-68"/>
<line stroke="black" stroke-width="1" x1="0" x2="-10" y1="-136" y2="-136"/>
<line stroke="black" stroke-width="1" x1="0" x2="-10" y1="-204" y2="-204"/>
<line stroke="black" stroke-width="1" x1="0" x2="-10" y1="-272" y2="-272"/>
<line stroke="black" stroke-width="1" x1="0" x2="-10" y1="-340" y2="-340"/>
</g>
<line stroke="black" stroke-0="1" x1="0" x2="0" y1="0" y2="-340"/>
<g>
<text dominant-baseline="middle" font-size="12" text-anchor="end" x="-15" y="0">
0
</text>
<text dominant-baseline="middle" font-size="12" text-anchor="end" x="-15" y="-68">
40000
</text>
<text dominant-baseline="middle" font-size="12" text-anchor="end" x="-15" y="-136">
80000
</text>
<text dominant-baseline="middle" font-size="12" text-anchor="end" x="-15" y="-204">
120000
</text>
<text dominant-baseline="middle" font-size="12" text-anchor="end" x="-15" y="-272">
160000
</text>
<text dominant-baseline="middle" font-size="12" text-anchor="end" x="-15" y="-340">
200000
</text>
</g>
<text font-size="12" text-anchor="middle" transform="rotate(-90 -30 -170)" x="-30" y="-170">
Score
</text>
</g>
</g>
</svg>