<svg viewBox="0 0 600 400" xmlns="http://www.w3.org/2000/svg">
<g transform="translate(50, 360)">
<g>
<circle cx="0" cy="-0.0000000007039701020188967" fill="#000000" r="2"/>
<circle cx="2.5" cy="-1.7140184618904466" fill="#000000" r="2"/>
<circle cx="5" cy="-3.4280369233115797" fill="#000000" r="2"/>
<circle cx="7.5" cy="-5.1420553847913775" fill="#000000" r="2"/>
<circle cx="10" cy="-6.85607384629464" fill="#000000" r="2"/>
<circle cx="12.5" cy="-8.570092307809636" fill="#000000" r="2"/>
<circle cx="15" cy="-10.284110769331336" fill="#000000" r="2"/>
<circle cx="17.5" cy="-11.998129230857227" fill="#000000" r="2"/>
<circle cx="20" cy="-13.712147692385912" fill="#000000" r="2"/>
<circle cx="22.5" cy="-15.42616615391655" fill="#000000" r="2"/>
<circle cx="25" cy="-17.140184615448614" fill="#000000" r="2"/>
<circle cx="27.5" cy="-18.85420307698174" fill="#000000" r="2"/>
<circle cx="30" cy="-20.56822153851569" fill="#000000" r="2"/>
<circle cx="32.5" cy="-22.282240000050283" fill="#000000" r="2"/>
<circle cx="35" cy="-23.99625846158539" fill="#000000" r="2"/>
<circle cx="37.5" cy="-25.71027692312092" fill="#000000" r="2"/>
<circle cx="40" cy="-27.424295384656794" fill="#000000" r="2"/>
<circle cx="42.5" cy="-29.138313846192954" fill="#000000" r="2"/>
<circle cx="45" cy="-30.85233230772936" fill="#000000" r="2"/>
<circle cx="47.5" cy="-32.566350769265966" fill="#000000" r="2"/>
<circle cx="50" cy="-34.280369230802755" fill="#000000" r="2"/>
<circle cx="52.5" cy="-35.99438769233969" fill="#000000" r="2"/>
<circle cx="55" cy="-37.708406153876766" fill="#000000" r="2"/>
<circle cx="57.5" cy="-39.42242461541395" fill="#000000" r="2"/>
<circle cx="60" cy="-41.13644307695124" fill="#000000" r="2"/>
<circle cx="62.5" cy="-42.85046153848861" fill="#000000" r="2"/>
<circle cx="65" cy="-44.564480000026066" fill="#000000" r="2"/>
<circle cx="67.5" cy="-46.27849846156361" fill="#000000" r="2"/>
<circle cx="70" cy="-47.9925169231012" fill="#000000" r="2"/>
<circle cx="72.5" cy="-49.70653538463885" fill="#000000" r="2"/>
<circle cx="75" cy="-51.42055384617656" fill="#000000" r="2"/>
<circle cx="77.5" cy="-53.13457230771431" fill="#000000" r="2"/>
<circle cx="80" cy="-54.848590769252105" fill="#000000" r="2"/>
<circle cx="82.5" cy="-56.56260923078994" fill="#000000" r="2"/>
<circle cx="85" cy="-58.27662769232781" fill="#000000" r="2"/>
<circle cx="87.5" cy="-59.990646153865704" fill="#000000" r="2"/>
<circle cx="90" cy="-61.70466461540365" fill="#000000" r="2"/>
<circle cx="92.5" cy="-63.41868307694159" fill="#000000" r="2"/>
<circle cx="95" cy="-65.13270153847958" fill="#000000" r="2"/>
<circle cx="97.5" cy="-66.8467200000176" fill="#000000" r="2"/>
<circle cx="100" cy="-68.56073846155563" fill="#000000" r="2"/>
<circle cx="102.5" cy="-70.27475692309369" fill="#000000" r="2"/>
<circle cx="105" cy="-71.98877538463177" fill="#000000" r="2"/>
<circle cx="107.5" cy="-73.70279384616984" fill="#000000" r="2"/>
<circle cx="110" cy="-75.41681230770794" fill="#000000" r="2"/>
<circle cx="112.5" cy="-77.13083076924607" fill="#000000" r="2"/>
<circle cx="115" cy="-78.8448492307842" fill="#000000" r="2"/>
<circle cx="117.5" cy="-80.55886769232237" fill="#000000" r="2"/>
<circle cx="120" cy="-82.27288615386053" fill="#000000" r="2"/>
<circle cx="122.5" cy="-83.98690461539869" fill="#000000" r="2"/>
<circle cx="125" cy="-85.70092307693687" fill="#000000" r="2"/>
<circle cx="127.5" cy="-87.41494153847508" fill="#000000" r="2"/>
<circle cx="130" cy="-89.12896000001328" fill="#000000" r="2"/>
<circle cx="132.5" cy="-90.8429784615515" fill="#000000" r="2"/>
<circle cx="135" cy="-92.55699692308971" fill="#000000" r="2"/>
<circle cx="137.5" cy="-94.27101538462794" fill="#000000" r="2"/>
<circle cx="140" cy="-95.98503384616619" fill="#000000" r="2"/>
<circle cx="142.5" cy="-97.69905230770443" fill="#000000" r="2"/>
<circle cx="145" cy="-99.41307076924271" fill="#000000" r="2"/>
<circle cx="147.5" cy="-101.12708923078097" fill="#000000" r="2"/>
<circle cx="150" cy="-102.84110769231923" fill="#000000" r="2"/>
<circle cx="152.5" cy="-104.5551261538575" fill="#000000" r="2"/>
<circle cx="155" cy="-106.26914461539579" fill="#000000" r="2"/>
<circle cx="157.5" cy="-107.98316307693408" fill="#000000" r="2"/>
<circle cx="160" cy="-109.69718153847235" fill="#000000" r="2"/>
<circle cx="162.5" cy="-111.41120000001067" fill="#000000" r="2"/>
<circle cx="165" cy="-113.12521846154895" fill="#000000" r="2"/>
<circle cx="167.5" cy="-114.83923692308727" fill="#000000" r="2"/>
<circle cx="170" cy="-116.55325538462559" fill="#000000" r="2"/>
<circle cx="172.5" cy="-118.26727384616389" fill="#000000" r="2"/>
<circle cx="175" cy="-119.98129230770225" fill="#000000" r="2"/>
<circle cx="177.5" cy="-121.69531076924055" fill="#000000" r="2"/>
<circle cx="180" cy="-123.40932923077888" fill="#000000" r="2"/>
<circle cx="182.5" cy="-125.1233476923172" fill="#000000" r="2"/>
<circle cx="185" cy="-126.83736615385553" fill="#000000" r="2"/>
<circle cx="187.5" cy="-128.55138461539389" fill="#000000" r="2"/>
<circle cx="190" cy="-130.26540307693222" fill="#000000" r="2"/>
<circle cx="192.5" cy="-131.97942153847058" fill="#000000" r="2"/>
<circle cx="195" cy="-133.6934400000089" fill="#000000" r="2"/>
<circle cx="197.5" cy="-135.40745846154726" fill="#000000" r="2"/>
<circle cx="200" cy="-137.1214769230856" fill="#000000" r="2"/>
<circle cx="202.5" cy="-138.83549538462395" fill="#000000" r="2"/>
<circle cx="205" cy="-140.54951384616234" fill="#000000" r="2"/>
<circle cx="207.5" cy="-142.26353230770067" fill="#000000" r="2"/>
<circle cx="210" cy="-143.97755076923906" fill="#000000" r="2"/>
<circle cx="212.5" cy="-145.69156923077742" fill="#000000" r="2"/>
<circle cx="215" cy="-147.40558769231578" fill="#000000" r="2"/>
<circle cx="217.5" cy="-149.11960615385416" fill="#000000" r="2"/>
<circle cx="220" cy="-150.83362461539252" fill="#000000" r="2"/>
<circle cx="222.5" cy="-152.5476430769309" fill="#000000" r="2"/>
<circle cx="225" cy="-154.26166153846927" fill="#000000" r="2"/>
<circle cx="227.5" cy="-155.97568000000766" fill="#000000" r="2"/>
<circle cx="230" cy="-157.68969846154602" fill="#000000" r="2"/>
<circle cx="232.5" cy="-159.4037169230844" fill="#000000" r="2"/>
<circle cx="235" cy="-161.1177353846228" fill="#000000" r="2"/>
<circle cx="237.5" cy="-162.83175384616118" fill="#000000" r="2"/>
<circle cx="240" cy="-164.54577230769956" fill="#000000" r="2"/>
<circle cx="242.5" cy="-166.25979076923795" fill="#000000" r="2"/>
<circle cx="245" cy="-167.97380923077634" fill="#000000" r="2"/>
<circle cx="247.5" cy="-169.68782769231473" fill="#000000" r="2"/>
<circle cx="250" cy="-171.4018461538531" fill="#000000" r="2"/>
<circle cx="252.5" cy="-173.11586461539153" fill="#000000" r="2"/>
<circle cx="255" cy="-174.82988307692992" fill="#000000" r="2"/>
<circle cx="257.5" cy="-176.5439015384683" fill="#000000" r="2"/>
<circle cx="260" cy="-178.25792000000672" fill="#000000" r="2"/>
<circle cx="262.5" cy="-179.9719384615451" fill="#000000" r="2"/>
<circle cx="265" cy="-181.6859569230835" fill="#000000" r="2"/>
<circle cx="267.5" cy="-183.39997538462188" fill="#000000" r="2"/>
<circle cx="270" cy="-185.1139938461603" fill="#000000" r="2"/>
<circle cx="272.5" cy="-186.82801230769874" fill="#000000" r="2"/>
<circle cx="275" cy="-188.54203076923713" fill="#000000" r="2"/>
<circle cx="277.5" cy="-190.25604923077552" fill="#000000" r="2"/>
<circle cx="280" cy="-191.97006769231393" fill="#000000" r="2"/>
<circle cx="282.5" cy="-193.68408615385235" fill="#000000" r="2"/>
<circle cx="285" cy="-195.39810461539074" fill="#000000" r="2"/>
<circle cx="287.5" cy="-197.11212307692912" fill="#000000" r="2"/>
<circle cx="290" cy="-198.82614153846754" fill="#000000" r="2"/>
<circle cx="292.5" cy="-200.54016000000598" fill="#000000" r="2"/>
<circle cx="295" cy="-202.25417846154437" fill="#000000" r="2"/>
<circle cx="297.5" cy="-203.9681969230828" fill="#000000" r="2"/>
<circle cx="300" cy="-205.6822153846212" fill="#000000" r="2"/>
<circle cx="302.5" cy="-207.3962338461596" fill="#000000" r="2"/>
<circle cx="305" cy="-209.110252307698" fill="#000000" r="2"/>
<circle cx="307.5" cy="-210.82427076923645" fill="#000000" r="2"/>
<circle cx="310" cy="-212.53828923077486" fill="#000000" r="2"/>
<circle cx="312.5" cy="-214.25230769231328" fill="#000000" r="2"/>
<circle cx="315" cy="-215.96632615385167" fill="#000000" r="2"/>
<circle cx="317.5" cy="-217.6803446153901" fill="#000000" r="2"/>
<circle cx="320" cy="-219.39436307692853" fill="#000000" r="2"/>
<circle cx="322.5" cy="-221.10838153846694" fill="#000000" r="2"/>
<circle cx="325" cy="-222.82240000000536" fill="#000000" r="2"/>
<circle cx="327.5" cy="-224.5364184615438" fill="#000000" r="2"/>
<circle cx="330" cy="-226.25043692308222" fill="#000000" r="2"/>
<circle cx="332.5" cy="-227.9644553846206" fill="#000000" r="2"/>
<circle cx="335" cy="-229.67847384615908" fill="#000000" r="2"/>
<circle cx="337.5" cy="-231.3924923076975" fill="#000000" r="2"/>
<circle cx="340" cy="-233.1065107692359" fill="#000000" r="2"/>
<circle cx="342.5" cy="-234.8205292307743" fill="#000000" r="2"/>
<circle cx="345" cy="-236.53454769231277" fill="#000000" r="2"/>
<circle cx="347.5" cy="-238.2485661538512" fill="#000000" r="2"/>
<circle cx="350" cy="-239.9625846153896" fill="#000000" r="2"/>
<circle cx="352.5" cy="-241.676603076928" fill="#000000" r="2"/>
<circle cx="355" cy="-243.39062153846646" fill="#000000" r="2"/>
<circle cx="357.5" cy="-245.10464000000488" fill="#000000" r="2"/>
<circle cx="360" cy="-246.8186584615433" fill="#000000" r="2"/>
<circle cx="362.5" cy="-248.53267692308177" fill="#000000" r="2"/>
<circle cx="365" cy="-250.24669538462018" fill="#000000" r="2"/>
<circle cx="367.5" cy="-251.96071384615857" fill="#000000" r="2"/>
<circle cx="370" cy="-253.67473230769704" fill="#000000" r="2"/>
<circle cx="372.5" cy="-255.38875076923546" fill="#000000" r="2"/>
<circle cx="375" cy="-257.1027692307739" fill="#000000" r="2"/>
<circle cx="377.5" cy="-258.81678769231235" fill="#000000" r="2"/>
<circle cx="380" cy="-260.53080615385073" fill="#000000" r="2"/>
<circle cx="382.5" cy="-262.2448246153892" fill="#000000" r="2"/>
<circle cx="385" cy="-263.9588430769276" fill="#000000" r="2"/>
<circle cx="387.5" cy="-265.67286153846607" fill="#000000" r="2"/>
<circle cx="390" cy="-267.3868800000045" fill="#000000" r="2"/>
<circle cx="392.5" cy="-269.1008984615429" fill="#000000" r="2"/>
<circle cx="395" cy="-270.81491692308134" fill="#000000" r="2"/>
<circle cx="397.5" cy="-272.5289353846198" fill="#000000" r="2"/>
<circle cx="400" cy="-274.24295384615823" fill="#000000" r="2"/>
<circle cx="402.5" cy="-275.9569723076967" fill="#000000" r="2"/>
<circle cx="405" cy="-277.6709907692351" fill="#000000" r="2"/>
<circle cx="407.5" cy="-279.3850092307735" fill="#000000" r="2"/>
<circle cx="410" cy="-281.09902769231195" fill="#000000" r="2"/>
<circle cx="412.5" cy="-282.8130461538504" fill="#000000" r="2"/>
<circle cx="415" cy="-284.52706461538884" fill="#000000" r="2"/>
<circle cx="417.5" cy="-286.2410830769273" fill="#000000" r="2"/>
<circle cx="420" cy="-287.9551015384657" fill="#000000" r="2"/>
<circle cx="422.5" cy="-289.6691200000041" fill="#000000" r="2"/>
<circle cx="425" cy="-291.3831384615426" fill="#000000" r="2"/>
<circle cx="427.5" cy="-293.097156923081" fill="#000000" r="2"/>
<circle cx="430" cy="-294.8111753846195" fill="#000000" r="2"/>
<circle cx="432.5" cy="-296.5251938461579" fill="#000000" r="2"/>
<circle cx="435" cy="-298.2392123076964" fill="#000000" r="2"/>
<circle cx="437.5" cy="-299.9532307692348" fill="#000000" r="2"/>
<circle cx="440" cy="-301.6672492307732" fill="#000000" r="2"/>
<circle cx="442.5" cy="-303.3812676923116" fill="#000000" r="2"/>
<circle cx="445" cy="-305.0952861538501" fill="#000000" r="2"/>
<circle cx="447.5" cy="-306.8093046153885" fill="#000000" r="2"/>
<circle cx="450" cy="-308.523323076927" fill="#000000" r="2"/>
<circle cx="452.5" cy="-310.23734153846544" fill="#000000" r="2"/>
<circle cx="455" cy="-311.95136000000383" fill="#000000" r="2"/>
<circle cx="457.5" cy="-313.6653784615423" fill="#000000" r="2"/>
<circle cx="460" cy="-315.3793969230807" fill="#000000" r="2"/>
<circle cx="462.5" cy="-317.09341538461916" fill="#000000" r="2"/>
<circle cx="465" cy="-318.8074338461576" fill="#000000" r="2"/>
<circle cx="467.5" cy="-320.52145230769605" fill="#000000" r="2"/>
<circle cx="470" cy="-322.23547076923455" fill="#000000" r="2"/>
<circle cx="472.5" cy="-323.9494892307729" fill="#000000" r="2"/>
<circle cx="475" cy="-325.6635076923114" fill="#000000" r="2"/>
<circle cx="477.5" cy="-327.3775261538498" fill="#000000" r="2"/>
<circle cx="480" cy="-329.0915446153883" fill="#000000" r="2"/>
<circle cx="482.5" cy="-330.8055630769267" fill="#000000" r="2"/>
<circle cx="485" cy="-332.51958153846516" fill="#000000" r="2"/>
<circle cx="487.5" cy="-334.2336000000036" fill="#000000" r="2"/>
<circle cx="490" cy="-335.94761846154205" fill="#000000" r="2"/>
<circle cx="492.5" cy="-337.66163692308044" fill="#000000" r="2"/>
<circle cx="495" cy="-339.37565538461894" fill="#000000" r="2"/>
<circle cx="497.5" cy="-341.08967384615386" fill="#000000" r="2"/>
</g>
<g>
<g>
<line stroke="black" stroke-width="1" x1="0" x2="0" y1="0" y2="10"/>
<line stroke="black" stroke-width="1" x1="100" x2="100" y1="0" y2="10"/>
<line stroke="black" stroke-width="1" x1="200" x2="200" y1="0" y2="10"/>
<line stroke="black" stroke-width="1" x1="300" x2="300" y1="0" y2="10"/>
<line stroke="black" stroke-width="1" x1="400" x2="400" y1="0" y2="10"/>
<line stroke="black" stroke-width="1" x1="500" x2="500" y1="0" y2="10"/>
</g>
<line stroke="black" stroke-width="1" x1="0" x2="500" y1="0" y2="0"/>
<g>
<text font-size="12" text-anchor="middle" x="0" y="20">
0
</text>
<text font-size="12" text-anchor="middle" x="100" y="20">
40000
</text>
<text font-size="12" text-anchor="middle" x="200" y="20">
80000
</text>
<text font-size="12" text-anchor="middle" x="300" y="20">
120000
</text>
<text font-size="12" text-anchor="middle" x="400" y="20">
160000
</text>
<text font-size="12" text-anchor="middle" x="500" y="20">
200000
</text>
</g>
<text font-size="12" text-anchor="middle" x="250" y="30">
Gas Price
</text>
</g>
<g>
<g>
<line stroke="black" stroke-width="1" x1="0" x2="-10" y1="0" y2="0"/>
<line stroke="black" stroke-width="1" x1="0" x2="-10" y1="-104.61538461538461" y2="-104.61538461538461"/>
<line stroke="black" stroke-width="1" x1="0" x2="-10" y1="-209.23076923076923" y2="-209.23076923076923"/>
<line stroke="black" stroke-width="1" x1="0" x2="-10" y1="-313.84615384615387" y2="-313.84615384615387"/>
</g>
<line stroke="black" stroke-0="1" x1="0" x2="0" y1="0" y2="-340"/>
<g>
<text dominant-baseline="middle" font-size="12" text-anchor="end" x="-15" y="0">
0
</text>
<text dominant-baseline="middle" font-size="12" text-anchor="end" x="-15" y="-104.61538461538461">
2000000000
</text>
<text dominant-baseline="middle" font-size="12" text-anchor="end" x="-15" y="-209.23076923076923">
4000000000
</text>
<text dominant-baseline="middle" font-size="12" text-anchor="end" x="-15" y="-313.84615384615387">
6000000000
</text>
</g>
<text font-size="12" text-anchor="middle" transform="rotate(-90 -30 -170)" x="-30" y="-170">
Score
</text>
</g>
</g>
</svg>