<svg viewBox="0 0 600 400" xmlns="http://www.w3.org/2000/svg">
<g transform="translate(50, 360)">
<g>
<circle cx="0" cy="-inf" fill="#000000" r="2"/>
<circle cx="20" cy="-277.17514956398503" fill="#000000" r="2"/>
<circle cx="40" cy="-251.83251891991404" fill="#000000" r="2"/>
<circle cx="60" cy="-243.4145003092696" fill="#000000" r="2"/>
<circle cx="80" cy="-239.21432989564275" fill="#000000" r="2"/>
<circle cx="100" cy="-236.69775790018153" fill="#000000" r="2"/>
<circle cx="120" cy="-235.0217222654168" fill="#000000" r="2"/>
<circle cx="140" cy="-233.82540916666673" fill="#000000" r="2"/>
<circle cx="160" cy="-232.91416666666666" fill="#000000" r="2"/>
<circle cx="180" cy="-226.66666666666666" fill="#000000" r="2"/>
</g>
<g>
<g>
<line stroke="black" stroke-width="1" x1="0" x2="0" y1="0" y2="10"/>
<line stroke="black" stroke-width="1" x1="100" x2="100" y1="0" y2="10"/>
<line stroke="black" stroke-width="1" x1="200" x2="200" y1="0" y2="10"/>
<line stroke="black" stroke-width="1" x1="300" x2="300" y1="0" y2="10"/>
<line stroke="black" stroke-width="1" x1="400" x2="400" y1="0" y2="10"/>
<line stroke="black" stroke-width="1" x1="500" x2="500" y1="0" y2="10"/>
</g>
<line stroke="black" stroke-width="1" x1="0" x2="500" y1="0" y2="0"/>
<g>
<text font-size="12" text-anchor="middle" x="0" y="20">
0
</text>
<text font-size="12" text-anchor="middle" x="100" y="20">
5000
</text>
<text font-size="12" text-anchor="middle" x="200" y="20">
10000
</text>
<text font-size="12" text-anchor="middle" x="300" y="20">
15000
</text>
<text font-size="12" text-anchor="middle" x="400" y="20">
20000
</text>
<text font-size="12" text-anchor="middle" x="500" y="20">
25000
</text>
</g>
<text font-size="12" text-anchor="middle" x="250" y="30">
Gas
</text>
</g>
<g>
<g>
<line stroke="black" stroke-width="1" x1="0" x2="-10" y1="0" y2="0"/>
<line stroke="black" stroke-width="1" x1="0" x2="-10" y1="-113.33333333333333" y2="-113.33333333333333"/>
<line stroke="black" stroke-width="1" x1="0" x2="-10" y1="-226.66666666666666" y2="-226.66666666666666"/>
<line stroke="black" stroke-width="1" x1="0" x2="-10" y1="-340" y2="-340"/>
</g>
<line stroke="black" stroke-0="1" x1="0" x2="0" y1="0" y2="-340"/>
<g>
<text dominant-baseline="middle" font-size="12" text-anchor="end" x="-15" y="0">
19000
</text>
<text dominant-baseline="middle" font-size="12" text-anchor="end" x="-15" y="-113.33333333333333">
20000
</text>
<text dominant-baseline="middle" font-size="12" text-anchor="end" x="-15" y="-226.66666666666666">
21000
</text>
<text dominant-baseline="middle" font-size="12" text-anchor="end" x="-15" y="-340">
22000
</text>
</g>
<text font-size="12" text-anchor="middle" transform="rotate(-90 -30 -170)" x="-30" y="-170">
Score
</text>
</g>
</g>
</svg>