<svg viewBox="0 0 600 400" xmlns="http://www.w3.org/2000/svg">
<g transform="translate(50, 360)">
<g>
<circle cx="0" cy="-0.0017140184615384616" fill="#000000" r="2"/>
<circle cx="2.5" cy="-1.7174464984615385" fill="#000000" r="2"/>
<circle cx="5" cy="-3.4331789784615383" fill="#000000" r="2"/>
<circle cx="7.5" cy="-5.148911458461538" fill="#000000" r="2"/>
<circle cx="10" cy="-6.864643938461539" fill="#000000" r="2"/>
<circle cx="12.5" cy="-8.580376418461539" fill="#000000" r="2"/>
<circle cx="15" cy="-10.296108898461538" fill="#000000" r="2"/>
<circle cx="17.5" cy="-12.011841378461538" fill="#000000" r="2"/>
<circle cx="20" cy="-13.727573858461538" fill="#000000" r="2"/>
<circle cx="22.5" cy="-15.443306338461538" fill="#000000" r="2"/>
<circle cx="25" cy="-17.15903881846154" fill="#000000" r="2"/>
<circle cx="27.5" cy="-18.87477129846154" fill="#000000" r="2"/>
<circle cx="30" cy="-20.59050377846154" fill="#000000" r="2"/>
<circle cx="32.5" cy="-22.30623625846154" fill="#000000" r="2"/>
<circle cx="35" cy="-24.02196873846154" fill="#000000" r="2"/>
<circle cx="37.5" cy="-25.737701218461538" fill="#000000" r="2"/>
<circle cx="40" cy="-27.453433698461538" fill="#000000" r="2"/>
<circle cx="42.5" cy="-29.169166178461538" fill="#000000" r="2"/>
<circle cx="45" cy="-30.884898658461537" fill="#000000" r="2"/>
<circle cx="47.5" cy="-32.60063113846154" fill="#000000" r="2"/>
<circle cx="50" cy="-34.31636361846154" fill="#000000" r="2"/>
<circle cx="52.5" cy="-36.03209609846154" fill="#000000" r="2"/>
<circle cx="55" cy="-37.74782857846154" fill="#000000" r="2"/>
<circle cx="57.5" cy="-39.463561058461536" fill="#000000" r="2"/>
<circle cx="60" cy="-41.179293538461536" fill="#000000" r="2"/>
<circle cx="62.5" cy="-42.895026018461536" fill="#000000" r="2"/>
<circle cx="65" cy="-44.610758498461536" fill="#000000" r="2"/>
<circle cx="67.5" cy="-46.326490978461536" fill="#000000" r="2"/>
<circle cx="70" cy="-48.042223458461535" fill="#000000" r="2"/>
<circle cx="72.5" cy="-49.757955938461535" fill="#000000" r="2"/>
<circle cx="75" cy="-51.47368841846154" fill="#000000" r="2"/>
<circle cx="77.5" cy="-53.18942089846154" fill="#000000" r="2"/>
<circle cx="80" cy="-54.90515337846154" fill="#000000" r="2"/>
<circle cx="82.5" cy="-56.62088585846154" fill="#000000" r="2"/>
<circle cx="85" cy="-58.33661833846154" fill="#000000" r="2"/>
<circle cx="87.5" cy="-60.05235081846154" fill="#000000" r="2"/>
<circle cx="90" cy="-61.76808329846154" fill="#000000" r="2"/>
<circle cx="92.5" cy="-63.48381577846154" fill="#000000" r="2"/>
<circle cx="95" cy="-65.19954825846153" fill="#000000" r="2"/>
<circle cx="97.5" cy="-66.91528073846153" fill="#000000" r="2"/>
<circle cx="100" cy="-68.63101321846153" fill="#000000" r="2"/>
<circle cx="102.5" cy="-70.34674569846153" fill="#000000" r="2"/>
<circle cx="105" cy="-72.06247817846153" fill="#000000" r="2"/>
<circle cx="107.5" cy="-73.77821065846153" fill="#000000" r="2"/>
<circle cx="110" cy="-75.49394313846153" fill="#000000" r="2"/>
<circle cx="112.5" cy="-77.20967561846153" fill="#000000" r="2"/>
<circle cx="115" cy="-78.92540809846153" fill="#000000" r="2"/>
<circle cx="117.5" cy="-80.64114057846155" fill="#000000" r="2"/>
<circle cx="120" cy="-82.35687305846155" fill="#000000" r="2"/>
<circle cx="122.5" cy="-84.07260553846154" fill="#000000" r="2"/>
<circle cx="125" cy="-85.78833801846154" fill="#000000" r="2"/>
<circle cx="127.5" cy="-87.50407049846154" fill="#000000" r="2"/>
<circle cx="130" cy="-89.21980297846154" fill="#000000" r="2"/>
<circle cx="132.5" cy="-90.93553545846154" fill="#000000" r="2"/>
<circle cx="135" cy="-92.65126793846154" fill="#000000" r="2"/>
<circle cx="137.5" cy="-94.36700041846154" fill="#000000" r="2"/>
<circle cx="140" cy="-96.08273289846154" fill="#000000" r="2"/>
<circle cx="142.5" cy="-97.79846537846154" fill="#000000" r="2"/>
<circle cx="145" cy="-99.51419785846154" fill="#000000" r="2"/>
<circle cx="147.5" cy="-101.22993033846154" fill="#000000" r="2"/>
<circle cx="150" cy="-102.94566281846154" fill="#000000" r="2"/>
<circle cx="152.5" cy="-104.66139529846154" fill="#000000" r="2"/>
<circle cx="155" cy="-106.37712777846154" fill="#000000" r="2"/>
<circle cx="157.5" cy="-108.09286025846154" fill="#000000" r="2"/>
<circle cx="160" cy="-109.80859273846154" fill="#000000" r="2"/>
<circle cx="162.5" cy="-111.52432521846154" fill="#000000" r="2"/>
<circle cx="165" cy="-113.24005769846154" fill="#000000" r="2"/>
<circle cx="167.5" cy="-114.95579017846154" fill="#000000" r="2"/>
<circle cx="170" cy="-116.67152265846154" fill="#000000" r="2"/>
<circle cx="172.5" cy="-118.38725513846154" fill="#000000" r="2"/>
<circle cx="175" cy="-120.10298761846154" fill="#000000" r="2"/>
<circle cx="177.5" cy="-121.81872009846154" fill="#000000" r="2"/>
<circle cx="180" cy="-123.53445257846154" fill="#000000" r="2"/>
<circle cx="182.5" cy="-125.25018505846154" fill="#000000" r="2"/>
<circle cx="185" cy="-126.96591753846154" fill="#000000" r="2"/>
<circle cx="187.5" cy="-128.68165001846154" fill="#000000" r="2"/>
<circle cx="190" cy="-130.39738249846152" fill="#000000" r="2"/>
<circle cx="192.5" cy="-132.11311497846154" fill="#000000" r="2"/>
<circle cx="195" cy="-133.82884745846152" fill="#000000" r="2"/>
<circle cx="197.5" cy="-135.54457993846154" fill="#000000" r="2"/>
<circle cx="200" cy="-137.26031241846155" fill="#000000" r="2"/>
<circle cx="202.5" cy="-138.97604489846154" fill="#000000" r="2"/>
<circle cx="205" cy="-140.69177737846155" fill="#000000" r="2"/>
<circle cx="207.5" cy="-142.40750985846154" fill="#000000" r="2"/>
<circle cx="210" cy="-144.12324233846155" fill="#000000" r="2"/>
<circle cx="212.5" cy="-145.83897481846154" fill="#000000" r="2"/>
<circle cx="215" cy="-147.55470729846155" fill="#000000" r="2"/>
<circle cx="217.5" cy="-149.27043977846154" fill="#000000" r="2"/>
<circle cx="220" cy="-150.98617225846155" fill="#000000" r="2"/>
<circle cx="222.5" cy="-152.70190473846154" fill="#000000" r="2"/>
<circle cx="225" cy="-154.41763721846155" fill="#000000" r="2"/>
<circle cx="227.5" cy="-156.13336969846154" fill="#000000" r="2"/>
<circle cx="230" cy="-157.84910217846155" fill="#000000" r="2"/>
<circle cx="232.5" cy="-159.56483465846154" fill="#000000" r="2"/>
<circle cx="235" cy="-161.28056713846155" fill="#000000" r="2"/>
<circle cx="237.5" cy="-162.99629961846153" fill="#000000" r="2"/>
<circle cx="240" cy="-164.71203209846155" fill="#000000" r="2"/>
<circle cx="242.5" cy="-166.42776457846153" fill="#000000" r="2"/>
<circle cx="245" cy="-168.14349705846155" fill="#000000" r="2"/>
<circle cx="247.5" cy="-169.85922953846153" fill="#000000" r="2"/>
<circle cx="250" cy="-171.57496201846155" fill="#000000" r="2"/>
<circle cx="252.5" cy="-173.29069449846153" fill="#000000" r="2"/>
<circle cx="255" cy="-175.00642697846155" fill="#000000" r="2"/>
<circle cx="257.5" cy="-176.72215945846153" fill="#000000" r="2"/>
<circle cx="260" cy="-178.43789193846155" fill="#000000" r="2"/>
<circle cx="262.5" cy="-180.15362441846153" fill="#000000" r="2"/>
<circle cx="265" cy="-181.86935689846155" fill="#000000" r="2"/>
<circle cx="267.5" cy="-183.58508937846153" fill="#000000" r="2"/>
<circle cx="270" cy="-185.30082185846155" fill="#000000" r="2"/>
<circle cx="272.5" cy="-187.01655433846153" fill="#000000" r="2"/>
<circle cx="275" cy="-188.73228681846155" fill="#000000" r="2"/>
<circle cx="277.5" cy="-190.44801929846153" fill="#000000" r="2"/>
<circle cx="280" cy="-192.16375177846155" fill="#000000" r="2"/>
<circle cx="282.5" cy="-193.87948425846153" fill="#000000" r="2"/>
<circle cx="285" cy="-195.59521673846154" fill="#000000" r="2"/>
<circle cx="287.5" cy="-197.31094921846153" fill="#000000" r="2"/>
<circle cx="290" cy="-199.02668169846154" fill="#000000" r="2"/>
<circle cx="292.5" cy="-200.74241417846153" fill="#000000" r="2"/>
<circle cx="295" cy="-202.45814665846154" fill="#000000" r="2"/>
<circle cx="297.5" cy="-204.17387913846153" fill="#000000" r="2"/>
<circle cx="300" cy="-205.88961161846154" fill="#000000" r="2"/>
<circle cx="302.5" cy="-207.60534409846153" fill="#000000" r="2"/>
<circle cx="305" cy="-209.32107657846154" fill="#000000" r="2"/>
<circle cx="307.5" cy="-211.03680905846153" fill="#000000" r="2"/>
<circle cx="310" cy="-212.75254153846154" fill="#000000" r="2"/>
<circle cx="312.5" cy="-214.46827401846153" fill="#000000" r="2"/>
<circle cx="315" cy="-216.18400649846154" fill="#000000" r="2"/>
<circle cx="317.5" cy="-217.89973897846153" fill="#000000" r="2"/>
<circle cx="320" cy="-219.61547145846154" fill="#000000" r="2"/>
<circle cx="322.5" cy="-221.33120393846153" fill="#000000" r="2"/>
<circle cx="325" cy="-223.04693641846154" fill="#000000" r="2"/>
<circle cx="327.5" cy="-224.76266889846153" fill="#000000" r="2"/>
<circle cx="330" cy="-226.47840137846154" fill="#000000" r="2"/>
<circle cx="332.5" cy="-228.19413385846153" fill="#000000" r="2"/>
<circle cx="335" cy="-229.90986633846154" fill="#000000" r="2"/>
<circle cx="337.5" cy="-231.62559881846153" fill="#000000" r="2"/>
<circle cx="340" cy="-233.34133129846154" fill="#000000" r="2"/>
<circle cx="342.5" cy="-235.05706377846153" fill="#000000" r="2"/>
<circle cx="345" cy="-236.77279625846154" fill="#000000" r="2"/>
<circle cx="347.5" cy="-238.48852873846153" fill="#000000" r="2"/>
<circle cx="350" cy="-240.20426121846154" fill="#000000" r="2"/>
<circle cx="352.5" cy="-241.91999369846152" fill="#000000" r="2"/>
<circle cx="355" cy="-243.63572617846154" fill="#000000" r="2"/>
<circle cx="357.5" cy="-245.35145865846152" fill="#000000" r="2"/>
<circle cx="360" cy="-247.06719113846154" fill="#000000" r="2"/>
<circle cx="362.5" cy="-248.78292361846155" fill="#000000" r="2"/>
<circle cx="365" cy="-250.49865609846154" fill="#000000" r="2"/>
<circle cx="367.5" cy="-252.21438857846155" fill="#000000" r="2"/>
<circle cx="370" cy="-253.93012105846154" fill="#000000" r="2"/>
<circle cx="372.5" cy="-255.64585353846155" fill="#000000" r="2"/>
<circle cx="375" cy="-257.36158601846154" fill="#000000" r="2"/>
<circle cx="377.5" cy="-259.0773184984615" fill="#000000" r="2"/>
<circle cx="380" cy="-260.79305097846157" fill="#000000" r="2"/>
<circle cx="382.5" cy="-262.50878345846155" fill="#000000" r="2"/>
<circle cx="385" cy="-264.22451593846154" fill="#000000" r="2"/>
<circle cx="387.5" cy="-265.9402484184615" fill="#000000" r="2"/>
<circle cx="390" cy="-267.65598089846156" fill="#000000" r="2"/>
<circle cx="392.5" cy="-269.37171337846155" fill="#000000" r="2"/>
<circle cx="395" cy="-271.08744585846154" fill="#000000" r="2"/>
<circle cx="397.5" cy="-272.8031783384615" fill="#000000" r="2"/>
<circle cx="400" cy="-274.51891081846156" fill="#000000" r="2"/>
<circle cx="402.5" cy="-276.23464329846155" fill="#000000" r="2"/>
<circle cx="405" cy="-277.95037577846153" fill="#000000" r="2"/>
<circle cx="407.5" cy="-279.6661082584615" fill="#000000" r="2"/>
<circle cx="410" cy="-281.38184073846156" fill="#000000" r="2"/>
<circle cx="412.5" cy="-283.09757321846155" fill="#000000" r="2"/>
<circle cx="415" cy="-284.81330569846153" fill="#000000" r="2"/>
<circle cx="417.5" cy="-286.5290381784615" fill="#000000" r="2"/>
<circle cx="420" cy="-288.24477065846156" fill="#000000" r="2"/>
<circle cx="422.5" cy="-289.96050313846155" fill="#000000" r="2"/>
<circle cx="425" cy="-291.67623561846153" fill="#000000" r="2"/>
<circle cx="427.5" cy="-293.3919680984615" fill="#000000" r="2"/>
<circle cx="430" cy="-295.10770057846156" fill="#000000" r="2"/>
<circle cx="432.5" cy="-296.82343305846155" fill="#000000" r="2"/>
<circle cx="435" cy="-298.53916553846153" fill="#000000" r="2"/>
<circle cx="437.5" cy="-300.2548980184615" fill="#000000" r="2"/>
<circle cx="440" cy="-301.97063049846156" fill="#000000" r="2"/>
<circle cx="442.5" cy="-303.68636297846155" fill="#000000" r="2"/>
<circle cx="445" cy="-305.40209545846153" fill="#000000" r="2"/>
<circle cx="447.5" cy="-307.1178279384615" fill="#000000" r="2"/>
<circle cx="450" cy="-308.83356041846156" fill="#000000" r="2"/>
<circle cx="452.5" cy="-310.54929289846154" fill="#000000" r="2"/>
<circle cx="455" cy="-312.26502537846153" fill="#000000" r="2"/>
<circle cx="457.5" cy="-313.9807578584615" fill="#000000" r="2"/>
<circle cx="460" cy="-315.69649033846156" fill="#000000" r="2"/>
<circle cx="462.5" cy="-317.41222281846154" fill="#000000" r="2"/>
<circle cx="465" cy="-319.12795529846153" fill="#000000" r="2"/>
<circle cx="467.5" cy="-320.8436877784615" fill="#000000" r="2"/>
<circle cx="470" cy="-322.55942025846156" fill="#000000" r="2"/>
<circle cx="472.5" cy="-324.27515273846154" fill="#000000" r="2"/>
<circle cx="475" cy="-325.99088521846153" fill="#000000" r="2"/>
<circle cx="477.5" cy="-327.7066176984615" fill="#000000" r="2"/>
<circle cx="480" cy="-329.42235017846156" fill="#000000" r="2"/>
<circle cx="482.5" cy="-331.13808265846154" fill="#000000" r="2"/>
<circle cx="485" cy="-332.8538151384615" fill="#000000" r="2"/>
<circle cx="487.5" cy="-334.5695476184615" fill="#000000" r="2"/>
<circle cx="490" cy="-336.28528009846156" fill="#000000" r="2"/>
<circle cx="492.5" cy="-338.00101257846154" fill="#000000" r="2"/>
<circle cx="495" cy="-339.7167450584615" fill="#000000" r="2"/>
<circle cx="497.5" cy="-341.08967384615386" fill="#000000" r="2"/>
</g>
<g>
<g>
<line stroke="black" stroke-width="1" x1="0" x2="0" y1="0" y2="10"/>
<line stroke="black" stroke-width="1" x1="100" x2="100" y1="0" y2="10"/>
<line stroke="black" stroke-width="1" x1="200" x2="200" y1="0" y2="10"/>
<line stroke="black" stroke-width="1" x1="300" x2="300" y1="0" y2="10"/>
<line stroke="black" stroke-width="1" x1="400" x2="400" y1="0" y2="10"/>
<line stroke="black" stroke-width="1" x1="500" x2="500" y1="0" y2="10"/>
</g>
<line stroke="black" stroke-width="1" x1="0" x2="500" y1="0" y2="0"/>
<g>
<text font-size="12" text-anchor="middle" x="0" y="20">
0
</text>
<text font-size="12" text-anchor="middle" x="100" y="20">
40000
</text>
<text font-size="12" text-anchor="middle" x="200" y="20">
80000
</text>
<text font-size="12" text-anchor="middle" x="300" y="20">
120000
</text>
<text font-size="12" text-anchor="middle" x="400" y="20">
160000
</text>
<text font-size="12" text-anchor="middle" x="500" y="20">
200000
</text>
</g>
<text font-size="12" text-anchor="middle" x="250" y="30">
Gas Price
</text>
</g>
<g>
<g>
<line stroke="black" stroke-width="1" x1="0" x2="-10" y1="0" y2="0"/>
<line stroke="black" stroke-width="1" x1="0" x2="-10" y1="-104.61538461538461" y2="-104.61538461538461"/>
<line stroke="black" stroke-width="1" x1="0" x2="-10" y1="-209.23076923076923" y2="-209.23076923076923"/>
<line stroke="black" stroke-width="1" x1="0" x2="-10" y1="-313.84615384615387" y2="-313.84615384615387"/>
</g>
<line stroke="black" stroke-0="1" x1="0" x2="0" y1="0" y2="-340"/>
<g>
<text dominant-baseline="middle" font-size="12" text-anchor="end" x="-15" y="0">
0
</text>
<text dominant-baseline="middle" font-size="12" text-anchor="end" x="-15" y="-104.61538461538461">
2000000000
</text>
<text dominant-baseline="middle" font-size="12" text-anchor="end" x="-15" y="-209.23076923076923">
4000000000
</text>
<text dominant-baseline="middle" font-size="12" text-anchor="end" x="-15" y="-313.84615384615387">
6000000000
</text>
</g>
<text font-size="12" text-anchor="middle" transform="rotate(-90 -30 -170)" x="-30" y="-170">
Score
</text>
</g>
</g>
</svg>