<svg viewBox="0 0 600 400" xmlns="http://www.w3.org/2000/svg">
<g transform="translate(50, 360)">
<g>
<circle cx="0" cy="-0.6256167384615384" fill="#000000" r="2"/>
<circle cx="2.5" cy="-2.0653922461538463" fill="#000000" r="2"/>
<circle cx="5" cy="-3.669713526153846" fill="#000000" r="2"/>
<circle cx="7.5" cy="-5.32545536" fill="#000000" r="2"/>
<circle cx="10" cy="-7.003479433846154" fill="#000000" r="2"/>
<circle cx="12.5" cy="-8.693501636923077" fill="#000000" r="2"/>
<circle cx="15" cy="-10.390379913846154" fill="#000000" r="2"/>
<circle cx="17.5" cy="-12.090686227692307" fill="#000000" r="2"/>
<circle cx="20" cy="-13.794420578461539" fill="#000000" r="2"/>
<circle cx="22.5" cy="-15.499868947692308" fill="#000000" r="2"/>
<circle cx="25" cy="-17.207031335384617" fill="#000000" r="2"/>
<circle cx="27.5" cy="-18.91590774153846" fill="#000000" r="2"/>
<circle cx="30" cy="-20.624784147692306" fill="#000000" r="2"/>
<circle cx="32.5" cy="-22.335374572307693" fill="#000000" r="2"/>
<circle cx="35" cy="-24.045964996923075" fill="#000000" r="2"/>
<circle cx="37.5" cy="-25.75655542153846" fill="#000000" r="2"/>
<circle cx="40" cy="-27.467145846153848" fill="#000000" r="2"/>
<circle cx="42.5" cy="-29.17945028923077" fill="#000000" r="2"/>
<circle cx="45" cy="-30.891754732307692" fill="#000000" r="2"/>
<circle cx="47.5" cy="-32.60405917538461" fill="#000000" r="2"/>
<circle cx="50" cy="-34.3146496" fill="#000000" r="2"/>
<circle cx="52.5" cy="-36.02866806153846" fill="#000000" r="2"/>
<circle cx="55" cy="-37.740972504615385" fill="#000000" r="2"/>
<circle cx="57.5" cy="-39.45327694769231" fill="#000000" r="2"/>
<circle cx="60" cy="-41.16558139076923" fill="#000000" r="2"/>
<circle cx="62.5" cy="-42.87788583384615" fill="#000000" r="2"/>
<circle cx="65" cy="-44.591904295384616" fill="#000000" r="2"/>
<circle cx="67.5" cy="-46.30420873846154" fill="#000000" r="2"/>
<circle cx="70" cy="-48.0182272" fill="#000000" r="2"/>
<circle cx="72.5" cy="-49.73053164307692" fill="#000000" r="2"/>
<circle cx="75" cy="-51.44455010461539" fill="#000000" r="2"/>
<circle cx="77.5" cy="-53.156854547692305" fill="#000000" r="2"/>
<circle cx="80" cy="-54.87087300923077" fill="#000000" r="2"/>
<circle cx="82.5" cy="-56.583177452307694" fill="#000000" r="2"/>
<circle cx="85" cy="-58.29719591384615" fill="#000000" r="2"/>
<circle cx="87.5" cy="-60.01121437538462" fill="#000000" r="2"/>
<circle cx="90" cy="-61.723518818461535" fill="#000000" r="2"/>
<circle cx="92.5" cy="-63.43753728" fill="#000000" r="2"/>
<circle cx="95" cy="-65.15155574153846" fill="#000000" r="2"/>
<circle cx="97.5" cy="-66.86557420307692" fill="#000000" r="2"/>
<circle cx="100" cy="-68.57787864615385" fill="#000000" r="2"/>
<circle cx="102.5" cy="-70.29189710769231" fill="#000000" r="2"/>
<circle cx="105" cy="-72.00591556923077" fill="#000000" r="2"/>
<circle cx="107.5" cy="-73.71993403076922" fill="#000000" r="2"/>
<circle cx="110" cy="-75.43223847384616" fill="#000000" r="2"/>
<circle cx="112.5" cy="-77.14625693538461" fill="#000000" r="2"/>
<circle cx="115" cy="-78.86027539692307" fill="#000000" r="2"/>
<circle cx="117.5" cy="-80.57429385846154" fill="#000000" r="2"/>
<circle cx="120" cy="-82.28659830153846" fill="#000000" r="2"/>
<circle cx="122.5" cy="-84.00061676307692" fill="#000000" r="2"/>
<circle cx="125" cy="-85.71463522461538" fill="#000000" r="2"/>
<circle cx="127.5" cy="-87.42865368615385" fill="#000000" r="2"/>
<circle cx="130" cy="-89.14267214769231" fill="#000000" r="2"/>
<circle cx="132.5" cy="-90.85669060923077" fill="#000000" r="2"/>
<circle cx="135" cy="-92.57070907076923" fill="#000000" r="2"/>
<circle cx="137.5" cy="-94.28301351384616" fill="#000000" r="2"/>
<circle cx="140" cy="-95.99703197538462" fill="#000000" r="2"/>
<circle cx="142.5" cy="-97.71105043692307" fill="#000000" r="2"/>
<circle cx="145" cy="-99.42506889846153" fill="#000000" r="2"/>
<circle cx="147.5" cy="-101.13908736" fill="#000000" r="2"/>
<circle cx="150" cy="-102.85310582153846" fill="#000000" r="2"/>
<circle cx="152.5" cy="-104.56712428307692" fill="#000000" r="2"/>
<circle cx="155" cy="-106.27942872615385" fill="#000000" r="2"/>
<circle cx="157.5" cy="-107.99344718769231" fill="#000000" r="2"/>
<circle cx="160" cy="-109.70746564923077" fill="#000000" r="2"/>
<circle cx="162.5" cy="-111.42148411076923" fill="#000000" r="2"/>
<circle cx="165" cy="-113.13550257230769" fill="#000000" r="2"/>
<circle cx="167.5" cy="-114.84952103384616" fill="#000000" r="2"/>
<circle cx="170" cy="-116.56353949538462" fill="#000000" r="2"/>
<circle cx="172.5" cy="-118.27755795692308" fill="#000000" r="2"/>
<circle cx="175" cy="-119.99157641846153" fill="#000000" r="2"/>
<circle cx="177.5" cy="-121.70559488" fill="#000000" r="2"/>
<circle cx="180" cy="-123.41961334153847" fill="#000000" r="2"/>
<circle cx="182.5" cy="-125.13191778461538" fill="#000000" r="2"/>
<circle cx="185" cy="-126.84593624615384" fill="#000000" r="2"/>
<circle cx="187.5" cy="-128.5599547076923" fill="#000000" r="2"/>
<circle cx="190" cy="-130.27397316923077" fill="#000000" r="2"/>
<circle cx="192.5" cy="-131.98799163076924" fill="#000000" r="2"/>
<circle cx="195" cy="-133.7020100923077" fill="#000000" r="2"/>
<circle cx="197.5" cy="-135.41602855384616" fill="#000000" r="2"/>
<circle cx="200" cy="-137.1300470153846" fill="#000000" r="2"/>
<circle cx="202.5" cy="-138.84406547692308" fill="#000000" r="2"/>
<circle cx="205" cy="-140.55808393846155" fill="#000000" r="2"/>
<circle cx="207.5" cy="-142.2721024" fill="#000000" r="2"/>
<circle cx="210" cy="-143.98612086153847" fill="#000000" r="2"/>
<circle cx="212.5" cy="-145.7001393230769" fill="#000000" r="2"/>
<circle cx="215" cy="-147.41415778461538" fill="#000000" r="2"/>
<circle cx="217.5" cy="-149.12817624615386" fill="#000000" r="2"/>
<circle cx="220" cy="-150.84048068923076" fill="#000000" r="2"/>
<circle cx="222.5" cy="-152.55449915076923" fill="#000000" r="2"/>
<circle cx="225" cy="-154.2685176123077" fill="#000000" r="2"/>
<circle cx="227.5" cy="-155.98253607384615" fill="#000000" r="2"/>
<circle cx="230" cy="-157.69655453538462" fill="#000000" r="2"/>
<circle cx="232.5" cy="-159.41057299692307" fill="#000000" r="2"/>
<circle cx="235" cy="-161.12459145846154" fill="#000000" r="2"/>
<circle cx="237.5" cy="-162.83860992" fill="#000000" r="2"/>
<circle cx="240" cy="-164.55262838153845" fill="#000000" r="2"/>
<circle cx="242.5" cy="-166.26664684307693" fill="#000000" r="2"/>
<circle cx="245" cy="-167.98066530461537" fill="#000000" r="2"/>
<circle cx="247.5" cy="-169.69468376615384" fill="#000000" r="2"/>
<circle cx="250" cy="-171.40870222769232" fill="#000000" r="2"/>
<circle cx="252.5" cy="-173.12272068923076" fill="#000000" r="2"/>
<circle cx="255" cy="-174.83673915076923" fill="#000000" r="2"/>
<circle cx="257.5" cy="-176.5507576123077" fill="#000000" r="2"/>
<circle cx="260" cy="-178.26477607384615" fill="#000000" r="2"/>
<circle cx="262.5" cy="-179.97879453538462" fill="#000000" r="2"/>
<circle cx="265" cy="-181.69281299692307" fill="#000000" r="2"/>
<circle cx="267.5" cy="-183.40683145846154" fill="#000000" r="2"/>
<circle cx="270" cy="-185.12084992" fill="#000000" r="2"/>
<circle cx="272.5" cy="-186.83486838153846" fill="#000000" r="2"/>
<circle cx="275" cy="-188.5471728246154" fill="#000000" r="2"/>
<circle cx="277.5" cy="-190.26119128615386" fill="#000000" r="2"/>
<circle cx="280" cy="-191.9752097476923" fill="#000000" r="2"/>
<circle cx="282.5" cy="-193.68922820923078" fill="#000000" r="2"/>
<circle cx="285" cy="-195.40324667076922" fill="#000000" r="2"/>
<circle cx="287.5" cy="-197.1172651323077" fill="#000000" r="2"/>
<circle cx="290" cy="-198.83128359384617" fill="#000000" r="2"/>
<circle cx="292.5" cy="-200.5453020553846" fill="#000000" r="2"/>
<circle cx="295" cy="-202.25932051692308" fill="#000000" r="2"/>
<circle cx="297.5" cy="-203.97333897846153" fill="#000000" r="2"/>
<circle cx="300" cy="-205.68735744" fill="#000000" r="2"/>
<circle cx="302.5" cy="-207.40137590153847" fill="#000000" r="2"/>
<circle cx="305" cy="-209.11539436307692" fill="#000000" r="2"/>
<circle cx="307.5" cy="-210.8294128246154" fill="#000000" r="2"/>
<circle cx="310" cy="-212.54343128615383" fill="#000000" r="2"/>
<circle cx="312.5" cy="-214.2574497476923" fill="#000000" r="2"/>
<circle cx="315" cy="-215.97146820923078" fill="#000000" r="2"/>
<circle cx="317.5" cy="-217.68548667076922" fill="#000000" r="2"/>
<circle cx="320" cy="-219.3995051323077" fill="#000000" r="2"/>
<circle cx="322.5" cy="-221.11352359384617" fill="#000000" r="2"/>
<circle cx="325" cy="-222.8275420553846" fill="#000000" r="2"/>
<circle cx="327.5" cy="-224.54156051692308" fill="#000000" r="2"/>
<circle cx="330" cy="-226.25557897846153" fill="#000000" r="2"/>
<circle cx="332.5" cy="-227.96959744" fill="#000000" r="2"/>
<circle cx="335" cy="-229.68361590153847" fill="#000000" r="2"/>
<circle cx="337.5" cy="-231.39763436307692" fill="#000000" r="2"/>
<circle cx="340" cy="-233.1116528246154" fill="#000000" r="2"/>
<circle cx="342.5" cy="-234.82567128615383" fill="#000000" r="2"/>
<circle cx="345" cy="-236.5396897476923" fill="#000000" r="2"/>
<circle cx="347.5" cy="-238.25370820923078" fill="#000000" r="2"/>
<circle cx="350" cy="-239.96772667076922" fill="#000000" r="2"/>
<circle cx="352.5" cy="-241.6817451323077" fill="#000000" r="2"/>
<circle cx="355" cy="-243.39576359384614" fill="#000000" r="2"/>
<circle cx="357.5" cy="-245.1097820553846" fill="#000000" r="2"/>
<circle cx="360" cy="-246.8238005169231" fill="#000000" r="2"/>
<circle cx="362.5" cy="-248.53781897846153" fill="#000000" r="2"/>
<circle cx="365" cy="-250.25012342153846" fill="#000000" r="2"/>
<circle cx="367.5" cy="-251.96414188307693" fill="#000000" r="2"/>
<circle cx="370" cy="-253.67816034461538" fill="#000000" r="2"/>
<circle cx="372.5" cy="-255.39217880615385" fill="#000000" r="2"/>
<circle cx="375" cy="-257.1061972676923" fill="#000000" r="2"/>
<circle cx="377.5" cy="-258.82021572923077" fill="#000000" r="2"/>
<circle cx="380" cy="-260.5342341907692" fill="#000000" r="2"/>
<circle cx="382.5" cy="-262.2482526523077" fill="#000000" r="2"/>
<circle cx="385" cy="-263.96227111384616" fill="#000000" r="2"/>
<circle cx="387.5" cy="-265.6762895753846" fill="#000000" r="2"/>
<circle cx="390" cy="-267.3903080369231" fill="#000000" r="2"/>
<circle cx="392.5" cy="-269.10432649846155" fill="#000000" r="2"/>
<circle cx="395" cy="-270.81834496" fill="#000000" r="2"/>
<circle cx="397.5" cy="-272.53236342153843" fill="#000000" r="2"/>
<circle cx="400" cy="-274.24638188307694" fill="#000000" r="2"/>
<circle cx="402.5" cy="-275.9604003446154" fill="#000000" r="2"/>
<circle cx="405" cy="-277.6744188061538" fill="#000000" r="2"/>
<circle cx="407.5" cy="-279.3884372676923" fill="#000000" r="2"/>
<circle cx="410" cy="-281.10245572923077" fill="#000000" r="2"/>
<circle cx="412.5" cy="-282.8164741907692" fill="#000000" r="2"/>
<circle cx="415" cy="-284.5304926523077" fill="#000000" r="2"/>
<circle cx="417.5" cy="-286.24451111384616" fill="#000000" r="2"/>
<circle cx="420" cy="-287.9585295753846" fill="#000000" r="2"/>
<circle cx="422.5" cy="-289.6725480369231" fill="#000000" r="2"/>
<circle cx="425" cy="-291.38656649846155" fill="#000000" r="2"/>
<circle cx="427.5" cy="-293.10058496" fill="#000000" r="2"/>
<circle cx="430" cy="-294.81460342153844" fill="#000000" r="2"/>
<circle cx="432.5" cy="-296.52862188307694" fill="#000000" r="2"/>
<circle cx="435" cy="-298.2426403446154" fill="#000000" r="2"/>
<circle cx="437.5" cy="-299.9566588061538" fill="#000000" r="2"/>
<circle cx="440" cy="-301.6706772676923" fill="#000000" r="2"/>
<circle cx="442.5" cy="-303.38469572923077" fill="#000000" r="2"/>
<circle cx="445" cy="-305.0987141907692" fill="#000000" r="2"/>
<circle cx="447.5" cy="-306.8127326523077" fill="#000000" r="2"/>
<circle cx="450" cy="-308.52675111384616" fill="#000000" r="2"/>
<circle cx="452.5" cy="-310.2407695753846" fill="#000000" r="2"/>
<circle cx="455" cy="-311.9547880369231" fill="#000000" r="2"/>
<circle cx="457.5" cy="-313.66880649846155" fill="#000000" r="2"/>
<circle cx="460" cy="-315.38282496" fill="#000000" r="2"/>
<circle cx="462.5" cy="-317.09684342153844" fill="#000000" r="2"/>
<circle cx="465" cy="-318.81086188307694" fill="#000000" r="2"/>
<circle cx="467.5" cy="-320.5248803446154" fill="#000000" r="2"/>
<circle cx="470" cy="-322.2388988061538" fill="#000000" r="2"/>
<circle cx="472.5" cy="-323.9529172676923" fill="#000000" r="2"/>
<circle cx="475" cy="-325.6669357292308" fill="#000000" r="2"/>
<circle cx="477.5" cy="-327.3809541907692" fill="#000000" r="2"/>
<circle cx="480" cy="-329.0949726523077" fill="#000000" r="2"/>
<circle cx="482.5" cy="-330.80899111384616" fill="#000000" r="2"/>
<circle cx="485" cy="-332.5230095753846" fill="#000000" r="2"/>
<circle cx="487.5" cy="-334.23702803692305" fill="#000000" r="2"/>
<circle cx="490" cy="-335.95104649846155" fill="#000000" r="2"/>
<circle cx="492.5" cy="-337.66506496" fill="#000000" r="2"/>
<circle cx="495" cy="-339.37908342153844" fill="#000000" r="2"/>
<circle cx="497.5" cy="-341.08967384615386" fill="#000000" r="2"/>
</g>
<g>
<g>
<line stroke="black" stroke-width="1" x1="0" x2="0" y1="0" y2="10"/>
<line stroke="black" stroke-width="1" x1="100" x2="100" y1="0" y2="10"/>
<line stroke="black" stroke-width="1" x1="200" x2="200" y1="0" y2="10"/>
<line stroke="black" stroke-width="1" x1="300" x2="300" y1="0" y2="10"/>
<line stroke="black" stroke-width="1" x1="400" x2="400" y1="0" y2="10"/>
<line stroke="black" stroke-width="1" x1="500" x2="500" y1="0" y2="10"/>
</g>
<line stroke="black" stroke-width="1" x1="0" x2="500" y1="0" y2="0"/>
<g>
<text font-size="12" text-anchor="middle" x="0" y="20">
0
</text>
<text font-size="12" text-anchor="middle" x="100" y="20">
40000
</text>
<text font-size="12" text-anchor="middle" x="200" y="20">
80000
</text>
<text font-size="12" text-anchor="middle" x="300" y="20">
120000
</text>
<text font-size="12" text-anchor="middle" x="400" y="20">
160000
</text>
<text font-size="12" text-anchor="middle" x="500" y="20">
200000
</text>
</g>
<text font-size="12" text-anchor="middle" x="250" y="30">
Gas Price
</text>
</g>
<g>
<g>
<line stroke="black" stroke-width="1" x1="0" x2="-10" y1="0" y2="0"/>
<line stroke="black" stroke-width="1" x1="0" x2="-10" y1="-104.61538461538461" y2="-104.61538461538461"/>
<line stroke="black" stroke-width="1" x1="0" x2="-10" y1="-209.23076923076923" y2="-209.23076923076923"/>
<line stroke="black" stroke-width="1" x1="0" x2="-10" y1="-313.84615384615387" y2="-313.84615384615387"/>
</g>
<line stroke="black" stroke-0="1" x1="0" x2="0" y1="0" y2="-340"/>
<g>
<text dominant-baseline="middle" font-size="12" text-anchor="end" x="-15" y="0">
0
</text>
<text dominant-baseline="middle" font-size="12" text-anchor="end" x="-15" y="-104.61538461538461">
2000000000
</text>
<text dominant-baseline="middle" font-size="12" text-anchor="end" x="-15" y="-209.23076923076923">
4000000000
</text>
<text dominant-baseline="middle" font-size="12" text-anchor="end" x="-15" y="-313.84615384615387">
6000000000
</text>
</g>
<text font-size="12" text-anchor="middle" transform="rotate(-90 -30 -170)" x="-30" y="-170">
Score
</text>
</g>
</g>
</svg>