<svg viewBox="0 0 600 400" xmlns="http://www.w3.org/2000/svg">
<g transform="translate(50, 360)">
<g>
<circle cx="0.0003333333333333333" cy="-0.4774765714285714" fill="#000000" r="2"/>
<circle cx="0.3333333333333333" cy="-0.4774765714285714" fill="#000000" r="2"/>
<circle cx="333.3333333333333" cy="-318.31771428571426" fill="#000000" r="2"/>
</g>
<g>
<g>
<line stroke="black" stroke-width="1" x1="0" x2="0" y1="0" y2="10"/>
<line stroke="black" stroke-width="1" x1="166.66666666666666" x2="166.66666666666666" y1="0" y2="10"/>
<line stroke="black" stroke-width="1" x1="333.3333333333333" x2="333.3333333333333" y1="0" y2="10"/>
<line stroke="black" stroke-width="1" x1="500" x2="500" y1="0" y2="10"/>
</g>
<line stroke="black" stroke-width="1" x1="0" x2="500" y1="0" y2="0"/>
<g>
<text font-size="12" text-anchor="middle" x="0" y="20">
0
</text>
<text font-size="12" text-anchor="middle" x="166.66666666666666" y="20">
500000
</text>
<text font-size="12" text-anchor="middle" x="333.3333333333333" y="20">
1000000
</text>
<text font-size="12" text-anchor="middle" x="500" y="20">
1500000
</text>
</g>
<text font-size="12" text-anchor="middle" x="250" y="30">
Gas Price
</text>
</g>
<g>
<g>
<line stroke="black" stroke-width="1" x1="0" x2="-10" y1="0" y2="0"/>
<line stroke="black" stroke-width="1" x1="0" x2="-10" y1="-97.14285714285714" y2="-97.14285714285714"/>
<line stroke="black" stroke-width="1" x1="0" x2="-10" y1="-194.28571428571428" y2="-194.28571428571428"/>
<line stroke="black" stroke-width="1" x1="0" x2="-10" y1="-291.42857142857144" y2="-291.42857142857144"/>
</g>
<line stroke="black" stroke-0="1" x1="0" x2="0" y1="0" y2="-340"/>
<g>
<text dominant-baseline="middle" font-size="12" text-anchor="end" x="-15" y="0">
0
</text>
<text dominant-baseline="middle" font-size="12" text-anchor="end" x="-15" y="-97.14285714285714">
20000000
</text>
<text dominant-baseline="middle" font-size="12" text-anchor="end" x="-15" y="-194.28571428571428">
40000000
</text>
<text dominant-baseline="middle" font-size="12" text-anchor="end" x="-15" y="-291.42857142857144">
60000000
</text>
</g>
<text font-size="12" text-anchor="middle" transform="rotate(-90 -30 -170)" x="-30" y="-170">
Score
</text>
</g>
</g>
</svg>