<svg viewBox="0 0 600 400" xmlns="http://www.w3.org/2000/svg">
<g transform="translate(50, 360)">
<g>
<circle cx="0" cy="0" fill="#000000" r="2"/>
<circle cx="2.380952380952381" cy="-1.772823171249103" fill="#000000" r="2"/>
<circle cx="4.761904761904762" cy="-3.529448172740656" fill="#000000" r="2"/>
<circle cx="7.142857142857143" cy="-5.27030736311255" fill="#000000" r="2"/>
<circle cx="9.523809523809524" cy="-6.995814324537817" fill="#000000" r="2"/>
<circle cx="11.904761904761905" cy="-8.706364978943059" fill="#000000" r="2"/>
<circle cx="14.285714285714286" cy="-10.402338620708036" fill="#000000" r="2"/>
<circle cx="16.666666666666668" cy="-12.084098873331797" fill="#000000" r="2"/>
<circle cx="19.047619047619047" cy="-13.75199457677124" fill="#000000" r="2"/>
<circle cx="21.428571428571427" cy="-15.406360611473161" fill="#000000" r="2"/>
<circle cx="23.80952380952381" cy="-17.04751866451358" fill="#000000" r="2"/>
<circle cx="26.19047619047619" cy="-18.675777942722657" fill="#000000" r="2"/>
<circle cx="28.571428571428573" cy="-20.29143583719504" fill="#000000" r="2"/>
<circle cx="30.952380952380953" cy="-21.894778543161944" fill="#000000" r="2"/>
<circle cx="33.333333333333336" cy="-23.486081638824373" fill="#000000" r="2"/>
<circle cx="35.714285714285715" cy="-25.06561062640973" fill="#000000" r="2"/>
<circle cx="38.095238095238095" cy="-26.63362143841114" fill="#000000" r="2"/>
<circle cx="40.476190476190474" cy="-28.190360911702516" fill="#000000" r="2"/>
<circle cx="42.857142857142854" cy="-29.73606723197726" fill="#000000" r="2"/>
<circle cx="45.23809523809524" cy="-31.270970350744037" fill="#000000" r="2"/>
<circle cx="47.61904761904762" cy="-32.79529237691545" fill="#000000" r="2"/>
<circle cx="50" cy="-34.30924794485234" fill="#000000" r="2"/>
<circle cx="52.38095238095238" cy="-35.81304456056475" fill="#000000" r="2"/>
<circle cx="54.76190476190476" cy="-37.306882927630404" fill="#000000" r="2"/>
<circle cx="57.142857142857146" cy="-38.79095725425883" fill="#000000" r="2"/>
<circle cx="59.523809523809526" cy="-40.265455542815545" fill="#000000" r="2"/>
<circle cx="61.904761904761905" cy="-41.730559863010434" fill="#000000" r="2"/>
<circle cx="64.28571428571429" cy="-43.18644660986182" fill="#000000" r="2"/>
<circle cx="66.66666666666667" cy="-44.63328674745605" fill="#000000" r="2"/>
<circle cx="69.04761904761905" cy="-46.071246039445825" fill="#000000" r="2"/>
<circle cx="71.42857142857143" cy="-47.500485267156435" fill="#000000" r="2"/>
<circle cx="73.80952380952381" cy="-48.92116043610157" fill="#000000" r="2"/>
<circle cx="76.19047619047619" cy="-50.333422971651714" fill="#000000" r="2"/>
<circle cx="78.57142857142857" cy="-51.73741990454167" fill="#000000" r="2"/>
<circle cx="80.95238095238095" cy="-53.13329404685316" fill="#000000" r="2"/>
<circle cx="83.33333333333333" cy="-54.521184159062514" fill="#000000" r="2"/>
<circle cx="85.71428571428571" cy="-55.90122510869983" fill="#000000" r="2"/>
<circle cx="88.0952380952381" cy="-57.2735480211279" fill="#000000" r="2"/>
<circle cx="90.47619047619048" cy="-58.63828042291349" fill="#000000" r="2"/>
<circle cx="92.85714285714286" cy="-59.99554637822933" fill="#000000" r="2"/>
<circle cx="95.23809523809524" cy="-61.34546661869602" fill="#000000" r="2"/>
<circle cx="97.61904761904762" cy="-62.6881586670442" fill="#000000" r="2"/>
<circle cx="100" cy="-64.02373695495247" fill="#000000" r="2"/>
<circle cx="102.38095238095238" cy="-65.35231293539184" fill="#000000" r="2"/>
<circle cx="104.76190476190476" cy="-66.67399518978574" fill="#000000" r="2"/>
<circle cx="107.14285714285714" cy="-67.98888953027517" fill="#000000" r="2"/>
<circle cx="109.52380952380952" cy="-69.29709909735789" fill="#000000" r="2"/>
<circle cx="111.9047619047619" cy="-70.59872445315531" fill="#000000" r="2"/>
<circle cx="114.28571428571429" cy="-71.89386367054372" fill="#000000" r="2"/>
<circle cx="116.66666666666667" cy="-73.18261241836969" fill="#000000" r="2"/>
<circle cx="119.04761904761905" cy="-74.4650640429601" fill="#000000" r="2"/>
<circle cx="121.42857142857143" cy="-75.74130964611932" fill="#000000" r="2"/>
<circle cx="123.80952380952381" cy="-77.01143815979727" fill="#000000" r="2"/>
<circle cx="126.19047619047619" cy="-78.27553641760079" fill="#000000" r="2"/>
<circle cx="128.57142857142858" cy="-79.53368922330766" fill="#000000" r="2"/>
<circle cx="130.95238095238096" cy="-80.78597941653804" fill="#000000" r="2"/>
<circle cx="133.33333333333334" cy="-82.03248793572308" fill="#000000" r="2"/>
<circle cx="135.71428571428572" cy="-83.27329387850673" fill="#000000" r="2"/>
<circle cx="138.0952380952381" cy="-84.50847455970742" fill="#000000" r="2"/>
<circle cx="140.47619047619048" cy="-85.73810556695763" fill="#000000" r="2"/>
<circle cx="142.85714285714286" cy="-86.96226081413522" fill="#000000" r="2"/>
<circle cx="145.23809523809524" cy="-88.18101259269174" fill="#000000" r="2"/>
<circle cx="147.61904761904762" cy="-89.39443162097787" fill="#000000" r="2"/>
<circle cx="150" cy="-90.60258709166074" fill="#000000" r="2"/>
<circle cx="152.38095238095238" cy="-91.80554671732276" fill="#000000" r="2"/>
<circle cx="154.76190476190476" cy="-93.00337677432545" fill="#000000" r="2"/>
<circle cx="157.14285714285714" cy="-94.19614214501922" fill="#000000" r="2"/>
<circle cx="159.52380952380952" cy="-95.38390635837374" fill="#000000" r="2"/>
<circle cx="161.9047619047619" cy="-96.5667316291008" fill="#000000" r="2"/>
<circle cx="164.28571428571428" cy="-97.74467889533743" fill="#000000" r="2"/>
<circle cx="166.66666666666666" cy="-98.91780785495325" fill="#000000" r="2"/>
<circle cx="169.04761904761904" cy="-100.08617700054313" fill="#000000" r="2"/>
<circle cx="171.42857142857142" cy="-101.24984365316212" fill="#000000" r="2"/>
<circle cx="173.8095238095238" cy="-102.40886399485848" fill="#000000" r="2"/>
<circle cx="176.1904761904762" cy="-103.5632931000553" fill="#000000" r="2"/>
<circle cx="178.57142857142858" cy="-104.71318496583197" fill="#000000" r="2"/>
<circle cx="180.95238095238096" cy="-105.85859254114946" fill="#000000" r="2"/>
<circle cx="183.33333333333334" cy="-106.99956775506718" fill="#000000" r="2"/>
<circle cx="185.71428571428572" cy="-108.13616154399084" fill="#000000" r="2"/>
<circle cx="188.0952380952381" cy="-109.26842387799363" fill="#000000" r="2"/>
<circle cx="190.47619047619048" cy="-110.3964037862475" fill="#000000" r="2"/>
<circle cx="192.85714285714286" cy="-111.52014938160188" fill="#000000" r="2"/>
<circle cx="195.23809523809524" cy="-112.63970788434385" fill="#000000" r="2"/>
<circle cx="197.61904761904762" cy="-113.7551256451734" fill="#000000" r="2"/>
<circle cx="200" cy="-114.86644816742482" fill="#000000" r="2"/>
<circle cx="202.38095238095238" cy="-115.97372012856417" fill="#000000" r="2"/>
<circle cx="204.76190476190476" cy="-117.07698540099129" fill="#000000" r="2"/>
<circle cx="207.14285714285714" cy="-118.1762870721744" fill="#000000" r="2"/>
<circle cx="209.52380952380952" cy="-119.27166746414252" fill="#000000" r="2"/>
<circle cx="211.9047619047619" cy="-120.36316815236003" fill="#000000" r="2"/>
<circle cx="214.28571428571428" cy="-121.45082998400892" fill="#000000" r="2"/>
<circle cx="216.66666666666666" cy="-122.53469309569905" fill="#000000" r="2"/>
<circle cx="219.04761904761904" cy="-123.61479693063" fill="#000000" r="2"/>
<circle cx="221.42857142857142" cy="-124.69118025522407" fill="#000000" r="2"/>
<circle cx="223.8095238095238" cy="-125.76388117524996" fill="#000000" r="2"/>
<circle cx="226.1904761904762" cy="-126.83293715145716" fill="#000000" r="2"/>
<circle cx="228.57142857142858" cy="-127.89838501473815" fill="#000000" r="2"/>
<circle cx="230.95238095238096" cy="-128.96026098083576" fill="#000000" r="2"/>
<circle cx="233.33333333333334" cy="-130.01860066461273" fill="#000000" r="2"/>
<circle cx="235.71428571428572" cy="-131.07343909389888" fill="#000000" r="2"/>
<circle cx="238.0952380952381" cy="-132.1248107229308" fill="#000000" r="2"/>
<circle cx="240.47619047619048" cy="-133.17274944539997" fill="#000000" r="2"/>
<circle cx="242.85714285714286" cy="-134.21728860712062" fill="#000000" r="2"/>
<circle cx="245.23809523809524" cy="-135.2584610183338" fill="#000000" r="2"/>
<circle cx="247.61904761904762" cy="-136.2962989656577" fill="#000000" r="2"/>
<circle cx="250" cy="-137.33083422369873" fill="#000000" r="2"/>
<circle cx="252.38095238095238" cy="-138.3620980663326" fill="#000000" r="2"/>
<circle cx="254.76190476190476" cy="-139.39012127766975" fill="#000000" r="2"/>
<circle cx="257.14285714285717" cy="-140.41493416271328" fill="#000000" r="2"/>
<circle cx="259.5238095238095" cy="-141.4365665577207" fill="#000000" r="2"/>
<circle cx="261.9047619047619" cy="-142.45504784028088" fill="#000000" r="2"/>
<circle cx="264.2857142857143" cy="-143.47040693911282" fill="#000000" r="2"/>
<circle cx="266.6666666666667" cy="-144.48267234359844" fill="#000000" r="2"/>
<circle cx="269.04761904761904" cy="-145.4918721130561" fill="#000000" r="2"/>
<circle cx="271.42857142857144" cy="-146.49803388576507" fill="#000000" r="2"/>
<circle cx="273.8095238095238" cy="-147.50118488774703" fill="#000000" r="2"/>
<circle cx="276.1904761904762" cy="-148.50135194131494" fill="#000000" r="2"/>
<circle cx="278.57142857142856" cy="-149.49856147339491" fill="#000000" r="2"/>
<circle cx="280.95238095238096" cy="-150.4928395236287" fill="#000000" r="2"/>
<circle cx="283.3333333333333" cy="-151.48421175226517" fill="#000000" r="2"/>
<circle cx="285.7142857142857" cy="-152.47270344784567" fill="#000000" r="2"/>
<circle cx="288.0952380952381" cy="-153.45833953469023" fill="#000000" r="2"/>
<circle cx="290.4761904761905" cy="-154.44114458019249" fill="#000000" r="2"/>
<circle cx="292.85714285714283" cy="-155.42114280192672" fill="#000000" r="2"/>
<circle cx="295.23809523809524" cy="-156.39835807457482" fill="#000000" r="2"/>
<circle cx="297.6190476190476" cy="-157.37281393667783" fill="#000000" r="2"/>
<circle cx="300" cy="-158.34453359721786" fill="#000000" r="2"/>
<circle cx="302.3809523809524" cy="-159.3135399420351" fill="#000000" r="2"/>
<circle cx="304.76190476190476" cy="-160.27985554008526" fill="#000000" r="2"/>
<circle cx="307.14285714285717" cy="-161.24350264954276" fill="#000000" r="2"/>
<circle cx="309.5238095238095" cy="-162.20450322375282" fill="#000000" r="2"/>
<circle cx="311.9047619047619" cy="-163.16287891703857" fill="#000000" r="2"/>
<circle cx="314.2857142857143" cy="-164.1186510903667" fill="#000000" r="2"/>
<circle cx="316.6666666666667" cy="-165.07184081687586" fill="#000000" r="2"/>
<circle cx="319.04761904761904" cy="-166.0224688872722" fill="#000000" r="2"/>
<circle cx="321.42857142857144" cy="-166.97055581509477" fill="#000000" r="2"/>
<circle cx="323.8095238095238" cy="-167.9161218418569" fill="#000000" r="2"/>
<circle cx="326.1904761904762" cy="-168.85918694206464" fill="#000000" r="2"/>
<circle cx="328.57142857142856" cy="-169.79977082811735" fill="#000000" r="2"/>
<circle cx="330.95238095238096" cy="-170.73789295509297" fill="#000000" r="2"/>
<circle cx="333.3333333333333" cy="-171.6735725254223" fill="#000000" r="2"/>
<circle cx="335.7142857142857" cy="-172.60682849345375" fill="#000000" r="2"/>
<circle cx="338.0952380952381" cy="-173.537679569914" fill="#000000" r="2"/>
<circle cx="340.4761904761905" cy="-174.46614422626476" fill="#000000" r="2"/>
<circle cx="342.85714285714283" cy="-175.39224069896113" fill="#000000" r="2"/>
<circle cx="345.23809523809524" cy="-176.31598699361223" fill="#000000" r="2"/>
<circle cx="347.6190476190476" cy="-177.23740088904827" fill="#000000" r="2"/>
<circle cx="350" cy="-178.15649994129538" fill="#000000" r="2"/>
<circle cx="352.3809523809524" cy="-179.07330148746246" fill="#000000" r="2"/>
<circle cx="354.76190476190476" cy="-179.98782264953968" fill="#000000" r="2"/>
<circle cx="357.14285714285717" cy="-180.9000803381147" fill="#000000" r="2"/>
<circle cx="359.5238095238095" cy="-181.81009125600517" fill="#000000" r="2"/>
<circle cx="361.9047619047619" cy="-182.71787190181232" fill="#000000" r="2"/>
<circle cx="364.2857142857143" cy="-183.62343857339664" fill="#000000" r="2"/>
<circle cx="366.6666666666667" cy="-184.52680737127764" fill="#000000" r="2"/>
<circle cx="369.04761904761904" cy="-185.42799420196062" fill="#000000" r="2"/>
<circle cx="371.42857142857144" cy="-186.32701478119097" fill="#000000" r="2"/>
<circle cx="373.8095238095238" cy="-187.2238846371394" fill="#000000" r="2"/>
<circle cx="376.1904761904762" cy="-188.1186191135187" fill="#000000" r="2"/>
<circle cx="378.57142857142856" cy="-189.01123337263408" fill="#000000" r="2"/>
<circle cx="380.95238095238096" cy="-189.90174239836995" fill="#000000" r="2"/>
<circle cx="383.3333333333333" cy="-190.79016099911277" fill="#000000" r="2"/>
<circle cx="385.7142857142857" cy="-191.67650381061287" fill="#000000" r="2"/>
<circle cx="388.0952380952381" cy="-192.56078529878752" fill="#000000" r="2"/>
<circle cx="390.4761904761905" cy="-193.44301976246447" fill="#000000" r="2"/>
<circle cx="392.85714285714283" cy="-194.32322133606925" fill="#000000" r="2"/>
<circle cx="395.23809523809524" cy="-195.20140399225934" fill="#000000" r="2"/>
<circle cx="397.6190476190476" cy="-196.07758154449562" fill="#000000" r="2"/>
<circle cx="400" cy="-196.951767649588" fill="#000000" r="2"/>
<circle cx="402.3809523809524" cy="-197.8239758101134" fill="#000000" r="2"/>
<circle cx="404.76190476190476" cy="-198.69421937700233" fill="#000000" r="2"/>
<circle cx="407.14285714285717" cy="-199.56251155144543" fill="#000000" r="2"/>
<circle cx="409.5238095238095" cy="-200.42886538857974" fill="#000000" r="2"/>
<circle cx="411.9047619047619" cy="-201.29329379584763" fill="#000000" r="2"/>
<circle cx="414.2857142857143" cy="-202.15580954653504" fill="#000000" r="2"/>
<circle cx="416.6666666666667" cy="-203.01642524948957" fill="#000000" r="2"/>
<circle cx="419.04761904761904" cy="-203.87515344432367" fill="#000000" r="2"/>
<circle cx="421.42857142857144" cy="-204.73200633760993" fill="#000000" r="2"/>
<circle cx="423.8095238095238" cy="-205.586996562739" fill="#000000" r="2"/>
<circle cx="426.1904761904762" cy="-206.44013502826675" fill="#000000" r="2"/>
<circle cx="428.57142857142856" cy="-207.29143702424443" fill="#000000" r="2"/>
<circle cx="430.95238095238096" cy="-208.14090496844133" fill="#000000" r="2"/>
<circle cx="433.3333333333333" cy="-208.988577057115" fill="#000000" r="2"/>
<circle cx="435.7142857142857" cy="-209.83439047317802" fill="#000000" r="2"/>
<circle cx="438.0952380952381" cy="-210.6785650266951" fill="#000000" r="2"/>
<circle cx="440.4761904761905" cy="-211.5205300325224" fill="#000000" r="2"/>
<circle cx="442.85714285714283" cy="-212.36191835181268" fill="#000000" r="2"/>
<circle cx="445.23809523809524" cy="-213.19823431705814" fill="#000000" r="2"/>
<circle cx="447.6190476190476" cy="-214.0419821604804" fill="#000000" r="2"/>
<circle cx="450" cy="-214.85862735010764" fill="#000000" r="2"/>
<circle cx="452.3809523809524" cy="-215.74346705067612" fill="#000000" r="2"/>
<circle cx="454.76190476190476" cy="-216.43435028270474" fill="#000000" r="2"/>
<circle cx="457.14285714285717" cy="-217.65092179286776" fill="#000000" r="2"/>
<circle cx="459.5238095238095" cy="-217.42350578310146" fill="#000000" r="2"/>
<circle cx="461.9047619047619" cy="-221.1368646482589" fill="#000000" r="2"/>
<circle cx="464.2857142857143" cy="-214.15414677899867" fill="#000000" r="2"/>
<circle cx="466.6666666666667" cy="-236.52996955197912" fill="#000000" r="2"/>
<circle cx="469.04761904761904" cy="-181.44736842105263" fill="#000000" r="2"/>
<circle cx="471.42857142857144" cy="-354.3157894736842" fill="#000000" r="2"/>
<circle cx="473.8095238095238" cy="0" fill="#000000" r="2"/>
</g>
<g>
<g>
<line stroke="black" stroke-width="1" x1="0" x2="0" y1="0" y2="10"/>
<line stroke="black" stroke-width="1" x1="95.23809523809524" x2="95.23809523809524" y1="0" y2="10"/>
<line stroke="black" stroke-width="1" x1="190.47619047619048" x2="190.47619047619048" y1="0" y2="10"/>
<line stroke="black" stroke-width="1" x1="285.7142857142857" x2="285.7142857142857" y1="0" y2="10"/>
<line stroke="black" stroke-width="1" x1="380.95238095238096" x2="380.95238095238096" y1="0" y2="10"/>
<line stroke="black" stroke-width="1" x1="476.1904761904762" x2="476.1904761904762" y1="0" y2="10"/>
</g>
<line stroke="black" stroke-width="1" x1="0" x2="500" y1="0" y2="0"/>
<g>
<text font-size="12" text-anchor="middle" x="0" y="20">
0
</text>
<text font-size="12" text-anchor="middle" x="95.23809523809524" y="20">
4000000
</text>
<text font-size="12" text-anchor="middle" x="190.47619047619048" y="20">
8000000
</text>
<text font-size="12" text-anchor="middle" x="285.7142857142857" y="20">
12000000
</text>
<text font-size="12" text-anchor="middle" x="380.95238095238096" y="20">
16000000
</text>
<text font-size="12" text-anchor="middle" x="476.1904761904762" y="20">
20000000
</text>
</g>
<text font-size="12" text-anchor="middle" x="250" y="30">
Gas
</text>
</g>
<g>
<g>
<line stroke="black" stroke-width="1" x1="0" x2="-10" y1="-53.68421052631579" y2="-53.68421052631579"/>
<line stroke="black" stroke-width="1" x1="0" x2="-10" y1="-125.26315789473684" y2="-125.26315789473684"/>
<line stroke="black" stroke-width="1" x1="0" x2="-10" y1="-196.8421052631579" y2="-196.8421052631579"/>
<line stroke="black" stroke-width="1" x1="0" x2="-10" y1="-268.42105263157896" y2="-268.42105263157896"/>
<line stroke="black" stroke-width="1" x1="0" x2="-10" y1="-340" y2="-340"/>
</g>
<line stroke="black" stroke-0="1" x1="0" x2="0" y1="0" y2="-340"/>
<g>
<text dominant-baseline="middle" font-size="12" text-anchor="end" x="-15" y="-53.68421052631579">
24000
</text>
<text dominant-baseline="middle" font-size="12" text-anchor="end" x="-15" y="-125.26315789473684">
28000
</text>
<text dominant-baseline="middle" font-size="12" text-anchor="end" x="-15" y="-196.8421052631579">
32000
</text>
<text dominant-baseline="middle" font-size="12" text-anchor="end" x="-15" y="-268.42105263157896">
36000
</text>
<text dominant-baseline="middle" font-size="12" text-anchor="end" x="-15" y="-340">
40000
</text>
</g>
<text font-size="12" text-anchor="middle" transform="rotate(-90 -30 -170)" x="-30" y="-170">
Score
</text>
</g>
</g>
</svg>