<svg viewBox="0 0 600 400" xmlns="http://www.w3.org/2000/svg">
<g transform="translate(50, 360)">
<g>
<circle cx="0" cy="21172.727272727272" fill="#000000" r="2"/>
<circle cx="2.5" cy="-547.3925818181818" fill="#000000" r="2"/>
<circle cx="5" cy="-321.53169454545457" fill="#000000" r="2"/>
<circle cx="7.5" cy="-245.56951272727272" fill="#000000" r="2"/>
<circle cx="10" cy="-208.09483636363638" fill="#000000" r="2"/>
<circle cx="12.5" cy="-185.81259636363637" fill="#000000" r="2"/>
<circle cx="15" cy="-170.62016" fill="#000000" r="2"/>
<circle cx="17.5" cy="-160.4918690909091" fill="#000000" r="2"/>
<circle cx="20" cy="-152.38923636363637" fill="#000000" r="2"/>
<circle cx="22.5" cy="-146.3122618181818" fill="#000000" r="2"/>
<circle cx="25" cy="-141.24811636363637" fill="#000000" r="2"/>
<circle cx="27.5" cy="-137.1968" fill="#000000" r="2"/>
<circle cx="30" cy="-133.14548363636365" fill="#000000" r="2"/>
<circle cx="32.5" cy="-130.10699636363637" fill="#000000" r="2"/>
<circle cx="35" cy="-128.08133818181818" fill="#000000" r="2"/>
<circle cx="37.5" cy="-126.05568" fill="#000000" r="2"/>
<circle cx="40" cy="-124.03002181818182" fill="#000000" r="2"/>
<circle cx="42.5" cy="-122.00436363636364" fill="#000000" r="2"/>
<circle cx="45" cy="-120.99153454545454" fill="#000000" r="2"/>
<circle cx="47.5" cy="-119.97870545454545" fill="#000000" r="2"/>
<circle cx="50" cy="-118.96587636363637" fill="#000000" r="2"/>
<circle cx="52.5" cy="-117.95304727272728" fill="#000000" r="2"/>
<circle cx="55" cy="-116.94021818181818" fill="#000000" r="2"/>
<circle cx="57.5" cy="-115.92738909090909" fill="#000000" r="2"/>
<circle cx="60" cy="-114.91456" fill="#000000" r="2"/>
<circle cx="62.5" cy="-113.90173090909092" fill="#000000" r="2"/>
<circle cx="65" cy="-112.88890181818182" fill="#000000" r="2"/>
<circle cx="67.5" cy="-112.88890181818182" fill="#000000" r="2"/>
<circle cx="70" cy="-111.87607272727273" fill="#000000" r="2"/>
<circle cx="72.5" cy="-111.87607272727273" fill="#000000" r="2"/>
<circle cx="75" cy="-110.86324363636363" fill="#000000" r="2"/>
<circle cx="77.5" cy="-110.86324363636363" fill="#000000" r="2"/>
<circle cx="80" cy="-109.85041454545454" fill="#000000" r="2"/>
<circle cx="82.5" cy="-109.85041454545454" fill="#000000" r="2"/>
<circle cx="85" cy="-108.83758545454546" fill="#000000" r="2"/>
<circle cx="87.5" cy="-108.83758545454546" fill="#000000" r="2"/>
<circle cx="90" cy="-108.83758545454546" fill="#000000" r="2"/>
<circle cx="92.5" cy="-107.82475636363637" fill="#000000" r="2"/>
<circle cx="95" cy="-107.82475636363637" fill="#000000" r="2"/>
<circle cx="97.5" cy="-107.82475636363637" fill="#000000" r="2"/>
<circle cx="100" cy="-107.82475636363637" fill="#000000" r="2"/>
<circle cx="102.5" cy="-106.81192727272727" fill="#000000" r="2"/>
<circle cx="105" cy="-106.81192727272727" fill="#000000" r="2"/>
<circle cx="107.5" cy="-106.81192727272727" fill="#000000" r="2"/>
<circle cx="110" cy="-106.81192727272727" fill="#000000" r="2"/>
<circle cx="112.5" cy="-105.79909818181818" fill="#000000" r="2"/>
<circle cx="115" cy="-105.79909818181818" fill="#000000" r="2"/>
<circle cx="117.5" cy="-105.79909818181818" fill="#000000" r="2"/>
<circle cx="120" cy="-105.79909818181818" fill="#000000" r="2"/>
<circle cx="122.5" cy="-105.79909818181818" fill="#000000" r="2"/>
<circle cx="125" cy="-104.78626909090909" fill="#000000" r="2"/>
<circle cx="127.5" cy="-104.78626909090909" fill="#000000" r="2"/>
<circle cx="130" cy="-104.78626909090909" fill="#000000" r="2"/>
<circle cx="132.5" cy="-104.78626909090909" fill="#000000" r="2"/>
<circle cx="135" cy="-104.78626909090909" fill="#000000" r="2"/>
<circle cx="137.5" cy="-104.78626909090909" fill="#000000" r="2"/>
<circle cx="140" cy="-103.77344" fill="#000000" r="2"/>
<circle cx="142.5" cy="-103.77344" fill="#000000" r="2"/>
<circle cx="145" cy="-103.77344" fill="#000000" r="2"/>
<circle cx="147.5" cy="-103.77344" fill="#000000" r="2"/>
<circle cx="150" cy="-103.77344" fill="#000000" r="2"/>
<circle cx="152.5" cy="-103.77344" fill="#000000" r="2"/>
<circle cx="155" cy="-103.77344" fill="#000000" r="2"/>
<circle cx="157.5" cy="-103.77344" fill="#000000" r="2"/>
<circle cx="160" cy="-102.76061090909091" fill="#000000" r="2"/>
<circle cx="162.5" cy="-102.76061090909091" fill="#000000" r="2"/>
<circle cx="165" cy="-102.76061090909091" fill="#000000" r="2"/>
<circle cx="167.5" cy="-102.76061090909091" fill="#000000" r="2"/>
<circle cx="170" cy="-102.76061090909091" fill="#000000" r="2"/>
<circle cx="172.5" cy="-102.76061090909091" fill="#000000" r="2"/>
<circle cx="175" cy="-102.76061090909091" fill="#000000" r="2"/>
<circle cx="177.5" cy="-102.76061090909091" fill="#000000" r="2"/>
<circle cx="180" cy="-102.76061090909091" fill="#000000" r="2"/>
<circle cx="182.5" cy="-102.76061090909091" fill="#000000" r="2"/>
<circle cx="185" cy="-101.74778181818182" fill="#000000" r="2"/>
<circle cx="187.5" cy="-101.74778181818182" fill="#000000" r="2"/>
<circle cx="190" cy="-101.74778181818182" fill="#000000" r="2"/>
<circle cx="192.5" cy="-101.74778181818182" fill="#000000" r="2"/>
<circle cx="195" cy="-101.74778181818182" fill="#000000" r="2"/>
<circle cx="197.5" cy="-101.74778181818182" fill="#000000" r="2"/>
<circle cx="200" cy="-101.74778181818182" fill="#000000" r="2"/>
<circle cx="202.5" cy="-101.74778181818182" fill="#000000" r="2"/>
<circle cx="205" cy="-101.74778181818182" fill="#000000" r="2"/>
<circle cx="207.5" cy="-101.74778181818182" fill="#000000" r="2"/>
<circle cx="210" cy="-101.74778181818182" fill="#000000" r="2"/>
<circle cx="212.5" cy="-101.74778181818182" fill="#000000" r="2"/>
<circle cx="215" cy="-101.74778181818182" fill="#000000" r="2"/>
<circle cx="217.5" cy="-101.74778181818182" fill="#000000" r="2"/>
<circle cx="220" cy="-101.74778181818182" fill="#000000" r="2"/>
<circle cx="222.5" cy="-100.73495272727273" fill="#000000" r="2"/>
<circle cx="225" cy="-100.73495272727273" fill="#000000" r="2"/>
<circle cx="227.5" cy="-100.73495272727273" fill="#000000" r="2"/>
<circle cx="230" cy="-100.73495272727273" fill="#000000" r="2"/>
<circle cx="232.5" cy="-100.73495272727273" fill="#000000" r="2"/>
<circle cx="235" cy="-100.73495272727273" fill="#000000" r="2"/>
<circle cx="237.5" cy="-100.73495272727273" fill="#000000" r="2"/>
<circle cx="240" cy="-100.73495272727273" fill="#000000" r="2"/>
<circle cx="242.5" cy="-100.73495272727273" fill="#000000" r="2"/>
<circle cx="245" cy="-100.73495272727273" fill="#000000" r="2"/>
<circle cx="247.5" cy="-100.73495272727273" fill="#000000" r="2"/>
<circle cx="250" cy="-100.73495272727273" fill="#000000" r="2"/>
<circle cx="252.5" cy="-100.73495272727273" fill="#000000" r="2"/>
<circle cx="255" cy="-100.73495272727273" fill="#000000" r="2"/>
<circle cx="257.5" cy="-100.73495272727273" fill="#000000" r="2"/>
<circle cx="260" cy="-100.73495272727273" fill="#000000" r="2"/>
<circle cx="262.5" cy="-100.73495272727273" fill="#000000" r="2"/>
<circle cx="265" cy="-100.73495272727273" fill="#000000" r="2"/>
<circle cx="267.5" cy="-100.73495272727273" fill="#000000" r="2"/>
<circle cx="270" cy="-100.73495272727273" fill="#000000" r="2"/>
<circle cx="272.5" cy="-100.73495272727273" fill="#000000" r="2"/>
<circle cx="275" cy="-100.73495272727273" fill="#000000" r="2"/>
<circle cx="277.5" cy="-99.72212363636363" fill="#000000" r="2"/>
<circle cx="280" cy="-99.72212363636363" fill="#000000" r="2"/>
<circle cx="282.5" cy="-99.72212363636363" fill="#000000" r="2"/>
<circle cx="285" cy="-99.72212363636363" fill="#000000" r="2"/>
<circle cx="287.5" cy="-99.72212363636363" fill="#000000" r="2"/>
<circle cx="290" cy="-99.72212363636363" fill="#000000" r="2"/>
<circle cx="292.5" cy="-99.72212363636363" fill="#000000" r="2"/>
<circle cx="295" cy="-99.72212363636363" fill="#000000" r="2"/>
<circle cx="297.5" cy="-99.72212363636363" fill="#000000" r="2"/>
<circle cx="300" cy="-99.72212363636363" fill="#000000" r="2"/>
<circle cx="302.5" cy="-99.72212363636363" fill="#000000" r="2"/>
<circle cx="305" cy="-99.72212363636363" fill="#000000" r="2"/>
<circle cx="307.5" cy="-99.72212363636363" fill="#000000" r="2"/>
<circle cx="310" cy="-99.72212363636363" fill="#000000" r="2"/>
<circle cx="312.5" cy="-99.72212363636363" fill="#000000" r="2"/>
<circle cx="315" cy="-99.72212363636363" fill="#000000" r="2"/>
<circle cx="317.5" cy="-99.72212363636363" fill="#000000" r="2"/>
<circle cx="320" cy="-99.72212363636363" fill="#000000" r="2"/>
<circle cx="322.5" cy="-99.72212363636363" fill="#000000" r="2"/>
<circle cx="325" cy="-99.72212363636363" fill="#000000" r="2"/>
<circle cx="327.5" cy="-99.72212363636363" fill="#000000" r="2"/>
<circle cx="330" cy="-99.72212363636363" fill="#000000" r="2"/>
<circle cx="332.5" cy="-99.72212363636363" fill="#000000" r="2"/>
<circle cx="335" cy="-99.72212363636363" fill="#000000" r="2"/>
<circle cx="337.5" cy="-99.72212363636363" fill="#000000" r="2"/>
<circle cx="340" cy="-99.72212363636363" fill="#000000" r="2"/>
<circle cx="342.5" cy="-99.72212363636363" fill="#000000" r="2"/>
<circle cx="345" cy="-99.72212363636363" fill="#000000" r="2"/>
<circle cx="347.5" cy="-99.72212363636363" fill="#000000" r="2"/>
<circle cx="350" cy="-99.72212363636363" fill="#000000" r="2"/>
<circle cx="352.5" cy="-99.72212363636363" fill="#000000" r="2"/>
<circle cx="355" cy="-99.72212363636363" fill="#000000" r="2"/>
<circle cx="357.5" cy="-99.72212363636363" fill="#000000" r="2"/>
<circle cx="360" cy="-99.72212363636363" fill="#000000" r="2"/>
<circle cx="362.5" cy="-99.72212363636363" fill="#000000" r="2"/>
<circle cx="365" cy="-99.72212363636363" fill="#000000" r="2"/>
<circle cx="367.5" cy="-99.72212363636363" fill="#000000" r="2"/>
<circle cx="370" cy="-98.70929454545454" fill="#000000" r="2"/>
<circle cx="372.5" cy="-98.70929454545454" fill="#000000" r="2"/>
<circle cx="375" cy="-98.70929454545454" fill="#000000" r="2"/>
<circle cx="377.5" cy="-98.70929454545454" fill="#000000" r="2"/>
<circle cx="380" cy="-98.70929454545454" fill="#000000" r="2"/>
<circle cx="382.5" cy="-98.70929454545454" fill="#000000" r="2"/>
<circle cx="385" cy="-98.70929454545454" fill="#000000" r="2"/>
<circle cx="387.5" cy="-98.70929454545454" fill="#000000" r="2"/>
<circle cx="390" cy="-98.70929454545454" fill="#000000" r="2"/>
<circle cx="392.5" cy="-98.70929454545454" fill="#000000" r="2"/>
<circle cx="395" cy="-98.70929454545454" fill="#000000" r="2"/>
<circle cx="397.5" cy="-98.70929454545454" fill="#000000" r="2"/>
<circle cx="400" cy="-98.70929454545454" fill="#000000" r="2"/>
<circle cx="402.5" cy="-98.70929454545454" fill="#000000" r="2"/>
<circle cx="405" cy="-98.70929454545454" fill="#000000" r="2"/>
<circle cx="407.5" cy="-98.70929454545454" fill="#000000" r="2"/>
<circle cx="410" cy="-98.70929454545454" fill="#000000" r="2"/>
<circle cx="412.5" cy="-98.70929454545454" fill="#000000" r="2"/>
<circle cx="415" cy="-98.70929454545454" fill="#000000" r="2"/>
<circle cx="417.5" cy="-98.70929454545454" fill="#000000" r="2"/>
<circle cx="420" cy="-98.70929454545454" fill="#000000" r="2"/>
<circle cx="422.5" cy="-98.70929454545454" fill="#000000" r="2"/>
<circle cx="425" cy="-98.70929454545454" fill="#000000" r="2"/>
<circle cx="427.5" cy="-98.70929454545454" fill="#000000" r="2"/>
<circle cx="430" cy="-98.70929454545454" fill="#000000" r="2"/>
<circle cx="432.5" cy="-98.70929454545454" fill="#000000" r="2"/>
<circle cx="435" cy="-98.70929454545454" fill="#000000" r="2"/>
<circle cx="437.5" cy="-98.70929454545454" fill="#000000" r="2"/>
<circle cx="440" cy="-98.70929454545454" fill="#000000" r="2"/>
<circle cx="442.5" cy="-98.70929454545454" fill="#000000" r="2"/>
<circle cx="445" cy="-98.70929454545454" fill="#000000" r="2"/>
<circle cx="447.5" cy="-98.70929454545454" fill="#000000" r="2"/>
<circle cx="450" cy="-98.70929454545454" fill="#000000" r="2"/>
<circle cx="452.5" cy="-98.70929454545454" fill="#000000" r="2"/>
<circle cx="455" cy="-98.70929454545454" fill="#000000" r="2"/>
<circle cx="457.5" cy="-98.70929454545454" fill="#000000" r="2"/>
<circle cx="460" cy="-98.70929454545454" fill="#000000" r="2"/>
<circle cx="462.5" cy="-98.70929454545454" fill="#000000" r="2"/>
<circle cx="465" cy="-98.70929454545454" fill="#000000" r="2"/>
<circle cx="467.5" cy="-98.70929454545454" fill="#000000" r="2"/>
<circle cx="470" cy="-98.70929454545454" fill="#000000" r="2"/>
<circle cx="472.5" cy="-98.70929454545454" fill="#000000" r="2"/>
<circle cx="475" cy="-98.70929454545454" fill="#000000" r="2"/>
<circle cx="477.5" cy="-98.70929454545454" fill="#000000" r="2"/>
<circle cx="480" cy="-98.70929454545454" fill="#000000" r="2"/>
<circle cx="482.5" cy="-98.70929454545454" fill="#000000" r="2"/>
<circle cx="485" cy="-98.70929454545454" fill="#000000" r="2"/>
<circle cx="487.5" cy="-98.70929454545454" fill="#000000" r="2"/>
<circle cx="490" cy="-98.70929454545454" fill="#000000" r="2"/>
<circle cx="492.5" cy="-98.70929454545454" fill="#000000" r="2"/>
<circle cx="495" cy="-98.70929454545454" fill="#000000" r="2"/>
<circle cx="497.5" cy="-96.68363636363637" fill="#000000" r="2"/>
</g>
<g>
<g>
<line stroke="black" stroke-width="1" x1="0" x2="0" y1="0" y2="10"/>
<line stroke="black" stroke-width="1" x1="100" x2="100" y1="0" y2="10"/>
<line stroke="black" stroke-width="1" x1="200" x2="200" y1="0" y2="10"/>
<line stroke="black" stroke-width="1" x1="300" x2="300" y1="0" y2="10"/>
<line stroke="black" stroke-width="1" x1="400" x2="400" y1="0" y2="10"/>
<line stroke="black" stroke-width="1" x1="500" x2="500" y1="0" y2="10"/>
</g>
<line stroke="black" stroke-width="1" x1="0" x2="500" y1="0" y2="0"/>
<g>
<text font-size="12" text-anchor="middle" x="0" y="20">
0
</text>
<text font-size="12" text-anchor="middle" x="100" y="20">
40000
</text>
<text font-size="12" text-anchor="middle" x="200" y="20">
80000
</text>
<text font-size="12" text-anchor="middle" x="300" y="20">
120000
</text>
<text font-size="12" text-anchor="middle" x="400" y="20">
160000
</text>
<text font-size="12" text-anchor="middle" x="500" y="20">
200000
</text>
</g>
<text font-size="12" text-anchor="middle" x="250" y="30">
Gas
</text>
</g>
<g>
<g>
<line stroke="black" stroke-width="1" x1="0" x2="-10" y1="-30.90909090909091" y2="-30.90909090909091"/>
<line stroke="black" stroke-width="1" x1="0" x2="-10" y1="-92.72727272727273" y2="-92.72727272727273"/>
<line stroke="black" stroke-width="1" x1="0" x2="-10" y1="-154.54545454545453" y2="-154.54545454545453"/>
<line stroke="black" stroke-width="1" x1="0" x2="-10" y1="-216.36363636363637" y2="-216.36363636363637"/>
<line stroke="black" stroke-width="1" x1="0" x2="-10" y1="-278.1818181818182" y2="-278.1818181818182"/>
<line stroke="black" stroke-width="1" x1="0" x2="-10" y1="-340" y2="-340"/>
</g>
<line stroke="black" stroke-0="1" x1="0" x2="0" y1="0" y2="-340"/>
<g>
<text dominant-baseline="middle" font-size="12" text-anchor="end" x="-15" y="-30.90909090909091">
686000000
</text>
<text dominant-baseline="middle" font-size="12" text-anchor="end" x="-15" y="-92.72727272727273">
688000000
</text>
<text dominant-baseline="middle" font-size="12" text-anchor="end" x="-15" y="-154.54545454545453">
690000000
</text>
<text dominant-baseline="middle" font-size="12" text-anchor="end" x="-15" y="-216.36363636363637">
692000000
</text>
<text dominant-baseline="middle" font-size="12" text-anchor="end" x="-15" y="-278.1818181818182">
694000000
</text>
<text dominant-baseline="middle" font-size="12" text-anchor="end" x="-15" y="-340">
696000000
</text>
</g>
<text font-size="12" text-anchor="middle" transform="rotate(-90 -30 -170)" x="-30" y="-170">
Score
</text>
</g>
</g>
</svg>