<svg viewBox="0 0 600 400" xmlns="http://www.w3.org/2000/svg">
<g transform="translate(50, 360)">
<g>
<circle cx="0" cy="-inf" fill="#000000" r="2"/>
<circle cx="33.333333333333336" cy="-168.1777949820098" fill="#000000" r="2"/>
<circle cx="66.66666666666667" cy="-161.36138619777523" fill="#000000" r="2"/>
<circle cx="100" cy="-159.08932946001732" fill="#000000" r="2"/>
<circle cx="133.33333333333334" cy="-157.95332494773967" fill="#000000" r="2"/>
<circle cx="166.66666666666666" cy="-157.27173178286068" fill="#000000" r="2"/>
<circle cx="200" cy="-156.8173408836096" fill="#000000" r="2"/>
<circle cx="233.33333333333334" cy="-156.49277838863517" fill="#000000" r="2"/>
<circle cx="266.6666666666667" cy="-156.24931818181952" fill="#000000" r="2"/>
<circle cx="300" cy="-154.54545454545453" fill="#000000" r="2"/>
</g>
<g>
<g>
<line stroke="black" stroke-width="1" x1="0" x2="0" y1="0" y2="10"/>
<line stroke="black" stroke-width="1" x1="166.66666666666666" x2="166.66666666666666" y1="0" y2="10"/>
<line stroke="black" stroke-width="1" x1="333.3333333333333" x2="333.3333333333333" y1="0" y2="10"/>
<line stroke="black" stroke-width="1" x1="500" x2="500" y1="0" y2="10"/>
</g>
<line stroke="black" stroke-width="1" x1="0" x2="500" y1="0" y2="0"/>
<g>
<text font-size="12" text-anchor="middle" x="0" y="20">
0
</text>
<text font-size="12" text-anchor="middle" x="166.66666666666666" y="20">
500000
</text>
<text font-size="12" text-anchor="middle" x="333.3333333333333" y="20">
1000000
</text>
<text font-size="12" text-anchor="middle" x="500" y="20">
1500000
</text>
</g>
<text font-size="12" text-anchor="middle" x="250" y="30">
Gas
</text>
</g>
<g>
<g>
<line stroke="black" stroke-width="1" x1="0" x2="-10" y1="-30.90909090909091" y2="-30.90909090909091"/>
<line stroke="black" stroke-width="1" x1="0" x2="-10" y1="-92.72727272727273" y2="-92.72727272727273"/>
<line stroke="black" stroke-width="1" x1="0" x2="-10" y1="-154.54545454545453" y2="-154.54545454545453"/>
<line stroke="black" stroke-width="1" x1="0" x2="-10" y1="-216.36363636363637" y2="-216.36363636363637"/>
<line stroke="black" stroke-width="1" x1="0" x2="-10" y1="-278.1818181818182" y2="-278.1818181818182"/>
<line stroke="black" stroke-width="1" x1="0" x2="-10" y1="-340" y2="-340"/>
</g>
<line stroke="black" stroke-0="1" x1="0" x2="0" y1="0" y2="-340"/>
<g>
<text dominant-baseline="middle" font-size="12" text-anchor="end" x="-15" y="-30.90909090909091">
20960
</text>
<text dominant-baseline="middle" font-size="12" text-anchor="end" x="-15" y="-92.72727272727273">
20980
</text>
<text dominant-baseline="middle" font-size="12" text-anchor="end" x="-15" y="-154.54545454545453">
21000
</text>
<text dominant-baseline="middle" font-size="12" text-anchor="end" x="-15" y="-216.36363636363637">
21020
</text>
<text dominant-baseline="middle" font-size="12" text-anchor="end" x="-15" y="-278.1818181818182">
21040
</text>
<text dominant-baseline="middle" font-size="12" text-anchor="end" x="-15" y="-340">
21060
</text>
</g>
<text font-size="12" text-anchor="middle" transform="rotate(-90 -30 -170)" x="-30" y="-170">
Score
</text>
</g>
</g>
</svg>