<svg viewBox="0 0 600 400" xmlns="http://www.w3.org/2000/svg">
<g transform="translate(50, 360)">
<g>
<circle cx="0" cy="-inf" fill="#000000" r="2"/>
<circle cx="2.5" cy="-213.30382986807186" fill="#000000" r="2"/>
<circle cx="5" cy="-163.31683211701844" fill="#000000" r="2"/>
<circle cx="7.5" cy="-146.6550827067937" fill="#000000" r="2"/>
<circle cx="10" cy="-138.324382950091" fill="#000000" r="2"/>
<circle cx="12.5" cy="-133.32603307431177" fill="#000000" r="2"/>
<circle cx="15" cy="-129.99383314647034" fill="#000000" r="2"/>
<circle cx="17.5" cy="-127.61370819206543" fill="#000000" r="2"/>
<circle cx="20" cy="-125.8286248894389" fill="#000000" r="2"/>
<circle cx="22.5" cy="-124.44023324443454" fill="#000000" r="2"/>
<circle cx="25" cy="-123.32952416940923" fill="#000000" r="2"/>
<circle cx="27.5" cy="-122.42076509040878" fill="#000000" r="2"/>
<circle cx="30" cy="-121.66346789691791" fill="#000000" r="2"/>
<circle cx="32.5" cy="-121.02267944260772" fill="#000000" r="2"/>
<circle cx="35" cy="-120.4734332946585" fill="#000000" r="2"/>
<circle cx="37.5" cy="-119.99742079943341" fill="#000000" r="2"/>
<circle cx="40" cy="-119.58091050923395" fill="#000000" r="2"/>
<circle cx="42.5" cy="-119.21340193408348" fill="#000000" r="2"/>
<circle cx="45" cy="-118.88672804629702" fill="#000000" r="2"/>
<circle cx="47.5" cy="-118.59444120654855" fill="#000000" r="2"/>
<circle cx="50" cy="-118.33138331383331" fill="#000000" r="2"/>
<circle cx="52.5" cy="-118.0933787701506" fill="#000000" r="2"/>
<circle cx="55" cy="-117.87701118269858" fill="#000000" r="2"/>
<circle cx="57.5" cy="-117.67945831839461" fill="#000000" r="2"/>
<circle cx="60" cy="-117.49836831957994" fill="#000000" r="2"/>
<circle cx="62.5" cy="-117.33176562839071" fill="#000000" r="2"/>
<circle cx="65" cy="-117.17797862076259" fill="#000000" r="2"/>
<circle cx="67.5" cy="-117.03558332244575" fill="#000000" r="2"/>
<circle cx="70" cy="-116.90335918524943" fill="#000000" r="2"/>
<circle cx="72.5" cy="-116.78025401347259" fill="#000000" r="2"/>
<circle cx="75" cy="-116.66535590511437" fill="#000000" r="2"/>
<circle cx="77.5" cy="-116.55787062337913" fill="#000000" r="2"/>
<circle cx="80" cy="-116.4571032118644" fill="#000000" r="2"/>
<circle cx="82.5" cy="-116.36244295163972" fill="#000000" r="2"/>
<circle cx="85" cy="-116.27335097340013" fill="#000000" r="2"/>
<circle cx="87.5" cy="-116.18934999339884" fill="#000000" r="2"/>
<circle cx="90" cy="-116.1100157595356" fill="#000000" r="2"/>
<circle cx="92.5" cy="-116.03496988501381" fill="#000000" r="2"/>
<circle cx="95" cy="-115.96387381360789" fill="#000000" r="2"/>
<circle cx="97.5" cy="-115.89642371261532" fill="#000000" r="2"/>
<circle cx="100" cy="-115.83234613318928" fill="#000000" r="2"/>
<circle cx="102.5" cy="-115.77139430413565" fill="#000000" r="2"/>
<circle cx="105" cy="-115.71334495667543" fill="#000000" r="2"/>
<circle cx="107.5" cy="-115.65799559111474" fill="#000000" r="2"/>
<circle cx="110" cy="-115.60516211698025" fill="#000000" r="2"/>
<circle cx="112.5" cy="-115.55467680757768" fill="#000000" r="2"/>
<circle cx="115" cy="-115.50638652098132" fill="#000000" r="2"/>
<circle cx="117.5" cy="-115.46015114878053" fill="#000000" r="2"/>
<circle cx="120" cy="-115.4158422583617" fill="#000000" r="2"/>
<circle cx="122.5" cy="-115.3733419013491" fill="#000000" r="2"/>
<circle cx="125" cy="-115.33254156536229" fill="#000000" r="2"/>
<circle cx="127.5" cy="-115.29334124872305" fill="#000000" r="2"/>
<circle cx="130" cy="-115.25564864236124" fill="#000000" r="2"/>
<circle cx="132.5" cy="-115.21937840382937" fill="#000000" r="2"/>
<circle cx="135" cy="-115.18445151237636" fill="#000000" r="2"/>
<circle cx="137.5" cy="-115.15079469427776" fill="#000000" r="2"/>
<circle cx="140" cy="-115.118339909682" fill="#000000" r="2"/>
<circle cx="142.5" cy="-115.08702389346824" fill="#000000" r="2"/>
<circle cx="145" cy="-115.05678774351934" fill="#000000" r="2"/>
<circle cx="147.5" cy="-115.02757655129729" fill="#000000" r="2"/>
<circle cx="150" cy="-114.99933906878384" fill="#000000" r="2"/>
<circle cx="152.5" cy="-114.9720274083229" fill="#000000" r="2"/>
<circle cx="155" cy="-114.9455967720666" fill="#000000" r="2"/>
<circle cx="157.5" cy="-114.92000520624181" fill="#000000" r="2"/>
<circle cx="160" cy="-114.89521337941308" fill="#000000" r="2"/>
<circle cx="162.5" cy="-114.87118438037093" fill="#000000" r="2"/>
<circle cx="165" cy="-114.84788353498637" fill="#000000" r="2"/>
<circle cx="167.5" cy="-114.82527823931014" fill="#000000" r="2"/>
<circle cx="170" cy="-114.80333780726748" fill="#000000" r="2"/>
<circle cx="172.5" cy="-114.78203333162917" fill="#000000" r="2"/>
<circle cx="175" cy="-114.76133755702176" fill="#000000" r="2"/>
<circle cx="177.5" cy="-114.74122476365785" fill="#000000" r="2"/>
<circle cx="180" cy="-114.72167066054924" fill="#000000" r="2"/>
<circle cx="182.5" cy="-114.70265228770829" fill="#000000" r="2"/>
<circle cx="185" cy="-114.68414792643064" fill="#000000" r="2"/>
<circle cx="187.5" cy="-114.66613701609215" fill="#000000" r="2"/>
<circle cx="190" cy="-114.6486000782849" fill="#000000" r="2"/>
<circle cx="192.5" cy="-114.63151864664299" fill="#000000" r="2"/>
<circle cx="195" cy="-114.61487520153362" fill="#000000" r="2"/>
<circle cx="197.5" cy="-114.59865311052029" fill="#000000" r="2"/>
<circle cx="200" cy="-114.58283657278419" fill="#000000" r="2"/>
<circle cx="202.5" cy="-114.56741056783358" fill="#000000" r="2"/>
<circle cx="205" cy="-114.55236080784137" fill="#000000" r="2"/>
<circle cx="207.5" cy="-114.5376736936111" fill="#000000" r="2"/>
<circle cx="210" cy="-114.5233362733464" fill="#000000" r="2"/>
<circle cx="212.5" cy="-114.50933620496653" fill="#000000" r="2"/>
<circle cx="215" cy="-114.49566172031821" fill="#000000" r="2"/>
<circle cx="217.5" cy="-114.48230159243879" fill="#000000" r="2"/>
<circle cx="220" cy="-114.46924510446843" fill="#000000" r="2"/>
<circle cx="222.5" cy="-114.45648202144851" fill="#000000" r="2"/>
<circle cx="225" cy="-114.44400256310958" fill="#000000" r="2"/>
<circle cx="227.5" cy="-114.43179737913306" fill="#000000" r="2"/>
<circle cx="230" cy="-114.41985752589729" fill="#000000" r="2"/>
<circle cx="232.5" cy="-114.40817444421312" fill="#000000" r="2"/>
<circle cx="235" cy="-114.39673993936837" fill="#000000" r="2"/>
<circle cx="237.5" cy="-114.38554616133722" fill="#000000" r="2"/>
<circle cx="240" cy="-114.37458558762835" fill="#000000" r="2"/>
<circle cx="242.5" cy="-114.3638510054734" fill="#000000" r="2"/>
<circle cx="245" cy="-114.35333549698407" fill="#000000" r="2"/>
<circle cx="247.5" cy="-114.343032423402" fill="#000000" r="2"/>
<circle cx="250" cy="-114.33293541174014" fill="#000000" r="2"/>
<circle cx="252.5" cy="-114.32303834125923" fill="#000000" r="2"/>
<circle cx="255" cy="-114.31333533142849" fill="#000000" r="2"/>
<circle cx="257.5" cy="-114.30382072988625" fill="#000000" r="2"/>
<circle cx="260" cy="-114.29448910180265" fill="#000000" r="2"/>
<circle cx="262.5" cy="-114.28533521940699" fill="#000000" r="2"/>
<circle cx="265" cy="-114.27635405200999" fill="#000000" r="2"/>
<circle cx="267.5" cy="-114.26754075734546" fill="#000000" r="2"/>
<circle cx="270" cy="-114.25889067208725" fill="#000000" r="2"/>
<circle cx="272.5" cy="-114.25039930426283" fill="#000000" r="2"/>
<circle cx="275" cy="-114.24206232525466" fill="#000000" r="2"/>
<circle cx="277.5" cy="-114.23387556237867" fill="#000000" r="2"/>
<circle cx="280" cy="-114.22583499195753" fill="#000000" r="2"/>
<circle cx="282.5" cy="-114.21793673280627" fill="#000000" r="2"/>
<circle cx="285" cy="-114.21017703980033" fill="#000000" r="2"/>
<circle cx="287.5" cy="-114.20255229818576" fill="#000000" r="2"/>
<circle cx="290" cy="-114.1950590179719" fill="#000000" r="2"/>
<circle cx="292.5" cy="-114.18769382815906" fill="#000000" r="2"/>
<circle cx="295" cy="-114.18045347228569" fill="#000000" r="2"/>
<circle cx="297.5" cy="-114.17333480331581" fill="#000000" r="2"/>
<circle cx="300" cy="-114.16633477902117" fill="#000000" r="2"/>
<circle cx="302.5" cy="-114.15945045785823" fill="#000000" r="2"/>
<circle cx="305" cy="-114.15267899451526" fill="#000000" r="2"/>
<circle cx="307.5" cy="-114.14601763644896" fill="#000000" r="2"/>
<circle cx="310" cy="-114.13946371992643" fill="#000000" r="2"/>
<circle cx="312.5" cy="-114.13301466614939" fill="#000000" r="2"/>
<circle cx="315" cy="-114.12666797845061" fill="#000000" r="2"/>
<circle cx="317.5" cy="-114.1204212388305" fill="#000000" r="2"/>
<circle cx="320" cy="-114.1142721046587" fill="#000000" r="2"/>
<circle cx="322.5" cy="-114.10821830603527" fill="#000000" r="2"/>
<circle cx="325" cy="-114.10225764290469" fill="#000000" r="2"/>
<circle cx="327.5" cy="-114.09638798241697" fill="#000000" r="2"/>
<circle cx="330" cy="-114.09060725628903" fill="#000000" r="2"/>
<circle cx="332.5" cy="-114.08491345857813" fill="#000000" r="2"/>
<circle cx="335" cy="-114.07930464296078" fill="#000000" r="2"/>
<circle cx="337.5" cy="-114.07377892108343" fill="#000000" r="2"/>
<circle cx="340" cy="-114.06833446000626" fill="#000000" r="2"/>
<circle cx="342.5" cy="-114.06296948014158" fill="#000000" r="2"/>
<circle cx="345" cy="-114.0576822537696" fill="#000000" r="2"/>
<circle cx="347.5" cy="-114.05247110264706" fill="#000000" r="2"/>
<circle cx="350" cy="-114.04733439677027" fill="#000000" r="2"/>
<circle cx="352.5" cy="-114.04227055198378" fill="#000000" r="2"/>
<circle cx="355" cy="-114.0372780290733" fill="#000000" r="2"/>
<circle cx="357.5" cy="-114.03235533178668" fill="#000000" r="2"/>
<circle cx="360" cy="-114.02750100534952" fill="#000000" r="2"/>
<circle cx="362.5" cy="-114.02271363522838" fill="#000000" r="2"/>
<circle cx="365" cy="-114.01799184564636" fill="#000000" r="2"/>
<circle cx="367.5" cy="-114.01333429818139" fill="#000000" r="2"/>
<circle cx="370" cy="-114.0087396906941" fill="#000000" r="2"/>
<circle cx="372.5" cy="-114.00420675576122" fill="#000000" r="2"/>
<circle cx="375" cy="-113.9997342600982" fill="#000000" r="2"/>
<circle cx="377.5" cy="-113.9953210029101" fill="#000000" r="2"/>
<circle cx="380" cy="-113.99096581490205" fill="#000000" r="2"/>
<circle cx="382.5" cy="-113.98666755753705" fill="#000000" r="2"/>
<circle cx="385" cy="-113.98242512179907" fill="#000000" r="2"/>
<circle cx="387.5" cy="-113.97823742728603" fill="#000000" r="2"/>
<circle cx="390" cy="-113.9741034212202" fill="#000000" r="2"/>
<circle cx="392.5" cy="-113.97002207762368" fill="#000000" r="2"/>
<circle cx="395" cy="-113.96599239674106" fill="#000000" r="2"/>
<circle cx="397.5" cy="-113.96201340372015" fill="#000000" r="2"/>
<circle cx="400" cy="-113.9580841481996" fill="#000000" r="2"/>
<circle cx="402.5" cy="-113.95420370340192" fill="#000000" r="2"/>
<circle cx="405" cy="-113.95037116530875" fill="#000000" r="2"/>
<circle cx="407.5" cy="-113.94658565233112" fill="#000000" r="2"/>
<circle cx="410" cy="-113.94284630423742" fill="#000000" r="2"/>
<circle cx="412.5" cy="-113.93915228157614" fill="#000000" r="2"/>
<circle cx="415" cy="-113.93550276526366" fill="#000000" r="2"/>
<circle cx="417.5" cy="-113.93189695575954" fill="#000000" r="2"/>
<circle cx="420" cy="-113.92833407265425" fill="#000000" r="2"/>
<circle cx="422.5" cy="-113.92481335392706" fill="#000000" r="2"/>
<circle cx="425" cy="-113.92133405545125" fill="#000000" r="2"/>
<circle cx="427.5" cy="-113.91789545058175" fill="#000000" r="2"/>
<circle cx="430" cy="-113.91449682949558" fill="#000000" r="2"/>
<circle cx="432.5" cy="-113.91113749886183" fill="#000000" r="2"/>
<circle cx="435" cy="-113.90781678134711" fill="#000000" r="2"/>
<circle cx="437.5" cy="-113.9045340148732" fill="#000000" r="2"/>
<circle cx="440" cy="-113.90128855261719" fill="#000000" r="2"/>
<circle cx="442.5" cy="-113.8980797623517" fill="#000000" r="2"/>
<circle cx="445" cy="-113.89490702586772" fill="#000000" r="2"/>
<circle cx="447.5" cy="-113.89176973905705" fill="#000000" r="2"/>
<circle cx="450" cy="-113.88866731100522" fill="#000000" r="2"/>
<circle cx="452.5" cy="-113.88559916390902" fill="#000000" r="2"/>
<circle cx="455" cy="-113.88256473282915" fill="#000000" r="2"/>
<circle cx="457.5" cy="-113.87956346494805" fill="#000000" r="2"/>
<circle cx="460" cy="-113.87659481956992" fill="#000000" r="2"/>
<circle cx="462.5" cy="-113.87365826770838" fill="#000000" r="2"/>
<circle cx="465" cy="-113.87075329167419" fill="#000000" r="2"/>
<circle cx="467.5" cy="-113.8678793849928" fill="#000000" r="2"/>
<circle cx="470" cy="-113.86503605174464" fill="#000000" r="2"/>
<circle cx="472.5" cy="-113.8622228068125" fill="#000000" r="2"/>
<circle cx="475" cy="-113.85943917489203" fill="#000000" r="2"/>
<circle cx="477.5" cy="-113.85668469106895" fill="#000000" r="2"/>
<circle cx="480" cy="-113.8539588998295" fill="#000000" r="2"/>
<circle cx="482.5" cy="-113.85126135514292" fill="#000000" r="2"/>
<circle cx="485" cy="-113.8485916202141" fill="#000000" r="2"/>
<circle cx="487.5" cy="-113.84594926715363" fill="#000000" r="2"/>
<circle cx="490" cy="-113.84333387697795" fill="#000000" r="2"/>
<circle cx="492.5" cy="-113.840745039032" fill="#000000" r="2"/>
<circle cx="495" cy="-113.8381818182097" fill="#000000" r="2"/>
<circle cx="497.5" cy="-113.33333333333333" fill="#000000" r="2"/>
</g>
<g>
<g>
<line stroke="black" stroke-width="1" x1="0" x2="0" y1="0" y2="10"/>
<line stroke="black" stroke-width="1" x1="100" x2="100" y1="0" y2="10"/>
<line stroke="black" stroke-width="1" x1="200" x2="200" y1="0" y2="10"/>
<line stroke="black" stroke-width="1" x1="300" x2="300" y1="0" y2="10"/>
<line stroke="black" stroke-width="1" x1="400" x2="400" y1="0" y2="10"/>
<line stroke="black" stroke-width="1" x1="500" x2="500" y1="0" y2="10"/>
</g>
<line stroke="black" stroke-width="1" x1="0" x2="500" y1="0" y2="0"/>
<g>
<text font-size="12" text-anchor="middle" x="0" y="20">
0
</text>
<text font-size="12" text-anchor="middle" x="100" y="20">
4000000
</text>
<text font-size="12" text-anchor="middle" x="200" y="20">
8000000
</text>
<text font-size="12" text-anchor="middle" x="300" y="20">
12000000
</text>
<text font-size="12" text-anchor="middle" x="400" y="20">
16000000
</text>
<text font-size="12" text-anchor="middle" x="500" y="20">
20000000
</text>
</g>
<text font-size="12" text-anchor="middle" x="250" y="30">
Gas
</text>
</g>
<g>
<g>
<line stroke="black" stroke-width="1" x1="0" x2="-10" y1="0" y2="0"/>
<line stroke="black" stroke-width="1" x1="0" x2="-10" y1="-113.33333333333333" y2="-113.33333333333333"/>
<line stroke="black" stroke-width="1" x1="0" x2="-10" y1="-226.66666666666666" y2="-226.66666666666666"/>
<line stroke="black" stroke-width="1" x1="0" x2="-10" y1="-340" y2="-340"/>
</g>
<line stroke="black" stroke-0="1" x1="0" x2="0" y1="0" y2="-340"/>
<g>
<text dominant-baseline="middle" font-size="12" text-anchor="end" x="-15" y="0">
20995
</text>
<text dominant-baseline="middle" font-size="12" text-anchor="end" x="-15" y="-113.33333333333333">
21000
</text>
<text dominant-baseline="middle" font-size="12" text-anchor="end" x="-15" y="-226.66666666666666">
21005
</text>
<text dominant-baseline="middle" font-size="12" text-anchor="end" x="-15" y="-340">
21010
</text>
</g>
<text font-size="12" text-anchor="middle" transform="rotate(-90 -30 -170)" x="-30" y="-170">
Score
</text>
</g>
</g>
</svg>