<svg viewBox="0 0 600 400" xmlns="http://www.w3.org/2000/svg">
<g transform="translate(50, 360)">
<g>
<circle cx="0" cy="-277.48352" fill="#000000" r="2"/>
<circle cx="2.183406113537118" cy="-277.48352" fill="#000000" r="2"/>
<circle cx="4.366812227074236" cy="-266.3424" fill="#000000" r="2"/>
<circle cx="6.550218340611353" cy="-255.20128" fill="#000000" r="2"/>
<circle cx="8.733624454148472" cy="-244.06016" fill="#000000" r="2"/>
<circle cx="10.91703056768559" cy="-232.91904" fill="#000000" r="2"/>
<circle cx="13.100436681222707" cy="-221.77792" fill="#000000" r="2"/>
<circle cx="15.283842794759826" cy="-221.77792" fill="#000000" r="2"/>
<circle cx="17.467248908296945" cy="-210.6368" fill="#000000" r="2"/>
<circle cx="19.650655021834062" cy="-210.6368" fill="#000000" r="2"/>
<circle cx="21.83406113537118" cy="-199.49568" fill="#000000" r="2"/>
<circle cx="24.017467248908297" cy="-199.49568" fill="#000000" r="2"/>
<circle cx="26.200873362445414" cy="-188.35456" fill="#000000" r="2"/>
<circle cx="28.38427947598253" cy="-188.35456" fill="#000000" r="2"/>
<circle cx="30.56768558951965" cy="-177.21344" fill="#000000" r="2"/>
<circle cx="32.751091703056765" cy="-177.21344" fill="#000000" r="2"/>
<circle cx="34.93449781659389" cy="-177.21344" fill="#000000" r="2"/>
<circle cx="37.11790393013101" cy="-166.07232" fill="#000000" r="2"/>
<circle cx="39.301310043668124" cy="-166.07232" fill="#000000" r="2"/>
<circle cx="41.48471615720524" cy="-166.07232" fill="#000000" r="2"/>
<circle cx="43.66812227074236" cy="-166.07232" fill="#000000" r="2"/>
<circle cx="45.851528384279476" cy="-154.9312" fill="#000000" r="2"/>
<circle cx="48.03493449781659" cy="-154.9312" fill="#000000" r="2"/>
<circle cx="50.21834061135371" cy="-154.9312" fill="#000000" r="2"/>
<circle cx="52.40174672489083" cy="-154.9312" fill="#000000" r="2"/>
<circle cx="54.585152838427945" cy="-143.79008" fill="#000000" r="2"/>
<circle cx="56.76855895196506" cy="-143.79008" fill="#000000" r="2"/>
<circle cx="58.951965065502186" cy="-143.79008" fill="#000000" r="2"/>
<circle cx="61.1353711790393" cy="-143.79008" fill="#000000" r="2"/>
<circle cx="63.31877729257642" cy="-143.79008" fill="#000000" r="2"/>
<circle cx="65.50218340611353" cy="-132.64896" fill="#000000" r="2"/>
<circle cx="67.68558951965065" cy="-132.64896" fill="#000000" r="2"/>
<circle cx="69.86899563318778" cy="-132.64896" fill="#000000" r="2"/>
<circle cx="72.0524017467249" cy="-132.64896" fill="#000000" r="2"/>
<circle cx="74.23580786026201" cy="-132.64896" fill="#000000" r="2"/>
<circle cx="76.41921397379913" cy="-132.64896" fill="#000000" r="2"/>
<circle cx="78.60262008733625" cy="-121.50784" fill="#000000" r="2"/>
<circle cx="80.78602620087337" cy="-121.50784" fill="#000000" r="2"/>
<circle cx="82.96943231441048" cy="-121.50784" fill="#000000" r="2"/>
<circle cx="85.1528384279476" cy="-121.50784" fill="#000000" r="2"/>
<circle cx="87.33624454148472" cy="-121.50784" fill="#000000" r="2"/>
<circle cx="89.51965065502183" cy="-121.50784" fill="#000000" r="2"/>
<circle cx="91.70305676855895" cy="-121.50784" fill="#000000" r="2"/>
<circle cx="93.88646288209607" cy="-121.50784" fill="#000000" r="2"/>
<circle cx="96.06986899563319" cy="-110.36672" fill="#000000" r="2"/>
<circle cx="98.2532751091703" cy="-110.36672" fill="#000000" r="2"/>
<circle cx="100.43668122270742" cy="-110.36672" fill="#000000" r="2"/>
<circle cx="102.62008733624454" cy="-110.36672" fill="#000000" r="2"/>
<circle cx="104.80349344978166" cy="-110.36672" fill="#000000" r="2"/>
<circle cx="106.98689956331877" cy="-110.36672" fill="#000000" r="2"/>
<circle cx="109.17030567685589" cy="-110.36672" fill="#000000" r="2"/>
<circle cx="111.353711790393" cy="-110.36672" fill="#000000" r="2"/>
<circle cx="113.53711790393012" cy="-110.36672" fill="#000000" r="2"/>
<circle cx="115.72052401746726" cy="-110.36672" fill="#000000" r="2"/>
<circle cx="117.90393013100437" cy="-99.2256" fill="#000000" r="2"/>
<circle cx="120.08733624454149" cy="-99.2256" fill="#000000" r="2"/>
<circle cx="122.2707423580786" cy="-99.2256" fill="#000000" r="2"/>
<circle cx="124.45414847161572" cy="-99.2256" fill="#000000" r="2"/>
<circle cx="126.63755458515284" cy="-99.2256" fill="#000000" r="2"/>
<circle cx="128.82096069868996" cy="-99.2256" fill="#000000" r="2"/>
<circle cx="131.00436681222706" cy="-99.2256" fill="#000000" r="2"/>
<circle cx="133.1877729257642" cy="-99.2256" fill="#000000" r="2"/>
<circle cx="135.3711790393013" cy="-99.2256" fill="#000000" r="2"/>
<circle cx="137.55458515283843" cy="-99.2256" fill="#000000" r="2"/>
<circle cx="139.73799126637556" cy="-99.2256" fill="#000000" r="2"/>
<circle cx="141.92139737991266" cy="-99.2256" fill="#000000" r="2"/>
<circle cx="144.1048034934498" cy="-99.2256" fill="#000000" r="2"/>
<circle cx="146.2882096069869" cy="-99.2256" fill="#000000" r="2"/>
<circle cx="148.47161572052403" cy="-99.2256" fill="#000000" r="2"/>
<circle cx="150.65502183406113" cy="-88.08448" fill="#000000" r="2"/>
<circle cx="152.83842794759826" cy="-88.08448" fill="#000000" r="2"/>
<circle cx="155.02183406113537" cy="-88.08448" fill="#000000" r="2"/>
<circle cx="157.2052401746725" cy="-88.08448" fill="#000000" r="2"/>
<circle cx="159.3886462882096" cy="-88.08448" fill="#000000" r="2"/>
<circle cx="161.57205240174673" cy="-88.08448" fill="#000000" r="2"/>
<circle cx="163.75545851528383" cy="-88.08448" fill="#000000" r="2"/>
<circle cx="165.93886462882097" cy="-88.08448" fill="#000000" r="2"/>
<circle cx="168.12227074235807" cy="-88.08448" fill="#000000" r="2"/>
<circle cx="170.3056768558952" cy="-88.08448" fill="#000000" r="2"/>
<circle cx="172.4890829694323" cy="-88.08448" fill="#000000" r="2"/>
<circle cx="174.67248908296943" cy="-88.08448" fill="#000000" r="2"/>
<circle cx="176.85589519650654" cy="-88.08448" fill="#000000" r="2"/>
<circle cx="179.03930131004367" cy="-88.08448" fill="#000000" r="2"/>
<circle cx="181.22270742358077" cy="-88.08448" fill="#000000" r="2"/>
<circle cx="183.4061135371179" cy="-88.08448" fill="#000000" r="2"/>
<circle cx="185.58951965065503" cy="-88.08448" fill="#000000" r="2"/>
<circle cx="187.77292576419214" cy="-88.08448" fill="#000000" r="2"/>
<circle cx="189.95633187772927" cy="-88.08448" fill="#000000" r="2"/>
<circle cx="192.13973799126637" cy="-88.08448" fill="#000000" r="2"/>
<circle cx="194.3231441048035" cy="-88.08448" fill="#000000" r="2"/>
<circle cx="196.5065502183406" cy="-88.08448" fill="#000000" r="2"/>
<circle cx="198.68995633187774" cy="-76.94336" fill="#000000" r="2"/>
<circle cx="200.87336244541484" cy="-76.94336" fill="#000000" r="2"/>
<circle cx="203.05676855895197" cy="-76.94336" fill="#000000" r="2"/>
<circle cx="205.24017467248908" cy="-76.94336" fill="#000000" r="2"/>
<circle cx="207.4235807860262" cy="-76.94336" fill="#000000" r="2"/>
<circle cx="209.6069868995633" cy="-76.94336" fill="#000000" r="2"/>
<circle cx="211.79039301310044" cy="-76.94336" fill="#000000" r="2"/>
<circle cx="213.97379912663754" cy="-76.94336" fill="#000000" r="2"/>
<circle cx="216.15720524017468" cy="-76.94336" fill="#000000" r="2"/>
<circle cx="218.34061135371178" cy="-76.94336" fill="#000000" r="2"/>
<circle cx="220.5240174672489" cy="-76.94336" fill="#000000" r="2"/>
<circle cx="222.707423580786" cy="-76.94336" fill="#000000" r="2"/>
<circle cx="224.89082969432314" cy="-76.94336" fill="#000000" r="2"/>
<circle cx="227.07423580786025" cy="-76.94336" fill="#000000" r="2"/>
<circle cx="229.25764192139738" cy="-76.94336" fill="#000000" r="2"/>
<circle cx="231.4410480349345" cy="-76.94336" fill="#000000" r="2"/>
<circle cx="233.6244541484716" cy="-76.94336" fill="#000000" r="2"/>
<circle cx="235.80786026200875" cy="-76.94336" fill="#000000" r="2"/>
<circle cx="237.99126637554585" cy="-76.94336" fill="#000000" r="2"/>
<circle cx="240.17467248908298" cy="-76.94336" fill="#000000" r="2"/>
<circle cx="242.35807860262008" cy="-76.94336" fill="#000000" r="2"/>
<circle cx="244.5414847161572" cy="-76.94336" fill="#000000" r="2"/>
<circle cx="246.72489082969432" cy="-76.94336" fill="#000000" r="2"/>
<circle cx="248.90829694323145" cy="-76.94336" fill="#000000" r="2"/>
<circle cx="251.09170305676855" cy="-76.94336" fill="#000000" r="2"/>
<circle cx="253.27510917030568" cy="-76.94336" fill="#000000" r="2"/>
<circle cx="255.4585152838428" cy="-76.94336" fill="#000000" r="2"/>
<circle cx="257.6419213973799" cy="-76.94336" fill="#000000" r="2"/>
<circle cx="259.825327510917" cy="-76.94336" fill="#000000" r="2"/>
<circle cx="262.0087336244541" cy="-76.94336" fill="#000000" r="2"/>
<circle cx="264.1921397379913" cy="-76.94336" fill="#000000" r="2"/>
<circle cx="266.3755458515284" cy="-76.94336" fill="#000000" r="2"/>
<circle cx="268.5589519650655" cy="-76.94336" fill="#000000" r="2"/>
<circle cx="270.7423580786026" cy="-76.94336" fill="#000000" r="2"/>
<circle cx="272.92576419213975" cy="-76.94336" fill="#000000" r="2"/>
<circle cx="275.10917030567686" cy="-76.94336" fill="#000000" r="2"/>
<circle cx="277.29257641921396" cy="-76.94336" fill="#000000" r="2"/>
<circle cx="279.4759825327511" cy="-65.80224" fill="#000000" r="2"/>
<circle cx="281.6593886462882" cy="-65.80224" fill="#000000" r="2"/>
<circle cx="283.8427947598253" cy="-65.80224" fill="#000000" r="2"/>
<circle cx="286.0262008733624" cy="-65.80224" fill="#000000" r="2"/>
<circle cx="288.2096069868996" cy="-65.80224" fill="#000000" r="2"/>
<circle cx="290.3930131004367" cy="-65.80224" fill="#000000" r="2"/>
<circle cx="292.5764192139738" cy="-65.80224" fill="#000000" r="2"/>
<circle cx="294.7598253275109" cy="-65.80224" fill="#000000" r="2"/>
<circle cx="296.94323144104806" cy="-65.80224" fill="#000000" r="2"/>
<circle cx="299.12663755458516" cy="-65.80224" fill="#000000" r="2"/>
<circle cx="301.31004366812226" cy="-65.80224" fill="#000000" r="2"/>
<circle cx="303.49344978165936" cy="-65.80224" fill="#000000" r="2"/>
<circle cx="305.6768558951965" cy="-65.80224" fill="#000000" r="2"/>
<circle cx="307.8602620087336" cy="-65.80224" fill="#000000" r="2"/>
<circle cx="310.04366812227073" cy="-65.80224" fill="#000000" r="2"/>
<circle cx="312.22707423580783" cy="-65.80224" fill="#000000" r="2"/>
<circle cx="314.410480349345" cy="-65.80224" fill="#000000" r="2"/>
<circle cx="316.5938864628821" cy="-65.80224" fill="#000000" r="2"/>
<circle cx="318.7772925764192" cy="-65.80224" fill="#000000" r="2"/>
<circle cx="320.96069868995636" cy="-65.80224" fill="#000000" r="2"/>
<circle cx="323.14410480349346" cy="-65.80224" fill="#000000" r="2"/>
<circle cx="325.32751091703057" cy="-65.80224" fill="#000000" r="2"/>
<circle cx="327.51091703056767" cy="-65.80224" fill="#000000" r="2"/>
<circle cx="329.6943231441048" cy="-65.80224" fill="#000000" r="2"/>
<circle cx="331.87772925764193" cy="-65.80224" fill="#000000" r="2"/>
<circle cx="334.06113537117903" cy="-65.80224" fill="#000000" r="2"/>
<circle cx="336.24454148471614" cy="-65.80224" fill="#000000" r="2"/>
<circle cx="338.4279475982533" cy="-65.80224" fill="#000000" r="2"/>
<circle cx="340.6113537117904" cy="-65.80224" fill="#000000" r="2"/>
<circle cx="342.7947598253275" cy="-65.80224" fill="#000000" r="2"/>
<circle cx="344.9781659388646" cy="-65.80224" fill="#000000" r="2"/>
<circle cx="347.16157205240177" cy="-65.80224" fill="#000000" r="2"/>
<circle cx="349.34497816593887" cy="-65.80224" fill="#000000" r="2"/>
<circle cx="351.528384279476" cy="-65.80224" fill="#000000" r="2"/>
<circle cx="353.7117903930131" cy="-65.80224" fill="#000000" r="2"/>
<circle cx="355.89519650655023" cy="-65.80224" fill="#000000" r="2"/>
<circle cx="358.07860262008734" cy="-65.80224" fill="#000000" r="2"/>
<circle cx="360.26200873362444" cy="-65.80224" fill="#000000" r="2"/>
<circle cx="362.44541484716154" cy="-65.80224" fill="#000000" r="2"/>
<circle cx="364.6288209606987" cy="-65.80224" fill="#000000" r="2"/>
<circle cx="366.8122270742358" cy="-65.80224" fill="#000000" r="2"/>
<circle cx="368.9956331877729" cy="-65.80224" fill="#000000" r="2"/>
<circle cx="371.17903930131007" cy="-65.80224" fill="#000000" r="2"/>
<circle cx="373.3624454148472" cy="-65.80224" fill="#000000" r="2"/>
<circle cx="375.5458515283843" cy="-65.80224" fill="#000000" r="2"/>
<circle cx="377.7292576419214" cy="-65.80224" fill="#000000" r="2"/>
<circle cx="379.91266375545854" cy="-65.80224" fill="#000000" r="2"/>
<circle cx="382.09606986899564" cy="-65.80224" fill="#000000" r="2"/>
<circle cx="384.27947598253274" cy="-65.80224" fill="#000000" r="2"/>
<circle cx="386.46288209606985" cy="-65.80224" fill="#000000" r="2"/>
<circle cx="388.646288209607" cy="-65.80224" fill="#000000" r="2"/>
<circle cx="390.8296943231441" cy="-65.80224" fill="#000000" r="2"/>
<circle cx="393.0131004366812" cy="-65.80224" fill="#000000" r="2"/>
<circle cx="395.1965065502183" cy="-65.80224" fill="#000000" r="2"/>
<circle cx="397.3799126637555" cy="-65.80224" fill="#000000" r="2"/>
<circle cx="399.5633187772926" cy="-65.80224" fill="#000000" r="2"/>
<circle cx="401.7467248908297" cy="-65.80224" fill="#000000" r="2"/>
<circle cx="403.9301310043668" cy="-65.80224" fill="#000000" r="2"/>
<circle cx="406.11353711790395" cy="-65.80224" fill="#000000" r="2"/>
<circle cx="408.29694323144105" cy="-65.80224" fill="#000000" r="2"/>
<circle cx="410.48034934497815" cy="-65.80224" fill="#000000" r="2"/>
<circle cx="412.6637554585153" cy="-65.80224" fill="#000000" r="2"/>
<circle cx="414.8471615720524" cy="-65.80224" fill="#000000" r="2"/>
<circle cx="417.0305676855895" cy="-65.80224" fill="#000000" r="2"/>
<circle cx="419.2139737991266" cy="-65.80224" fill="#000000" r="2"/>
<circle cx="421.3973799126638" cy="-65.80224" fill="#000000" r="2"/>
<circle cx="423.5807860262009" cy="-65.80224" fill="#000000" r="2"/>
<circle cx="425.764192139738" cy="-65.80224" fill="#000000" r="2"/>
<circle cx="427.9475982532751" cy="-65.80224" fill="#000000" r="2"/>
<circle cx="430.13100436681225" cy="-65.80224" fill="#000000" r="2"/>
<circle cx="432.31441048034935" cy="-65.80224" fill="#000000" r="2"/>
<circle cx="434.49781659388645" cy="-65.80224" fill="#000000" r="2"/>
</g>
<g>
<circle cx="0" cy="-277.48352" fill="#3503ff" r="2"/>
<circle cx="2.183406113537118" cy="-266.3424" fill="#3503ff" r="2"/>
<circle cx="4.366812227074236" cy="-255.20128" fill="#3503ff" r="2"/>
<circle cx="6.550218340611353" cy="-244.06016" fill="#3503ff" r="2"/>
<circle cx="8.733624454148472" cy="-232.91904" fill="#3503ff" r="2"/>
<circle cx="10.91703056768559" cy="-221.77792" fill="#3503ff" r="2"/>
<circle cx="13.100436681222707" cy="-221.77792" fill="#3503ff" r="2"/>
<circle cx="15.283842794759826" cy="-210.6368" fill="#3503ff" r="2"/>
<circle cx="17.467248908296945" cy="-210.6368" fill="#3503ff" r="2"/>
<circle cx="19.650655021834062" cy="-199.49568" fill="#3503ff" r="2"/>
<circle cx="21.83406113537118" cy="-199.49568" fill="#3503ff" r="2"/>
<circle cx="24.017467248908297" cy="-188.35456" fill="#3503ff" r="2"/>
<circle cx="26.200873362445414" cy="-188.35456" fill="#3503ff" r="2"/>
<circle cx="28.38427947598253" cy="-177.21344" fill="#3503ff" r="2"/>
<circle cx="30.56768558951965" cy="-177.21344" fill="#3503ff" r="2"/>
<circle cx="32.751091703056765" cy="-177.21344" fill="#3503ff" r="2"/>
<circle cx="34.93449781659389" cy="-166.07232" fill="#3503ff" r="2"/>
<circle cx="37.11790393013101" cy="-166.07232" fill="#3503ff" r="2"/>
<circle cx="39.301310043668124" cy="-166.07232" fill="#3503ff" r="2"/>
<circle cx="41.48471615720524" cy="-166.07232" fill="#3503ff" r="2"/>
<circle cx="43.66812227074236" cy="-154.9312" fill="#3503ff" r="2"/>
<circle cx="45.851528384279476" cy="-154.9312" fill="#3503ff" r="2"/>
<circle cx="48.03493449781659" cy="-154.9312" fill="#3503ff" r="2"/>
<circle cx="50.21834061135371" cy="-154.9312" fill="#3503ff" r="2"/>
<circle cx="52.40174672489083" cy="-143.79008" fill="#3503ff" r="2"/>
<circle cx="54.585152838427945" cy="-143.79008" fill="#3503ff" r="2"/>
<circle cx="56.76855895196506" cy="-143.79008" fill="#3503ff" r="2"/>
<circle cx="58.951965065502186" cy="-143.79008" fill="#3503ff" r="2"/>
<circle cx="61.1353711790393" cy="-143.79008" fill="#3503ff" r="2"/>
<circle cx="63.31877729257642" cy="-132.64896" fill="#3503ff" r="2"/>
<circle cx="65.50218340611353" cy="-132.64896" fill="#3503ff" r="2"/>
<circle cx="67.68558951965065" cy="-132.64896" fill="#3503ff" r="2"/>
<circle cx="69.86899563318778" cy="-132.64896" fill="#3503ff" r="2"/>
<circle cx="72.0524017467249" cy="-132.64896" fill="#3503ff" r="2"/>
<circle cx="74.23580786026201" cy="-132.64896" fill="#3503ff" r="2"/>
<circle cx="76.41921397379913" cy="-121.50784" fill="#3503ff" r="2"/>
<circle cx="78.60262008733625" cy="-121.50784" fill="#3503ff" r="2"/>
<circle cx="80.78602620087337" cy="-121.50784" fill="#3503ff" r="2"/>
<circle cx="82.96943231441048" cy="-121.50784" fill="#3503ff" r="2"/>
<circle cx="85.1528384279476" cy="-121.50784" fill="#3503ff" r="2"/>
<circle cx="87.33624454148472" cy="-121.50784" fill="#3503ff" r="2"/>
<circle cx="89.51965065502183" cy="-121.50784" fill="#3503ff" r="2"/>
<circle cx="91.70305676855895" cy="-121.50784" fill="#3503ff" r="2"/>
<circle cx="93.88646288209607" cy="-110.36672" fill="#3503ff" r="2"/>
<circle cx="96.06986899563319" cy="-110.36672" fill="#3503ff" r="2"/>
<circle cx="98.2532751091703" cy="-110.36672" fill="#3503ff" r="2"/>
<circle cx="100.43668122270742" cy="-110.36672" fill="#3503ff" r="2"/>
<circle cx="102.62008733624454" cy="-110.36672" fill="#3503ff" r="2"/>
<circle cx="104.80349344978166" cy="-110.36672" fill="#3503ff" r="2"/>
<circle cx="106.98689956331877" cy="-110.36672" fill="#3503ff" r="2"/>
<circle cx="109.17030567685589" cy="-110.36672" fill="#3503ff" r="2"/>
<circle cx="111.353711790393" cy="-110.36672" fill="#3503ff" r="2"/>
<circle cx="113.53711790393012" cy="-110.36672" fill="#3503ff" r="2"/>
<circle cx="115.72052401746726" cy="-99.2256" fill="#3503ff" r="2"/>
<circle cx="117.90393013100437" cy="-99.2256" fill="#3503ff" r="2"/>
<circle cx="120.08733624454149" cy="-99.2256" fill="#3503ff" r="2"/>
<circle cx="122.2707423580786" cy="-99.2256" fill="#3503ff" r="2"/>
<circle cx="124.45414847161572" cy="-99.2256" fill="#3503ff" r="2"/>
<circle cx="126.63755458515284" cy="-99.2256" fill="#3503ff" r="2"/>
<circle cx="128.82096069868996" cy="-99.2256" fill="#3503ff" r="2"/>
<circle cx="131.00436681222706" cy="-99.2256" fill="#3503ff" r="2"/>
<circle cx="133.1877729257642" cy="-99.2256" fill="#3503ff" r="2"/>
<circle cx="135.3711790393013" cy="-99.2256" fill="#3503ff" r="2"/>
<circle cx="137.55458515283843" cy="-99.2256" fill="#3503ff" r="2"/>
<circle cx="139.73799126637556" cy="-99.2256" fill="#3503ff" r="2"/>
<circle cx="141.92139737991266" cy="-99.2256" fill="#3503ff" r="2"/>
<circle cx="144.1048034934498" cy="-99.2256" fill="#3503ff" r="2"/>
<circle cx="146.2882096069869" cy="-99.2256" fill="#3503ff" r="2"/>
<circle cx="148.47161572052403" cy="-88.08448" fill="#3503ff" r="2"/>
<circle cx="150.65502183406113" cy="-88.08448" fill="#3503ff" r="2"/>
<circle cx="152.83842794759826" cy="-88.08448" fill="#3503ff" r="2"/>
<circle cx="155.02183406113537" cy="-88.08448" fill="#3503ff" r="2"/>
<circle cx="157.2052401746725" cy="-88.08448" fill="#3503ff" r="2"/>
<circle cx="159.3886462882096" cy="-88.08448" fill="#3503ff" r="2"/>
<circle cx="161.57205240174673" cy="-88.08448" fill="#3503ff" r="2"/>
<circle cx="163.75545851528383" cy="-88.08448" fill="#3503ff" r="2"/>
<circle cx="165.93886462882097" cy="-88.08448" fill="#3503ff" r="2"/>
<circle cx="168.12227074235807" cy="-88.08448" fill="#3503ff" r="2"/>
<circle cx="170.3056768558952" cy="-88.08448" fill="#3503ff" r="2"/>
<circle cx="172.4890829694323" cy="-88.08448" fill="#3503ff" r="2"/>
<circle cx="174.67248908296943" cy="-88.08448" fill="#3503ff" r="2"/>
<circle cx="176.85589519650654" cy="-88.08448" fill="#3503ff" r="2"/>
<circle cx="179.03930131004367" cy="-88.08448" fill="#3503ff" r="2"/>
<circle cx="181.22270742358077" cy="-88.08448" fill="#3503ff" r="2"/>
<circle cx="183.4061135371179" cy="-88.08448" fill="#3503ff" r="2"/>
<circle cx="185.58951965065503" cy="-88.08448" fill="#3503ff" r="2"/>
<circle cx="187.77292576419214" cy="-88.08448" fill="#3503ff" r="2"/>
<circle cx="189.95633187772927" cy="-88.08448" fill="#3503ff" r="2"/>
<circle cx="192.13973799126637" cy="-88.08448" fill="#3503ff" r="2"/>
<circle cx="194.3231441048035" cy="-88.08448" fill="#3503ff" r="2"/>
<circle cx="196.5065502183406" cy="-76.94336" fill="#3503ff" r="2"/>
<circle cx="198.68995633187774" cy="-76.94336" fill="#3503ff" r="2"/>
<circle cx="200.87336244541484" cy="-76.94336" fill="#3503ff" r="2"/>
<circle cx="203.05676855895197" cy="-76.94336" fill="#3503ff" r="2"/>
<circle cx="205.24017467248908" cy="-76.94336" fill="#3503ff" r="2"/>
<circle cx="207.4235807860262" cy="-76.94336" fill="#3503ff" r="2"/>
<circle cx="209.6069868995633" cy="-76.94336" fill="#3503ff" r="2"/>
<circle cx="211.79039301310044" cy="-76.94336" fill="#3503ff" r="2"/>
<circle cx="213.97379912663754" cy="-76.94336" fill="#3503ff" r="2"/>
<circle cx="216.15720524017468" cy="-76.94336" fill="#3503ff" r="2"/>
<circle cx="218.34061135371178" cy="-76.94336" fill="#3503ff" r="2"/>
<circle cx="220.5240174672489" cy="-76.94336" fill="#3503ff" r="2"/>
<circle cx="222.707423580786" cy="-76.94336" fill="#3503ff" r="2"/>
<circle cx="224.89082969432314" cy="-76.94336" fill="#3503ff" r="2"/>
<circle cx="227.07423580786025" cy="-76.94336" fill="#3503ff" r="2"/>
<circle cx="229.25764192139738" cy="-76.94336" fill="#3503ff" r="2"/>
<circle cx="231.4410480349345" cy="-76.94336" fill="#3503ff" r="2"/>
<circle cx="233.6244541484716" cy="-76.94336" fill="#3503ff" r="2"/>
<circle cx="235.80786026200875" cy="-76.94336" fill="#3503ff" r="2"/>
<circle cx="237.99126637554585" cy="-76.94336" fill="#3503ff" r="2"/>
<circle cx="240.17467248908298" cy="-76.94336" fill="#3503ff" r="2"/>
<circle cx="242.35807860262008" cy="-76.94336" fill="#3503ff" r="2"/>
<circle cx="244.5414847161572" cy="-76.94336" fill="#3503ff" r="2"/>
<circle cx="246.72489082969432" cy="-76.94336" fill="#3503ff" r="2"/>
<circle cx="248.90829694323145" cy="-76.94336" fill="#3503ff" r="2"/>
<circle cx="251.09170305676855" cy="-76.94336" fill="#3503ff" r="2"/>
<circle cx="253.27510917030568" cy="-76.94336" fill="#3503ff" r="2"/>
<circle cx="255.4585152838428" cy="-76.94336" fill="#3503ff" r="2"/>
<circle cx="257.6419213973799" cy="-76.94336" fill="#3503ff" r="2"/>
<circle cx="259.825327510917" cy="-76.94336" fill="#3503ff" r="2"/>
<circle cx="262.0087336244541" cy="-76.94336" fill="#3503ff" r="2"/>
<circle cx="264.1921397379913" cy="-76.94336" fill="#3503ff" r="2"/>
<circle cx="266.3755458515284" cy="-76.94336" fill="#3503ff" r="2"/>
<circle cx="268.5589519650655" cy="-76.94336" fill="#3503ff" r="2"/>
<circle cx="270.7423580786026" cy="-76.94336" fill="#3503ff" r="2"/>
<circle cx="272.92576419213975" cy="-76.94336" fill="#3503ff" r="2"/>
<circle cx="275.10917030567686" cy="-76.94336" fill="#3503ff" r="2"/>
<circle cx="277.29257641921396" cy="-65.80224" fill="#3503ff" r="2"/>
<circle cx="279.4759825327511" cy="-65.80224" fill="#3503ff" r="2"/>
<circle cx="281.6593886462882" cy="-65.80224" fill="#3503ff" r="2"/>
<circle cx="283.8427947598253" cy="-65.80224" fill="#3503ff" r="2"/>
<circle cx="286.0262008733624" cy="-65.80224" fill="#3503ff" r="2"/>
<circle cx="288.2096069868996" cy="-65.80224" fill="#3503ff" r="2"/>
<circle cx="290.3930131004367" cy="-65.80224" fill="#3503ff" r="2"/>
<circle cx="292.5764192139738" cy="-65.80224" fill="#3503ff" r="2"/>
<circle cx="294.7598253275109" cy="-65.80224" fill="#3503ff" r="2"/>
<circle cx="296.94323144104806" cy="-65.80224" fill="#3503ff" r="2"/>
<circle cx="299.12663755458516" cy="-65.80224" fill="#3503ff" r="2"/>
<circle cx="301.31004366812226" cy="-65.80224" fill="#3503ff" r="2"/>
<circle cx="303.49344978165936" cy="-65.80224" fill="#3503ff" r="2"/>
<circle cx="305.6768558951965" cy="-65.80224" fill="#3503ff" r="2"/>
<circle cx="307.8602620087336" cy="-65.80224" fill="#3503ff" r="2"/>
<circle cx="310.04366812227073" cy="-65.80224" fill="#3503ff" r="2"/>
<circle cx="312.22707423580783" cy="-65.80224" fill="#3503ff" r="2"/>
<circle cx="314.410480349345" cy="-65.80224" fill="#3503ff" r="2"/>
<circle cx="316.5938864628821" cy="-65.80224" fill="#3503ff" r="2"/>
<circle cx="318.7772925764192" cy="-65.80224" fill="#3503ff" r="2"/>
<circle cx="320.96069868995636" cy="-65.80224" fill="#3503ff" r="2"/>
<circle cx="323.14410480349346" cy="-65.80224" fill="#3503ff" r="2"/>
<circle cx="325.32751091703057" cy="-65.80224" fill="#3503ff" r="2"/>
<circle cx="327.51091703056767" cy="-65.80224" fill="#3503ff" r="2"/>
<circle cx="329.6943231441048" cy="-65.80224" fill="#3503ff" r="2"/>
<circle cx="331.87772925764193" cy="-65.80224" fill="#3503ff" r="2"/>
<circle cx="334.06113537117903" cy="-65.80224" fill="#3503ff" r="2"/>
<circle cx="336.24454148471614" cy="-65.80224" fill="#3503ff" r="2"/>
<circle cx="338.4279475982533" cy="-65.80224" fill="#3503ff" r="2"/>
<circle cx="340.6113537117904" cy="-65.80224" fill="#3503ff" r="2"/>
<circle cx="342.7947598253275" cy="-65.80224" fill="#3503ff" r="2"/>
<circle cx="344.9781659388646" cy="-65.80224" fill="#3503ff" r="2"/>
<circle cx="347.16157205240177" cy="-65.80224" fill="#3503ff" r="2"/>
<circle cx="349.34497816593887" cy="-65.80224" fill="#3503ff" r="2"/>
<circle cx="351.528384279476" cy="-65.80224" fill="#3503ff" r="2"/>
<circle cx="353.7117903930131" cy="-65.80224" fill="#3503ff" r="2"/>
<circle cx="355.89519650655023" cy="-65.80224" fill="#3503ff" r="2"/>
<circle cx="358.07860262008734" cy="-65.80224" fill="#3503ff" r="2"/>
<circle cx="360.26200873362444" cy="-65.80224" fill="#3503ff" r="2"/>
<circle cx="362.44541484716154" cy="-65.80224" fill="#3503ff" r="2"/>
<circle cx="364.6288209606987" cy="-65.80224" fill="#3503ff" r="2"/>
<circle cx="366.8122270742358" cy="-65.80224" fill="#3503ff" r="2"/>
<circle cx="368.9956331877729" cy="-65.80224" fill="#3503ff" r="2"/>
<circle cx="371.17903930131007" cy="-65.80224" fill="#3503ff" r="2"/>
<circle cx="373.3624454148472" cy="-65.80224" fill="#3503ff" r="2"/>
<circle cx="375.5458515283843" cy="-65.80224" fill="#3503ff" r="2"/>
<circle cx="377.7292576419214" cy="-65.80224" fill="#3503ff" r="2"/>
<circle cx="379.91266375545854" cy="-65.80224" fill="#3503ff" r="2"/>
<circle cx="382.09606986899564" cy="-65.80224" fill="#3503ff" r="2"/>
<circle cx="384.27947598253274" cy="-65.80224" fill="#3503ff" r="2"/>
<circle cx="386.46288209606985" cy="-65.80224" fill="#3503ff" r="2"/>
<circle cx="388.646288209607" cy="-65.80224" fill="#3503ff" r="2"/>
<circle cx="390.8296943231441" cy="-65.80224" fill="#3503ff" r="2"/>
<circle cx="393.0131004366812" cy="-65.80224" fill="#3503ff" r="2"/>
<circle cx="395.1965065502183" cy="-65.80224" fill="#3503ff" r="2"/>
<circle cx="397.3799126637555" cy="-65.80224" fill="#3503ff" r="2"/>
<circle cx="399.5633187772926" cy="-65.80224" fill="#3503ff" r="2"/>
<circle cx="401.7467248908297" cy="-65.80224" fill="#3503ff" r="2"/>
<circle cx="403.9301310043668" cy="-65.80224" fill="#3503ff" r="2"/>
<circle cx="406.11353711790395" cy="-65.80224" fill="#3503ff" r="2"/>
<circle cx="408.29694323144105" cy="-65.80224" fill="#3503ff" r="2"/>
<circle cx="410.48034934497815" cy="-65.80224" fill="#3503ff" r="2"/>
<circle cx="412.6637554585153" cy="-65.80224" fill="#3503ff" r="2"/>
<circle cx="414.8471615720524" cy="-65.80224" fill="#3503ff" r="2"/>
<circle cx="417.0305676855895" cy="-65.80224" fill="#3503ff" r="2"/>
<circle cx="419.2139737991266" cy="-65.80224" fill="#3503ff" r="2"/>
<circle cx="421.3973799126638" cy="-65.80224" fill="#3503ff" r="2"/>
<circle cx="423.5807860262009" cy="-65.80224" fill="#3503ff" r="2"/>
<circle cx="425.764192139738" cy="-65.80224" fill="#3503ff" r="2"/>
<circle cx="427.9475982532751" cy="-65.80224" fill="#3503ff" r="2"/>
<circle cx="430.13100436681225" cy="-65.80224" fill="#3503ff" r="2"/>
<circle cx="432.31441048034935" cy="-65.80224" fill="#3503ff" r="2"/>
<circle cx="434.49781659388645" cy="-43.52" fill="#3503ff" r="2"/>
</g>
<g>
<circle cx="0" cy="-277.7070529020524" fill="#ff2600" r="2"/>
<circle cx="2.183406113537118" cy="-267.05290203339337" fill="#ff2600" r="2"/>
<circle cx="4.366812227074236" cy="-257.32593973156213" fill="#ff2600" r="2"/>
<circle cx="6.550218340611353" cy="-248.41018218865872" fill="#ff2600" r="2"/>
<circle cx="8.733624454148472" cy="-240.20821560314417" fill="#ff2600" r="2"/>
<circle cx="10.91703056768559" cy="-232.63762278037072" fill="#ff2600" r="2"/>
<circle cx="13.100436681222707" cy="-225.6282042853117" fill="#ff2600" r="2"/>
<circle cx="15.283842794759826" cy="-219.1197954012537" fill="#ff2600" r="2"/>
<circle cx="17.467248908296945" cy="-213.06053500336648" fill="#ff2600" r="2"/>
<circle cx="19.650655021834062" cy="-207.4054808451128" fill="#ff2600" r="2"/>
<circle cx="21.83406113537118" cy="-202.11549299551965" fill="#ff2600" r="2"/>
<circle cx="24.017467248908297" cy="-197.1563267406249" fill="#ff2600" r="2"/>
<circle cx="26.200873362445414" cy="-192.49789049484968" fill="#ff2600" r="2"/>
<circle cx="28.38427947598253" cy="-188.11363473412274" fill="#ff2600" r="2"/>
<circle cx="30.56768558951965" cy="-183.98004573423148" fill="#ff2600" r="2"/>
<circle cx="32.751091703056765" cy="-180.07622372552396" fill="#ff2600" r="2"/>
<circle cx="34.93449781659389" cy="-176.38352948706626" fill="#ff2600" r="2"/>
<circle cx="37.11790393013101" cy="-172.8852867668772" fill="#ff2600" r="2"/>
<circle cx="39.301310043668124" cy="-169.5665305038309" fill="#ff2600" r="2"/>
<circle cx="41.48471615720524" cy="-166.4137928332329" fill="#ff2600" r="2"/>
<circle cx="43.66812227074236" cy="-163.41492042135954" fill="#ff2600" r="2"/>
<circle cx="45.851528384279476" cy="-160.55891790660382" fill="#ff2600" r="2"/>
<circle cx="48.03493449781659" cy="-157.83581319449425" fill="#ff2600" r="2"/>
<circle cx="50.21834061135371" cy="-155.23654112946033" fill="#ff2600" r="2"/>
<circle cx="52.40174672489083" cy="-152.75284268273592" fill="#ff2600" r="2"/>
<circle cx="54.585152838427945" cy="-150.37717729509592" fill="#ff2600" r="2"/>
<circle cx="56.76855895196506" cy="-148.10264641401528" fill="#ff2600" r="2"/>
<circle cx="58.951965065502186" cy="-145.92292659220934" fill="#ff2600" r="2"/>
<circle cx="61.1353711790393" cy="-143.83221078141213" fill="#ff2600" r="2"/>
<circle cx="63.31877729257642" cy="-141.8251566732669" fill="#ff2600" r="2"/>
<circle cx="65.50218340611353" cy="-139.89684111993074" fill="#ff2600" r="2"/>
<circle cx="67.68558951965065" cy="-138.04271981582642" fill="#ff2600" r="2"/>
<circle cx="69.86899563318778" cy="-136.25859154518844" fill="#ff2600" r="2"/>
<circle cx="72.0524017467249" cy="-134.54056640348674" fill="#ff2600" r="2"/>
<circle cx="74.23580786026201" cy="-132.88503748669623" fill="#ff2600" r="2"/>
<circle cx="76.41921397379913" cy="-131.28865561501266" fill="#ff2600" r="2"/>
<circle cx="78.60262008733625" cy="-129.74830671792506" fill="#ff2600" r="2"/>
<circle cx="80.78602620087337" cy="-128.26109155963897" fill="#ff2600" r="2"/>
<circle cx="82.96943231441048" cy="-126.82430752672434" fill="#ff2600" r="2"/>
<circle cx="85.1528384279476" cy="-125.43543223808527" fill="#ff2600" r="2"/>
<circle cx="87.33624454148472" cy="-124.09210876685381" fill="#ff2600" r="2"/>
<circle cx="89.51965065502183" cy="-122.79213229351997" fill="#ff2600" r="2"/>
<circle cx="91.70305676855895" cy="-121.53343803007841" fill="#ff2600" r="2"/>
<circle cx="93.88646288209607" cy="-120.31409027689934" fill="#ff2600" r="2"/>
<circle cx="96.06986899563319" cy="-119.13227248987913" fill="#ff2600" r="2"/>
<circle cx="98.2532751091703" cy="-117.98627825094938" fill="#ff2600" r="2"/>
<circle cx="100.43668122270742" cy="-116.87450304734469" fill="#ff2600" r="2"/>
<circle cx="102.62008733624454" cy="-115.79543677637815" fill="#ff2600" r="2"/>
<circle cx="104.80349344978166" cy="-114.74765690240383" fill="#ff2600" r="2"/>
<circle cx="106.98689956331877" cy="-113.7298222001028" fill="#ff2600" r="2"/>
<circle cx="109.17030567685589" cy="-112.74066702702522" fill="#ff2600" r="2"/>
<circle cx="111.353711790393" cy="-111.77899607318402" fill="#ff2600" r="2"/>
<circle cx="113.53711790393012" cy="-110.84367954279185" fill="#ff2600" r="2"/>
<circle cx="115.72052401746726" cy="-109.93364872606993" fill="#ff2600" r="2"/>
<circle cx="117.90393013100437" cy="-109.04789192619086" fill="#ff2600" r="2"/>
<circle cx="120.08733624454149" cy="-108.18545070718766" fill="#ff2600" r="2"/>
<circle cx="122.2707423580786" cy="-107.34541643465995" fill="#ff2600" r="2"/>
<circle cx="124.45414847161572" cy="-106.52692708268881" fill="#ff2600" r="2"/>
<circle cx="126.63755458515284" cy="-105.72916428308726" fill="#ff2600" r="2"/>
<circle cx="128.82096069868996" cy="-104.95135059607267" fill="#ff2600" r="2"/>
<circle cx="131.00436681222706" cy="-104.1927469834733" fill="#ff2600" r="2"/>
<circle cx="133.1877729257642" cy="-103.45265046622991" fill="#ff2600" r="2"/>
<circle cx="135.3711790393013" cy="-102.73039195204734" fill="#ff2600" r="2"/>
<circle cx="137.55458515283843" cy="-102.02533421751022" fill="#ff2600" r="2"/>
<circle cx="139.73799126637556" cy="-101.3368700332737" fill="#ff2600" r="2"/>
<circle cx="141.92139737991266" cy="-100.66442041968345" fill="#ff2600" r="2"/>
<circle cx="144.1048034934498" cy="-100.00743302289486" fill="#ff2600" r="2"/>
<circle cx="146.2882096069869" cy="-99.36538060172319" fill="#ff2600" r="2"/>
<circle cx="148.47161572052403" cy="-98.73775961647034" fill="#ff2600" r="2"/>
<circle cx="150.65502183406113" cy="-98.12408891198635" fill="#ff2600" r="2"/>
<circle cx="152.83842794759826" cy="-97.52390848730565" fill="#ff2600" r="2"/>
<circle cx="155.02183406113537" cy="-96.93677834594011" fill="#ff2600" r="2"/>
<circle cx="157.2052401746725" cy="-96.36227741993905" fill="#ff2600" r="2"/>
<circle cx="159.3886462882096" cy="-95.8000025629735" fill="#ff2600" r="2"/>
<circle cx="161.57205240174673" cy="-95.24956760685205" fill="#ff2600" r="2"/>
<circle cx="163.75545851528383" cy="-94.71060247709036" fill="#ff2600" r="2"/>
<circle cx="165.93886462882097" cy="-94.18275236303568" fill="#ff2600" r="2"/>
<circle cx="168.12227074235807" cy="-93.6656769392228" fill="#ff2600" r="2"/>
<circle cx="170.3056768558952" cy="-93.1590496333003" fill="#ff2600" r="2"/>
<circle cx="172.4890829694323" cy="-92.66255693854093" fill="#ff2600" r="2"/>
<circle cx="174.67248908296943" cy="-92.17589776672125" fill="#ff2600" r="2"/>
<circle cx="176.85589519650654" cy="-91.69878283938408" fill="#ff2600" r="2"/>
<circle cx="179.03930131004367" cy="-91.23093411428214" fill="#ff2600" r="2"/>
<circle cx="181.22270742358077" cy="-90.7720842451787" fill="#ff2600" r="2"/>
<circle cx="183.4061135371179" cy="-90.32197607241153" fill="#ff2600" r="2"/>
<circle cx="185.58951965065503" cy="-89.88036214235544" fill="#ff2600" r="2"/>
<circle cx="187.77292576419214" cy="-89.44700425359487" fill="#ff2600" r="2"/>
<circle cx="189.95633187772927" cy="-89.02167302867174" fill="#ff2600" r="2"/>
<circle cx="192.13973799126637" cy="-88.60414750926017" fill="#ff2600" r="2"/>
<circle cx="194.3231441048035" cy="-88.1942147732687" fill="#ff2600" r="2"/>
<circle cx="196.5065502183406" cy="-87.7916695729375" fill="#ff2600" r="2"/>
<circle cx="198.68995633187774" cy="-87.3963139919448" fill="#ff2600" r="2"/>
<circle cx="200.87336244541484" cy="-87.00795712131978" fill="#ff2600" r="2"/>
<circle cx="203.05676855895197" cy="-86.62641475168944" fill="#ff2600" r="2"/>
<circle cx="205.24017467248908" cy="-86.25150908206224" fill="#ff2600" r="2"/>
<circle cx="207.4235807860262" cy="-85.88306844368934" fill="#ff2600" r="2"/>
<circle cx="209.6069868995633" cy="-85.5209270377469" fill="#ff2600" r="2"/>
<circle cx="211.79039301310044" cy="-85.16492468675852" fill="#ff2600" r="2"/>
<circle cx="213.97379912663754" cy="-84.81490659821749" fill="#ff2600" r="2"/>
<circle cx="216.15720524017468" cy="-84.4707231401658" fill="#ff2600" r="2"/>
<circle cx="218.34061135371178" cy="-84.13222962816238" fill="#ff2600" r="2"/>
<circle cx="220.5240174672489" cy="-83.79928612214088" fill="#ff2600" r="2"/>
<circle cx="222.707423580786" cy="-83.47175723376513" fill="#ff2600" r="2"/>
<circle cx="224.89082969432314" cy="-83.14951194266081" fill="#ff2600" r="2"/>
<circle cx="227.07423580786025" cy="-82.83242342196941" fill="#ff2600" r="2"/>
<circle cx="229.25764192139738" cy="-82.52036887156248" fill="#ff2600" r="2"/>
<circle cx="231.4410480349345" cy="-82.21322935972691" fill="#ff2600" r="2"/>
<circle cx="233.6244541484716" cy="-81.91088967190265" fill="#ff2600" r="2"/>
<circle cx="235.80786026200875" cy="-81.61323816667557" fill="#ff2600" r="2"/>
<circle cx="237.99126637554585" cy="-81.32016663825512" fill="#ff2600" r="2"/>
<circle cx="240.17467248908298" cy="-81.03157018539667" fill="#ff2600" r="2"/>
<circle cx="242.35807860262008" cy="-80.74734708616019" fill="#ff2600" r="2"/>
<circle cx="244.5414847161572" cy="-80.46739867830277" fill="#ff2600" r="2"/>
<circle cx="246.72489082969432" cy="-80.19162924526454" fill="#ff2600" r="2"/>
<circle cx="248.90829694323145" cy="-79.91994590689659" fill="#ff2600" r="2"/>
<circle cx="251.09170305676855" cy="-79.65225851521492" fill="#ff2600" r="2"/>
<circle cx="253.27510917030568" cy="-79.38847955477476" fill="#ff2600" r="2"/>
<circle cx="255.4585152838428" cy="-79.12852404709815" fill="#ff2600" r="2"/>
<circle cx="257.6419213973799" cy="-78.87230945947886" fill="#ff2600" r="2"/>
<circle cx="259.825327510917" cy="-78.61975561767817" fill="#ff2600" r="2"/>
<circle cx="262.0087336244541" cy="-78.37078462222814" fill="#ff2600" r="2"/>
<circle cx="264.1921397379913" cy="-78.12532076830149" fill="#ff2600" r="2"/>
<circle cx="266.3755458515284" cy="-77.88329046898603" fill="#ff2600" r="2"/>
<circle cx="268.5589519650655" cy="-77.64462218176126" fill="#ff2600" r="2"/>
<circle cx="270.7423580786026" cy="-77.40924633793354" fill="#ff2600" r="2"/>
<circle cx="272.92576419213975" cy="-77.1770952751112" fill="#ff2600" r="2"/>
<circle cx="275.10917030567686" cy="-76.94810317227363" fill="#ff2600" r="2"/>
<circle cx="277.29257641921396" cy="-76.72220598763704" fill="#ff2600" r="2"/>
<circle cx="279.4759825327511" cy="-76.49934139883041" fill="#ff2600" r="2"/>
<circle cx="281.6593886462882" cy="-76.27944874566555" fill="#ff2600" r="2"/>
<circle cx="283.8427947598253" cy="-76.06246897505521" fill="#ff2600" r="2"/>
<circle cx="286.0262008733624" cy="-75.84834458824157" fill="#ff2600" r="2"/>
<circle cx="288.2096069868996" cy="-75.63701958972692" fill="#ff2600" r="2"/>
<circle cx="290.3930131004367" cy="-75.42843943875789" fill="#ff2600" r="2"/>
<circle cx="292.5764192139738" cy="-75.22255100226879" fill="#ff2600" r="2"/>
<circle cx="294.7598253275109" cy="-75.01930250968933" fill="#ff2600" r="2"/>
<circle cx="296.94323144104806" cy="-74.81864350969792" fill="#ff2600" r="2"/>
<circle cx="299.12663755458516" cy="-74.62052482827187" fill="#ff2600" r="2"/>
<circle cx="301.31004366812226" cy="-74.42489852876425" fill="#ff2600" r="2"/>
<circle cx="303.49344978165936" cy="-74.23171787303448" fill="#ff2600" r="2"/>
<circle cx="305.6768558951965" cy="-74.0409372842002" fill="#ff2600" r="2"/>
<circle cx="307.8602620087336" cy="-73.85251231105089" fill="#ff2600" r="2"/>
<circle cx="310.04366812227073" cy="-73.66639959319114" fill="#ff2600" r="2"/>
<circle cx="312.22707423580783" cy="-73.48255682804823" fill="#ff2600" r="2"/>
<circle cx="314.410480349345" cy="-73.30094273852825" fill="#ff2600" r="2"/>
<circle cx="316.5938864628821" cy="-73.12151704245568" fill="#ff2600" r="2"/>
<circle cx="318.7772925764192" cy="-72.9442404225397" fill="#ff2600" r="2"/>
<circle cx="320.96069868995636" cy="-72.7690744977188" fill="#ff2600" r="2"/>
<circle cx="323.14410480349346" cy="-72.5959817955184" fill="#ff2600" r="2"/>
<circle cx="325.32751091703057" cy="-72.42492572517872" fill="#ff2600" r="2"/>
<circle cx="327.51091703056767" cy="-72.25587055207967" fill="#ff2600" r="2"/>
<circle cx="329.6943231441048" cy="-72.08878137269258" fill="#ff2600" r="2"/>
<circle cx="331.87772925764193" cy="-71.9236240905857" fill="#ff2600" r="2"/>
<circle cx="334.06113537117903" cy="-71.76036539324045" fill="#ff2600" r="2"/>
<circle cx="336.24454148471614" cy="-71.59897272971868" fill="#ff2600" r="2"/>
<circle cx="338.4279475982533" cy="-71.43941428885698" fill="#ff2600" r="2"/>
<circle cx="340.6113537117904" cy="-71.2816589785552" fill="#ff2600" r="2"/>
<circle cx="342.7947598253275" cy="-71.12567640547037" fill="#ff2600" r="2"/>
<circle cx="344.9781659388646" cy="-70.9714368555212" fill="#ff2600" r="2"/>
<circle cx="347.16157205240177" cy="-70.81891127496004" fill="#ff2600" r="2"/>
<circle cx="349.34497816593887" cy="-70.66807125229597" fill="#ff2600" r="2"/>
<circle cx="351.528384279476" cy="-70.5188890004611" fill="#ff2600" r="2"/>
<circle cx="353.7117903930131" cy="-70.37133733978749" fill="#ff2600" r="2"/>
<circle cx="355.89519650655023" cy="-70.22538968163252" fill="#ff2600" r="2"/>
<circle cx="358.07860262008734" cy="-70.08102001220703" fill="#ff2600" r="2"/>
<circle cx="360.26200873362444" cy="-69.93820287733554" fill="#ff2600" r="2"/>
<circle cx="362.44541484716154" cy="-69.79691336721659" fill="#ff2600" r="2"/>
<circle cx="364.6288209606987" cy="-69.65712710227727" fill="#ff2600" r="2"/>
<circle cx="366.8122270742358" cy="-69.51882021882534" fill="#ff2600" r="2"/>
<circle cx="368.9956331877729" cy="-69.38196935571432" fill="#ff2600" r="2"/>
<circle cx="371.17903930131007" cy="-69.24655164104938" fill="#ff2600" r="2"/>
<circle cx="373.3624454148472" cy="-69.11254467946053" fill="#ff2600" r="2"/>
<circle cx="375.5458515283843" cy="-68.97992653986216" fill="#ff2600" r="2"/>
<circle cx="377.7292576419214" cy="-68.84867574329377" fill="#ff2600" r="2"/>
<circle cx="379.91266375545854" cy="-68.71877125149011" fill="#ff2600" r="2"/>
<circle cx="382.09606986899564" cy="-68.59019245561362" fill="#ff2600" r="2"/>
<circle cx="384.27947598253274" cy="-68.46291916531086" fill="#ff2600" r="2"/>
<circle cx="386.46288209606985" cy="-68.33693159805298" fill="#ff2600" r="2"/>
<circle cx="388.646288209607" cy="-68.21221036916495" fill="#ff2600" r="2"/>
<circle cx="390.8296943231441" cy="-68.0887364815712" fill="#ff2600" r="2"/>
<circle cx="393.0131004366812" cy="-67.96649131635189" fill="#ff2600" r="2"/>
<circle cx="395.1965065502183" cy="-67.84545662329913" fill="#ff2600" r="2"/>
<circle cx="397.3799126637555" cy="-67.72561451179743" fill="#ff2600" r="2"/>
<circle cx="399.5633187772926" cy="-67.60694744215012" fill="#ff2600" r="2"/>
<circle cx="401.7467248908297" cy="-67.4894382169056" fill="#ff2600" r="2"/>
<circle cx="403.9301310043668" cy="-67.37306997258902" fill="#ff2600" r="2"/>
<circle cx="406.11353711790395" cy="-67.25782617151499" fill="#ff2600" r="2"/>
<circle cx="408.29694323144105" cy="-67.14369059420824" fill="#ff2600" r="2"/>
<circle cx="410.48034934497815" cy="-67.03064733158112" fill="#ff2600" r="2"/>
<circle cx="412.6637554585153" cy="-66.9186807775569" fill="#ff2600" r="2"/>
<circle cx="414.8471615720524" cy="-66.80777562205792" fill="#ff2600" r="2"/>
<circle cx="417.0305676855895" cy="-66.697916843791" fill="#ff2600" r="2"/>
<circle cx="419.2139737991266" cy="-66.58908970364094" fill="#ff2600" r="2"/>
<circle cx="421.3973799126638" cy="-66.48127973798275" fill="#ff2600" r="2"/>
<circle cx="423.5807860262009" cy="-66.37447275231838" fill="#ff2600" r="2"/>
<circle cx="425.764192139738" cy="-66.2686548150754" fill="#ff2600" r="2"/>
<circle cx="427.9475982532751" cy="-66.16381225144625" fill="#ff2600" r="2"/>
<circle cx="430.13100436681225" cy="-66.05993143128872" fill="#ff2600" r="2"/>
<circle cx="432.31441048034935" cy="-65.95485808218956" fill="#ff2600" r="2"/>
<circle cx="434.49781659388645" cy="-43.52" fill="#ff2600" r="2"/>
</g>
<g>
<g>
<line stroke="black" stroke-width="1" x1="41.48471615720524" x2="41.48471615720524" y1="0" y2="10"/>
<line stroke="black" stroke-width="1" x1="128.82096069868996" x2="128.82096069868996" y1="0" y2="10"/>
<line stroke="black" stroke-width="1" x1="216.15720524017468" x2="216.15720524017468" y1="0" y2="10"/>
<line stroke="black" stroke-width="1" x1="303.49344978165936" x2="303.49344978165936" y1="0" y2="10"/>
<line stroke="black" stroke-width="1" x1="390.8296943231441" x2="390.8296943231441" y1="0" y2="10"/>
<line stroke="black" stroke-width="1" x1="478.1659388646288" x2="478.1659388646288" y1="0" y2="10"/>
</g>
<line stroke="black" stroke-width="1" x1="0" x2="500" y1="0" y2="0"/>
<g>
<text font-size="12" text-anchor="middle" x="41.48471615720524" y="20">
40000
</text>
<text font-size="12" text-anchor="middle" x="128.82096069868996" y="20">
80000
</text>
<text font-size="12" text-anchor="middle" x="216.15720524017468" y="20">
120000
</text>
<text font-size="12" text-anchor="middle" x="303.49344978165936" y="20">
160000
</text>
<text font-size="12" text-anchor="middle" x="390.8296943231441" y="20">
200000
</text>
<text font-size="12" text-anchor="middle" x="478.1659388646288" y="20">
240000
</text>
</g>
<text font-size="12" text-anchor="middle" x="250" y="30">
Gas
</text>
</g>
<g>
<g>
<line stroke="black" stroke-width="1" x1="0" x2="-10" y1="0" y2="0"/>
<line stroke="black" stroke-width="1" x1="0" x2="-10" y1="-68" y2="-68"/>
<line stroke="black" stroke-width="1" x1="0" x2="-10" y1="-136" y2="-136"/>
<line stroke="black" stroke-width="1" x1="0" x2="-10" y1="-204" y2="-204"/>
<line stroke="black" stroke-width="1" x1="0" x2="-10" y1="-272" y2="-272"/>
<line stroke="black" stroke-width="1" x1="0" x2="-10" y1="-340" y2="-340"/>
</g>
<line stroke="black" stroke-0="1" x1="0" x2="0" y1="0" y2="-340"/>
<g>
<text dominant-baseline="middle" font-size="12" text-anchor="end" x="-15" y="0">
688000000
</text>
<text dominant-baseline="middle" font-size="12" text-anchor="end" x="-15" y="-68">
688200000
</text>
<text dominant-baseline="middle" font-size="12" text-anchor="end" x="-15" y="-136">
688400000
</text>
<text dominant-baseline="middle" font-size="12" text-anchor="end" x="-15" y="-204">
688600000
</text>
<text dominant-baseline="middle" font-size="12" text-anchor="end" x="-15" y="-272">
688800000
</text>
<text dominant-baseline="middle" font-size="12" text-anchor="end" x="-15" y="-340">
689000000
</text>
</g>
<text font-size="12" text-anchor="middle" transform="rotate(-90 -30 -170)" x="-30" y="-170">
Score
</text>
</g>
</g>
</svg>