<svg viewBox="0 0 600 400" xmlns="http://www.w3.org/2000/svg">
<g transform="translate(50, 360)">
<g>
<circle cx="0" cy="-340.3248420381453" fill="#ff2600" r="2"/>
<circle cx="2.183406113537118" cy="-324.8420381577173" fill="#ff2600" r="2"/>
<circle cx="4.366812227074236" cy="-310.70664139748084" fill="#ff2600" r="2"/>
<circle cx="6.550218340611353" cy="-297.75010199941227" fill="#ff2600" r="2"/>
<circle cx="8.733624454148472" cy="-285.8308564731176" fill="#ff2600" r="2"/>
<circle cx="10.91703056768559" cy="-274.8291346673807" fill="#ff2600" r="2"/>
<circle cx="13.100436681222707" cy="-264.6429214990535" fill="#ff2600" r="2"/>
<circle cx="15.283842794759826" cy="-255.1847845186456" fill="#ff2600" r="2"/>
<circle cx="17.467248908296945" cy="-246.37935820567887" fill="#ff2600" r="2"/>
<circle cx="19.650655021834062" cy="-238.16133167824708" fill="#ff2600" r="2"/>
<circle cx="21.83406113537118" cy="-230.47382608401588" fill="#ff2600" r="2"/>
<circle cx="24.017467248908297" cy="-223.26707638786175" fill="#ff2600" r="2"/>
<circle cx="26.200873362445414" cy="-216.49735295589548" fill="#ff2600" r="2"/>
<circle cx="28.38427947598253" cy="-210.12607354172738" fill="#ff2600" r="2"/>
<circle cx="30.56768558951965" cy="-204.1190675779013" fill="#ff2600" r="2"/>
<circle cx="32.751091703056765" cy="-198.44596314279596" fill="#ff2600" r="2"/>
<circle cx="34.93449781659389" cy="-193.07967338501243" fill="#ff2600" r="2"/>
<circle cx="37.11790393013101" cy="-187.99596407479373" fill="#ff2600" r="2"/>
<circle cx="39.301310043668124" cy="-183.17308771599784" fill="#ff2600" r="2"/>
<circle cx="41.48471615720524" cy="-178.59147256500555" fill="#ff2600" r="2"/>
<circle cx="43.66812227074236" cy="-174.23345717854798" fill="#ff2600" r="2"/>
<circle cx="45.851528384279476" cy="-170.08306289905448" fill="#ff2600" r="2"/>
<circle cx="48.03493449781659" cy="-166.1257980993297" fill="#ff2600" r="2"/>
<circle cx="50.21834061135371" cy="-162.34848913203925" fill="#ff2600" r="2"/>
<circle cx="52.40174672489083" cy="-158.73913382793776" fill="#ff2600" r="2"/>
<circle cx="54.585152838427945" cy="-155.28677411047508" fill="#ff2600" r="2"/>
<circle cx="56.76855895196506" cy="-151.98138487899212" fill="#ff2600" r="2"/>
<circle cx="58.951965065502186" cy="-148.81377678602934" fill="#ff2600" r="2"/>
<circle cx="61.1353711790393" cy="-145.77551092446316" fill="#ff2600" r="2"/>
<circle cx="63.31877729257642" cy="-142.8588237555674" fill="#ff2600" r="2"/>
<circle cx="65.50218340611353" cy="-140.056560872274" fill="#ff2600" r="2"/>
<circle cx="67.68558951965065" cy="-137.36211840793956" fill="#ff2600" r="2"/>
<circle cx="69.86899563318778" cy="-134.7693910801108" fill="#ff2600" r="2"/>
<circle cx="72.0524017467249" cy="-132.2727260095044" fill="#ff2600" r="2"/>
<circle cx="74.23580786026201" cy="-129.86688157826896" fill="#ff2600" r="2"/>
<circle cx="76.41921397379913" cy="-127.54699069798924" fill="#ff2600" r="2"/>
<circle cx="78.60262008733625" cy="-125.30852794528938" fill="#ff2600" r="2"/>
<circle cx="80.78602620087337" cy="-123.14728009849088" fill="#ff2600" r="2"/>
<circle cx="82.96943231441048" cy="-121.0593196712411" fill="#ff2600" r="2"/>
<circle cx="85.1528384279476" cy="-119.04098109372892" fill="#ff2600" r="2"/>
<circle cx="87.33624454148472" cy="-117.08883923754328" fill="#ff2600" r="2"/>
<circle cx="89.51965065502183" cy="-115.19969001917868" fill="#ff2600" r="2"/>
<circle cx="91.70305676855895" cy="-113.37053285158704" fill="#ff2600" r="2"/>
<circle cx="93.88646288209607" cy="-111.59855474112089" fill="#ff2600" r="2"/>
<circle cx="96.06986899563319" cy="-109.8811158532952" fill="#ff2600" r="2"/>
<circle cx="98.2532751091703" cy="-108.21573639058741" fill="#ff2600" r="2"/>
<circle cx="100.43668122270742" cy="-106.60008464607643" fill="#ff2600" r="2"/>
<circle cx="102.62008733624454" cy="-105.03196611152497" fill="#ff2600" r="2"/>
<circle cx="104.80349344978166" cy="-103.50931353236315" fill="#ff2600" r="2"/>
<circle cx="106.98689956331877" cy="-102.0301778159244" fill="#ff2600" r="2"/>
<circle cx="109.17030567685589" cy="-100.59271970767527" fill="#ff2600" r="2"/>
<circle cx="111.353711790393" cy="-99.19520216181874" fill="#ff2600" r="2"/>
<circle cx="113.53711790393012" cy="-97.83598333854694" fill="#ff2600" r="2"/>
<circle cx="115.72052401746726" cy="-96.5135101697594" fill="#ff2600" r="2"/>
<circle cx="117.90393013100437" cy="-95.22631243925774" fill="#ff2600" r="2"/>
<circle cx="120.08733624454149" cy="-93.97299733067165" fill="#ff2600" r="2"/>
<circle cx="122.2707423580786" cy="-92.75224440024932" fill="#ff2600" r="2"/>
<circle cx="124.45414847161572" cy="-91.56280093627748" fill="#ff2600" r="2"/>
<circle cx="126.63755458515284" cy="-90.40347767140716" fill="#ff2600" r="2"/>
<circle cx="128.82096069868996" cy="-89.27314481622074" fill="#ff2600" r="2"/>
<circle cx="131.00436681222706" cy="-88.17072838696652" fill="#ff2600" r="2"/>
<circle cx="133.1877729257642" cy="-87.09520680197049" fill="#ff2600" r="2"/>
<circle cx="135.3711790393013" cy="-86.04560772420373" fill="#ff2600" r="2"/>
<circle cx="137.55458515283843" cy="-85.02100512914592" fill="#ff2600" r="2"/>
<circle cx="139.73799126637556" cy="-84.02051658017328" fill="#ff2600" r="2"/>
<circle cx="141.92139737991266" cy="-83.04330069361953" fill="#ff2600" r="2"/>
<circle cx="144.1048034934498" cy="-82.08855477890465" fill="#ff2600" r="2"/>
<circle cx="146.2882096069869" cy="-81.15551263967994" fill="#ff2600" r="2"/>
<circle cx="148.47161572052403" cy="-80.24344252300682" fill="#ff2600" r="2"/>
<circle cx="150.65502183406113" cy="-79.35164520552615" fill="#ff2600" r="2"/>
<circle cx="152.83842794759826" cy="-78.47945220557507" fill="#ff2600" r="2"/>
<circle cx="155.02183406113537" cy="-77.62622411226621" fill="#ff2600" r="2"/>
<circle cx="157.2052401746725" cy="-76.79134902218823" fill="#ff2600" r="2"/>
<circle cx="159.3886462882096" cy="-75.97424107577186" fill="#ff2600" r="2"/>
<circle cx="161.57205240174673" cy="-75.17433908643434" fill="#ff2600" r="2"/>
<circle cx="163.75545851528383" cy="-74.39110525525874" fill="#ff2600" r="2"/>
<circle cx="165.93886462882097" cy="-73.62402396507328" fill="#ff2600" r="2"/>
<circle cx="168.12227074235807" cy="-72.87260064874543" fill="#ff2600" r="2"/>
<circle cx="170.3056768558952" cy="-72.13636072547641" fill="#ff2600" r="2"/>
<circle cx="172.4890829694323" cy="-71.41484860161319" fill="#ff2600" r="2"/>
<circle cx="174.67248908296943" cy="-70.70762673039688" fill="#ff2600" r="2"/>
<circle cx="176.85589519650654" cy="-70.01427472704556" fill="#ff2600" r="2"/>
<circle cx="179.03930131004367" cy="-69.33438853564905" fill="#ff2600" r="2"/>
<circle cx="181.22270742358077" cy="-68.66757964383811" fill="#ff2600" r="2"/>
<circle cx="183.4061135371179" cy="-68.01347434261581" fill="#ff2600" r="2"/>
<circle cx="185.58951965065503" cy="-67.37171302774921" fill="#ff2600" r="2"/>
<circle cx="187.77292576419214" cy="-66.74194954074221" fill="#ff2600" r="2"/>
<circle cx="189.95633187772927" cy="-66.12385054622311" fill="#ff2600" r="2"/>
<circle cx="192.13973799126637" cy="-65.5170949434908" fill="#ff2600" r="2"/>
<circle cx="194.3231441048035" cy="-64.92137331031961" fill="#ff2600" r="2"/>
<circle cx="196.5065502183406" cy="-64.33638737692498" fill="#ff2600" r="2"/>
<circle cx="198.68995633187774" cy="-63.76184952795273" fill="#ff2600" r="2"/>
<circle cx="200.87336244541484" cy="-63.19748233078979" fill="#ff2600" r="2"/>
<circle cx="203.05676855895197" cy="-62.643018089167306" fill="#ff2600" r="2"/>
<circle cx="205.24017467248908" cy="-62.09819841956254" fill="#ff2600" r="2"/>
<circle cx="207.4235807860262" cy="-61.56277384976624" fill="#ff2600" r="2"/>
<circle cx="209.6069868995633" cy="-61.03650343795307" fill="#ff2600" r="2"/>
<circle cx="211.79039301310044" cy="-60.519154411344786" fill="#ff2600" r="2"/>
<circle cx="213.97379912663754" cy="-60.01050182264531" fill="#ff2600" r="2"/>
<circle cx="216.15720524017468" cy="-59.51032822408946" fill="#ff2600" r="2"/>
<circle cx="218.34061135371178" cy="-59.01842335752212" fill="#ff2600" r="2"/>
<circle cx="220.5240174672489" cy="-58.53458385959733" fill="#ff2600" r="2"/>
<circle cx="222.707423580786" cy="-58.05861298150383" fill="#ff2600" r="2"/>
<circle cx="224.89082969432314" cy="-57.590320322187615" fill="#ff2600" r="2"/>
<circle cx="227.07423580786025" cy="-57.12952157443855" fill="#ff2600" r="2"/>
<circle cx="229.25764192139738" cy="-56.676038282930385" fill="#ff2600" r="2"/>
<circle cx="231.4410480349345" cy="-56.229697613976896" fill="#ff2600" r="2"/>
<circle cx="233.6244541484716" cy="-55.790332135697824" fill="#ff2600" r="2"/>
<circle cx="235.80786026200875" cy="-55.3577796088322" fill="#ff2600" r="2"/>
<circle cx="237.99126637554585" cy="-54.9318827867345" fill="#ff2600" r="2"/>
<circle cx="240.17467248908298" cy="-54.51248922498897" fill="#ff2600" r="2"/>
<circle cx="242.35807860262008" cy="-54.09945109945489" fill="#ff2600" r="2"/>
<circle cx="244.5414847161572" cy="-53.69262503242586" fill="#ff2600" r="2"/>
<circle cx="246.72489082969432" cy="-53.29187192682409" fill="#ff2600" r="2"/>
<circle cx="248.90829694323145" cy="-52.89705680755898" fill="#ff2600" r="2"/>
<circle cx="251.09170305676855" cy="-52.50804867004976" fill="#ff2600" r="2"/>
<circle cx="253.27510917030568" cy="-52.12472033516038" fill="#ff2600" r="2"/>
<circle cx="255.4585152838428" cy="-51.74694831062574" fill="#ff2600" r="2"/>
<circle cx="257.6419213973799" cy="-51.374612658533735" fill="#ff2600" r="2"/>
<circle cx="259.825327510917" cy="-51.00759686815087" fill="#ff2600" r="2"/>
<circle cx="262.0087336244541" cy="-50.64578773460584" fill="#ff2600" r="2"/>
<circle cx="264.1921397379913" cy="-50.28907524228329" fill="#ff2600" r="2"/>
<circle cx="266.3755458515284" cy="-49.93735245332355" fill="#ff2600" r="2"/>
<circle cx="268.5589519650655" cy="-49.590515400832516" fill="#ff2600" r="2"/>
<circle cx="270.7423580786026" cy="-49.24846298644552" fill="#ff2600" r="2"/>
<circle cx="272.92576419213975" cy="-48.911096881849225" fill="#ff2600" r="2"/>
<circle cx="275.10917030567686" cy="-48.57832143481588" fill="#ff2600" r="2"/>
<circle cx="277.29257641921396" cy="-48.25004357856233" fill="#ff2600" r="2"/>
<circle cx="279.4759825327511" cy="-47.926172745225486" fill="#ff2600" r="2"/>
<circle cx="281.6593886462882" cy="-47.60662078226684" fill="#ff2600" r="2"/>
<circle cx="283.8427947598253" cy="-47.29130187271628" fill="#ff2600" r="2"/>
<circle cx="286.0262008733624" cy="-46.98013245826587" fill="#ff2600" r="2"/>
<circle cx="288.2096069868996" cy="-46.67303116533207" fill="#ff2600" r="2"/>
<circle cx="290.3930131004367" cy="-46.36991873428458" fill="#ff2600" r="2"/>
<circle cx="292.5764192139738" cy="-46.07071795112919" fill="#ff2600" r="2"/>
<circle cx="294.7598253275109" cy="-45.77535358204041" fill="#ff2600" r="2"/>
<circle cx="296.94323144104806" cy="-45.4837523101503" fill="#ff2600" r="2"/>
<circle cx="299.12663755458516" cy="-45.195842675028835" fill="#ff2600" r="2"/>
<circle cx="301.31004366812226" cy="-44.91155501414323" fill="#ff2600" r="2"/>
<circle cx="303.49344978165936" cy="-44.63082140681101" fill="#ff2600" r="2"/>
<circle cx="305.6768558951965" cy="-44.35357561997371" fill="#ff2600" r="2"/>
<circle cx="307.8602620087336" cy="-44.07975305618718" fill="#ff2600" r="2"/>
<circle cx="310.04366812227073" cy="-43.809290703472215" fill="#ff2600" r="2"/>
<circle cx="312.22707423580783" cy="-43.54212708686711" fill="#ff2600" r="2"/>
<circle cx="314.410480349345" cy="-43.2782022218802" fill="#ff2600" r="2"/>
<circle cx="316.5938864628821" cy="-43.01745756960474" fill="#ff2600" r="2"/>
<circle cx="318.7772925764192" cy="-42.75983599349624" fill="#ff2600" r="2"/>
<circle cx="320.96069868995636" cy="-42.505281717535105" fill="#ff2600" r="2"/>
<circle cx="323.14410480349346" cy="-42.2537402859726" fill="#ff2600" r="2"/>
<circle cx="325.32751091703057" cy="-42.00515852454119" fill="#ff2600" r="2"/>
<circle cx="327.51091703056767" cy="-41.75948450301075" fill="#ff2600" r="2"/>
<circle cx="329.6943231441048" cy="-41.51666749893222" fill="#ff2600" r="2"/>
<circle cx="331.87772925764193" cy="-41.27665796276648" fill="#ff2600" r="2"/>
<circle cx="334.06113537117903" cy="-41.0394074841612" fill="#ff2600" r="2"/>
<circle cx="336.24454148471614" cy="-40.80486875945469" fill="#ff2600" r="2"/>
<circle cx="338.4279475982533" cy="-40.5729955602088" fill="#ff2600" r="2"/>
<circle cx="340.6113537117904" cy="-40.3437427027314" fill="#ff2600" r="2"/>
<circle cx="342.7947598253275" cy="-40.117066018944605" fill="#ff2600" r="2"/>
<circle cx="344.9781659388646" cy="-39.89292232768843" fill="#ff2600" r="2"/>
<circle cx="347.16157205240177" cy="-39.67126940768678" fill="#ff2600" r="2"/>
<circle cx="349.34497816593887" cy="-39.45206597075099" fill="#ff2600" r="2"/>
<circle cx="351.528384279476" cy="-39.2352716361708" fill="#ff2600" r="2"/>
<circle cx="353.7117903930131" cy="-39.02084690609481" fill="#ff2600" r="2"/>
<circle cx="355.89519650655023" cy="-38.80875314130681" fill="#ff2600" r="2"/>
<circle cx="358.07860262008734" cy="-38.59895253822906" fill="#ff2600" r="2"/>
<circle cx="360.26200873362444" cy="-38.391408106202725" fill="#ff2600" r="2"/>
<circle cx="362.44541484716154" cy="-38.1860836460744" fill="#ff2600" r="2"/>
<circle cx="364.6288209606987" cy="-37.98294372886186" fill="#ff2600" r="2"/>
<circle cx="366.8122270742358" cy="-37.781953675488474" fill="#ff2600" r="2"/>
<circle cx="368.9956331877729" cy="-37.58307953711133" fill="#ff2600" r="2"/>
<circle cx="371.17903930131007" cy="-37.386288075805645" fill="#ff2600" r="2"/>
<circle cx="373.3624454148472" cy="-37.191546746357346" fill="#ff2600" r="2"/>
<circle cx="375.5458515283843" cy="-36.99882367793703" fill="#ff2600" r="2"/>
<circle cx="377.7292576419214" cy="-36.80808765708003" fill="#ff2600" r="2"/>
<circle cx="379.91266375545854" cy="-36.61930811054772" fill="#ff2600" r="2"/>
<circle cx="382.09606986899564" cy="-36.43245508921798" fill="#ff2600" r="2"/>
<circle cx="384.27947598253274" cy="-36.24749925201526" fill="#ff2600" r="2"/>
<circle cx="386.46288209606985" cy="-36.06441185079049" fill="#ff2600" r="2"/>
<circle cx="388.646288209607" cy="-35.88316471524071" fill="#ff2600" r="2"/>
<circle cx="390.8296943231441" cy="-35.70373023854103" fill="#ff2600" r="2"/>
<circle cx="393.0131004366812" cy="-35.52608136329334" fill="#ff2600" r="2"/>
<circle cx="395.1965065502183" cy="-35.35019156798953" fill="#ff2600" r="2"/>
<circle cx="397.3799126637555" cy="-35.17603485371219" fill="#ff2600" r="2"/>
<circle cx="399.5633187772926" cy="-35.003585731389464" fill="#ff2600" r="2"/>
<circle cx="401.7467248908297" cy="-34.83281920940615" fill="#ff2600" r="2"/>
<circle cx="403.9301310043668" cy="-34.663710781373084" fill="#ff2600" r="2"/>
<circle cx="406.11353711790395" cy="-34.49623641460901" fill="#ff2600" r="2"/>
<circle cx="408.29694323144105" cy="-34.33037253854331" fill="#ff2600" r="2"/>
<circle cx="410.48034934497815" cy="-34.166096033831124" fill="#ff2600" r="2"/>
<circle cx="412.6637554585153" cy="-34.003384221468586" fill="#ff2600" r="2"/>
<circle cx="414.8471615720524" cy="-33.84221485254122" fill="#ff2600" r="2"/>
<circle cx="417.0305676855895" cy="-33.68256609785371" fill="#ff2600" r="2"/>
<circle cx="419.2139737991266" cy="-33.52441653827205" fill="#ff2600" r="2"/>
<circle cx="421.3973799126638" cy="-33.367745154947045" fill="#ff2600" r="2"/>
<circle cx="423.5807860262009" cy="-33.21253132025013" fill="#ff2600" r="2"/>
<circle cx="425.764192139738" cy="-33.05875478847185" fill="#ff2600" r="2"/>
<circle cx="427.9475982532751" cy="-32.90639568719315" fill="#ff2600" r="2"/>
<circle cx="430.13100436681225" cy="-32.755434208868536" fill="#ff2600" r="2"/>
<circle cx="432.31441048034935" cy="-32.60273972602794" fill="#ff2600" r="2"/>
<circle cx="434.49781659388645" cy="0" fill="#ff2600" r="2"/>
</g>
<g>
<circle cx="0" cy="-340.3248420381453" fill="#3503ff" r="2"/>
<circle cx="2.183406113537118" cy="-324.8420381577173" fill="#3503ff" r="2"/>
<circle cx="4.366812227074236" cy="-310.70664139748084" fill="#3503ff" r="2"/>
<circle cx="6.550218340611353" cy="-297.75010199941227" fill="#3503ff" r="2"/>
<circle cx="8.733624454148472" cy="-285.8308564731176" fill="#3503ff" r="2"/>
<circle cx="10.91703056768559" cy="-274.8291346673807" fill="#3503ff" r="2"/>
<circle cx="13.100436681222707" cy="-264.6429214990535" fill="#3503ff" r="2"/>
<circle cx="15.283842794759826" cy="-255.1847845186456" fill="#3503ff" r="2"/>
<circle cx="17.467248908296945" cy="-246.37935820567887" fill="#3503ff" r="2"/>
<circle cx="19.650655021834062" cy="-238.16133167824708" fill="#3503ff" r="2"/>
<circle cx="21.83406113537118" cy="-230.47382608401588" fill="#3503ff" r="2"/>
<circle cx="24.017467248908297" cy="-223.26707638786175" fill="#3503ff" r="2"/>
<circle cx="26.200873362445414" cy="-216.49735295589548" fill="#3503ff" r="2"/>
<circle cx="28.38427947598253" cy="-210.12607354172738" fill="#3503ff" r="2"/>
<circle cx="30.56768558951965" cy="-204.1190675779013" fill="#3503ff" r="2"/>
<circle cx="32.751091703056765" cy="-198.44596314279596" fill="#3503ff" r="2"/>
<circle cx="34.93449781659389" cy="-193.07967338501243" fill="#3503ff" r="2"/>
<circle cx="37.11790393013101" cy="-187.99596407479373" fill="#3503ff" r="2"/>
<circle cx="39.301310043668124" cy="-183.17308771599784" fill="#3503ff" r="2"/>
<circle cx="41.48471615720524" cy="-178.59147256500555" fill="#3503ff" r="2"/>
<circle cx="43.66812227074236" cy="-174.23345717854798" fill="#3503ff" r="2"/>
<circle cx="45.851528384279476" cy="-170.08306289905448" fill="#3503ff" r="2"/>
<circle cx="48.03493449781659" cy="-166.1257980993297" fill="#3503ff" r="2"/>
<circle cx="50.21834061135371" cy="-162.34848913203925" fill="#3503ff" r="2"/>
<circle cx="52.40174672489083" cy="-158.73913382793776" fill="#3503ff" r="2"/>
<circle cx="54.585152838427945" cy="-155.28677411047508" fill="#3503ff" r="2"/>
<circle cx="56.76855895196506" cy="-151.98138487899212" fill="#3503ff" r="2"/>
<circle cx="58.951965065502186" cy="-148.81377678602934" fill="#3503ff" r="2"/>
<circle cx="61.1353711790393" cy="-145.77551092446316" fill="#3503ff" r="2"/>
<circle cx="63.31877729257642" cy="-142.8588237555674" fill="#3503ff" r="2"/>
<circle cx="65.50218340611353" cy="-140.056560872274" fill="#3503ff" r="2"/>
<circle cx="67.68558951965065" cy="-137.36211840793956" fill="#3503ff" r="2"/>
<circle cx="69.86899563318778" cy="-134.7693910801108" fill="#3503ff" r="2"/>
<circle cx="72.0524017467249" cy="-132.2727260095044" fill="#3503ff" r="2"/>
<circle cx="74.23580786026201" cy="-129.86688157826896" fill="#3503ff" r="2"/>
<circle cx="76.41921397379913" cy="-127.54699069798924" fill="#3503ff" r="2"/>
<circle cx="78.60262008733625" cy="-125.30852794528938" fill="#3503ff" r="2"/>
<circle cx="80.78602620087337" cy="-123.14728009849088" fill="#3503ff" r="2"/>
<circle cx="82.96943231441048" cy="-121.0593196712411" fill="#3503ff" r="2"/>
<circle cx="85.1528384279476" cy="-119.04098109372892" fill="#3503ff" r="2"/>
<circle cx="87.33624454148472" cy="-117.08883923754328" fill="#3503ff" r="2"/>
<circle cx="89.51965065502183" cy="-115.19969001917868" fill="#3503ff" r="2"/>
<circle cx="91.70305676855895" cy="-113.37053285158704" fill="#3503ff" r="2"/>
<circle cx="93.88646288209607" cy="-111.59855474112089" fill="#3503ff" r="2"/>
<circle cx="96.06986899563319" cy="-109.8811158532952" fill="#3503ff" r="2"/>
<circle cx="98.2532751091703" cy="-108.21573639058741" fill="#3503ff" r="2"/>
<circle cx="100.43668122270742" cy="-106.60008464607643" fill="#3503ff" r="2"/>
<circle cx="102.62008733624454" cy="-105.03196611152497" fill="#3503ff" r="2"/>
<circle cx="104.80349344978166" cy="-103.50931353236315" fill="#3503ff" r="2"/>
<circle cx="106.98689956331877" cy="-102.0301778159244" fill="#3503ff" r="2"/>
<circle cx="109.17030567685589" cy="-100.59271970767527" fill="#3503ff" r="2"/>
<circle cx="111.353711790393" cy="-99.19520216181874" fill="#3503ff" r="2"/>
<circle cx="113.53711790393012" cy="-97.83598333854694" fill="#3503ff" r="2"/>
<circle cx="115.72052401746726" cy="-96.5135101697594" fill="#3503ff" r="2"/>
<circle cx="117.90393013100437" cy="-95.22631243925774" fill="#3503ff" r="2"/>
<circle cx="120.08733624454149" cy="-93.97299733067165" fill="#3503ff" r="2"/>
<circle cx="122.2707423580786" cy="-92.75224440024932" fill="#3503ff" r="2"/>
<circle cx="124.45414847161572" cy="-91.56280093627748" fill="#3503ff" r="2"/>
<circle cx="126.63755458515284" cy="-90.40347767140716" fill="#3503ff" r="2"/>
<circle cx="128.82096069868996" cy="-89.27314481622074" fill="#3503ff" r="2"/>
<circle cx="131.00436681222706" cy="-88.17072838696652" fill="#3503ff" r="2"/>
<circle cx="133.1877729257642" cy="-87.09520680197049" fill="#3503ff" r="2"/>
<circle cx="135.3711790393013" cy="-86.04560772420373" fill="#3503ff" r="2"/>
<circle cx="137.55458515283843" cy="-85.02100512914592" fill="#3503ff" r="2"/>
<circle cx="139.73799126637556" cy="-84.02051658017328" fill="#3503ff" r="2"/>
<circle cx="141.92139737991266" cy="-83.04330069361953" fill="#3503ff" r="2"/>
<circle cx="144.1048034934498" cy="-82.08855477890465" fill="#3503ff" r="2"/>
<circle cx="146.2882096069869" cy="-81.15551263967994" fill="#3503ff" r="2"/>
<circle cx="148.47161572052403" cy="-80.24344252300682" fill="#3503ff" r="2"/>
<circle cx="150.65502183406113" cy="-79.35164520552615" fill="#3503ff" r="2"/>
<circle cx="152.83842794759826" cy="-78.47945220557507" fill="#3503ff" r="2"/>
<circle cx="155.02183406113537" cy="-77.62622411226621" fill="#3503ff" r="2"/>
<circle cx="157.2052401746725" cy="-76.79134902218823" fill="#3503ff" r="2"/>
<circle cx="159.3886462882096" cy="-75.97424107577186" fill="#3503ff" r="2"/>
<circle cx="161.57205240174673" cy="-75.17433908643434" fill="#3503ff" r="2"/>
<circle cx="163.75545851528383" cy="-74.39110525525874" fill="#3503ff" r="2"/>
<circle cx="165.93886462882097" cy="-73.62402396507328" fill="#3503ff" r="2"/>
<circle cx="168.12227074235807" cy="-72.87260064874543" fill="#3503ff" r="2"/>
<circle cx="170.3056768558952" cy="-72.13636072547641" fill="#3503ff" r="2"/>
<circle cx="172.4890829694323" cy="-71.41484860161319" fill="#3503ff" r="2"/>
<circle cx="174.67248908296943" cy="-70.70762673039688" fill="#3503ff" r="2"/>
<circle cx="176.85589519650654" cy="-70.01427472704556" fill="#3503ff" r="2"/>
<circle cx="179.03930131004367" cy="-69.33438853564905" fill="#3503ff" r="2"/>
<circle cx="181.22270742358077" cy="-68.66757964383811" fill="#3503ff" r="2"/>
<circle cx="183.4061135371179" cy="-68.01347434261581" fill="#3503ff" r="2"/>
<circle cx="185.58951965065503" cy="-67.37171302774921" fill="#3503ff" r="2"/>
<circle cx="187.77292576419214" cy="-66.74194954074221" fill="#3503ff" r="2"/>
<circle cx="189.95633187772927" cy="-66.12385054622311" fill="#3503ff" r="2"/>
<circle cx="192.13973799126637" cy="-65.5170949434908" fill="#3503ff" r="2"/>
<circle cx="194.3231441048035" cy="-64.92137331031961" fill="#3503ff" r="2"/>
<circle cx="196.5065502183406" cy="-64.33638737692498" fill="#3503ff" r="2"/>
<circle cx="198.68995633187774" cy="-63.76184952795273" fill="#3503ff" r="2"/>
<circle cx="200.87336244541484" cy="-63.19748233078979" fill="#3503ff" r="2"/>
<circle cx="203.05676855895197" cy="-62.643018089167306" fill="#3503ff" r="2"/>
<circle cx="205.24017467248908" cy="-62.09819841956254" fill="#3503ff" r="2"/>
<circle cx="207.4235807860262" cy="-61.56277384976624" fill="#3503ff" r="2"/>
<circle cx="209.6069868995633" cy="-61.03650343795307" fill="#3503ff" r="2"/>
<circle cx="211.79039301310044" cy="-60.519154411344786" fill="#3503ff" r="2"/>
<circle cx="213.97379912663754" cy="-60.01050182264531" fill="#3503ff" r="2"/>
<circle cx="216.15720524017468" cy="-59.51032822408946" fill="#3503ff" r="2"/>
<circle cx="218.34061135371178" cy="-59.01842335752212" fill="#3503ff" r="2"/>
<circle cx="220.5240174672489" cy="-58.53458385959733" fill="#3503ff" r="2"/>
<circle cx="222.707423580786" cy="-58.05861298150383" fill="#3503ff" r="2"/>
<circle cx="224.89082969432314" cy="-57.590320322187615" fill="#3503ff" r="2"/>
<circle cx="227.07423580786025" cy="-57.12952157443855" fill="#3503ff" r="2"/>
<circle cx="229.25764192139738" cy="-56.676038282930385" fill="#3503ff" r="2"/>
<circle cx="231.4410480349345" cy="-56.229697613976896" fill="#3503ff" r="2"/>
<circle cx="233.6244541484716" cy="-55.790332135697824" fill="#3503ff" r="2"/>
<circle cx="235.80786026200875" cy="-55.3577796088322" fill="#3503ff" r="2"/>
<circle cx="237.99126637554585" cy="-54.9318827867345" fill="#3503ff" r="2"/>
<circle cx="240.17467248908298" cy="-54.51248922498897" fill="#3503ff" r="2"/>
<circle cx="242.35807860262008" cy="-54.09945109945489" fill="#3503ff" r="2"/>
<circle cx="244.5414847161572" cy="-53.69262503242586" fill="#3503ff" r="2"/>
<circle cx="246.72489082969432" cy="-53.29187192682409" fill="#3503ff" r="2"/>
<circle cx="248.90829694323145" cy="-52.89705680755898" fill="#3503ff" r="2"/>
<circle cx="251.09170305676855" cy="-52.50804867004976" fill="#3503ff" r="2"/>
<circle cx="253.27510917030568" cy="-52.12472033516038" fill="#3503ff" r="2"/>
<circle cx="255.4585152838428" cy="-51.74694831062574" fill="#3503ff" r="2"/>
<circle cx="257.6419213973799" cy="-51.374612658533735" fill="#3503ff" r="2"/>
<circle cx="259.825327510917" cy="-51.00759686815087" fill="#3503ff" r="2"/>
<circle cx="262.0087336244541" cy="-50.64578773460584" fill="#3503ff" r="2"/>
<circle cx="264.1921397379913" cy="-50.28907524228329" fill="#3503ff" r="2"/>
<circle cx="266.3755458515284" cy="-49.93735245332355" fill="#3503ff" r="2"/>
<circle cx="268.5589519650655" cy="-49.590515400832516" fill="#3503ff" r="2"/>
<circle cx="270.7423580786026" cy="-49.24846298644552" fill="#3503ff" r="2"/>
<circle cx="272.92576419213975" cy="-48.911096881849225" fill="#3503ff" r="2"/>
<circle cx="275.10917030567686" cy="-48.57832143481588" fill="#3503ff" r="2"/>
<circle cx="277.29257641921396" cy="-48.25004357856233" fill="#3503ff" r="2"/>
<circle cx="279.4759825327511" cy="-47.926172745225486" fill="#3503ff" r="2"/>
<circle cx="281.6593886462882" cy="-47.60662078226684" fill="#3503ff" r="2"/>
<circle cx="283.8427947598253" cy="-47.29130187271628" fill="#3503ff" r="2"/>
<circle cx="286.0262008733624" cy="-46.98013245826587" fill="#3503ff" r="2"/>
<circle cx="288.2096069868996" cy="-46.67303116533207" fill="#3503ff" r="2"/>
<circle cx="290.3930131004367" cy="-46.36991873428458" fill="#3503ff" r="2"/>
<circle cx="292.5764192139738" cy="-46.07071795112919" fill="#3503ff" r="2"/>
<circle cx="294.7598253275109" cy="-45.77535358204041" fill="#3503ff" r="2"/>
<circle cx="296.94323144104806" cy="-45.4837523101503" fill="#3503ff" r="2"/>
<circle cx="299.12663755458516" cy="-45.195842675028835" fill="#3503ff" r="2"/>
<circle cx="301.31004366812226" cy="-44.91155501414323" fill="#3503ff" r="2"/>
<circle cx="303.49344978165936" cy="-44.63082140681101" fill="#3503ff" r="2"/>
<circle cx="305.6768558951965" cy="-44.35357561997371" fill="#3503ff" r="2"/>
<circle cx="307.8602620087336" cy="-44.07975305618718" fill="#3503ff" r="2"/>
<circle cx="310.04366812227073" cy="-43.809290703472215" fill="#3503ff" r="2"/>
<circle cx="312.22707423580783" cy="-43.54212708686711" fill="#3503ff" r="2"/>
<circle cx="314.410480349345" cy="-43.2782022218802" fill="#3503ff" r="2"/>
<circle cx="316.5938864628821" cy="-43.01745756960474" fill="#3503ff" r="2"/>
<circle cx="318.7772925764192" cy="-42.75983599349624" fill="#3503ff" r="2"/>
<circle cx="320.96069868995636" cy="-42.505281717535105" fill="#3503ff" r="2"/>
<circle cx="323.14410480349346" cy="-42.2537402859726" fill="#3503ff" r="2"/>
<circle cx="325.32751091703057" cy="-42.00515852454119" fill="#3503ff" r="2"/>
<circle cx="327.51091703056767" cy="-41.75948450301075" fill="#3503ff" r="2"/>
<circle cx="329.6943231441048" cy="-41.51666749893222" fill="#3503ff" r="2"/>
<circle cx="331.87772925764193" cy="-41.27665796276648" fill="#3503ff" r="2"/>
<circle cx="334.06113537117903" cy="-41.0394074841612" fill="#3503ff" r="2"/>
<circle cx="336.24454148471614" cy="-40.80486875945469" fill="#3503ff" r="2"/>
<circle cx="338.4279475982533" cy="-40.5729955602088" fill="#3503ff" r="2"/>
<circle cx="340.6113537117904" cy="-40.3437427027314" fill="#3503ff" r="2"/>
<circle cx="342.7947598253275" cy="-40.117066018944605" fill="#3503ff" r="2"/>
<circle cx="344.9781659388646" cy="-39.89292232768843" fill="#3503ff" r="2"/>
<circle cx="347.16157205240177" cy="-39.67126940768678" fill="#3503ff" r="2"/>
<circle cx="349.34497816593887" cy="-39.45206597075099" fill="#3503ff" r="2"/>
<circle cx="351.528384279476" cy="-39.2352716361708" fill="#3503ff" r="2"/>
<circle cx="353.7117903930131" cy="-39.02084690609481" fill="#3503ff" r="2"/>
<circle cx="355.89519650655023" cy="-38.80875314130681" fill="#3503ff" r="2"/>
<circle cx="358.07860262008734" cy="-38.59895253822906" fill="#3503ff" r="2"/>
<circle cx="360.26200873362444" cy="-38.391408106202725" fill="#3503ff" r="2"/>
<circle cx="362.44541484716154" cy="-38.1860836460744" fill="#3503ff" r="2"/>
<circle cx="364.6288209606987" cy="-37.98294372886186" fill="#3503ff" r="2"/>
<circle cx="366.8122270742358" cy="-37.781953675488474" fill="#3503ff" r="2"/>
<circle cx="368.9956331877729" cy="-37.58307953711133" fill="#3503ff" r="2"/>
<circle cx="371.17903930131007" cy="-37.386288075805645" fill="#3503ff" r="2"/>
<circle cx="373.3624454148472" cy="-37.191546746357346" fill="#3503ff" r="2"/>
<circle cx="375.5458515283843" cy="-36.99882367793703" fill="#3503ff" r="2"/>
<circle cx="377.7292576419214" cy="-36.80808765708003" fill="#3503ff" r="2"/>
<circle cx="379.91266375545854" cy="-36.61930811054772" fill="#3503ff" r="2"/>
<circle cx="382.09606986899564" cy="-36.43245508921798" fill="#3503ff" r="2"/>
<circle cx="384.27947598253274" cy="-36.24749925201526" fill="#3503ff" r="2"/>
<circle cx="386.46288209606985" cy="-36.06441185079049" fill="#3503ff" r="2"/>
<circle cx="388.646288209607" cy="-35.88316471524071" fill="#3503ff" r="2"/>
<circle cx="390.8296943231441" cy="-35.70373023854103" fill="#3503ff" r="2"/>
<circle cx="393.0131004366812" cy="-35.52608136329334" fill="#3503ff" r="2"/>
<circle cx="395.1965065502183" cy="-35.35019156798953" fill="#3503ff" r="2"/>
<circle cx="397.3799126637555" cy="-35.17603485371219" fill="#3503ff" r="2"/>
<circle cx="399.5633187772926" cy="-35.003585731389464" fill="#3503ff" r="2"/>
<circle cx="401.7467248908297" cy="-34.83281920940615" fill="#3503ff" r="2"/>
<circle cx="403.9301310043668" cy="-34.663710781373084" fill="#3503ff" r="2"/>
<circle cx="406.11353711790395" cy="-34.49623641460901" fill="#3503ff" r="2"/>
<circle cx="408.29694323144105" cy="-34.33037253854331" fill="#3503ff" r="2"/>
<circle cx="410.48034934497815" cy="-34.166096033831124" fill="#3503ff" r="2"/>
<circle cx="412.6637554585153" cy="-34.003384221468586" fill="#3503ff" r="2"/>
<circle cx="414.8471615720524" cy="-33.84221485254122" fill="#3503ff" r="2"/>
<circle cx="417.0305676855895" cy="-33.68256609785371" fill="#3503ff" r="2"/>
<circle cx="419.2139737991266" cy="-33.52441653827205" fill="#3503ff" r="2"/>
<circle cx="421.3973799126638" cy="-33.367745154947045" fill="#3503ff" r="2"/>
<circle cx="423.5807860262009" cy="-33.21253132025013" fill="#3503ff" r="2"/>
<circle cx="425.764192139738" cy="-33.05875478847185" fill="#3503ff" r="2"/>
<circle cx="427.9475982532751" cy="-32.90639568719315" fill="#3503ff" r="2"/>
<circle cx="430.13100436681225" cy="-32.755434208868536" fill="#3503ff" r="2"/>
<circle cx="432.31441048034935" cy="-32.60273972602794" fill="#3503ff" r="2"/>
<circle cx="434.49781659388645" cy="0" fill="#3503ff" r="2"/>
</g>
<g>
<circle cx="0" cy="-340.3248420381453" fill="#000000" r="2"/>
<circle cx="2.183406113537118" cy="-324.8420381577173" fill="#000000" r="2"/>
<circle cx="4.366812227074236" cy="-310.70664139748084" fill="#000000" r="2"/>
<circle cx="6.550218340611353" cy="-297.75010199941227" fill="#000000" r="2"/>
<circle cx="8.733624454148472" cy="-285.8308564731176" fill="#000000" r="2"/>
<circle cx="10.91703056768559" cy="-274.8291346673807" fill="#000000" r="2"/>
<circle cx="13.100436681222707" cy="-264.6429214990535" fill="#000000" r="2"/>
<circle cx="15.283842794759826" cy="-255.1847845186456" fill="#000000" r="2"/>
<circle cx="17.467248908296945" cy="-246.37935820567887" fill="#000000" r="2"/>
<circle cx="19.650655021834062" cy="-238.16133167824708" fill="#000000" r="2"/>
<circle cx="21.83406113537118" cy="-230.47382608401588" fill="#000000" r="2"/>
<circle cx="24.017467248908297" cy="-223.26707638786175" fill="#000000" r="2"/>
<circle cx="26.200873362445414" cy="-216.49735295589548" fill="#000000" r="2"/>
<circle cx="28.38427947598253" cy="-210.12607354172738" fill="#000000" r="2"/>
<circle cx="30.56768558951965" cy="-204.1190675779013" fill="#000000" r="2"/>
<circle cx="32.751091703056765" cy="-198.44596314279596" fill="#000000" r="2"/>
<circle cx="34.93449781659389" cy="-193.07967338501243" fill="#000000" r="2"/>
<circle cx="37.11790393013101" cy="-187.99596407479373" fill="#000000" r="2"/>
<circle cx="39.301310043668124" cy="-183.17308771599784" fill="#000000" r="2"/>
<circle cx="41.48471615720524" cy="-178.59147256500555" fill="#000000" r="2"/>
<circle cx="43.66812227074236" cy="-174.23345717854798" fill="#000000" r="2"/>
<circle cx="45.851528384279476" cy="-170.08306289905448" fill="#000000" r="2"/>
<circle cx="48.03493449781659" cy="-166.1257980993297" fill="#000000" r="2"/>
<circle cx="50.21834061135371" cy="-162.34848913203925" fill="#000000" r="2"/>
<circle cx="52.40174672489083" cy="-158.73913382793776" fill="#000000" r="2"/>
<circle cx="54.585152838427945" cy="-155.28677411047508" fill="#000000" r="2"/>
<circle cx="56.76855895196506" cy="-151.98138487899212" fill="#000000" r="2"/>
<circle cx="58.951965065502186" cy="-148.81377678602934" fill="#000000" r="2"/>
<circle cx="61.1353711790393" cy="-145.77551092446316" fill="#000000" r="2"/>
<circle cx="63.31877729257642" cy="-142.8588237555674" fill="#000000" r="2"/>
<circle cx="65.50218340611353" cy="-140.056560872274" fill="#000000" r="2"/>
<circle cx="67.68558951965065" cy="-137.36211840793956" fill="#000000" r="2"/>
<circle cx="69.86899563318778" cy="-134.7693910801108" fill="#000000" r="2"/>
<circle cx="72.0524017467249" cy="-132.2727260095044" fill="#000000" r="2"/>
<circle cx="74.23580786026201" cy="-129.86688157826896" fill="#000000" r="2"/>
<circle cx="76.41921397379913" cy="-127.54699069798924" fill="#000000" r="2"/>
<circle cx="78.60262008733625" cy="-125.30852794528938" fill="#000000" r="2"/>
<circle cx="80.78602620087337" cy="-123.14728009849088" fill="#000000" r="2"/>
<circle cx="82.96943231441048" cy="-121.0593196712411" fill="#000000" r="2"/>
<circle cx="85.1528384279476" cy="-119.04098109372892" fill="#000000" r="2"/>
<circle cx="87.33624454148472" cy="-117.08883923754328" fill="#000000" r="2"/>
<circle cx="89.51965065502183" cy="-115.19969001917868" fill="#000000" r="2"/>
<circle cx="91.70305676855895" cy="-113.37053285158704" fill="#000000" r="2"/>
<circle cx="93.88646288209607" cy="-111.59855474112089" fill="#000000" r="2"/>
<circle cx="96.06986899563319" cy="-109.8811158532952" fill="#000000" r="2"/>
<circle cx="98.2532751091703" cy="-108.21573639058741" fill="#000000" r="2"/>
<circle cx="100.43668122270742" cy="-106.60008464607643" fill="#000000" r="2"/>
<circle cx="102.62008733624454" cy="-105.03196611152497" fill="#000000" r="2"/>
<circle cx="104.80349344978166" cy="-103.50931353236315" fill="#000000" r="2"/>
<circle cx="106.98689956331877" cy="-102.0301778159244" fill="#000000" r="2"/>
<circle cx="109.17030567685589" cy="-100.59271970767527" fill="#000000" r="2"/>
<circle cx="111.353711790393" cy="-99.19520216181874" fill="#000000" r="2"/>
<circle cx="113.53711790393012" cy="-97.83598333854694" fill="#000000" r="2"/>
<circle cx="115.72052401746726" cy="-96.5135101697594" fill="#000000" r="2"/>
<circle cx="117.90393013100437" cy="-95.22631243925774" fill="#000000" r="2"/>
<circle cx="120.08733624454149" cy="-93.97299733067165" fill="#000000" r="2"/>
<circle cx="122.2707423580786" cy="-92.75224440024932" fill="#000000" r="2"/>
<circle cx="124.45414847161572" cy="-91.56280093627748" fill="#000000" r="2"/>
<circle cx="126.63755458515284" cy="-90.40347767140716" fill="#000000" r="2"/>
<circle cx="128.82096069868996" cy="-89.27314481622074" fill="#000000" r="2"/>
<circle cx="131.00436681222706" cy="-88.17072838696652" fill="#000000" r="2"/>
<circle cx="133.1877729257642" cy="-87.09520680197049" fill="#000000" r="2"/>
<circle cx="135.3711790393013" cy="-86.04560772420373" fill="#000000" r="2"/>
<circle cx="137.55458515283843" cy="-85.02100512914592" fill="#000000" r="2"/>
<circle cx="139.73799126637556" cy="-84.02051658017328" fill="#000000" r="2"/>
<circle cx="141.92139737991266" cy="-83.04330069361953" fill="#000000" r="2"/>
<circle cx="144.1048034934498" cy="-82.08855477890465" fill="#000000" r="2"/>
<circle cx="146.2882096069869" cy="-81.15551263967994" fill="#000000" r="2"/>
<circle cx="148.47161572052403" cy="-80.24344252300682" fill="#000000" r="2"/>
<circle cx="150.65502183406113" cy="-79.35164520552615" fill="#000000" r="2"/>
<circle cx="152.83842794759826" cy="-78.47945220557507" fill="#000000" r="2"/>
<circle cx="155.02183406113537" cy="-77.62622411226621" fill="#000000" r="2"/>
<circle cx="157.2052401746725" cy="-76.79134902218823" fill="#000000" r="2"/>
<circle cx="159.3886462882096" cy="-75.97424107577186" fill="#000000" r="2"/>
<circle cx="161.57205240174673" cy="-75.17433908643434" fill="#000000" r="2"/>
<circle cx="163.75545851528383" cy="-74.39110525525874" fill="#000000" r="2"/>
<circle cx="165.93886462882097" cy="-73.62402396507328" fill="#000000" r="2"/>
<circle cx="168.12227074235807" cy="-72.87260064874543" fill="#000000" r="2"/>
<circle cx="170.3056768558952" cy="-72.13636072547641" fill="#000000" r="2"/>
<circle cx="172.4890829694323" cy="-71.41484860161319" fill="#000000" r="2"/>
<circle cx="174.67248908296943" cy="-70.70762673039688" fill="#000000" r="2"/>
<circle cx="176.85589519650654" cy="-70.01427472704556" fill="#000000" r="2"/>
<circle cx="179.03930131004367" cy="-69.33438853564905" fill="#000000" r="2"/>
<circle cx="181.22270742358077" cy="-68.66757964383811" fill="#000000" r="2"/>
<circle cx="183.4061135371179" cy="-68.01347434261581" fill="#000000" r="2"/>
<circle cx="185.58951965065503" cy="-67.37171302774921" fill="#000000" r="2"/>
<circle cx="187.77292576419214" cy="-66.74194954074221" fill="#000000" r="2"/>
<circle cx="189.95633187772927" cy="-66.12385054622311" fill="#000000" r="2"/>
<circle cx="192.13973799126637" cy="-65.5170949434908" fill="#000000" r="2"/>
<circle cx="194.3231441048035" cy="-64.92137331031961" fill="#000000" r="2"/>
<circle cx="196.5065502183406" cy="-64.33638737692498" fill="#000000" r="2"/>
<circle cx="198.68995633187774" cy="-63.76184952795273" fill="#000000" r="2"/>
<circle cx="200.87336244541484" cy="-63.19748233078979" fill="#000000" r="2"/>
<circle cx="203.05676855895197" cy="-62.643018089167306" fill="#000000" r="2"/>
<circle cx="205.24017467248908" cy="-62.09819841956254" fill="#000000" r="2"/>
<circle cx="207.4235807860262" cy="-61.56277384976624" fill="#000000" r="2"/>
<circle cx="209.6069868995633" cy="-61.03650343795307" fill="#000000" r="2"/>
<circle cx="211.79039301310044" cy="-60.519154411344786" fill="#000000" r="2"/>
<circle cx="213.97379912663754" cy="-60.01050182264531" fill="#000000" r="2"/>
<circle cx="216.15720524017468" cy="-59.51032822408946" fill="#000000" r="2"/>
<circle cx="218.34061135371178" cy="-59.01842335752212" fill="#000000" r="2"/>
<circle cx="220.5240174672489" cy="-58.53458385959733" fill="#000000" r="2"/>
<circle cx="222.707423580786" cy="-58.05861298150383" fill="#000000" r="2"/>
<circle cx="224.89082969432314" cy="-57.590320322187615" fill="#000000" r="2"/>
<circle cx="227.07423580786025" cy="-57.12952157443855" fill="#000000" r="2"/>
<circle cx="229.25764192139738" cy="-56.676038282930385" fill="#000000" r="2"/>
<circle cx="231.4410480349345" cy="-56.229697613976896" fill="#000000" r="2"/>
<circle cx="233.6244541484716" cy="-55.790332135697824" fill="#000000" r="2"/>
<circle cx="235.80786026200875" cy="-55.3577796088322" fill="#000000" r="2"/>
<circle cx="237.99126637554585" cy="-54.9318827867345" fill="#000000" r="2"/>
<circle cx="240.17467248908298" cy="-54.51248922498897" fill="#000000" r="2"/>
<circle cx="242.35807860262008" cy="-54.09945109945489" fill="#000000" r="2"/>
<circle cx="244.5414847161572" cy="-53.69262503242586" fill="#000000" r="2"/>
<circle cx="246.72489082969432" cy="-53.29187192682409" fill="#000000" r="2"/>
<circle cx="248.90829694323145" cy="-52.89705680755898" fill="#000000" r="2"/>
<circle cx="251.09170305676855" cy="-52.50804867004976" fill="#000000" r="2"/>
<circle cx="253.27510917030568" cy="-52.12472033516038" fill="#000000" r="2"/>
<circle cx="255.4585152838428" cy="-51.74694831062574" fill="#000000" r="2"/>
<circle cx="257.6419213973799" cy="-51.374612658533735" fill="#000000" r="2"/>
<circle cx="259.825327510917" cy="-51.00759686815087" fill="#000000" r="2"/>
<circle cx="262.0087336244541" cy="-50.64578773460584" fill="#000000" r="2"/>
<circle cx="264.1921397379913" cy="-50.28907524228329" fill="#000000" r="2"/>
<circle cx="266.3755458515284" cy="-49.93735245332355" fill="#000000" r="2"/>
<circle cx="268.5589519650655" cy="-49.590515400832516" fill="#000000" r="2"/>
<circle cx="270.7423580786026" cy="-49.24846298644552" fill="#000000" r="2"/>
<circle cx="272.92576419213975" cy="-48.911096881849225" fill="#000000" r="2"/>
<circle cx="275.10917030567686" cy="-48.57832143481588" fill="#000000" r="2"/>
<circle cx="277.29257641921396" cy="-48.25004357856233" fill="#000000" r="2"/>
<circle cx="279.4759825327511" cy="-47.926172745225486" fill="#000000" r="2"/>
<circle cx="281.6593886462882" cy="-47.60662078226684" fill="#000000" r="2"/>
<circle cx="283.8427947598253" cy="-47.29130187271628" fill="#000000" r="2"/>
<circle cx="286.0262008733624" cy="-46.98013245826587" fill="#000000" r="2"/>
<circle cx="288.2096069868996" cy="-46.67303116533207" fill="#000000" r="2"/>
<circle cx="290.3930131004367" cy="-46.36991873428458" fill="#000000" r="2"/>
<circle cx="292.5764192139738" cy="-46.07071795112919" fill="#000000" r="2"/>
<circle cx="294.7598253275109" cy="-45.77535358204041" fill="#000000" r="2"/>
<circle cx="296.94323144104806" cy="-45.4837523101503" fill="#000000" r="2"/>
<circle cx="299.12663755458516" cy="-45.195842675028835" fill="#000000" r="2"/>
<circle cx="301.31004366812226" cy="-44.91155501414323" fill="#000000" r="2"/>
<circle cx="303.49344978165936" cy="-44.63082140681101" fill="#000000" r="2"/>
<circle cx="305.6768558951965" cy="-44.35357561997371" fill="#000000" r="2"/>
<circle cx="307.8602620087336" cy="-44.07975305618718" fill="#000000" r="2"/>
<circle cx="310.04366812227073" cy="-43.809290703472215" fill="#000000" r="2"/>
<circle cx="312.22707423580783" cy="-43.54212708686711" fill="#000000" r="2"/>
<circle cx="314.410480349345" cy="-43.2782022218802" fill="#000000" r="2"/>
<circle cx="316.5938864628821" cy="-43.01745756960474" fill="#000000" r="2"/>
<circle cx="318.7772925764192" cy="-42.75983599349624" fill="#000000" r="2"/>
<circle cx="320.96069868995636" cy="-42.505281717535105" fill="#000000" r="2"/>
<circle cx="323.14410480349346" cy="-42.2537402859726" fill="#000000" r="2"/>
<circle cx="325.32751091703057" cy="-42.00515852454119" fill="#000000" r="2"/>
<circle cx="327.51091703056767" cy="-41.75948450301075" fill="#000000" r="2"/>
<circle cx="329.6943231441048" cy="-41.51666749893222" fill="#000000" r="2"/>
<circle cx="331.87772925764193" cy="-41.27665796276648" fill="#000000" r="2"/>
<circle cx="334.06113537117903" cy="-41.0394074841612" fill="#000000" r="2"/>
<circle cx="336.24454148471614" cy="-40.80486875945469" fill="#000000" r="2"/>
<circle cx="338.4279475982533" cy="-40.5729955602088" fill="#000000" r="2"/>
<circle cx="340.6113537117904" cy="-40.3437427027314" fill="#000000" r="2"/>
<circle cx="342.7947598253275" cy="-40.117066018944605" fill="#000000" r="2"/>
<circle cx="344.9781659388646" cy="-39.89292232768843" fill="#000000" r="2"/>
<circle cx="347.16157205240177" cy="-39.67126940768678" fill="#000000" r="2"/>
<circle cx="349.34497816593887" cy="-39.45206597075099" fill="#000000" r="2"/>
<circle cx="351.528384279476" cy="-39.2352716361708" fill="#000000" r="2"/>
<circle cx="353.7117903930131" cy="-39.02084690609481" fill="#000000" r="2"/>
<circle cx="355.89519650655023" cy="-38.80875314130681" fill="#000000" r="2"/>
<circle cx="358.07860262008734" cy="-38.59895253822906" fill="#000000" r="2"/>
<circle cx="360.26200873362444" cy="-38.391408106202725" fill="#000000" r="2"/>
<circle cx="362.44541484716154" cy="-38.1860836460744" fill="#000000" r="2"/>
<circle cx="364.6288209606987" cy="-37.98294372886186" fill="#000000" r="2"/>
<circle cx="366.8122270742358" cy="-37.781953675488474" fill="#000000" r="2"/>
<circle cx="368.9956331877729" cy="-37.58307953711133" fill="#000000" r="2"/>
<circle cx="371.17903930131007" cy="-37.386288075805645" fill="#000000" r="2"/>
<circle cx="373.3624454148472" cy="-37.191546746357346" fill="#000000" r="2"/>
<circle cx="375.5458515283843" cy="-36.99882367793703" fill="#000000" r="2"/>
<circle cx="377.7292576419214" cy="-36.80808765708003" fill="#000000" r="2"/>
<circle cx="379.91266375545854" cy="-36.61930811054772" fill="#000000" r="2"/>
<circle cx="382.09606986899564" cy="-36.43245508921798" fill="#000000" r="2"/>
<circle cx="384.27947598253274" cy="-36.24749925201526" fill="#000000" r="2"/>
<circle cx="386.46288209606985" cy="-36.06441185079049" fill="#000000" r="2"/>
<circle cx="388.646288209607" cy="-35.88316471524071" fill="#000000" r="2"/>
<circle cx="390.8296943231441" cy="-35.70373023854103" fill="#000000" r="2"/>
<circle cx="393.0131004366812" cy="-35.52608136329334" fill="#000000" r="2"/>
<circle cx="395.1965065502183" cy="-35.35019156798953" fill="#000000" r="2"/>
<circle cx="397.3799126637555" cy="-35.17603485371219" fill="#000000" r="2"/>
<circle cx="399.5633187772926" cy="-35.003585731389464" fill="#000000" r="2"/>
<circle cx="401.7467248908297" cy="-34.83281920940615" fill="#000000" r="2"/>
<circle cx="403.9301310043668" cy="-34.663710781373084" fill="#000000" r="2"/>
<circle cx="406.11353711790395" cy="-34.49623641460901" fill="#000000" r="2"/>
<circle cx="408.29694323144105" cy="-34.33037253854331" fill="#000000" r="2"/>
<circle cx="410.48034934497815" cy="-34.166096033831124" fill="#000000" r="2"/>
<circle cx="412.6637554585153" cy="-34.003384221468586" fill="#000000" r="2"/>
<circle cx="414.8471615720524" cy="-33.84221485254122" fill="#000000" r="2"/>
<circle cx="417.0305676855895" cy="-33.68256609785371" fill="#000000" r="2"/>
<circle cx="419.2139737991266" cy="-33.52441653827205" fill="#000000" r="2"/>
<circle cx="421.3973799126638" cy="-33.367745154947045" fill="#000000" r="2"/>
<circle cx="423.5807860262009" cy="-33.21253132025013" fill="#000000" r="2"/>
<circle cx="425.764192139738" cy="-33.05875478847185" fill="#000000" r="2"/>
<circle cx="427.9475982532751" cy="-32.90639568719315" fill="#000000" r="2"/>
<circle cx="430.13100436681225" cy="-32.755434208868536" fill="#000000" r="2"/>
<circle cx="432.31441048034935" cy="-32.60273972602794" fill="#000000" r="2"/>
<circle cx="434.49781659388645" cy="0" fill="#000000" r="2"/>
</g>
<g>
<circle cx="0" cy="0" fill="#008711" r="2"/>
<circle cx="2.183406113537118" cy="0" fill="#008711" r="2"/>
<circle cx="4.366812227074236" cy="0" fill="#008711" r="2"/>
<circle cx="6.550218340611353" cy="0" fill="#008711" r="2"/>
<circle cx="8.733624454148472" cy="0" fill="#008711" r="2"/>
<circle cx="10.91703056768559" cy="0" fill="#008711" r="2"/>
<circle cx="13.100436681222707" cy="0" fill="#008711" r="2"/>
<circle cx="15.283842794759826" cy="0" fill="#008711" r="2"/>
<circle cx="17.467248908296945" cy="0" fill="#008711" r="2"/>
<circle cx="19.650655021834062" cy="0" fill="#008711" r="2"/>
<circle cx="21.83406113537118" cy="0" fill="#008711" r="2"/>
<circle cx="24.017467248908297" cy="0" fill="#008711" r="2"/>
<circle cx="26.200873362445414" cy="0" fill="#008711" r="2"/>
<circle cx="28.38427947598253" cy="0" fill="#008711" r="2"/>
<circle cx="30.56768558951965" cy="0" fill="#008711" r="2"/>
<circle cx="32.751091703056765" cy="0" fill="#008711" r="2"/>
<circle cx="34.93449781659389" cy="0" fill="#008711" r="2"/>
<circle cx="37.11790393013101" cy="0" fill="#008711" r="2"/>
<circle cx="39.301310043668124" cy="0" fill="#008711" r="2"/>
<circle cx="41.48471615720524" cy="0" fill="#008711" r="2"/>
<circle cx="43.66812227074236" cy="0" fill="#008711" r="2"/>
<circle cx="45.851528384279476" cy="0" fill="#008711" r="2"/>
<circle cx="48.03493449781659" cy="0" fill="#008711" r="2"/>
<circle cx="50.21834061135371" cy="0" fill="#008711" r="2"/>
<circle cx="52.40174672489083" cy="0" fill="#008711" r="2"/>
<circle cx="54.585152838427945" cy="0" fill="#008711" r="2"/>
<circle cx="56.76855895196506" cy="0" fill="#008711" r="2"/>
<circle cx="58.951965065502186" cy="0" fill="#008711" r="2"/>
<circle cx="61.1353711790393" cy="0" fill="#008711" r="2"/>
<circle cx="63.31877729257642" cy="0" fill="#008711" r="2"/>
<circle cx="65.50218340611353" cy="0" fill="#008711" r="2"/>
<circle cx="67.68558951965065" cy="0" fill="#008711" r="2"/>
<circle cx="69.86899563318778" cy="0" fill="#008711" r="2"/>
<circle cx="72.0524017467249" cy="0" fill="#008711" r="2"/>
<circle cx="74.23580786026201" cy="0" fill="#008711" r="2"/>
<circle cx="76.41921397379913" cy="0" fill="#008711" r="2"/>
<circle cx="78.60262008733625" cy="0" fill="#008711" r="2"/>
<circle cx="80.78602620087337" cy="0" fill="#008711" r="2"/>
<circle cx="82.96943231441048" cy="0" fill="#008711" r="2"/>
<circle cx="85.1528384279476" cy="0" fill="#008711" r="2"/>
<circle cx="87.33624454148472" cy="0" fill="#008711" r="2"/>
<circle cx="89.51965065502183" cy="0" fill="#008711" r="2"/>
<circle cx="91.70305676855895" cy="0" fill="#008711" r="2"/>
<circle cx="93.88646288209607" cy="0" fill="#008711" r="2"/>
<circle cx="96.06986899563319" cy="0" fill="#008711" r="2"/>
<circle cx="98.2532751091703" cy="0" fill="#008711" r="2"/>
<circle cx="100.43668122270742" cy="0" fill="#008711" r="2"/>
<circle cx="102.62008733624454" cy="0" fill="#008711" r="2"/>
<circle cx="104.80349344978166" cy="0" fill="#008711" r="2"/>
<circle cx="106.98689956331877" cy="0" fill="#008711" r="2"/>
<circle cx="109.17030567685589" cy="0" fill="#008711" r="2"/>
<circle cx="111.353711790393" cy="0" fill="#008711" r="2"/>
<circle cx="113.53711790393012" cy="0" fill="#008711" r="2"/>
<circle cx="115.72052401746726" cy="0" fill="#008711" r="2"/>
<circle cx="117.90393013100437" cy="0" fill="#008711" r="2"/>
<circle cx="120.08733624454149" cy="0" fill="#008711" r="2"/>
<circle cx="122.2707423580786" cy="0" fill="#008711" r="2"/>
<circle cx="124.45414847161572" cy="0" fill="#008711" r="2"/>
<circle cx="126.63755458515284" cy="0" fill="#008711" r="2"/>
<circle cx="128.82096069868996" cy="0" fill="#008711" r="2"/>
<circle cx="131.00436681222706" cy="0" fill="#008711" r="2"/>
<circle cx="133.1877729257642" cy="0" fill="#008711" r="2"/>
<circle cx="135.3711790393013" cy="0" fill="#008711" r="2"/>
<circle cx="137.55458515283843" cy="0" fill="#008711" r="2"/>
<circle cx="139.73799126637556" cy="0" fill="#008711" r="2"/>
<circle cx="141.92139737991266" cy="0" fill="#008711" r="2"/>
<circle cx="144.1048034934498" cy="0" fill="#008711" r="2"/>
<circle cx="146.2882096069869" cy="0" fill="#008711" r="2"/>
<circle cx="148.47161572052403" cy="0" fill="#008711" r="2"/>
<circle cx="150.65502183406113" cy="0" fill="#008711" r="2"/>
<circle cx="152.83842794759826" cy="0" fill="#008711" r="2"/>
<circle cx="155.02183406113537" cy="0" fill="#008711" r="2"/>
<circle cx="157.2052401746725" cy="0" fill="#008711" r="2"/>
<circle cx="159.3886462882096" cy="0" fill="#008711" r="2"/>
<circle cx="161.57205240174673" cy="0" fill="#008711" r="2"/>
<circle cx="163.75545851528383" cy="0" fill="#008711" r="2"/>
<circle cx="165.93886462882097" cy="0" fill="#008711" r="2"/>
<circle cx="168.12227074235807" cy="0" fill="#008711" r="2"/>
<circle cx="170.3056768558952" cy="0" fill="#008711" r="2"/>
<circle cx="172.4890829694323" cy="0" fill="#008711" r="2"/>
<circle cx="174.67248908296943" cy="0" fill="#008711" r="2"/>
<circle cx="176.85589519650654" cy="0" fill="#008711" r="2"/>
<circle cx="179.03930131004367" cy="0" fill="#008711" r="2"/>
<circle cx="181.22270742358077" cy="0" fill="#008711" r="2"/>
<circle cx="183.4061135371179" cy="0" fill="#008711" r="2"/>
<circle cx="185.58951965065503" cy="0" fill="#008711" r="2"/>
<circle cx="187.77292576419214" cy="0" fill="#008711" r="2"/>
<circle cx="189.95633187772927" cy="0" fill="#008711" r="2"/>
<circle cx="192.13973799126637" cy="0" fill="#008711" r="2"/>
<circle cx="194.3231441048035" cy="0" fill="#008711" r="2"/>
<circle cx="196.5065502183406" cy="0" fill="#008711" r="2"/>
<circle cx="198.68995633187774" cy="0" fill="#008711" r="2"/>
<circle cx="200.87336244541484" cy="0" fill="#008711" r="2"/>
<circle cx="203.05676855895197" cy="0" fill="#008711" r="2"/>
<circle cx="205.24017467248908" cy="0" fill="#008711" r="2"/>
<circle cx="207.4235807860262" cy="0" fill="#008711" r="2"/>
<circle cx="209.6069868995633" cy="0" fill="#008711" r="2"/>
<circle cx="211.79039301310044" cy="0" fill="#008711" r="2"/>
<circle cx="213.97379912663754" cy="0" fill="#008711" r="2"/>
<circle cx="216.15720524017468" cy="0" fill="#008711" r="2"/>
<circle cx="218.34061135371178" cy="0" fill="#008711" r="2"/>
<circle cx="220.5240174672489" cy="0" fill="#008711" r="2"/>
<circle cx="222.707423580786" cy="0" fill="#008711" r="2"/>
<circle cx="224.89082969432314" cy="0" fill="#008711" r="2"/>
<circle cx="227.07423580786025" cy="0" fill="#008711" r="2"/>
<circle cx="229.25764192139738" cy="0" fill="#008711" r="2"/>
<circle cx="231.4410480349345" cy="0" fill="#008711" r="2"/>
<circle cx="233.6244541484716" cy="0" fill="#008711" r="2"/>
<circle cx="235.80786026200875" cy="0" fill="#008711" r="2"/>
<circle cx="237.99126637554585" cy="0" fill="#008711" r="2"/>
<circle cx="240.17467248908298" cy="0" fill="#008711" r="2"/>
<circle cx="242.35807860262008" cy="0" fill="#008711" r="2"/>
<circle cx="244.5414847161572" cy="0" fill="#008711" r="2"/>
<circle cx="246.72489082969432" cy="0" fill="#008711" r="2"/>
<circle cx="248.90829694323145" cy="0" fill="#008711" r="2"/>
<circle cx="251.09170305676855" cy="0" fill="#008711" r="2"/>
<circle cx="253.27510917030568" cy="0" fill="#008711" r="2"/>
<circle cx="255.4585152838428" cy="0" fill="#008711" r="2"/>
<circle cx="257.6419213973799" cy="0" fill="#008711" r="2"/>
<circle cx="259.825327510917" cy="0" fill="#008711" r="2"/>
<circle cx="262.0087336244541" cy="0" fill="#008711" r="2"/>
<circle cx="264.1921397379913" cy="0" fill="#008711" r="2"/>
<circle cx="266.3755458515284" cy="0" fill="#008711" r="2"/>
<circle cx="268.5589519650655" cy="0" fill="#008711" r="2"/>
<circle cx="270.7423580786026" cy="0" fill="#008711" r="2"/>
<circle cx="272.92576419213975" cy="0" fill="#008711" r="2"/>
<circle cx="275.10917030567686" cy="0" fill="#008711" r="2"/>
<circle cx="277.29257641921396" cy="0" fill="#008711" r="2"/>
<circle cx="279.4759825327511" cy="0" fill="#008711" r="2"/>
<circle cx="281.6593886462882" cy="0" fill="#008711" r="2"/>
<circle cx="283.8427947598253" cy="0" fill="#008711" r="2"/>
<circle cx="286.0262008733624" cy="0" fill="#008711" r="2"/>
<circle cx="288.2096069868996" cy="0" fill="#008711" r="2"/>
<circle cx="290.3930131004367" cy="0" fill="#008711" r="2"/>
<circle cx="292.5764192139738" cy="0" fill="#008711" r="2"/>
<circle cx="294.7598253275109" cy="0" fill="#008711" r="2"/>
<circle cx="296.94323144104806" cy="0" fill="#008711" r="2"/>
<circle cx="299.12663755458516" cy="0" fill="#008711" r="2"/>
<circle cx="301.31004366812226" cy="0" fill="#008711" r="2"/>
<circle cx="303.49344978165936" cy="0" fill="#008711" r="2"/>
<circle cx="305.6768558951965" cy="0" fill="#008711" r="2"/>
<circle cx="307.8602620087336" cy="0" fill="#008711" r="2"/>
<circle cx="310.04366812227073" cy="0" fill="#008711" r="2"/>
<circle cx="312.22707423580783" cy="0" fill="#008711" r="2"/>
<circle cx="314.410480349345" cy="0" fill="#008711" r="2"/>
<circle cx="316.5938864628821" cy="0" fill="#008711" r="2"/>
<circle cx="318.7772925764192" cy="0" fill="#008711" r="2"/>
<circle cx="320.96069868995636" cy="0" fill="#008711" r="2"/>
<circle cx="323.14410480349346" cy="0" fill="#008711" r="2"/>
<circle cx="325.32751091703057" cy="0" fill="#008711" r="2"/>
<circle cx="327.51091703056767" cy="0" fill="#008711" r="2"/>
<circle cx="329.6943231441048" cy="0" fill="#008711" r="2"/>
<circle cx="331.87772925764193" cy="0" fill="#008711" r="2"/>
<circle cx="334.06113537117903" cy="0" fill="#008711" r="2"/>
<circle cx="336.24454148471614" cy="0" fill="#008711" r="2"/>
<circle cx="338.4279475982533" cy="0" fill="#008711" r="2"/>
<circle cx="340.6113537117904" cy="0" fill="#008711" r="2"/>
<circle cx="342.7947598253275" cy="0" fill="#008711" r="2"/>
<circle cx="344.9781659388646" cy="0" fill="#008711" r="2"/>
<circle cx="347.16157205240177" cy="0" fill="#008711" r="2"/>
<circle cx="349.34497816593887" cy="0" fill="#008711" r="2"/>
<circle cx="351.528384279476" cy="0" fill="#008711" r="2"/>
<circle cx="353.7117903930131" cy="0" fill="#008711" r="2"/>
<circle cx="355.89519650655023" cy="0" fill="#008711" r="2"/>
<circle cx="358.07860262008734" cy="0" fill="#008711" r="2"/>
<circle cx="360.26200873362444" cy="0" fill="#008711" r="2"/>
<circle cx="362.44541484716154" cy="0" fill="#008711" r="2"/>
<circle cx="364.6288209606987" cy="0" fill="#008711" r="2"/>
<circle cx="366.8122270742358" cy="0" fill="#008711" r="2"/>
<circle cx="368.9956331877729" cy="0" fill="#008711" r="2"/>
<circle cx="371.17903930131007" cy="0" fill="#008711" r="2"/>
<circle cx="373.3624454148472" cy="0" fill="#008711" r="2"/>
<circle cx="375.5458515283843" cy="0" fill="#008711" r="2"/>
<circle cx="377.7292576419214" cy="0" fill="#008711" r="2"/>
<circle cx="379.91266375545854" cy="0" fill="#008711" r="2"/>
<circle cx="382.09606986899564" cy="0" fill="#008711" r="2"/>
<circle cx="384.27947598253274" cy="0" fill="#008711" r="2"/>
<circle cx="386.46288209606985" cy="0" fill="#008711" r="2"/>
<circle cx="388.646288209607" cy="0" fill="#008711" r="2"/>
<circle cx="390.8296943231441" cy="0" fill="#008711" r="2"/>
<circle cx="393.0131004366812" cy="0" fill="#008711" r="2"/>
<circle cx="395.1965065502183" cy="0" fill="#008711" r="2"/>
<circle cx="397.3799126637555" cy="0" fill="#008711" r="2"/>
<circle cx="399.5633187772926" cy="0" fill="#008711" r="2"/>
<circle cx="401.7467248908297" cy="0" fill="#008711" r="2"/>
<circle cx="403.9301310043668" cy="0" fill="#008711" r="2"/>
<circle cx="406.11353711790395" cy="0" fill="#008711" r="2"/>
<circle cx="408.29694323144105" cy="0" fill="#008711" r="2"/>
<circle cx="410.48034934497815" cy="0" fill="#008711" r="2"/>
<circle cx="412.6637554585153" cy="0" fill="#008711" r="2"/>
<circle cx="414.8471615720524" cy="0" fill="#008711" r="2"/>
<circle cx="417.0305676855895" cy="0" fill="#008711" r="2"/>
<circle cx="419.2139737991266" cy="0" fill="#008711" r="2"/>
<circle cx="421.3973799126638" cy="0" fill="#008711" r="2"/>
<circle cx="423.5807860262009" cy="0" fill="#008711" r="2"/>
<circle cx="425.764192139738" cy="0" fill="#008711" r="2"/>
<circle cx="427.9475982532751" cy="0" fill="#008711" r="2"/>
<circle cx="430.13100436681225" cy="0" fill="#008711" r="2"/>
<circle cx="432.31441048034935" cy="0" fill="#008711" r="2"/>
<circle cx="434.49781659388645" cy="0" fill="#008711" r="2"/>
</g>
<g>
<g>
<line stroke="black" stroke-width="1" x1="41.48471615720524" x2="41.48471615720524" y1="0" y2="10"/>
<line stroke="black" stroke-width="1" x1="128.82096069868996" x2="128.82096069868996" y1="0" y2="10"/>
<line stroke="black" stroke-width="1" x1="216.15720524017468" x2="216.15720524017468" y1="0" y2="10"/>
<line stroke="black" stroke-width="1" x1="303.49344978165936" x2="303.49344978165936" y1="0" y2="10"/>
<line stroke="black" stroke-width="1" x1="390.8296943231441" x2="390.8296943231441" y1="0" y2="10"/>
<line stroke="black" stroke-width="1" x1="478.1659388646288" x2="478.1659388646288" y1="0" y2="10"/>
</g>
<line stroke="black" stroke-width="1" x1="0" x2="500" y1="0" y2="0"/>
<g>
<text font-size="12" text-anchor="middle" x="41.48471615720524" y="20">
40000
</text>
<text font-size="12" text-anchor="middle" x="128.82096069868996" y="20">
80000
</text>
<text font-size="12" text-anchor="middle" x="216.15720524017468" y="20">
120000
</text>
<text font-size="12" text-anchor="middle" x="303.49344978165936" y="20">
160000
</text>
<text font-size="12" text-anchor="middle" x="390.8296943231441" y="20">
200000
</text>
<text font-size="12" text-anchor="middle" x="478.1659388646288" y="20">
240000
</text>
</g>
<text font-size="12" text-anchor="middle" x="250" y="30">
Gas
</text>
</g>
<g>
<g>
<line stroke="black" stroke-width="1" x1="0" x2="-10" y1="0" y2="0"/>
<line stroke="black" stroke-width="1" x1="0" x2="-10" y1="-68" y2="-68"/>
<line stroke="black" stroke-width="1" x1="0" x2="-10" y1="-136" y2="-136"/>
<line stroke="black" stroke-width="1" x1="0" x2="-10" y1="-204" y2="-204"/>
<line stroke="black" stroke-width="1" x1="0" x2="-10" y1="-272" y2="-272"/>
<line stroke="black" stroke-width="1" x1="0" x2="-10" y1="-340" y2="-340"/>
</g>
<line stroke="black" stroke-0="1" x1="0" x2="0" y1="0" y2="-340"/>
<g>
<text dominant-baseline="middle" font-size="12" text-anchor="end" x="-15" y="0">
1000000
</text>
<text dominant-baseline="middle" font-size="12" text-anchor="end" x="-15" y="-68">
1000200
</text>
<text dominant-baseline="middle" font-size="12" text-anchor="end" x="-15" y="-136">
1000400
</text>
<text dominant-baseline="middle" font-size="12" text-anchor="end" x="-15" y="-204">
1000600
</text>
<text dominant-baseline="middle" font-size="12" text-anchor="end" x="-15" y="-272">
1000800
</text>
<text dominant-baseline="middle" font-size="12" text-anchor="end" x="-15" y="-340">
1001000
</text>
</g>
<text font-size="12" text-anchor="middle" transform="rotate(-90 -30 -170)" x="-30" y="-170">
Score
</text>
</g>
</g>
</svg>