<svg viewBox="0 0 600 400" xmlns="http://www.w3.org/2000/svg">
<g transform="translate(50, 360)">
<g>
<circle cx="0" cy="-304.3544" fill="#ff2600" r="2"/>
<circle cx="2.183406113537118" cy="-304.3544" fill="#ff2600" r="2"/>
<circle cx="4.366812227074236" cy="-290.428" fill="#ff2600" r="2"/>
<circle cx="6.550218340611353" cy="-276.5016" fill="#ff2600" r="2"/>
<circle cx="8.733624454148472" cy="-262.5752" fill="#ff2600" r="2"/>
<circle cx="10.91703056768559" cy="-248.6488" fill="#ff2600" r="2"/>
<circle cx="13.100436681222707" cy="-234.7224" fill="#ff2600" r="2"/>
<circle cx="15.283842794759826" cy="-234.7224" fill="#ff2600" r="2"/>
<circle cx="17.467248908296945" cy="-220.796" fill="#ff2600" r="2"/>
<circle cx="19.650655021834062" cy="-220.796" fill="#ff2600" r="2"/>
<circle cx="21.83406113537118" cy="-206.8696" fill="#ff2600" r="2"/>
<circle cx="24.017467248908297" cy="-206.8696" fill="#ff2600" r="2"/>
<circle cx="26.200873362445414" cy="-192.9432" fill="#ff2600" r="2"/>
<circle cx="28.38427947598253" cy="-192.9432" fill="#ff2600" r="2"/>
<circle cx="30.56768558951965" cy="-179.0168" fill="#ff2600" r="2"/>
<circle cx="32.751091703056765" cy="-179.0168" fill="#ff2600" r="2"/>
<circle cx="34.93449781659389" cy="-179.0168" fill="#ff2600" r="2"/>
<circle cx="37.11790393013101" cy="-165.0904" fill="#ff2600" r="2"/>
<circle cx="39.301310043668124" cy="-165.0904" fill="#ff2600" r="2"/>
<circle cx="41.48471615720524" cy="-165.0904" fill="#ff2600" r="2"/>
<circle cx="43.66812227074236" cy="-165.0904" fill="#ff2600" r="2"/>
<circle cx="45.851528384279476" cy="-151.164" fill="#ff2600" r="2"/>
<circle cx="48.03493449781659" cy="-151.164" fill="#ff2600" r="2"/>
<circle cx="50.21834061135371" cy="-151.164" fill="#ff2600" r="2"/>
<circle cx="52.40174672489083" cy="-151.164" fill="#ff2600" r="2"/>
<circle cx="54.585152838427945" cy="-137.2376" fill="#ff2600" r="2"/>
<circle cx="56.76855895196506" cy="-137.2376" fill="#ff2600" r="2"/>
<circle cx="58.951965065502186" cy="-137.2376" fill="#ff2600" r="2"/>
<circle cx="61.1353711790393" cy="-137.2376" fill="#ff2600" r="2"/>
<circle cx="63.31877729257642" cy="-137.2376" fill="#ff2600" r="2"/>
<circle cx="65.50218340611353" cy="-123.3112" fill="#ff2600" r="2"/>
<circle cx="67.68558951965065" cy="-123.3112" fill="#ff2600" r="2"/>
<circle cx="69.86899563318778" cy="-123.3112" fill="#ff2600" r="2"/>
<circle cx="72.0524017467249" cy="-123.3112" fill="#ff2600" r="2"/>
<circle cx="74.23580786026201" cy="-123.3112" fill="#ff2600" r="2"/>
<circle cx="76.41921397379913" cy="-123.3112" fill="#ff2600" r="2"/>
<circle cx="78.60262008733625" cy="-109.3848" fill="#ff2600" r="2"/>
<circle cx="80.78602620087337" cy="-109.3848" fill="#ff2600" r="2"/>
<circle cx="82.96943231441048" cy="-109.3848" fill="#ff2600" r="2"/>
<circle cx="85.1528384279476" cy="-109.3848" fill="#ff2600" r="2"/>
<circle cx="87.33624454148472" cy="-109.3848" fill="#ff2600" r="2"/>
<circle cx="89.51965065502183" cy="-109.3848" fill="#ff2600" r="2"/>
<circle cx="91.70305676855895" cy="-109.3848" fill="#ff2600" r="2"/>
<circle cx="93.88646288209607" cy="-109.3848" fill="#ff2600" r="2"/>
<circle cx="96.06986899563319" cy="-95.4584" fill="#ff2600" r="2"/>
<circle cx="98.2532751091703" cy="-95.4584" fill="#ff2600" r="2"/>
<circle cx="100.43668122270742" cy="-95.4584" fill="#ff2600" r="2"/>
<circle cx="102.62008733624454" cy="-95.4584" fill="#ff2600" r="2"/>
<circle cx="104.80349344978166" cy="-95.4584" fill="#ff2600" r="2"/>
<circle cx="106.98689956331877" cy="-95.4584" fill="#ff2600" r="2"/>
<circle cx="109.17030567685589" cy="-95.4584" fill="#ff2600" r="2"/>
<circle cx="111.353711790393" cy="-95.4584" fill="#ff2600" r="2"/>
<circle cx="113.53711790393012" cy="-95.4584" fill="#ff2600" r="2"/>
<circle cx="115.72052401746726" cy="-95.4584" fill="#ff2600" r="2"/>
<circle cx="117.90393013100437" cy="-81.532" fill="#ff2600" r="2"/>
<circle cx="120.08733624454149" cy="-81.532" fill="#ff2600" r="2"/>
<circle cx="122.2707423580786" cy="-81.532" fill="#ff2600" r="2"/>
<circle cx="124.45414847161572" cy="-81.532" fill="#ff2600" r="2"/>
<circle cx="126.63755458515284" cy="-81.532" fill="#ff2600" r="2"/>
<circle cx="128.82096069868996" cy="-81.532" fill="#ff2600" r="2"/>
<circle cx="131.00436681222706" cy="-81.532" fill="#ff2600" r="2"/>
<circle cx="133.1877729257642" cy="-81.532" fill="#ff2600" r="2"/>
<circle cx="135.3711790393013" cy="-81.532" fill="#ff2600" r="2"/>
<circle cx="137.55458515283843" cy="-81.532" fill="#ff2600" r="2"/>
<circle cx="139.73799126637556" cy="-81.532" fill="#ff2600" r="2"/>
<circle cx="141.92139737991266" cy="-81.532" fill="#ff2600" r="2"/>
<circle cx="144.1048034934498" cy="-81.532" fill="#ff2600" r="2"/>
<circle cx="146.2882096069869" cy="-81.532" fill="#ff2600" r="2"/>
<circle cx="148.47161572052403" cy="-81.532" fill="#ff2600" r="2"/>
<circle cx="150.65502183406113" cy="-67.6056" fill="#ff2600" r="2"/>
<circle cx="152.83842794759826" cy="-67.6056" fill="#ff2600" r="2"/>
<circle cx="155.02183406113537" cy="-67.6056" fill="#ff2600" r="2"/>
<circle cx="157.2052401746725" cy="-67.6056" fill="#ff2600" r="2"/>
<circle cx="159.3886462882096" cy="-67.6056" fill="#ff2600" r="2"/>
<circle cx="161.57205240174673" cy="-67.6056" fill="#ff2600" r="2"/>
<circle cx="163.75545851528383" cy="-67.6056" fill="#ff2600" r="2"/>
<circle cx="165.93886462882097" cy="-67.6056" fill="#ff2600" r="2"/>
<circle cx="168.12227074235807" cy="-67.6056" fill="#ff2600" r="2"/>
<circle cx="170.3056768558952" cy="-67.6056" fill="#ff2600" r="2"/>
<circle cx="172.4890829694323" cy="-67.6056" fill="#ff2600" r="2"/>
<circle cx="174.67248908296943" cy="-67.6056" fill="#ff2600" r="2"/>
<circle cx="176.85589519650654" cy="-67.6056" fill="#ff2600" r="2"/>
<circle cx="179.03930131004367" cy="-67.6056" fill="#ff2600" r="2"/>
<circle cx="181.22270742358077" cy="-67.6056" fill="#ff2600" r="2"/>
<circle cx="183.4061135371179" cy="-67.6056" fill="#ff2600" r="2"/>
<circle cx="185.58951965065503" cy="-67.6056" fill="#ff2600" r="2"/>
<circle cx="187.77292576419214" cy="-67.6056" fill="#ff2600" r="2"/>
<circle cx="189.95633187772927" cy="-67.6056" fill="#ff2600" r="2"/>
<circle cx="192.13973799126637" cy="-67.6056" fill="#ff2600" r="2"/>
<circle cx="194.3231441048035" cy="-67.6056" fill="#ff2600" r="2"/>
<circle cx="196.5065502183406" cy="-67.6056" fill="#ff2600" r="2"/>
<circle cx="198.68995633187774" cy="-53.6792" fill="#ff2600" r="2"/>
<circle cx="200.87336244541484" cy="-53.6792" fill="#ff2600" r="2"/>
<circle cx="203.05676855895197" cy="-53.6792" fill="#ff2600" r="2"/>
<circle cx="205.24017467248908" cy="-53.6792" fill="#ff2600" r="2"/>
<circle cx="207.4235807860262" cy="-53.6792" fill="#ff2600" r="2"/>
<circle cx="209.6069868995633" cy="-53.6792" fill="#ff2600" r="2"/>
<circle cx="211.79039301310044" cy="-53.6792" fill="#ff2600" r="2"/>
<circle cx="213.97379912663754" cy="-53.6792" fill="#ff2600" r="2"/>
<circle cx="216.15720524017468" cy="-53.6792" fill="#ff2600" r="2"/>
<circle cx="218.34061135371178" cy="-53.6792" fill="#ff2600" r="2"/>
<circle cx="220.5240174672489" cy="-53.6792" fill="#ff2600" r="2"/>
<circle cx="222.707423580786" cy="-53.6792" fill="#ff2600" r="2"/>
<circle cx="224.89082969432314" cy="-53.6792" fill="#ff2600" r="2"/>
<circle cx="227.07423580786025" cy="-53.6792" fill="#ff2600" r="2"/>
<circle cx="229.25764192139738" cy="-53.6792" fill="#ff2600" r="2"/>
<circle cx="231.4410480349345" cy="-53.6792" fill="#ff2600" r="2"/>
<circle cx="233.6244541484716" cy="-53.6792" fill="#ff2600" r="2"/>
<circle cx="235.80786026200875" cy="-53.6792" fill="#ff2600" r="2"/>
<circle cx="237.99126637554585" cy="-53.6792" fill="#ff2600" r="2"/>
<circle cx="240.17467248908298" cy="-53.6792" fill="#ff2600" r="2"/>
<circle cx="242.35807860262008" cy="-53.6792" fill="#ff2600" r="2"/>
<circle cx="244.5414847161572" cy="-53.6792" fill="#ff2600" r="2"/>
<circle cx="246.72489082969432" cy="-53.6792" fill="#ff2600" r="2"/>
<circle cx="248.90829694323145" cy="-53.6792" fill="#ff2600" r="2"/>
<circle cx="251.09170305676855" cy="-53.6792" fill="#ff2600" r="2"/>
<circle cx="253.27510917030568" cy="-53.6792" fill="#ff2600" r="2"/>
<circle cx="255.4585152838428" cy="-53.6792" fill="#ff2600" r="2"/>
<circle cx="257.6419213973799" cy="-53.6792" fill="#ff2600" r="2"/>
<circle cx="259.825327510917" cy="-53.6792" fill="#ff2600" r="2"/>
<circle cx="262.0087336244541" cy="-53.6792" fill="#ff2600" r="2"/>
<circle cx="264.1921397379913" cy="-53.6792" fill="#ff2600" r="2"/>
<circle cx="266.3755458515284" cy="-53.6792" fill="#ff2600" r="2"/>
<circle cx="268.5589519650655" cy="-53.6792" fill="#ff2600" r="2"/>
<circle cx="270.7423580786026" cy="-53.6792" fill="#ff2600" r="2"/>
<circle cx="272.92576419213975" cy="-53.6792" fill="#ff2600" r="2"/>
<circle cx="275.10917030567686" cy="-53.6792" fill="#ff2600" r="2"/>
<circle cx="277.29257641921396" cy="-53.6792" fill="#ff2600" r="2"/>
<circle cx="279.4759825327511" cy="-39.7528" fill="#ff2600" r="2"/>
<circle cx="281.6593886462882" cy="-39.7528" fill="#ff2600" r="2"/>
<circle cx="283.8427947598253" cy="-39.7528" fill="#ff2600" r="2"/>
<circle cx="286.0262008733624" cy="-39.7528" fill="#ff2600" r="2"/>
<circle cx="288.2096069868996" cy="-39.7528" fill="#ff2600" r="2"/>
<circle cx="290.3930131004367" cy="-39.7528" fill="#ff2600" r="2"/>
<circle cx="292.5764192139738" cy="-39.7528" fill="#ff2600" r="2"/>
<circle cx="294.7598253275109" cy="-39.7528" fill="#ff2600" r="2"/>
<circle cx="296.94323144104806" cy="-39.7528" fill="#ff2600" r="2"/>
<circle cx="299.12663755458516" cy="-39.7528" fill="#ff2600" r="2"/>
<circle cx="301.31004366812226" cy="-39.7528" fill="#ff2600" r="2"/>
<circle cx="303.49344978165936" cy="-39.7528" fill="#ff2600" r="2"/>
<circle cx="305.6768558951965" cy="-39.7528" fill="#ff2600" r="2"/>
<circle cx="307.8602620087336" cy="-39.7528" fill="#ff2600" r="2"/>
<circle cx="310.04366812227073" cy="-39.7528" fill="#ff2600" r="2"/>
<circle cx="312.22707423580783" cy="-39.7528" fill="#ff2600" r="2"/>
<circle cx="314.410480349345" cy="-39.7528" fill="#ff2600" r="2"/>
<circle cx="316.5938864628821" cy="-39.7528" fill="#ff2600" r="2"/>
<circle cx="318.7772925764192" cy="-39.7528" fill="#ff2600" r="2"/>
<circle cx="320.96069868995636" cy="-39.7528" fill="#ff2600" r="2"/>
<circle cx="323.14410480349346" cy="-39.7528" fill="#ff2600" r="2"/>
<circle cx="325.32751091703057" cy="-39.7528" fill="#ff2600" r="2"/>
<circle cx="327.51091703056767" cy="-39.7528" fill="#ff2600" r="2"/>
<circle cx="329.6943231441048" cy="-39.7528" fill="#ff2600" r="2"/>
<circle cx="331.87772925764193" cy="-39.7528" fill="#ff2600" r="2"/>
<circle cx="334.06113537117903" cy="-39.7528" fill="#ff2600" r="2"/>
<circle cx="336.24454148471614" cy="-39.7528" fill="#ff2600" r="2"/>
<circle cx="338.4279475982533" cy="-39.7528" fill="#ff2600" r="2"/>
<circle cx="340.6113537117904" cy="-39.7528" fill="#ff2600" r="2"/>
<circle cx="342.7947598253275" cy="-39.7528" fill="#ff2600" r="2"/>
<circle cx="344.9781659388646" cy="-39.7528" fill="#ff2600" r="2"/>
<circle cx="347.16157205240177" cy="-39.7528" fill="#ff2600" r="2"/>
<circle cx="349.34497816593887" cy="-39.7528" fill="#ff2600" r="2"/>
<circle cx="351.528384279476" cy="-39.7528" fill="#ff2600" r="2"/>
<circle cx="353.7117903930131" cy="-39.7528" fill="#ff2600" r="2"/>
<circle cx="355.89519650655023" cy="-39.7528" fill="#ff2600" r="2"/>
<circle cx="358.07860262008734" cy="-39.7528" fill="#ff2600" r="2"/>
<circle cx="360.26200873362444" cy="-39.7528" fill="#ff2600" r="2"/>
<circle cx="362.44541484716154" cy="-39.7528" fill="#ff2600" r="2"/>
<circle cx="364.6288209606987" cy="-39.7528" fill="#ff2600" r="2"/>
<circle cx="366.8122270742358" cy="-39.7528" fill="#ff2600" r="2"/>
<circle cx="368.9956331877729" cy="-39.7528" fill="#ff2600" r="2"/>
<circle cx="371.17903930131007" cy="-39.7528" fill="#ff2600" r="2"/>
<circle cx="373.3624454148472" cy="-39.7528" fill="#ff2600" r="2"/>
<circle cx="375.5458515283843" cy="-39.7528" fill="#ff2600" r="2"/>
<circle cx="377.7292576419214" cy="-39.7528" fill="#ff2600" r="2"/>
<circle cx="379.91266375545854" cy="-39.7528" fill="#ff2600" r="2"/>
<circle cx="382.09606986899564" cy="-39.7528" fill="#ff2600" r="2"/>
<circle cx="384.27947598253274" cy="-39.7528" fill="#ff2600" r="2"/>
<circle cx="386.46288209606985" cy="-39.7528" fill="#ff2600" r="2"/>
<circle cx="388.646288209607" cy="-39.7528" fill="#ff2600" r="2"/>
<circle cx="390.8296943231441" cy="-39.7528" fill="#ff2600" r="2"/>
<circle cx="393.0131004366812" cy="-39.7528" fill="#ff2600" r="2"/>
<circle cx="395.1965065502183" cy="-39.7528" fill="#ff2600" r="2"/>
<circle cx="397.3799126637555" cy="-39.7528" fill="#ff2600" r="2"/>
<circle cx="399.5633187772926" cy="-39.7528" fill="#ff2600" r="2"/>
<circle cx="401.7467248908297" cy="-39.7528" fill="#ff2600" r="2"/>
<circle cx="403.9301310043668" cy="-39.7528" fill="#ff2600" r="2"/>
<circle cx="406.11353711790395" cy="-39.7528" fill="#ff2600" r="2"/>
<circle cx="408.29694323144105" cy="-39.7528" fill="#ff2600" r="2"/>
<circle cx="410.48034934497815" cy="-39.7528" fill="#ff2600" r="2"/>
<circle cx="412.6637554585153" cy="-39.7528" fill="#ff2600" r="2"/>
<circle cx="414.8471615720524" cy="-39.7528" fill="#ff2600" r="2"/>
<circle cx="417.0305676855895" cy="-39.7528" fill="#ff2600" r="2"/>
<circle cx="419.2139737991266" cy="-39.7528" fill="#ff2600" r="2"/>
<circle cx="421.3973799126638" cy="-39.7528" fill="#ff2600" r="2"/>
<circle cx="423.5807860262009" cy="-39.7528" fill="#ff2600" r="2"/>
<circle cx="425.764192139738" cy="-39.7528" fill="#ff2600" r="2"/>
<circle cx="427.9475982532751" cy="-39.7528" fill="#ff2600" r="2"/>
<circle cx="430.13100436681225" cy="-39.7528" fill="#ff2600" r="2"/>
<circle cx="432.31441048034935" cy="-39.7528" fill="#ff2600" r="2"/>
<circle cx="434.49781659388645" cy="-39.7528" fill="#ff2600" r="2"/>
</g>
<g>
<circle cx="0" cy="-304.3544" fill="#3503ff" r="2"/>
<circle cx="2.183406113537118" cy="-290.428" fill="#3503ff" r="2"/>
<circle cx="4.366812227074236" cy="-276.5016" fill="#3503ff" r="2"/>
<circle cx="6.550218340611353" cy="-262.5752" fill="#3503ff" r="2"/>
<circle cx="8.733624454148472" cy="-248.6488" fill="#3503ff" r="2"/>
<circle cx="10.91703056768559" cy="-234.7224" fill="#3503ff" r="2"/>
<circle cx="13.100436681222707" cy="-234.7224" fill="#3503ff" r="2"/>
<circle cx="15.283842794759826" cy="-220.796" fill="#3503ff" r="2"/>
<circle cx="17.467248908296945" cy="-220.796" fill="#3503ff" r="2"/>
<circle cx="19.650655021834062" cy="-206.8696" fill="#3503ff" r="2"/>
<circle cx="21.83406113537118" cy="-206.8696" fill="#3503ff" r="2"/>
<circle cx="24.017467248908297" cy="-192.9432" fill="#3503ff" r="2"/>
<circle cx="26.200873362445414" cy="-192.9432" fill="#3503ff" r="2"/>
<circle cx="28.38427947598253" cy="-179.0168" fill="#3503ff" r="2"/>
<circle cx="30.56768558951965" cy="-179.0168" fill="#3503ff" r="2"/>
<circle cx="32.751091703056765" cy="-179.0168" fill="#3503ff" r="2"/>
<circle cx="34.93449781659389" cy="-165.0904" fill="#3503ff" r="2"/>
<circle cx="37.11790393013101" cy="-165.0904" fill="#3503ff" r="2"/>
<circle cx="39.301310043668124" cy="-165.0904" fill="#3503ff" r="2"/>
<circle cx="41.48471615720524" cy="-165.0904" fill="#3503ff" r="2"/>
<circle cx="43.66812227074236" cy="-151.164" fill="#3503ff" r="2"/>
<circle cx="45.851528384279476" cy="-151.164" fill="#3503ff" r="2"/>
<circle cx="48.03493449781659" cy="-151.164" fill="#3503ff" r="2"/>
<circle cx="50.21834061135371" cy="-151.164" fill="#3503ff" r="2"/>
<circle cx="52.40174672489083" cy="-137.2376" fill="#3503ff" r="2"/>
<circle cx="54.585152838427945" cy="-137.2376" fill="#3503ff" r="2"/>
<circle cx="56.76855895196506" cy="-137.2376" fill="#3503ff" r="2"/>
<circle cx="58.951965065502186" cy="-137.2376" fill="#3503ff" r="2"/>
<circle cx="61.1353711790393" cy="-137.2376" fill="#3503ff" r="2"/>
<circle cx="63.31877729257642" cy="-123.3112" fill="#3503ff" r="2"/>
<circle cx="65.50218340611353" cy="-123.3112" fill="#3503ff" r="2"/>
<circle cx="67.68558951965065" cy="-123.3112" fill="#3503ff" r="2"/>
<circle cx="69.86899563318778" cy="-123.3112" fill="#3503ff" r="2"/>
<circle cx="72.0524017467249" cy="-123.3112" fill="#3503ff" r="2"/>
<circle cx="74.23580786026201" cy="-123.3112" fill="#3503ff" r="2"/>
<circle cx="76.41921397379913" cy="-109.3848" fill="#3503ff" r="2"/>
<circle cx="78.60262008733625" cy="-109.3848" fill="#3503ff" r="2"/>
<circle cx="80.78602620087337" cy="-109.3848" fill="#3503ff" r="2"/>
<circle cx="82.96943231441048" cy="-109.3848" fill="#3503ff" r="2"/>
<circle cx="85.1528384279476" cy="-109.3848" fill="#3503ff" r="2"/>
<circle cx="87.33624454148472" cy="-109.3848" fill="#3503ff" r="2"/>
<circle cx="89.51965065502183" cy="-109.3848" fill="#3503ff" r="2"/>
<circle cx="91.70305676855895" cy="-109.3848" fill="#3503ff" r="2"/>
<circle cx="93.88646288209607" cy="-95.4584" fill="#3503ff" r="2"/>
<circle cx="96.06986899563319" cy="-95.4584" fill="#3503ff" r="2"/>
<circle cx="98.2532751091703" cy="-95.4584" fill="#3503ff" r="2"/>
<circle cx="100.43668122270742" cy="-95.4584" fill="#3503ff" r="2"/>
<circle cx="102.62008733624454" cy="-95.4584" fill="#3503ff" r="2"/>
<circle cx="104.80349344978166" cy="-95.4584" fill="#3503ff" r="2"/>
<circle cx="106.98689956331877" cy="-95.4584" fill="#3503ff" r="2"/>
<circle cx="109.17030567685589" cy="-95.4584" fill="#3503ff" r="2"/>
<circle cx="111.353711790393" cy="-95.4584" fill="#3503ff" r="2"/>
<circle cx="113.53711790393012" cy="-95.4584" fill="#3503ff" r="2"/>
<circle cx="115.72052401746726" cy="-81.532" fill="#3503ff" r="2"/>
<circle cx="117.90393013100437" cy="-81.532" fill="#3503ff" r="2"/>
<circle cx="120.08733624454149" cy="-81.532" fill="#3503ff" r="2"/>
<circle cx="122.2707423580786" cy="-81.532" fill="#3503ff" r="2"/>
<circle cx="124.45414847161572" cy="-81.532" fill="#3503ff" r="2"/>
<circle cx="126.63755458515284" cy="-81.532" fill="#3503ff" r="2"/>
<circle cx="128.82096069868996" cy="-81.532" fill="#3503ff" r="2"/>
<circle cx="131.00436681222706" cy="-81.532" fill="#3503ff" r="2"/>
<circle cx="133.1877729257642" cy="-81.532" fill="#3503ff" r="2"/>
<circle cx="135.3711790393013" cy="-81.532" fill="#3503ff" r="2"/>
<circle cx="137.55458515283843" cy="-81.532" fill="#3503ff" r="2"/>
<circle cx="139.73799126637556" cy="-81.532" fill="#3503ff" r="2"/>
<circle cx="141.92139737991266" cy="-81.532" fill="#3503ff" r="2"/>
<circle cx="144.1048034934498" cy="-81.532" fill="#3503ff" r="2"/>
<circle cx="146.2882096069869" cy="-81.532" fill="#3503ff" r="2"/>
<circle cx="148.47161572052403" cy="-67.6056" fill="#3503ff" r="2"/>
<circle cx="150.65502183406113" cy="-67.6056" fill="#3503ff" r="2"/>
<circle cx="152.83842794759826" cy="-67.6056" fill="#3503ff" r="2"/>
<circle cx="155.02183406113537" cy="-67.6056" fill="#3503ff" r="2"/>
<circle cx="157.2052401746725" cy="-67.6056" fill="#3503ff" r="2"/>
<circle cx="159.3886462882096" cy="-67.6056" fill="#3503ff" r="2"/>
<circle cx="161.57205240174673" cy="-67.6056" fill="#3503ff" r="2"/>
<circle cx="163.75545851528383" cy="-67.6056" fill="#3503ff" r="2"/>
<circle cx="165.93886462882097" cy="-67.6056" fill="#3503ff" r="2"/>
<circle cx="168.12227074235807" cy="-67.6056" fill="#3503ff" r="2"/>
<circle cx="170.3056768558952" cy="-67.6056" fill="#3503ff" r="2"/>
<circle cx="172.4890829694323" cy="-67.6056" fill="#3503ff" r="2"/>
<circle cx="174.67248908296943" cy="-67.6056" fill="#3503ff" r="2"/>
<circle cx="176.85589519650654" cy="-67.6056" fill="#3503ff" r="2"/>
<circle cx="179.03930131004367" cy="-67.6056" fill="#3503ff" r="2"/>
<circle cx="181.22270742358077" cy="-67.6056" fill="#3503ff" r="2"/>
<circle cx="183.4061135371179" cy="-67.6056" fill="#3503ff" r="2"/>
<circle cx="185.58951965065503" cy="-67.6056" fill="#3503ff" r="2"/>
<circle cx="187.77292576419214" cy="-67.6056" fill="#3503ff" r="2"/>
<circle cx="189.95633187772927" cy="-67.6056" fill="#3503ff" r="2"/>
<circle cx="192.13973799126637" cy="-67.6056" fill="#3503ff" r="2"/>
<circle cx="194.3231441048035" cy="-67.6056" fill="#3503ff" r="2"/>
<circle cx="196.5065502183406" cy="-53.6792" fill="#3503ff" r="2"/>
<circle cx="198.68995633187774" cy="-53.6792" fill="#3503ff" r="2"/>
<circle cx="200.87336244541484" cy="-53.6792" fill="#3503ff" r="2"/>
<circle cx="203.05676855895197" cy="-53.6792" fill="#3503ff" r="2"/>
<circle cx="205.24017467248908" cy="-53.6792" fill="#3503ff" r="2"/>
<circle cx="207.4235807860262" cy="-53.6792" fill="#3503ff" r="2"/>
<circle cx="209.6069868995633" cy="-53.6792" fill="#3503ff" r="2"/>
<circle cx="211.79039301310044" cy="-53.6792" fill="#3503ff" r="2"/>
<circle cx="213.97379912663754" cy="-53.6792" fill="#3503ff" r="2"/>
<circle cx="216.15720524017468" cy="-53.6792" fill="#3503ff" r="2"/>
<circle cx="218.34061135371178" cy="-53.6792" fill="#3503ff" r="2"/>
<circle cx="220.5240174672489" cy="-53.6792" fill="#3503ff" r="2"/>
<circle cx="222.707423580786" cy="-53.6792" fill="#3503ff" r="2"/>
<circle cx="224.89082969432314" cy="-53.6792" fill="#3503ff" r="2"/>
<circle cx="227.07423580786025" cy="-53.6792" fill="#3503ff" r="2"/>
<circle cx="229.25764192139738" cy="-53.6792" fill="#3503ff" r="2"/>
<circle cx="231.4410480349345" cy="-53.6792" fill="#3503ff" r="2"/>
<circle cx="233.6244541484716" cy="-53.6792" fill="#3503ff" r="2"/>
<circle cx="235.80786026200875" cy="-53.6792" fill="#3503ff" r="2"/>
<circle cx="237.99126637554585" cy="-53.6792" fill="#3503ff" r="2"/>
<circle cx="240.17467248908298" cy="-53.6792" fill="#3503ff" r="2"/>
<circle cx="242.35807860262008" cy="-53.6792" fill="#3503ff" r="2"/>
<circle cx="244.5414847161572" cy="-53.6792" fill="#3503ff" r="2"/>
<circle cx="246.72489082969432" cy="-53.6792" fill="#3503ff" r="2"/>
<circle cx="248.90829694323145" cy="-53.6792" fill="#3503ff" r="2"/>
<circle cx="251.09170305676855" cy="-53.6792" fill="#3503ff" r="2"/>
<circle cx="253.27510917030568" cy="-53.6792" fill="#3503ff" r="2"/>
<circle cx="255.4585152838428" cy="-53.6792" fill="#3503ff" r="2"/>
<circle cx="257.6419213973799" cy="-53.6792" fill="#3503ff" r="2"/>
<circle cx="259.825327510917" cy="-53.6792" fill="#3503ff" r="2"/>
<circle cx="262.0087336244541" cy="-53.6792" fill="#3503ff" r="2"/>
<circle cx="264.1921397379913" cy="-53.6792" fill="#3503ff" r="2"/>
<circle cx="266.3755458515284" cy="-53.6792" fill="#3503ff" r="2"/>
<circle cx="268.5589519650655" cy="-53.6792" fill="#3503ff" r="2"/>
<circle cx="270.7423580786026" cy="-53.6792" fill="#3503ff" r="2"/>
<circle cx="272.92576419213975" cy="-53.6792" fill="#3503ff" r="2"/>
<circle cx="275.10917030567686" cy="-53.6792" fill="#3503ff" r="2"/>
<circle cx="277.29257641921396" cy="-39.7528" fill="#3503ff" r="2"/>
<circle cx="279.4759825327511" cy="-39.7528" fill="#3503ff" r="2"/>
<circle cx="281.6593886462882" cy="-39.7528" fill="#3503ff" r="2"/>
<circle cx="283.8427947598253" cy="-39.7528" fill="#3503ff" r="2"/>
<circle cx="286.0262008733624" cy="-39.7528" fill="#3503ff" r="2"/>
<circle cx="288.2096069868996" cy="-39.7528" fill="#3503ff" r="2"/>
<circle cx="290.3930131004367" cy="-39.7528" fill="#3503ff" r="2"/>
<circle cx="292.5764192139738" cy="-39.7528" fill="#3503ff" r="2"/>
<circle cx="294.7598253275109" cy="-39.7528" fill="#3503ff" r="2"/>
<circle cx="296.94323144104806" cy="-39.7528" fill="#3503ff" r="2"/>
<circle cx="299.12663755458516" cy="-39.7528" fill="#3503ff" r="2"/>
<circle cx="301.31004366812226" cy="-39.7528" fill="#3503ff" r="2"/>
<circle cx="303.49344978165936" cy="-39.7528" fill="#3503ff" r="2"/>
<circle cx="305.6768558951965" cy="-39.7528" fill="#3503ff" r="2"/>
<circle cx="307.8602620087336" cy="-39.7528" fill="#3503ff" r="2"/>
<circle cx="310.04366812227073" cy="-39.7528" fill="#3503ff" r="2"/>
<circle cx="312.22707423580783" cy="-39.7528" fill="#3503ff" r="2"/>
<circle cx="314.410480349345" cy="-39.7528" fill="#3503ff" r="2"/>
<circle cx="316.5938864628821" cy="-39.7528" fill="#3503ff" r="2"/>
<circle cx="318.7772925764192" cy="-39.7528" fill="#3503ff" r="2"/>
<circle cx="320.96069868995636" cy="-39.7528" fill="#3503ff" r="2"/>
<circle cx="323.14410480349346" cy="-39.7528" fill="#3503ff" r="2"/>
<circle cx="325.32751091703057" cy="-39.7528" fill="#3503ff" r="2"/>
<circle cx="327.51091703056767" cy="-39.7528" fill="#3503ff" r="2"/>
<circle cx="329.6943231441048" cy="-39.7528" fill="#3503ff" r="2"/>
<circle cx="331.87772925764193" cy="-39.7528" fill="#3503ff" r="2"/>
<circle cx="334.06113537117903" cy="-39.7528" fill="#3503ff" r="2"/>
<circle cx="336.24454148471614" cy="-39.7528" fill="#3503ff" r="2"/>
<circle cx="338.4279475982533" cy="-39.7528" fill="#3503ff" r="2"/>
<circle cx="340.6113537117904" cy="-39.7528" fill="#3503ff" r="2"/>
<circle cx="342.7947598253275" cy="-39.7528" fill="#3503ff" r="2"/>
<circle cx="344.9781659388646" cy="-39.7528" fill="#3503ff" r="2"/>
<circle cx="347.16157205240177" cy="-39.7528" fill="#3503ff" r="2"/>
<circle cx="349.34497816593887" cy="-39.7528" fill="#3503ff" r="2"/>
<circle cx="351.528384279476" cy="-39.7528" fill="#3503ff" r="2"/>
<circle cx="353.7117903930131" cy="-39.7528" fill="#3503ff" r="2"/>
<circle cx="355.89519650655023" cy="-39.7528" fill="#3503ff" r="2"/>
<circle cx="358.07860262008734" cy="-39.7528" fill="#3503ff" r="2"/>
<circle cx="360.26200873362444" cy="-39.7528" fill="#3503ff" r="2"/>
<circle cx="362.44541484716154" cy="-39.7528" fill="#3503ff" r="2"/>
<circle cx="364.6288209606987" cy="-39.7528" fill="#3503ff" r="2"/>
<circle cx="366.8122270742358" cy="-39.7528" fill="#3503ff" r="2"/>
<circle cx="368.9956331877729" cy="-39.7528" fill="#3503ff" r="2"/>
<circle cx="371.17903930131007" cy="-39.7528" fill="#3503ff" r="2"/>
<circle cx="373.3624454148472" cy="-39.7528" fill="#3503ff" r="2"/>
<circle cx="375.5458515283843" cy="-39.7528" fill="#3503ff" r="2"/>
<circle cx="377.7292576419214" cy="-39.7528" fill="#3503ff" r="2"/>
<circle cx="379.91266375545854" cy="-39.7528" fill="#3503ff" r="2"/>
<circle cx="382.09606986899564" cy="-39.7528" fill="#3503ff" r="2"/>
<circle cx="384.27947598253274" cy="-39.7528" fill="#3503ff" r="2"/>
<circle cx="386.46288209606985" cy="-39.7528" fill="#3503ff" r="2"/>
<circle cx="388.646288209607" cy="-39.7528" fill="#3503ff" r="2"/>
<circle cx="390.8296943231441" cy="-39.7528" fill="#3503ff" r="2"/>
<circle cx="393.0131004366812" cy="-39.7528" fill="#3503ff" r="2"/>
<circle cx="395.1965065502183" cy="-39.7528" fill="#3503ff" r="2"/>
<circle cx="397.3799126637555" cy="-39.7528" fill="#3503ff" r="2"/>
<circle cx="399.5633187772926" cy="-39.7528" fill="#3503ff" r="2"/>
<circle cx="401.7467248908297" cy="-39.7528" fill="#3503ff" r="2"/>
<circle cx="403.9301310043668" cy="-39.7528" fill="#3503ff" r="2"/>
<circle cx="406.11353711790395" cy="-39.7528" fill="#3503ff" r="2"/>
<circle cx="408.29694323144105" cy="-39.7528" fill="#3503ff" r="2"/>
<circle cx="410.48034934497815" cy="-39.7528" fill="#3503ff" r="2"/>
<circle cx="412.6637554585153" cy="-39.7528" fill="#3503ff" r="2"/>
<circle cx="414.8471615720524" cy="-39.7528" fill="#3503ff" r="2"/>
<circle cx="417.0305676855895" cy="-39.7528" fill="#3503ff" r="2"/>
<circle cx="419.2139737991266" cy="-39.7528" fill="#3503ff" r="2"/>
<circle cx="421.3973799126638" cy="-39.7528" fill="#3503ff" r="2"/>
<circle cx="423.5807860262009" cy="-39.7528" fill="#3503ff" r="2"/>
<circle cx="425.764192139738" cy="-39.7528" fill="#3503ff" r="2"/>
<circle cx="427.9475982532751" cy="-39.7528" fill="#3503ff" r="2"/>
<circle cx="430.13100436681225" cy="-39.7528" fill="#3503ff" r="2"/>
<circle cx="432.31441048034935" cy="-39.7528" fill="#3503ff" r="2"/>
<circle cx="434.49781659388645" cy="-11.9" fill="#3503ff" r="2"/>
</g>
<g>
<circle cx="0" cy="-304.6338161275655" fill="#000000" r="2"/>
<circle cx="2.183406113537118" cy="-291.3161275417417" fill="#000000" r="2"/>
<circle cx="4.366812227074236" cy="-279.15742466445266" fill="#000000" r="2"/>
<circle cx="6.550218340611353" cy="-268.0127277358234" fill="#000000" r="2"/>
<circle cx="8.733624454148472" cy="-257.7602695039302" fill="#000000" r="2"/>
<circle cx="10.91703056768559" cy="-248.29702847546338" fill="#000000" r="2"/>
<circle cx="13.100436681222707" cy="-239.53525535663962" fill="#000000" r="2"/>
<circle cx="15.283842794759826" cy="-231.3997442515671" fill="#000000" r="2"/>
<circle cx="17.467248908296945" cy="-223.8256687542081" fill="#000000" r="2"/>
<circle cx="19.650655021834062" cy="-216.756851056391" fill="#000000" r="2"/>
<circle cx="21.83406113537118" cy="-210.14436624439955" fill="#000000" r="2"/>
<circle cx="24.017467248908297" cy="-203.94540842578112" fill="#000000" r="2"/>
<circle cx="26.200873362445414" cy="-198.1223631185621" fill="#000000" r="2"/>
<circle cx="28.38427947598253" cy="-192.64204341765344" fill="#000000" r="2"/>
<circle cx="30.56768558951965" cy="-187.47505716778934" fill="#000000" r="2"/>
<circle cx="32.751091703056765" cy="-182.59527965690495" fill="#000000" r="2"/>
<circle cx="34.93449781659389" cy="-177.97941185883283" fill="#000000" r="2"/>
<circle cx="37.11790393013101" cy="-173.60660845859647" fill="#000000" r="2"/>
<circle cx="39.301310043668124" cy="-169.45816312978863" fill="#000000" r="2"/>
<circle cx="41.48471615720524" cy="-165.5172410415411" fill="#000000" r="2"/>
<circle cx="43.66812227074236" cy="-161.76865052669942" fill="#000000" r="2"/>
<circle cx="45.851528384279476" cy="-158.19864738325478" fill="#000000" r="2"/>
<circle cx="48.03493449781659" cy="-154.7947664931178" fill="#000000" r="2"/>
<circle cx="50.21834061135371" cy="-151.5456764118254" fill="#000000" r="2"/>
<circle cx="52.40174672489083" cy="-148.4410533534199" fill="#000000" r="2"/>
<circle cx="54.585152838427945" cy="-145.4714716188699" fill="#000000" r="2"/>
<circle cx="56.76855895196506" cy="-142.62830801751912" fill="#000000" r="2"/>
<circle cx="58.951965065502186" cy="-139.90365824026168" fill="#000000" r="2"/>
<circle cx="61.1353711790393" cy="-137.29026347676515" fill="#000000" r="2"/>
<circle cx="63.31877729257642" cy="-134.7814458415836" fill="#000000" r="2"/>
<circle cx="65.50218340611353" cy="-132.37105139991343" fill="#000000" r="2"/>
<circle cx="67.68558951965065" cy="-130.05339976978303" fill="#000000" r="2"/>
<circle cx="69.86899563318778" cy="-127.82323943148553" fill="#000000" r="2"/>
<circle cx="72.0524017467249" cy="-125.67570800435841" fill="#000000" r="2"/>
<circle cx="74.23580786026201" cy="-123.6062968583703" fill="#000000" r="2"/>
<circle cx="76.41921397379913" cy="-121.61081951876581" fill="#000000" r="2"/>
<circle cx="78.60262008733625" cy="-119.68538339740634" fill="#000000" r="2"/>
<circle cx="80.78602620087337" cy="-117.82636444954872" fill="#000000" r="2"/>
<circle cx="82.96943231441048" cy="-116.03038440840542" fill="#000000" r="2"/>
<circle cx="85.1528384279476" cy="-114.2942902976066" fill="#000000" r="2"/>
<circle cx="87.33624454148472" cy="-112.61513595856727" fill="#000000" r="2"/>
<circle cx="89.51965065502183" cy="-110.99016536689997" fill="#000000" r="2"/>
<circle cx="91.70305676855895" cy="-109.41679753759801" fill="#000000" r="2"/>
<circle cx="93.88646288209607" cy="-107.89261284612417" fill="#000000" r="2"/>
<circle cx="96.06986899563319" cy="-106.41534061234891" fill="#000000" r="2"/>
<circle cx="98.2532751091703" cy="-104.98284781368673" fill="#000000" r="2"/>
<circle cx="100.43668122270742" cy="-103.59312880918085" fill="#000000" r="2"/>
<circle cx="102.62008733624454" cy="-102.24429597047269" fill="#000000" r="2"/>
<circle cx="104.80349344978166" cy="-100.93457112800479" fill="#000000" r="2"/>
<circle cx="106.98689956331877" cy="-99.66227775012851" fill="#000000" r="2"/>
<circle cx="109.17030567685589" cy="-98.42583378378153" fill="#000000" r="2"/>
<circle cx="111.353711790393" cy="-97.22374509148001" fill="#000000" r="2"/>
<circle cx="113.53711790393012" cy="-96.05459942848981" fill="#000000" r="2"/>
<circle cx="115.72052401746726" cy="-94.91706090758741" fill="#000000" r="2"/>
<circle cx="117.90393013100437" cy="-93.80986490773857" fill="#000000" r="2"/>
<circle cx="120.08733624454149" cy="-92.73181338398456" fill="#000000" r="2"/>
<circle cx="122.2707423580786" cy="-91.68177054332494" fill="#000000" r="2"/>
<circle cx="124.45414847161572" cy="-90.658658853361" fill="#000000" r="2"/>
<circle cx="126.63755458515284" cy="-89.66145535385907" fill="#000000" r="2"/>
<circle cx="128.82096069868996" cy="-88.68918824509085" fill="#000000" r="2"/>
<circle cx="131.00436681222706" cy="-87.74093372934162" fill="#000000" r="2"/>
<circle cx="133.1877729257642" cy="-86.8158130827874" fill="#000000" r="2"/>
<circle cx="135.3711790393013" cy="-85.91298994005919" fill="#000000" r="2"/>
<circle cx="137.55458515283843" cy="-85.03166777188778" fill="#000000" r="2"/>
<circle cx="139.73799126637556" cy="-84.17108754159212" fill="#000000" r="2"/>
<circle cx="141.92139737991266" cy="-83.33052552460433" fill="#000000" r="2"/>
<circle cx="144.1048034934498" cy="-82.50929127861858" fill="#000000" r="2"/>
<circle cx="146.2882096069869" cy="-81.70672575215399" fill="#000000" r="2"/>
<circle cx="148.47161572052403" cy="-80.92219952058792" fill="#000000" r="2"/>
<circle cx="150.65502183406113" cy="-80.15511113998294" fill="#000000" r="2"/>
<circle cx="152.83842794759826" cy="-79.40488560913205" fill="#000000" r="2"/>
<circle cx="155.02183406113537" cy="-78.67097293242514" fill="#000000" r="2"/>
<circle cx="157.2052401746725" cy="-77.9528467749238" fill="#000000" r="2"/>
<circle cx="159.3886462882096" cy="-77.25000320371687" fill="#000000" r="2"/>
<circle cx="161.57205240174673" cy="-76.56195950856507" fill="#000000" r="2"/>
<circle cx="163.75545851528383" cy="-75.88825309636294" fill="#000000" r="2"/>
<circle cx="165.93886462882097" cy="-75.2284404537946" fill="#000000" r="2"/>
<circle cx="168.12227074235807" cy="-74.58209617402852" fill="#000000" r="2"/>
<circle cx="170.3056768558952" cy="-73.94881204162537" fill="#000000" r="2"/>
<circle cx="172.4890829694323" cy="-73.32819617317617" fill="#000000" r="2"/>
<circle cx="174.67248908296943" cy="-72.71987220840155" fill="#000000" r="2"/>
<circle cx="176.85589519650654" cy="-72.1234785492301" fill="#000000" r="2"/>
<circle cx="179.03930131004367" cy="-71.53866764285266" fill="#000000" r="2"/>
<circle cx="181.22270742358077" cy="-70.96510530647338" fill="#000000" r="2"/>
<circle cx="183.4061135371179" cy="-70.40247009051443" fill="#000000" r="2"/>
<circle cx="185.58951965065503" cy="-69.8504526779443" fill="#000000" r="2"/>
<circle cx="187.77292576419214" cy="-69.3087553169936" fill="#000000" r="2"/>
<circle cx="189.95633187772927" cy="-68.77709128583967" fill="#000000" r="2"/>
<circle cx="192.13973799126637" cy="-68.25518438657522" fill="#000000" r="2"/>
<circle cx="194.3231441048035" cy="-67.74276846658587" fill="#000000" r="2"/>
<circle cx="196.5065502183406" cy="-67.23958696617186" fill="#000000" r="2"/>
<circle cx="198.68995633187774" cy="-66.74539248993099" fill="#000000" r="2"/>
<circle cx="200.87336244541484" cy="-66.25994640164971" fill="#000000" r="2"/>
<circle cx="203.05676855895197" cy="-65.7830184396118" fill="#000000" r="2"/>
<circle cx="205.24017467248908" cy="-65.3143863525778" fill="#000000" r="2"/>
<circle cx="207.4235807860262" cy="-64.85383555461168" fill="#000000" r="2"/>
<circle cx="209.6069868995633" cy="-64.40115879718363" fill="#000000" r="2"/>
<circle cx="211.79039301310044" cy="-63.95615585844815" fill="#000000" r="2"/>
<circle cx="213.97379912663754" cy="-63.51863324777186" fill="#000000" r="2"/>
<circle cx="216.15720524017468" cy="-63.08840392520726" fill="#000000" r="2"/>
<circle cx="218.34061135371178" cy="-62.66528703520298" fill="#000000" r="2"/>
<circle cx="220.5240174672489" cy="-62.2491076526761" fill="#000000" r="2"/>
<circle cx="222.707423580786" cy="-61.839696542206404" fill="#000000" r="2"/>
<circle cx="224.89082969432314" cy="-61.43688992832601" fill="#000000" r="2"/>
<circle cx="227.07423580786025" cy="-61.040529277461765" fill="#000000" r="2"/>
<circle cx="229.25764192139738" cy="-60.6504610894531" fill="#000000" r="2"/>
<circle cx="231.4410480349345" cy="-60.26653669965863" fill="#000000" r="2"/>
<circle cx="233.6244541484716" cy="-59.88861208987832" fill="#000000" r="2"/>
<circle cx="235.80786026200875" cy="-59.51654770834446" fill="#000000" r="2"/>
<circle cx="237.99126637554585" cy="-59.1502082978189" fill="#000000" r="2"/>
<circle cx="240.17467248908298" cy="-58.789462731745836" fill="#000000" r="2"/>
<circle cx="242.35807860262008" cy="-58.434183857700226" fill="#000000" r="2"/>
<circle cx="244.5414847161572" cy="-58.08424834787846" fill="#000000" r="2"/>
<circle cx="246.72489082969432" cy="-57.73953655658066" fill="#000000" r="2"/>
<circle cx="248.90829694323145" cy="-57.39993238362074" fill="#000000" r="2"/>
<circle cx="251.09170305676855" cy="-57.06532314401865" fill="#000000" r="2"/>
<circle cx="253.27510917030568" cy="-56.73559944346845" fill="#000000" r="2"/>
<circle cx="255.4585152838428" cy="-56.4106550588727" fill="#000000" r="2"/>
<circle cx="257.6419213973799" cy="-56.09038682434857" fill="#000000" r="2"/>
<circle cx="259.825327510917" cy="-55.774694522097704" fill="#000000" r="2"/>
<circle cx="262.0087336244541" cy="-55.46348077778518" fill="#000000" r="2"/>
<circle cx="264.1921397379913" cy="-55.15665096037686" fill="#000000" r="2"/>
<circle cx="266.3755458515284" cy="-54.854113086232545" fill="#000000" r="2"/>
<circle cx="268.5589519650655" cy="-54.55577772720158" fill="#000000" r="2"/>
<circle cx="270.7423580786026" cy="-54.26155792241693" fill="#000000" r="2"/>
<circle cx="272.92576419213975" cy="-53.971369093888995" fill="#000000" r="2"/>
<circle cx="275.10917030567686" cy="-53.685128965342045" fill="#000000" r="2"/>
<circle cx="277.29257641921396" cy="-53.402757484546306" fill="#000000" r="2"/>
<circle cx="279.4759825327511" cy="-53.12417674853802" fill="#000000" r="2"/>
<circle cx="281.6593886462882" cy="-52.849310932081934" fill="#000000" r="2"/>
<circle cx="283.8427947598253" cy="-52.578086218819024" fill="#000000" r="2"/>
<circle cx="286.0262008733624" cy="-52.31043073530197" fill="#000000" r="2"/>
<circle cx="288.2096069868996" cy="-52.046274487158655" fill="#000000" r="2"/>
<circle cx="290.3930131004367" cy="-51.78554929844737" fill="#000000" r="2"/>
<circle cx="292.5764192139738" cy="-51.52818875283599" fill="#000000" r="2"/>
<circle cx="294.7598253275109" cy="-51.27412813711167" fill="#000000" r="2"/>
<circle cx="296.94323144104806" cy="-51.023304387122394" fill="#000000" r="2"/>
<circle cx="299.12663755458516" cy="-50.775656035339836" fill="#000000" r="2"/>
<circle cx="301.31004366812226" cy="-50.53112316095531" fill="#000000" r="2"/>
<circle cx="303.49344978165936" cy="-50.2896473412931" fill="#000000" r="2"/>
<circle cx="305.6768558951965" cy="-50.05117160525024" fill="#000000" r="2"/>
<circle cx="307.8602620087336" cy="-49.81564038881361" fill="#000000" r="2"/>
<circle cx="310.04366812227073" cy="-49.582999491488934" fill="#000000" r="2"/>
<circle cx="312.22707423580783" cy="-49.353196035060286" fill="#000000" r="2"/>
<circle cx="314.410480349345" cy="-49.12617842316031" fill="#000000" r="2"/>
<circle cx="316.5938864628821" cy="-48.90189630306959" fill="#000000" r="2"/>
<circle cx="318.7772925764192" cy="-48.68030052817464" fill="#000000" r="2"/>
<circle cx="320.96069868995636" cy="-48.46134312214851" fill="#000000" r="2"/>
<circle cx="323.14410480349346" cy="-48.244977244398" fill="#000000" r="2"/>
<circle cx="325.32751091703057" cy="-48.0311571564734" fill="#000000" r="2"/>
<circle cx="327.51091703056767" cy="-47.819838190099595" fill="#000000" r="2"/>
<circle cx="329.6943231441048" cy="-47.61097671586573" fill="#000000" r="2"/>
<circle cx="331.87772925764193" cy="-47.404530113232134" fill="#000000" r="2"/>
<circle cx="334.06113537117903" cy="-47.20045674155057" fill="#000000" r="2"/>
<circle cx="336.24454148471614" cy="-46.998715912148356" fill="#000000" r="2"/>
<circle cx="338.4279475982533" cy="-46.79926786107123" fill="#000000" r="2"/>
<circle cx="340.6113537117904" cy="-46.602073723194" fill="#000000" r="2"/>
<circle cx="342.7947598253275" cy="-46.40709550683796" fill="#000000" r="2"/>
<circle cx="344.9781659388646" cy="-46.214296069401506" fill="#000000" r="2"/>
<circle cx="347.16157205240177" cy="-46.02363909370005" fill="#000000" r="2"/>
<circle cx="349.34497816593887" cy="-45.835089065369964" fill="#000000" r="2"/>
<circle cx="351.528384279476" cy="-45.64861125057638" fill="#000000" r="2"/>
<circle cx="353.7117903930131" cy="-45.46417167473435" fill="#000000" r="2"/>
<circle cx="355.89519650655023" cy="-45.28173710204065" fill="#000000" r="2"/>
<circle cx="358.07860262008734" cy="-45.101275015258786" fill="#000000" r="2"/>
<circle cx="360.26200873362444" cy="-44.92275359666944" fill="#000000" r="2"/>
<circle cx="362.44541484716154" cy="-44.74614170902073" fill="#000000" r="2"/>
<circle cx="364.6288209606987" cy="-44.5714088778466" fill="#000000" r="2"/>
<circle cx="366.8122270742358" cy="-44.398525273531675" fill="#000000" r="2"/>
<circle cx="368.9956331877729" cy="-44.227461694642905" fill="#000000" r="2"/>
<circle cx="371.17903930131007" cy="-44.058189551311735" fill="#000000" r="2"/>
<circle cx="373.3624454148472" cy="-43.890680849325655" fill="#000000" r="2"/>
<circle cx="375.5458515283843" cy="-43.724908174827696" fill="#000000" r="2"/>
<circle cx="377.7292576419214" cy="-43.5608446791172" fill="#000000" r="2"/>
<circle cx="379.91266375545854" cy="-43.39846406436264" fill="#000000" r="2"/>
<circle cx="382.09606986899564" cy="-43.237740569517015" fill="#000000" r="2"/>
<circle cx="384.27947598253274" cy="-43.078648956638574" fill="#000000" r="2"/>
<circle cx="386.46288209606985" cy="-42.921164497566224" fill="#000000" r="2"/>
<circle cx="388.646288209607" cy="-42.76526296145618" fill="#000000" r="2"/>
<circle cx="390.8296943231441" cy="-42.610920601964" fill="#000000" r="2"/>
<circle cx="393.0131004366812" cy="-42.458114145439865" fill="#000000" r="2"/>
<circle cx="395.1965065502183" cy="-42.3068207791239" fill="#000000" r="2"/>
<circle cx="397.3799126637555" cy="-42.15701813974678" fill="#000000" r="2"/>
<circle cx="399.5633187772926" cy="-42.00868430268765" fill="#000000" r="2"/>
<circle cx="401.7467248908297" cy="-41.86179777113199" fill="#000000" r="2"/>
<circle cx="403.9301310043668" cy="-41.71633746573627" fill="#000000" r="2"/>
<circle cx="406.11353711790395" cy="-41.57228271439374" fill="#000000" r="2"/>
<circle cx="408.29694323144105" cy="-41.429613242760304" fill="#000000" r="2"/>
<circle cx="410.48034934497815" cy="-41.288309164476395" fill="#000000" r="2"/>
<circle cx="412.6637554585153" cy="-41.14835097194612" fill="#000000" r="2"/>
<circle cx="414.8471615720524" cy="-41.00971952757239" fill="#000000" r="2"/>
<circle cx="417.0305676855895" cy="-40.87239605473876" fill="#000000" r="2"/>
<circle cx="419.2139737991266" cy="-40.736362129551175" fill="#000000" r="2"/>
<circle cx="421.3973799126638" cy="-40.601599672478436" fill="#000000" r="2"/>
<circle cx="423.5807860262009" cy="-40.46809094039798" fill="#000000" r="2"/>
<circle cx="425.764192139738" cy="-40.33581851884425" fill="#000000" r="2"/>
<circle cx="427.9475982532751" cy="-40.20476531430781" fill="#000000" r="2"/>
<circle cx="430.13100436681225" cy="-40.0749142891109" fill="#000000" r="2"/>
<circle cx="432.31441048034935" cy="-39.94357260273695" fill="#000000" r="2"/>
<circle cx="434.49781659388645" cy="-11.9" fill="#000000" r="2"/>
</g>
<g>
<circle cx="0" cy="-11.9" fill="#008711" r="2"/>
<circle cx="2.183406113537118" cy="-11.9" fill="#008711" r="2"/>
<circle cx="4.366812227074236" cy="-11.9" fill="#008711" r="2"/>
<circle cx="6.550218340611353" cy="-11.9" fill="#008711" r="2"/>
<circle cx="8.733624454148472" cy="-11.9" fill="#008711" r="2"/>
<circle cx="10.91703056768559" cy="-11.9" fill="#008711" r="2"/>
<circle cx="13.100436681222707" cy="-11.9" fill="#008711" r="2"/>
<circle cx="15.283842794759826" cy="-11.9" fill="#008711" r="2"/>
<circle cx="17.467248908296945" cy="-11.9" fill="#008711" r="2"/>
<circle cx="19.650655021834062" cy="-11.9" fill="#008711" r="2"/>
<circle cx="21.83406113537118" cy="-11.9" fill="#008711" r="2"/>
<circle cx="24.017467248908297" cy="-11.9" fill="#008711" r="2"/>
<circle cx="26.200873362445414" cy="-11.9" fill="#008711" r="2"/>
<circle cx="28.38427947598253" cy="-11.9" fill="#008711" r="2"/>
<circle cx="30.56768558951965" cy="-11.9" fill="#008711" r="2"/>
<circle cx="32.751091703056765" cy="-11.9" fill="#008711" r="2"/>
<circle cx="34.93449781659389" cy="-11.9" fill="#008711" r="2"/>
<circle cx="37.11790393013101" cy="-11.9" fill="#008711" r="2"/>
<circle cx="39.301310043668124" cy="-11.9" fill="#008711" r="2"/>
<circle cx="41.48471615720524" cy="-11.9" fill="#008711" r="2"/>
<circle cx="43.66812227074236" cy="-11.9" fill="#008711" r="2"/>
<circle cx="45.851528384279476" cy="-11.9" fill="#008711" r="2"/>
<circle cx="48.03493449781659" cy="-11.9" fill="#008711" r="2"/>
<circle cx="50.21834061135371" cy="-11.9" fill="#008711" r="2"/>
<circle cx="52.40174672489083" cy="-11.9" fill="#008711" r="2"/>
<circle cx="54.585152838427945" cy="-11.9" fill="#008711" r="2"/>
<circle cx="56.76855895196506" cy="-11.9" fill="#008711" r="2"/>
<circle cx="58.951965065502186" cy="-11.9" fill="#008711" r="2"/>
<circle cx="61.1353711790393" cy="-11.9" fill="#008711" r="2"/>
<circle cx="63.31877729257642" cy="-11.9" fill="#008711" r="2"/>
<circle cx="65.50218340611353" cy="-11.9" fill="#008711" r="2"/>
<circle cx="67.68558951965065" cy="-11.9" fill="#008711" r="2"/>
<circle cx="69.86899563318778" cy="-11.9" fill="#008711" r="2"/>
<circle cx="72.0524017467249" cy="-11.9" fill="#008711" r="2"/>
<circle cx="74.23580786026201" cy="-11.9" fill="#008711" r="2"/>
<circle cx="76.41921397379913" cy="-11.9" fill="#008711" r="2"/>
<circle cx="78.60262008733625" cy="-11.9" fill="#008711" r="2"/>
<circle cx="80.78602620087337" cy="-11.9" fill="#008711" r="2"/>
<circle cx="82.96943231441048" cy="-11.9" fill="#008711" r="2"/>
<circle cx="85.1528384279476" cy="-11.9" fill="#008711" r="2"/>
<circle cx="87.33624454148472" cy="-11.9" fill="#008711" r="2"/>
<circle cx="89.51965065502183" cy="-11.9" fill="#008711" r="2"/>
<circle cx="91.70305676855895" cy="-11.9" fill="#008711" r="2"/>
<circle cx="93.88646288209607" cy="-11.9" fill="#008711" r="2"/>
<circle cx="96.06986899563319" cy="-11.9" fill="#008711" r="2"/>
<circle cx="98.2532751091703" cy="-11.9" fill="#008711" r="2"/>
<circle cx="100.43668122270742" cy="-11.9" fill="#008711" r="2"/>
<circle cx="102.62008733624454" cy="-11.9" fill="#008711" r="2"/>
<circle cx="104.80349344978166" cy="-11.9" fill="#008711" r="2"/>
<circle cx="106.98689956331877" cy="-11.9" fill="#008711" r="2"/>
<circle cx="109.17030567685589" cy="-11.9" fill="#008711" r="2"/>
<circle cx="111.353711790393" cy="-11.9" fill="#008711" r="2"/>
<circle cx="113.53711790393012" cy="-11.9" fill="#008711" r="2"/>
<circle cx="115.72052401746726" cy="-11.9" fill="#008711" r="2"/>
<circle cx="117.90393013100437" cy="-11.9" fill="#008711" r="2"/>
<circle cx="120.08733624454149" cy="-11.9" fill="#008711" r="2"/>
<circle cx="122.2707423580786" cy="-11.9" fill="#008711" r="2"/>
<circle cx="124.45414847161572" cy="-11.9" fill="#008711" r="2"/>
<circle cx="126.63755458515284" cy="-11.9" fill="#008711" r="2"/>
<circle cx="128.82096069868996" cy="-11.9" fill="#008711" r="2"/>
<circle cx="131.00436681222706" cy="-11.9" fill="#008711" r="2"/>
<circle cx="133.1877729257642" cy="-11.9" fill="#008711" r="2"/>
<circle cx="135.3711790393013" cy="-11.9" fill="#008711" r="2"/>
<circle cx="137.55458515283843" cy="-11.9" fill="#008711" r="2"/>
<circle cx="139.73799126637556" cy="-11.9" fill="#008711" r="2"/>
<circle cx="141.92139737991266" cy="-11.9" fill="#008711" r="2"/>
<circle cx="144.1048034934498" cy="-11.9" fill="#008711" r="2"/>
<circle cx="146.2882096069869" cy="-11.9" fill="#008711" r="2"/>
<circle cx="148.47161572052403" cy="-11.9" fill="#008711" r="2"/>
<circle cx="150.65502183406113" cy="-11.9" fill="#008711" r="2"/>
<circle cx="152.83842794759826" cy="-11.9" fill="#008711" r="2"/>
<circle cx="155.02183406113537" cy="-11.9" fill="#008711" r="2"/>
<circle cx="157.2052401746725" cy="-11.9" fill="#008711" r="2"/>
<circle cx="159.3886462882096" cy="-11.9" fill="#008711" r="2"/>
<circle cx="161.57205240174673" cy="-11.9" fill="#008711" r="2"/>
<circle cx="163.75545851528383" cy="-11.9" fill="#008711" r="2"/>
<circle cx="165.93886462882097" cy="-11.9" fill="#008711" r="2"/>
<circle cx="168.12227074235807" cy="-11.9" fill="#008711" r="2"/>
<circle cx="170.3056768558952" cy="-11.9" fill="#008711" r="2"/>
<circle cx="172.4890829694323" cy="-11.9" fill="#008711" r="2"/>
<circle cx="174.67248908296943" cy="-11.9" fill="#008711" r="2"/>
<circle cx="176.85589519650654" cy="-11.9" fill="#008711" r="2"/>
<circle cx="179.03930131004367" cy="-11.9" fill="#008711" r="2"/>
<circle cx="181.22270742358077" cy="-11.9" fill="#008711" r="2"/>
<circle cx="183.4061135371179" cy="-11.9" fill="#008711" r="2"/>
<circle cx="185.58951965065503" cy="-11.9" fill="#008711" r="2"/>
<circle cx="187.77292576419214" cy="-11.9" fill="#008711" r="2"/>
<circle cx="189.95633187772927" cy="-11.9" fill="#008711" r="2"/>
<circle cx="192.13973799126637" cy="-11.9" fill="#008711" r="2"/>
<circle cx="194.3231441048035" cy="-11.9" fill="#008711" r="2"/>
<circle cx="196.5065502183406" cy="-11.9" fill="#008711" r="2"/>
<circle cx="198.68995633187774" cy="-11.9" fill="#008711" r="2"/>
<circle cx="200.87336244541484" cy="-11.9" fill="#008711" r="2"/>
<circle cx="203.05676855895197" cy="-11.9" fill="#008711" r="2"/>
<circle cx="205.24017467248908" cy="-11.9" fill="#008711" r="2"/>
<circle cx="207.4235807860262" cy="-11.9" fill="#008711" r="2"/>
<circle cx="209.6069868995633" cy="-11.9" fill="#008711" r="2"/>
<circle cx="211.79039301310044" cy="-11.9" fill="#008711" r="2"/>
<circle cx="213.97379912663754" cy="-11.9" fill="#008711" r="2"/>
<circle cx="216.15720524017468" cy="-11.9" fill="#008711" r="2"/>
<circle cx="218.34061135371178" cy="-11.9" fill="#008711" r="2"/>
<circle cx="220.5240174672489" cy="-11.9" fill="#008711" r="2"/>
<circle cx="222.707423580786" cy="-11.9" fill="#008711" r="2"/>
<circle cx="224.89082969432314" cy="-11.9" fill="#008711" r="2"/>
<circle cx="227.07423580786025" cy="-11.9" fill="#008711" r="2"/>
<circle cx="229.25764192139738" cy="-11.9" fill="#008711" r="2"/>
<circle cx="231.4410480349345" cy="-11.9" fill="#008711" r="2"/>
<circle cx="233.6244541484716" cy="-11.9" fill="#008711" r="2"/>
<circle cx="235.80786026200875" cy="-11.9" fill="#008711" r="2"/>
<circle cx="237.99126637554585" cy="-11.9" fill="#008711" r="2"/>
<circle cx="240.17467248908298" cy="-11.9" fill="#008711" r="2"/>
<circle cx="242.35807860262008" cy="-11.9" fill="#008711" r="2"/>
<circle cx="244.5414847161572" cy="-11.9" fill="#008711" r="2"/>
<circle cx="246.72489082969432" cy="-11.9" fill="#008711" r="2"/>
<circle cx="248.90829694323145" cy="-11.9" fill="#008711" r="2"/>
<circle cx="251.09170305676855" cy="-11.9" fill="#008711" r="2"/>
<circle cx="253.27510917030568" cy="-11.9" fill="#008711" r="2"/>
<circle cx="255.4585152838428" cy="-11.9" fill="#008711" r="2"/>
<circle cx="257.6419213973799" cy="-11.9" fill="#008711" r="2"/>
<circle cx="259.825327510917" cy="-11.9" fill="#008711" r="2"/>
<circle cx="262.0087336244541" cy="-11.9" fill="#008711" r="2"/>
<circle cx="264.1921397379913" cy="-11.9" fill="#008711" r="2"/>
<circle cx="266.3755458515284" cy="-11.9" fill="#008711" r="2"/>
<circle cx="268.5589519650655" cy="-11.9" fill="#008711" r="2"/>
<circle cx="270.7423580786026" cy="-11.9" fill="#008711" r="2"/>
<circle cx="272.92576419213975" cy="-11.9" fill="#008711" r="2"/>
<circle cx="275.10917030567686" cy="-11.9" fill="#008711" r="2"/>
<circle cx="277.29257641921396" cy="-11.9" fill="#008711" r="2"/>
<circle cx="279.4759825327511" cy="-11.9" fill="#008711" r="2"/>
<circle cx="281.6593886462882" cy="-11.9" fill="#008711" r="2"/>
<circle cx="283.8427947598253" cy="-11.9" fill="#008711" r="2"/>
<circle cx="286.0262008733624" cy="-11.9" fill="#008711" r="2"/>
<circle cx="288.2096069868996" cy="-11.9" fill="#008711" r="2"/>
<circle cx="290.3930131004367" cy="-11.9" fill="#008711" r="2"/>
<circle cx="292.5764192139738" cy="-11.9" fill="#008711" r="2"/>
<circle cx="294.7598253275109" cy="-11.9" fill="#008711" r="2"/>
<circle cx="296.94323144104806" cy="-11.9" fill="#008711" r="2"/>
<circle cx="299.12663755458516" cy="-11.9" fill="#008711" r="2"/>
<circle cx="301.31004366812226" cy="-11.9" fill="#008711" r="2"/>
<circle cx="303.49344978165936" cy="-11.9" fill="#008711" r="2"/>
<circle cx="305.6768558951965" cy="-11.9" fill="#008711" r="2"/>
<circle cx="307.8602620087336" cy="-11.9" fill="#008711" r="2"/>
<circle cx="310.04366812227073" cy="-11.9" fill="#008711" r="2"/>
<circle cx="312.22707423580783" cy="-11.9" fill="#008711" r="2"/>
<circle cx="314.410480349345" cy="-11.9" fill="#008711" r="2"/>
<circle cx="316.5938864628821" cy="-11.9" fill="#008711" r="2"/>
<circle cx="318.7772925764192" cy="-11.9" fill="#008711" r="2"/>
<circle cx="320.96069868995636" cy="-11.9" fill="#008711" r="2"/>
<circle cx="323.14410480349346" cy="-11.9" fill="#008711" r="2"/>
<circle cx="325.32751091703057" cy="-11.9" fill="#008711" r="2"/>
<circle cx="327.51091703056767" cy="-11.9" fill="#008711" r="2"/>
<circle cx="329.6943231441048" cy="-11.9" fill="#008711" r="2"/>
<circle cx="331.87772925764193" cy="-11.9" fill="#008711" r="2"/>
<circle cx="334.06113537117903" cy="-11.9" fill="#008711" r="2"/>
<circle cx="336.24454148471614" cy="-11.9" fill="#008711" r="2"/>
<circle cx="338.4279475982533" cy="-11.9" fill="#008711" r="2"/>
<circle cx="340.6113537117904" cy="-11.9" fill="#008711" r="2"/>
<circle cx="342.7947598253275" cy="-11.9" fill="#008711" r="2"/>
<circle cx="344.9781659388646" cy="-11.9" fill="#008711" r="2"/>
<circle cx="347.16157205240177" cy="-11.9" fill="#008711" r="2"/>
<circle cx="349.34497816593887" cy="-11.9" fill="#008711" r="2"/>
<circle cx="351.528384279476" cy="-11.9" fill="#008711" r="2"/>
<circle cx="353.7117903930131" cy="-11.9" fill="#008711" r="2"/>
<circle cx="355.89519650655023" cy="-11.9" fill="#008711" r="2"/>
<circle cx="358.07860262008734" cy="-11.9" fill="#008711" r="2"/>
<circle cx="360.26200873362444" cy="-11.9" fill="#008711" r="2"/>
<circle cx="362.44541484716154" cy="-11.9" fill="#008711" r="2"/>
<circle cx="364.6288209606987" cy="-11.9" fill="#008711" r="2"/>
<circle cx="366.8122270742358" cy="-11.9" fill="#008711" r="2"/>
<circle cx="368.9956331877729" cy="-11.9" fill="#008711" r="2"/>
<circle cx="371.17903930131007" cy="-11.9" fill="#008711" r="2"/>
<circle cx="373.3624454148472" cy="-11.9" fill="#008711" r="2"/>
<circle cx="375.5458515283843" cy="-11.9" fill="#008711" r="2"/>
<circle cx="377.7292576419214" cy="-11.9" fill="#008711" r="2"/>
<circle cx="379.91266375545854" cy="-11.9" fill="#008711" r="2"/>
<circle cx="382.09606986899564" cy="-11.9" fill="#008711" r="2"/>
<circle cx="384.27947598253274" cy="-11.9" fill="#008711" r="2"/>
<circle cx="386.46288209606985" cy="-11.9" fill="#008711" r="2"/>
<circle cx="388.646288209607" cy="-11.9" fill="#008711" r="2"/>
<circle cx="390.8296943231441" cy="-11.9" fill="#008711" r="2"/>
<circle cx="393.0131004366812" cy="-11.9" fill="#008711" r="2"/>
<circle cx="395.1965065502183" cy="-11.9" fill="#008711" r="2"/>
<circle cx="397.3799126637555" cy="-11.9" fill="#008711" r="2"/>
<circle cx="399.5633187772926" cy="-11.9" fill="#008711" r="2"/>
<circle cx="401.7467248908297" cy="-11.9" fill="#008711" r="2"/>
<circle cx="403.9301310043668" cy="-11.9" fill="#008711" r="2"/>
<circle cx="406.11353711790395" cy="-11.9" fill="#008711" r="2"/>
<circle cx="408.29694323144105" cy="-11.9" fill="#008711" r="2"/>
<circle cx="410.48034934497815" cy="-11.9" fill="#008711" r="2"/>
<circle cx="412.6637554585153" cy="-11.9" fill="#008711" r="2"/>
<circle cx="414.8471615720524" cy="-11.9" fill="#008711" r="2"/>
<circle cx="417.0305676855895" cy="-11.9" fill="#008711" r="2"/>
<circle cx="419.2139737991266" cy="-11.9" fill="#008711" r="2"/>
<circle cx="421.3973799126638" cy="-11.9" fill="#008711" r="2"/>
<circle cx="423.5807860262009" cy="-11.9" fill="#008711" r="2"/>
<circle cx="425.764192139738" cy="-11.9" fill="#008711" r="2"/>
<circle cx="427.9475982532751" cy="-11.9" fill="#008711" r="2"/>
<circle cx="430.13100436681225" cy="-11.9" fill="#008711" r="2"/>
<circle cx="432.31441048034935" cy="-11.9" fill="#008711" r="2"/>
<circle cx="434.49781659388645" cy="-11.9" fill="#008711" r="2"/>
</g>
<g>
<g>
<line stroke="black" stroke-width="1" x1="41.48471615720524" x2="41.48471615720524" y1="0" y2="10"/>
<line stroke="black" stroke-width="1" x1="128.82096069868996" x2="128.82096069868996" y1="0" y2="10"/>
<line stroke="black" stroke-width="1" x1="216.15720524017468" x2="216.15720524017468" y1="0" y2="10"/>
<line stroke="black" stroke-width="1" x1="303.49344978165936" x2="303.49344978165936" y1="0" y2="10"/>
<line stroke="black" stroke-width="1" x1="390.8296943231441" x2="390.8296943231441" y1="0" y2="10"/>
<line stroke="black" stroke-width="1" x1="478.1659388646288" x2="478.1659388646288" y1="0" y2="10"/>
</g>
<line stroke="black" stroke-width="1" x1="0" x2="500" y1="0" y2="0"/>
<g>
<text font-size="12" text-anchor="middle" x="41.48471615720524" y="20">
40000
</text>
<text font-size="12" text-anchor="middle" x="128.82096069868996" y="20">
80000
</text>
<text font-size="12" text-anchor="middle" x="216.15720524017468" y="20">
120000
</text>
<text font-size="12" text-anchor="middle" x="303.49344978165936" y="20">
160000
</text>
<text font-size="12" text-anchor="middle" x="390.8296943231441" y="20">
200000
</text>
<text font-size="12" text-anchor="middle" x="478.1659388646288" y="20">
240000
</text>
</g>
<text font-size="12" text-anchor="middle" x="250" y="30">
Gas
</text>
</g>
<g>
<g>
<line stroke="black" stroke-width="1" x1="0" x2="-10" y1="-42.5" y2="-42.5"/>
<line stroke="black" stroke-width="1" x1="0" x2="-10" y1="-127.5" y2="-127.5"/>
<line stroke="black" stroke-width="1" x1="0" x2="-10" y1="-212.5" y2="-212.5"/>
<line stroke="black" stroke-width="1" x1="0" x2="-10" y1="-297.5" y2="-297.5"/>
</g>
<line stroke="black" stroke-0="1" x1="0" x2="0" y1="0" y2="-340"/>
<g>
<text dominant-baseline="middle" font-size="12" text-anchor="end" x="-15" y="-42.5">
688200000
</text>
<text dominant-baseline="middle" font-size="12" text-anchor="end" x="-15" y="-127.5">
688400000
</text>
<text dominant-baseline="middle" font-size="12" text-anchor="end" x="-15" y="-212.5">
688600000
</text>
<text dominant-baseline="middle" font-size="12" text-anchor="end" x="-15" y="-297.5">
688800000
</text>
</g>
<text font-size="12" text-anchor="middle" transform="rotate(-90 -30 -170)" x="-30" y="-170">
Score
</text>
</g>
</g>
</svg>