<svg viewBox="0 0 600 400" xmlns="http://www.w3.org/2000/svg">
<g transform="translate(50, 360)">
<g>
<circle cx="0" cy="0" fill="#000000" r="2"/>
<circle cx="2.5" cy="0" fill="#000000" r="2"/>
<circle cx="5" cy="-341.3161691428571" fill="#000000" r="2"/>
<circle cx="7.5" cy="-337.7669266285714" fill="#000000" r="2"/>
<circle cx="10" cy="-336.5732352" fill="#000000" r="2"/>
<circle cx="12.5" cy="-335.9843474285714" fill="#000000" r="2"/>
<circle cx="15" cy="-335.63419794285716" fill="#000000" r="2"/>
<circle cx="17.5" cy="-335.39545965714285" fill="#000000" r="2"/>
<circle cx="20" cy="-335.2363008" fill="#000000" r="2"/>
<circle cx="22.5" cy="-335.1089737142857" fill="#000000" r="2"/>
<circle cx="25" cy="-335.0134784" fill="#000000" r="2"/>
<circle cx="27.5" cy="-334.93389897142856" fill="#000000" r="2"/>
<circle cx="30" cy="-334.87023542857145" fill="#000000" r="2"/>
<circle cx="32.5" cy="-334.8065718857143" fill="#000000" r="2"/>
<circle cx="35" cy="-334.7588242285714" fill="#000000" r="2"/>
<circle cx="37.5" cy="-334.72699245714284" fill="#000000" r="2"/>
<circle cx="40" cy="-334.6951606857143" fill="#000000" r="2"/>
<circle cx="42.5" cy="-334.6633289142857" fill="#000000" r="2"/>
<circle cx="45" cy="-334.63149714285714" fill="#000000" r="2"/>
<circle cx="47.5" cy="-334.6155812571429" fill="#000000" r="2"/>
<circle cx="50" cy="-334.59966537142856" fill="#000000" r="2"/>
<circle cx="52.5" cy="-334.5837494857143" fill="#000000" r="2"/>
<circle cx="55" cy="-334.5678336" fill="#000000" r="2"/>
<circle cx="57.5" cy="-334.5519177142857" fill="#000000" r="2"/>
<circle cx="60" cy="-334.53600182857144" fill="#000000" r="2"/>
<circle cx="62.5" cy="-334.5200859428571" fill="#000000" r="2"/>
<circle cx="65" cy="-334.50417005714286" fill="#000000" r="2"/>
<circle cx="67.5" cy="-334.4882541714286" fill="#000000" r="2"/>
<circle cx="70" cy="-334.4882541714286" fill="#000000" r="2"/>
<circle cx="72.5" cy="-334.4723382857143" fill="#000000" r="2"/>
<circle cx="75" cy="-334.4723382857143" fill="#000000" r="2"/>
<circle cx="77.5" cy="-334.4564224" fill="#000000" r="2"/>
<circle cx="80" cy="-334.4564224" fill="#000000" r="2"/>
<circle cx="82.5" cy="-334.4405065142857" fill="#000000" r="2"/>
<circle cx="85" cy="-334.4405065142857" fill="#000000" r="2"/>
<circle cx="87.5" cy="-334.4245906285714" fill="#000000" r="2"/>
<circle cx="90" cy="-334.4245906285714" fill="#000000" r="2"/>
<circle cx="92.5" cy="-334.4245906285714" fill="#000000" r="2"/>
<circle cx="95" cy="-334.40867474285716" fill="#000000" r="2"/>
<circle cx="97.5" cy="-334.40867474285716" fill="#000000" r="2"/>
<circle cx="100" cy="-334.40867474285716" fill="#000000" r="2"/>
<circle cx="102.5" cy="-334.40867474285716" fill="#000000" r="2"/>
<circle cx="105" cy="-334.39275885714284" fill="#000000" r="2"/>
<circle cx="107.5" cy="-334.39275885714284" fill="#000000" r="2"/>
<circle cx="110" cy="-334.39275885714284" fill="#000000" r="2"/>
<circle cx="112.5" cy="-334.39275885714284" fill="#000000" r="2"/>
<circle cx="115" cy="-334.3768429714286" fill="#000000" r="2"/>
<circle cx="117.5" cy="-334.3768429714286" fill="#000000" r="2"/>
<circle cx="120" cy="-334.3768429714286" fill="#000000" r="2"/>
<circle cx="122.5" cy="-334.3768429714286" fill="#000000" r="2"/>
<circle cx="125" cy="-334.3768429714286" fill="#000000" r="2"/>
<circle cx="127.5" cy="-334.3609270857143" fill="#000000" r="2"/>
<circle cx="130" cy="-334.3609270857143" fill="#000000" r="2"/>
<circle cx="132.5" cy="-334.3609270857143" fill="#000000" r="2"/>
<circle cx="135" cy="-334.3609270857143" fill="#000000" r="2"/>
<circle cx="137.5" cy="-334.3609270857143" fill="#000000" r="2"/>
<circle cx="140" cy="-334.3609270857143" fill="#000000" r="2"/>
<circle cx="142.5" cy="-334.3450112" fill="#000000" r="2"/>
<circle cx="145" cy="-334.3450112" fill="#000000" r="2"/>
<circle cx="147.5" cy="-334.3450112" fill="#000000" r="2"/>
<circle cx="150" cy="-334.3450112" fill="#000000" r="2"/>
<circle cx="152.5" cy="-334.3450112" fill="#000000" r="2"/>
<circle cx="155" cy="-334.3450112" fill="#000000" r="2"/>
<circle cx="157.5" cy="-334.3450112" fill="#000000" r="2"/>
<circle cx="160" cy="-334.3450112" fill="#000000" r="2"/>
<circle cx="162.5" cy="-334.3290953142857" fill="#000000" r="2"/>
<circle cx="165" cy="-334.3290953142857" fill="#000000" r="2"/>
<circle cx="167.5" cy="-334.3290953142857" fill="#000000" r="2"/>
<circle cx="170" cy="-334.3290953142857" fill="#000000" r="2"/>
<circle cx="172.5" cy="-334.3290953142857" fill="#000000" r="2"/>
<circle cx="175" cy="-334.3290953142857" fill="#000000" r="2"/>
<circle cx="177.5" cy="-334.3290953142857" fill="#000000" r="2"/>
<circle cx="180" cy="-334.3290953142857" fill="#000000" r="2"/>
<circle cx="182.5" cy="-334.3290953142857" fill="#000000" r="2"/>
<circle cx="185" cy="-334.3290953142857" fill="#000000" r="2"/>
<circle cx="187.5" cy="-334.3131794285714" fill="#000000" r="2"/>
<circle cx="190" cy="-334.3131794285714" fill="#000000" r="2"/>
<circle cx="192.5" cy="-334.3131794285714" fill="#000000" r="2"/>
<circle cx="195" cy="-334.3131794285714" fill="#000000" r="2"/>
<circle cx="197.5" cy="-334.3131794285714" fill="#000000" r="2"/>
<circle cx="200" cy="-334.3131794285714" fill="#000000" r="2"/>
<circle cx="202.5" cy="-334.3131794285714" fill="#000000" r="2"/>
<circle cx="205" cy="-334.3131794285714" fill="#000000" r="2"/>
<circle cx="207.5" cy="-334.3131794285714" fill="#000000" r="2"/>
<circle cx="210" cy="-334.3131794285714" fill="#000000" r="2"/>
<circle cx="212.5" cy="-334.3131794285714" fill="#000000" r="2"/>
<circle cx="215" cy="-334.3131794285714" fill="#000000" r="2"/>
<circle cx="217.5" cy="-334.3131794285714" fill="#000000" r="2"/>
<circle cx="220" cy="-334.3131794285714" fill="#000000" r="2"/>
<circle cx="222.5" cy="-334.3131794285714" fill="#000000" r="2"/>
<circle cx="225" cy="-334.29726354285714" fill="#000000" r="2"/>
<circle cx="227.5" cy="-334.29726354285714" fill="#000000" r="2"/>
<circle cx="230" cy="-334.29726354285714" fill="#000000" r="2"/>
<circle cx="232.5" cy="-334.29726354285714" fill="#000000" r="2"/>
<circle cx="235" cy="-334.29726354285714" fill="#000000" r="2"/>
<circle cx="237.5" cy="-334.29726354285714" fill="#000000" r="2"/>
<circle cx="240" cy="-334.29726354285714" fill="#000000" r="2"/>
<circle cx="242.5" cy="-334.29726354285714" fill="#000000" r="2"/>
<circle cx="245" cy="-334.29726354285714" fill="#000000" r="2"/>
<circle cx="247.5" cy="-334.29726354285714" fill="#000000" r="2"/>
<circle cx="250" cy="-334.29726354285714" fill="#000000" r="2"/>
<circle cx="252.5" cy="-334.29726354285714" fill="#000000" r="2"/>
<circle cx="255" cy="-334.29726354285714" fill="#000000" r="2"/>
<circle cx="257.5" cy="-334.29726354285714" fill="#000000" r="2"/>
<circle cx="260" cy="-334.29726354285714" fill="#000000" r="2"/>
<circle cx="262.5" cy="-334.29726354285714" fill="#000000" r="2"/>
<circle cx="265" cy="-334.29726354285714" fill="#000000" r="2"/>
<circle cx="267.5" cy="-334.29726354285714" fill="#000000" r="2"/>
<circle cx="270" cy="-334.29726354285714" fill="#000000" r="2"/>
<circle cx="272.5" cy="-334.29726354285714" fill="#000000" r="2"/>
<circle cx="275" cy="-334.29726354285714" fill="#000000" r="2"/>
<circle cx="277.5" cy="-334.29726354285714" fill="#000000" r="2"/>
<circle cx="280" cy="-334.2813476571429" fill="#000000" r="2"/>
<circle cx="282.5" cy="-334.2813476571429" fill="#000000" r="2"/>
<circle cx="285" cy="-334.2813476571429" fill="#000000" r="2"/>
<circle cx="287.5" cy="-334.2813476571429" fill="#000000" r="2"/>
<circle cx="290" cy="-334.2813476571429" fill="#000000" r="2"/>
<circle cx="292.5" cy="-334.2813476571429" fill="#000000" r="2"/>
<circle cx="295" cy="-334.2813476571429" fill="#000000" r="2"/>
<circle cx="297.5" cy="-334.2813476571429" fill="#000000" r="2"/>
<circle cx="300" cy="-334.2813476571429" fill="#000000" r="2"/>
<circle cx="302.5" cy="-334.2813476571429" fill="#000000" r="2"/>
<circle cx="305" cy="-334.2813476571429" fill="#000000" r="2"/>
<circle cx="307.5" cy="-334.2813476571429" fill="#000000" r="2"/>
<circle cx="310" cy="-334.2813476571429" fill="#000000" r="2"/>
<circle cx="312.5" cy="-334.2813476571429" fill="#000000" r="2"/>
<circle cx="315" cy="-334.2813476571429" fill="#000000" r="2"/>
<circle cx="317.5" cy="-334.2813476571429" fill="#000000" r="2"/>
<circle cx="320" cy="-334.2813476571429" fill="#000000" r="2"/>
<circle cx="322.5" cy="-334.2813476571429" fill="#000000" r="2"/>
<circle cx="325" cy="-334.2813476571429" fill="#000000" r="2"/>
<circle cx="327.5" cy="-334.2813476571429" fill="#000000" r="2"/>
<circle cx="330" cy="-334.2813476571429" fill="#000000" r="2"/>
<circle cx="332.5" cy="-334.2813476571429" fill="#000000" r="2"/>
<circle cx="335" cy="-334.2813476571429" fill="#000000" r="2"/>
<circle cx="337.5" cy="-334.2813476571429" fill="#000000" r="2"/>
<circle cx="340" cy="-334.2813476571429" fill="#000000" r="2"/>
<circle cx="342.5" cy="-334.2813476571429" fill="#000000" r="2"/>
<circle cx="345" cy="-334.2813476571429" fill="#000000" r="2"/>
<circle cx="347.5" cy="-334.2813476571429" fill="#000000" r="2"/>
<circle cx="350" cy="-334.2813476571429" fill="#000000" r="2"/>
<circle cx="352.5" cy="-334.2813476571429" fill="#000000" r="2"/>
<circle cx="355" cy="-334.2813476571429" fill="#000000" r="2"/>
<circle cx="357.5" cy="-334.2813476571429" fill="#000000" r="2"/>
<circle cx="360" cy="-334.2813476571429" fill="#000000" r="2"/>
<circle cx="362.5" cy="-334.2813476571429" fill="#000000" r="2"/>
<circle cx="365" cy="-334.2813476571429" fill="#000000" r="2"/>
<circle cx="367.5" cy="-334.2813476571429" fill="#000000" r="2"/>
<circle cx="370" cy="-334.2813476571429" fill="#000000" r="2"/>
<circle cx="372.5" cy="-334.26543177142855" fill="#000000" r="2"/>
<circle cx="375" cy="-334.26543177142855" fill="#000000" r="2"/>
<circle cx="377.5" cy="-334.26543177142855" fill="#000000" r="2"/>
<circle cx="380" cy="-334.26543177142855" fill="#000000" r="2"/>
<circle cx="382.5" cy="-334.26543177142855" fill="#000000" r="2"/>
<circle cx="385" cy="-334.26543177142855" fill="#000000" r="2"/>
<circle cx="387.5" cy="-334.26543177142855" fill="#000000" r="2"/>
<circle cx="390" cy="-334.26543177142855" fill="#000000" r="2"/>
<circle cx="392.5" cy="-334.26543177142855" fill="#000000" r="2"/>
<circle cx="395" cy="-334.26543177142855" fill="#000000" r="2"/>
<circle cx="397.5" cy="-334.26543177142855" fill="#000000" r="2"/>
<circle cx="400" cy="-334.26543177142855" fill="#000000" r="2"/>
<circle cx="402.5" cy="-334.26543177142855" fill="#000000" r="2"/>
<circle cx="405" cy="-334.26543177142855" fill="#000000" r="2"/>
<circle cx="407.5" cy="-334.26543177142855" fill="#000000" r="2"/>
<circle cx="410" cy="-334.26543177142855" fill="#000000" r="2"/>
<circle cx="412.5" cy="-334.26543177142855" fill="#000000" r="2"/>
<circle cx="415" cy="-334.26543177142855" fill="#000000" r="2"/>
<circle cx="417.5" cy="-334.26543177142855" fill="#000000" r="2"/>
<circle cx="420" cy="-334.26543177142855" fill="#000000" r="2"/>
<circle cx="422.5" cy="-334.26543177142855" fill="#000000" r="2"/>
<circle cx="425" cy="-334.26543177142855" fill="#000000" r="2"/>
<circle cx="427.5" cy="-334.26543177142855" fill="#000000" r="2"/>
<circle cx="430" cy="-334.26543177142855" fill="#000000" r="2"/>
<circle cx="432.5" cy="-334.26543177142855" fill="#000000" r="2"/>
<circle cx="435" cy="-334.26543177142855" fill="#000000" r="2"/>
<circle cx="437.5" cy="-334.26543177142855" fill="#000000" r="2"/>
<circle cx="440" cy="-334.26543177142855" fill="#000000" r="2"/>
<circle cx="442.5" cy="-334.26543177142855" fill="#000000" r="2"/>
<circle cx="445" cy="-334.26543177142855" fill="#000000" r="2"/>
<circle cx="447.5" cy="-334.26543177142855" fill="#000000" r="2"/>
<circle cx="450" cy="-334.26543177142855" fill="#000000" r="2"/>
<circle cx="452.5" cy="-334.26543177142855" fill="#000000" r="2"/>
<circle cx="455" cy="-334.26543177142855" fill="#000000" r="2"/>
<circle cx="457.5" cy="-334.26543177142855" fill="#000000" r="2"/>
<circle cx="460" cy="-334.26543177142855" fill="#000000" r="2"/>
<circle cx="462.5" cy="-334.26543177142855" fill="#000000" r="2"/>
<circle cx="465" cy="-334.26543177142855" fill="#000000" r="2"/>
<circle cx="467.5" cy="-334.26543177142855" fill="#000000" r="2"/>
<circle cx="470" cy="-334.26543177142855" fill="#000000" r="2"/>
<circle cx="472.5" cy="-334.26543177142855" fill="#000000" r="2"/>
<circle cx="475" cy="-334.26543177142855" fill="#000000" r="2"/>
<circle cx="477.5" cy="-334.26543177142855" fill="#000000" r="2"/>
<circle cx="480" cy="-334.26543177142855" fill="#000000" r="2"/>
<circle cx="482.5" cy="-334.26543177142855" fill="#000000" r="2"/>
<circle cx="485" cy="-334.26543177142855" fill="#000000" r="2"/>
<circle cx="487.5" cy="-334.26543177142855" fill="#000000" r="2"/>
<circle cx="490" cy="-334.26543177142855" fill="#000000" r="2"/>
<circle cx="492.5" cy="-334.26543177142855" fill="#000000" r="2"/>
<circle cx="495" cy="-334.26543177142855" fill="#000000" r="2"/>
<circle cx="497.5" cy="-334.26543177142855" fill="#000000" r="2"/>
</g>
<g>
<circle cx="0" cy="0" fill="#3503ff" r="2"/>
<circle cx="2.5" cy="-341.3161691428571" fill="#3503ff" r="2"/>
<circle cx="5" cy="-337.7669266285714" fill="#3503ff" r="2"/>
<circle cx="7.5" cy="-336.5732352" fill="#3503ff" r="2"/>
<circle cx="10" cy="-335.9843474285714" fill="#3503ff" r="2"/>
<circle cx="12.5" cy="-335.63419794285716" fill="#3503ff" r="2"/>
<circle cx="15" cy="-335.39545965714285" fill="#3503ff" r="2"/>
<circle cx="17.5" cy="-335.2363008" fill="#3503ff" r="2"/>
<circle cx="20" cy="-335.1089737142857" fill="#3503ff" r="2"/>
<circle cx="22.5" cy="-335.0134784" fill="#3503ff" r="2"/>
<circle cx="25" cy="-334.93389897142856" fill="#3503ff" r="2"/>
<circle cx="27.5" cy="-334.87023542857145" fill="#3503ff" r="2"/>
<circle cx="30" cy="-334.8065718857143" fill="#3503ff" r="2"/>
<circle cx="32.5" cy="-334.7588242285714" fill="#3503ff" r="2"/>
<circle cx="35" cy="-334.72699245714284" fill="#3503ff" r="2"/>
<circle cx="37.5" cy="-334.6951606857143" fill="#3503ff" r="2"/>
<circle cx="40" cy="-334.6633289142857" fill="#3503ff" r="2"/>
<circle cx="42.5" cy="-334.63149714285714" fill="#3503ff" r="2"/>
<circle cx="45" cy="-334.6155812571429" fill="#3503ff" r="2"/>
<circle cx="47.5" cy="-334.59966537142856" fill="#3503ff" r="2"/>
<circle cx="50" cy="-334.5837494857143" fill="#3503ff" r="2"/>
<circle cx="52.5" cy="-334.5678336" fill="#3503ff" r="2"/>
<circle cx="55" cy="-334.5519177142857" fill="#3503ff" r="2"/>
<circle cx="57.5" cy="-334.53600182857144" fill="#3503ff" r="2"/>
<circle cx="60" cy="-334.5200859428571" fill="#3503ff" r="2"/>
<circle cx="62.5" cy="-334.50417005714286" fill="#3503ff" r="2"/>
<circle cx="65" cy="-334.4882541714286" fill="#3503ff" r="2"/>
<circle cx="67.5" cy="-334.4882541714286" fill="#3503ff" r="2"/>
<circle cx="70" cy="-334.4723382857143" fill="#3503ff" r="2"/>
<circle cx="72.5" cy="-334.4723382857143" fill="#3503ff" r="2"/>
<circle cx="75" cy="-334.4564224" fill="#3503ff" r="2"/>
<circle cx="77.5" cy="-334.4564224" fill="#3503ff" r="2"/>
<circle cx="80" cy="-334.4405065142857" fill="#3503ff" r="2"/>
<circle cx="82.5" cy="-334.4405065142857" fill="#3503ff" r="2"/>
<circle cx="85" cy="-334.4245906285714" fill="#3503ff" r="2"/>
<circle cx="87.5" cy="-334.4245906285714" fill="#3503ff" r="2"/>
<circle cx="90" cy="-334.4245906285714" fill="#3503ff" r="2"/>
<circle cx="92.5" cy="-334.40867474285716" fill="#3503ff" r="2"/>
<circle cx="95" cy="-334.40867474285716" fill="#3503ff" r="2"/>
<circle cx="97.5" cy="-334.40867474285716" fill="#3503ff" r="2"/>
<circle cx="100" cy="-334.40867474285716" fill="#3503ff" r="2"/>
<circle cx="102.5" cy="-334.39275885714284" fill="#3503ff" r="2"/>
<circle cx="105" cy="-334.39275885714284" fill="#3503ff" r="2"/>
<circle cx="107.5" cy="-334.39275885714284" fill="#3503ff" r="2"/>
<circle cx="110" cy="-334.39275885714284" fill="#3503ff" r="2"/>
<circle cx="112.5" cy="-334.3768429714286" fill="#3503ff" r="2"/>
<circle cx="115" cy="-334.3768429714286" fill="#3503ff" r="2"/>
<circle cx="117.5" cy="-334.3768429714286" fill="#3503ff" r="2"/>
<circle cx="120" cy="-334.3768429714286" fill="#3503ff" r="2"/>
<circle cx="122.5" cy="-334.3768429714286" fill="#3503ff" r="2"/>
<circle cx="125" cy="-334.3609270857143" fill="#3503ff" r="2"/>
<circle cx="127.5" cy="-334.3609270857143" fill="#3503ff" r="2"/>
<circle cx="130" cy="-334.3609270857143" fill="#3503ff" r="2"/>
<circle cx="132.5" cy="-334.3609270857143" fill="#3503ff" r="2"/>
<circle cx="135" cy="-334.3609270857143" fill="#3503ff" r="2"/>
<circle cx="137.5" cy="-334.3609270857143" fill="#3503ff" r="2"/>
<circle cx="140" cy="-334.3450112" fill="#3503ff" r="2"/>
<circle cx="142.5" cy="-334.3450112" fill="#3503ff" r="2"/>
<circle cx="145" cy="-334.3450112" fill="#3503ff" r="2"/>
<circle cx="147.5" cy="-334.3450112" fill="#3503ff" r="2"/>
<circle cx="150" cy="-334.3450112" fill="#3503ff" r="2"/>
<circle cx="152.5" cy="-334.3450112" fill="#3503ff" r="2"/>
<circle cx="155" cy="-334.3450112" fill="#3503ff" r="2"/>
<circle cx="157.5" cy="-334.3450112" fill="#3503ff" r="2"/>
<circle cx="160" cy="-334.3290953142857" fill="#3503ff" r="2"/>
<circle cx="162.5" cy="-334.3290953142857" fill="#3503ff" r="2"/>
<circle cx="165" cy="-334.3290953142857" fill="#3503ff" r="2"/>
<circle cx="167.5" cy="-334.3290953142857" fill="#3503ff" r="2"/>
<circle cx="170" cy="-334.3290953142857" fill="#3503ff" r="2"/>
<circle cx="172.5" cy="-334.3290953142857" fill="#3503ff" r="2"/>
<circle cx="175" cy="-334.3290953142857" fill="#3503ff" r="2"/>
<circle cx="177.5" cy="-334.3290953142857" fill="#3503ff" r="2"/>
<circle cx="180" cy="-334.3290953142857" fill="#3503ff" r="2"/>
<circle cx="182.5" cy="-334.3290953142857" fill="#3503ff" r="2"/>
<circle cx="185" cy="-334.3131794285714" fill="#3503ff" r="2"/>
<circle cx="187.5" cy="-334.3131794285714" fill="#3503ff" r="2"/>
<circle cx="190" cy="-334.3131794285714" fill="#3503ff" r="2"/>
<circle cx="192.5" cy="-334.3131794285714" fill="#3503ff" r="2"/>
<circle cx="195" cy="-334.3131794285714" fill="#3503ff" r="2"/>
<circle cx="197.5" cy="-334.3131794285714" fill="#3503ff" r="2"/>
<circle cx="200" cy="-334.3131794285714" fill="#3503ff" r="2"/>
<circle cx="202.5" cy="-334.3131794285714" fill="#3503ff" r="2"/>
<circle cx="205" cy="-334.3131794285714" fill="#3503ff" r="2"/>
<circle cx="207.5" cy="-334.3131794285714" fill="#3503ff" r="2"/>
<circle cx="210" cy="-334.3131794285714" fill="#3503ff" r="2"/>
<circle cx="212.5" cy="-334.3131794285714" fill="#3503ff" r="2"/>
<circle cx="215" cy="-334.3131794285714" fill="#3503ff" r="2"/>
<circle cx="217.5" cy="-334.3131794285714" fill="#3503ff" r="2"/>
<circle cx="220" cy="-334.3131794285714" fill="#3503ff" r="2"/>
<circle cx="222.5" cy="-334.29726354285714" fill="#3503ff" r="2"/>
<circle cx="225" cy="-334.29726354285714" fill="#3503ff" r="2"/>
<circle cx="227.5" cy="-334.29726354285714" fill="#3503ff" r="2"/>
<circle cx="230" cy="-334.29726354285714" fill="#3503ff" r="2"/>
<circle cx="232.5" cy="-334.29726354285714" fill="#3503ff" r="2"/>
<circle cx="235" cy="-334.29726354285714" fill="#3503ff" r="2"/>
<circle cx="237.5" cy="-334.29726354285714" fill="#3503ff" r="2"/>
<circle cx="240" cy="-334.29726354285714" fill="#3503ff" r="2"/>
<circle cx="242.5" cy="-334.29726354285714" fill="#3503ff" r="2"/>
<circle cx="245" cy="-334.29726354285714" fill="#3503ff" r="2"/>
<circle cx="247.5" cy="-334.29726354285714" fill="#3503ff" r="2"/>
<circle cx="250" cy="-334.29726354285714" fill="#3503ff" r="2"/>
<circle cx="252.5" cy="-334.29726354285714" fill="#3503ff" r="2"/>
<circle cx="255" cy="-334.29726354285714" fill="#3503ff" r="2"/>
<circle cx="257.5" cy="-334.29726354285714" fill="#3503ff" r="2"/>
<circle cx="260" cy="-334.29726354285714" fill="#3503ff" r="2"/>
<circle cx="262.5" cy="-334.29726354285714" fill="#3503ff" r="2"/>
<circle cx="265" cy="-334.29726354285714" fill="#3503ff" r="2"/>
<circle cx="267.5" cy="-334.29726354285714" fill="#3503ff" r="2"/>
<circle cx="270" cy="-334.29726354285714" fill="#3503ff" r="2"/>
<circle cx="272.5" cy="-334.29726354285714" fill="#3503ff" r="2"/>
<circle cx="275" cy="-334.29726354285714" fill="#3503ff" r="2"/>
<circle cx="277.5" cy="-334.2813476571429" fill="#3503ff" r="2"/>
<circle cx="280" cy="-334.2813476571429" fill="#3503ff" r="2"/>
<circle cx="282.5" cy="-334.2813476571429" fill="#3503ff" r="2"/>
<circle cx="285" cy="-334.2813476571429" fill="#3503ff" r="2"/>
<circle cx="287.5" cy="-334.2813476571429" fill="#3503ff" r="2"/>
<circle cx="290" cy="-334.2813476571429" fill="#3503ff" r="2"/>
<circle cx="292.5" cy="-334.2813476571429" fill="#3503ff" r="2"/>
<circle cx="295" cy="-334.2813476571429" fill="#3503ff" r="2"/>
<circle cx="297.5" cy="-334.2813476571429" fill="#3503ff" r="2"/>
<circle cx="300" cy="-334.2813476571429" fill="#3503ff" r="2"/>
<circle cx="302.5" cy="-334.2813476571429" fill="#3503ff" r="2"/>
<circle cx="305" cy="-334.2813476571429" fill="#3503ff" r="2"/>
<circle cx="307.5" cy="-334.2813476571429" fill="#3503ff" r="2"/>
<circle cx="310" cy="-334.2813476571429" fill="#3503ff" r="2"/>
<circle cx="312.5" cy="-334.2813476571429" fill="#3503ff" r="2"/>
<circle cx="315" cy="-334.2813476571429" fill="#3503ff" r="2"/>
<circle cx="317.5" cy="-334.2813476571429" fill="#3503ff" r="2"/>
<circle cx="320" cy="-334.2813476571429" fill="#3503ff" r="2"/>
<circle cx="322.5" cy="-334.2813476571429" fill="#3503ff" r="2"/>
<circle cx="325" cy="-334.2813476571429" fill="#3503ff" r="2"/>
<circle cx="327.5" cy="-334.2813476571429" fill="#3503ff" r="2"/>
<circle cx="330" cy="-334.2813476571429" fill="#3503ff" r="2"/>
<circle cx="332.5" cy="-334.2813476571429" fill="#3503ff" r="2"/>
<circle cx="335" cy="-334.2813476571429" fill="#3503ff" r="2"/>
<circle cx="337.5" cy="-334.2813476571429" fill="#3503ff" r="2"/>
<circle cx="340" cy="-334.2813476571429" fill="#3503ff" r="2"/>
<circle cx="342.5" cy="-334.2813476571429" fill="#3503ff" r="2"/>
<circle cx="345" cy="-334.2813476571429" fill="#3503ff" r="2"/>
<circle cx="347.5" cy="-334.2813476571429" fill="#3503ff" r="2"/>
<circle cx="350" cy="-334.2813476571429" fill="#3503ff" r="2"/>
<circle cx="352.5" cy="-334.2813476571429" fill="#3503ff" r="2"/>
<circle cx="355" cy="-334.2813476571429" fill="#3503ff" r="2"/>
<circle cx="357.5" cy="-334.2813476571429" fill="#3503ff" r="2"/>
<circle cx="360" cy="-334.2813476571429" fill="#3503ff" r="2"/>
<circle cx="362.5" cy="-334.2813476571429" fill="#3503ff" r="2"/>
<circle cx="365" cy="-334.2813476571429" fill="#3503ff" r="2"/>
<circle cx="367.5" cy="-334.2813476571429" fill="#3503ff" r="2"/>
<circle cx="370" cy="-334.26543177142855" fill="#3503ff" r="2"/>
<circle cx="372.5" cy="-334.26543177142855" fill="#3503ff" r="2"/>
<circle cx="375" cy="-334.26543177142855" fill="#3503ff" r="2"/>
<circle cx="377.5" cy="-334.26543177142855" fill="#3503ff" r="2"/>
<circle cx="380" cy="-334.26543177142855" fill="#3503ff" r="2"/>
<circle cx="382.5" cy="-334.26543177142855" fill="#3503ff" r="2"/>
<circle cx="385" cy="-334.26543177142855" fill="#3503ff" r="2"/>
<circle cx="387.5" cy="-334.26543177142855" fill="#3503ff" r="2"/>
<circle cx="390" cy="-334.26543177142855" fill="#3503ff" r="2"/>
<circle cx="392.5" cy="-334.26543177142855" fill="#3503ff" r="2"/>
<circle cx="395" cy="-334.26543177142855" fill="#3503ff" r="2"/>
<circle cx="397.5" cy="-334.26543177142855" fill="#3503ff" r="2"/>
<circle cx="400" cy="-334.26543177142855" fill="#3503ff" r="2"/>
<circle cx="402.5" cy="-334.26543177142855" fill="#3503ff" r="2"/>
<circle cx="405" cy="-334.26543177142855" fill="#3503ff" r="2"/>
<circle cx="407.5" cy="-334.26543177142855" fill="#3503ff" r="2"/>
<circle cx="410" cy="-334.26543177142855" fill="#3503ff" r="2"/>
<circle cx="412.5" cy="-334.26543177142855" fill="#3503ff" r="2"/>
<circle cx="415" cy="-334.26543177142855" fill="#3503ff" r="2"/>
<circle cx="417.5" cy="-334.26543177142855" fill="#3503ff" r="2"/>
<circle cx="420" cy="-334.26543177142855" fill="#3503ff" r="2"/>
<circle cx="422.5" cy="-334.26543177142855" fill="#3503ff" r="2"/>
<circle cx="425" cy="-334.26543177142855" fill="#3503ff" r="2"/>
<circle cx="427.5" cy="-334.26543177142855" fill="#3503ff" r="2"/>
<circle cx="430" cy="-334.26543177142855" fill="#3503ff" r="2"/>
<circle cx="432.5" cy="-334.26543177142855" fill="#3503ff" r="2"/>
<circle cx="435" cy="-334.26543177142855" fill="#3503ff" r="2"/>
<circle cx="437.5" cy="-334.26543177142855" fill="#3503ff" r="2"/>
<circle cx="440" cy="-334.26543177142855" fill="#3503ff" r="2"/>
<circle cx="442.5" cy="-334.26543177142855" fill="#3503ff" r="2"/>
<circle cx="445" cy="-334.26543177142855" fill="#3503ff" r="2"/>
<circle cx="447.5" cy="-334.26543177142855" fill="#3503ff" r="2"/>
<circle cx="450" cy="-334.26543177142855" fill="#3503ff" r="2"/>
<circle cx="452.5" cy="-334.26543177142855" fill="#3503ff" r="2"/>
<circle cx="455" cy="-334.26543177142855" fill="#3503ff" r="2"/>
<circle cx="457.5" cy="-334.26543177142855" fill="#3503ff" r="2"/>
<circle cx="460" cy="-334.26543177142855" fill="#3503ff" r="2"/>
<circle cx="462.5" cy="-334.26543177142855" fill="#3503ff" r="2"/>
<circle cx="465" cy="-334.26543177142855" fill="#3503ff" r="2"/>
<circle cx="467.5" cy="-334.26543177142855" fill="#3503ff" r="2"/>
<circle cx="470" cy="-334.26543177142855" fill="#3503ff" r="2"/>
<circle cx="472.5" cy="-334.26543177142855" fill="#3503ff" r="2"/>
<circle cx="475" cy="-334.26543177142855" fill="#3503ff" r="2"/>
<circle cx="477.5" cy="-334.26543177142855" fill="#3503ff" r="2"/>
<circle cx="480" cy="-334.26543177142855" fill="#3503ff" r="2"/>
<circle cx="482.5" cy="-334.26543177142855" fill="#3503ff" r="2"/>
<circle cx="485" cy="-334.26543177142855" fill="#3503ff" r="2"/>
<circle cx="487.5" cy="-334.26543177142855" fill="#3503ff" r="2"/>
<circle cx="490" cy="-334.26543177142855" fill="#3503ff" r="2"/>
<circle cx="492.5" cy="-334.26543177142855" fill="#3503ff" r="2"/>
<circle cx="495" cy="-334.26543177142855" fill="#3503ff" r="2"/>
<circle cx="497.5" cy="-334.2336" fill="#3503ff" r="2"/>
</g>
<g>
<circle cx="0" cy="-inf" fill="#ff2600" r="2"/>
<circle cx="2.5" cy="-341.3267227181971" fill="#ff2600" r="2"/>
<circle cx="5" cy="-337.767748485576" fill="#ff2600" r="2"/>
<circle cx="7.5" cy="-336.5855700548606" fill="#ff2600" r="2"/>
<circle cx="10" cy="-335.9957221229451" fill="#ff2600" r="2"/>
<circle cx="12.5" cy="-335.64230913240397" fill="#ff2600" r="2"/>
<circle cx="15" cy="-335.4069362866543" fill="#ff2600" r="2"/>
<circle cx="17.5" cy="-335.2389390440643" fill="#ff2600" r="2"/>
<circle cx="20" cy="-335.11301468810143" fill="#ff2600" r="2"/>
<circle cx="22.5" cy="-335.0151192767238" fill="#ff2600" r="2"/>
<circle cx="25" cy="-334.9368328816335" fill="#ff2600" r="2"/>
<circle cx="27.5" cy="-334.8728007778646" fill="#ff2600" r="2"/>
<circle cx="30" cy="-334.8194550719427" fill="#ff2600" r="2"/>
<circle cx="32.5" cy="-334.7743268244209" fill="#ff2600" r="2"/>
<circle cx="35" cy="-334.7356532129307" fill="#ff2600" r="2"/>
<circle cx="37.5" cy="-334.7021419537872" fill="#ff2600" r="2"/>
<circle cx="40" cy="-334.6728241337171" fill="#ff2600" r="2"/>
<circle cx="42.5" cy="-334.64695902255335" fill="#ff2600" r="2"/>
<circle cx="45" cy="-334.6239706384193" fill="#ff2600" r="2"/>
<circle cx="47.5" cy="-334.6034043593565" fill="#ff2600" r="2"/>
<circle cx="50" cy="-334.58489656057935" fill="#ff2600" r="2"/>
<circle cx="52.5" cy="-334.5681529327172" fill="#ff2600" r="2"/>
<circle cx="55" cy="-334.5529327171906" fill="#ff2600" r="2"/>
<circle cx="57.5" cy="-334.53903705675935" fill="#ff2600" r="2"/>
<circle cx="60" cy="-334.5263002602695" fill="#ff2600" r="2"/>
<circle cx="62.5" cy="-334.51458316514737" fill="#ff2600" r="2"/>
<circle cx="65" cy="-334.5037680325434" fill="#ff2600" r="2"/>
<circle cx="67.5" cy="-334.4937545775504" fill="#ff2600" r="2"/>
<circle cx="70" cy="-334.4844568505732" fill="#ff2600" r="2"/>
<circle cx="72.5" cy="-334.4758007642905" fill="#ff2600" r="2"/>
<circle cx="75" cy="-334.467722115493" fill="#ff2600" r="2"/>
<circle cx="77.5" cy="-334.4601649899936" fill="#ff2600" r="2"/>
<circle cx="80" cy="-334.45308046677235" fill="#ff2600" r="2"/>
<circle cx="82.5" cy="-334.44642555784975" fill="#ff2600" r="2"/>
<circle cx="85" cy="-334.4401623353345" fill="#ff2600" r="2"/>
<circle cx="87.5" cy="-334.43425720819175" fill="#ff2600" r="2"/>
<circle cx="90" cy="-334.4286803196079" fill="#ff2600" r="2"/>
<circle cx="92.5" cy="-334.4234050421244" fill="#ff2600" r="2"/>
<circle cx="95" cy="-334.4184075525241" fill="#ff2600" r="2"/>
<circle cx="97.5" cy="-334.41366647214835" fill="#ff2600" r="2"/>
<circle cx="100" cy="-334.4091625611903" fill="#ff2600" r="2"/>
<circle cx="102.5" cy="-334.4048784577448" fill="#ff2600" r="2"/>
<circle cx="105" cy="-334.4007984541523" fill="#ff2600" r="2"/>
<circle cx="107.5" cy="-334.39690830456357" fill="#ff2600" r="2"/>
<circle cx="110" cy="-334.39319505875636" fill="#ff2600" r="2"/>
<circle cx="112.5" cy="-334.3896469181182" fill="#ff2600" r="2"/>
<circle cx="115" cy="-334.3862531104216" fill="#ff2600" r="2"/>
<circle cx="117.5" cy="-334.3830037805914" fill="#ff2600" r="2"/>
<circle cx="120" cy="-334.3798898951317" fill="#ff2600" r="2"/>
<circle cx="122.5" cy="-334.37690315825915" fill="#ff2600" r="2"/>
<circle cx="125" cy="-334.37403593810467" fill="#ff2600" r="2"/>
<circle cx="127.5" cy="-334.3712812015999" fill="#ff2600" r="2"/>
<circle cx="130" cy="-334.36863245687977" fill="#ff2600" r="2"/>
<circle cx="132.5" cy="-334.36608370220745" fill="#ff2600" r="2"/>
<circle cx="135" cy="-334.3636293805764" fill="#ff2600" r="2"/>
<circle cx="137.5" cy="-334.3612643392667" fill="#ff2600" r="2"/>
<circle cx="140" cy="-334.3589837937357" fill="#ff2600" r="2"/>
<circle cx="142.5" cy="-334.35678329531135" fill="#ff2600" r="2"/>
<circle cx="145" cy="-334.35465870222805" fill="#ff2600" r="2"/>
<circle cx="147.5" cy="-334.3526061536096" fill="#ff2600" r="2"/>
<circle cx="150" cy="-334.3506220460544" fill="#ff2600" r="2"/>
<circle cx="152.5" cy="-334.3487030125241" fill="#ff2600" r="2"/>
<circle cx="155" cy="-334.34684590327646" fill="#ff2600" r="2"/>
<circle cx="157.5" cy="-334.3450477686144" fill="#ff2600" r="2"/>
<circle cx="160" cy="-334.3433058432527" fill="#ff2600" r="2"/>
<circle cx="162.5" cy="-334.3416175321284" fill="#ff2600" r="2"/>
<circle cx="165" cy="-334.33998039750134" fill="#ff2600" r="2"/>
<circle cx="167.5" cy="-334.33839214721047" fill="#ff2600" r="2"/>
<circle cx="170" cy="-334.33685062396626" fill="#ff2600" r="2"/>
<circle cx="172.5" cy="-334.33535379557486" fill="#ff2600" r="2"/>
<circle cx="175" cy="-334.33389974600016" fill="#ff2600" r="2"/>
<circle cx="177.5" cy="-334.33248666718146" fill="#ff2600" r="2"/>
<circle cx="180" cy="-334.33111285153313" fill="#ff2600" r="2"/>
<circle cx="182.5" cy="-334.3297766850611" fill="#ff2600" r="2"/>
<circle cx="185" cy="-334.32847664103724" fill="#ff2600" r="2"/>
<circle cx="187.5" cy="-334.32721127418023" fill="#ff2600" r="2"/>
<circle cx="190" cy="-334.325979215296" fill="#ff2600" r="2"/>
<circle cx="192.5" cy="-334.32477916633525" fill="#ff2600" r="2"/>
<circle cx="195" cy="-334.3236098958324" fill="#ff2600" r="2"/>
<circle cx="197.5" cy="-334.3224702346901" fill="#ff2600" r="2"/>
<circle cx="200" cy="-334.3213590722801" fill="#ff2600" r="2"/>
<circle cx="202.5" cy="-334.3202753528335" fill="#ff2600" r="2"/>
<circle cx="205" cy="-334.3192180720946" fill="#ff2600" r="2"/>
<circle cx="207.5" cy="-334.3181862742172" fill="#ff2600" r="2"/>
<circle cx="210" cy="-334.31717904888217" fill="#ff2600" r="2"/>
<circle cx="212.5" cy="-334.31619552861895" fill="#ff2600" r="2"/>
<circle cx="215" cy="-334.3152348863138" fill="#ff2600" r="2"/>
<circle cx="217.5" cy="-334.31429633288985" fill="#ff2600" r="2"/>
<circle cx="220" cy="-334.3133791151453" fill="#ff2600" r="2"/>
<circle cx="222.5" cy="-334.3124825137378" fill="#ff2600" r="2"/>
<circle cx="225" cy="-334.3116058413028" fill="#ff2600" r="2"/>
<circle cx="227.5" cy="-334.31074844069616" fill="#ff2600" r="2"/>
<circle cx="230" cy="-334.30990968335135" fill="#ff2600" r="2"/>
<circle cx="232.5" cy="-334.3090889677428" fill="#ff2600" r="2"/>
<circle cx="235" cy="-334.3082857179471" fill="#ff2600" r="2"/>
<circle cx="237.5" cy="-334.3074993822955" fill="#ff2600" r="2"/>
<circle cx="240" cy="-334.3067294321101" fill="#ff2600" r="2"/>
<circle cx="242.5" cy="-334.30597536051863" fill="#ff2600" r="2"/>
<circle cx="245" cy="-334.30523668134174" fill="#ff2600" r="2"/>
<circle cx="247.5" cy="-334.3045129280476" fill="#ff2600" r="2"/>
<circle cx="250" cy="-334.3038036527693" fill="#ff2600" r="2"/>
<circle cx="252.5" cy="-334.303108425381" fill="#ff2600" r="2"/>
<circle cx="255" cy="-334.3024268326277" fill="#ff2600" r="2"/>
<circle cx="257.5" cy="-334.3017584773061" fill="#ff2600" r="2"/>
<circle cx="260" cy="-334.3011029774931" fill="#ff2600" r="2"/>
<circle cx="262.5" cy="-334.30045996581777" fill="#ff2600" r="2"/>
<circle cx="265" cy="-334.2998290887748" fill="#ff2600" r="2"/>
<circle cx="267.5" cy="-334.2992100060766" fill="#ff2600" r="2"/>
<circle cx="270" cy="-334.29860239004097" fill="#ff2600" r="2"/>
<circle cx="272.5" cy="-334.29800592501323" fill="#ff2600" r="2"/>
<circle cx="275" cy="-334.29742030681894" fill="#ff2600" r="2"/>
<circle cx="277.5" cy="-334.29684524224706" fill="#ff2600" r="2"/>
<circle cx="280" cy="-334.2962804485599" fill="#ff2600" r="2"/>
<circle cx="282.5" cy="-334.29572565303044" fill="#ff2600" r="2"/>
<circle cx="285" cy="-334.2951805925024" fill="#ff2600" r="2"/>
<circle cx="287.5" cy="-334.2946450129744" fill="#ff2600" r="2"/>
<circle cx="290" cy="-334.29411866920526" fill="#ff2600" r="2"/>
<circle cx="292.5" cy="-334.29360132433965" fill="#ff2600" r="2"/>
<circle cx="295" cy="-334.2930927495525" fill="#ff2600" r="2"/>
<circle cx="297.5" cy="-334.2925927237117" fill="#ff2600" r="2"/>
<circle cx="300" cy="-334.2921010330574" fill="#ff2600" r="2"/>
<circle cx="302.5" cy="-334.2916174708974" fill="#ff2600" r="2"/>
<circle cx="305" cy="-334.29114183731735" fill="#ff2600" r="2"/>
<circle cx="307.5" cy="-334.2906739389054" fill="#ff2600" r="2"/>
<circle cx="310" cy="-334.2902135884895" fill="#ff2600" r="2"/>
<circle cx="312.5" cy="-334.2897606048885" fill="#ff2600" r="2"/>
<circle cx="315" cy="-334.28931481267364" fill="#ff2600" r="2"/>
<circle cx="317.5" cy="-334.2888760419425" fill="#ff2600" r="2"/>
<circle cx="320" cy="-334.2884441281027" fill="#ff2600" r="2"/>
<circle cx="322.5" cy="-334.2880189116667" fill="#ff2600" r="2"/>
<circle cx="325" cy="-334.2876002380546" fill="#ff2600" r="2"/>
<circle cx="327.5" cy="-334.2871879574077" fill="#ff2600" r="2"/>
<circle cx="330" cy="-334.2867819244088" fill="#ff2600" r="2"/>
<circle cx="332.5" cy="-334.2863819981119" fill="#ff2600" r="2"/>
<circle cx="335" cy="-334.285988041779" fill="#ff2600" r="2"/>
<circle cx="337.5" cy="-334.28559992272415" fill="#ff2600" r="2"/>
<circle cx="340" cy="-334.2852175121646" fill="#ff2600" r="2"/>
<circle cx="342.5" cy="-334.2848406850783" fill="#ff2600" r="2"/>
<circle cx="345" cy="-334.2844693200673" fill="#ff2600" r="2"/>
<circle cx="347.5" cy="-334.2841032992278" fill="#ff2600" r="2"/>
<circle cx="350" cy="-334.2837425080252" fill="#ff2600" r="2"/>
<circle cx="352.5" cy="-334.2833868351746" fill="#ff2600" r="2"/>
<circle cx="355" cy="-334.2830361725262" fill="#ff2600" r="2"/>
<circle cx="357.5" cy="-334.2826904149557" fill="#ff2600" r="2"/>
<circle cx="360" cy="-334.28234946025964" fill="#ff2600" r="2"/>
<circle cx="362.5" cy="-334.2820132090542" fill="#ff2600" r="2"/>
<circle cx="365" cy="-334.28168156467876" fill="#ff2600" r="2"/>
<circle cx="367.5" cy="-334.2813544331032" fill="#ff2600" r="2"/>
<circle cx="370" cy="-334.2810317228395" fill="#ff2600" r="2"/>
<circle cx="372.5" cy="-334.2807133448555" fill="#ff2600" r="2"/>
<circle cx="375" cy="-334.2803992124938" fill="#ff2600" r="2"/>
<circle cx="377.5" cy="-334.28008924139294" fill="#ff2600" r="2"/>
<circle cx="380" cy="-334.2797833494118" fill="#ff2600" r="2"/>
<circle cx="382.5" cy="-334.27948145655677" fill="#ff2600" r="2"/>
<circle cx="385" cy="-334.2791834849125" fill="#ff2600" r="2"/>
<circle cx="387.5" cy="-334.27888935857465" fill="#ff2600" r="2"/>
<circle cx="390" cy="-334.27859900358527" fill="#ff2600" r="2"/>
<circle cx="392.5" cy="-334.278312347871" fill="#ff2600" r="2"/>
<circle cx="395" cy="-334.2780293211832" fill="#ff2600" r="2"/>
<circle cx="397.5" cy="-334.2777498550411" fill="#ff2600" r="2"/>
<circle cx="400" cy="-334.2774738826758" fill="#ff2600" r="2"/>
<circle cx="402.5" cy="-334.2772013389774" fill="#ff2600" r="2"/>
<circle cx="405" cy="-334.2769321604444" fill="#ff2600" r="2"/>
<circle cx="407.5" cy="-334.27666628513316" fill="#ff2600" r="2"/>
<circle cx="410" cy="-334.27640365261146" fill="#ff2600" r="2"/>
<circle cx="412.5" cy="-334.27614420391217" fill="#ff2600" r="2"/>
<circle cx="415" cy="-334.2758878814892" fill="#ff2600" r="2"/>
<circle cx="417.5" cy="-334.27563462917504" fill="#ff2600" r="2"/>
<circle cx="420" cy="-334.2753843921396" fill="#ff2600" r="2"/>
<circle cx="422.5" cy="-334.2751371168508" fill="#ff2600" r="2"/>
<circle cx="425" cy="-334.27489275103596" fill="#ff2600" r="2"/>
<circle cx="427.5" cy="-334.27465124364585" fill="#ff2600" r="2"/>
<circle cx="430" cy="-334.2744125448181" fill="#ff2600" r="2"/>
<circle cx="432.5" cy="-334.2741766058437" fill="#ff2600" r="2"/>
<circle cx="435" cy="-334.2739433791332" fill="#ff2600" r="2"/>
<circle cx="437.5" cy="-334.2737128181853" fill="#ff2600" r="2"/>
<circle cx="440" cy="-334.2734848775555" fill="#ff2600" r="2"/>
<circle cx="442.5" cy="-334.2732595128265" fill="#ff2600" r="2"/>
<circle cx="445" cy="-334.2730366805792" fill="#ff2600" r="2"/>
<circle cx="447.5" cy="-334.27281633836503" fill="#ff2600" r="2"/>
<circle cx="450" cy="-334.2725984446785" fill="#ff2600" r="2"/>
<circle cx="452.5" cy="-334.2723829589318" fill="#ff2600" r="2"/>
<circle cx="455" cy="-334.2721698414292" fill="#ff2600" r="2"/>
<circle cx="457.5" cy="-334.2719590533425" fill="#ff2600" r="2"/>
<circle cx="460" cy="-334.27175055668806" fill="#ff2600" r="2"/>
<circle cx="462.5" cy="-334.2715443143031" fill="#ff2600" r="2"/>
<circle cx="465" cy="-334.27134028982476" fill="#ff2600" r="2"/>
<circle cx="467.5" cy="-334.27113844766745" fill="#ff2600" r="2"/>
<circle cx="470" cy="-334.27093875300324" fill="#ff2600" r="2"/>
<circle cx="472.5" cy="-334.2707411717412" fill="#ff2600" r="2"/>
<circle cx="475" cy="-334.27054567050817" fill="#ff2600" r="2"/>
<circle cx="477.5" cy="-334.2703522166301" fill="#ff2600" r="2"/>
<circle cx="480" cy="-334.2701607781135" fill="#ff2600" r="2"/>
<circle cx="482.5" cy="-334.26997132362834" fill="#ff2600" r="2"/>
<circle cx="485" cy="-334.2697838224904" fill="#ff2600" r="2"/>
<circle cx="487.5" cy="-334.269598244645" fill="#ff2600" r="2"/>
<circle cx="490" cy="-334.2694145606509" fill="#ff2600" r="2"/>
<circle cx="492.5" cy="-334.2692327412659" fill="#ff2600" r="2"/>
<circle cx="495" cy="-334.2690490181818" fill="#ff2600" r="2"/>
<circle cx="497.5" cy="-334.2336" fill="#ff2600" r="2"/>
</g>
<g>
<g>
<line stroke="black" stroke-width="1" x1="0" x2="0" y1="0" y2="10"/>
<line stroke="black" stroke-width="1" x1="100" x2="100" y1="0" y2="10"/>
<line stroke="black" stroke-width="1" x1="200" x2="200" y1="0" y2="10"/>
<line stroke="black" stroke-width="1" x1="300" x2="300" y1="0" y2="10"/>
<line stroke="black" stroke-width="1" x1="400" x2="400" y1="0" y2="10"/>
<line stroke="black" stroke-width="1" x1="500" x2="500" y1="0" y2="10"/>
</g>
<line stroke="black" stroke-width="1" x1="0" x2="500" y1="0" y2="0"/>
<g>
<text font-size="12" text-anchor="middle" x="0" y="20">
0
</text>
<text font-size="12" text-anchor="middle" x="100" y="20">
40000
</text>
<text font-size="12" text-anchor="middle" x="200" y="20">
80000
</text>
<text font-size="12" text-anchor="middle" x="300" y="20">
120000
</text>
<text font-size="12" text-anchor="middle" x="400" y="20">
160000
</text>
<text font-size="12" text-anchor="middle" x="500" y="20">
200000
</text>
</g>
<text font-size="12" text-anchor="middle" x="250" y="30">
Some another thing
</text>
</g>
<g>
<g>
<line stroke="black" stroke-width="1" x1="0" x2="-10" y1="0" y2="0"/>
<line stroke="black" stroke-width="1" x1="0" x2="-10" y1="-97.14285714285714" y2="-97.14285714285714"/>
<line stroke="black" stroke-width="1" x1="0" x2="-10" y1="-194.28571428571428" y2="-194.28571428571428"/>
<line stroke="black" stroke-width="1" x1="0" x2="-10" y1="-291.42857142857144" y2="-291.42857142857144"/>
</g>
<line stroke="black" stroke-0="1" x1="0" x2="0" y1="0" y2="-340"/>
<g>
<text dominant-baseline="middle" font-size="12" text-anchor="end" x="-15" y="0">
0
</text>
<text dominant-baseline="middle" font-size="12" text-anchor="end" x="-15" y="-97.14285714285714">
200000000
</text>
<text dominant-baseline="middle" font-size="12" text-anchor="end" x="-15" y="-194.28571428571428">
400000000
</text>
<text dominant-baseline="middle" font-size="12" text-anchor="end" x="-15" y="-291.42857142857144">
600000000
</text>
</g>
<text font-size="12" text-anchor="middle" transform="rotate(-90 -30 -170)" x="-30" y="-170">
Some thing
</text>
</g>
</g>
</svg>