<svg viewBox="0 0 600 400" xmlns="http://www.w3.org/2000/svg">
<g transform="translate(50, 360)">
<g>
<circle cx="0" cy="-0.015915885714285715" fill="#000000" r="2"/>
<circle cx="2" cy="-0.015915885714285715" fill="#000000" r="2"/>
<circle cx="4" cy="-15.947717485714286" fill="#000000" r="2"/>
<circle cx="6" cy="-31.879519085714286" fill="#000000" r="2"/>
<circle cx="8" cy="-47.811320685714286" fill="#000000" r="2"/>
<circle cx="10" cy="-63.743122285714286" fill="#000000" r="2"/>
<circle cx="12" cy="-79.67492388571429" fill="#000000" r="2"/>
<circle cx="14" cy="-95.60672548571429" fill="#000000" r="2"/>
<circle cx="16" cy="-111.53852708571429" fill="#000000" r="2"/>
<circle cx="18" cy="-127.47032868571429" fill="#000000" r="2"/>
<circle cx="20" cy="-143.4021302857143" fill="#000000" r="2"/>
<circle cx="22" cy="-159.3339318857143" fill="#000000" r="2"/>
<circle cx="24" cy="-175.2657334857143" fill="#000000" r="2"/>
<circle cx="26" cy="-191.1975350857143" fill="#000000" r="2"/>
<circle cx="28" cy="-207.1293366857143" fill="#000000" r="2"/>
<circle cx="30" cy="-223.0611382857143" fill="#000000" r="2"/>
<circle cx="32" cy="-238.9929398857143" fill="#000000" r="2"/>
<circle cx="34" cy="-254.9247414857143" fill="#000000" r="2"/>
<circle cx="36" cy="-270.8565430857143" fill="#000000" r="2"/>
<circle cx="38" cy="-286.78834468571426" fill="#000000" r="2"/>
<circle cx="40" cy="-302.7201462857143" fill="#000000" r="2"/>
<circle cx="42" cy="-318.65194788571426" fill="#000000" r="2"/>
<circle cx="44" cy="-334.5837494857143" fill="#000000" r="2"/>
<circle cx="46" cy="-350.51555108571426" fill="#000000" r="2"/>
<circle cx="48" cy="-366.4473526857143" fill="#000000" r="2"/>
<circle cx="50" cy="-382.37915428571426" fill="#000000" r="2"/>
<circle cx="52" cy="-398.3109558857143" fill="#000000" r="2"/>
<circle cx="54" cy="-414.24275748571426" fill="#000000" r="2"/>
<circle cx="56" cy="-430.1745590857143" fill="#000000" r="2"/>
<circle cx="58" cy="-446.10636068571426" fill="#000000" r="2"/>
<circle cx="60" cy="-462.0381622857143" fill="#000000" r="2"/>
<circle cx="62" cy="-477.96996388571426" fill="#000000" r="2"/>
<circle cx="64" cy="-493.9017654857143" fill="#000000" r="2"/>
<circle cx="66" cy="-509.83356708571426" fill="#000000" r="2"/>
<circle cx="68" cy="-525.7653686857143" fill="#000000" r="2"/>
<circle cx="70" cy="-541.6971702857143" fill="#000000" r="2"/>
<circle cx="72" cy="-557.6289718857142" fill="#000000" r="2"/>
<circle cx="74" cy="-573.5607734857143" fill="#000000" r="2"/>
<circle cx="76" cy="-589.4925750857143" fill="#000000" r="2"/>
<circle cx="78" cy="-605.4243766857143" fill="#000000" r="2"/>
<circle cx="80" cy="-621.3561782857142" fill="#000000" r="2"/>
<circle cx="82" cy="-637.2879798857143" fill="#000000" r="2"/>
<circle cx="84" cy="-653.2197814857143" fill="#000000" r="2"/>
<circle cx="86" cy="-669.1515830857143" fill="#000000" r="2"/>
<circle cx="88" cy="-685.0833846857142" fill="#000000" r="2"/>
<circle cx="90" cy="-701.0151862857143" fill="#000000" r="2"/>
<circle cx="92" cy="-716.9469878857143" fill="#000000" r="2"/>
<circle cx="94" cy="-732.8787894857143" fill="#000000" r="2"/>
<circle cx="96" cy="-748.8105910857142" fill="#000000" r="2"/>
<circle cx="98" cy="-764.7423926857143" fill="#000000" r="2"/>
<circle cx="100" cy="-780.6741942857143" fill="#000000" r="2"/>
<circle cx="102" cy="-796.6059958857143" fill="#000000" r="2"/>
<circle cx="104" cy="-812.5377974857142" fill="#000000" r="2"/>
<circle cx="106" cy="-828.4695990857143" fill="#000000" r="2"/>
<circle cx="108" cy="-844.4014006857143" fill="#000000" r="2"/>
<circle cx="110" cy="-860.3332022857143" fill="#000000" r="2"/>
<circle cx="112" cy="-876.2650038857142" fill="#000000" r="2"/>
<circle cx="114" cy="-892.1968054857143" fill="#000000" r="2"/>
<circle cx="116" cy="-908.1286070857143" fill="#000000" r="2"/>
<circle cx="118" cy="-924.0604086857143" fill="#000000" r="2"/>
<circle cx="120" cy="-939.9922102857142" fill="#000000" r="2"/>
<circle cx="122" cy="-955.9240118857143" fill="#000000" r="2"/>
<circle cx="124" cy="-971.8558134857143" fill="#000000" r="2"/>
<circle cx="126" cy="-987.7876150857143" fill="#000000" r="2"/>
<circle cx="128" cy="-1003.7194166857142" fill="#000000" r="2"/>
<circle cx="130" cy="-1019.6512182857143" fill="#000000" r="2"/>
<circle cx="132" cy="-1035.5830198857143" fill="#000000" r="2"/>
<circle cx="134" cy="-1051.5148214857143" fill="#000000" r="2"/>
<circle cx="136" cy="-1067.4466230857142" fill="#000000" r="2"/>
<circle cx="138" cy="-1083.3784246857142" fill="#000000" r="2"/>
<circle cx="140" cy="-1099.3102262857142" fill="#000000" r="2"/>
<circle cx="142" cy="-1115.2420278857144" fill="#000000" r="2"/>
<circle cx="144" cy="-1131.1738294857144" fill="#000000" r="2"/>
<circle cx="146" cy="-1147.1056310857143" fill="#000000" r="2"/>
<circle cx="148" cy="-1163.0374326857143" fill="#000000" r="2"/>
<circle cx="150" cy="-1178.9692342857143" fill="#000000" r="2"/>
<circle cx="152" cy="-1194.9010358857142" fill="#000000" r="2"/>
<circle cx="154" cy="-1210.8328374857142" fill="#000000" r="2"/>
<circle cx="156" cy="-1226.7646390857142" fill="#000000" r="2"/>
<circle cx="158" cy="-1242.6964406857144" fill="#000000" r="2"/>
<circle cx="160" cy="-1258.6282422857144" fill="#000000" r="2"/>
<circle cx="162" cy="-1274.5600438857143" fill="#000000" r="2"/>
<circle cx="164" cy="-1290.4918454857143" fill="#000000" r="2"/>
<circle cx="166" cy="-1306.4236470857143" fill="#000000" r="2"/>
<circle cx="168" cy="-1322.3554486857142" fill="#000000" r="2"/>
<circle cx="170" cy="-1338.2872502857142" fill="#000000" r="2"/>
<circle cx="172" cy="-1354.2190518857142" fill="#000000" r="2"/>
<circle cx="174" cy="-1370.1508534857144" fill="#000000" r="2"/>
<circle cx="176" cy="-1386.0826550857144" fill="#000000" r="2"/>
<circle cx="178" cy="-1402.0144566857143" fill="#000000" r="2"/>
<circle cx="180" cy="-1417.9462582857143" fill="#000000" r="2"/>
<circle cx="182" cy="-1433.8780598857143" fill="#000000" r="2"/>
<circle cx="184" cy="-1449.8098614857142" fill="#000000" r="2"/>
<circle cx="186" cy="-1465.7416630857142" fill="#000000" r="2"/>
<circle cx="188" cy="-1481.6734646857142" fill="#000000" r="2"/>
<circle cx="190" cy="-1497.6052662857144" fill="#000000" r="2"/>
<circle cx="192" cy="-1513.5370678857144" fill="#000000" r="2"/>
<circle cx="194" cy="-1529.4688694857143" fill="#000000" r="2"/>
<circle cx="196" cy="-1545.4006710857143" fill="#000000" r="2"/>
<circle cx="198" cy="-1561.3324726857143" fill="#000000" r="2"/>
<circle cx="200" cy="-1577.2642742857142" fill="#000000" r="2"/>
<circle cx="202" cy="-1593.1960758857142" fill="#000000" r="2"/>
<circle cx="204" cy="-1609.1278774857142" fill="#000000" r="2"/>
<circle cx="206" cy="-1625.0596790857144" fill="#000000" r="2"/>
<circle cx="208" cy="-1640.9914806857144" fill="#000000" r="2"/>
<circle cx="210" cy="-1656.9232822857143" fill="#000000" r="2"/>
<circle cx="212" cy="-1672.8550838857143" fill="#000000" r="2"/>
<circle cx="214" cy="-1688.7868854857143" fill="#000000" r="2"/>
<circle cx="216" cy="-1704.7186870857142" fill="#000000" r="2"/>
<circle cx="218" cy="-1720.6504886857142" fill="#000000" r="2"/>
<circle cx="220" cy="-1736.5822902857142" fill="#000000" r="2"/>
<circle cx="222" cy="-1752.5140918857144" fill="#000000" r="2"/>
<circle cx="224" cy="-1768.4458934857144" fill="#000000" r="2"/>
<circle cx="226" cy="-1784.3776950857143" fill="#000000" r="2"/>
<circle cx="228" cy="-1800.3094966857143" fill="#000000" r="2"/>
<circle cx="230" cy="-1816.2412982857143" fill="#000000" r="2"/>
<circle cx="232" cy="-1832.1730998857142" fill="#000000" r="2"/>
<circle cx="234" cy="-1848.1049014857142" fill="#000000" r="2"/>
<circle cx="236" cy="-1864.0367030857142" fill="#000000" r="2"/>
<circle cx="238" cy="-1879.9685046857144" fill="#000000" r="2"/>
<circle cx="240" cy="-1895.9003062857144" fill="#000000" r="2"/>
<circle cx="242" cy="-1911.8321078857143" fill="#000000" r="2"/>
<circle cx="244" cy="-1927.7639094857143" fill="#000000" r="2"/>
<circle cx="246" cy="-1943.6957110857143" fill="#000000" r="2"/>
<circle cx="248" cy="-1959.6275126857142" fill="#000000" r="2"/>
<circle cx="250" cy="-1975.5593142857142" fill="#000000" r="2"/>
<circle cx="252" cy="-1991.4911158857142" fill="#000000" r="2"/>
<circle cx="254" cy="-2007.4229174857144" fill="#000000" r="2"/>
<circle cx="256" cy="-2023.3547190857144" fill="#000000" r="2"/>
<circle cx="258" cy="-2039.2865206857143" fill="#000000" r="2"/>
<circle cx="260" cy="-2055.2183222857143" fill="#000000" r="2"/>
<circle cx="262" cy="-2071.1501238857145" fill="#000000" r="2"/>
<circle cx="264" cy="-2087.0819254857142" fill="#000000" r="2"/>
<circle cx="266" cy="-2103.0137270857144" fill="#000000" r="2"/>
<circle cx="268" cy="-2118.945528685714" fill="#000000" r="2"/>
<circle cx="270" cy="-2134.8773302857144" fill="#000000" r="2"/>
<circle cx="272" cy="-2150.809131885714" fill="#000000" r="2"/>
<circle cx="274" cy="-2166.7409334857143" fill="#000000" r="2"/>
<circle cx="276" cy="-2182.672735085714" fill="#000000" r="2"/>
<circle cx="278" cy="-2198.6045366857143" fill="#000000" r="2"/>
<circle cx="280" cy="-2214.5363382857145" fill="#000000" r="2"/>
<circle cx="282" cy="-2230.468139885714" fill="#000000" r="2"/>
<circle cx="284" cy="-2246.3999414857144" fill="#000000" r="2"/>
<circle cx="286" cy="-2262.331743085714" fill="#000000" r="2"/>
<circle cx="288" cy="-2278.2635446857144" fill="#000000" r="2"/>
<circle cx="290" cy="-2294.195346285714" fill="#000000" r="2"/>
<circle cx="292" cy="-2310.1271478857143" fill="#000000" r="2"/>
<circle cx="294" cy="-2326.0589494857145" fill="#000000" r="2"/>
<circle cx="296" cy="-2341.9907510857142" fill="#000000" r="2"/>
<circle cx="298" cy="-2357.9225526857144" fill="#000000" r="2"/>
<circle cx="300" cy="-2373.854354285714" fill="#000000" r="2"/>
<circle cx="302" cy="-2389.7861558857144" fill="#000000" r="2"/>
<circle cx="304" cy="-2405.717957485714" fill="#000000" r="2"/>
<circle cx="306" cy="-2421.6497590857143" fill="#000000" r="2"/>
<circle cx="308" cy="-2437.581560685714" fill="#000000" r="2"/>
<circle cx="310" cy="-2453.5133622857143" fill="#000000" r="2"/>
<circle cx="312" cy="-2469.4451638857145" fill="#000000" r="2"/>
<circle cx="314" cy="-2485.376965485714" fill="#000000" r="2"/>
<circle cx="316" cy="-2501.3087670857144" fill="#000000" r="2"/>
<circle cx="318" cy="-2517.240568685714" fill="#000000" r="2"/>
<circle cx="320" cy="-2533.1723702857144" fill="#000000" r="2"/>
<circle cx="322" cy="-2549.104171885714" fill="#000000" r="2"/>
<circle cx="324" cy="-2565.0359734857143" fill="#000000" r="2"/>
<circle cx="326" cy="-2580.9677750857145" fill="#000000" r="2"/>
<circle cx="328" cy="-2596.8995766857142" fill="#000000" r="2"/>
<circle cx="330" cy="-2612.8313782857144" fill="#000000" r="2"/>
<circle cx="332" cy="-2628.763179885714" fill="#000000" r="2"/>
<circle cx="334" cy="-2644.6949814857144" fill="#000000" r="2"/>
<circle cx="336" cy="-2660.626783085714" fill="#000000" r="2"/>
<circle cx="338" cy="-2676.5585846857143" fill="#000000" r="2"/>
<circle cx="340" cy="-2692.490386285714" fill="#000000" r="2"/>
<circle cx="342" cy="-2708.4221878857143" fill="#000000" r="2"/>
<circle cx="344" cy="-2724.3539894857145" fill="#000000" r="2"/>
<circle cx="346" cy="-2740.285791085714" fill="#000000" r="2"/>
<circle cx="348" cy="-2756.2175926857144" fill="#000000" r="2"/>
<circle cx="350" cy="-2772.149394285714" fill="#000000" r="2"/>
<circle cx="352" cy="-2788.0811958857144" fill="#000000" r="2"/>
<circle cx="354" cy="-2804.012997485714" fill="#000000" r="2"/>
<circle cx="356" cy="-2819.9447990857143" fill="#000000" r="2"/>
<circle cx="358" cy="-2835.8766006857145" fill="#000000" r="2"/>
<circle cx="360" cy="-2851.8084022857142" fill="#000000" r="2"/>
<circle cx="362" cy="-2867.7402038857144" fill="#000000" r="2"/>
<circle cx="364" cy="-2883.672005485714" fill="#000000" r="2"/>
<circle cx="366" cy="-2899.6038070857144" fill="#000000" r="2"/>
<circle cx="368" cy="-2915.535608685714" fill="#000000" r="2"/>
<circle cx="370" cy="-2931.4674102857143" fill="#000000" r="2"/>
<circle cx="372" cy="-2947.399211885714" fill="#000000" r="2"/>
<circle cx="374" cy="-2963.3310134857143" fill="#000000" r="2"/>
<circle cx="376" cy="-2979.2628150857145" fill="#000000" r="2"/>
<circle cx="378" cy="-2995.194616685714" fill="#000000" r="2"/>
<circle cx="380" cy="-3011.1264182857144" fill="#000000" r="2"/>
<circle cx="382" cy="-3027.058219885714" fill="#000000" r="2"/>
<circle cx="384" cy="-3042.9900214857144" fill="#000000" r="2"/>
<circle cx="386" cy="-3058.921823085714" fill="#000000" r="2"/>
<circle cx="388" cy="-3074.8536246857143" fill="#000000" r="2"/>
<circle cx="390" cy="-3090.7854262857145" fill="#000000" r="2"/>
<circle cx="392" cy="-3106.7172278857142" fill="#000000" r="2"/>
<circle cx="394" cy="-3122.6490294857144" fill="#000000" r="2"/>
<circle cx="396" cy="-3138.580831085714" fill="#000000" r="2"/>
<circle cx="398" cy="-3154.5126326857144" fill="#000000" r="2"/>
</g>
<g>
<circle cx="0" cy="-0.015915885714285715" fill="#3503ff" r="2"/>
<circle cx="2" cy="-15.947717485714286" fill="#3503ff" r="2"/>
<circle cx="4" cy="-31.879519085714286" fill="#3503ff" r="2"/>
<circle cx="6" cy="-47.811320685714286" fill="#3503ff" r="2"/>
<circle cx="8" cy="-63.743122285714286" fill="#3503ff" r="2"/>
<circle cx="10" cy="-79.67492388571429" fill="#3503ff" r="2"/>
<circle cx="12" cy="-95.60672548571429" fill="#3503ff" r="2"/>
<circle cx="14" cy="-111.53852708571429" fill="#3503ff" r="2"/>
<circle cx="16" cy="-127.47032868571429" fill="#3503ff" r="2"/>
<circle cx="18" cy="-143.4021302857143" fill="#3503ff" r="2"/>
<circle cx="20" cy="-159.3339318857143" fill="#3503ff" r="2"/>
<circle cx="22" cy="-175.2657334857143" fill="#3503ff" r="2"/>
<circle cx="24" cy="-191.1975350857143" fill="#3503ff" r="2"/>
<circle cx="26" cy="-207.1293366857143" fill="#3503ff" r="2"/>
<circle cx="28" cy="-223.0611382857143" fill="#3503ff" r="2"/>
<circle cx="30" cy="-238.9929398857143" fill="#3503ff" r="2"/>
<circle cx="32" cy="-254.9247414857143" fill="#3503ff" r="2"/>
<circle cx="34" cy="-270.8565430857143" fill="#3503ff" r="2"/>
<circle cx="36" cy="-286.78834468571426" fill="#3503ff" r="2"/>
<circle cx="38" cy="-302.7201462857143" fill="#3503ff" r="2"/>
<circle cx="40" cy="-318.65194788571426" fill="#3503ff" r="2"/>
<circle cx="42" cy="-334.5837494857143" fill="#3503ff" r="2"/>
<circle cx="44" cy="-350.51555108571426" fill="#3503ff" r="2"/>
<circle cx="46" cy="-366.4473526857143" fill="#3503ff" r="2"/>
<circle cx="48" cy="-382.37915428571426" fill="#3503ff" r="2"/>
<circle cx="50" cy="-398.3109558857143" fill="#3503ff" r="2"/>
<circle cx="52" cy="-414.24275748571426" fill="#3503ff" r="2"/>
<circle cx="54" cy="-430.1745590857143" fill="#3503ff" r="2"/>
<circle cx="56" cy="-446.10636068571426" fill="#3503ff" r="2"/>
<circle cx="58" cy="-462.0381622857143" fill="#3503ff" r="2"/>
<circle cx="60" cy="-477.96996388571426" fill="#3503ff" r="2"/>
<circle cx="62" cy="-493.9017654857143" fill="#3503ff" r="2"/>
<circle cx="64" cy="-509.83356708571426" fill="#3503ff" r="2"/>
<circle cx="66" cy="-525.7653686857143" fill="#3503ff" r="2"/>
<circle cx="68" cy="-541.6971702857143" fill="#3503ff" r="2"/>
<circle cx="70" cy="-557.6289718857142" fill="#3503ff" r="2"/>
<circle cx="72" cy="-573.5607734857143" fill="#3503ff" r="2"/>
<circle cx="74" cy="-589.4925750857143" fill="#3503ff" r="2"/>
<circle cx="76" cy="-605.4243766857143" fill="#3503ff" r="2"/>
<circle cx="78" cy="-621.3561782857142" fill="#3503ff" r="2"/>
<circle cx="80" cy="-637.2879798857143" fill="#3503ff" r="2"/>
<circle cx="82" cy="-653.2197814857143" fill="#3503ff" r="2"/>
<circle cx="84" cy="-669.1515830857143" fill="#3503ff" r="2"/>
<circle cx="86" cy="-685.0833846857142" fill="#3503ff" r="2"/>
<circle cx="88" cy="-701.0151862857143" fill="#3503ff" r="2"/>
<circle cx="90" cy="-716.9469878857143" fill="#3503ff" r="2"/>
<circle cx="92" cy="-732.8787894857143" fill="#3503ff" r="2"/>
<circle cx="94" cy="-748.8105910857142" fill="#3503ff" r="2"/>
<circle cx="96" cy="-764.7423926857143" fill="#3503ff" r="2"/>
<circle cx="98" cy="-780.6741942857143" fill="#3503ff" r="2"/>
<circle cx="100" cy="-796.6059958857143" fill="#3503ff" r="2"/>
<circle cx="102" cy="-812.5377974857142" fill="#3503ff" r="2"/>
<circle cx="104" cy="-828.4695990857143" fill="#3503ff" r="2"/>
<circle cx="106" cy="-844.4014006857143" fill="#3503ff" r="2"/>
<circle cx="108" cy="-860.3332022857143" fill="#3503ff" r="2"/>
<circle cx="110" cy="-876.2650038857142" fill="#3503ff" r="2"/>
<circle cx="112" cy="-892.1968054857143" fill="#3503ff" r="2"/>
<circle cx="114" cy="-908.1286070857143" fill="#3503ff" r="2"/>
<circle cx="116" cy="-924.0604086857143" fill="#3503ff" r="2"/>
<circle cx="118" cy="-939.9922102857142" fill="#3503ff" r="2"/>
<circle cx="120" cy="-955.9240118857143" fill="#3503ff" r="2"/>
<circle cx="122" cy="-971.8558134857143" fill="#3503ff" r="2"/>
<circle cx="124" cy="-987.7876150857143" fill="#3503ff" r="2"/>
<circle cx="126" cy="-1003.7194166857142" fill="#3503ff" r="2"/>
<circle cx="128" cy="-1019.6512182857143" fill="#3503ff" r="2"/>
<circle cx="130" cy="-1035.5830198857143" fill="#3503ff" r="2"/>
<circle cx="132" cy="-1051.5148214857143" fill="#3503ff" r="2"/>
<circle cx="134" cy="-1067.4466230857142" fill="#3503ff" r="2"/>
<circle cx="136" cy="-1083.3784246857142" fill="#3503ff" r="2"/>
<circle cx="138" cy="-1099.3102262857142" fill="#3503ff" r="2"/>
<circle cx="140" cy="-1115.2420278857144" fill="#3503ff" r="2"/>
<circle cx="142" cy="-1131.1738294857144" fill="#3503ff" r="2"/>
<circle cx="144" cy="-1147.1056310857143" fill="#3503ff" r="2"/>
<circle cx="146" cy="-1163.0374326857143" fill="#3503ff" r="2"/>
<circle cx="148" cy="-1178.9692342857143" fill="#3503ff" r="2"/>
<circle cx="150" cy="-1194.9010358857142" fill="#3503ff" r="2"/>
<circle cx="152" cy="-1210.8328374857142" fill="#3503ff" r="2"/>
<circle cx="154" cy="-1226.7646390857142" fill="#3503ff" r="2"/>
<circle cx="156" cy="-1242.6964406857144" fill="#3503ff" r="2"/>
<circle cx="158" cy="-1258.6282422857144" fill="#3503ff" r="2"/>
<circle cx="160" cy="-1274.5600438857143" fill="#3503ff" r="2"/>
<circle cx="162" cy="-1290.4918454857143" fill="#3503ff" r="2"/>
<circle cx="164" cy="-1306.4236470857143" fill="#3503ff" r="2"/>
<circle cx="166" cy="-1322.3554486857142" fill="#3503ff" r="2"/>
<circle cx="168" cy="-1338.2872502857142" fill="#3503ff" r="2"/>
<circle cx="170" cy="-1354.2190518857142" fill="#3503ff" r="2"/>
<circle cx="172" cy="-1370.1508534857144" fill="#3503ff" r="2"/>
<circle cx="174" cy="-1386.0826550857144" fill="#3503ff" r="2"/>
<circle cx="176" cy="-1402.0144566857143" fill="#3503ff" r="2"/>
<circle cx="178" cy="-1417.9462582857143" fill="#3503ff" r="2"/>
<circle cx="180" cy="-1433.8780598857143" fill="#3503ff" r="2"/>
<circle cx="182" cy="-1449.8098614857142" fill="#3503ff" r="2"/>
<circle cx="184" cy="-1465.7416630857142" fill="#3503ff" r="2"/>
<circle cx="186" cy="-1481.6734646857142" fill="#3503ff" r="2"/>
<circle cx="188" cy="-1497.6052662857144" fill="#3503ff" r="2"/>
<circle cx="190" cy="-1513.5370678857144" fill="#3503ff" r="2"/>
<circle cx="192" cy="-1529.4688694857143" fill="#3503ff" r="2"/>
<circle cx="194" cy="-1545.4006710857143" fill="#3503ff" r="2"/>
<circle cx="196" cy="-1561.3324726857143" fill="#3503ff" r="2"/>
<circle cx="198" cy="-1577.2642742857142" fill="#3503ff" r="2"/>
<circle cx="200" cy="-1593.1960758857142" fill="#3503ff" r="2"/>
<circle cx="202" cy="-1609.1278774857142" fill="#3503ff" r="2"/>
<circle cx="204" cy="-1625.0596790857144" fill="#3503ff" r="2"/>
<circle cx="206" cy="-1640.9914806857144" fill="#3503ff" r="2"/>
<circle cx="208" cy="-1656.9232822857143" fill="#3503ff" r="2"/>
<circle cx="210" cy="-1672.8550838857143" fill="#3503ff" r="2"/>
<circle cx="212" cy="-1688.7868854857143" fill="#3503ff" r="2"/>
<circle cx="214" cy="-1704.7186870857142" fill="#3503ff" r="2"/>
<circle cx="216" cy="-1720.6504886857142" fill="#3503ff" r="2"/>
<circle cx="218" cy="-1736.5822902857142" fill="#3503ff" r="2"/>
<circle cx="220" cy="-1752.5140918857144" fill="#3503ff" r="2"/>
<circle cx="222" cy="-1768.4458934857144" fill="#3503ff" r="2"/>
<circle cx="224" cy="-1784.3776950857143" fill="#3503ff" r="2"/>
<circle cx="226" cy="-1800.3094966857143" fill="#3503ff" r="2"/>
<circle cx="228" cy="-1816.2412982857143" fill="#3503ff" r="2"/>
<circle cx="230" cy="-1832.1730998857142" fill="#3503ff" r="2"/>
<circle cx="232" cy="-1848.1049014857142" fill="#3503ff" r="2"/>
<circle cx="234" cy="-1864.0367030857142" fill="#3503ff" r="2"/>
<circle cx="236" cy="-1879.9685046857144" fill="#3503ff" r="2"/>
<circle cx="238" cy="-1895.9003062857144" fill="#3503ff" r="2"/>
<circle cx="240" cy="-1911.8321078857143" fill="#3503ff" r="2"/>
<circle cx="242" cy="-1927.7639094857143" fill="#3503ff" r="2"/>
<circle cx="244" cy="-1943.6957110857143" fill="#3503ff" r="2"/>
<circle cx="246" cy="-1959.6275126857142" fill="#3503ff" r="2"/>
<circle cx="248" cy="-1975.5593142857142" fill="#3503ff" r="2"/>
<circle cx="250" cy="-1991.4911158857142" fill="#3503ff" r="2"/>
<circle cx="252" cy="-2007.4229174857144" fill="#3503ff" r="2"/>
<circle cx="254" cy="-2023.3547190857144" fill="#3503ff" r="2"/>
<circle cx="256" cy="-2039.2865206857143" fill="#3503ff" r="2"/>
<circle cx="258" cy="-2055.2183222857143" fill="#3503ff" r="2"/>
<circle cx="260" cy="-2071.1501238857145" fill="#3503ff" r="2"/>
<circle cx="262" cy="-2087.0819254857142" fill="#3503ff" r="2"/>
<circle cx="264" cy="-2103.0137270857144" fill="#3503ff" r="2"/>
<circle cx="266" cy="-2118.945528685714" fill="#3503ff" r="2"/>
<circle cx="268" cy="-2134.8773302857144" fill="#3503ff" r="2"/>
<circle cx="270" cy="-2150.809131885714" fill="#3503ff" r="2"/>
<circle cx="272" cy="-2166.7409334857143" fill="#3503ff" r="2"/>
<circle cx="274" cy="-2182.672735085714" fill="#3503ff" r="2"/>
<circle cx="276" cy="-2198.6045366857143" fill="#3503ff" r="2"/>
<circle cx="278" cy="-2214.5363382857145" fill="#3503ff" r="2"/>
<circle cx="280" cy="-2230.468139885714" fill="#3503ff" r="2"/>
<circle cx="282" cy="-2246.3999414857144" fill="#3503ff" r="2"/>
<circle cx="284" cy="-2262.331743085714" fill="#3503ff" r="2"/>
<circle cx="286" cy="-2278.2635446857144" fill="#3503ff" r="2"/>
<circle cx="288" cy="-2294.195346285714" fill="#3503ff" r="2"/>
<circle cx="290" cy="-2310.1271478857143" fill="#3503ff" r="2"/>
<circle cx="292" cy="-2326.0589494857145" fill="#3503ff" r="2"/>
<circle cx="294" cy="-2341.9907510857142" fill="#3503ff" r="2"/>
<circle cx="296" cy="-2357.9225526857144" fill="#3503ff" r="2"/>
<circle cx="298" cy="-2373.854354285714" fill="#3503ff" r="2"/>
<circle cx="300" cy="-2389.7861558857144" fill="#3503ff" r="2"/>
<circle cx="302" cy="-2405.717957485714" fill="#3503ff" r="2"/>
<circle cx="304" cy="-2421.6497590857143" fill="#3503ff" r="2"/>
<circle cx="306" cy="-2437.581560685714" fill="#3503ff" r="2"/>
<circle cx="308" cy="-2453.5133622857143" fill="#3503ff" r="2"/>
<circle cx="310" cy="-2469.4451638857145" fill="#3503ff" r="2"/>
<circle cx="312" cy="-2485.376965485714" fill="#3503ff" r="2"/>
<circle cx="314" cy="-2501.3087670857144" fill="#3503ff" r="2"/>
<circle cx="316" cy="-2517.240568685714" fill="#3503ff" r="2"/>
<circle cx="318" cy="-2533.1723702857144" fill="#3503ff" r="2"/>
<circle cx="320" cy="-2549.104171885714" fill="#3503ff" r="2"/>
<circle cx="322" cy="-2565.0359734857143" fill="#3503ff" r="2"/>
<circle cx="324" cy="-2580.9677750857145" fill="#3503ff" r="2"/>
<circle cx="326" cy="-2596.8995766857142" fill="#3503ff" r="2"/>
<circle cx="328" cy="-2612.8313782857144" fill="#3503ff" r="2"/>
<circle cx="330" cy="-2628.763179885714" fill="#3503ff" r="2"/>
<circle cx="332" cy="-2644.6949814857144" fill="#3503ff" r="2"/>
<circle cx="334" cy="-2660.626783085714" fill="#3503ff" r="2"/>
<circle cx="336" cy="-2676.5585846857143" fill="#3503ff" r="2"/>
<circle cx="338" cy="-2692.490386285714" fill="#3503ff" r="2"/>
<circle cx="340" cy="-2708.4221878857143" fill="#3503ff" r="2"/>
<circle cx="342" cy="-2724.3539894857145" fill="#3503ff" r="2"/>
<circle cx="344" cy="-2740.285791085714" fill="#3503ff" r="2"/>
<circle cx="346" cy="-2756.2175926857144" fill="#3503ff" r="2"/>
<circle cx="348" cy="-2772.149394285714" fill="#3503ff" r="2"/>
<circle cx="350" cy="-2788.0811958857144" fill="#3503ff" r="2"/>
<circle cx="352" cy="-2804.012997485714" fill="#3503ff" r="2"/>
<circle cx="354" cy="-2819.9447990857143" fill="#3503ff" r="2"/>
<circle cx="356" cy="-2835.8766006857145" fill="#3503ff" r="2"/>
<circle cx="358" cy="-2851.8084022857142" fill="#3503ff" r="2"/>
<circle cx="360" cy="-2867.7402038857144" fill="#3503ff" r="2"/>
<circle cx="362" cy="-2883.672005485714" fill="#3503ff" r="2"/>
<circle cx="364" cy="-2899.6038070857144" fill="#3503ff" r="2"/>
<circle cx="366" cy="-2915.535608685714" fill="#3503ff" r="2"/>
<circle cx="368" cy="-2931.4674102857143" fill="#3503ff" r="2"/>
<circle cx="370" cy="-2947.399211885714" fill="#3503ff" r="2"/>
<circle cx="372" cy="-2963.3310134857143" fill="#3503ff" r="2"/>
<circle cx="374" cy="-2979.2628150857145" fill="#3503ff" r="2"/>
<circle cx="376" cy="-2995.194616685714" fill="#3503ff" r="2"/>
<circle cx="378" cy="-3011.1264182857144" fill="#3503ff" r="2"/>
<circle cx="380" cy="-3027.058219885714" fill="#3503ff" r="2"/>
<circle cx="382" cy="-3042.9900214857144" fill="#3503ff" r="2"/>
<circle cx="384" cy="-3058.921823085714" fill="#3503ff" r="2"/>
<circle cx="386" cy="-3074.8536246857143" fill="#3503ff" r="2"/>
<circle cx="388" cy="-3090.7854262857145" fill="#3503ff" r="2"/>
<circle cx="390" cy="-3106.7172278857142" fill="#3503ff" r="2"/>
<circle cx="392" cy="-3122.6490294857144" fill="#3503ff" r="2"/>
<circle cx="394" cy="-3138.580831085714" fill="#3503ff" r="2"/>
<circle cx="396" cy="-3154.5126326857144" fill="#3503ff" r="2"/>
<circle cx="398" cy="-3167.261257142857" fill="#3503ff" r="2"/>
</g>
<g>
<circle cx="0" cy="-0.015947765297114648" fill="#ff2600" r="2"/>
<circle cx="2" cy="-15.947765297114648" fill="#ff2600" r="2"/>
<circle cx="4" cy="-31.87958282893218" fill="#ff2600" r="2"/>
<circle cx="6" cy="-47.81140036074971" fill="#ff2600" r="2"/>
<circle cx="8" cy="-63.74321789256724" fill="#ff2600" r="2"/>
<circle cx="10" cy="-79.67503542438477" fill="#ff2600" r="2"/>
<circle cx="12" cy="-95.6068529562023" fill="#ff2600" r="2"/>
<circle cx="14" cy="-111.53867048801985" fill="#ff2600" r="2"/>
<circle cx="16" cy="-127.47048801983736" fill="#ff2600" r="2"/>
<circle cx="18" cy="-143.4023055516549" fill="#ff2600" r="2"/>
<circle cx="20" cy="-159.33412308347243" fill="#ff2600" r="2"/>
<circle cx="22" cy="-175.26594061528996" fill="#ff2600" r="2"/>
<circle cx="24" cy="-191.1977581471075" fill="#ff2600" r="2"/>
<circle cx="26" cy="-207.12957567892505" fill="#ff2600" r="2"/>
<circle cx="28" cy="-223.06139321074252" fill="#ff2600" r="2"/>
<circle cx="30" cy="-238.99321074256008" fill="#ff2600" r="2"/>
<circle cx="32" cy="-254.9250282743776" fill="#ff2600" r="2"/>
<circle cx="34" cy="-270.8568458061952" fill="#ff2600" r="2"/>
<circle cx="36" cy="-286.78866333801267" fill="#ff2600" r="2"/>
<circle cx="38" cy="-302.7204808698302" fill="#ff2600" r="2"/>
<circle cx="40" cy="-318.6522984016478" fill="#ff2600" r="2"/>
<circle cx="42" cy="-334.58411593346534" fill="#ff2600" r="2"/>
<circle cx="44" cy="-350.51593346528284" fill="#ff2600" r="2"/>
<circle cx="46" cy="-366.44775099710034" fill="#ff2600" r="2"/>
<circle cx="48" cy="-382.3795685289179" fill="#ff2600" r="2"/>
<circle cx="50" cy="-398.31138606073546" fill="#ff2600" r="2"/>
<circle cx="52" cy="-414.2432035925529" fill="#ff2600" r="2"/>
<circle cx="54" cy="-430.17502112437046" fill="#ff2600" r="2"/>
<circle cx="56" cy="-446.106838656188" fill="#ff2600" r="2"/>
<circle cx="58" cy="-462.0386561880055" fill="#ff2600" r="2"/>
<circle cx="60" cy="-477.9704737198231" fill="#ff2600" r="2"/>
<circle cx="62" cy="-493.90229125164063" fill="#ff2600" r="2"/>
<circle cx="64" cy="-509.8341087834582" fill="#ff2600" r="2"/>
<circle cx="66" cy="-525.7659263152756" fill="#ff2600" r="2"/>
<circle cx="68" cy="-541.6977438470932" fill="#ff2600" r="2"/>
<circle cx="70" cy="-557.6295613789107" fill="#ff2600" r="2"/>
<circle cx="72" cy="-573.5613789107282" fill="#ff2600" r="2"/>
<circle cx="74" cy="-589.4931964425458" fill="#ff2600" r="2"/>
<circle cx="76" cy="-605.4250139743633" fill="#ff2600" r="2"/>
<circle cx="78" cy="-621.3568315061808" fill="#ff2600" r="2"/>
<circle cx="80" cy="-637.2886490379983" fill="#ff2600" r="2"/>
<circle cx="82" cy="-653.2204665698158" fill="#ff2600" r="2"/>
<circle cx="84" cy="-669.1522841016334" fill="#ff2600" r="2"/>
<circle cx="86" cy="-685.0841016334509" fill="#ff2600" r="2"/>
<circle cx="88" cy="-701.0159191652684" fill="#ff2600" r="2"/>
<circle cx="90" cy="-716.947736697086" fill="#ff2600" r="2"/>
<circle cx="92" cy="-732.8795542289035" fill="#ff2600" r="2"/>
<circle cx="94" cy="-748.811371760721" fill="#ff2600" r="2"/>
<circle cx="96" cy="-764.7431892925387" fill="#ff2600" r="2"/>
<circle cx="98" cy="-780.6750068243562" fill="#ff2600" r="2"/>
<circle cx="100" cy="-796.6068243561737" fill="#ff2600" r="2"/>
<circle cx="102" cy="-812.5386418879913" fill="#ff2600" r="2"/>
<circle cx="104" cy="-828.4704594198087" fill="#ff2600" r="2"/>
<circle cx="106" cy="-844.4022769516263" fill="#ff2600" r="2"/>
<circle cx="108" cy="-860.3340944834438" fill="#ff2600" r="2"/>
<circle cx="110" cy="-876.2659120152614" fill="#ff2600" r="2"/>
<circle cx="112" cy="-892.1977295470789" fill="#ff2600" r="2"/>
<circle cx="114" cy="-908.1295470788963" fill="#ff2600" r="2"/>
<circle cx="116" cy="-924.0613646107139" fill="#ff2600" r="2"/>
<circle cx="118" cy="-939.9931821425314" fill="#ff2600" r="2"/>
<circle cx="120" cy="-955.924999674349" fill="#ff2600" r="2"/>
<circle cx="122" cy="-971.8568172061665" fill="#ff2600" r="2"/>
<circle cx="124" cy="-987.7886347379841" fill="#ff2600" r="2"/>
<circle cx="126" cy="-1003.7204522698015" fill="#ff2600" r="2"/>
<circle cx="128" cy="-1019.6522698016191" fill="#ff2600" r="2"/>
<circle cx="130" cy="-1035.5840873334366" fill="#ff2600" r="2"/>
<circle cx="132" cy="-1051.5159048652542" fill="#ff2600" r="2"/>
<circle cx="134" cy="-1067.4477223970716" fill="#ff2600" r="2"/>
<circle cx="136" cy="-1083.3795399288892" fill="#ff2600" r="2"/>
<circle cx="138" cy="-1099.3113574607069" fill="#ff2600" r="2"/>
<circle cx="140" cy="-1115.2431749925242" fill="#ff2600" r="2"/>
<circle cx="142" cy="-1131.1749925243419" fill="#ff2600" r="2"/>
<circle cx="144" cy="-1147.1068100561592" fill="#ff2600" r="2"/>
<circle cx="146" cy="-1163.0386275879769" fill="#ff2600" r="2"/>
<circle cx="148" cy="-1178.9704451197945" fill="#ff2600" r="2"/>
<circle cx="150" cy="-1194.902262651612" fill="#ff2600" r="2"/>
<circle cx="152" cy="-1210.8340801834295" fill="#ff2600" r="2"/>
<circle cx="154" cy="-1226.7658977152469" fill="#ff2600" r="2"/>
<circle cx="156" cy="-1242.6977152470645" fill="#ff2600" r="2"/>
<circle cx="158" cy="-1258.629532778882" fill="#ff2600" r="2"/>
<circle cx="160" cy="-1274.5613503106997" fill="#ff2600" r="2"/>
<circle cx="162" cy="-1290.493167842517" fill="#ff2600" r="2"/>
<circle cx="164" cy="-1306.4249853743347" fill="#ff2600" r="2"/>
<circle cx="166" cy="-1322.356802906152" fill="#ff2600" r="2"/>
<circle cx="168" cy="-1338.2886204379697" fill="#ff2600" r="2"/>
<circle cx="170" cy="-1354.2204379697873" fill="#ff2600" r="2"/>
<circle cx="172" cy="-1370.152255501605" fill="#ff2600" r="2"/>
<circle cx="174" cy="-1386.0840730334223" fill="#ff2600" r="2"/>
<circle cx="176" cy="-1402.0158905652397" fill="#ff2600" r="2"/>
<circle cx="178" cy="-1417.9477080970573" fill="#ff2600" r="2"/>
<circle cx="180" cy="-1433.879525628875" fill="#ff2600" r="2"/>
<circle cx="182" cy="-1449.8113431606926" fill="#ff2600" r="2"/>
<circle cx="184" cy="-1465.74316069251" fill="#ff2600" r="2"/>
<circle cx="186" cy="-1481.6749782243276" fill="#ff2600" r="2"/>
<circle cx="188" cy="-1497.606795756145" fill="#ff2600" r="2"/>
<circle cx="190" cy="-1513.5386132879626" fill="#ff2600" r="2"/>
<circle cx="192" cy="-1529.4704308197802" fill="#ff2600" r="2"/>
<circle cx="194" cy="-1545.4022483515978" fill="#ff2600" r="2"/>
<circle cx="196" cy="-1561.3340658834152" fill="#ff2600" r="2"/>
<circle cx="198" cy="-1577.2658834152326" fill="#ff2600" r="2"/>
<circle cx="200" cy="-1593.1977009470502" fill="#ff2600" r="2"/>
<circle cx="202" cy="-1609.1295184788678" fill="#ff2600" r="2"/>
<circle cx="204" cy="-1625.0613360106854" fill="#ff2600" r="2"/>
<circle cx="206" cy="-1640.9931535425028" fill="#ff2600" r="2"/>
<circle cx="208" cy="-1656.9249710743202" fill="#ff2600" r="2"/>
<circle cx="210" cy="-1672.856788606138" fill="#ff2600" r="2"/>
<circle cx="212" cy="-1688.7886061379554" fill="#ff2600" r="2"/>
<circle cx="214" cy="-1704.720423669773" fill="#ff2600" r="2"/>
<circle cx="216" cy="-1720.6522412015904" fill="#ff2600" r="2"/>
<circle cx="218" cy="-1736.5840587334083" fill="#ff2600" r="2"/>
<circle cx="220" cy="-1752.5158762652256" fill="#ff2600" r="2"/>
<circle cx="222" cy="-1768.447693797043" fill="#ff2600" r="2"/>
<circle cx="224" cy="-1784.3795113288606" fill="#ff2600" r="2"/>
<circle cx="226" cy="-1800.311328860678" fill="#ff2600" r="2"/>
<circle cx="228" cy="-1816.2431463924959" fill="#ff2600" r="2"/>
<circle cx="230" cy="-1832.1749639243133" fill="#ff2600" r="2"/>
<circle cx="232" cy="-1848.1067814561306" fill="#ff2600" r="2"/>
<circle cx="234" cy="-1864.0385989879483" fill="#ff2600" r="2"/>
<circle cx="236" cy="-1879.9704165197659" fill="#ff2600" r="2"/>
<circle cx="238" cy="-1895.9022340515835" fill="#ff2600" r="2"/>
<circle cx="240" cy="-1911.8340515834009" fill="#ff2600" r="2"/>
<circle cx="242" cy="-1927.7658691152183" fill="#ff2600" r="2"/>
<circle cx="244" cy="-1943.6976866470359" fill="#ff2600" r="2"/>
<circle cx="246" cy="-1959.6295041788535" fill="#ff2600" r="2"/>
<circle cx="248" cy="-1975.561321710671" fill="#ff2600" r="2"/>
<circle cx="250" cy="-1991.4931392424885" fill="#ff2600" r="2"/>
<circle cx="252" cy="-2007.4249567743059" fill="#ff2600" r="2"/>
<circle cx="254" cy="-2023.3567743061237" fill="#ff2600" r="2"/>
<circle cx="256" cy="-2039.288591837941" fill="#ff2600" r="2"/>
<circle cx="258" cy="-2055.2204093697587" fill="#ff2600" r="2"/>
<circle cx="260" cy="-2071.152226901576" fill="#ff2600" r="2"/>
<circle cx="262" cy="-2087.0840444333935" fill="#ff2600" r="2"/>
<circle cx="264" cy="-2103.0158619652116" fill="#ff2600" r="2"/>
<circle cx="266" cy="-2118.9476794970287" fill="#ff2600" r="2"/>
<circle cx="268" cy="-2134.879497028847" fill="#ff2600" r="2"/>
<circle cx="270" cy="-2150.8113145606635" fill="#ff2600" r="2"/>
<circle cx="272" cy="-2166.7431320924816" fill="#ff2600" r="2"/>
<circle cx="274" cy="-2182.674949624299" fill="#ff2600" r="2"/>
<circle cx="276" cy="-2198.606767156117" fill="#ff2600" r="2"/>
<circle cx="278" cy="-2214.538584687934" fill="#ff2600" r="2"/>
<circle cx="280" cy="-2230.4704022197516" fill="#ff2600" r="2"/>
<circle cx="282" cy="-2246.402219751569" fill="#ff2600" r="2"/>
<circle cx="284" cy="-2262.334037283387" fill="#ff2600" r="2"/>
<circle cx="286" cy="-2278.265854815204" fill="#ff2600" r="2"/>
<circle cx="288" cy="-2294.197672347022" fill="#ff2600" r="2"/>
<circle cx="290" cy="-2310.129489878839" fill="#ff2600" r="2"/>
<circle cx="292" cy="-2326.0613074106573" fill="#ff2600" r="2"/>
<circle cx="294" cy="-2341.993124942474" fill="#ff2600" r="2"/>
<circle cx="296" cy="-2357.924942474292" fill="#ff2600" r="2"/>
<circle cx="298" cy="-2373.8567600061097" fill="#ff2600" r="2"/>
<circle cx="300" cy="-2389.788577537927" fill="#ff2600" r="2"/>
<circle cx="302" cy="-2405.7203950697444" fill="#ff2600" r="2"/>
<circle cx="304" cy="-2421.652212601562" fill="#ff2600" r="2"/>
<circle cx="306" cy="-2437.584030133379" fill="#ff2600" r="2"/>
<circle cx="308" cy="-2453.5158476651973" fill="#ff2600" r="2"/>
<circle cx="310" cy="-2469.4476651970144" fill="#ff2600" r="2"/>
<circle cx="312" cy="-2485.3794827288325" fill="#ff2600" r="2"/>
<circle cx="314" cy="-2501.311300260649" fill="#ff2600" r="2"/>
<circle cx="316" cy="-2517.2431177924673" fill="#ff2600" r="2"/>
<circle cx="318" cy="-2533.174935324285" fill="#ff2600" r="2"/>
<circle cx="320" cy="-2549.1067528561025" fill="#ff2600" r="2"/>
<circle cx="322" cy="-2565.0385703879197" fill="#ff2600" r="2"/>
<circle cx="324" cy="-2580.9703879197373" fill="#ff2600" r="2"/>
<circle cx="326" cy="-2596.902205451555" fill="#ff2600" r="2"/>
<circle cx="328" cy="-2612.8340229833725" fill="#ff2600" r="2"/>
<circle cx="330" cy="-2628.7658405151897" fill="#ff2600" r="2"/>
<circle cx="332" cy="-2644.6976580470077" fill="#ff2600" r="2"/>
<circle cx="334" cy="-2660.629475578825" fill="#ff2600" r="2"/>
<circle cx="336" cy="-2676.561293110643" fill="#ff2600" r="2"/>
<circle cx="338" cy="-2692.4931106424597" fill="#ff2600" r="2"/>
<circle cx="340" cy="-2708.4249281742777" fill="#ff2600" r="2"/>
<circle cx="342" cy="-2724.3567457060954" fill="#ff2600" r="2"/>
<circle cx="344" cy="-2740.2885632379125" fill="#ff2600" r="2"/>
<circle cx="346" cy="-2756.22038076973" fill="#ff2600" r="2"/>
<circle cx="348" cy="-2772.1521983015477" fill="#ff2600" r="2"/>
<circle cx="350" cy="-2788.084015833365" fill="#ff2600" r="2"/>
<circle cx="352" cy="-2804.015833365183" fill="#ff2600" r="2"/>
<circle cx="354" cy="-2819.947650897" fill="#ff2600" r="2"/>
<circle cx="356" cy="-2835.879468428818" fill="#ff2600" r="2"/>
<circle cx="358" cy="-2851.811285960635" fill="#ff2600" r="2"/>
<circle cx="360" cy="-2867.743103492453" fill="#ff2600" r="2"/>
<circle cx="362" cy="-2883.6749210242706" fill="#ff2600" r="2"/>
<circle cx="364" cy="-2899.606738556088" fill="#ff2600" r="2"/>
<circle cx="366" cy="-2915.5385560879054" fill="#ff2600" r="2"/>
<circle cx="368" cy="-2931.470373619723" fill="#ff2600" r="2"/>
<circle cx="370" cy="-2947.4021911515406" fill="#ff2600" r="2"/>
<circle cx="372" cy="-2963.334008683358" fill="#ff2600" r="2"/>
<circle cx="374" cy="-2979.2658262151754" fill="#ff2600" r="2"/>
<circle cx="376" cy="-2995.1976437469934" fill="#ff2600" r="2"/>
<circle cx="378" cy="-3011.1294612788106" fill="#ff2600" r="2"/>
<circle cx="380" cy="-3027.0612788106287" fill="#ff2600" r="2"/>
<circle cx="382" cy="-3042.9930963424454" fill="#ff2600" r="2"/>
<circle cx="384" cy="-3058.9249138742634" fill="#ff2600" r="2"/>
<circle cx="386" cy="-3074.856731406081" fill="#ff2600" r="2"/>
<circle cx="388" cy="-3090.788548937898" fill="#ff2600" r="2"/>
<circle cx="390" cy="-3106.7203664697126" fill="#ff2600" r="2"/>
<circle cx="392" cy="-3122.652183998347" fill="#ff2600" r="2"/>
<circle cx="394" cy="-3138.5839983469714" fill="#ff2600" r="2"/>
<circle cx="396" cy="-3154.5126326857144" fill="#ff2600" r="2"/>
<circle cx="398" cy="-3167.261257142857" fill="#ff2600" r="2"/>
</g>
<g>
<g>
<line stroke="black" stroke-width="1" x1="0" x2="0" y1="0" y2="10"/>
<line stroke="black" stroke-width="1" x1="100" x2="100" y1="0" y2="10"/>
<line stroke="black" stroke-width="1" x1="200" x2="200" y1="0" y2="10"/>
<line stroke="black" stroke-width="1" x1="300" x2="300" y1="0" y2="10"/>
<line stroke="black" stroke-width="1" x1="400" x2="400" y1="0" y2="10"/>
<line stroke="black" stroke-width="1" x1="500" x2="500" y1="0" y2="10"/>
</g>
<line stroke="black" stroke-width="1" x1="0" x2="500" y1="0" y2="0"/>
<g>
<text font-size="12" text-anchor="middle" x="0" y="20">
0
</text>
<text font-size="12" text-anchor="middle" x="100" y="20">
50000
</text>
<text font-size="12" text-anchor="middle" x="200" y="20">
100000
</text>
<text font-size="12" text-anchor="middle" x="300" y="20">
150000
</text>
<text font-size="12" text-anchor="middle" x="400" y="20">
200000
</text>
<text font-size="12" text-anchor="middle" x="500" y="20">
250000
</text>
</g>
<text font-size="12" text-anchor="middle" x="250" y="30">
Gas Price
</text>
</g>
<g>
<g>
<line stroke="black" stroke-width="1" x1="0" x2="-10" y1="0" y2="0"/>
<line stroke="black" stroke-width="1" x1="0" x2="-10" y1="-97.14285714285714" y2="-97.14285714285714"/>
<line stroke="black" stroke-width="1" x1="0" x2="-10" y1="-194.28571428571428" y2="-194.28571428571428"/>
<line stroke="black" stroke-width="1" x1="0" x2="-10" y1="-291.42857142857144" y2="-291.42857142857144"/>
</g>
<line stroke="black" stroke-0="1" x1="0" x2="0" y1="0" y2="-340"/>
<g>
<text dominant-baseline="middle" font-size="12" text-anchor="end" x="-15" y="0">
0
</text>
<text dominant-baseline="middle" font-size="12" text-anchor="end" x="-15" y="-97.14285714285714">
200000000
</text>
<text dominant-baseline="middle" font-size="12" text-anchor="end" x="-15" y="-194.28571428571428">
400000000
</text>
<text dominant-baseline="middle" font-size="12" text-anchor="end" x="-15" y="-291.42857142857144">
600000000
</text>
</g>
<text font-size="12" text-anchor="middle" transform="rotate(-90 -30 -170)" x="-30" y="-170">
Score
</text>
</g>
</g>
</svg>