<svg viewBox="0 0 600 400" xmlns="http://www.w3.org/2000/svg">
<g transform="translate(50, 360)">
<g>
<circle cx="0" cy="-0.0017140184615384616" fill="#ff2600" r="2"/>
<circle cx="2.2222222222222223" cy="-0.0017140184615384616" fill="#ff2600" r="2"/>
<circle cx="4.444444444444445" cy="-1.7174464984615385" fill="#ff2600" r="2"/>
<circle cx="6.666666666666667" cy="-3.4331789784615383" fill="#ff2600" r="2"/>
<circle cx="8.88888888888889" cy="-5.148911458461538" fill="#ff2600" r="2"/>
<circle cx="11.11111111111111" cy="-6.864643938461539" fill="#ff2600" r="2"/>
<circle cx="13.333333333333334" cy="-8.580376418461539" fill="#ff2600" r="2"/>
<circle cx="15.555555555555555" cy="-10.296108898461538" fill="#ff2600" r="2"/>
<circle cx="17.77777777777778" cy="-12.011841378461538" fill="#ff2600" r="2"/>
<circle cx="20" cy="-13.727573858461538" fill="#ff2600" r="2"/>
<circle cx="22.22222222222222" cy="-15.443306338461538" fill="#ff2600" r="2"/>
<circle cx="24.444444444444443" cy="-17.15903881846154" fill="#ff2600" r="2"/>
<circle cx="26.666666666666668" cy="-18.87477129846154" fill="#ff2600" r="2"/>
<circle cx="28.88888888888889" cy="-20.59050377846154" fill="#ff2600" r="2"/>
<circle cx="31.11111111111111" cy="-22.30623625846154" fill="#ff2600" r="2"/>
<circle cx="33.333333333333336" cy="-24.02196873846154" fill="#ff2600" r="2"/>
<circle cx="35.55555555555556" cy="-25.737701218461538" fill="#ff2600" r="2"/>
<circle cx="37.77777777777778" cy="-27.453433698461538" fill="#ff2600" r="2"/>
<circle cx="40" cy="-29.169166178461538" fill="#ff2600" r="2"/>
<circle cx="42.22222222222222" cy="-30.884898658461537" fill="#ff2600" r="2"/>
<circle cx="44.44444444444444" cy="-32.60063113846154" fill="#ff2600" r="2"/>
<circle cx="46.666666666666664" cy="-34.31636361846154" fill="#ff2600" r="2"/>
<circle cx="48.888888888888886" cy="-36.03209609846154" fill="#ff2600" r="2"/>
<circle cx="51.111111111111114" cy="-37.74782857846154" fill="#ff2600" r="2"/>
<circle cx="53.333333333333336" cy="-39.463561058461536" fill="#ff2600" r="2"/>
<circle cx="55.55555555555556" cy="-41.179293538461536" fill="#ff2600" r="2"/>
<circle cx="57.77777777777778" cy="-42.895026018461536" fill="#ff2600" r="2"/>
<circle cx="60" cy="-44.610758498461536" fill="#ff2600" r="2"/>
<circle cx="62.22222222222222" cy="-46.326490978461536" fill="#ff2600" r="2"/>
<circle cx="64.44444444444444" cy="-48.042223458461535" fill="#ff2600" r="2"/>
<circle cx="66.66666666666667" cy="-49.757955938461535" fill="#ff2600" r="2"/>
<circle cx="68.88888888888889" cy="-51.47368841846154" fill="#ff2600" r="2"/>
<circle cx="71.11111111111111" cy="-53.18942089846154" fill="#ff2600" r="2"/>
<circle cx="73.33333333333333" cy="-54.90515337846154" fill="#ff2600" r="2"/>
<circle cx="75.55555555555556" cy="-56.62088585846154" fill="#ff2600" r="2"/>
<circle cx="77.77777777777777" cy="-58.33661833846154" fill="#ff2600" r="2"/>
<circle cx="80" cy="-60.05235081846154" fill="#ff2600" r="2"/>
<circle cx="82.22222222222223" cy="-61.76808329846154" fill="#ff2600" r="2"/>
<circle cx="84.44444444444444" cy="-63.48381577846154" fill="#ff2600" r="2"/>
<circle cx="86.66666666666667" cy="-65.19954825846153" fill="#ff2600" r="2"/>
<circle cx="88.88888888888889" cy="-66.91528073846153" fill="#ff2600" r="2"/>
<circle cx="91.11111111111111" cy="-68.63101321846153" fill="#ff2600" r="2"/>
<circle cx="93.33333333333333" cy="-70.34674569846153" fill="#ff2600" r="2"/>
<circle cx="95.55555555555556" cy="-72.06247817846153" fill="#ff2600" r="2"/>
<circle cx="97.77777777777777" cy="-73.77821065846153" fill="#ff2600" r="2"/>
<circle cx="100" cy="-75.49394313846153" fill="#ff2600" r="2"/>
<circle cx="102.22222222222223" cy="-77.20967561846153" fill="#ff2600" r="2"/>
<circle cx="104.44444444444444" cy="-78.92540809846153" fill="#ff2600" r="2"/>
<circle cx="106.66666666666667" cy="-80.64114057846155" fill="#ff2600" r="2"/>
<circle cx="108.88888888888889" cy="-82.35687305846155" fill="#ff2600" r="2"/>
<circle cx="111.11111111111111" cy="-84.07260553846154" fill="#ff2600" r="2"/>
<circle cx="113.33333333333333" cy="-85.78833801846154" fill="#ff2600" r="2"/>
<circle cx="115.55555555555556" cy="-87.50407049846154" fill="#ff2600" r="2"/>
<circle cx="117.77777777777777" cy="-89.21980297846154" fill="#ff2600" r="2"/>
<circle cx="120" cy="-90.93553545846154" fill="#ff2600" r="2"/>
<circle cx="122.22222222222223" cy="-92.65126793846154" fill="#ff2600" r="2"/>
<circle cx="124.44444444444444" cy="-94.36700041846154" fill="#ff2600" r="2"/>
<circle cx="126.66666666666667" cy="-96.08273289846154" fill="#ff2600" r="2"/>
<circle cx="128.88888888888889" cy="-97.79846537846154" fill="#ff2600" r="2"/>
<circle cx="131.11111111111111" cy="-99.51419785846154" fill="#ff2600" r="2"/>
<circle cx="133.33333333333334" cy="-101.22993033846154" fill="#ff2600" r="2"/>
<circle cx="135.55555555555554" cy="-102.94566281846154" fill="#ff2600" r="2"/>
<circle cx="137.77777777777777" cy="-104.66139529846154" fill="#ff2600" r="2"/>
<circle cx="140" cy="-106.37712777846154" fill="#ff2600" r="2"/>
<circle cx="142.22222222222223" cy="-108.09286025846154" fill="#ff2600" r="2"/>
<circle cx="144.44444444444446" cy="-109.80859273846154" fill="#ff2600" r="2"/>
<circle cx="146.66666666666666" cy="-111.52432521846154" fill="#ff2600" r="2"/>
<circle cx="148.88888888888889" cy="-113.24005769846154" fill="#ff2600" r="2"/>
<circle cx="151.11111111111111" cy="-114.95579017846154" fill="#ff2600" r="2"/>
<circle cx="153.33333333333334" cy="-116.67152265846154" fill="#ff2600" r="2"/>
<circle cx="155.55555555555554" cy="-118.38725513846154" fill="#ff2600" r="2"/>
<circle cx="157.77777777777777" cy="-120.10298761846154" fill="#ff2600" r="2"/>
<circle cx="160" cy="-121.81872009846154" fill="#ff2600" r="2"/>
<circle cx="162.22222222222223" cy="-123.53445257846154" fill="#ff2600" r="2"/>
<circle cx="164.44444444444446" cy="-125.25018505846154" fill="#ff2600" r="2"/>
<circle cx="166.66666666666666" cy="-126.96591753846154" fill="#ff2600" r="2"/>
<circle cx="168.88888888888889" cy="-128.68165001846154" fill="#ff2600" r="2"/>
<circle cx="171.11111111111111" cy="-130.39738249846152" fill="#ff2600" r="2"/>
<circle cx="173.33333333333334" cy="-132.11311497846154" fill="#ff2600" r="2"/>
<circle cx="175.55555555555554" cy="-133.82884745846152" fill="#ff2600" r="2"/>
<circle cx="177.77777777777777" cy="-135.54457993846154" fill="#ff2600" r="2"/>
<circle cx="180" cy="-137.26031241846155" fill="#ff2600" r="2"/>
<circle cx="182.22222222222223" cy="-138.97604489846154" fill="#ff2600" r="2"/>
<circle cx="184.44444444444446" cy="-140.69177737846155" fill="#ff2600" r="2"/>
<circle cx="186.66666666666666" cy="-142.40750985846154" fill="#ff2600" r="2"/>
<circle cx="188.88888888888889" cy="-144.12324233846155" fill="#ff2600" r="2"/>
<circle cx="191.11111111111111" cy="-145.83897481846154" fill="#ff2600" r="2"/>
<circle cx="193.33333333333334" cy="-147.55470729846155" fill="#ff2600" r="2"/>
<circle cx="195.55555555555554" cy="-149.27043977846154" fill="#ff2600" r="2"/>
<circle cx="197.77777777777777" cy="-150.98617225846155" fill="#ff2600" r="2"/>
<circle cx="200" cy="-152.70190473846154" fill="#ff2600" r="2"/>
<circle cx="202.22222222222223" cy="-154.41763721846155" fill="#ff2600" r="2"/>
<circle cx="204.44444444444446" cy="-156.13336969846154" fill="#ff2600" r="2"/>
<circle cx="206.66666666666666" cy="-157.84910217846155" fill="#ff2600" r="2"/>
<circle cx="208.88888888888889" cy="-159.56483465846154" fill="#ff2600" r="2"/>
<circle cx="211.11111111111111" cy="-161.28056713846155" fill="#ff2600" r="2"/>
<circle cx="213.33333333333334" cy="-162.99629961846153" fill="#ff2600" r="2"/>
<circle cx="215.55555555555554" cy="-164.71203209846155" fill="#ff2600" r="2"/>
<circle cx="217.77777777777777" cy="-166.42776457846153" fill="#ff2600" r="2"/>
<circle cx="220" cy="-168.14349705846155" fill="#ff2600" r="2"/>
<circle cx="222.22222222222223" cy="-169.85922953846153" fill="#ff2600" r="2"/>
<circle cx="224.44444444444446" cy="-171.57496201846155" fill="#ff2600" r="2"/>
<circle cx="226.66666666666666" cy="-173.29069449846153" fill="#ff2600" r="2"/>
<circle cx="228.88888888888889" cy="-175.00642697846155" fill="#ff2600" r="2"/>
<circle cx="231.11111111111111" cy="-176.72215945846153" fill="#ff2600" r="2"/>
<circle cx="233.33333333333334" cy="-178.43789193846155" fill="#ff2600" r="2"/>
<circle cx="235.55555555555554" cy="-180.15362441846153" fill="#ff2600" r="2"/>
<circle cx="237.77777777777777" cy="-181.86935689846155" fill="#ff2600" r="2"/>
<circle cx="240" cy="-183.58508937846153" fill="#ff2600" r="2"/>
<circle cx="242.22222222222223" cy="-185.30082185846155" fill="#ff2600" r="2"/>
<circle cx="244.44444444444446" cy="-187.01655433846153" fill="#ff2600" r="2"/>
<circle cx="246.66666666666666" cy="-188.73228681846155" fill="#ff2600" r="2"/>
<circle cx="248.88888888888889" cy="-190.44801929846153" fill="#ff2600" r="2"/>
<circle cx="251.11111111111111" cy="-192.16375177846155" fill="#ff2600" r="2"/>
<circle cx="253.33333333333334" cy="-193.87948425846153" fill="#ff2600" r="2"/>
<circle cx="255.55555555555554" cy="-195.59521673846154" fill="#ff2600" r="2"/>
<circle cx="257.77777777777777" cy="-197.31094921846153" fill="#ff2600" r="2"/>
<circle cx="260" cy="-199.02668169846154" fill="#ff2600" r="2"/>
<circle cx="262.22222222222223" cy="-200.74241417846153" fill="#ff2600" r="2"/>
<circle cx="264.44444444444446" cy="-202.45814665846154" fill="#ff2600" r="2"/>
<circle cx="266.6666666666667" cy="-204.17387913846153" fill="#ff2600" r="2"/>
<circle cx="268.8888888888889" cy="-205.88961161846154" fill="#ff2600" r="2"/>
<circle cx="271.1111111111111" cy="-207.60534409846153" fill="#ff2600" r="2"/>
<circle cx="273.3333333333333" cy="-209.32107657846154" fill="#ff2600" r="2"/>
<circle cx="275.55555555555554" cy="-211.03680905846153" fill="#ff2600" r="2"/>
<circle cx="277.77777777777777" cy="-212.75254153846154" fill="#ff2600" r="2"/>
<circle cx="280" cy="-214.46827401846153" fill="#ff2600" r="2"/>
<circle cx="282.22222222222223" cy="-216.18400649846154" fill="#ff2600" r="2"/>
<circle cx="284.44444444444446" cy="-217.89973897846153" fill="#ff2600" r="2"/>
<circle cx="286.6666666666667" cy="-219.61547145846154" fill="#ff2600" r="2"/>
<circle cx="288.8888888888889" cy="-221.33120393846153" fill="#ff2600" r="2"/>
<circle cx="291.1111111111111" cy="-223.04693641846154" fill="#ff2600" r="2"/>
<circle cx="293.3333333333333" cy="-224.76266889846153" fill="#ff2600" r="2"/>
<circle cx="295.55555555555554" cy="-226.47840137846154" fill="#ff2600" r="2"/>
<circle cx="297.77777777777777" cy="-228.19413385846153" fill="#ff2600" r="2"/>
<circle cx="300" cy="-229.90986633846154" fill="#ff2600" r="2"/>
<circle cx="302.22222222222223" cy="-231.62559881846153" fill="#ff2600" r="2"/>
<circle cx="304.44444444444446" cy="-233.34133129846154" fill="#ff2600" r="2"/>
<circle cx="306.6666666666667" cy="-235.05706377846153" fill="#ff2600" r="2"/>
<circle cx="308.8888888888889" cy="-236.77279625846154" fill="#ff2600" r="2"/>
<circle cx="311.1111111111111" cy="-238.48852873846153" fill="#ff2600" r="2"/>
<circle cx="313.3333333333333" cy="-240.20426121846154" fill="#ff2600" r="2"/>
<circle cx="315.55555555555554" cy="-241.91999369846152" fill="#ff2600" r="2"/>
<circle cx="317.77777777777777" cy="-243.63572617846154" fill="#ff2600" r="2"/>
<circle cx="320" cy="-245.35145865846152" fill="#ff2600" r="2"/>
<circle cx="322.22222222222223" cy="-247.06719113846154" fill="#ff2600" r="2"/>
<circle cx="324.44444444444446" cy="-248.78292361846155" fill="#ff2600" r="2"/>
<circle cx="326.6666666666667" cy="-250.49865609846154" fill="#ff2600" r="2"/>
<circle cx="328.8888888888889" cy="-252.21438857846155" fill="#ff2600" r="2"/>
<circle cx="331.1111111111111" cy="-253.93012105846154" fill="#ff2600" r="2"/>
<circle cx="333.3333333333333" cy="-255.64585353846155" fill="#ff2600" r="2"/>
<circle cx="335.55555555555554" cy="-257.36158601846154" fill="#ff2600" r="2"/>
<circle cx="337.77777777777777" cy="-259.0773184984615" fill="#ff2600" r="2"/>
<circle cx="340" cy="-260.79305097846157" fill="#ff2600" r="2"/>
<circle cx="342.22222222222223" cy="-262.50878345846155" fill="#ff2600" r="2"/>
<circle cx="344.44444444444446" cy="-264.22451593846154" fill="#ff2600" r="2"/>
<circle cx="346.6666666666667" cy="-265.9402484184615" fill="#ff2600" r="2"/>
<circle cx="348.8888888888889" cy="-267.65598089846156" fill="#ff2600" r="2"/>
<circle cx="351.1111111111111" cy="-269.37171337846155" fill="#ff2600" r="2"/>
<circle cx="353.3333333333333" cy="-271.08744585846154" fill="#ff2600" r="2"/>
<circle cx="355.55555555555554" cy="-272.8031783384615" fill="#ff2600" r="2"/>
<circle cx="357.77777777777777" cy="-274.51891081846156" fill="#ff2600" r="2"/>
<circle cx="360" cy="-276.23464329846155" fill="#ff2600" r="2"/>
<circle cx="362.22222222222223" cy="-277.95037577846153" fill="#ff2600" r="2"/>
<circle cx="364.44444444444446" cy="-279.6661082584615" fill="#ff2600" r="2"/>
<circle cx="366.6666666666667" cy="-281.38184073846156" fill="#ff2600" r="2"/>
<circle cx="368.8888888888889" cy="-283.09757321846155" fill="#ff2600" r="2"/>
<circle cx="371.1111111111111" cy="-284.81330569846153" fill="#ff2600" r="2"/>
<circle cx="373.3333333333333" cy="-286.5290381784615" fill="#ff2600" r="2"/>
<circle cx="375.55555555555554" cy="-288.24477065846156" fill="#ff2600" r="2"/>
<circle cx="377.77777777777777" cy="-289.96050313846155" fill="#ff2600" r="2"/>
<circle cx="380" cy="-291.67623561846153" fill="#ff2600" r="2"/>
<circle cx="382.22222222222223" cy="-293.3919680984615" fill="#ff2600" r="2"/>
<circle cx="384.44444444444446" cy="-295.10770057846156" fill="#ff2600" r="2"/>
<circle cx="386.6666666666667" cy="-296.82343305846155" fill="#ff2600" r="2"/>
<circle cx="388.8888888888889" cy="-298.53916553846153" fill="#ff2600" r="2"/>
<circle cx="391.1111111111111" cy="-300.2548980184615" fill="#ff2600" r="2"/>
<circle cx="393.3333333333333" cy="-301.97063049846156" fill="#ff2600" r="2"/>
<circle cx="395.55555555555554" cy="-303.68636297846155" fill="#ff2600" r="2"/>
<circle cx="397.77777777777777" cy="-305.40209545846153" fill="#ff2600" r="2"/>
<circle cx="400" cy="-307.1178279384615" fill="#ff2600" r="2"/>
<circle cx="402.22222222222223" cy="-308.83356041846156" fill="#ff2600" r="2"/>
<circle cx="404.44444444444446" cy="-310.54929289846154" fill="#ff2600" r="2"/>
<circle cx="406.6666666666667" cy="-312.26502537846153" fill="#ff2600" r="2"/>
<circle cx="408.8888888888889" cy="-313.9807578584615" fill="#ff2600" r="2"/>
<circle cx="411.1111111111111" cy="-315.69649033846156" fill="#ff2600" r="2"/>
<circle cx="413.3333333333333" cy="-317.41222281846154" fill="#ff2600" r="2"/>
<circle cx="415.55555555555554" cy="-319.12795529846153" fill="#ff2600" r="2"/>
<circle cx="417.77777777777777" cy="-320.8436877784615" fill="#ff2600" r="2"/>
<circle cx="420" cy="-322.55942025846156" fill="#ff2600" r="2"/>
<circle cx="422.22222222222223" cy="-324.27515273846154" fill="#ff2600" r="2"/>
<circle cx="424.44444444444446" cy="-325.99088521846153" fill="#ff2600" r="2"/>
<circle cx="426.6666666666667" cy="-327.7066176984615" fill="#ff2600" r="2"/>
<circle cx="428.8888888888889" cy="-329.42235017846156" fill="#ff2600" r="2"/>
<circle cx="431.1111111111111" cy="-331.13808265846154" fill="#ff2600" r="2"/>
<circle cx="433.3333333333333" cy="-332.8538151384615" fill="#ff2600" r="2"/>
<circle cx="435.55555555555554" cy="-334.5695476184615" fill="#ff2600" r="2"/>
<circle cx="437.77777777777777" cy="-336.28528009846156" fill="#ff2600" r="2"/>
<circle cx="440" cy="-338.00101257846154" fill="#ff2600" r="2"/>
<circle cx="442.22222222222223" cy="-339.7167450584615" fill="#ff2600" r="2"/>
</g>
<g>
<circle cx="0" cy="-0.0017140184615384616" fill="#3503ff" r="2"/>
<circle cx="2.2222222222222223" cy="-1.7174464984615385" fill="#3503ff" r="2"/>
<circle cx="4.444444444444445" cy="-3.4331789784615383" fill="#3503ff" r="2"/>
<circle cx="6.666666666666667" cy="-5.148911458461538" fill="#3503ff" r="2"/>
<circle cx="8.88888888888889" cy="-6.864643938461539" fill="#3503ff" r="2"/>
<circle cx="11.11111111111111" cy="-8.580376418461539" fill="#3503ff" r="2"/>
<circle cx="13.333333333333334" cy="-10.296108898461538" fill="#3503ff" r="2"/>
<circle cx="15.555555555555555" cy="-12.011841378461538" fill="#3503ff" r="2"/>
<circle cx="17.77777777777778" cy="-13.727573858461538" fill="#3503ff" r="2"/>
<circle cx="20" cy="-15.443306338461538" fill="#3503ff" r="2"/>
<circle cx="22.22222222222222" cy="-17.15903881846154" fill="#3503ff" r="2"/>
<circle cx="24.444444444444443" cy="-18.87477129846154" fill="#3503ff" r="2"/>
<circle cx="26.666666666666668" cy="-20.59050377846154" fill="#3503ff" r="2"/>
<circle cx="28.88888888888889" cy="-22.30623625846154" fill="#3503ff" r="2"/>
<circle cx="31.11111111111111" cy="-24.02196873846154" fill="#3503ff" r="2"/>
<circle cx="33.333333333333336" cy="-25.737701218461538" fill="#3503ff" r="2"/>
<circle cx="35.55555555555556" cy="-27.453433698461538" fill="#3503ff" r="2"/>
<circle cx="37.77777777777778" cy="-29.169166178461538" fill="#3503ff" r="2"/>
<circle cx="40" cy="-30.884898658461537" fill="#3503ff" r="2"/>
<circle cx="42.22222222222222" cy="-32.60063113846154" fill="#3503ff" r="2"/>
<circle cx="44.44444444444444" cy="-34.31636361846154" fill="#3503ff" r="2"/>
<circle cx="46.666666666666664" cy="-36.03209609846154" fill="#3503ff" r="2"/>
<circle cx="48.888888888888886" cy="-37.74782857846154" fill="#3503ff" r="2"/>
<circle cx="51.111111111111114" cy="-39.463561058461536" fill="#3503ff" r="2"/>
<circle cx="53.333333333333336" cy="-41.179293538461536" fill="#3503ff" r="2"/>
<circle cx="55.55555555555556" cy="-42.895026018461536" fill="#3503ff" r="2"/>
<circle cx="57.77777777777778" cy="-44.610758498461536" fill="#3503ff" r="2"/>
<circle cx="60" cy="-46.326490978461536" fill="#3503ff" r="2"/>
<circle cx="62.22222222222222" cy="-48.042223458461535" fill="#3503ff" r="2"/>
<circle cx="64.44444444444444" cy="-49.757955938461535" fill="#3503ff" r="2"/>
<circle cx="66.66666666666667" cy="-51.47368841846154" fill="#3503ff" r="2"/>
<circle cx="68.88888888888889" cy="-53.18942089846154" fill="#3503ff" r="2"/>
<circle cx="71.11111111111111" cy="-54.90515337846154" fill="#3503ff" r="2"/>
<circle cx="73.33333333333333" cy="-56.62088585846154" fill="#3503ff" r="2"/>
<circle cx="75.55555555555556" cy="-58.33661833846154" fill="#3503ff" r="2"/>
<circle cx="77.77777777777777" cy="-60.05235081846154" fill="#3503ff" r="2"/>
<circle cx="80" cy="-61.76808329846154" fill="#3503ff" r="2"/>
<circle cx="82.22222222222223" cy="-63.48381577846154" fill="#3503ff" r="2"/>
<circle cx="84.44444444444444" cy="-65.19954825846153" fill="#3503ff" r="2"/>
<circle cx="86.66666666666667" cy="-66.91528073846153" fill="#3503ff" r="2"/>
<circle cx="88.88888888888889" cy="-68.63101321846153" fill="#3503ff" r="2"/>
<circle cx="91.11111111111111" cy="-70.34674569846153" fill="#3503ff" r="2"/>
<circle cx="93.33333333333333" cy="-72.06247817846153" fill="#3503ff" r="2"/>
<circle cx="95.55555555555556" cy="-73.77821065846153" fill="#3503ff" r="2"/>
<circle cx="97.77777777777777" cy="-75.49394313846153" fill="#3503ff" r="2"/>
<circle cx="100" cy="-77.20967561846153" fill="#3503ff" r="2"/>
<circle cx="102.22222222222223" cy="-78.92540809846153" fill="#3503ff" r="2"/>
<circle cx="104.44444444444444" cy="-80.64114057846155" fill="#3503ff" r="2"/>
<circle cx="106.66666666666667" cy="-82.35687305846155" fill="#3503ff" r="2"/>
<circle cx="108.88888888888889" cy="-84.07260553846154" fill="#3503ff" r="2"/>
<circle cx="111.11111111111111" cy="-85.78833801846154" fill="#3503ff" r="2"/>
<circle cx="113.33333333333333" cy="-87.50407049846154" fill="#3503ff" r="2"/>
<circle cx="115.55555555555556" cy="-89.21980297846154" fill="#3503ff" r="2"/>
<circle cx="117.77777777777777" cy="-90.93553545846154" fill="#3503ff" r="2"/>
<circle cx="120" cy="-92.65126793846154" fill="#3503ff" r="2"/>
<circle cx="122.22222222222223" cy="-94.36700041846154" fill="#3503ff" r="2"/>
<circle cx="124.44444444444444" cy="-96.08273289846154" fill="#3503ff" r="2"/>
<circle cx="126.66666666666667" cy="-97.79846537846154" fill="#3503ff" r="2"/>
<circle cx="128.88888888888889" cy="-99.51419785846154" fill="#3503ff" r="2"/>
<circle cx="131.11111111111111" cy="-101.22993033846154" fill="#3503ff" r="2"/>
<circle cx="133.33333333333334" cy="-102.94566281846154" fill="#3503ff" r="2"/>
<circle cx="135.55555555555554" cy="-104.66139529846154" fill="#3503ff" r="2"/>
<circle cx="137.77777777777777" cy="-106.37712777846154" fill="#3503ff" r="2"/>
<circle cx="140" cy="-108.09286025846154" fill="#3503ff" r="2"/>
<circle cx="142.22222222222223" cy="-109.80859273846154" fill="#3503ff" r="2"/>
<circle cx="144.44444444444446" cy="-111.52432521846154" fill="#3503ff" r="2"/>
<circle cx="146.66666666666666" cy="-113.24005769846154" fill="#3503ff" r="2"/>
<circle cx="148.88888888888889" cy="-114.95579017846154" fill="#3503ff" r="2"/>
<circle cx="151.11111111111111" cy="-116.67152265846154" fill="#3503ff" r="2"/>
<circle cx="153.33333333333334" cy="-118.38725513846154" fill="#3503ff" r="2"/>
<circle cx="155.55555555555554" cy="-120.10298761846154" fill="#3503ff" r="2"/>
<circle cx="157.77777777777777" cy="-121.81872009846154" fill="#3503ff" r="2"/>
<circle cx="160" cy="-123.53445257846154" fill="#3503ff" r="2"/>
<circle cx="162.22222222222223" cy="-125.25018505846154" fill="#3503ff" r="2"/>
<circle cx="164.44444444444446" cy="-126.96591753846154" fill="#3503ff" r="2"/>
<circle cx="166.66666666666666" cy="-128.68165001846154" fill="#3503ff" r="2"/>
<circle cx="168.88888888888889" cy="-130.39738249846152" fill="#3503ff" r="2"/>
<circle cx="171.11111111111111" cy="-132.11311497846154" fill="#3503ff" r="2"/>
<circle cx="173.33333333333334" cy="-133.82884745846152" fill="#3503ff" r="2"/>
<circle cx="175.55555555555554" cy="-135.54457993846154" fill="#3503ff" r="2"/>
<circle cx="177.77777777777777" cy="-137.26031241846155" fill="#3503ff" r="2"/>
<circle cx="180" cy="-138.97604489846154" fill="#3503ff" r="2"/>
<circle cx="182.22222222222223" cy="-140.69177737846155" fill="#3503ff" r="2"/>
<circle cx="184.44444444444446" cy="-142.40750985846154" fill="#3503ff" r="2"/>
<circle cx="186.66666666666666" cy="-144.12324233846155" fill="#3503ff" r="2"/>
<circle cx="188.88888888888889" cy="-145.83897481846154" fill="#3503ff" r="2"/>
<circle cx="191.11111111111111" cy="-147.55470729846155" fill="#3503ff" r="2"/>
<circle cx="193.33333333333334" cy="-149.27043977846154" fill="#3503ff" r="2"/>
<circle cx="195.55555555555554" cy="-150.98617225846155" fill="#3503ff" r="2"/>
<circle cx="197.77777777777777" cy="-152.70190473846154" fill="#3503ff" r="2"/>
<circle cx="200" cy="-154.41763721846155" fill="#3503ff" r="2"/>
<circle cx="202.22222222222223" cy="-156.13336969846154" fill="#3503ff" r="2"/>
<circle cx="204.44444444444446" cy="-157.84910217846155" fill="#3503ff" r="2"/>
<circle cx="206.66666666666666" cy="-159.56483465846154" fill="#3503ff" r="2"/>
<circle cx="208.88888888888889" cy="-161.28056713846155" fill="#3503ff" r="2"/>
<circle cx="211.11111111111111" cy="-162.99629961846153" fill="#3503ff" r="2"/>
<circle cx="213.33333333333334" cy="-164.71203209846155" fill="#3503ff" r="2"/>
<circle cx="215.55555555555554" cy="-166.42776457846153" fill="#3503ff" r="2"/>
<circle cx="217.77777777777777" cy="-168.14349705846155" fill="#3503ff" r="2"/>
<circle cx="220" cy="-169.85922953846153" fill="#3503ff" r="2"/>
<circle cx="222.22222222222223" cy="-171.57496201846155" fill="#3503ff" r="2"/>
<circle cx="224.44444444444446" cy="-173.29069449846153" fill="#3503ff" r="2"/>
<circle cx="226.66666666666666" cy="-175.00642697846155" fill="#3503ff" r="2"/>
<circle cx="228.88888888888889" cy="-176.72215945846153" fill="#3503ff" r="2"/>
<circle cx="231.11111111111111" cy="-178.43789193846155" fill="#3503ff" r="2"/>
<circle cx="233.33333333333334" cy="-180.15362441846153" fill="#3503ff" r="2"/>
<circle cx="235.55555555555554" cy="-181.86935689846155" fill="#3503ff" r="2"/>
<circle cx="237.77777777777777" cy="-183.58508937846153" fill="#3503ff" r="2"/>
<circle cx="240" cy="-185.30082185846155" fill="#3503ff" r="2"/>
<circle cx="242.22222222222223" cy="-187.01655433846153" fill="#3503ff" r="2"/>
<circle cx="244.44444444444446" cy="-188.73228681846155" fill="#3503ff" r="2"/>
<circle cx="246.66666666666666" cy="-190.44801929846153" fill="#3503ff" r="2"/>
<circle cx="248.88888888888889" cy="-192.16375177846155" fill="#3503ff" r="2"/>
<circle cx="251.11111111111111" cy="-193.87948425846153" fill="#3503ff" r="2"/>
<circle cx="253.33333333333334" cy="-195.59521673846154" fill="#3503ff" r="2"/>
<circle cx="255.55555555555554" cy="-197.31094921846153" fill="#3503ff" r="2"/>
<circle cx="257.77777777777777" cy="-199.02668169846154" fill="#3503ff" r="2"/>
<circle cx="260" cy="-200.74241417846153" fill="#3503ff" r="2"/>
<circle cx="262.22222222222223" cy="-202.45814665846154" fill="#3503ff" r="2"/>
<circle cx="264.44444444444446" cy="-204.17387913846153" fill="#3503ff" r="2"/>
<circle cx="266.6666666666667" cy="-205.88961161846154" fill="#3503ff" r="2"/>
<circle cx="268.8888888888889" cy="-207.60534409846153" fill="#3503ff" r="2"/>
<circle cx="271.1111111111111" cy="-209.32107657846154" fill="#3503ff" r="2"/>
<circle cx="273.3333333333333" cy="-211.03680905846153" fill="#3503ff" r="2"/>
<circle cx="275.55555555555554" cy="-212.75254153846154" fill="#3503ff" r="2"/>
<circle cx="277.77777777777777" cy="-214.46827401846153" fill="#3503ff" r="2"/>
<circle cx="280" cy="-216.18400649846154" fill="#3503ff" r="2"/>
<circle cx="282.22222222222223" cy="-217.89973897846153" fill="#3503ff" r="2"/>
<circle cx="284.44444444444446" cy="-219.61547145846154" fill="#3503ff" r="2"/>
<circle cx="286.6666666666667" cy="-221.33120393846153" fill="#3503ff" r="2"/>
<circle cx="288.8888888888889" cy="-223.04693641846154" fill="#3503ff" r="2"/>
<circle cx="291.1111111111111" cy="-224.76266889846153" fill="#3503ff" r="2"/>
<circle cx="293.3333333333333" cy="-226.47840137846154" fill="#3503ff" r="2"/>
<circle cx="295.55555555555554" cy="-228.19413385846153" fill="#3503ff" r="2"/>
<circle cx="297.77777777777777" cy="-229.90986633846154" fill="#3503ff" r="2"/>
<circle cx="300" cy="-231.62559881846153" fill="#3503ff" r="2"/>
<circle cx="302.22222222222223" cy="-233.34133129846154" fill="#3503ff" r="2"/>
<circle cx="304.44444444444446" cy="-235.05706377846153" fill="#3503ff" r="2"/>
<circle cx="306.6666666666667" cy="-236.77279625846154" fill="#3503ff" r="2"/>
<circle cx="308.8888888888889" cy="-238.48852873846153" fill="#3503ff" r="2"/>
<circle cx="311.1111111111111" cy="-240.20426121846154" fill="#3503ff" r="2"/>
<circle cx="313.3333333333333" cy="-241.91999369846152" fill="#3503ff" r="2"/>
<circle cx="315.55555555555554" cy="-243.63572617846154" fill="#3503ff" r="2"/>
<circle cx="317.77777777777777" cy="-245.35145865846152" fill="#3503ff" r="2"/>
<circle cx="320" cy="-247.06719113846154" fill="#3503ff" r="2"/>
<circle cx="322.22222222222223" cy="-248.78292361846155" fill="#3503ff" r="2"/>
<circle cx="324.44444444444446" cy="-250.49865609846154" fill="#3503ff" r="2"/>
<circle cx="326.6666666666667" cy="-252.21438857846155" fill="#3503ff" r="2"/>
<circle cx="328.8888888888889" cy="-253.93012105846154" fill="#3503ff" r="2"/>
<circle cx="331.1111111111111" cy="-255.64585353846155" fill="#3503ff" r="2"/>
<circle cx="333.3333333333333" cy="-257.36158601846154" fill="#3503ff" r="2"/>
<circle cx="335.55555555555554" cy="-259.0773184984615" fill="#3503ff" r="2"/>
<circle cx="337.77777777777777" cy="-260.79305097846157" fill="#3503ff" r="2"/>
<circle cx="340" cy="-262.50878345846155" fill="#3503ff" r="2"/>
<circle cx="342.22222222222223" cy="-264.22451593846154" fill="#3503ff" r="2"/>
<circle cx="344.44444444444446" cy="-265.9402484184615" fill="#3503ff" r="2"/>
<circle cx="346.6666666666667" cy="-267.65598089846156" fill="#3503ff" r="2"/>
<circle cx="348.8888888888889" cy="-269.37171337846155" fill="#3503ff" r="2"/>
<circle cx="351.1111111111111" cy="-271.08744585846154" fill="#3503ff" r="2"/>
<circle cx="353.3333333333333" cy="-272.8031783384615" fill="#3503ff" r="2"/>
<circle cx="355.55555555555554" cy="-274.51891081846156" fill="#3503ff" r="2"/>
<circle cx="357.77777777777777" cy="-276.23464329846155" fill="#3503ff" r="2"/>
<circle cx="360" cy="-277.95037577846153" fill="#3503ff" r="2"/>
<circle cx="362.22222222222223" cy="-279.6661082584615" fill="#3503ff" r="2"/>
<circle cx="364.44444444444446" cy="-281.38184073846156" fill="#3503ff" r="2"/>
<circle cx="366.6666666666667" cy="-283.09757321846155" fill="#3503ff" r="2"/>
<circle cx="368.8888888888889" cy="-284.81330569846153" fill="#3503ff" r="2"/>
<circle cx="371.1111111111111" cy="-286.5290381784615" fill="#3503ff" r="2"/>
<circle cx="373.3333333333333" cy="-288.24477065846156" fill="#3503ff" r="2"/>
<circle cx="375.55555555555554" cy="-289.96050313846155" fill="#3503ff" r="2"/>
<circle cx="377.77777777777777" cy="-291.67623561846153" fill="#3503ff" r="2"/>
<circle cx="380" cy="-293.3919680984615" fill="#3503ff" r="2"/>
<circle cx="382.22222222222223" cy="-295.10770057846156" fill="#3503ff" r="2"/>
<circle cx="384.44444444444446" cy="-296.82343305846155" fill="#3503ff" r="2"/>
<circle cx="386.6666666666667" cy="-298.53916553846153" fill="#3503ff" r="2"/>
<circle cx="388.8888888888889" cy="-300.2548980184615" fill="#3503ff" r="2"/>
<circle cx="391.1111111111111" cy="-301.97063049846156" fill="#3503ff" r="2"/>
<circle cx="393.3333333333333" cy="-303.68636297846155" fill="#3503ff" r="2"/>
<circle cx="395.55555555555554" cy="-305.40209545846153" fill="#3503ff" r="2"/>
<circle cx="397.77777777777777" cy="-307.1178279384615" fill="#3503ff" r="2"/>
<circle cx="400" cy="-308.83356041846156" fill="#3503ff" r="2"/>
<circle cx="402.22222222222223" cy="-310.54929289846154" fill="#3503ff" r="2"/>
<circle cx="404.44444444444446" cy="-312.26502537846153" fill="#3503ff" r="2"/>
<circle cx="406.6666666666667" cy="-313.9807578584615" fill="#3503ff" r="2"/>
<circle cx="408.8888888888889" cy="-315.69649033846156" fill="#3503ff" r="2"/>
<circle cx="411.1111111111111" cy="-317.41222281846154" fill="#3503ff" r="2"/>
<circle cx="413.3333333333333" cy="-319.12795529846153" fill="#3503ff" r="2"/>
<circle cx="415.55555555555554" cy="-320.8436877784615" fill="#3503ff" r="2"/>
<circle cx="417.77777777777777" cy="-322.55942025846156" fill="#3503ff" r="2"/>
<circle cx="420" cy="-324.27515273846154" fill="#3503ff" r="2"/>
<circle cx="422.22222222222223" cy="-325.99088521846153" fill="#3503ff" r="2"/>
<circle cx="424.44444444444446" cy="-327.7066176984615" fill="#3503ff" r="2"/>
<circle cx="426.6666666666667" cy="-329.42235017846156" fill="#3503ff" r="2"/>
<circle cx="428.8888888888889" cy="-331.13808265846154" fill="#3503ff" r="2"/>
<circle cx="431.1111111111111" cy="-332.8538151384615" fill="#3503ff" r="2"/>
<circle cx="433.3333333333333" cy="-334.5695476184615" fill="#3503ff" r="2"/>
<circle cx="435.55555555555554" cy="-336.28528009846156" fill="#3503ff" r="2"/>
<circle cx="437.77777777777777" cy="-338.00101257846154" fill="#3503ff" r="2"/>
<circle cx="440" cy="-339.7167450584615" fill="#3503ff" r="2"/>
<circle cx="442.22222222222223" cy="-341.08967384615386" fill="#3503ff" r="2"/>
</g>
<g>
<circle cx="0" cy="-0.0017174516473815774" fill="#000000" r="2"/>
<circle cx="2.2222222222222223" cy="-1.7174516473815775" fill="#000000" r="2"/>
<circle cx="4.444444444444445" cy="-3.433185843115773" fill="#000000" r="2"/>
<circle cx="6.666666666666667" cy="-5.148920038849969" fill="#000000" r="2"/>
<circle cx="8.88888888888889" cy="-6.864654234584164" fill="#000000" r="2"/>
<circle cx="11.11111111111111" cy="-8.58038843031836" fill="#000000" r="2"/>
<circle cx="13.333333333333334" cy="-10.296122626052556" fill="#000000" r="2"/>
<circle cx="15.555555555555555" cy="-12.011856821786752" fill="#000000" r="2"/>
<circle cx="17.77777777777778" cy="-13.727591017520947" fill="#000000" r="2"/>
<circle cx="20" cy="-15.443325213255143" fill="#000000" r="2"/>
<circle cx="22.22222222222222" cy="-17.15905940898934" fill="#000000" r="2"/>
<circle cx="24.444444444444443" cy="-18.874793604723536" fill="#000000" r="2"/>
<circle cx="26.666666666666668" cy="-20.590527800457732" fill="#000000" r="2"/>
<circle cx="28.88888888888889" cy="-22.306261996191928" fill="#000000" r="2"/>
<circle cx="31.11111111111111" cy="-24.02199619192612" fill="#000000" r="2"/>
<circle cx="33.333333333333336" cy="-25.737730387660317" fill="#000000" r="2"/>
<circle cx="35.55555555555556" cy="-27.453464583394513" fill="#000000" r="2"/>
<circle cx="37.77777777777778" cy="-29.169198779128713" fill="#000000" r="2"/>
<circle cx="40" cy="-30.884932974862906" fill="#000000" r="2"/>
<circle cx="42.22222222222222" cy="-32.6006671705971" fill="#000000" r="2"/>
<circle cx="44.44444444444444" cy="-34.3164013663313" fill="#000000" r="2"/>
<circle cx="46.666666666666664" cy="-36.0321355620655" fill="#000000" r="2"/>
<circle cx="48.888888888888886" cy="-37.74786975779969" fill="#000000" r="2"/>
<circle cx="51.111111111111114" cy="-39.463603953533884" fill="#000000" r="2"/>
<circle cx="53.333333333333336" cy="-41.179338149268084" fill="#000000" r="2"/>
<circle cx="55.55555555555556" cy="-42.89507234500228" fill="#000000" r="2"/>
<circle cx="57.77777777777778" cy="-44.61080654073647" fill="#000000" r="2"/>
<circle cx="60" cy="-46.32654073647067" fill="#000000" r="2"/>
<circle cx="62.22222222222222" cy="-48.04227493220486" fill="#000000" r="2"/>
<circle cx="64.44444444444444" cy="-49.75800912793906" fill="#000000" r="2"/>
<circle cx="66.66666666666667" cy="-51.473743323673254" fill="#000000" r="2"/>
<circle cx="68.88888888888889" cy="-53.189477519407454" fill="#000000" r="2"/>
<circle cx="71.11111111111111" cy="-54.90521171514165" fill="#000000" r="2"/>
<circle cx="73.33333333333333" cy="-56.62094591087583" fill="#000000" r="2"/>
<circle cx="75.55555555555556" cy="-58.33668010661003" fill="#000000" r="2"/>
<circle cx="77.77777777777777" cy="-60.05241430234423" fill="#000000" r="2"/>
<circle cx="80" cy="-61.768148498078425" fill="#000000" r="2"/>
<circle cx="82.22222222222223" cy="-63.483882693812625" fill="#000000" r="2"/>
<circle cx="84.44444444444444" cy="-65.19961688954682" fill="#000000" r="2"/>
<circle cx="86.66666666666667" cy="-66.91535108528102" fill="#000000" r="2"/>
<circle cx="88.88888888888889" cy="-68.6310852810152" fill="#000000" r="2"/>
<circle cx="91.11111111111111" cy="-70.3468194767494" fill="#000000" r="2"/>
<circle cx="93.33333333333333" cy="-72.0625536724836" fill="#000000" r="2"/>
<circle cx="95.55555555555556" cy="-73.77828786821779" fill="#000000" r="2"/>
<circle cx="97.77777777777777" cy="-75.49402206395199" fill="#000000" r="2"/>
<circle cx="100" cy="-77.20975625968619" fill="#000000" r="2"/>
<circle cx="102.22222222222223" cy="-78.92549045542039" fill="#000000" r="2"/>
<circle cx="104.44444444444444" cy="-80.64122465115457" fill="#000000" r="2"/>
<circle cx="106.66666666666667" cy="-82.35695884688877" fill="#000000" r="2"/>
<circle cx="108.88888888888889" cy="-84.07269304262297" fill="#000000" r="2"/>
<circle cx="111.11111111111111" cy="-85.78842723835716" fill="#000000" r="2"/>
<circle cx="113.33333333333333" cy="-87.50416143409136" fill="#000000" r="2"/>
<circle cx="115.55555555555556" cy="-89.21989562982556" fill="#000000" r="2"/>
<circle cx="117.77777777777777" cy="-90.93562982555976" fill="#000000" r="2"/>
<circle cx="120" cy="-92.65136402129394" fill="#000000" r="2"/>
<circle cx="122.22222222222223" cy="-94.36709821702816" fill="#000000" r="2"/>
<circle cx="124.44444444444444" cy="-96.08283241276234" fill="#000000" r="2"/>
<circle cx="126.66666666666667" cy="-97.79856660849653" fill="#000000" r="2"/>
<circle cx="128.88888888888889" cy="-99.51430080423073" fill="#000000" r="2"/>
<circle cx="131.11111111111111" cy="-101.23003499996491" fill="#000000" r="2"/>
<circle cx="133.33333333333334" cy="-102.94576919569913" fill="#000000" r="2"/>
<circle cx="135.55555555555554" cy="-104.66150339143331" fill="#000000" r="2"/>
<circle cx="137.77777777777777" cy="-106.37723758716751" fill="#000000" r="2"/>
<circle cx="140" cy="-108.0929717829017" fill="#000000" r="2"/>
<circle cx="142.22222222222223" cy="-109.80870597863591" fill="#000000" r="2"/>
<circle cx="144.44444444444446" cy="-111.5244401743701" fill="#000000" r="2"/>
<circle cx="146.66666666666666" cy="-113.2401743701043" fill="#000000" r="2"/>
<circle cx="148.88888888888889" cy="-114.95590856583848" fill="#000000" r="2"/>
<circle cx="151.11111111111111" cy="-116.67164276157268" fill="#000000" r="2"/>
<circle cx="153.33333333333334" cy="-118.38737695730688" fill="#000000" r="2"/>
<circle cx="155.55555555555554" cy="-120.10311115304107" fill="#000000" r="2"/>
<circle cx="157.77777777777777" cy="-121.81884534877528" fill="#000000" r="2"/>
<circle cx="160" cy="-123.53457954450947" fill="#000000" r="2"/>
<circle cx="162.22222222222223" cy="-125.25031374024367" fill="#000000" r="2"/>
<circle cx="164.44444444444446" cy="-126.96604793597785" fill="#000000" r="2"/>
<circle cx="166.66666666666666" cy="-128.68178213171205" fill="#000000" r="2"/>
<circle cx="168.88888888888889" cy="-130.39751632744625" fill="#000000" r="2"/>
<circle cx="171.11111111111111" cy="-132.11325052318043" fill="#000000" r="2"/>
<circle cx="173.33333333333334" cy="-133.82898471891465" fill="#000000" r="2"/>
<circle cx="175.55555555555554" cy="-135.54471891464883" fill="#000000" r="2"/>
<circle cx="177.77777777777777" cy="-137.26045311038303" fill="#000000" r="2"/>
<circle cx="180" cy="-138.97618730611723" fill="#000000" r="2"/>
<circle cx="182.22222222222223" cy="-140.69192150185143" fill="#000000" r="2"/>
<circle cx="184.44444444444446" cy="-142.40765569758562" fill="#000000" r="2"/>
<circle cx="186.66666666666666" cy="-144.12338989331982" fill="#000000" r="2"/>
<circle cx="188.88888888888889" cy="-145.83912408905402" fill="#000000" r="2"/>
<circle cx="191.11111111111111" cy="-147.55485828478822" fill="#000000" r="2"/>
<circle cx="193.33333333333334" cy="-149.2705924805224" fill="#000000" r="2"/>
<circle cx="195.55555555555554" cy="-150.9863266762566" fill="#000000" r="2"/>
<circle cx="197.77777777777777" cy="-152.7020608719908" fill="#000000" r="2"/>
<circle cx="200" cy="-154.417795067725" fill="#000000" r="2"/>
<circle cx="202.22222222222223" cy="-156.1335292634592" fill="#000000" r="2"/>
<circle cx="204.44444444444446" cy="-157.84926345919337" fill="#000000" r="2"/>
<circle cx="206.66666666666666" cy="-159.5649976549276" fill="#000000" r="2"/>
<circle cx="208.88888888888889" cy="-161.28073185066177" fill="#000000" r="2"/>
<circle cx="211.11111111111111" cy="-162.99646604639597" fill="#000000" r="2"/>
<circle cx="213.33333333333334" cy="-164.71220024213017" fill="#000000" r="2"/>
<circle cx="215.55555555555554" cy="-166.42793443786437" fill="#000000" r="2"/>
<circle cx="217.77777777777777" cy="-168.14366863359857" fill="#000000" r="2"/>
<circle cx="220" cy="-169.85940282933274" fill="#000000" r="2"/>
<circle cx="222.22222222222223" cy="-171.57513702506694" fill="#000000" r="2"/>
<circle cx="224.44444444444446" cy="-173.29087122080117" fill="#000000" r="2"/>
<circle cx="226.66666666666666" cy="-175.00660541653534" fill="#000000" r="2"/>
<circle cx="228.88888888888889" cy="-176.72233961226954" fill="#000000" r="2"/>
<circle cx="231.11111111111111" cy="-178.4380738080037" fill="#000000" r="2"/>
<circle cx="233.33333333333334" cy="-180.15380800373794" fill="#000000" r="2"/>
<circle cx="235.55555555555554" cy="-181.86954219947214" fill="#000000" r="2"/>
<circle cx="237.77777777777777" cy="-183.5852763952063" fill="#000000" r="2"/>
<circle cx="240" cy="-185.3010105909405" fill="#000000" r="2"/>
<circle cx="242.22222222222223" cy="-187.01674478667474" fill="#000000" r="2"/>
<circle cx="244.44444444444446" cy="-188.7324789824089" fill="#000000" r="2"/>
<circle cx="246.66666666666666" cy="-190.4482131781431" fill="#000000" r="2"/>
<circle cx="248.88888888888889" cy="-192.16394737387728" fill="#000000" r="2"/>
<circle cx="251.11111111111111" cy="-193.87968156961148" fill="#000000" r="2"/>
<circle cx="253.33333333333334" cy="-195.5954157653457" fill="#000000" r="2"/>
<circle cx="255.55555555555554" cy="-197.31114996107988" fill="#000000" r="2"/>
<circle cx="257.77777777777777" cy="-199.02688415681408" fill="#000000" r="2"/>
<circle cx="260" cy="-200.74261835254828" fill="#000000" r="2"/>
<circle cx="262.22222222222223" cy="-202.45835254828248" fill="#000000" r="2"/>
<circle cx="264.44444444444446" cy="-204.17408674401668" fill="#000000" r="2"/>
<circle cx="266.6666666666667" cy="-205.88982093975088" fill="#000000" r="2"/>
<circle cx="268.8888888888889" cy="-207.60555513548505" fill="#000000" r="2"/>
<circle cx="271.1111111111111" cy="-209.32128933121925" fill="#000000" r="2"/>
<circle cx="273.3333333333333" cy="-211.03702352695348" fill="#000000" r="2"/>
<circle cx="275.55555555555554" cy="-212.75275772268765" fill="#000000" r="2"/>
<circle cx="277.77777777777777" cy="-214.46849191842185" fill="#000000" r="2"/>
<circle cx="280" cy="-216.18422611415602" fill="#000000" r="2"/>
<circle cx="282.22222222222223" cy="-217.89996030989025" fill="#000000" r="2"/>
<circle cx="284.44444444444446" cy="-219.61569450562445" fill="#000000" r="2"/>
<circle cx="286.6666666666667" cy="-221.33142870135862" fill="#000000" r="2"/>
<circle cx="288.8888888888889" cy="-223.04716289709282" fill="#000000" r="2"/>
<circle cx="291.1111111111111" cy="-224.762897092827" fill="#000000" r="2"/>
<circle cx="293.3333333333333" cy="-226.47863128856122" fill="#000000" r="2"/>
<circle cx="295.55555555555554" cy="-228.19436548429542" fill="#000000" r="2"/>
<circle cx="297.77777777777777" cy="-229.91009968002965" fill="#000000" r="2"/>
<circle cx="300" cy="-231.6258338757638" fill="#000000" r="2"/>
<circle cx="302.22222222222223" cy="-233.34156807149802" fill="#000000" r="2"/>
<circle cx="304.44444444444446" cy="-235.0573022672322" fill="#000000" r="2"/>
<circle cx="306.6666666666667" cy="-236.77303646296642" fill="#000000" r="2"/>
<circle cx="308.8888888888889" cy="-238.48877065870056" fill="#000000" r="2"/>
<circle cx="311.1111111111111" cy="-240.2045048544348" fill="#000000" r="2"/>
<circle cx="313.3333333333333" cy="-241.920239050169" fill="#000000" r="2"/>
<circle cx="315.55555555555554" cy="-243.63597324590322" fill="#000000" r="2"/>
<circle cx="317.77777777777777" cy="-245.35170744163736" fill="#000000" r="2"/>
<circle cx="320" cy="-247.0674416373716" fill="#000000" r="2"/>
<circle cx="322.22222222222223" cy="-248.78317583310576" fill="#000000" r="2"/>
<circle cx="324.44444444444446" cy="-250.49891002884" fill="#000000" r="2"/>
<circle cx="326.6666666666667" cy="-252.21464422457413" fill="#000000" r="2"/>
<circle cx="328.8888888888889" cy="-253.93037842030836" fill="#000000" r="2"/>
<circle cx="331.1111111111111" cy="-255.64611261604256" fill="#000000" r="2"/>
<circle cx="333.3333333333333" cy="-257.36184681177673" fill="#000000" r="2"/>
<circle cx="335.55555555555554" cy="-259.07758100751096" fill="#000000" r="2"/>
<circle cx="337.77777777777777" cy="-260.79331520324513" fill="#000000" r="2"/>
<circle cx="340" cy="-262.5090493989793" fill="#000000" r="2"/>
<circle cx="342.22222222222223" cy="-264.22478359471353" fill="#000000" r="2"/>
<circle cx="344.44444444444446" cy="-265.9405177904477" fill="#000000" r="2"/>
<circle cx="346.6666666666667" cy="-267.6562519861819" fill="#000000" r="2"/>
<circle cx="348.8888888888889" cy="-269.3719861819161" fill="#000000" r="2"/>
<circle cx="351.1111111111111" cy="-271.0877203776503" fill="#000000" r="2"/>
<circle cx="353.3333333333333" cy="-272.8034545733845" fill="#000000" r="2"/>
<circle cx="355.55555555555554" cy="-274.5191887691187" fill="#000000" r="2"/>
<circle cx="357.77777777777777" cy="-276.2349229648529" fill="#000000" r="2"/>
<circle cx="360" cy="-277.9506571605871" fill="#000000" r="2"/>
<circle cx="362.22222222222223" cy="-279.6663913563213" fill="#000000" r="2"/>
<circle cx="364.44444444444446" cy="-281.3821255520555" fill="#000000" r="2"/>
<circle cx="366.6666666666667" cy="-283.09785974778964" fill="#000000" r="2"/>
<circle cx="368.8888888888889" cy="-284.81359394352387" fill="#000000" r="2"/>
<circle cx="371.1111111111111" cy="-286.5293281392581" fill="#000000" r="2"/>
<circle cx="373.3333333333333" cy="-288.2450623349923" fill="#000000" r="2"/>
<circle cx="375.55555555555554" cy="-289.96079653072644" fill="#000000" r="2"/>
<circle cx="377.77777777777777" cy="-291.67653072646067" fill="#000000" r="2"/>
<circle cx="380" cy="-293.39226492219484" fill="#000000" r="2"/>
<circle cx="382.22222222222223" cy="-295.10799911792907" fill="#000000" r="2"/>
<circle cx="384.44444444444446" cy="-296.82373331366324" fill="#000000" r="2"/>
<circle cx="386.6666666666667" cy="-298.53946750939747" fill="#000000" r="2"/>
<circle cx="388.8888888888889" cy="-300.2552017051316" fill="#000000" r="2"/>
<circle cx="391.1111111111111" cy="-301.9709359008658" fill="#000000" r="2"/>
<circle cx="393.3333333333333" cy="-303.68667009660004" fill="#000000" r="2"/>
<circle cx="395.55555555555554" cy="-305.40240429233427" fill="#000000" r="2"/>
<circle cx="397.77777777777777" cy="-307.1181384880684" fill="#000000" r="2"/>
<circle cx="400" cy="-308.8338726838026" fill="#000000" r="2"/>
<circle cx="402.22222222222223" cy="-310.5496068795368" fill="#000000" r="2"/>
<circle cx="404.44444444444446" cy="-312.265341075271" fill="#000000" r="2"/>
<circle cx="406.6666666666667" cy="-313.9810752710052" fill="#000000" r="2"/>
<circle cx="408.8888888888889" cy="-315.6968094667394" fill="#000000" r="2"/>
<circle cx="411.1111111111111" cy="-317.4125436624736" fill="#000000" r="2"/>
<circle cx="413.3333333333333" cy="-319.1282778582078" fill="#000000" r="2"/>
<circle cx="415.55555555555554" cy="-320.844012053942" fill="#000000" r="2"/>
<circle cx="417.77777777777777" cy="-322.5597462496762" fill="#000000" r="2"/>
<circle cx="420" cy="-324.2754804454104" fill="#000000" r="2"/>
<circle cx="422.22222222222223" cy="-325.9912146411446" fill="#000000" r="2"/>
<circle cx="424.44444444444446" cy="-327.7069488368788" fill="#000000" r="2"/>
<circle cx="426.6666666666667" cy="-329.422683032613" fill="#000000" r="2"/>
<circle cx="428.8888888888889" cy="-331.1384172283472" fill="#000000" r="2"/>
<circle cx="431.1111111111111" cy="-332.85415142408135" fill="#000000" r="2"/>
<circle cx="433.3333333333333" cy="-334.5698856198152" fill="#000000" r="2"/>
<circle cx="435.55555555555554" cy="-336.28561981520664" fill="#000000" r="2"/>
<circle cx="437.77777777777777" cy="-338.0013536681354" fill="#000000" r="2"/>
<circle cx="440" cy="-339.7167450584615" fill="#000000" r="2"/>
<circle cx="442.22222222222223" cy="-341.08967384615386" fill="#000000" r="2"/>
</g>
<g>
<circle cx="0" cy="0" fill="#008711" r="2"/>
<circle cx="2.2222222222222223" cy="-1.7140184615384615" fill="#008711" r="2"/>
<circle cx="4.444444444444445" cy="-3.428036923076923" fill="#008711" r="2"/>
<circle cx="6.666666666666667" cy="-5.142055384615385" fill="#008711" r="2"/>
<circle cx="8.88888888888889" cy="-6.856073846153846" fill="#008711" r="2"/>
<circle cx="11.11111111111111" cy="-8.570092307692308" fill="#008711" r="2"/>
<circle cx="13.333333333333334" cy="-10.28411076923077" fill="#008711" r="2"/>
<circle cx="15.555555555555555" cy="-11.99812923076923" fill="#008711" r="2"/>
<circle cx="17.77777777777778" cy="-13.712147692307692" fill="#008711" r="2"/>
<circle cx="20" cy="-15.426166153846154" fill="#008711" r="2"/>
<circle cx="22.22222222222222" cy="-17.140184615384616" fill="#008711" r="2"/>
<circle cx="24.444444444444443" cy="-18.854203076923078" fill="#008711" r="2"/>
<circle cx="26.666666666666668" cy="-20.56822153846154" fill="#008711" r="2"/>
<circle cx="28.88888888888889" cy="-22.28224" fill="#008711" r="2"/>
<circle cx="31.11111111111111" cy="-23.99625846153846" fill="#008711" r="2"/>
<circle cx="33.333333333333336" cy="-25.710276923076922" fill="#008711" r="2"/>
<circle cx="35.55555555555556" cy="-27.424295384615384" fill="#008711" r="2"/>
<circle cx="37.77777777777778" cy="-29.138313846153846" fill="#008711" r="2"/>
<circle cx="40" cy="-30.852332307692308" fill="#008711" r="2"/>
<circle cx="42.22222222222222" cy="-32.566350769230766" fill="#008711" r="2"/>
<circle cx="44.44444444444444" cy="-34.28036923076923" fill="#008711" r="2"/>
<circle cx="46.666666666666664" cy="-35.99438769230769" fill="#008711" r="2"/>
<circle cx="48.888888888888886" cy="-37.708406153846155" fill="#008711" r="2"/>
<circle cx="51.111111111111114" cy="-39.422424615384614" fill="#008711" r="2"/>
<circle cx="53.333333333333336" cy="-41.13644307692308" fill="#008711" r="2"/>
<circle cx="55.55555555555556" cy="-42.85046153846154" fill="#008711" r="2"/>
<circle cx="57.77777777777778" cy="-44.56448" fill="#008711" r="2"/>
<circle cx="60" cy="-46.27849846153846" fill="#008711" r="2"/>
<circle cx="62.22222222222222" cy="-47.99251692307692" fill="#008711" r="2"/>
<circle cx="64.44444444444444" cy="-49.706535384615385" fill="#008711" r="2"/>
<circle cx="66.66666666666667" cy="-51.420553846153844" fill="#008711" r="2"/>
<circle cx="68.88888888888889" cy="-53.13457230769231" fill="#008711" r="2"/>
<circle cx="71.11111111111111" cy="-54.84859076923077" fill="#008711" r="2"/>
<circle cx="73.33333333333333" cy="-56.56260923076923" fill="#008711" r="2"/>
<circle cx="75.55555555555556" cy="-58.27662769230769" fill="#008711" r="2"/>
<circle cx="77.77777777777777" cy="-59.99064615384616" fill="#008711" r="2"/>
<circle cx="80" cy="-61.704664615384615" fill="#008711" r="2"/>
<circle cx="82.22222222222223" cy="-63.418683076923074" fill="#008711" r="2"/>
<circle cx="84.44444444444444" cy="-65.13270153846153" fill="#008711" r="2"/>
<circle cx="86.66666666666667" cy="-66.84672" fill="#008711" r="2"/>
<circle cx="88.88888888888889" cy="-68.56073846153846" fill="#008711" r="2"/>
<circle cx="91.11111111111111" cy="-70.27475692307692" fill="#008711" r="2"/>
<circle cx="93.33333333333333" cy="-71.98877538461538" fill="#008711" r="2"/>
<circle cx="95.55555555555556" cy="-73.70279384615385" fill="#008711" r="2"/>
<circle cx="97.77777777777777" cy="-75.41681230769231" fill="#008711" r="2"/>
<circle cx="100" cy="-77.13083076923077" fill="#008711" r="2"/>
<circle cx="102.22222222222223" cy="-78.84484923076923" fill="#008711" r="2"/>
<circle cx="104.44444444444444" cy="-80.55886769230769" fill="#008711" r="2"/>
<circle cx="106.66666666666667" cy="-82.27288615384616" fill="#008711" r="2"/>
<circle cx="108.88888888888889" cy="-83.98690461538462" fill="#008711" r="2"/>
<circle cx="111.11111111111111" cy="-85.70092307692308" fill="#008711" r="2"/>
<circle cx="113.33333333333333" cy="-87.41494153846153" fill="#008711" r="2"/>
<circle cx="115.55555555555556" cy="-89.12896" fill="#008711" r="2"/>
<circle cx="117.77777777777777" cy="-90.84297846153846" fill="#008711" r="2"/>
<circle cx="120" cy="-92.55699692307692" fill="#008711" r="2"/>
<circle cx="122.22222222222223" cy="-94.27101538461538" fill="#008711" r="2"/>
<circle cx="124.44444444444444" cy="-95.98503384615384" fill="#008711" r="2"/>
<circle cx="126.66666666666667" cy="-97.69905230769231" fill="#008711" r="2"/>
<circle cx="128.88888888888889" cy="-99.41307076923077" fill="#008711" r="2"/>
<circle cx="131.11111111111111" cy="-101.12708923076923" fill="#008711" r="2"/>
<circle cx="133.33333333333334" cy="-102.84110769230769" fill="#008711" r="2"/>
<circle cx="135.55555555555554" cy="-104.55512615384616" fill="#008711" r="2"/>
<circle cx="137.77777777777777" cy="-106.26914461538462" fill="#008711" r="2"/>
<circle cx="140" cy="-107.98316307692308" fill="#008711" r="2"/>
<circle cx="142.22222222222223" cy="-109.69718153846154" fill="#008711" r="2"/>
<circle cx="144.44444444444446" cy="-111.4112" fill="#008711" r="2"/>
<circle cx="146.66666666666666" cy="-113.12521846153847" fill="#008711" r="2"/>
<circle cx="148.88888888888889" cy="-114.83923692307692" fill="#008711" r="2"/>
<circle cx="151.11111111111111" cy="-116.55325538461538" fill="#008711" r="2"/>
<circle cx="153.33333333333334" cy="-118.26727384615384" fill="#008711" r="2"/>
<circle cx="155.55555555555554" cy="-119.98129230769231" fill="#008711" r="2"/>
<circle cx="157.77777777777777" cy="-121.69531076923077" fill="#008711" r="2"/>
<circle cx="160" cy="-123.40932923076923" fill="#008711" r="2"/>
<circle cx="162.22222222222223" cy="-125.12334769230769" fill="#008711" r="2"/>
<circle cx="164.44444444444446" cy="-126.83736615384615" fill="#008711" r="2"/>
<circle cx="166.66666666666666" cy="-128.55138461538462" fill="#008711" r="2"/>
<circle cx="168.88888888888889" cy="-130.26540307692306" fill="#008711" r="2"/>
<circle cx="171.11111111111111" cy="-131.97942153846154" fill="#008711" r="2"/>
<circle cx="173.33333333333334" cy="-133.69344" fill="#008711" r="2"/>
<circle cx="175.55555555555554" cy="-135.40745846153845" fill="#008711" r="2"/>
<circle cx="177.77777777777777" cy="-137.12147692307693" fill="#008711" r="2"/>
<circle cx="180" cy="-138.83549538461537" fill="#008711" r="2"/>
<circle cx="182.22222222222223" cy="-140.54951384615384" fill="#008711" r="2"/>
<circle cx="184.44444444444446" cy="-142.26353230769232" fill="#008711" r="2"/>
<circle cx="186.66666666666666" cy="-143.97755076923076" fill="#008711" r="2"/>
<circle cx="188.88888888888889" cy="-145.69156923076923" fill="#008711" r="2"/>
<circle cx="191.11111111111111" cy="-147.4055876923077" fill="#008711" r="2"/>
<circle cx="193.33333333333334" cy="-149.11960615384615" fill="#008711" r="2"/>
<circle cx="195.55555555555554" cy="-150.83362461538462" fill="#008711" r="2"/>
<circle cx="197.77777777777777" cy="-152.54764307692307" fill="#008711" r="2"/>
<circle cx="200" cy="-154.26166153846154" fill="#008711" r="2"/>
<circle cx="202.22222222222223" cy="-155.97568" fill="#008711" r="2"/>
<circle cx="204.44444444444446" cy="-157.68969846153846" fill="#008711" r="2"/>
<circle cx="206.66666666666666" cy="-159.40371692307693" fill="#008711" r="2"/>
<circle cx="208.88888888888889" cy="-161.11773538461537" fill="#008711" r="2"/>
<circle cx="211.11111111111111" cy="-162.83175384615384" fill="#008711" r="2"/>
<circle cx="213.33333333333334" cy="-164.54577230769232" fill="#008711" r="2"/>
<circle cx="215.55555555555554" cy="-166.25979076923076" fill="#008711" r="2"/>
<circle cx="217.77777777777777" cy="-167.97380923076923" fill="#008711" r="2"/>
<circle cx="220" cy="-169.68782769230768" fill="#008711" r="2"/>
<circle cx="222.22222222222223" cy="-171.40184615384615" fill="#008711" r="2"/>
<circle cx="224.44444444444446" cy="-173.11586461538462" fill="#008711" r="2"/>
<circle cx="226.66666666666666" cy="-174.82988307692307" fill="#008711" r="2"/>
<circle cx="228.88888888888889" cy="-176.54390153846154" fill="#008711" r="2"/>
<circle cx="231.11111111111111" cy="-178.25792" fill="#008711" r="2"/>
<circle cx="233.33333333333334" cy="-179.97193846153846" fill="#008711" r="2"/>
<circle cx="235.55555555555554" cy="-181.68595692307693" fill="#008711" r="2"/>
<circle cx="237.77777777777777" cy="-183.39997538461537" fill="#008711" r="2"/>
<circle cx="240" cy="-185.11399384615385" fill="#008711" r="2"/>
<circle cx="242.22222222222223" cy="-186.82801230769232" fill="#008711" r="2"/>
<circle cx="244.44444444444446" cy="-188.54203076923076" fill="#008711" r="2"/>
<circle cx="246.66666666666666" cy="-190.25604923076924" fill="#008711" r="2"/>
<circle cx="248.88888888888889" cy="-191.97006769230768" fill="#008711" r="2"/>
<circle cx="251.11111111111111" cy="-193.68408615384615" fill="#008711" r="2"/>
<circle cx="253.33333333333334" cy="-195.39810461538463" fill="#008711" r="2"/>
<circle cx="255.55555555555554" cy="-197.11212307692307" fill="#008711" r="2"/>
<circle cx="257.77777777777777" cy="-198.82614153846154" fill="#008711" r="2"/>
<circle cx="260" cy="-200.54016" fill="#008711" r="2"/>
<circle cx="262.22222222222223" cy="-202.25417846153846" fill="#008711" r="2"/>
<circle cx="264.44444444444446" cy="-203.96819692307693" fill="#008711" r="2"/>
<circle cx="266.6666666666667" cy="-205.68221538461538" fill="#008711" r="2"/>
<circle cx="268.8888888888889" cy="-207.39623384615385" fill="#008711" r="2"/>
<circle cx="271.1111111111111" cy="-209.11025230769232" fill="#008711" r="2"/>
<circle cx="273.3333333333333" cy="-210.82427076923076" fill="#008711" r="2"/>
<circle cx="275.55555555555554" cy="-212.53828923076924" fill="#008711" r="2"/>
<circle cx="277.77777777777777" cy="-214.25230769230768" fill="#008711" r="2"/>
<circle cx="280" cy="-215.96632615384615" fill="#008711" r="2"/>
<circle cx="282.22222222222223" cy="-217.68034461538463" fill="#008711" r="2"/>
<circle cx="284.44444444444446" cy="-219.39436307692307" fill="#008711" r="2"/>
<circle cx="286.6666666666667" cy="-221.10838153846154" fill="#008711" r="2"/>
<circle cx="288.8888888888889" cy="-222.8224" fill="#008711" r="2"/>
<circle cx="291.1111111111111" cy="-224.53641846153846" fill="#008711" r="2"/>
<circle cx="293.3333333333333" cy="-226.25043692307693" fill="#008711" r="2"/>
<circle cx="295.55555555555554" cy="-227.96445538461538" fill="#008711" r="2"/>
<circle cx="297.77777777777777" cy="-229.67847384615385" fill="#008711" r="2"/>
<circle cx="300" cy="-231.3924923076923" fill="#008711" r="2"/>
<circle cx="302.22222222222223" cy="-233.10651076923077" fill="#008711" r="2"/>
<circle cx="304.44444444444446" cy="-234.82052923076924" fill="#008711" r="2"/>
<circle cx="306.6666666666667" cy="-236.53454769230768" fill="#008711" r="2"/>
<circle cx="308.8888888888889" cy="-238.24856615384616" fill="#008711" r="2"/>
<circle cx="311.1111111111111" cy="-239.96258461538463" fill="#008711" r="2"/>
<circle cx="313.3333333333333" cy="-241.67660307692307" fill="#008711" r="2"/>
<circle cx="315.55555555555554" cy="-243.39062153846155" fill="#008711" r="2"/>
<circle cx="317.77777777777777" cy="-245.10464" fill="#008711" r="2"/>
<circle cx="320" cy="-246.81865846153846" fill="#008711" r="2"/>
<circle cx="322.22222222222223" cy="-248.53267692307693" fill="#008711" r="2"/>
<circle cx="324.44444444444446" cy="-250.24669538461538" fill="#008711" r="2"/>
<circle cx="326.6666666666667" cy="-251.96071384615385" fill="#008711" r="2"/>
<circle cx="328.8888888888889" cy="-253.6747323076923" fill="#008711" r="2"/>
<circle cx="331.1111111111111" cy="-255.38875076923077" fill="#008711" r="2"/>
<circle cx="333.3333333333333" cy="-257.10276923076924" fill="#008711" r="2"/>
<circle cx="335.55555555555554" cy="-258.8167876923077" fill="#008711" r="2"/>
<circle cx="337.77777777777777" cy="-260.53080615384613" fill="#008711" r="2"/>
<circle cx="340" cy="-262.24482461538463" fill="#008711" r="2"/>
<circle cx="342.22222222222223" cy="-263.9588430769231" fill="#008711" r="2"/>
<circle cx="344.44444444444446" cy="-265.6728615384615" fill="#008711" r="2"/>
<circle cx="346.6666666666667" cy="-267.38688" fill="#008711" r="2"/>
<circle cx="348.8888888888889" cy="-269.10089846153846" fill="#008711" r="2"/>
<circle cx="351.1111111111111" cy="-270.8149169230769" fill="#008711" r="2"/>
<circle cx="353.3333333333333" cy="-272.5289353846154" fill="#008711" r="2"/>
<circle cx="355.55555555555554" cy="-274.24295384615385" fill="#008711" r="2"/>
<circle cx="357.77777777777777" cy="-275.9569723076923" fill="#008711" r="2"/>
<circle cx="360" cy="-277.67099076923074" fill="#008711" r="2"/>
<circle cx="362.22222222222223" cy="-279.38500923076924" fill="#008711" r="2"/>
<circle cx="364.44444444444446" cy="-281.0990276923077" fill="#008711" r="2"/>
<circle cx="366.6666666666667" cy="-282.81304615384613" fill="#008711" r="2"/>
<circle cx="368.8888888888889" cy="-284.52706461538463" fill="#008711" r="2"/>
<circle cx="371.1111111111111" cy="-286.2410830769231" fill="#008711" r="2"/>
<circle cx="373.3333333333333" cy="-287.9551015384615" fill="#008711" r="2"/>
<circle cx="375.55555555555554" cy="-289.66912" fill="#008711" r="2"/>
<circle cx="377.77777777777777" cy="-291.38313846153846" fill="#008711" r="2"/>
<circle cx="380" cy="-293.0971569230769" fill="#008711" r="2"/>
<circle cx="382.22222222222223" cy="-294.8111753846154" fill="#008711" r="2"/>
<circle cx="384.44444444444446" cy="-296.52519384615385" fill="#008711" r="2"/>
<circle cx="386.6666666666667" cy="-298.2392123076923" fill="#008711" r="2"/>
<circle cx="388.8888888888889" cy="-299.95323076923074" fill="#008711" r="2"/>
<circle cx="391.1111111111111" cy="-301.66724923076924" fill="#008711" r="2"/>
<circle cx="393.3333333333333" cy="-303.3812676923077" fill="#008711" r="2"/>
<circle cx="395.55555555555554" cy="-305.09528615384613" fill="#008711" r="2"/>
<circle cx="397.77777777777777" cy="-306.80930461538463" fill="#008711" r="2"/>
<circle cx="400" cy="-308.5233230769231" fill="#008711" r="2"/>
<circle cx="402.22222222222223" cy="-310.2373415384615" fill="#008711" r="2"/>
<circle cx="404.44444444444446" cy="-311.95136" fill="#008711" r="2"/>
<circle cx="406.6666666666667" cy="-313.66537846153847" fill="#008711" r="2"/>
<circle cx="408.8888888888889" cy="-315.3793969230769" fill="#008711" r="2"/>
<circle cx="411.1111111111111" cy="-317.0934153846154" fill="#008711" r="2"/>
<circle cx="413.3333333333333" cy="-318.80743384615386" fill="#008711" r="2"/>
<circle cx="415.55555555555554" cy="-320.5214523076923" fill="#008711" r="2"/>
<circle cx="417.77777777777777" cy="-322.23547076923074" fill="#008711" r="2"/>
<circle cx="420" cy="-323.94948923076925" fill="#008711" r="2"/>
<circle cx="422.22222222222223" cy="-325.6635076923077" fill="#008711" r="2"/>
<circle cx="424.44444444444446" cy="-327.37752615384613" fill="#008711" r="2"/>
<circle cx="426.6666666666667" cy="-329.09154461538463" fill="#008711" r="2"/>
<circle cx="428.8888888888889" cy="-330.8055630769231" fill="#008711" r="2"/>
<circle cx="431.1111111111111" cy="-332.5195815384615" fill="#008711" r="2"/>
<circle cx="433.3333333333333" cy="-334.2336" fill="#008711" r="2"/>
<circle cx="435.55555555555554" cy="-335.94761846153847" fill="#008711" r="2"/>
<circle cx="437.77777777777777" cy="-337.6616369230769" fill="#008711" r="2"/>
<circle cx="440" cy="-339.37565538461536" fill="#008711" r="2"/>
<circle cx="442.22222222222223" cy="-341.08967384615386" fill="#008711" r="2"/>
</g>
<g>
<g>
<line stroke="black" stroke-width="1" x1="0" x2="0" y1="0" y2="10"/>
<line stroke="black" stroke-width="1" x1="88.88888888888889" x2="88.88888888888889" y1="0" y2="10"/>
<line stroke="black" stroke-width="1" x1="177.77777777777777" x2="177.77777777777777" y1="0" y2="10"/>
<line stroke="black" stroke-width="1" x1="266.6666666666667" x2="266.6666666666667" y1="0" y2="10"/>
<line stroke="black" stroke-width="1" x1="355.55555555555554" x2="355.55555555555554" y1="0" y2="10"/>
<line stroke="black" stroke-width="1" x1="444.44444444444446" x2="444.44444444444446" y1="0" y2="10"/>
</g>
<line stroke="black" stroke-width="1" x1="0" x2="500" y1="0" y2="0"/>
<g>
<text font-size="12" text-anchor="middle" x="0" y="20">
0
</text>
<text font-size="12" text-anchor="middle" x="88.88888888888889" y="20">
40000
</text>
<text font-size="12" text-anchor="middle" x="177.77777777777777" y="20">
80000
</text>
<text font-size="12" text-anchor="middle" x="266.6666666666667" y="20">
120000
</text>
<text font-size="12" text-anchor="middle" x="355.55555555555554" y="20">
160000
</text>
<text font-size="12" text-anchor="middle" x="444.44444444444446" y="20">
200000
</text>
</g>
<text font-size="12" text-anchor="middle" x="250" y="30">
Gas Price
</text>
</g>
<g>
<g>
<line stroke="black" stroke-width="1" x1="0" x2="-10" y1="0" y2="0"/>
<line stroke="black" stroke-width="1" x1="0" x2="-10" y1="-104.61538461538461" y2="-104.61538461538461"/>
<line stroke="black" stroke-width="1" x1="0" x2="-10" y1="-209.23076923076923" y2="-209.23076923076923"/>
<line stroke="black" stroke-width="1" x1="0" x2="-10" y1="-313.84615384615387" y2="-313.84615384615387"/>
</g>
<line stroke="black" stroke-0="1" x1="0" x2="0" y1="0" y2="-340"/>
<g>
<text dominant-baseline="middle" font-size="12" text-anchor="end" x="-15" y="0">
0
</text>
<text dominant-baseline="middle" font-size="12" text-anchor="end" x="-15" y="-104.61538461538461">
2000000000
</text>
<text dominant-baseline="middle" font-size="12" text-anchor="end" x="-15" y="-209.23076923076923">
4000000000
</text>
<text dominant-baseline="middle" font-size="12" text-anchor="end" x="-15" y="-313.84615384615387">
6000000000
</text>
</g>
<text font-size="12" text-anchor="middle" transform="rotate(-90 -30 -170)" x="-30" y="-170">
Score
</text>
</g>
</g>
</svg>