<svg viewBox="0 0 600 400" xmlns="http://www.w3.org/2000/svg">
<g transform="translate(50, 360)">
<g>
<circle cx="0" cy="-17.591146666666667" fill="#000000" r="5"/>
<circle cx="2" cy="-17.683989333333333" fill="#000000" r="5"/>
<circle cx="4" cy="-17.683989333333333" fill="#000000" r="5"/>
<circle cx="6" cy="-17.776832" fill="#000000" r="5"/>
<circle cx="8" cy="-17.776832" fill="#000000" r="5"/>
<circle cx="10" cy="-17.86967466666667" fill="#000000" r="5"/>
<circle cx="12" cy="-17.86967466666667" fill="#000000" r="5"/>
<circle cx="14" cy="-17.962517333333334" fill="#000000" r="5"/>
<circle cx="16" cy="-17.962517333333334" fill="#000000" r="5"/>
<circle cx="18" cy="-18.05536" fill="#000000" r="5"/>
<circle cx="20" cy="-18.148202666666666" fill="#000000" r="5"/>
<circle cx="22" cy="-18.148202666666666" fill="#000000" r="5"/>
<circle cx="24" cy="-18.241045333333332" fill="#000000" r="5"/>
<circle cx="26" cy="-18.241045333333332" fill="#000000" r="5"/>
<circle cx="28" cy="-18.333888" fill="#000000" r="5"/>
<circle cx="30" cy="-18.426730666666668" fill="#000000" r="5"/>
<circle cx="32" cy="-18.426730666666668" fill="#000000" r="5"/>
<circle cx="34" cy="-18.519573333333334" fill="#000000" r="5"/>
<circle cx="36" cy="-18.612416" fill="#000000" r="5"/>
<circle cx="38" cy="-18.612416" fill="#000000" r="5"/>
<circle cx="40" cy="-18.705258666666666" fill="#000000" r="5"/>
<circle cx="42" cy="-18.705258666666666" fill="#000000" r="5"/>
<circle cx="44" cy="-18.798101333333335" fill="#000000" r="5"/>
<circle cx="46" cy="-18.890944" fill="#000000" r="5"/>
<circle cx="48" cy="-18.983786666666667" fill="#000000" r="5"/>
<circle cx="50" cy="-18.983786666666667" fill="#000000" r="5"/>
<circle cx="52" cy="-19.076629333333333" fill="#000000" r="5"/>
<circle cx="54" cy="-19.169472" fill="#000000" r="5"/>
<circle cx="56" cy="-19.169472" fill="#000000" r="5"/>
<circle cx="58" cy="-19.262314666666665" fill="#000000" r="5"/>
<circle cx="60" cy="-19.355157333333334" fill="#000000" r="5"/>
<circle cx="62" cy="-19.448" fill="#000000" r="5"/>
<circle cx="64" cy="-19.448" fill="#000000" r="5"/>
<circle cx="66" cy="-19.540842666666666" fill="#000000" r="5"/>
<circle cx="68" cy="-19.633685333333332" fill="#000000" r="5"/>
<circle cx="70" cy="-19.726528" fill="#000000" r="5"/>
<circle cx="72" cy="-19.726528" fill="#000000" r="5"/>
<circle cx="74" cy="-19.819370666666668" fill="#000000" r="5"/>
<circle cx="76" cy="-19.912213333333334" fill="#000000" r="5"/>
<circle cx="78" cy="-20.005056" fill="#000000" r="5"/>
<circle cx="80" cy="-20.097898666666666" fill="#000000" r="5"/>
<circle cx="82" cy="-20.097898666666666" fill="#000000" r="5"/>
<circle cx="84" cy="-20.19074133333333" fill="#000000" r="5"/>
<circle cx="86" cy="-20.283584" fill="#000000" r="5"/>
<circle cx="88" cy="-20.376426666666667" fill="#000000" r="5"/>
<circle cx="90" cy="-20.469269333333333" fill="#000000" r="5"/>
<circle cx="92" cy="-20.562112" fill="#000000" r="5"/>
<circle cx="94" cy="-20.654954666666665" fill="#000000" r="5"/>
<circle cx="96" cy="-20.747797333333335" fill="#000000" r="5"/>
<circle cx="98" cy="-20.84064" fill="#000000" r="5"/>
<circle cx="100" cy="-20.84064" fill="#000000" r="5"/>
<circle cx="102" cy="-20.933482666666666" fill="#000000" r="5"/>
<circle cx="104" cy="-21.026325333333332" fill="#000000" r="5"/>
<circle cx="106" cy="-21.119168" fill="#000000" r="5"/>
<circle cx="108" cy="-21.212010666666668" fill="#000000" r="5"/>
<circle cx="110" cy="-21.304853333333334" fill="#000000" r="5"/>
<circle cx="112" cy="-21.397696" fill="#000000" r="5"/>
<circle cx="114" cy="-21.490538666666666" fill="#000000" r="5"/>
<circle cx="116" cy="-21.58338133333333" fill="#000000" r="5"/>
<circle cx="118" cy="-21.769066666666667" fill="#000000" r="5"/>
<circle cx="120" cy="-21.861909333333333" fill="#000000" r="5"/>
<circle cx="122" cy="-21.954752" fill="#000000" r="5"/>
<circle cx="124" cy="-22.047594666666665" fill="#000000" r="5"/>
<circle cx="126" cy="-22.140437333333335" fill="#000000" r="5"/>
<circle cx="128" cy="-22.23328" fill="#000000" r="5"/>
<circle cx="130" cy="-22.326122666666667" fill="#000000" r="5"/>
<circle cx="132" cy="-22.418965333333333" fill="#000000" r="5"/>
<circle cx="134" cy="-22.604650666666668" fill="#000000" r="5"/>
<circle cx="136" cy="-22.697493333333334" fill="#000000" r="5"/>
<circle cx="138" cy="-22.790336" fill="#000000" r="5"/>
<circle cx="140" cy="-22.883178666666666" fill="#000000" r="5"/>
<circle cx="142" cy="-23.068864" fill="#000000" r="5"/>
<circle cx="144" cy="-23.161706666666667" fill="#000000" r="5"/>
<circle cx="146" cy="-23.254549333333333" fill="#000000" r="5"/>
<circle cx="148" cy="-23.440234666666665" fill="#000000" r="5"/>
<circle cx="150" cy="-23.533077333333335" fill="#000000" r="5"/>
<circle cx="152" cy="-23.62592" fill="#000000" r="5"/>
<circle cx="154" cy="-23.811605333333333" fill="#000000" r="5"/>
<circle cx="156" cy="-23.904448" fill="#000000" r="5"/>
<circle cx="158" cy="-24.090133333333334" fill="#000000" r="5"/>
<circle cx="160" cy="-24.182976" fill="#000000" r="5"/>
<circle cx="162" cy="-24.275818666666666" fill="#000000" r="5"/>
<circle cx="164" cy="-24.461504" fill="#000000" r="5"/>
<circle cx="166" cy="-24.647189333333333" fill="#000000" r="5"/>
<circle cx="168" cy="-24.740032" fill="#000000" r="5"/>
<circle cx="170" cy="-24.925717333333335" fill="#000000" r="5"/>
<circle cx="172" cy="-25.01856" fill="#000000" r="5"/>
<circle cx="174" cy="-25.204245333333333" fill="#000000" r="5"/>
<circle cx="176" cy="-25.389930666666668" fill="#000000" r="5"/>
<circle cx="178" cy="-25.482773333333334" fill="#000000" r="5"/>
<circle cx="180" cy="-25.668458666666666" fill="#000000" r="5"/>
<circle cx="182" cy="-25.854144" fill="#000000" r="5"/>
<circle cx="184" cy="-26.039829333333333" fill="#000000" r="5"/>
<circle cx="186" cy="-26.225514666666665" fill="#000000" r="5"/>
<circle cx="188" cy="-26.4112" fill="#000000" r="5"/>
<circle cx="190" cy="-26.504042666666667" fill="#000000" r="5"/>
<circle cx="192" cy="-26.689728" fill="#000000" r="5"/>
<circle cx="194" cy="-26.875413333333334" fill="#000000" r="5"/>
<circle cx="196" cy="-27.061098666666666" fill="#000000" r="5"/>
<circle cx="198" cy="-27.339626666666668" fill="#000000" r="5"/>
<circle cx="200" cy="-27.525312" fill="#000000" r="5"/>
<circle cx="202" cy="-27.710997333333335" fill="#000000" r="5"/>
<circle cx="204" cy="-27.896682666666667" fill="#000000" r="5"/>
<circle cx="206" cy="-28.082368" fill="#000000" r="5"/>
<circle cx="208" cy="-28.360896" fill="#000000" r="5"/>
<circle cx="210" cy="-28.546581333333332" fill="#000000" r="5"/>
<circle cx="212" cy="-28.732266666666668" fill="#000000" r="5"/>
<circle cx="214" cy="-29.010794666666666" fill="#000000" r="5"/>
<circle cx="216" cy="-29.19648" fill="#000000" r="5"/>
<circle cx="218" cy="-29.475008" fill="#000000" r="5"/>
<circle cx="220" cy="-29.660693333333334" fill="#000000" r="5"/>
<circle cx="222" cy="-29.939221333333332" fill="#000000" r="5"/>
<circle cx="224" cy="-30.217749333333334" fill="#000000" r="5"/>
<circle cx="226" cy="-30.49627733333333" fill="#000000" r="5"/>
<circle cx="228" cy="-30.774805333333333" fill="#000000" r="5"/>
<circle cx="230" cy="-31.053333333333335" fill="#000000" r="5"/>
<circle cx="232" cy="-31.331861333333332" fill="#000000" r="5"/>
<circle cx="234" cy="-31.610389333333334" fill="#000000" r="5"/>
<circle cx="236" cy="-31.888917333333332" fill="#000000" r="5"/>
<circle cx="238" cy="-32.16744533333333" fill="#000000" r="5"/>
<circle cx="240" cy="-32.445973333333335" fill="#000000" r="5"/>
<circle cx="242" cy="-32.817344" fill="#000000" r="5"/>
<circle cx="244" cy="-33.095872" fill="#000000" r="5"/>
<circle cx="246" cy="-33.467242666666664" fill="#000000" r="5"/>
<circle cx="248" cy="-33.838613333333335" fill="#000000" r="5"/>
<circle cx="250" cy="-34.117141333333336" fill="#000000" r="5"/>
<circle cx="252" cy="-34.488512" fill="#000000" r="5"/>
<circle cx="254" cy="-34.859882666666664" fill="#000000" r="5"/>
<circle cx="256" cy="-35.231253333333335" fill="#000000" r="5"/>
<circle cx="258" cy="-35.69546666666667" fill="#000000" r="5"/>
<circle cx="260" cy="-36.06683733333333" fill="#000000" r="5"/>
<circle cx="262" cy="-36.438208" fill="#000000" r="5"/>
<circle cx="264" cy="-36.902421333333336" fill="#000000" r="5"/>
<circle cx="266" cy="-37.36663466666667" fill="#000000" r="5"/>
<circle cx="268" cy="-37.830848" fill="#000000" r="5"/>
<circle cx="270" cy="-38.29506133333334" fill="#000000" r="5"/>
<circle cx="272" cy="-38.75927466666667" fill="#000000" r="5"/>
<circle cx="274" cy="-39.223488" fill="#000000" r="5"/>
<circle cx="276" cy="-39.780544" fill="#000000" r="5"/>
<circle cx="278" cy="-40.3376" fill="#000000" r="5"/>
<circle cx="280" cy="-40.801813333333335" fill="#000000" r="5"/>
<circle cx="282" cy="-41.451712" fill="#000000" r="5"/>
<circle cx="284" cy="-42.008768" fill="#000000" r="5"/>
<circle cx="286" cy="-42.65866666666667" fill="#000000" r="5"/>
<circle cx="288" cy="-43.215722666666665" fill="#000000" r="5"/>
<circle cx="290" cy="-43.86562133333333" fill="#000000" r="5"/>
<circle cx="292" cy="-44.608362666666665" fill="#000000" r="5"/>
<circle cx="294" cy="-45.25826133333333" fill="#000000" r="5"/>
<circle cx="296" cy="-46.001002666666665" fill="#000000" r="5"/>
<circle cx="298" cy="-46.83658666666667" fill="#000000" r="5"/>
<circle cx="300" cy="-47.579328" fill="#000000" r="5"/>
<circle cx="302" cy="-48.414912" fill="#000000" r="5"/>
<circle cx="304" cy="-49.250496" fill="#000000" r="5"/>
<circle cx="306" cy="-50.178922666666665" fill="#000000" r="5"/>
<circle cx="308" cy="-51.10734933333333" fill="#000000" r="5"/>
<circle cx="310" cy="-52.12861866666667" fill="#000000" r="5"/>
<circle cx="312" cy="-53.149888" fill="#000000" r="5"/>
<circle cx="314" cy="-54.264" fill="#000000" r="5"/>
<circle cx="316" cy="-55.378112" fill="#000000" r="5"/>
<circle cx="318" cy="-56.58506666666667" fill="#000000" r="5"/>
<circle cx="320" cy="-57.79202133333333" fill="#000000" r="5"/>
<circle cx="322" cy="-59.09181866666667" fill="#000000" r="5"/>
<circle cx="324" cy="-60.48445866666667" fill="#000000" r="5"/>
<circle cx="326" cy="-61.96994133333333" fill="#000000" r="5"/>
<circle cx="328" cy="-63.54826666666666" fill="#000000" r="5"/>
<circle cx="330" cy="-65.126592" fill="#000000" r="5"/>
<circle cx="332" cy="-66.89060266666667" fill="#000000" r="5"/>
<circle cx="334" cy="-68.747456" fill="#000000" r="5"/>
<circle cx="336" cy="-70.697152" fill="#000000" r="5"/>
<circle cx="338" cy="-72.83253333333333" fill="#000000" r="5"/>
<circle cx="340" cy="-75.06075733333333" fill="#000000" r="5"/>
<circle cx="342" cy="-77.47466666666666" fill="#000000" r="5"/>
<circle cx="344" cy="-79.98141866666667" fill="#000000" r="5"/>
<circle cx="346" cy="-82.76669866666667" fill="#000000" r="5"/>
<circle cx="348" cy="-85.83050666666666" fill="#000000" r="5"/>
<circle cx="350" cy="-89.08" fill="#000000" r="5"/>
<circle cx="352" cy="-92.60802133333334" fill="#000000" r="5"/>
<circle cx="354" cy="-96.41457066666666" fill="#000000" r="5"/>
<circle cx="356" cy="-100.68533333333333" fill="#000000" r="5"/>
<circle cx="358" cy="-105.32746666666667" fill="#000000" r="5"/>
<circle cx="360" cy="-110.43381333333333" fill="#000000" r="5"/>
<circle cx="362" cy="-116.097216" fill="#000000" r="5"/>
<circle cx="364" cy="-122.50336" fill="#000000" r="5"/>
<circle cx="366" cy="-129.65224533333333" fill="#000000" r="5"/>
<circle cx="368" cy="-137.8224" fill="#000000" r="5"/>
<circle cx="370" cy="-147.10666666666665" fill="#000000" r="5"/>
<circle cx="372" cy="-157.78357333333332" fill="#000000" r="5"/>
<circle cx="374" cy="-170.31733333333332" fill="#000000" r="5"/>
<circle cx="376" cy="-185.07931733333334" fill="#000000" r="5"/>
<circle cx="378" cy="-202.81226666666666" fill="#000000" r="5"/>
<circle cx="380" cy="-224.444608" fill="#000000" r="5"/>
<circle cx="382" cy="-251.55466666666666" fill="#000000" r="5"/>
<circle cx="384" cy="-286.3706666666667" fill="#000000" r="5"/>
<circle cx="386" cy="-332.792" fill="#000000" r="5"/>
<circle cx="388" cy="-397.78186666666664" fill="#000000" r="5"/>
<circle cx="390" cy="-495.26666666666665" fill="#000000" r="5"/>
<circle cx="392" cy="-657.7413333333334" fill="#000000" r="5"/>
<circle cx="394" cy="-982.6906666666666" fill="#000000" r="5"/>
<circle cx="396" cy="-1957.5386666666666" fill="#000000" r="5"/>
<circle cx="398" cy="85" fill="#000000" r="5"/>
</g>
<g>
<g>
<line stroke="black" stroke-width="1" x1="0" x2="0" y1="0" y2="10"/>
<line stroke="black" stroke-width="1" x1="100" x2="100" y1="0" y2="10"/>
<line stroke="black" stroke-width="1" x1="200" x2="200" y1="0" y2="10"/>
<line stroke="black" stroke-width="1" x1="300" x2="300" y1="0" y2="10"/>
<line stroke="black" stroke-width="1" x1="400" x2="400" y1="0" y2="10"/>
<line stroke="black" stroke-width="1" x1="500" x2="500" y1="0" y2="10"/>
</g>
<line stroke="black" stroke-width="1" x1="0" x2="500" y1="0" y2="0"/>
<g>
<text font-size="12" text-anchor="middle" x="0" y="20">
0
</text>
<text font-size="12" text-anchor="middle" x="100" y="20">
50000
</text>
<text font-size="12" text-anchor="middle" x="200" y="20">
100000
</text>
<text font-size="12" text-anchor="middle" x="300" y="20">
150000
</text>
<text font-size="12" text-anchor="middle" x="400" y="20">
200000
</text>
<text font-size="12" text-anchor="middle" x="500" y="20">
250000
</text>
</g>
<text font-size="12" text-anchor="middle" x="250" y="30">
Gas
</text>
</g>
<g>
<g>
<line stroke="black" stroke-width="1" x1="0" x2="-10" y1="-28.333333333333332" y2="-28.333333333333332"/>
<line stroke="black" stroke-width="1" x1="0" x2="-10" y1="-85" y2="-85"/>
<line stroke="black" stroke-width="1" x1="0" x2="-10" y1="-141.66666666666666" y2="-141.66666666666666"/>
<line stroke="black" stroke-width="1" x1="0" x2="-10" y1="-198.33333333333334" y2="-198.33333333333334"/>
<line stroke="black" stroke-width="1" x1="0" x2="-10" y1="-255" y2="-255"/>
<line stroke="black" stroke-width="1" x1="0" x2="-10" y1="-311.6666666666667" y2="-311.6666666666667"/>
</g>
<line stroke="black" stroke-0="1" x1="0" x2="0" y1="0" y2="-340"/>
<g>
<text dominant-baseline="middle" font-size="12" text-anchor="end" x="-15" y="-28.333333333333332">
40000000
</text>
<text dominant-baseline="middle" font-size="12" text-anchor="end" x="-15" y="-85">
60000000
</text>
<text dominant-baseline="middle" font-size="12" text-anchor="end" x="-15" y="-141.66666666666666">
80000000
</text>
<text dominant-baseline="middle" font-size="12" text-anchor="end" x="-15" y="-198.33333333333334">
100000000
</text>
<text dominant-baseline="middle" font-size="12" text-anchor="end" x="-15" y="-255">
120000000
</text>
<text dominant-baseline="middle" font-size="12" text-anchor="end" x="-15" y="-311.6666666666667">
140000000
</text>
</g>
<text font-size="12" text-anchor="middle" transform="rotate(-90 -30 -170)" x="-30" y="-170">
Score
</text>
</g>
</g>
</svg>