<svg viewBox="0 0 600 400" xmlns="http://www.w3.org/2000/svg">
<g transform="translate(50, 360)">
<g>
<circle cx="0" cy="204" fill="#000000" r="5"/>
<circle cx="2" cy="-15542.116266666666" fill="#000000" r="5"/>
<circle cx="4" cy="-7743.332266666666" fill="#000000" r="5"/>
<circle cx="6" cy="-5143.7376" fill="#000000" r="5"/>
<circle cx="8" cy="-3843.9402666666665" fill="#000000" r="5"/>
<circle cx="10" cy="-3064.0618666666664" fill="#000000" r="5"/>
<circle cx="12" cy="-2544.1429333333335" fill="#000000" r="5"/>
<circle cx="14" cy="-2172.772266666667" fill="#000000" r="5"/>
<circle cx="16" cy="-1894.2442666666666" fill="#000000" r="5"/>
<circle cx="18" cy="-1677.5123456" fill="#000000" r="5"/>
<circle cx="20" cy="-1504.3050666666666" fill="#000000" r="5"/>
<circle cx="22" cy="-1362.441472" fill="#000000" r="5"/>
<circle cx="24" cy="-1244.3456" fill="#000000" r="5"/>
<circle cx="26" cy="-1144.2240682666666" fill="#000000" r="5"/>
<circle cx="28" cy="-1058.6602666666668" fill="#000000" r="5"/>
<circle cx="30" cy="-984.3861333333333" fill="#000000" r="5"/>
<circle cx="32" cy="-919.3219925333333" fill="#000000" r="5"/>
<circle cx="34" cy="-861.9823616" fill="#000000" r="5"/>
<circle cx="36" cy="-811.0303061333333" fill="#000000" r="5"/>
<circle cx="38" cy="-765.4259882666666" fill="#000000" r="5"/>
<circle cx="40" cy="-724.4266666666666" fill="#000000" r="5"/>
<circle cx="42" cy="-687.2896" fill="#000000" r="5"/>
<circle cx="44" cy="-653.4205952" fill="#000000" r="5"/>
<circle cx="46" cy="-622.671104" fill="#000000" r="5"/>
<circle cx="48" cy="-594.4469333333333" fill="#000000" r="5"/>
<circle cx="50" cy="-568.4509866666667" fill="#000000" r="5"/>
<circle cx="52" cy="-544.3861674666666" fill="#000000" r="5"/>
<circle cx="54" cy="-522.1039274666666" fill="#000000" r="5"/>
<circle cx="56" cy="-501.60426666666666" fill="#000000" r="5"/>
<circle cx="58" cy="-482.292992" fill="#000000" r="5"/>
<circle cx="60" cy="-464.4672" fill="#000000" r="5"/>
<circle cx="62" cy="-447.68124586666664" fill="#000000" r="5"/>
<circle cx="64" cy="-431.9351296" fill="#000000" r="5"/>
<circle cx="66" cy="-417.0803029333333" fill="#000000" r="5"/>
<circle cx="68" cy="-403.26531413333333" fill="#000000" r="5"/>
<circle cx="70" cy="-390.19306666666665" fill="#000000" r="5"/>
<circle cx="72" cy="-377.7150122666667" fill="#000000" r="5"/>
<circle cx="74" cy="-365.9796992" fill="#000000" r="5"/>
<circle cx="76" cy="-354.98712746666666" fill="#000000" r="5"/>
<circle cx="78" cy="-344.4402005333333" fill="#000000" r="5"/>
<circle cx="80" cy="-334.48746666666665" fill="#000000" r="5"/>
<circle cx="82" cy="-324.83182933333336" fill="#000000" r="5"/>
<circle cx="84" cy="-315.9189333333333" fill="#000000" r="5"/>
<circle cx="86" cy="-307.1545856" fill="#000000" r="5"/>
<circle cx="88" cy="-298.98443093333333" fill="#000000" r="5"/>
<circle cx="90" cy="-291.1113728" fill="#000000" r="5"/>
<circle cx="92" cy="-283.5354112" fill="#000000" r="5"/>
<circle cx="94" cy="-276.4050944" fill="#000000" r="5"/>
<circle cx="96" cy="-269.4233258666667" fill="#000000" r="5"/>
<circle cx="98" cy="-262.73865386666665" fill="#000000" r="5"/>
<circle cx="100" cy="-256.49962666666664" fill="#000000" r="5"/>
<circle cx="102" cy="-250.26059946666666" fill="#000000" r="5"/>
<circle cx="104" cy="-244.46721706666668" fill="#000000" r="5"/>
<circle cx="106" cy="-238.82238293333333" fill="#000000" r="5"/>
<circle cx="108" cy="-233.32609706666668" fill="#000000" r="5"/>
<circle cx="110" cy="-228.12690773333333" fill="#000000" r="5"/>
<circle cx="112" cy="-223.07626666666667" fill="#000000" r="5"/>
<circle cx="114" cy="-218.17417386666668" fill="#000000" r="5"/>
<circle cx="116" cy="-213.42062933333332" fill="#000000" r="5"/>
<circle cx="118" cy="-208.81563306666666" fill="#000000" r="5"/>
<circle cx="120" cy="-204.50773333333333" fill="#000000" r="5"/>
<circle cx="122" cy="-200.1998336" fill="#000000" r="5"/>
<circle cx="124" cy="-196.04048213333334" fill="#000000" r="5"/>
<circle cx="126" cy="-192.02967893333334" fill="#000000" r="5"/>
<circle cx="128" cy="-188.167424" fill="#000000" r="5"/>
<circle cx="130" cy="-184.45371733333334" fill="#000000" r="5"/>
<circle cx="132" cy="-180.74001066666668" fill="#000000" r="5"/>
<circle cx="134" cy="-177.32340053333334" fill="#000000" r="5"/>
<circle cx="136" cy="-173.9067904" fill="#000000" r="5"/>
<circle cx="138" cy="-170.49018026666667" fill="#000000" r="5"/>
<circle cx="140" cy="-167.37066666666666" fill="#000000" r="5"/>
<circle cx="142" cy="-164.1026048" fill="#000000" r="5"/>
<circle cx="144" cy="-161.13163946666666" fill="#000000" r="5"/>
<circle cx="146" cy="-158.16067413333334" fill="#000000" r="5"/>
<circle cx="148" cy="-155.1897088" fill="#000000" r="5"/>
<circle cx="150" cy="-152.51584" fill="#000000" r="5"/>
<circle cx="152" cy="-149.69342293333332" fill="#000000" r="5"/>
<circle cx="154" cy="-147.01955413333334" fill="#000000" r="5"/>
<circle cx="156" cy="-144.4942336" fill="#000000" r="5"/>
<circle cx="158" cy="-141.96891306666666" fill="#000000" r="5"/>
<circle cx="160" cy="-139.44359253333334" fill="#000000" r="5"/>
<circle cx="162" cy="-137.06682026666667" fill="#000000" r="5"/>
<circle cx="164" cy="-134.690048" fill="#000000" r="5"/>
<circle cx="166" cy="-132.461824" fill="#000000" r="5"/>
<circle cx="168" cy="-130.2336" fill="#000000" r="5"/>
<circle cx="170" cy="-128.005376" fill="#000000" r="5"/>
<circle cx="172" cy="-125.777152" fill="#000000" r="5"/>
<circle cx="174" cy="-123.69747626666667" fill="#000000" r="5"/>
<circle cx="176" cy="-121.7663488" fill="#000000" r="5"/>
<circle cx="178" cy="-119.68667306666667" fill="#000000" r="5"/>
<circle cx="180" cy="-117.7555456" fill="#000000" r="5"/>
<circle cx="182" cy="-115.82441813333334" fill="#000000" r="5"/>
<circle cx="184" cy="-114.04183893333334" fill="#000000" r="5"/>
<circle cx="186" cy="-112.25925973333334" fill="#000000" r="5"/>
<circle cx="188" cy="-110.47668053333334" fill="#000000" r="5"/>
<circle cx="190" cy="-108.69410133333334" fill="#000000" r="5"/>
<circle cx="192" cy="-106.91152213333334" fill="#000000" r="5"/>
<circle cx="194" cy="-105.2774912" fill="#000000" r="5"/>
<circle cx="196" cy="-103.64346026666666" fill="#000000" r="5"/>
<circle cx="198" cy="-102.00942933333333" fill="#000000" r="5"/>
<circle cx="200" cy="-100.52394666666666" fill="#000000" r="5"/>
<circle cx="202" cy="-98.88991573333334" fill="#000000" r="5"/>
<circle cx="204" cy="-97.40443306666667" fill="#000000" r="5"/>
<circle cx="206" cy="-95.9189504" fill="#000000" r="5"/>
<circle cx="208" cy="-94.43346773333333" fill="#000000" r="5"/>
<circle cx="210" cy="-93.09653333333333" fill="#000000" r="5"/>
<circle cx="212" cy="-91.61105066666667" fill="#000000" r="5"/>
<circle cx="214" cy="-90.27411626666667" fill="#000000" r="5"/>
<circle cx="216" cy="-88.93718186666666" fill="#000000" r="5"/>
<circle cx="218" cy="-87.60024746666667" fill="#000000" r="5"/>
<circle cx="220" cy="-86.26331306666667" fill="#000000" r="5"/>
<circle cx="222" cy="-84.92637866666666" fill="#000000" r="5"/>
<circle cx="224" cy="-83.73799253333334" fill="#000000" r="5"/>
<circle cx="226" cy="-82.5496064" fill="#000000" r="5"/>
<circle cx="228" cy="-81.36122026666666" fill="#000000" r="5"/>
<circle cx="230" cy="-80.17283413333334" fill="#000000" r="5"/>
<circle cx="232" cy="-78.984448" fill="#000000" r="5"/>
<circle cx="234" cy="-77.79606186666666" fill="#000000" r="5"/>
<circle cx="236" cy="-76.60767573333334" fill="#000000" r="5"/>
<circle cx="238" cy="-75.56783786666666" fill="#000000" r="5"/>
<circle cx="240" cy="-74.528" fill="#000000" r="5"/>
<circle cx="242" cy="-73.33961386666667" fill="#000000" r="5"/>
<circle cx="244" cy="-72.299776" fill="#000000" r="5"/>
<circle cx="246" cy="-71.25993813333334" fill="#000000" r="5"/>
<circle cx="248" cy="-70.22010026666666" fill="#000000" r="5"/>
<circle cx="250" cy="-69.32881066666667" fill="#000000" r="5"/>
<circle cx="252" cy="-68.2889728" fill="#000000" r="5"/>
<circle cx="254" cy="-67.24913493333334" fill="#000000" r="5"/>
<circle cx="256" cy="-66.35784533333333" fill="#000000" r="5"/>
<circle cx="258" cy="-65.31800746666667" fill="#000000" r="5"/>
<circle cx="260" cy="-64.42671786666666" fill="#000000" r="5"/>
<circle cx="262" cy="-63.53542826666666" fill="#000000" r="5"/>
<circle cx="264" cy="-62.64413866666667" fill="#000000" r="5"/>
<circle cx="266" cy="-61.75284906666667" fill="#000000" r="5"/>
<circle cx="268" cy="-60.86155946666667" fill="#000000" r="5"/>
<circle cx="270" cy="-59.97026986666667" fill="#000000" r="5"/>
<circle cx="272" cy="-59.227528533333334" fill="#000000" r="5"/>
<circle cx="274" cy="-58.336238933333334" fill="#000000" r="5"/>
<circle cx="276" cy="-57.444949333333334" fill="#000000" r="5"/>
<circle cx="278" cy="-56.702208" fill="#000000" r="5"/>
<circle cx="280" cy="-55.959466666666664" fill="#000000" r="5"/>
<circle cx="282" cy="-55.068177066666664" fill="#000000" r="5"/>
<circle cx="284" cy="-54.325435733333336" fill="#000000" r="5"/>
<circle cx="286" cy="-53.5826944" fill="#000000" r="5"/>
<circle cx="288" cy="-52.839953066666666" fill="#000000" r="5"/>
<circle cx="290" cy="-52.09721173333333" fill="#000000" r="5"/>
<circle cx="292" cy="-51.3544704" fill="#000000" r="5"/>
<circle cx="294" cy="-50.61172906666667" fill="#000000" r="5"/>
<circle cx="296" cy="-49.868987733333334" fill="#000000" r="5"/>
<circle cx="298" cy="-49.1262464" fill="#000000" r="5"/>
<circle cx="300" cy="-48.53205333333333" fill="#000000" r="5"/>
<circle cx="302" cy="-47.789312" fill="#000000" r="5"/>
<circle cx="304" cy="-47.04657066666667" fill="#000000" r="5"/>
<circle cx="306" cy="-46.4523776" fill="#000000" r="5"/>
<circle cx="308" cy="-45.709636266666664" fill="#000000" r="5"/>
<circle cx="310" cy="-45.1154432" fill="#000000" r="5"/>
<circle cx="312" cy="-44.52125013333333" fill="#000000" r="5"/>
<circle cx="314" cy="-43.7785088" fill="#000000" r="5"/>
<circle cx="316" cy="-43.184315733333335" fill="#000000" r="5"/>
<circle cx="318" cy="-42.590122666666666" fill="#000000" r="5"/>
<circle cx="320" cy="-41.9959296" fill="#000000" r="5"/>
<circle cx="322" cy="-41.401736533333334" fill="#000000" r="5"/>
<circle cx="324" cy="-40.807543466666665" fill="#000000" r="5"/>
<circle cx="326" cy="-40.2133504" fill="#000000" r="5"/>
<circle cx="328" cy="-39.619157333333334" fill="#000000" r="5"/>
<circle cx="330" cy="-39.024964266666665" fill="#000000" r="5"/>
<circle cx="332" cy="-38.4307712" fill="#000000" r="5"/>
<circle cx="334" cy="-37.83657813333333" fill="#000000" r="5"/>
<circle cx="336" cy="-37.39093333333334" fill="#000000" r="5"/>
<circle cx="338" cy="-36.79674026666667" fill="#000000" r="5"/>
<circle cx="340" cy="-36.2025472" fill="#000000" r="5"/>
<circle cx="342" cy="-35.7569024" fill="#000000" r="5"/>
<circle cx="344" cy="-35.16270933333333" fill="#000000" r="5"/>
<circle cx="346" cy="-34.56851626666667" fill="#000000" r="5"/>
<circle cx="348" cy="-34.122871466666666" fill="#000000" r="5"/>
<circle cx="350" cy="-33.67722666666667" fill="#000000" r="5"/>
<circle cx="352" cy="-33.0830336" fill="#000000" r="5"/>
<circle cx="354" cy="-32.6373888" fill="#000000" r="5"/>
<circle cx="356" cy="-32.043195733333334" fill="#000000" r="5"/>
<circle cx="358" cy="-31.597550933333334" fill="#000000" r="5"/>
<circle cx="360" cy="-31.151906133333334" fill="#000000" r="5"/>
<circle cx="362" cy="-30.706261333333334" fill="#000000" r="5"/>
<circle cx="364" cy="-30.112068266666668" fill="#000000" r="5"/>
<circle cx="366" cy="-29.666423466666668" fill="#000000" r="5"/>
<circle cx="368" cy="-29.220778666666668" fill="#000000" r="5"/>
<circle cx="370" cy="-28.775133866666668" fill="#000000" r="5"/>
<circle cx="372" cy="-28.329489066666667" fill="#000000" r="5"/>
<circle cx="374" cy="-27.883844266666667" fill="#000000" r="5"/>
<circle cx="376" cy="-27.438199466666667" fill="#000000" r="5"/>
<circle cx="378" cy="-26.992554666666667" fill="#000000" r="5"/>
<circle cx="380" cy="-26.546909866666667" fill="#000000" r="5"/>
<circle cx="382" cy="-26.101265066666667" fill="#000000" r="5"/>
<circle cx="384" cy="-25.655620266666666" fill="#000000" r="5"/>
<circle cx="386" cy="-25.35852373333333" fill="#000000" r="5"/>
<circle cx="388" cy="-24.91287893333333" fill="#000000" r="5"/>
<circle cx="390" cy="-24.467234133333335" fill="#000000" r="5"/>
<circle cx="392" cy="-24.021589333333335" fill="#000000" r="5"/>
<circle cx="394" cy="-23.575944533333335" fill="#000000" r="5"/>
<circle cx="396" cy="-23.278848" fill="#000000" r="5"/>
<circle cx="398" cy="-22.8332032" fill="#000000" r="5"/>
</g>
<g>
<g>
<line stroke="black" stroke-width="1" x1="0" x2="0" y1="0" y2="10"/>
<line stroke="black" stroke-width="1" x1="100" x2="100" y1="0" y2="10"/>
<line stroke="black" stroke-width="1" x1="200" x2="200" y1="0" y2="10"/>
<line stroke="black" stroke-width="1" x1="300" x2="300" y1="0" y2="10"/>
<line stroke="black" stroke-width="1" x1="400" x2="400" y1="0" y2="10"/>
<line stroke="black" stroke-width="1" x1="500" x2="500" y1="0" y2="10"/>
</g>
<line stroke="black" stroke-width="1" x1="0" x2="500" y1="0" y2="0"/>
<g>
<text font-size="12" text-anchor="middle" x="0" y="20">
0
</text>
<text font-size="12" text-anchor="middle" x="100" y="20">
50000
</text>
<text font-size="12" text-anchor="middle" x="200" y="20">
100000
</text>
<text font-size="12" text-anchor="middle" x="300" y="20">
150000
</text>
<text font-size="12" text-anchor="middle" x="400" y="20">
200000
</text>
<text font-size="12" text-anchor="middle" x="500" y="20">
250000
</text>
</g>
<text font-size="12" text-anchor="middle" x="250" y="30">
Gas
</text>
</g>
<g>
<g>
<line stroke="black" stroke-width="1" x1="0" x2="-10" y1="-68" y2="-68"/>
<line stroke="black" stroke-width="1" x1="0" x2="-10" y1="-158.66666666666666" y2="-158.66666666666666"/>
<line stroke="black" stroke-width="1" x1="0" x2="-10" y1="-249.33333333333334" y2="-249.33333333333334"/>
<line stroke="black" stroke-width="1" x1="0" x2="-10" y1="-340" y2="-340"/>
</g>
<line stroke="black" stroke-0="1" x1="0" x2="0" y1="0" y2="-340"/>
<g>
<text dominant-baseline="middle" font-size="12" text-anchor="end" x="-15" y="-68">
60000000
</text>
<text dominant-baseline="middle" font-size="12" text-anchor="end" x="-15" y="-158.66666666666666">
80000000
</text>
<text dominant-baseline="middle" font-size="12" text-anchor="end" x="-15" y="-249.33333333333334">
100000000
</text>
<text dominant-baseline="middle" font-size="12" text-anchor="end" x="-15" y="-340">
120000000
</text>
</g>
<text font-size="12" text-anchor="middle" transform="rotate(-90 -30 -170)" x="-30" y="-170">
Score
</text>
</g>
</g>
</svg>