<svg viewBox="0 0 600 400" xmlns="http://www.w3.org/2000/svg">
<g transform="translate(50, 360)">
<g>
<circle cx="0" cy="-0.23396352" fill="#000000" r="5"/>
<circle cx="20" cy="-11.37508352" fill="#000000" r="5"/>
<circle cx="40" cy="-22.51620352" fill="#000000" r="5"/>
<circle cx="60" cy="-33.65732352" fill="#000000" r="5"/>
<circle cx="80" cy="-44.79844352" fill="#000000" r="5"/>
<circle cx="100" cy="-55.93956352" fill="#000000" r="5"/>
<circle cx="120" cy="-67.08068352" fill="#000000" r="5"/>
<circle cx="140" cy="-78.22180352" fill="#000000" r="5"/>
<circle cx="160" cy="-89.36292352" fill="#000000" r="5"/>
<circle cx="180" cy="-100.50404352" fill="#000000" r="5"/>
<circle cx="200" cy="-111.64516352" fill="#000000" r="5"/>
<circle cx="220" cy="-122.78628352" fill="#000000" r="5"/>
<circle cx="240" cy="-133.92740352" fill="#000000" r="5"/>
<circle cx="260" cy="-145.06852352" fill="#000000" r="5"/>
<circle cx="280" cy="-156.20964352" fill="#000000" r="5"/>
<circle cx="300" cy="-167.35076352" fill="#000000" r="5"/>
<circle cx="320" cy="-178.49188352" fill="#000000" r="5"/>
<circle cx="340" cy="-189.63300352" fill="#000000" r="5"/>
<circle cx="360" cy="-200.77412352" fill="#000000" r="5"/>
<circle cx="380" cy="-211.91524352" fill="#000000" r="5"/>
<circle cx="400" cy="-223.05636352" fill="#000000" r="5"/>
<circle cx="420" cy="-234.19748352" fill="#000000" r="5"/>
<circle cx="440" cy="-245.33860352" fill="#000000" r="5"/>
<circle cx="460" cy="-256.47972352" fill="#000000" r="5"/>
<circle cx="480" cy="-267.62084352" fill="#000000" r="5"/>
<circle cx="500" cy="-278.76196352" fill="#000000" r="5"/>
<circle cx="520" cy="-289.90308352" fill="#000000" r="5"/>
<circle cx="540" cy="-301.04420352" fill="#000000" r="5"/>
<circle cx="560" cy="-312.18532352" fill="#000000" r="5"/>
<circle cx="580" cy="-323.32644352" fill="#000000" r="5"/>
<circle cx="600" cy="-334.46756352" fill="#000000" r="5"/>
<circle cx="620" cy="-345.60868352" fill="#000000" r="5"/>
<circle cx="640" cy="-356.74980352" fill="#000000" r="5"/>
<circle cx="660" cy="-367.89092352" fill="#000000" r="5"/>
<circle cx="680" cy="-379.03204352" fill="#000000" r="5"/>
<circle cx="700" cy="-390.17316352" fill="#000000" r="5"/>
<circle cx="720" cy="-401.31428352" fill="#000000" r="5"/>
<circle cx="740" cy="-412.45540352" fill="#000000" r="5"/>
<circle cx="760" cy="-423.59652352" fill="#000000" r="5"/>
<circle cx="780" cy="-434.73764352" fill="#000000" r="5"/>
<circle cx="800" cy="-445.87876352" fill="#000000" r="5"/>
<circle cx="820" cy="-457.01988352" fill="#000000" r="5"/>
<circle cx="840" cy="-468.16100352" fill="#000000" r="5"/>
<circle cx="860" cy="-479.30212352" fill="#000000" r="5"/>
<circle cx="880" cy="-490.44324352" fill="#000000" r="5"/>
<circle cx="900" cy="-501.58436352" fill="#000000" r="5"/>
<circle cx="920" cy="-512.72548352" fill="#000000" r="5"/>
<circle cx="940" cy="-523.86660352" fill="#000000" r="5"/>
<circle cx="960" cy="-535.00772352" fill="#000000" r="5"/>
<circle cx="980" cy="-546.14884352" fill="#000000" r="5"/>
<circle cx="1000" cy="-557.28996352" fill="#000000" r="5"/>
<circle cx="1020" cy="-568.43108352" fill="#000000" r="5"/>
<circle cx="1040" cy="-579.57220352" fill="#000000" r="5"/>
<circle cx="1060" cy="-590.71332352" fill="#000000" r="5"/>
<circle cx="1080" cy="-601.85444352" fill="#000000" r="5"/>
<circle cx="1100" cy="-612.99556352" fill="#000000" r="5"/>
<circle cx="1120" cy="-624.13668352" fill="#000000" r="5"/>
<circle cx="1140" cy="-635.27780352" fill="#000000" r="5"/>
<circle cx="1160" cy="-646.41892352" fill="#000000" r="5"/>
<circle cx="1180" cy="-657.56004352" fill="#000000" r="5"/>
<circle cx="1200" cy="-668.70116352" fill="#000000" r="5"/>
<circle cx="1220" cy="-679.84228352" fill="#000000" r="5"/>
<circle cx="1240" cy="-690.98340352" fill="#000000" r="5"/>
<circle cx="1260" cy="-702.12452352" fill="#000000" r="5"/>
<circle cx="1280" cy="-713.26564352" fill="#000000" r="5"/>
<circle cx="1300" cy="-724.40676352" fill="#000000" r="5"/>
<circle cx="1320" cy="-735.54788352" fill="#000000" r="5"/>
<circle cx="1340" cy="-746.68900352" fill="#000000" r="5"/>
<circle cx="1360" cy="-757.83012352" fill="#000000" r="5"/>
<circle cx="1380" cy="-768.97124352" fill="#000000" r="5"/>
<circle cx="1400" cy="-780.11236352" fill="#000000" r="5"/>
<circle cx="1420" cy="-791.25348352" fill="#000000" r="5"/>
<circle cx="1440" cy="-802.39460352" fill="#000000" r="5"/>
<circle cx="1460" cy="-813.53572352" fill="#000000" r="5"/>
<circle cx="1480" cy="-824.67684352" fill="#000000" r="5"/>
<circle cx="1500" cy="-835.81796352" fill="#000000" r="5"/>
<circle cx="1520" cy="-846.95908352" fill="#000000" r="5"/>
<circle cx="1540" cy="-858.10020352" fill="#000000" r="5"/>
<circle cx="1560" cy="-869.24132352" fill="#000000" r="5"/>
<circle cx="1580" cy="-880.38244352" fill="#000000" r="5"/>
<circle cx="1600" cy="-891.52356352" fill="#000000" r="5"/>
<circle cx="1620" cy="-902.66468352" fill="#000000" r="5"/>
<circle cx="1640" cy="-913.80580352" fill="#000000" r="5"/>
<circle cx="1660" cy="-924.94692352" fill="#000000" r="5"/>
<circle cx="1680" cy="-936.08804352" fill="#000000" r="5"/>
<circle cx="1700" cy="-947.22916352" fill="#000000" r="5"/>
<circle cx="1720" cy="-958.37028352" fill="#000000" r="5"/>
<circle cx="1740" cy="-969.51140352" fill="#000000" r="5"/>
<circle cx="1760" cy="-980.65252352" fill="#000000" r="5"/>
<circle cx="1780" cy="-991.79364352" fill="#000000" r="5"/>
<circle cx="1800" cy="-1002.93476352" fill="#000000" r="5"/>
<circle cx="1820" cy="-1014.07588352" fill="#000000" r="5"/>
<circle cx="1840" cy="-1025.21700352" fill="#000000" r="5"/>
<circle cx="1860" cy="-1036.35812352" fill="#000000" r="5"/>
<circle cx="1880" cy="-1047.49924352" fill="#000000" r="5"/>
<circle cx="1900" cy="-1058.64036352" fill="#000000" r="5"/>
<circle cx="1920" cy="-1069.78148352" fill="#000000" r="5"/>
<circle cx="1940" cy="-1080.92260352" fill="#000000" r="5"/>
<circle cx="1960" cy="-1092.06372352" fill="#000000" r="5"/>
<circle cx="1980" cy="-1103.20484352" fill="#000000" r="5"/>
<circle cx="2000" cy="-1114.34596352" fill="#000000" r="5"/>
<circle cx="2020" cy="-1125.48708352" fill="#000000" r="5"/>
<circle cx="2040" cy="-1136.62820352" fill="#000000" r="5"/>
<circle cx="2060" cy="-1147.76932352" fill="#000000" r="5"/>
<circle cx="2080" cy="-1158.91044352" fill="#000000" r="5"/>
<circle cx="2100" cy="-1170.05156352" fill="#000000" r="5"/>
<circle cx="2120" cy="-1181.19268352" fill="#000000" r="5"/>
<circle cx="2140" cy="-1192.33380352" fill="#000000" r="5"/>
<circle cx="2160" cy="-1203.47492352" fill="#000000" r="5"/>
<circle cx="2180" cy="-1214.61604352" fill="#000000" r="5"/>
<circle cx="2200" cy="-1225.75716352" fill="#000000" r="5"/>
<circle cx="2220" cy="-1236.89828352" fill="#000000" r="5"/>
<circle cx="2240" cy="-1248.03940352" fill="#000000" r="5"/>
<circle cx="2260" cy="-1259.18052352" fill="#000000" r="5"/>
<circle cx="2280" cy="-1270.32164352" fill="#000000" r="5"/>
<circle cx="2300" cy="-1281.46276352" fill="#000000" r="5"/>
<circle cx="2320" cy="-1292.60388352" fill="#000000" r="5"/>
<circle cx="2340" cy="-1303.74500352" fill="#000000" r="5"/>
<circle cx="2360" cy="-1314.88612352" fill="#000000" r="5"/>
<circle cx="2380" cy="-1326.02724352" fill="#000000" r="5"/>
<circle cx="2400" cy="-1337.16836352" fill="#000000" r="5"/>
<circle cx="2420" cy="-1348.30948352" fill="#000000" r="5"/>
<circle cx="2440" cy="-1359.45060352" fill="#000000" r="5"/>
<circle cx="2460" cy="-1370.59172352" fill="#000000" r="5"/>
<circle cx="2480" cy="-1381.73284352" fill="#000000" r="5"/>
<circle cx="2500" cy="-1392.87396352" fill="#000000" r="5"/>
<circle cx="2520" cy="-1404.01508352" fill="#000000" r="5"/>
<circle cx="2540" cy="-1415.15620352" fill="#000000" r="5"/>
<circle cx="2560" cy="-1426.29732352" fill="#000000" r="5"/>
<circle cx="2580" cy="-1437.43844352" fill="#000000" r="5"/>
<circle cx="2600" cy="-1448.57956352" fill="#000000" r="5"/>
<circle cx="2620" cy="-1459.72068352" fill="#000000" r="5"/>
<circle cx="2640" cy="-1470.86180352" fill="#000000" r="5"/>
<circle cx="2660" cy="-1482.00292352" fill="#000000" r="5"/>
<circle cx="2680" cy="-1493.14404352" fill="#000000" r="5"/>
<circle cx="2700" cy="-1504.28516352" fill="#000000" r="5"/>
<circle cx="2720" cy="-1515.42628352" fill="#000000" r="5"/>
<circle cx="2740" cy="-1526.56740352" fill="#000000" r="5"/>
<circle cx="2760" cy="-1537.70852352" fill="#000000" r="5"/>
<circle cx="2780" cy="-1548.84964352" fill="#000000" r="5"/>
<circle cx="2800" cy="-1559.99076352" fill="#000000" r="5"/>
<circle cx="2820" cy="-1571.13188352" fill="#000000" r="5"/>
<circle cx="2840" cy="-1582.27300352" fill="#000000" r="5"/>
<circle cx="2860" cy="-1593.41412352" fill="#000000" r="5"/>
<circle cx="2880" cy="-1604.55524352" fill="#000000" r="5"/>
<circle cx="2900" cy="-1615.69636352" fill="#000000" r="5"/>
<circle cx="2920" cy="-1626.83748352" fill="#000000" r="5"/>
<circle cx="2940" cy="-1637.97860352" fill="#000000" r="5"/>
<circle cx="2960" cy="-1649.11972352" fill="#000000" r="5"/>
<circle cx="2980" cy="-1660.26084352" fill="#000000" r="5"/>
<circle cx="3000" cy="-1671.40196352" fill="#000000" r="5"/>
<circle cx="3020" cy="-1682.54308352" fill="#000000" r="5"/>
<circle cx="3040" cy="-1693.68420352" fill="#000000" r="5"/>
<circle cx="3060" cy="-1704.82532352" fill="#000000" r="5"/>
<circle cx="3080" cy="-1715.96644352" fill="#000000" r="5"/>
<circle cx="3100" cy="-1727.10756352" fill="#000000" r="5"/>
<circle cx="3120" cy="-1738.24868352" fill="#000000" r="5"/>
<circle cx="3140" cy="-1749.38980352" fill="#000000" r="5"/>
<circle cx="3160" cy="-1760.53092352" fill="#000000" r="5"/>
<circle cx="3180" cy="-1771.67204352" fill="#000000" r="5"/>
<circle cx="3200" cy="-1782.81316352" fill="#000000" r="5"/>
<circle cx="3220" cy="-1793.95428352" fill="#000000" r="5"/>
<circle cx="3240" cy="-1805.09540352" fill="#000000" r="5"/>
<circle cx="3260" cy="-1816.23652352" fill="#000000" r="5"/>
<circle cx="3280" cy="-1827.37764352" fill="#000000" r="5"/>
<circle cx="3300" cy="-1838.51876352" fill="#000000" r="5"/>
<circle cx="3320" cy="-1849.65988352" fill="#000000" r="5"/>
<circle cx="3340" cy="-1860.80100352" fill="#000000" r="5"/>
<circle cx="3360" cy="-1871.94212352" fill="#000000" r="5"/>
<circle cx="3380" cy="-1883.08324352" fill="#000000" r="5"/>
<circle cx="3400" cy="-1894.22436352" fill="#000000" r="5"/>
<circle cx="3420" cy="-1905.36548352" fill="#000000" r="5"/>
<circle cx="3440" cy="-1916.50660352" fill="#000000" r="5"/>
<circle cx="3460" cy="-1927.64772352" fill="#000000" r="5"/>
<circle cx="3480" cy="-1938.78884352" fill="#000000" r="5"/>
<circle cx="3500" cy="-1949.92996352" fill="#000000" r="5"/>
<circle cx="3520" cy="-1961.07108352" fill="#000000" r="5"/>
<circle cx="3540" cy="-1972.21220352" fill="#000000" r="5"/>
<circle cx="3560" cy="-1983.35332352" fill="#000000" r="5"/>
<circle cx="3580" cy="-1994.49444352" fill="#000000" r="5"/>
<circle cx="3600" cy="-2005.63556352" fill="#000000" r="5"/>
<circle cx="3620" cy="-2016.77668352" fill="#000000" r="5"/>
<circle cx="3640" cy="-2027.91780352" fill="#000000" r="5"/>
<circle cx="3660" cy="-2039.05892352" fill="#000000" r="5"/>
<circle cx="3680" cy="-2050.20004352" fill="#000000" r="5"/>
<circle cx="3700" cy="-2061.34116352" fill="#000000" r="5"/>
<circle cx="3720" cy="-2072.48228352" fill="#000000" r="5"/>
<circle cx="3740" cy="-2083.62340352" fill="#000000" r="5"/>
<circle cx="3760" cy="-2094.76452352" fill="#000000" r="5"/>
<circle cx="3780" cy="-2105.90564352" fill="#000000" r="5"/>
<circle cx="3800" cy="-2117.04676352" fill="#000000" r="5"/>
<circle cx="3820" cy="-2128.18788352" fill="#000000" r="5"/>
<circle cx="3840" cy="-2139.32900352" fill="#000000" r="5"/>
<circle cx="3860" cy="-2150.47012352" fill="#000000" r="5"/>
<circle cx="3880" cy="-2161.61124352" fill="#000000" r="5"/>
<circle cx="3900" cy="-2172.75236352" fill="#000000" r="5"/>
<circle cx="3920" cy="-2183.89348352" fill="#000000" r="5"/>
<circle cx="3940" cy="-2195.03460352" fill="#000000" r="5"/>
<circle cx="3960" cy="-2206.17572352" fill="#000000" r="5"/>
<circle cx="3980" cy="-2217.31684352" fill="#000000" r="5"/>
</g>
<g>
<g>
<line stroke="black" stroke-width="1" x1="0" x2="0" y1="0" y2="10"/>
<line stroke="black" stroke-width="1" x1="100" x2="100" y1="0" y2="10"/>
<line stroke="black" stroke-width="1" x1="200" x2="200" y1="0" y2="10"/>
<line stroke="black" stroke-width="1" x1="300" x2="300" y1="0" y2="10"/>
<line stroke="black" stroke-width="1" x1="400" x2="400" y1="0" y2="10"/>
<line stroke="black" stroke-width="1" x1="500" x2="500" y1="0" y2="10"/>
</g>
<line stroke="black" stroke-width="1" x1="0" x2="500" y1="0" y2="0"/>
<g>
<text font-size="12" text-anchor="middle" x="0" y="20">
0
</text>
<text font-size="12" text-anchor="middle" x="100" y="20">
5000
</text>
<text font-size="12" text-anchor="middle" x="200" y="20">
10000
</text>
<text font-size="12" text-anchor="middle" x="300" y="20">
15000
</text>
<text font-size="12" text-anchor="middle" x="400" y="20">
20000
</text>
<text font-size="12" text-anchor="middle" x="500" y="20">
25000
</text>
</g>
<text font-size="12" text-anchor="middle" x="250" y="30">
Gas Price
</text>
</g>
<g>
<g>
<line stroke="black" stroke-width="1" x1="0" x2="-10" y1="0" y2="0"/>
<line stroke="black" stroke-width="1" x1="0" x2="-10" y1="-68" y2="-68"/>
<line stroke="black" stroke-width="1" x1="0" x2="-10" y1="-136" y2="-136"/>
<line stroke="black" stroke-width="1" x1="0" x2="-10" y1="-204" y2="-204"/>
<line stroke="black" stroke-width="1" x1="0" x2="-10" y1="-272" y2="-272"/>
<line stroke="black" stroke-width="1" x1="0" x2="-10" y1="-340" y2="-340"/>
</g>
<line stroke="black" stroke-0="1" x1="0" x2="0" y1="0" y2="-340"/>
<g>
<text dominant-baseline="middle" font-size="12" text-anchor="end" x="-15" y="0">
0
</text>
<text dominant-baseline="middle" font-size="12" text-anchor="end" x="-15" y="-68">
200000000
</text>
<text dominant-baseline="middle" font-size="12" text-anchor="end" x="-15" y="-136">
400000000
</text>
<text dominant-baseline="middle" font-size="12" text-anchor="end" x="-15" y="-204">
600000000
</text>
<text dominant-baseline="middle" font-size="12" text-anchor="end" x="-15" y="-272">
800000000
</text>
<text dominant-baseline="middle" font-size="12" text-anchor="end" x="-15" y="-340">
1000000000
</text>
</g>
<text font-size="12" text-anchor="middle" transform="rotate(-90 -30 -170)" x="-30" y="-170">
Score
</text>
</g>
</g>
</svg>