<svg viewBox="0 0 600 400" xmlns="http://www.w3.org/2000/svg">
<g transform="translate(50, 360)">
<g>
<circle cx="0" cy="-0.2856" fill="#000000" r="5"/>
<circle cx="20" cy="-13.8856" fill="#000000" r="5"/>
<circle cx="40" cy="-27.4856" fill="#000000" r="5"/>
<circle cx="60" cy="-41.0856" fill="#000000" r="5"/>
<circle cx="80" cy="-54.6856" fill="#000000" r="5"/>
<circle cx="100" cy="-68.2856" fill="#000000" r="5"/>
<circle cx="120" cy="-81.8856" fill="#000000" r="5"/>
<circle cx="140" cy="-95.4856" fill="#000000" r="5"/>
<circle cx="160" cy="-109.0856" fill="#000000" r="5"/>
<circle cx="180" cy="-122.6856" fill="#000000" r="5"/>
<circle cx="200" cy="-136.2856" fill="#000000" r="5"/>
<circle cx="220" cy="-149.8856" fill="#000000" r="5"/>
<circle cx="240" cy="-163.4856" fill="#000000" r="5"/>
<circle cx="260" cy="-177.0856" fill="#000000" r="5"/>
<circle cx="280" cy="-190.6856" fill="#000000" r="5"/>
<circle cx="300" cy="-204.2856" fill="#000000" r="5"/>
<circle cx="320" cy="-217.8856" fill="#000000" r="5"/>
<circle cx="340" cy="-231.4856" fill="#000000" r="5"/>
<circle cx="360" cy="-245.0856" fill="#000000" r="5"/>
<circle cx="380" cy="-258.6856" fill="#000000" r="5"/>
<circle cx="400" cy="-272.2856" fill="#000000" r="5"/>
<circle cx="420" cy="-285.8856" fill="#000000" r="5"/>
<circle cx="440" cy="-299.4856" fill="#000000" r="5"/>
<circle cx="460" cy="-313.0856" fill="#000000" r="5"/>
<circle cx="480" cy="-326.6856" fill="#000000" r="5"/>
<circle cx="500" cy="-340.2856" fill="#000000" r="5"/>
<circle cx="520" cy="-353.8856" fill="#000000" r="5"/>
<circle cx="540" cy="-367.4856" fill="#000000" r="5"/>
<circle cx="560" cy="-381.0856" fill="#000000" r="5"/>
<circle cx="580" cy="-394.6856" fill="#000000" r="5"/>
<circle cx="600" cy="-408.2856" fill="#000000" r="5"/>
<circle cx="620" cy="-421.8856" fill="#000000" r="5"/>
<circle cx="640" cy="-435.4856" fill="#000000" r="5"/>
<circle cx="660" cy="-449.0856" fill="#000000" r="5"/>
<circle cx="680" cy="-462.6856" fill="#000000" r="5"/>
<circle cx="700" cy="-476.2856" fill="#000000" r="5"/>
<circle cx="720" cy="-489.8856" fill="#000000" r="5"/>
<circle cx="740" cy="-503.4856" fill="#000000" r="5"/>
<circle cx="760" cy="-517.0856" fill="#000000" r="5"/>
<circle cx="780" cy="-530.6856" fill="#000000" r="5"/>
<circle cx="800" cy="-544.2856" fill="#000000" r="5"/>
<circle cx="820" cy="-557.8856" fill="#000000" r="5"/>
<circle cx="840" cy="-571.4856" fill="#000000" r="5"/>
<circle cx="860" cy="-585.0856" fill="#000000" r="5"/>
<circle cx="880" cy="-598.6856" fill="#000000" r="5"/>
<circle cx="900" cy="-612.2856" fill="#000000" r="5"/>
<circle cx="920" cy="-625.8856" fill="#000000" r="5"/>
<circle cx="940" cy="-639.4856" fill="#000000" r="5"/>
<circle cx="960" cy="-653.0856" fill="#000000" r="5"/>
<circle cx="980" cy="-666.6856" fill="#000000" r="5"/>
<circle cx="1000" cy="-680.2856" fill="#000000" r="5"/>
<circle cx="1020" cy="-693.8856" fill="#000000" r="5"/>
<circle cx="1040" cy="-707.4856" fill="#000000" r="5"/>
<circle cx="1060" cy="-721.0856" fill="#000000" r="5"/>
<circle cx="1080" cy="-734.6856" fill="#000000" r="5"/>
<circle cx="1100" cy="-748.2856" fill="#000000" r="5"/>
<circle cx="1120" cy="-761.8856" fill="#000000" r="5"/>
<circle cx="1140" cy="-775.4856" fill="#000000" r="5"/>
<circle cx="1160" cy="-789.0856" fill="#000000" r="5"/>
<circle cx="1180" cy="-802.6856" fill="#000000" r="5"/>
<circle cx="1200" cy="-816.2856" fill="#000000" r="5"/>
<circle cx="1220" cy="-829.8856" fill="#000000" r="5"/>
<circle cx="1240" cy="-843.4856" fill="#000000" r="5"/>
<circle cx="1260" cy="-857.0856" fill="#000000" r="5"/>
<circle cx="1280" cy="-870.6856" fill="#000000" r="5"/>
<circle cx="1300" cy="-884.2856" fill="#000000" r="5"/>
<circle cx="1320" cy="-897.8856" fill="#000000" r="5"/>
<circle cx="1340" cy="-911.4856" fill="#000000" r="5"/>
<circle cx="1360" cy="-925.0856" fill="#000000" r="5"/>
<circle cx="1380" cy="-938.6856" fill="#000000" r="5"/>
<circle cx="1400" cy="-952.2856" fill="#000000" r="5"/>
<circle cx="1420" cy="-965.8856" fill="#000000" r="5"/>
<circle cx="1440" cy="-979.4856" fill="#000000" r="5"/>
<circle cx="1460" cy="-993.0856" fill="#000000" r="5"/>
<circle cx="1480" cy="-1006.6856" fill="#000000" r="5"/>
<circle cx="1500" cy="-1020.2856" fill="#000000" r="5"/>
<circle cx="1520" cy="-1033.8856" fill="#000000" r="5"/>
<circle cx="1540" cy="-1047.4856" fill="#000000" r="5"/>
<circle cx="1560" cy="-1061.0856" fill="#000000" r="5"/>
<circle cx="1580" cy="-1074.6856" fill="#000000" r="5"/>
<circle cx="1600" cy="-1088.2856" fill="#000000" r="5"/>
<circle cx="1620" cy="-1101.8856" fill="#000000" r="5"/>
<circle cx="1640" cy="-1115.4856" fill="#000000" r="5"/>
<circle cx="1660" cy="-1129.0856" fill="#000000" r="5"/>
<circle cx="1680" cy="-1142.6856" fill="#000000" r="5"/>
<circle cx="1700" cy="-1156.2856" fill="#000000" r="5"/>
<circle cx="1720" cy="-1169.8856" fill="#000000" r="5"/>
<circle cx="1740" cy="-1183.4856" fill="#000000" r="5"/>
<circle cx="1760" cy="-1197.0856" fill="#000000" r="5"/>
<circle cx="1780" cy="-1210.6856" fill="#000000" r="5"/>
<circle cx="1800" cy="-1224.2856" fill="#000000" r="5"/>
<circle cx="1820" cy="-1237.8856" fill="#000000" r="5"/>
<circle cx="1840" cy="-1251.4856" fill="#000000" r="5"/>
<circle cx="1860" cy="-1265.0856" fill="#000000" r="5"/>
<circle cx="1880" cy="-1278.6856" fill="#000000" r="5"/>
<circle cx="1900" cy="-1292.2856" fill="#000000" r="5"/>
<circle cx="1920" cy="-1305.8856" fill="#000000" r="5"/>
<circle cx="1940" cy="-1319.4856" fill="#000000" r="5"/>
<circle cx="1960" cy="-1333.0856" fill="#000000" r="5"/>
<circle cx="1980" cy="-1346.6856" fill="#000000" r="5"/>
<circle cx="2000" cy="-1360.2856" fill="#000000" r="5"/>
<circle cx="2020" cy="-1373.8856" fill="#000000" r="5"/>
<circle cx="2040" cy="-1387.4856" fill="#000000" r="5"/>
<circle cx="2060" cy="-1401.0856" fill="#000000" r="5"/>
<circle cx="2080" cy="-1414.6856" fill="#000000" r="5"/>
<circle cx="2100" cy="-1428.2856" fill="#000000" r="5"/>
<circle cx="2120" cy="-1441.8856" fill="#000000" r="5"/>
<circle cx="2140" cy="-1455.4856" fill="#000000" r="5"/>
<circle cx="2160" cy="-1469.0856" fill="#000000" r="5"/>
<circle cx="2180" cy="-1482.6856" fill="#000000" r="5"/>
<circle cx="2200" cy="-1496.2856" fill="#000000" r="5"/>
<circle cx="2220" cy="-1509.8856" fill="#000000" r="5"/>
<circle cx="2240" cy="-1523.4856" fill="#000000" r="5"/>
<circle cx="2260" cy="-1537.0856" fill="#000000" r="5"/>
<circle cx="2280" cy="-1550.6856" fill="#000000" r="5"/>
<circle cx="2300" cy="-1564.2856" fill="#000000" r="5"/>
<circle cx="2320" cy="-1577.8856" fill="#000000" r="5"/>
<circle cx="2340" cy="-1591.4856" fill="#000000" r="5"/>
<circle cx="2360" cy="-1605.0856" fill="#000000" r="5"/>
<circle cx="2380" cy="-1618.6856" fill="#000000" r="5"/>
<circle cx="2400" cy="-1632.2856" fill="#000000" r="5"/>
<circle cx="2420" cy="-1645.8856" fill="#000000" r="5"/>
<circle cx="2440" cy="-1659.4856" fill="#000000" r="5"/>
<circle cx="2460" cy="-1673.0856" fill="#000000" r="5"/>
<circle cx="2480" cy="-1686.6856" fill="#000000" r="5"/>
<circle cx="2500" cy="-1700.2856" fill="#000000" r="5"/>
<circle cx="2520" cy="-1713.8856" fill="#000000" r="5"/>
<circle cx="2540" cy="-1727.4856" fill="#000000" r="5"/>
<circle cx="2560" cy="-1741.0856" fill="#000000" r="5"/>
<circle cx="2580" cy="-1754.6856" fill="#000000" r="5"/>
<circle cx="2600" cy="-1768.2856" fill="#000000" r="5"/>
<circle cx="2620" cy="-1781.8856" fill="#000000" r="5"/>
<circle cx="2640" cy="-1795.4856" fill="#000000" r="5"/>
<circle cx="2660" cy="-1809.0856" fill="#000000" r="5"/>
<circle cx="2680" cy="-1822.6856" fill="#000000" r="5"/>
<circle cx="2700" cy="-1836.2856" fill="#000000" r="5"/>
<circle cx="2720" cy="-1849.8856" fill="#000000" r="5"/>
<circle cx="2740" cy="-1863.4856" fill="#000000" r="5"/>
<circle cx="2760" cy="-1877.0856" fill="#000000" r="5"/>
<circle cx="2780" cy="-1890.6856" fill="#000000" r="5"/>
<circle cx="2800" cy="-1904.2856" fill="#000000" r="5"/>
<circle cx="2820" cy="-1917.8856" fill="#000000" r="5"/>
<circle cx="2840" cy="-1931.4856" fill="#000000" r="5"/>
<circle cx="2860" cy="-1945.0856" fill="#000000" r="5"/>
<circle cx="2880" cy="-1958.6856" fill="#000000" r="5"/>
<circle cx="2900" cy="-1972.2856" fill="#000000" r="5"/>
<circle cx="2920" cy="-1985.8856" fill="#000000" r="5"/>
<circle cx="2940" cy="-1999.4856" fill="#000000" r="5"/>
<circle cx="2960" cy="-2013.0856" fill="#000000" r="5"/>
<circle cx="2980" cy="-2026.6856" fill="#000000" r="5"/>
<circle cx="3000" cy="-2040.2856" fill="#000000" r="5"/>
<circle cx="3020" cy="-2053.8856" fill="#000000" r="5"/>
<circle cx="3040" cy="-2067.4856" fill="#000000" r="5"/>
<circle cx="3060" cy="-2081.0856" fill="#000000" r="5"/>
<circle cx="3080" cy="-2094.6856" fill="#000000" r="5"/>
<circle cx="3100" cy="-2108.2856" fill="#000000" r="5"/>
<circle cx="3120" cy="-2121.8856" fill="#000000" r="5"/>
<circle cx="3140" cy="-2135.4856" fill="#000000" r="5"/>
<circle cx="3160" cy="-2149.0856" fill="#000000" r="5"/>
<circle cx="3180" cy="-2162.6856" fill="#000000" r="5"/>
<circle cx="3200" cy="-2176.2856" fill="#000000" r="5"/>
<circle cx="3220" cy="-2189.8856" fill="#000000" r="5"/>
<circle cx="3240" cy="-2203.4856" fill="#000000" r="5"/>
<circle cx="3260" cy="-2217.0856" fill="#000000" r="5"/>
<circle cx="3280" cy="-2230.6856" fill="#000000" r="5"/>
<circle cx="3300" cy="-2244.2856" fill="#000000" r="5"/>
<circle cx="3320" cy="-2257.8856" fill="#000000" r="5"/>
<circle cx="3340" cy="-2271.4856" fill="#000000" r="5"/>
<circle cx="3360" cy="-2285.0856" fill="#000000" r="5"/>
<circle cx="3380" cy="-2298.6856" fill="#000000" r="5"/>
<circle cx="3400" cy="-2312.2856" fill="#000000" r="5"/>
<circle cx="3420" cy="-2325.8856" fill="#000000" r="5"/>
<circle cx="3440" cy="-2339.4856" fill="#000000" r="5"/>
<circle cx="3460" cy="-2353.0856" fill="#000000" r="5"/>
<circle cx="3480" cy="-2366.6856" fill="#000000" r="5"/>
<circle cx="3500" cy="-2380.2856" fill="#000000" r="5"/>
<circle cx="3520" cy="-2393.8856" fill="#000000" r="5"/>
<circle cx="3540" cy="-2407.4856" fill="#000000" r="5"/>
<circle cx="3560" cy="-2421.0856" fill="#000000" r="5"/>
<circle cx="3580" cy="-2434.6856" fill="#000000" r="5"/>
<circle cx="3600" cy="-2448.2856" fill="#000000" r="5"/>
<circle cx="3620" cy="-2461.8856" fill="#000000" r="5"/>
<circle cx="3640" cy="-2475.4856" fill="#000000" r="5"/>
<circle cx="3660" cy="-2489.0856" fill="#000000" r="5"/>
<circle cx="3680" cy="-2502.6856" fill="#000000" r="5"/>
<circle cx="3700" cy="-2516.2856" fill="#000000" r="5"/>
<circle cx="3720" cy="-2529.8856" fill="#000000" r="5"/>
<circle cx="3740" cy="-2543.4856" fill="#000000" r="5"/>
<circle cx="3760" cy="-2557.0856" fill="#000000" r="5"/>
<circle cx="3780" cy="-2570.6856" fill="#000000" r="5"/>
<circle cx="3800" cy="-2584.2856" fill="#000000" r="5"/>
<circle cx="3820" cy="-2597.8856" fill="#000000" r="5"/>
<circle cx="3840" cy="-2611.4856" fill="#000000" r="5"/>
<circle cx="3860" cy="-2625.0856" fill="#000000" r="5"/>
<circle cx="3880" cy="-2638.6856" fill="#000000" r="5"/>
<circle cx="3900" cy="-2652.2856" fill="#000000" r="5"/>
<circle cx="3920" cy="-2665.8856" fill="#000000" r="5"/>
<circle cx="3940" cy="-2679.4856" fill="#000000" r="5"/>
<circle cx="3960" cy="-2693.0856" fill="#000000" r="5"/>
<circle cx="3980" cy="-2706.6856" fill="#000000" r="5"/>
</g>
<g>
<g>
<line stroke="black" stroke-width="1" x1="0" x2="0" y1="0" y2="10"/>
<line stroke="black" stroke-width="1" x1="100" x2="100" y1="0" y2="10"/>
<line stroke="black" stroke-width="1" x1="200" x2="200" y1="0" y2="10"/>
<line stroke="black" stroke-width="1" x1="300" x2="300" y1="0" y2="10"/>
<line stroke="black" stroke-width="1" x1="400" x2="400" y1="0" y2="10"/>
<line stroke="black" stroke-width="1" x1="500" x2="500" y1="0" y2="10"/>
</g>
<line stroke="black" stroke-width="1" x1="0" x2="500" y1="0" y2="0"/>
<g>
<text font-size="12" text-anchor="middle" x="0" y="20">
0
</text>
<text font-size="12" text-anchor="middle" x="100" y="20">
5000
</text>
<text font-size="12" text-anchor="middle" x="200" y="20">
10000
</text>
<text font-size="12" text-anchor="middle" x="300" y="20">
15000
</text>
<text font-size="12" text-anchor="middle" x="400" y="20">
20000
</text>
<text font-size="12" text-anchor="middle" x="500" y="20">
25000
</text>
</g>
<text font-size="12" text-anchor="middle" x="250" y="30">
Gas Price
</text>
</g>
<g>
<g>
<line stroke="black" stroke-width="1" x1="0" x2="-10" y1="0" y2="0"/>
<line stroke="black" stroke-width="1" x1="0" x2="-10" y1="-68" y2="-68"/>
<line stroke="black" stroke-width="1" x1="0" x2="-10" y1="-136" y2="-136"/>
<line stroke="black" stroke-width="1" x1="0" x2="-10" y1="-204" y2="-204"/>
<line stroke="black" stroke-width="1" x1="0" x2="-10" y1="-272" y2="-272"/>
<line stroke="black" stroke-width="1" x1="0" x2="-10" y1="-340" y2="-340"/>
</g>
<line stroke="black" stroke-0="1" x1="0" x2="0" y1="0" y2="-340"/>
<g>
<text dominant-baseline="middle" font-size="12" text-anchor="end" x="-15" y="0">
0
</text>
<text dominant-baseline="middle" font-size="12" text-anchor="end" x="-15" y="-68">
5000
</text>
<text dominant-baseline="middle" font-size="12" text-anchor="end" x="-15" y="-136">
10000
</text>
<text dominant-baseline="middle" font-size="12" text-anchor="end" x="-15" y="-204">
15000
</text>
<text dominant-baseline="middle" font-size="12" text-anchor="end" x="-15" y="-272">
20000
</text>
<text dominant-baseline="middle" font-size="12" text-anchor="end" x="-15" y="-340">
25000
</text>
</g>
<text font-size="12" text-anchor="middle" transform="rotate(-90 -30 -170)" x="-30" y="-170">
Score
</text>
</g>
</g>
</svg>