<svg viewBox="0 0 600 400" xmlns="http://www.w3.org/2000/svg">
<g transform="translate(50, 360)">
<g>
<circle cx="0" cy="-inf" fill="#000000" r="5"/>
<circle cx="2" cy="-240.26666666666668" fill="#000000" r="5"/>
<circle cx="4" cy="-121.26666666666667" fill="#000000" r="5"/>
<circle cx="6" cy="-81.6" fill="#000000" r="5"/>
<circle cx="8" cy="-61.766666666666666" fill="#000000" r="5"/>
<circle cx="10" cy="-49.86666666666667" fill="#000000" r="5"/>
<circle cx="12" cy="-41.93333333333333" fill="#000000" r="5"/>
<circle cx="14" cy="-36.266666666666666" fill="#000000" r="5"/>
<circle cx="16" cy="-32.016666666666666" fill="#000000" r="5"/>
<circle cx="18" cy="-28.71111111111111" fill="#000000" r="5"/>
<circle cx="20" cy="-26.066666666666666" fill="#000000" r="5"/>
<circle cx="22" cy="-23.9030303030303" fill="#000000" r="5"/>
<circle cx="24" cy="-22.1" fill="#000000" r="5"/>
<circle cx="26" cy="-20.574358974358976" fill="#000000" r="5"/>
<circle cx="28" cy="-19.266666666666666" fill="#000000" r="5"/>
<circle cx="30" cy="-18.133333333333333" fill="#000000" r="5"/>
<circle cx="32" cy="-17.141666666666666" fill="#000000" r="5"/>
<circle cx="34" cy="-16.266666666666666" fill="#000000" r="5"/>
<circle cx="36" cy="-15.488888888888887" fill="#000000" r="5"/>
<circle cx="38" cy="-14.79298245614035" fill="#000000" r="5"/>
<circle cx="40" cy="-14.166666666666666" fill="#000000" r="5"/>
<circle cx="42" cy="-13.6" fill="#000000" r="5"/>
<circle cx="44" cy="-13.084848484848482" fill="#000000" r="5"/>
<circle cx="46" cy="-12.614492753623189" fill="#000000" r="5"/>
<circle cx="48" cy="-12.183333333333334" fill="#000000" r="5"/>
<circle cx="50" cy="-11.786666666666667" fill="#000000" r="5"/>
<circle cx="52" cy="-11.42051282051282" fill="#000000" r="5"/>
<circle cx="54" cy="-11.081481481481482" fill="#000000" r="5"/>
<circle cx="56" cy="-10.766666666666667" fill="#000000" r="5"/>
<circle cx="58" cy="-10.473563218390803" fill="#000000" r="5"/>
<circle cx="60" cy="-10.2" fill="#000000" r="5"/>
<circle cx="62" cy="-9.94408602150538" fill="#000000" r="5"/>
<circle cx="64" cy="-9.704166666666667" fill="#000000" r="5"/>
<circle cx="66" cy="-9.478787878787879" fill="#000000" r="5"/>
<circle cx="68" cy="-9.266666666666667" fill="#000000" r="5"/>
<circle cx="70" cy="-9.066666666666666" fill="#000000" r="5"/>
<circle cx="72" cy="-8.877777777777776" fill="#000000" r="5"/>
<circle cx="74" cy="-8.699099099099099" fill="#000000" r="5"/>
<circle cx="76" cy="-8.529824561403508" fill="#000000" r="5"/>
<circle cx="78" cy="-8.36923076923077" fill="#000000" r="5"/>
<circle cx="80" cy="-8.216666666666667" fill="#000000" r="5"/>
<circle cx="82" cy="-8.071544715447153" fill="#000000" r="5"/>
<circle cx="84" cy="-7.933333333333334" fill="#000000" r="5"/>
<circle cx="86" cy="-7.801550387596899" fill="#000000" r="5"/>
<circle cx="88" cy="-7.675757575757575" fill="#000000" r="5"/>
<circle cx="90" cy="-7.555555555555556" fill="#000000" r="5"/>
<circle cx="92" cy="-7.440579710144928" fill="#000000" r="5"/>
<circle cx="94" cy="-7.33049645390071" fill="#000000" r="5"/>
<circle cx="96" cy="-7.225" fill="#000000" r="5"/>
<circle cx="98" cy="-7.1238095238095225" fill="#000000" r="5"/>
<circle cx="100" cy="-7.026666666666666" fill="#000000" r="5"/>
<circle cx="102" cy="-6.933333333333334" fill="#000000" r="5"/>
<circle cx="104" cy="-6.843589743589744" fill="#000000" r="5"/>
<circle cx="106" cy="-6.757232704402516" fill="#000000" r="5"/>
<circle cx="108" cy="-6.674074074074074" fill="#000000" r="5"/>
<circle cx="110" cy="-6.593939393939394" fill="#000000" r="5"/>
<circle cx="112" cy="-6.516666666666667" fill="#000000" r="5"/>
<circle cx="114" cy="-6.442105263157895" fill="#000000" r="5"/>
<circle cx="116" cy="-6.370114942528735" fill="#000000" r="5"/>
<circle cx="118" cy="-6.300564971751411" fill="#000000" r="5"/>
<circle cx="120" cy="-6.233333333333333" fill="#000000" r="5"/>
<circle cx="122" cy="-6.168306010928962" fill="#000000" r="5"/>
<circle cx="124" cy="-6.1053763440860225" fill="#000000" r="5"/>
<circle cx="126" cy="-6.044444444444445" fill="#000000" r="5"/>
<circle cx="128" cy="-5.985416666666667" fill="#000000" r="5"/>
<circle cx="130" cy="-5.928205128205128" fill="#000000" r="5"/>
<circle cx="132" cy="-5.872727272727273" fill="#000000" r="5"/>
<circle cx="134" cy="-5.818905472636816" fill="#000000" r="5"/>
<circle cx="136" cy="-5.766666666666667" fill="#000000" r="5"/>
<circle cx="138" cy="-5.715942028985507" fill="#000000" r="5"/>
<circle cx="140" cy="-5.666666666666667" fill="#000000" r="5"/>
<circle cx="142" cy="-5.618779342723005" fill="#000000" r="5"/>
<circle cx="144" cy="-5.572222222222222" fill="#000000" r="5"/>
<circle cx="146" cy="-5.526940639269407" fill="#000000" r="5"/>
<circle cx="148" cy="-5.482882882882883" fill="#000000" r="5"/>
<circle cx="150" cy="-5.44" fill="#000000" r="5"/>
<circle cx="152" cy="-5.398245614035087" fill="#000000" r="5"/>
<circle cx="154" cy="-5.357575757575757" fill="#000000" r="5"/>
<circle cx="156" cy="-5.317948717948719" fill="#000000" r="5"/>
<circle cx="158" cy="-5.279324894514768" fill="#000000" r="5"/>
<circle cx="160" cy="-5.241666666666666" fill="#000000" r="5"/>
<circle cx="162" cy="-5.204938271604939" fill="#000000" r="5"/>
<circle cx="164" cy="-5.16910569105691" fill="#000000" r="5"/>
<circle cx="166" cy="-5.134136546184739" fill="#000000" r="5"/>
<circle cx="168" cy="-5.1" fill="#000000" r="5"/>
<circle cx="170" cy="-5.0666666666666655" fill="#000000" r="5"/>
<circle cx="172" cy="-5.0341085271317825" fill="#000000" r="5"/>
<circle cx="174" cy="-5.002298850574713" fill="#000000" r="5"/>
<circle cx="176" cy="-4.971212121212121" fill="#000000" r="5"/>
<circle cx="178" cy="-4.940823970037453" fill="#000000" r="5"/>
<circle cx="180" cy="-4.911111111111111" fill="#000000" r="5"/>
<circle cx="182" cy="-4.882051282051282" fill="#000000" r="5"/>
<circle cx="184" cy="-4.853623188405797" fill="#000000" r="5"/>
<circle cx="186" cy="-4.825806451612904" fill="#000000" r="5"/>
<circle cx="188" cy="-4.798581560283688" fill="#000000" r="5"/>
<circle cx="190" cy="-4.771929824561403" fill="#000000" r="5"/>
<circle cx="192" cy="-4.745833333333334" fill="#000000" r="5"/>
<circle cx="194" cy="-4.720274914089346" fill="#000000" r="5"/>
<circle cx="196" cy="-4.695238095238095" fill="#000000" r="5"/>
<circle cx="198" cy="-4.670707070707071" fill="#000000" r="5"/>
<circle cx="200" cy="-4.6466666666666665" fill="#000000" r="5"/>
<circle cx="202" cy="-4.623102310231023" fill="#000000" r="5"/>
<circle cx="204" cy="-4.6" fill="#000000" r="5"/>
<circle cx="206" cy="-4.577346278317153" fill="#000000" r="5"/>
<circle cx="208" cy="-4.555128205128206" fill="#000000" r="5"/>
<circle cx="210" cy="-4.533333333333333" fill="#000000" r="5"/>
<circle cx="212" cy="-4.511949685534591" fill="#000000" r="5"/>
<circle cx="214" cy="-4.4909657320872265" fill="#000000" r="5"/>
<circle cx="216" cy="-4.47037037037037" fill="#000000" r="5"/>
<circle cx="218" cy="-4.450152905198777" fill="#000000" r="5"/>
<circle cx="220" cy="-4.430303030303031" fill="#000000" r="5"/>
<circle cx="222" cy="-4.41081081081081" fill="#000000" r="5"/>
<circle cx="224" cy="-4.391666666666667" fill="#000000" r="5"/>
<circle cx="226" cy="-4.372861356932153" fill="#000000" r="5"/>
<circle cx="228" cy="-4.3543859649122805" fill="#000000" r="5"/>
<circle cx="230" cy="-4.336231884057971" fill="#000000" r="5"/>
<circle cx="232" cy="-4.3183908045977" fill="#000000" r="5"/>
<circle cx="234" cy="-4.300854700854701" fill="#000000" r="5"/>
<circle cx="236" cy="-4.283615819209039" fill="#000000" r="5"/>
<circle cx="238" cy="-4.266666666666667" fill="#000000" r="5"/>
<circle cx="240" cy="-4.25" fill="#000000" r="5"/>
<circle cx="242" cy="-4.233608815426997" fill="#000000" r="5"/>
<circle cx="244" cy="-4.217486338797814" fill="#000000" r="5"/>
<circle cx="246" cy="-4.201626016260163" fill="#000000" r="5"/>
<circle cx="248" cy="-4.1860215053763445" fill="#000000" r="5"/>
<circle cx="250" cy="-4.1706666666666665" fill="#000000" r="5"/>
<circle cx="252" cy="-4.155555555555556" fill="#000000" r="5"/>
<circle cx="254" cy="-4.140682414698163" fill="#000000" r="5"/>
<circle cx="256" cy="-4.126041666666667" fill="#000000" r="5"/>
<circle cx="258" cy="-4.111627906976744" fill="#000000" r="5"/>
<circle cx="260" cy="-4.097435897435897" fill="#000000" r="5"/>
<circle cx="262" cy="-4.083460559796438" fill="#000000" r="5"/>
<circle cx="264" cy="-4.069696969696969" fill="#000000" r="5"/>
<circle cx="266" cy="-4.056140350877192" fill="#000000" r="5"/>
<circle cx="268" cy="-4.042786069651741" fill="#000000" r="5"/>
<circle cx="270" cy="-4.02962962962963" fill="#000000" r="5"/>
<circle cx="272" cy="-4.016666666666667" fill="#000000" r="5"/>
<circle cx="274" cy="-4.003892944038929" fill="#000000" r="5"/>
<circle cx="276" cy="-3.991304347826087" fill="#000000" r="5"/>
<circle cx="278" cy="-3.9788968824940043" fill="#000000" r="5"/>
<circle cx="280" cy="-3.966666666666667" fill="#000000" r="5"/>
<circle cx="282" cy="-3.954609929078014" fill="#000000" r="5"/>
<circle cx="284" cy="-3.9427230046948356" fill="#000000" r="5"/>
<circle cx="286" cy="-3.9310023310023308" fill="#000000" r="5"/>
<circle cx="288" cy="-3.9194444444444443" fill="#000000" r="5"/>
<circle cx="290" cy="-3.9080459770114944" fill="#000000" r="5"/>
<circle cx="292" cy="-3.8968036529680363" fill="#000000" r="5"/>
<circle cx="294" cy="-3.8857142857142857" fill="#000000" r="5"/>
<circle cx="296" cy="-3.874774774774775" fill="#000000" r="5"/>
<circle cx="298" cy="-3.863982102908278" fill="#000000" r="5"/>
<circle cx="300" cy="-3.8533333333333335" fill="#000000" r="5"/>
<circle cx="302" cy="-3.8428256070640177" fill="#000000" r="5"/>
<circle cx="304" cy="-3.8324561403508772" fill="#000000" r="5"/>
<circle cx="306" cy="-3.8222222222222224" fill="#000000" r="5"/>
<circle cx="308" cy="-3.8121212121212116" fill="#000000" r="5"/>
<circle cx="310" cy="-3.8021505376344087" fill="#000000" r="5"/>
<circle cx="312" cy="-3.7923076923076926" fill="#000000" r="5"/>
<circle cx="314" cy="-3.782590233545647" fill="#000000" r="5"/>
<circle cx="316" cy="-3.772995780590717" fill="#000000" r="5"/>
<circle cx="318" cy="-3.763522012578617" fill="#000000" r="5"/>
<circle cx="320" cy="-3.754166666666667" fill="#000000" r="5"/>
<circle cx="322" cy="-3.744927536231884" fill="#000000" r="5"/>
<circle cx="324" cy="-3.735802469135803" fill="#000000" r="5"/>
<circle cx="326" cy="-3.7267893660531697" fill="#000000" r="5"/>
<circle cx="328" cy="-3.717886178861789" fill="#000000" r="5"/>
<circle cx="330" cy="-3.709090909090909" fill="#000000" r="5"/>
<circle cx="332" cy="-3.700401606425703" fill="#000000" r="5"/>
<circle cx="334" cy="-3.691816367265469" fill="#000000" r="5"/>
<circle cx="336" cy="-3.683333333333333" fill="#000000" r="5"/>
<circle cx="338" cy="-3.6749506903353053" fill="#000000" r="5"/>
<circle cx="340" cy="-3.6666666666666665" fill="#000000" r="5"/>
<circle cx="342" cy="-3.658479532163742" fill="#000000" r="5"/>
<circle cx="344" cy="-3.6503875968992245" fill="#000000" r="5"/>
<circle cx="346" cy="-3.6423892100192683" fill="#000000" r="5"/>
<circle cx="348" cy="-3.6344827586206896" fill="#000000" r="5"/>
<circle cx="350" cy="-3.6266666666666665" fill="#000000" r="5"/>
<circle cx="352" cy="-3.6189393939393937" fill="#000000" r="5"/>
<circle cx="354" cy="-3.6112994350282484" fill="#000000" r="5"/>
<circle cx="356" cy="-3.6037453183520594" fill="#000000" r="5"/>
<circle cx="358" cy="-3.596275605214153" fill="#000000" r="5"/>
<circle cx="360" cy="-3.588888888888889" fill="#000000" r="5"/>
<circle cx="362" cy="-3.5815837937384907" fill="#000000" r="5"/>
<circle cx="364" cy="-3.574358974358974" fill="#000000" r="5"/>
<circle cx="366" cy="-3.567213114754098" fill="#000000" r="5"/>
<circle cx="368" cy="-3.560144927536232" fill="#000000" r="5"/>
<circle cx="370" cy="-3.553153153153153" fill="#000000" r="5"/>
<circle cx="372" cy="-3.546236559139785" fill="#000000" r="5"/>
<circle cx="374" cy="-3.5393939393939395" fill="#000000" r="5"/>
<circle cx="376" cy="-3.5326241134751775" fill="#000000" r="5"/>
<circle cx="378" cy="-3.5259259259259257" fill="#000000" r="5"/>
<circle cx="380" cy="-3.5192982456140354" fill="#000000" r="5"/>
<circle cx="382" cy="-3.5127399650959865" fill="#000000" r="5"/>
<circle cx="384" cy="-3.50625" fill="#000000" r="5"/>
<circle cx="386" cy="-3.4998272884283246" fill="#000000" r="5"/>
<circle cx="388" cy="-3.4934707903780065" fill="#000000" r="5"/>
<circle cx="390" cy="-3.4871794871794877" fill="#000000" r="5"/>
<circle cx="392" cy="-3.480952380952381" fill="#000000" r="5"/>
<circle cx="394" cy="-3.4747884940778344" fill="#000000" r="5"/>
<circle cx="396" cy="-3.4686868686868686" fill="#000000" r="5"/>
<circle cx="398" cy="-3.4626465661641546" fill="#000000" r="5"/>
</g>
<g>
<g>
<line stroke="black" stroke-width="1" x1="0" x2="0" y1="0" y2="10"/>
<line stroke="black" stroke-width="1" x1="100" x2="100" y1="0" y2="10"/>
<line stroke="black" stroke-width="1" x1="200" x2="200" y1="0" y2="10"/>
<line stroke="black" stroke-width="1" x1="300" x2="300" y1="0" y2="10"/>
<line stroke="black" stroke-width="1" x1="400" x2="400" y1="0" y2="10"/>
<line stroke="black" stroke-width="1" x1="500" x2="500" y1="0" y2="10"/>
</g>
<line stroke="black" stroke-width="1" x1="0" x2="500" y1="0" y2="0"/>
<g>
<text font-size="12" text-anchor="middle" x="0" y="20">
0
</text>
<text font-size="12" text-anchor="middle" x="100" y="20">
50000
</text>
<text font-size="12" text-anchor="middle" x="200" y="20">
100000
</text>
<text font-size="12" text-anchor="middle" x="300" y="20">
150000
</text>
<text font-size="12" text-anchor="middle" x="400" y="20">
200000
</text>
<text font-size="12" text-anchor="middle" x="500" y="20">
250000
</text>
</g>
<text font-size="12" text-anchor="middle" x="250" y="30">
Gas
</text>
</g>
<g>
<g>
<line stroke="black" stroke-width="1" x1="0" x2="-10" y1="0" y2="0"/>
<line stroke="black" stroke-width="1" x1="0" x2="-10" y1="-113.33333333333333" y2="-113.33333333333333"/>
<line stroke="black" stroke-width="1" x1="0" x2="-10" y1="-226.66666666666666" y2="-226.66666666666666"/>
<line stroke="black" stroke-width="1" x1="0" x2="-10" y1="-340" y2="-340"/>
</g>
<line stroke="black" stroke-0="1" x1="0" x2="0" y1="0" y2="-340"/>
<g>
<text dominant-baseline="middle" font-size="12" text-anchor="end" x="-15" y="0">
0
</text>
<text dominant-baseline="middle" font-size="12" text-anchor="end" x="-15" y="-113.33333333333333">
50000
</text>
<text dominant-baseline="middle" font-size="12" text-anchor="end" x="-15" y="-226.66666666666666">
100000
</text>
<text dominant-baseline="middle" font-size="12" text-anchor="end" x="-15" y="-340">
150000
</text>
</g>
<text font-size="12" text-anchor="middle" transform="rotate(-90 -30 -170)" x="-30" y="-170">
Score
</text>
</g>
</g>
</svg>