<svg viewBox="0 0 600 400" xmlns="http://www.w3.org/2000/svg">
<g transform="translate(50, 360)">
<g>
<circle cx="0" cy="-277.16460544" fill="#000000" r="5"/>
<circle cx="2.5" cy="-275.77196544" fill="#000000" r="5"/>
<circle cx="5" cy="-274.37932544" fill="#000000" r="5"/>
<circle cx="7.5" cy="-272.98668544" fill="#000000" r="5"/>
<circle cx="10" cy="-271.59404544" fill="#000000" r="5"/>
<circle cx="12.5" cy="-270.20140544" fill="#000000" r="5"/>
<circle cx="15" cy="-268.80876544" fill="#000000" r="5"/>
<circle cx="17.5" cy="-267.41612544" fill="#000000" r="5"/>
<circle cx="20" cy="-266.02348544" fill="#000000" r="5"/>
<circle cx="22.5" cy="-264.63084544" fill="#000000" r="5"/>
<circle cx="25" cy="-263.23820544" fill="#000000" r="5"/>
<circle cx="27.5" cy="-261.84556544" fill="#000000" r="5"/>
<circle cx="30" cy="-260.45292544" fill="#000000" r="5"/>
<circle cx="32.5" cy="-259.06028544" fill="#000000" r="5"/>
<circle cx="35" cy="-257.66764544" fill="#000000" r="5"/>
<circle cx="37.5" cy="-256.27500544" fill="#000000" r="5"/>
<circle cx="40" cy="-254.88236544" fill="#000000" r="5"/>
<circle cx="42.5" cy="-253.48972544" fill="#000000" r="5"/>
<circle cx="45" cy="-252.09708544" fill="#000000" r="5"/>
<circle cx="47.5" cy="-250.70444544" fill="#000000" r="5"/>
<circle cx="50" cy="-249.31180544" fill="#000000" r="5"/>
<circle cx="52.5" cy="-247.91916544" fill="#000000" r="5"/>
<circle cx="55" cy="-246.52652544" fill="#000000" r="5"/>
<circle cx="57.5" cy="-245.13388544" fill="#000000" r="5"/>
<circle cx="60" cy="-243.74124544" fill="#000000" r="5"/>
<circle cx="62.5" cy="-242.34860544" fill="#000000" r="5"/>
<circle cx="65" cy="-240.95596544" fill="#000000" r="5"/>
<circle cx="67.5" cy="-239.56332544" fill="#000000" r="5"/>
<circle cx="70" cy="-238.17068544" fill="#000000" r="5"/>
<circle cx="72.5" cy="-236.77804544" fill="#000000" r="5"/>
<circle cx="75" cy="-235.38540544" fill="#000000" r="5"/>
<circle cx="77.5" cy="-233.99276544" fill="#000000" r="5"/>
<circle cx="80" cy="-232.60012544" fill="#000000" r="5"/>
<circle cx="82.5" cy="-231.20748544" fill="#000000" r="5"/>
<circle cx="85" cy="-229.81484544" fill="#000000" r="5"/>
<circle cx="87.5" cy="-228.42220544" fill="#000000" r="5"/>
<circle cx="90" cy="-227.02956544" fill="#000000" r="5"/>
<circle cx="92.5" cy="-225.63692544" fill="#000000" r="5"/>
<circle cx="95" cy="-224.24428544" fill="#000000" r="5"/>
<circle cx="97.5" cy="-222.85164544" fill="#000000" r="5"/>
<circle cx="100" cy="-221.45900544" fill="#000000" r="5"/>
<circle cx="102.5" cy="-220.06636544" fill="#000000" r="5"/>
<circle cx="105" cy="-218.67372544" fill="#000000" r="5"/>
<circle cx="107.5" cy="-217.28108544" fill="#000000" r="5"/>
<circle cx="110" cy="-215.88844544" fill="#000000" r="5"/>
<circle cx="112.5" cy="-214.49580544" fill="#000000" r="5"/>
<circle cx="115" cy="-213.10316544" fill="#000000" r="5"/>
<circle cx="117.5" cy="-211.71052544" fill="#000000" r="5"/>
<circle cx="120" cy="-210.31788544" fill="#000000" r="5"/>
<circle cx="122.5" cy="-208.92524544" fill="#000000" r="5"/>
<circle cx="125" cy="-207.53260544" fill="#000000" r="5"/>
<circle cx="127.5" cy="-206.13996544" fill="#000000" r="5"/>
<circle cx="130" cy="-204.74732544" fill="#000000" r="5"/>
<circle cx="132.5" cy="-203.35468544" fill="#000000" r="5"/>
<circle cx="135" cy="-201.96204544" fill="#000000" r="5"/>
<circle cx="137.5" cy="-200.56940544" fill="#000000" r="5"/>
<circle cx="140" cy="-199.17676544" fill="#000000" r="5"/>
<circle cx="142.5" cy="-197.78412544" fill="#000000" r="5"/>
<circle cx="145" cy="-196.39148544" fill="#000000" r="5"/>
<circle cx="147.5" cy="-194.99884544" fill="#000000" r="5"/>
<circle cx="150" cy="-193.60620544" fill="#000000" r="5"/>
<circle cx="152.5" cy="-192.21356544" fill="#000000" r="5"/>
<circle cx="155" cy="-190.82092544" fill="#000000" r="5"/>
<circle cx="157.5" cy="-189.42828544" fill="#000000" r="5"/>
<circle cx="160" cy="-188.03564544" fill="#000000" r="5"/>
<circle cx="162.5" cy="-186.64300544" fill="#000000" r="5"/>
<circle cx="165" cy="-185.25036544" fill="#000000" r="5"/>
<circle cx="167.5" cy="-183.85772544" fill="#000000" r="5"/>
<circle cx="170" cy="-182.46508544" fill="#000000" r="5"/>
<circle cx="172.5" cy="-181.07244544" fill="#000000" r="5"/>
<circle cx="175" cy="-179.67980544" fill="#000000" r="5"/>
<circle cx="177.5" cy="-178.28716544" fill="#000000" r="5"/>
<circle cx="180" cy="-176.89452544" fill="#000000" r="5"/>
<circle cx="182.5" cy="-175.50188544" fill="#000000" r="5"/>
<circle cx="185" cy="-174.10924544" fill="#000000" r="5"/>
<circle cx="187.5" cy="-172.71660544" fill="#000000" r="5"/>
<circle cx="190" cy="-171.32396544" fill="#000000" r="5"/>
<circle cx="192.5" cy="-169.93132544" fill="#000000" r="5"/>
<circle cx="195" cy="-168.53868544" fill="#000000" r="5"/>
<circle cx="197.5" cy="-167.14604544" fill="#000000" r="5"/>
<circle cx="200" cy="-165.75340544" fill="#000000" r="5"/>
<circle cx="202.5" cy="-164.36076544" fill="#000000" r="5"/>
<circle cx="205" cy="-162.96812544" fill="#000000" r="5"/>
<circle cx="207.5" cy="-161.57548544" fill="#000000" r="5"/>
<circle cx="210" cy="-160.18284544" fill="#000000" r="5"/>
<circle cx="212.5" cy="-158.79020544" fill="#000000" r="5"/>
<circle cx="215" cy="-157.39756544" fill="#000000" r="5"/>
<circle cx="217.5" cy="-156.00492544" fill="#000000" r="5"/>
<circle cx="220" cy="-154.61228544" fill="#000000" r="5"/>
<circle cx="222.5" cy="-153.21964544" fill="#000000" r="5"/>
<circle cx="225" cy="-151.82700544" fill="#000000" r="5"/>
<circle cx="227.5" cy="-150.43436544" fill="#000000" r="5"/>
<circle cx="230" cy="-149.04172544" fill="#000000" r="5"/>
<circle cx="232.5" cy="-147.64908544" fill="#000000" r="5"/>
<circle cx="235" cy="-146.25644544" fill="#000000" r="5"/>
<circle cx="237.5" cy="-144.86380544" fill="#000000" r="5"/>
<circle cx="240" cy="-143.47116544" fill="#000000" r="5"/>
<circle cx="242.5" cy="-142.07852544" fill="#000000" r="5"/>
<circle cx="245" cy="-140.68588544" fill="#000000" r="5"/>
<circle cx="247.5" cy="-139.29324544" fill="#000000" r="5"/>
<circle cx="250" cy="-137.90060544" fill="#000000" r="5"/>
<circle cx="252.5" cy="-136.50796544" fill="#000000" r="5"/>
<circle cx="255" cy="-135.11532544" fill="#000000" r="5"/>
<circle cx="257.5" cy="-133.72268544" fill="#000000" r="5"/>
<circle cx="260" cy="-132.33004544" fill="#000000" r="5"/>
<circle cx="262.5" cy="-130.93740544" fill="#000000" r="5"/>
<circle cx="265" cy="-129.54476544" fill="#000000" r="5"/>
<circle cx="267.5" cy="-128.15212544" fill="#000000" r="5"/>
<circle cx="270" cy="-126.75948544" fill="#000000" r="5"/>
<circle cx="272.5" cy="-125.36684544" fill="#000000" r="5"/>
<circle cx="275" cy="-123.97420544" fill="#000000" r="5"/>
<circle cx="277.5" cy="-122.58156544" fill="#000000" r="5"/>
<circle cx="280" cy="-121.18892544" fill="#000000" r="5"/>
<circle cx="282.5" cy="-119.79628544" fill="#000000" r="5"/>
<circle cx="285" cy="-118.40364544" fill="#000000" r="5"/>
<circle cx="287.5" cy="-117.01100544" fill="#000000" r="5"/>
<circle cx="290" cy="-115.61836544" fill="#000000" r="5"/>
<circle cx="292.5" cy="-114.22572544" fill="#000000" r="5"/>
<circle cx="295" cy="-112.83308544" fill="#000000" r="5"/>
<circle cx="297.5" cy="-111.44044544" fill="#000000" r="5"/>
<circle cx="300" cy="-110.04780544" fill="#000000" r="5"/>
<circle cx="302.5" cy="-108.65516544" fill="#000000" r="5"/>
<circle cx="305" cy="-107.26252544" fill="#000000" r="5"/>
<circle cx="307.5" cy="-105.86988544" fill="#000000" r="5"/>
<circle cx="310" cy="-104.47724544" fill="#000000" r="5"/>
<circle cx="312.5" cy="-103.08460544" fill="#000000" r="5"/>
<circle cx="315" cy="-101.69196544" fill="#000000" r="5"/>
<circle cx="317.5" cy="-100.29932544" fill="#000000" r="5"/>
<circle cx="320" cy="-98.90668544" fill="#000000" r="5"/>
<circle cx="322.5" cy="-97.51404544" fill="#000000" r="5"/>
<circle cx="325" cy="-96.12140544" fill="#000000" r="5"/>
<circle cx="327.5" cy="-94.72876544" fill="#000000" r="5"/>
<circle cx="330" cy="-93.33612544" fill="#000000" r="5"/>
<circle cx="332.5" cy="-91.94348544" fill="#000000" r="5"/>
<circle cx="335" cy="-90.55084544" fill="#000000" r="5"/>
<circle cx="337.5" cy="-89.15820544" fill="#000000" r="5"/>
<circle cx="340" cy="-87.76556544" fill="#000000" r="5"/>
<circle cx="342.5" cy="-86.37292544" fill="#000000" r="5"/>
<circle cx="345" cy="-84.98028544" fill="#000000" r="5"/>
<circle cx="347.5" cy="-83.58764544" fill="#000000" r="5"/>
<circle cx="350" cy="-82.19500544" fill="#000000" r="5"/>
<circle cx="352.5" cy="-80.80236544" fill="#000000" r="5"/>
<circle cx="355" cy="-79.40972544" fill="#000000" r="5"/>
<circle cx="357.5" cy="-78.01708544" fill="#000000" r="5"/>
<circle cx="360" cy="-76.62444544" fill="#000000" r="5"/>
<circle cx="362.5" cy="-75.23180544" fill="#000000" r="5"/>
<circle cx="365" cy="-73.83916544" fill="#000000" r="5"/>
<circle cx="367.5" cy="-72.44652544" fill="#000000" r="5"/>
<circle cx="370" cy="-71.05388544" fill="#000000" r="5"/>
<circle cx="372.5" cy="-69.66124544" fill="#000000" r="5"/>
<circle cx="375" cy="-68.26860544" fill="#000000" r="5"/>
<circle cx="377.5" cy="-66.87596544" fill="#000000" r="5"/>
<circle cx="380" cy="-65.48332544" fill="#000000" r="5"/>
<circle cx="382.5" cy="-64.09068544" fill="#000000" r="5"/>
<circle cx="385" cy="-62.69804544" fill="#000000" r="5"/>
<circle cx="387.5" cy="-61.30540544" fill="#000000" r="5"/>
<circle cx="390" cy="-59.91276544" fill="#000000" r="5"/>
<circle cx="392.5" cy="-58.52012544" fill="#000000" r="5"/>
<circle cx="395" cy="-57.12748544" fill="#000000" r="5"/>
<circle cx="397.5" cy="-55.73484544" fill="#000000" r="5"/>
<circle cx="400" cy="-54.34220544" fill="#000000" r="5"/>
<circle cx="402.5" cy="-52.94956544" fill="#000000" r="5"/>
<circle cx="405" cy="-51.55692544" fill="#000000" r="5"/>
<circle cx="407.5" cy="-50.16428544" fill="#000000" r="5"/>
<circle cx="410" cy="-48.77164544" fill="#000000" r="5"/>
<circle cx="412.5" cy="-47.37900544" fill="#000000" r="5"/>
<circle cx="415" cy="-45.98636544" fill="#000000" r="5"/>
<circle cx="417.5" cy="-44.59372544" fill="#000000" r="5"/>
<circle cx="420" cy="-43.20108544" fill="#000000" r="5"/>
<circle cx="422.5" cy="-41.80844544" fill="#000000" r="5"/>
<circle cx="425" cy="-40.41580544" fill="#000000" r="5"/>
<circle cx="427.5" cy="-39.02316544" fill="#000000" r="5"/>
<circle cx="430" cy="-37.63052544" fill="#000000" r="5"/>
<circle cx="432.5" cy="-36.23788544" fill="#000000" r="5"/>
<circle cx="435" cy="-34.84524544" fill="#000000" r="5"/>
<circle cx="437.5" cy="-33.45260544" fill="#000000" r="5"/>
<circle cx="440" cy="-32.05996544" fill="#000000" r="5"/>
<circle cx="442.5" cy="-30.66732544" fill="#000000" r="5"/>
<circle cx="445" cy="-29.27468544" fill="#000000" r="5"/>
<circle cx="447.5" cy="-27.88204544" fill="#000000" r="5"/>
<circle cx="450" cy="-26.48940544" fill="#000000" r="5"/>
<circle cx="452.5" cy="-25.09676544" fill="#000000" r="5"/>
<circle cx="455" cy="-23.70412544" fill="#000000" r="5"/>
<circle cx="457.5" cy="-22.31148544" fill="#000000" r="5"/>
<circle cx="460" cy="-20.91884544" fill="#000000" r="5"/>
<circle cx="462.5" cy="-19.52620544" fill="#000000" r="5"/>
<circle cx="465" cy="-18.13356544" fill="#000000" r="5"/>
<circle cx="467.5" cy="-16.74092544" fill="#000000" r="5"/>
<circle cx="470" cy="-15.34828544" fill="#000000" r="5"/>
<circle cx="472.5" cy="-13.95564544" fill="#000000" r="5"/>
<circle cx="475" cy="-12.56300544" fill="#000000" r="5"/>
<circle cx="477.5" cy="-11.17036544" fill="#000000" r="5"/>
<circle cx="480" cy="-9.77772544" fill="#000000" r="5"/>
<circle cx="482.5" cy="-8.38508544" fill="#000000" r="5"/>
<circle cx="485" cy="-6.99244544" fill="#000000" r="5"/>
<circle cx="487.5" cy="-5.59980544" fill="#000000" r="5"/>
<circle cx="490" cy="-4.20716544" fill="#000000" r="5"/>
<circle cx="492.5" cy="-2.81452544" fill="#000000" r="5"/>
<circle cx="495" cy="-1.42188544" fill="#000000" r="5"/>
<circle cx="497.5" cy="-0.02924544" fill="#000000" r="5"/>
</g>
<g>
<g>
<line stroke="black" stroke-width="1" x1="0" x2="0" y1="0" y2="10"/>
<line stroke="black" stroke-width="1" x1="100" x2="100" y1="0" y2="10"/>
<line stroke="black" stroke-width="1" x1="200" x2="200" y1="0" y2="10"/>
<line stroke="black" stroke-width="1" x1="300" x2="300" y1="0" y2="10"/>
<line stroke="black" stroke-width="1" x1="400" x2="400" y1="0" y2="10"/>
<line stroke="black" stroke-width="1" x1="500" x2="500" y1="0" y2="10"/>
</g>
<line stroke="black" stroke-width="1" x1="0" x2="500" y1="0" y2="0"/>
<g>
<text font-size="12" text-anchor="middle" x="0" y="20">
0
</text>
<text font-size="12" text-anchor="middle" x="100" y="20">
40000
</text>
<text font-size="12" text-anchor="middle" x="200" y="20">
80000
</text>
<text font-size="12" text-anchor="middle" x="300" y="20">
120000
</text>
<text font-size="12" text-anchor="middle" x="400" y="20">
160000
</text>
<text font-size="12" text-anchor="middle" x="500" y="20">
200000
</text>
</g>
<text font-size="12" text-anchor="middle" x="250" y="30">
Gas Price
</text>
</g>
<g>
<g>
<line stroke="black" stroke-width="1" x1="0" x2="-10" y1="0" y2="0"/>
<line stroke="black" stroke-width="1" x1="0" x2="-10" y1="-85" y2="-85"/>
<line stroke="black" stroke-width="1" x1="0" x2="-10" y1="-170" y2="-170"/>
<line stroke="black" stroke-width="1" x1="0" x2="-10" y1="-255" y2="-255"/>
<line stroke="black" stroke-width="1" x1="0" x2="-10" y1="-340" y2="-340"/>
</g>
<line stroke="black" stroke-0="1" x1="0" x2="0" y1="0" y2="-340"/>
<g>
<text dominant-baseline="middle" font-size="12" text-anchor="end" x="-15" y="0">
0
</text>
<text dominant-baseline="middle" font-size="12" text-anchor="end" x="-15" y="-85">
2000000000
</text>
<text dominant-baseline="middle" font-size="12" text-anchor="end" x="-15" y="-170">
4000000000
</text>
<text dominant-baseline="middle" font-size="12" text-anchor="end" x="-15" y="-255">
6000000000
</text>
<text dominant-baseline="middle" font-size="12" text-anchor="end" x="-15" y="-340">
8000000000
</text>
</g>
<text font-size="12" text-anchor="middle" transform="rotate(-90 -30 -170)" x="-30" y="-170">
Score
</text>
</g>
</g>
</svg>