<svg viewBox="0 0 600 400" xmlns="http://www.w3.org/2000/svg">
<g transform="translate(50, 360)">
<g>
<circle cx="0" cy="-270.66856" fill="#000000" r="5"/>
<circle cx="2.272727272727273" cy="-269.30856" fill="#000000" r="5"/>
<circle cx="4.545454545454546" cy="-267.94856" fill="#000000" r="5"/>
<circle cx="6.818181818181818" cy="-266.58856" fill="#000000" r="5"/>
<circle cx="9.090909090909092" cy="-265.22856" fill="#000000" r="5"/>
<circle cx="11.363636363636363" cy="-263.86856" fill="#000000" r="5"/>
<circle cx="13.636363636363637" cy="-262.50856" fill="#000000" r="5"/>
<circle cx="15.909090909090908" cy="-261.14856" fill="#000000" r="5"/>
<circle cx="18.181818181818183" cy="-259.78856" fill="#000000" r="5"/>
<circle cx="20.454545454545453" cy="-258.42856" fill="#000000" r="5"/>
<circle cx="22.727272727272727" cy="-257.06856" fill="#000000" r="5"/>
<circle cx="25" cy="-255.70856" fill="#000000" r="5"/>
<circle cx="27.272727272727273" cy="-254.34856" fill="#000000" r="5"/>
<circle cx="29.545454545454547" cy="-252.98856" fill="#000000" r="5"/>
<circle cx="31.818181818181817" cy="-251.62856" fill="#000000" r="5"/>
<circle cx="34.09090909090909" cy="-250.26856" fill="#000000" r="5"/>
<circle cx="36.36363636363637" cy="-248.90856" fill="#000000" r="5"/>
<circle cx="38.63636363636363" cy="-247.54856" fill="#000000" r="5"/>
<circle cx="40.90909090909091" cy="-246.18856" fill="#000000" r="5"/>
<circle cx="43.18181818181818" cy="-244.82856" fill="#000000" r="5"/>
<circle cx="45.45454545454545" cy="-243.46856" fill="#000000" r="5"/>
<circle cx="47.72727272727273" cy="-242.10856" fill="#000000" r="5"/>
<circle cx="50" cy="-240.74856" fill="#000000" r="5"/>
<circle cx="52.27272727272727" cy="-239.38856" fill="#000000" r="5"/>
<circle cx="54.54545454545455" cy="-238.02856" fill="#000000" r="5"/>
<circle cx="56.81818181818182" cy="-236.66856" fill="#000000" r="5"/>
<circle cx="59.09090909090909" cy="-235.30856" fill="#000000" r="5"/>
<circle cx="61.36363636363637" cy="-233.94856" fill="#000000" r="5"/>
<circle cx="63.63636363636363" cy="-232.58856" fill="#000000" r="5"/>
<circle cx="65.9090909090909" cy="-231.22856" fill="#000000" r="5"/>
<circle cx="68.18181818181819" cy="-229.86856" fill="#000000" r="5"/>
<circle cx="70.45454545454545" cy="-228.50856" fill="#000000" r="5"/>
<circle cx="72.72727272727273" cy="-227.14856" fill="#000000" r="5"/>
<circle cx="75" cy="-225.78856" fill="#000000" r="5"/>
<circle cx="77.27272727272727" cy="-224.42856" fill="#000000" r="5"/>
<circle cx="79.54545454545455" cy="-223.06856" fill="#000000" r="5"/>
<circle cx="81.81818181818181" cy="-221.70856" fill="#000000" r="5"/>
<circle cx="84.0909090909091" cy="-220.34856" fill="#000000" r="5"/>
<circle cx="86.36363636363636" cy="-218.98856" fill="#000000" r="5"/>
<circle cx="88.63636363636364" cy="-217.62856" fill="#000000" r="5"/>
<circle cx="90.9090909090909" cy="-216.26856" fill="#000000" r="5"/>
<circle cx="93.18181818181819" cy="-214.90856" fill="#000000" r="5"/>
<circle cx="95.45454545454545" cy="-213.54856" fill="#000000" r="5"/>
<circle cx="97.72727272727273" cy="-212.18856" fill="#000000" r="5"/>
<circle cx="100" cy="-210.82856" fill="#000000" r="5"/>
<circle cx="102.27272727272727" cy="-209.46856" fill="#000000" r="5"/>
<circle cx="104.54545454545455" cy="-208.10856" fill="#000000" r="5"/>
<circle cx="106.81818181818181" cy="-206.74856" fill="#000000" r="5"/>
<circle cx="109.0909090909091" cy="-205.38856" fill="#000000" r="5"/>
<circle cx="111.36363636363636" cy="-204.02856" fill="#000000" r="5"/>
<circle cx="113.63636363636364" cy="-202.66856" fill="#000000" r="5"/>
<circle cx="115.9090909090909" cy="-201.30856" fill="#000000" r="5"/>
<circle cx="118.18181818181819" cy="-199.94856" fill="#000000" r="5"/>
<circle cx="120.45454545454545" cy="-198.58856" fill="#000000" r="5"/>
<circle cx="122.72727272727273" cy="-197.22856" fill="#000000" r="5"/>
<circle cx="125" cy="-195.86856" fill="#000000" r="5"/>
<circle cx="127.27272727272727" cy="-194.50856" fill="#000000" r="5"/>
<circle cx="129.54545454545453" cy="-193.14856" fill="#000000" r="5"/>
<circle cx="131.8181818181818" cy="-191.78856" fill="#000000" r="5"/>
<circle cx="134.0909090909091" cy="-190.42856" fill="#000000" r="5"/>
<circle cx="136.36363636363637" cy="-189.06856" fill="#000000" r="5"/>
<circle cx="138.63636363636363" cy="-187.70856" fill="#000000" r="5"/>
<circle cx="140.9090909090909" cy="-186.34856" fill="#000000" r="5"/>
<circle cx="143.1818181818182" cy="-184.98856" fill="#000000" r="5"/>
<circle cx="145.45454545454547" cy="-183.62856" fill="#000000" r="5"/>
<circle cx="147.72727272727272" cy="-182.26856" fill="#000000" r="5"/>
<circle cx="150" cy="-180.90856" fill="#000000" r="5"/>
<circle cx="152.27272727272728" cy="-179.54856" fill="#000000" r="5"/>
<circle cx="154.54545454545453" cy="-178.18856" fill="#000000" r="5"/>
<circle cx="156.8181818181818" cy="-176.82856" fill="#000000" r="5"/>
<circle cx="159.0909090909091" cy="-175.46856" fill="#000000" r="5"/>
<circle cx="161.36363636363637" cy="-174.10856" fill="#000000" r="5"/>
<circle cx="163.63636363636363" cy="-172.74856" fill="#000000" r="5"/>
<circle cx="165.9090909090909" cy="-171.38856" fill="#000000" r="5"/>
<circle cx="168.1818181818182" cy="-170.02856" fill="#000000" r="5"/>
<circle cx="170.45454545454547" cy="-168.66856" fill="#000000" r="5"/>
<circle cx="172.72727272727272" cy="-167.30856" fill="#000000" r="5"/>
<circle cx="175" cy="-165.94856" fill="#000000" r="5"/>
<circle cx="177.27272727272728" cy="-164.58856" fill="#000000" r="5"/>
<circle cx="179.54545454545453" cy="-163.22856" fill="#000000" r="5"/>
<circle cx="181.8181818181818" cy="-161.86856" fill="#000000" r="5"/>
<circle cx="184.0909090909091" cy="-160.50856" fill="#000000" r="5"/>
<circle cx="186.36363636363637" cy="-159.14856" fill="#000000" r="5"/>
<circle cx="188.63636363636363" cy="-157.78856" fill="#000000" r="5"/>
<circle cx="190.9090909090909" cy="-156.42856" fill="#000000" r="5"/>
<circle cx="193.1818181818182" cy="-155.06856" fill="#000000" r="5"/>
<circle cx="195.45454545454547" cy="-153.70856" fill="#000000" r="5"/>
<circle cx="197.72727272727272" cy="-152.34856" fill="#000000" r="5"/>
<circle cx="200" cy="-150.98856" fill="#000000" r="5"/>
<circle cx="202.27272727272728" cy="-149.62856" fill="#000000" r="5"/>
<circle cx="204.54545454545453" cy="-148.26856" fill="#000000" r="5"/>
<circle cx="206.8181818181818" cy="-146.90856" fill="#000000" r="5"/>
<circle cx="209.0909090909091" cy="-145.54856" fill="#000000" r="5"/>
<circle cx="211.36363636363637" cy="-144.18856" fill="#000000" r="5"/>
<circle cx="213.63636363636363" cy="-142.82856" fill="#000000" r="5"/>
<circle cx="215.9090909090909" cy="-141.46856" fill="#000000" r="5"/>
<circle cx="218.1818181818182" cy="-140.10856" fill="#000000" r="5"/>
<circle cx="220.45454545454547" cy="-138.74856" fill="#000000" r="5"/>
<circle cx="222.72727272727272" cy="-137.38856" fill="#000000" r="5"/>
<circle cx="225" cy="-136.02856" fill="#000000" r="5"/>
<circle cx="227.27272727272728" cy="-134.66856" fill="#000000" r="5"/>
<circle cx="229.54545454545453" cy="-133.30856" fill="#000000" r="5"/>
<circle cx="231.8181818181818" cy="-131.94856" fill="#000000" r="5"/>
<circle cx="234.0909090909091" cy="-130.58856" fill="#000000" r="5"/>
<circle cx="236.36363636363637" cy="-129.22856" fill="#000000" r="5"/>
<circle cx="238.63636363636363" cy="-127.86856" fill="#000000" r="5"/>
<circle cx="240.9090909090909" cy="-126.50856" fill="#000000" r="5"/>
<circle cx="243.1818181818182" cy="-125.14856" fill="#000000" r="5"/>
<circle cx="245.45454545454547" cy="-123.78856" fill="#000000" r="5"/>
<circle cx="247.72727272727272" cy="-122.42856" fill="#000000" r="5"/>
<circle cx="250" cy="-121.06856" fill="#000000" r="5"/>
<circle cx="252.27272727272728" cy="-119.70856" fill="#000000" r="5"/>
<circle cx="254.54545454545453" cy="-118.34856" fill="#000000" r="5"/>
<circle cx="256.8181818181818" cy="-116.98856" fill="#000000" r="5"/>
<circle cx="259.09090909090907" cy="-115.62856" fill="#000000" r="5"/>
<circle cx="261.3636363636364" cy="-114.26856" fill="#000000" r="5"/>
<circle cx="263.6363636363636" cy="-112.90856" fill="#000000" r="5"/>
<circle cx="265.90909090909093" cy="-111.54856" fill="#000000" r="5"/>
<circle cx="268.1818181818182" cy="-110.18856" fill="#000000" r="5"/>
<circle cx="270.45454545454544" cy="-108.82856" fill="#000000" r="5"/>
<circle cx="272.72727272727275" cy="-107.46856" fill="#000000" r="5"/>
<circle cx="275" cy="-106.10856" fill="#000000" r="5"/>
<circle cx="277.27272727272725" cy="-104.74856" fill="#000000" r="5"/>
<circle cx="279.54545454545456" cy="-103.38856" fill="#000000" r="5"/>
<circle cx="281.8181818181818" cy="-102.02856" fill="#000000" r="5"/>
<circle cx="284.09090909090907" cy="-100.66856" fill="#000000" r="5"/>
<circle cx="286.3636363636364" cy="-99.30856" fill="#000000" r="5"/>
<circle cx="288.6363636363636" cy="-97.94856" fill="#000000" r="5"/>
<circle cx="290.90909090909093" cy="-96.58856" fill="#000000" r="5"/>
<circle cx="293.1818181818182" cy="-95.22856" fill="#000000" r="5"/>
<circle cx="295.45454545454544" cy="-93.86856" fill="#000000" r="5"/>
<circle cx="297.72727272727275" cy="-92.50856" fill="#000000" r="5"/>
<circle cx="300" cy="-91.14856" fill="#000000" r="5"/>
<circle cx="302.27272727272725" cy="-89.78856" fill="#000000" r="5"/>
<circle cx="304.54545454545456" cy="-88.42856" fill="#000000" r="5"/>
<circle cx="306.8181818181818" cy="-87.06856" fill="#000000" r="5"/>
<circle cx="309.09090909090907" cy="-85.70856" fill="#000000" r="5"/>
<circle cx="311.3636363636364" cy="-84.34856" fill="#000000" r="5"/>
<circle cx="313.6363636363636" cy="-82.98856" fill="#000000" r="5"/>
<circle cx="315.90909090909093" cy="-81.62856" fill="#000000" r="5"/>
<circle cx="318.1818181818182" cy="-80.26856" fill="#000000" r="5"/>
<circle cx="320.45454545454544" cy="-78.90856" fill="#000000" r="5"/>
<circle cx="322.72727272727275" cy="-77.54856" fill="#000000" r="5"/>
<circle cx="325" cy="-76.18856" fill="#000000" r="5"/>
<circle cx="327.27272727272725" cy="-74.82856" fill="#000000" r="5"/>
<circle cx="329.54545454545456" cy="-73.46856" fill="#000000" r="5"/>
<circle cx="331.8181818181818" cy="-72.10856" fill="#000000" r="5"/>
<circle cx="334.09090909090907" cy="-70.74856" fill="#000000" r="5"/>
<circle cx="336.3636363636364" cy="-69.38856" fill="#000000" r="5"/>
<circle cx="338.6363636363636" cy="-68.02856" fill="#000000" r="5"/>
<circle cx="340.90909090909093" cy="-66.66856" fill="#000000" r="5"/>
<circle cx="343.1818181818182" cy="-65.30856" fill="#000000" r="5"/>
<circle cx="345.45454545454544" cy="-63.94856" fill="#000000" r="5"/>
<circle cx="347.72727272727275" cy="-62.58856" fill="#000000" r="5"/>
<circle cx="350" cy="-61.22856" fill="#000000" r="5"/>
<circle cx="352.27272727272725" cy="-59.86856" fill="#000000" r="5"/>
<circle cx="354.54545454545456" cy="-58.50856" fill="#000000" r="5"/>
<circle cx="356.8181818181818" cy="-57.14856" fill="#000000" r="5"/>
<circle cx="359.09090909090907" cy="-55.78856" fill="#000000" r="5"/>
<circle cx="361.3636363636364" cy="-54.42856" fill="#000000" r="5"/>
<circle cx="363.6363636363636" cy="-53.06856" fill="#000000" r="5"/>
<circle cx="365.90909090909093" cy="-51.70856" fill="#000000" r="5"/>
<circle cx="368.1818181818182" cy="-50.34856" fill="#000000" r="5"/>
<circle cx="370.45454545454544" cy="-48.98856" fill="#000000" r="5"/>
<circle cx="372.72727272727275" cy="-47.62856" fill="#000000" r="5"/>
<circle cx="375" cy="-46.26856" fill="#000000" r="5"/>
<circle cx="377.27272727272725" cy="-44.90856" fill="#000000" r="5"/>
<circle cx="379.54545454545456" cy="-43.54856" fill="#000000" r="5"/>
<circle cx="381.8181818181818" cy="-42.18856" fill="#000000" r="5"/>
<circle cx="384.09090909090907" cy="-40.82856" fill="#000000" r="5"/>
<circle cx="386.3636363636364" cy="-39.46856" fill="#000000" r="5"/>
<circle cx="388.6363636363636" cy="-38.10856" fill="#000000" r="5"/>
<circle cx="390.90909090909093" cy="-36.74856" fill="#000000" r="5"/>
<circle cx="393.1818181818182" cy="-35.38856" fill="#000000" r="5"/>
<circle cx="395.45454545454544" cy="-34.02856" fill="#000000" r="5"/>
<circle cx="397.72727272727275" cy="-32.66856" fill="#000000" r="5"/>
<circle cx="400" cy="-31.30856" fill="#000000" r="5"/>
<circle cx="402.27272727272725" cy="-29.94856" fill="#000000" r="5"/>
<circle cx="404.54545454545456" cy="-28.58856" fill="#000000" r="5"/>
<circle cx="406.8181818181818" cy="-27.22856" fill="#000000" r="5"/>
<circle cx="409.09090909090907" cy="-25.86856" fill="#000000" r="5"/>
<circle cx="411.3636363636364" cy="-24.50856" fill="#000000" r="5"/>
<circle cx="413.6363636363636" cy="-23.14856" fill="#000000" r="5"/>
<circle cx="415.90909090909093" cy="-21.78856" fill="#000000" r="5"/>
<circle cx="418.1818181818182" cy="-20.42856" fill="#000000" r="5"/>
<circle cx="420.45454545454544" cy="-19.06856" fill="#000000" r="5"/>
<circle cx="422.72727272727275" cy="-17.70856" fill="#000000" r="5"/>
<circle cx="425" cy="-16.34856" fill="#000000" r="5"/>
<circle cx="427.27272727272725" cy="-14.98856" fill="#000000" r="5"/>
<circle cx="429.54545454545456" cy="-13.62856" fill="#000000" r="5"/>
<circle cx="431.8181818181818" cy="-12.26856" fill="#000000" r="5"/>
<circle cx="434.09090909090907" cy="-10.90856" fill="#000000" r="5"/>
<circle cx="436.3636363636364" cy="-9.54856" fill="#000000" r="5"/>
<circle cx="438.6363636363636" cy="-8.18856" fill="#000000" r="5"/>
<circle cx="440.90909090909093" cy="-6.82856" fill="#000000" r="5"/>
<circle cx="443.1818181818182" cy="-5.46856" fill="#000000" r="5"/>
<circle cx="445.45454545454544" cy="-4.10856" fill="#000000" r="5"/>
<circle cx="447.72727272727275" cy="-2.74856" fill="#000000" r="5"/>
<circle cx="450" cy="-1.38856" fill="#000000" r="5"/>
<circle cx="452.27272727272725" cy="-0.02856" fill="#000000" r="5"/>
</g>
<g>
<g>
<line stroke="black" stroke-width="1" x1="0" x2="0" y1="0" y2="10"/>
<line stroke="black" stroke-width="1" x1="90.9090909090909" x2="90.9090909090909" y1="0" y2="10"/>
<line stroke="black" stroke-width="1" x1="181.8181818181818" x2="181.8181818181818" y1="0" y2="10"/>
<line stroke="black" stroke-width="1" x1="272.72727272727275" x2="272.72727272727275" y1="0" y2="10"/>
<line stroke="black" stroke-width="1" x1="363.6363636363636" x2="363.6363636363636" y1="0" y2="10"/>
<line stroke="black" stroke-width="1" x1="454.54545454545456" x2="454.54545454545456" y1="0" y2="10"/>
</g>
<line stroke="black" stroke-width="1" x1="0" x2="500" y1="0" y2="0"/>
<g>
<text font-size="12" text-anchor="middle" x="0" y="20">
0
</text>
<text font-size="12" text-anchor="middle" x="90.9090909090909" y="20">
40000
</text>
<text font-size="12" text-anchor="middle" x="181.8181818181818" y="20">
80000
</text>
<text font-size="12" text-anchor="middle" x="272.72727272727275" y="20">
120000
</text>
<text font-size="12" text-anchor="middle" x="363.6363636363636" y="20">
160000
</text>
<text font-size="12" text-anchor="middle" x="454.54545454545456" y="20">
200000
</text>
</g>
<text font-size="12" text-anchor="middle" x="250" y="30">
Gas Price
</text>
</g>
<g>
<g>
<line stroke="black" stroke-width="1" x1="0" x2="-10" y1="0" y2="0"/>
<line stroke="black" stroke-width="1" x1="0" x2="-10" y1="-68" y2="-68"/>
<line stroke="black" stroke-width="1" x1="0" x2="-10" y1="-136" y2="-136"/>
<line stroke="black" stroke-width="1" x1="0" x2="-10" y1="-204" y2="-204"/>
<line stroke="black" stroke-width="1" x1="0" x2="-10" y1="-272" y2="-272"/>
<line stroke="black" stroke-width="1" x1="0" x2="-10" y1="-340" y2="-340"/>
</g>
<line stroke="black" stroke-0="1" x1="0" x2="0" y1="0" y2="-340"/>
<g>
<text dominant-baseline="middle" font-size="12" text-anchor="end" x="-15" y="0">
0
</text>
<text dominant-baseline="middle" font-size="12" text-anchor="end" x="-15" y="-68">
50000
</text>
<text dominant-baseline="middle" font-size="12" text-anchor="end" x="-15" y="-136">
100000
</text>
<text dominant-baseline="middle" font-size="12" text-anchor="end" x="-15" y="-204">
150000
</text>
<text dominant-baseline="middle" font-size="12" text-anchor="end" x="-15" y="-272">
200000
</text>
<text dominant-baseline="middle" font-size="12" text-anchor="end" x="-15" y="-340">
250000
</text>
</g>
<text font-size="12" text-anchor="middle" transform="rotate(-90 -30 -170)" x="-30" y="-170">
Score
</text>
</g>
</g>
</svg>