<svg viewBox="0 0 600 400" xmlns="http://www.w3.org/2000/svg">
<g transform="translate(50, 360)">
<g>
<circle cx="0" cy="-inf" fill="#000000" r="2"/>
<circle cx="25" cy="-357.07497787240106" fill="#000000" r="2"/>
<circle cx="50" cy="-357.03748762408776" fill="#000000" r="2"/>
<circle cx="75" cy="-357.0249913120301" fill="#000000" r="2"/>
<circle cx="100" cy="-357.0187432872126" fill="#000000" r="2"/>
<circle cx="125" cy="-357.01499452480573" fill="#000000" r="2"/>
<circle cx="150" cy="-357.0124953748599" fill="#000000" r="2"/>
<circle cx="175" cy="-357.01071028113745" fill="#000000" r="2"/>
<circle cx="200" cy="-357.00937125" fill="#000000" r="2"/>
<circle cx="225" cy="-357" fill="#000000" r="2"/>
</g>
<g>
<g>
<line stroke="black" stroke-width="1" x1="0" x2="0" y1="0" y2="10"/>
<line stroke="black" stroke-width="1" x1="100" x2="100" y1="0" y2="10"/>
<line stroke="black" stroke-width="1" x1="200" x2="200" y1="0" y2="10"/>
<line stroke="black" stroke-width="1" x1="300" x2="300" y1="0" y2="10"/>
<line stroke="black" stroke-width="1" x1="400" x2="400" y1="0" y2="10"/>
<line stroke="black" stroke-width="1" x1="500" x2="500" y1="0" y2="10"/>
</g>
<line stroke="black" stroke-width="1" x1="0" x2="500" y1="0" y2="0"/>
<g>
<text font-size="12" text-anchor="middle" x="0" y="20">
0
</text>
<text font-size="12" text-anchor="middle" x="100" y="20">
400000
</text>
<text font-size="12" text-anchor="middle" x="200" y="20">
800000
</text>
<text font-size="12" text-anchor="middle" x="300" y="20">
1200000
</text>
<text font-size="12" text-anchor="middle" x="400" y="20">
1600000
</text>
<text font-size="12" text-anchor="middle" x="500" y="20">
2000000
</text>
</g>
<text font-size="12" text-anchor="middle" x="250" y="30">
Gas
</text>
</g>
<g>
<g>
<line stroke="black" stroke-width="1" x1="0" x2="-10" y1="0" y2="0"/>
<line stroke="black" stroke-width="1" x1="0" x2="-10" y1="-68" y2="-68"/>
<line stroke="black" stroke-width="1" x1="0" x2="-10" y1="-136" y2="-136"/>
<line stroke="black" stroke-width="1" x1="0" x2="-10" y1="-204" y2="-204"/>
<line stroke="black" stroke-width="1" x1="0" x2="-10" y1="-272" y2="-272"/>
<line stroke="black" stroke-width="1" x1="0" x2="-10" y1="-340" y2="-340"/>
</g>
<line stroke="black" stroke-0="1" x1="0" x2="0" y1="0" y2="-340"/>
<g>
<text dominant-baseline="middle" font-size="12" text-anchor="end" x="-15" y="0">
0
</text>
<text dominant-baseline="middle" font-size="12" text-anchor="end" x="-15" y="-68">
4000
</text>
<text dominant-baseline="middle" font-size="12" text-anchor="end" x="-15" y="-136">
8000
</text>
<text dominant-baseline="middle" font-size="12" text-anchor="end" x="-15" y="-204">
12000
</text>
<text dominant-baseline="middle" font-size="12" text-anchor="end" x="-15" y="-272">
16000
</text>
<text dominant-baseline="middle" font-size="12" text-anchor="end" x="-15" y="-340">
20000
</text>
</g>
<text font-size="12" text-anchor="middle" transform="rotate(-90 -30 -170)" x="-30" y="-170">
Score
</text>
</g>
</g>
</svg>