<svg viewBox="0 0 600 400" xmlns="http://www.w3.org/2000/svg">
<g transform="translate(50, 360)">
<g>
<circle cx="0.0000005" cy="-0.000005723905723905725" fill="#000000" r="2"/>
<circle cx="0.000005" cy="-0.000057239057239057236" fill="#000000" r="2"/>
<circle cx="0.00005" cy="-0.0005723905723905723" fill="#000000" r="2"/>
<circle cx="0.0005" cy="-0.005723905723905667" fill="#000000" r="2"/>
<circle cx="0.005" cy="-0.057239057239" fill="#000000" r="2"/>
<circle cx="0.05" cy="-0.5723905723333332" fill="#000000" r="2"/>
<circle cx="0.5" cy="-5.723905666666667" fill="#000000" r="2"/>
<circle cx="5" cy="-57.239" fill="#000000" r="2"/>
<circle cx="50" cy="-572.3333333333334" fill="#000000" r="2"/>
<circle cx="500" cy="-5666.666666666667" fill="#000000" r="2"/>
</g>
<g>
<g>
<line stroke="black" stroke-width="1" x1="0" x2="0" y1="0" y2="10"/>
<line stroke="black" stroke-width="1" x1="100" x2="100" y1="0" y2="10"/>
<line stroke="black" stroke-width="1" x1="200" x2="200" y1="0" y2="10"/>
<line stroke="black" stroke-width="1" x1="300" x2="300" y1="0" y2="10"/>
<line stroke="black" stroke-width="1" x1="400" x2="400" y1="0" y2="10"/>
<line stroke="black" stroke-width="1" x1="500" x2="500" y1="0" y2="10"/>
</g>
<line stroke="black" stroke-width="1" x1="0" x2="500" y1="0" y2="0"/>
<g>
<text font-size="12" text-anchor="middle" x="0" y="20">
0
</text>
<text font-size="12" text-anchor="middle" x="100" y="20">
200000000
</text>
<text font-size="12" text-anchor="middle" x="200" y="20">
400000000
</text>
<text font-size="12" text-anchor="middle" x="300" y="20">
600000000
</text>
<text font-size="12" text-anchor="middle" x="400" y="20">
800000000
</text>
<text font-size="12" text-anchor="middle" x="500" y="20">
1000000000
</text>
</g>
<text font-size="12" text-anchor="middle" x="250" y="30">
Gas Price
</text>
</g>
<g>
<g>
<line stroke="black" stroke-width="1" x1="0" x2="-10" y1="0" y2="0"/>
<line stroke="black" stroke-width="1" x1="0" x2="-10" y1="-113.33333333333333" y2="-113.33333333333333"/>
<line stroke="black" stroke-width="1" x1="0" x2="-10" y1="-226.66666666666666" y2="-226.66666666666666"/>
<line stroke="black" stroke-width="1" x1="0" x2="-10" y1="-340" y2="-340"/>
</g>
<line stroke="black" stroke-0="1" x1="0" x2="0" y1="0" y2="-340"/>
<g>
<text dominant-baseline="middle" font-size="12" text-anchor="end" x="-15" y="0">
0
</text>
<text dominant-baseline="middle" font-size="12" text-anchor="end" x="-15" y="-113.33333333333333">
20000000
</text>
<text dominant-baseline="middle" font-size="12" text-anchor="end" x="-15" y="-226.66666666666666">
40000000
</text>
<text dominant-baseline="middle" font-size="12" text-anchor="end" x="-15" y="-340">
60000000
</text>
</g>
<text font-size="12" text-anchor="middle" transform="rotate(-90 -30 -170)" x="-30" y="-170">
Score
</text>
</g>
</g>
</svg>