<svg viewBox="0 0 600 400" xmlns="http://www.w3.org/2000/svg">
<g transform="translate(50, 360)">
<g>
<circle cx="0" cy="-3.4626465661641546" fill="#000000" r="5"/>
<circle cx="2" cy="-14.29570016969697" fill="#000000" r="5"/>
<circle cx="4" cy="-52.19471936108291" fill="#000000" r="5"/>
<circle cx="6" cy="-185.51421683809525" fill="#000000" r="5"/>
<circle cx="8" cy="-656.9165925087179" fill="#000000" r="5"/>
<circle cx="10" cy="-2332.3825261965635" fill="#000000" r="5"/>
<circle cx="12" cy="-8318.2110663848" fill="#000000" r="5"/>
<circle cx="14" cy="-29814.72700586667" fill="#000000" r="5"/>
<circle cx="16" cy="-107417.70339536195" fill="#000000" r="5"/>
<circle cx="18" cy="-389039.7876790793" fill="#000000" r="5"/>
<circle cx="20" cy="-1416452.903277037" fill="#000000" r="5"/>
<circle cx="22" cy="-5184581.535048081" fill="#000000" r="5"/>
<circle cx="24" cy="-19078375.113612413" fill="#000000" r="5"/>
<circle cx="26" cy="-70582605.00804348" fill="#000000" r="5"/>
<circle cx="28" cy="-262539822.90663707" fill="#000000" r="5"/>
<circle cx="30" cy="-981853280.8309829" fill="#000000" r="5"/>
<circle cx="32" cy="-3692025873.4737406" fill="#000000" r="5"/>
<circle cx="34" cy="-13959265827.875544" fill="#000000" r="5"/>
<circle cx="36" cy="-53070506497.31748" fill="#000000" r="5"/>
<circle cx="38" cy="-202885008307.74023" fill="#000000" r="5"/>
<circle cx="40" cy="-779948910598.846" fill="#000000" r="5"/>
<circle cx="42" cy="-3015194853668.341" fill="#000000" r="5"/>
<circle cx="44" cy="-1800621290668.5852" fill="#000000" r="5"/>
<circle cx="46" cy="-2051096077255.7722" fill="#000000" r="5"/>
<circle cx="48" cy="-3047723563095.3257" fill="#000000" r="5"/>
<circle cx="50" cy="-1960309679361.5193" fill="#000000" r="5"/>
<circle cx="52" cy="-2721843705962.4307" fill="#000000" r="5"/>
<circle cx="54" cy="-679342034184.6223" fill="#000000" r="5"/>
<circle cx="56" cy="-2733767691811.59" fill="#000000" r="5"/>
<circle cx="58" cy="-735600343612.7091" fill="#000000" r="5"/>
<circle cx="60" cy="-2995190492603.0127" fill="#000000" r="5"/>
<circle cx="62" cy="-1815145282602.1274" fill="#000000" r="5"/>
<circle cx="64" cy="-2221480689330.7773" fill="#000000" r="5"/>
<circle cx="66" cy="-3919265336624.1577" fill="#000000" r="5"/>
<circle cx="68" cy="-380370689910.0434" fill="#000000" r="5"/>
<circle cx="70" cy="-1595998305529.2075" fill="#000000" r="5"/>
<circle cx="72" cy="-1350834994349.6692" fill="#000000" r="5"/>
<circle cx="74" cy="-317792377059.50885" fill="#000000" r="5"/>
<circle cx="76" cy="-1358272253674.344" fill="#000000" r="5"/>
<circle cx="78" cy="-353750946676.2909" fill="#000000" r="5"/>
<circle cx="80" cy="-1530980700847.9434" fill="#000000" r="5"/>
<circle cx="82" cy="-1110415631676.432" fill="#000000" r="5"/>
<circle cx="84" cy="-4866930495506.979" fill="#000000" r="5"/>
<circle cx="86" cy="-4582539065941.373" fill="#000000" r="5"/>
<circle cx="88" cy="-3349537991243.4307" fill="#000000" r="5"/>
<circle cx="90" cy="-3563511967672.4614" fill="#000000" r="5"/>
<circle cx="92" cy="-4549165539043.875" fill="#000000" r="5"/>
<circle cx="94" cy="-3264560067932.9146" fill="#000000" r="5"/>
<circle cx="96" cy="-3247054004037.9717" fill="#000000" r="5"/>
<circle cx="98" cy="-3188391612492.205" fill="#000000" r="5"/>
<circle cx="100" cy="-2938869179222.979" fill="#000000" r="5"/>
<circle cx="102" cy="-1798568477996.858" fill="#000000" r="5"/>
<circle cx="104" cy="-2446124569515.5034" fill="#000000" r="5"/>
<circle cx="106" cy="-5514943766187.124" fill="#000000" r="5"/>
<circle cx="108" cy="-1949842429688.5708" fill="#000000" r="5"/>
<circle cx="110" cy="-3219973288531.171" fill="#000000" r="5"/>
<circle cx="112" cy="-3214152050863.9985" fill="#000000" r="5"/>
<circle cx="114" cy="-3208577370705.029" fill="#000000" r="5"/>
<circle cx="116" cy="-3204126901643.118" fill="#000000" r="5"/>
<circle cx="118" cy="-3205138576836.0186" fill="#000000" r="5"/>
<circle cx="120" cy="-3233205487655.9814" fill="#000000" r="5"/>
<circle cx="122" cy="-3396588333281.874" fill="#000000" r="5"/>
<circle cx="124" cy="-4242025553195.2505" fill="#000000" r="5"/>
<circle cx="126" cy="-2094569898115.6296" fill="#000000" r="5"/>
<circle cx="128" cy="-4172349458831.4316" fill="#000000" r="5"/>
<circle cx="130" cy="-1768025631950.2559" fill="#000000" r="5"/>
<circle cx="132" cy="-2545585895897.6855" fill="#000000" r="5"/>
<circle cx="134" cy="-6618362980787.934" fill="#000000" r="5"/>
<circle cx="136" cy="-1251570929015.7458" fill="#000000" r="5"/>
<circle cx="138" cy="-6624930771092.622" fill="#000000" r="5"/>
<circle cx="140" cy="-1306009861301.1064" fill="#000000" r="5"/>
<circle cx="142" cy="-161226061946.2651" fill="#000000" r="5"/>
<circle cx="144" cy="-873576122482.2574" fill="#000000" r="5"/>
<circle cx="146" cy="-4770890396918.698" fill="#000000" r="5"/>
<circle cx="148" cy="-5190305706603.432" fill="#000000" r="5"/>
<circle cx="150" cy="-478504948706.35175" fill="#000000" r="5"/>
<circle cx="152" cy="-2677013441818.5522" fill="#000000" r="5"/>
<circle cx="154" cy="-704900572744.6218" fill="#000000" r="5"/>
<circle cx="156" cy="-4008775382825.4883" fill="#000000" r="5"/>
<circle cx="158" cy="-1036296107562.371" fill="#000000" r="5"/>
<circle cx="160" cy="-5992473679873.52" fill="#000000" r="5"/>
<circle cx="162" cy="-5180753023304.866" fill="#000000" r="5"/>
<circle cx="164" cy="-450949955441.85425" fill="#000000" r="5"/>
<circle cx="166" cy="-2675097335677.197" fill="#000000" r="5"/>
<circle cx="168" cy="-736342118156.4243" fill="#000000" r="5"/>
<circle cx="170" cy="-4444716044587.731" fill="#000000" r="5"/>
<circle cx="172" cy="-3755208040748.6494" fill="#000000" r="5"/>
<circle cx="174" cy="-7392265739708.847" fill="#000000" r="5"/>
<circle cx="176" cy="-6274774318844.566" fill="#000000" r="5"/>
<circle cx="178" cy="-7323525734943.86" fill="#000000" r="5"/>
<circle cx="180" cy="-5955945205438.734" fill="#000000" r="5"/>
<circle cx="182" cy="-5427709173093.442" fill="#000000" r="5"/>
<circle cx="184" cy="-2081295198396.1514" fill="#000000" r="5"/>
<circle cx="186" cy="-5227664946920.873" fill="#000000" r="5"/>
<circle cx="188" cy="-809929075816.2443" fill="#000000" r="5"/>
<circle cx="190" cy="-5358989183495.334" fill="#000000" r="5"/>
<circle cx="192" cy="-1703013953652.539" fill="#000000" r="5"/>
<circle cx="194" cy="-2880652627359.508" fill="#000000" r="5"/>
<circle cx="196" cy="-2238888072700.2183" fill="#000000" r="5"/>
<circle cx="198" cy="-6625765537827.067" fill="#000000" r="5"/>
<circle cx="200" cy="-1707572711830.4548" fill="#000000" r="5"/>
<circle cx="202" cy="-3030240583041.9736" fill="#000000" r="5"/>
<circle cx="204" cy="-3392405733098.736" fill="#000000" r="5"/>
<circle cx="206" cy="-6023743088425.362" fill="#000000" r="5"/>
<circle cx="208" cy="-6661539077030.354" fill="#000000" r="5"/>
<circle cx="210" cy="-2060281621873.2246" fill="#000000" r="5"/>
<circle cx="212" cy="-5802929612774.342" fill="#000000" r="5"/>
<circle cx="214" cy="-5227155184185.784" fill="#000000" r="5"/>
<circle cx="216" cy="-930678801640.6873" fill="#000000" r="5"/>
<circle cx="218" cy="-7115846026840.063" fill="#000000" r="5"/>
<circle cx="220" cy="-5688627024884.575" fill="#000000" r="5"/>
<circle cx="222" cy="-4570948474382.652" fill="#000000" r="5"/>
<circle cx="224" cy="-5875891701775.388" fill="#000000" r="5"/>
<circle cx="226" cy="-6175645736339.419" fill="#000000" r="5"/>
<circle cx="228" cy="-8674996207313.708" fill="#000000" r="5"/>
<circle cx="230" cy="-8346639079703.69" fill="#000000" r="5"/>
<circle cx="232" cy="-5724890954061.212" fill="#000000" r="5"/>
<circle cx="234" cy="-5209727936611.22" fill="#000000" r="5"/>
<circle cx="236" cy="-897525850991.2292" fill="#000000" r="5"/>
<circle cx="238" cy="-7720158359888.406" fill="#000000" r="5"/>
<circle cx="240" cy="-557810435721.7708" fill="#000000" r="5"/>
<circle cx="242" cy="-4921089480929.829" fill="#000000" r="5"/>
<circle cx="244" cy="-9768109202697.803" fill="#000000" r="5"/>
<circle cx="246" cy="-7569135843081.345" fill="#000000" r="5"/>
<circle cx="248" cy="-10909456265135.674" fill="#000000" r="5"/>
<circle cx="250" cy="-6521380777660.157" fill="#000000" r="5"/>
<circle cx="252" cy="-1331775646945.4834" fill="#000000" r="5"/>
<circle cx="254" cy="-532876312123.4722" fill="#000000" r="5"/>
<circle cx="256" cy="-5164607195902.269" fill="#000000" r="5"/>
<circle cx="258" cy="-595010698109.935" fill="#000000" r="5"/>
<circle cx="260" cy="-5933964082161.589" fill="#000000" r="5"/>
<circle cx="262" cy="-8398040651405.082" fill="#000000" r="5"/>
<circle cx="264" cy="-7619952386847.454" fill="#000000" r="5"/>
<circle cx="266" cy="-12926931916876.377" fill="#000000" r="5"/>
<circle cx="268" cy="-1765132723241.6658" fill="#000000" r="5"/>
<circle cx="270" cy="-5258941135475.168" fill="#000000" r="5"/>
<circle cx="272" cy="-1691501175207.9414" fill="#000000" r="5"/>
<circle cx="274" cy="-4611359722339.596" fill="#000000" r="5"/>
<circle cx="276" cy="-8836240808008.44" fill="#000000" r="5"/>
<circle cx="278" cy="-13534576788031.973" fill="#000000" r="5"/>
<circle cx="280" cy="-9031713167953.44" fill="#000000" r="5"/>
<circle cx="282" cy="-1181372301337.443" fill="#000000" r="5"/>
<circle cx="284" cy="-14262023841664.223" fill="#000000" r="5"/>
<circle cx="286" cy="-2774691877187.942" fill="#000000" r="5"/>
<circle cx="288" cy="-2785693386337.432" fill="#000000" r="5"/>
<circle cx="290" cy="-2977473754381.046" fill="#000000" r="5"/>
<circle cx="292" cy="-5523641959201.721" fill="#000000" r="5"/>
<circle cx="294" cy="-5552165816680.394" fill="#000000" r="5"/>
<circle cx="296" cy="-6045895832675.741" fill="#000000" r="5"/>
<circle cx="298" cy="-12961802718266.129" fill="#000000" r="5"/>
<circle cx="300" cy="-2831208200599.9814" fill="#000000" r="5"/>
<circle cx="302" cy="-4002158350946.3145" fill="#000000" r="5"/>
<circle cx="304" cy="-2548982297752.479" fill="#000000" r="5"/>
<circle cx="306" cy="-19042632014768.426" fill="#000000" r="5"/>
<circle cx="308" cy="-18019067385302.75" fill="#000000" r="5"/>
<circle cx="310" cy="-2420785249856.046" fill="#000000" r="5"/>
<circle cx="312" cy="-18319653360568.906" fill="#000000" r="5"/>
<circle cx="314" cy="-7460861356705.01" fill="#000000" r="5"/>
<circle cx="316" cy="-18139085710339.625" fill="#000000" r="5"/>
<circle cx="318" cy="-4727563024115.786" fill="#000000" r="5"/>
<circle cx="320" cy="-15871113716233.65" fill="#000000" r="5"/>
<circle cx="322" cy="-10120461168989.996" fill="#000000" r="5"/>
<circle cx="324" cy="-22100475079319.156" fill="#000000" r="5"/>
<circle cx="326" cy="-7801400303778.986" fill="#000000" r="5"/>
<circle cx="328" cy="-2856339451070.226" fill="#000000" r="5"/>
<circle cx="330" cy="-6158738763793.505" fill="#000000" r="5"/>
<circle cx="332" cy="-21992136861135.508" fill="#000000" r="5"/>
<circle cx="334" cy="-6446870297929.91" fill="#000000" r="5"/>
<circle cx="336" cy="-1482157252616.4219" fill="#000000" r="5"/>
<circle cx="338" cy="-4728296267330.858" fill="#000000" r="5"/>
<circle cx="340" cy="-21361310348972.082" fill="#000000" r="5"/>
<circle cx="342" cy="-23224124331440.35" fill="#000000" r="5"/>
<circle cx="344" cy="-6518515021892.73" fill="#000000" r="5"/>
<circle cx="346" cy="-3663369824699.4717" fill="#000000" r="5"/>
<circle cx="348" cy="-30589492596548.207" fill="#000000" r="5"/>
<circle cx="350" cy="-35582956232515.125" fill="#000000" r="5"/>
<circle cx="352" cy="-33820566210291.57" fill="#000000" r="5"/>
<circle cx="354" cy="-20144914524210.336" fill="#000000" r="5"/>
<circle cx="356" cy="-32919260623201.85" fill="#000000" r="5"/>
<circle cx="358" cy="-35051976320416.29" fill="#000000" r="5"/>
<circle cx="360" cy="-21710046204418.38" fill="#000000" r="5"/>
<circle cx="362" cy="-676965006015.6403" fill="#000000" r="5"/>
<circle cx="364" cy="-27402269156445.18" fill="#000000" r="5"/>
<circle cx="366" cy="-26056455875392.316" fill="#000000" r="5"/>
<circle cx="368" cy="-24591767363367.086" fill="#000000" r="5"/>
<circle cx="370" cy="-17074882282584.262" fill="#000000" r="5"/>
<circle cx="372" cy="-25758412502977.004" fill="#000000" r="5"/>
<circle cx="374" cy="-13648710056424.428" fill="#000000" r="5"/>
<circle cx="376" cy="-55582670420137.02" fill="#000000" r="5"/>
<circle cx="378" cy="-49119606079935.99" fill="#000000" r="5"/>
<circle cx="380" cy="-48233956894264.07" fill="#000000" r="5"/>
<circle cx="382" cy="-87841328389862.44" fill="#000000" r="5"/>
<circle cx="384" cy="-105379486353742.73" fill="#000000" r="5"/>
<circle cx="386" cy="-85540619520863.05" fill="#000000" r="5"/>
<circle cx="388" cy="-6507845955591.876" fill="#000000" r="5"/>
<circle cx="390" cy="-21976483046665.44" fill="#000000" r="5"/>
<circle cx="392" cy="-65176007163344.99" fill="#000000" r="5"/>
<circle cx="394" cy="-34059771980479.297" fill="#000000" r="5"/>
<circle cx="396" cy="-607792307760317.1" fill="#000000" r="5"/>
<circle cx="398" cy="-inf" fill="#000000" r="5"/>
</g>
<g>
<g>
<line stroke="black" stroke-width="1" x1="0" x2="0" y1="0" y2="10"/>
<line stroke="black" stroke-width="1" x1="100" x2="100" y1="0" y2="10"/>
<line stroke="black" stroke-width="1" x1="200" x2="200" y1="0" y2="10"/>
<line stroke="black" stroke-width="1" x1="300" x2="300" y1="0" y2="10"/>
<line stroke="black" stroke-width="1" x1="400" x2="400" y1="0" y2="10"/>
<line stroke="black" stroke-width="1" x1="500" x2="500" y1="0" y2="10"/>
</g>
<line stroke="black" stroke-width="1" x1="0" x2="500" y1="0" y2="0"/>
<g>
<text font-size="12" text-anchor="middle" x="0" y="20">
0
</text>
<text font-size="12" text-anchor="middle" x="100" y="20">
50000
</text>
<text font-size="12" text-anchor="middle" x="200" y="20">
100000
</text>
<text font-size="12" text-anchor="middle" x="300" y="20">
150000
</text>
<text font-size="12" text-anchor="middle" x="400" y="20">
200000
</text>
<text font-size="12" text-anchor="middle" x="500" y="20">
250000
</text>
</g>
<text font-size="12" text-anchor="middle" x="250" y="30">
Gas
</text>
</g>
<g>
<g>
<line stroke="black" stroke-width="1" x1="0" x2="-10" y1="0" y2="0"/>
<line stroke="black" stroke-width="1" x1="0" x2="-10" y1="-113.33333333333333" y2="-113.33333333333333"/>
<line stroke="black" stroke-width="1" x1="0" x2="-10" y1="-226.66666666666666" y2="-226.66666666666666"/>
<line stroke="black" stroke-width="1" x1="0" x2="-10" y1="-340" y2="-340"/>
</g>
<line stroke="black" stroke-0="1" x1="0" x2="0" y1="0" y2="-340"/>
<g>
<text dominant-baseline="middle" font-size="12" text-anchor="end" x="-15" y="0">
0
</text>
<text dominant-baseline="middle" font-size="12" text-anchor="end" x="-15" y="-113.33333333333333">
50000
</text>
<text dominant-baseline="middle" font-size="12" text-anchor="end" x="-15" y="-226.66666666666666">
100000
</text>
<text dominant-baseline="middle" font-size="12" text-anchor="end" x="-15" y="-340">
150000
</text>
</g>
<text font-size="12" text-anchor="middle" transform="rotate(-90 -30 -170)" x="-30" y="-170">
Score
</text>
</g>
</g>
</svg>