<svg viewBox="0 0 600 400" xmlns="http://www.w3.org/2000/svg">
<g transform="translate(50, 360)">
<g>
<circle cx="0" cy="-inf" fill="#000000" r="2"/>
<circle cx="20" cy="-8.101694942991061" fill="#000000" r="2"/>
<circle cx="40" cy="-8.017219507510825" fill="#000000" r="2"/>
<circle cx="60" cy="-7.989159445475343" fill="#000000" r="2"/>
<circle cx="80" cy="-7.975158877429919" fill="#000000" r="2"/>
<circle cx="100" cy="-7.966770304111717" fill="#000000" r="2"/>
<circle cx="120" cy="-7.961183518662501" fill="#000000" r="2"/>
<circle cx="140" cy="-7.957195808333333" fill="#000000" r="2"/>
<circle cx="160" cy="-7.954158333333333" fill="#000000" r="2"/>
<circle cx="180" cy="-7.933333333333334" fill="#000000" r="2"/>
</g>
<g>
<g>
<line stroke="black" stroke-width="1" x1="0" x2="0" y1="0" y2="10"/>
<line stroke="black" stroke-width="1" x1="100" x2="100" y1="0" y2="10"/>
<line stroke="black" stroke-width="1" x1="200" x2="200" y1="0" y2="10"/>
<line stroke="black" stroke-width="1" x1="300" x2="300" y1="0" y2="10"/>
<line stroke="black" stroke-width="1" x1="400" x2="400" y1="0" y2="10"/>
<line stroke="black" stroke-width="1" x1="500" x2="500" y1="0" y2="10"/>
</g>
<line stroke="black" stroke-width="1" x1="0" x2="500" y1="0" y2="0"/>
<g>
<text font-size="12" text-anchor="middle" x="0" y="20">
0
</text>
<text font-size="12" text-anchor="middle" x="100" y="20">
5000
</text>
<text font-size="12" text-anchor="middle" x="200" y="20">
10000
</text>
<text font-size="12" text-anchor="middle" x="300" y="20">
15000
</text>
<text font-size="12" text-anchor="middle" x="400" y="20">
20000
</text>
<text font-size="12" text-anchor="middle" x="500" y="20">
25000
</text>
</g>
<text font-size="12" text-anchor="middle" x="250" y="30">
Gas
</text>
</g>
<g>
<g>
<line stroke="black" stroke-width="1" x1="0" x2="-10" y1="0" y2="0"/>
<line stroke="black" stroke-width="1" x1="0" x2="-10" y1="-75.55555555555556" y2="-75.55555555555556"/>
<line stroke="black" stroke-width="1" x1="0" x2="-10" y1="-151.11111111111111" y2="-151.11111111111111"/>
<line stroke="black" stroke-width="1" x1="0" x2="-10" y1="-226.66666666666666" y2="-226.66666666666666"/>
<line stroke="black" stroke-width="1" x1="0" x2="-10" y1="-302.22222222222223" y2="-302.22222222222223"/>
</g>
<line stroke="black" stroke-0="1" x1="0" x2="0" y1="0" y2="-340"/>
<g>
<text dominant-baseline="middle" font-size="12" text-anchor="end" x="-15" y="0">
0
</text>
<text dominant-baseline="middle" font-size="12" text-anchor="end" x="-15" y="-75.55555555555556">
200000
</text>
<text dominant-baseline="middle" font-size="12" text-anchor="end" x="-15" y="-151.11111111111111">
400000
</text>
<text dominant-baseline="middle" font-size="12" text-anchor="end" x="-15" y="-226.66666666666666">
600000
</text>
<text dominant-baseline="middle" font-size="12" text-anchor="end" x="-15" y="-302.22222222222223">
800000
</text>
</g>
<text font-size="12" text-anchor="middle" transform="rotate(-90 -30 -170)" x="-30" y="-170">
Score
</text>
</g>
</g>
</svg>