<svg viewBox="0 0 600 400" xmlns="http://www.w3.org/2000/svg">
<g transform="translate(50, 360)">
<g>
<circle cx="0" cy="-78.402405360134" fill="#000000" r="5"/>
<circle cx="2" cy="-272.50186002359595" fill="#000000" r="5"/>
<circle cx="4" cy="-951.8812765931642" fill="#000000" r="5"/>
<circle cx="6" cy="-3341.9418296198096" fill="#000000" r="5"/>
<circle cx="8" cy="-11793.272642566564" fill="#000000" r="5"/>
<circle cx="10" cy="-41831.368621398215" fill="#000000" r="5"/>
<circle cx="12" cy="-149146.84139110087" fill="#000000" r="5"/>
<circle cx="14" cy="-534542.3021773654" fill="#000000" r="5"/>
<circle cx="16" cy="-1925829.9980873158" fill="#000000" r="5"/>
<circle cx="18" cy="-6974829.2064015055" fill="#000000" r="5"/>
<circle cx="20" cy="-25394578.18210244" fill="#000000" r="5"/>
<circle cx="22" cy="-92950639.89119291" fill="#000000" r="5"/>
<circle cx="24" cy="-342042448.8303659" fill="#000000" r="5"/>
<circle cx="26" cy="-1265424657.166375" fill="#000000" r="5"/>
<circle cx="28" cy="-4706887235.085203" fill="#000000" r="5"/>
<circle cx="30" cy="-17602939670.156906" fill="#000000" r="5"/>
<circle cx="32" cy="-18209975356.63453" fill="#000000" r="5"/>
<circle cx="34" cy="-20605185401.80538" fill="#000000" r="5"/>
<circle cx="36" cy="-29825164867.91093" fill="#000000" r="5"/>
<circle cx="38" cy="-16456837178.102175" fill="#000000" r="5"/>
<circle cx="40" cy="-14210951254.812305" fill="#000000" r="5"/>
<circle cx="42" cy="-5608445426.908765" fill="#000000" r="5"/>
<circle cx="44" cy="-21804114885.49082" fill="#000000" r="5"/>
<circle cx="46" cy="-35360066982.05263" fill="#000000" r="5"/>
<circle cx="48" cy="-38691153223.19076" fill="#000000" r="5"/>
<circle cx="50" cy="-1623651424.796035" fill="#000000" r="5"/>
<circle cx="52" cy="-6458265940.150062" fill="#000000" r="5"/>
<circle cx="54" cy="-25837869912.020187" fill="#000000" r="5"/>
<circle cx="56" cy="-1277551980.41523" fill="#000000" r="5"/>
<circle cx="58" cy="-5171289936.370721" fill="#000000" r="5"/>
<circle cx="60" cy="-21056268646.974766" fill="#000000" r="5"/>
<circle cx="62" cy="-33980701502.520878" fill="#000000" r="5"/>
<circle cx="64" cy="-34860909014.12558" fill="#000000" r="5"/>
<circle cx="66" cy="-38719682168.09925" fill="#000000" r="5"/>
<circle cx="68" cy="-1831193416.4623609" fill="#000000" r="5"/>
<circle cx="70" cy="-7683508922.482427" fill="#000000" r="5"/>
<circle cx="72" cy="-32437040661.433617" fill="#000000" r="5"/>
<circle cx="74" cy="-29379849124.093643" fill="#000000" r="5"/>
<circle cx="76" cy="-16495630185.69234" fill="#000000" r="5"/>
<circle cx="78" cy="-16065342683.36234" fill="#000000" r="5"/>
<circle cx="80" cy="-14304163213.425203" fill="#000000" r="5"/>
<circle cx="82" cy="-6724335725.605637" fill="#000000" r="5"/>
<circle cx="84" cy="-29472634994.860554" fill="#000000" r="5"/>
<circle cx="86" cy="-17433621894.714382" fill="#000000" r="5"/>
<circle cx="88" cy="-20747827019.895344" fill="#000000" r="5"/>
<circle cx="90" cy="-35691626834.18367" fill="#000000" r="5"/>
<circle cx="92" cy="-45745800209.05303" fill="#000000" r="5"/>
<circle cx="94" cy="-33796154401.3253" fill="#000000" r="5"/>
<circle cx="96" cy="-37713773362.29871" fill="#000000" r="5"/>
<circle cx="98" cy="-55937353853.891975" fill="#000000" r="5"/>
<circle cx="100" cy="-22613816888.801098" fill="#000000" r="5"/>
<circle cx="102" cy="-45814529790.36838" fill="#000000" r="5"/>
<circle cx="104" cy="-35267416451.242836" fill="#000000" r="5"/>
<circle cx="106" cy="-45939701298.57976" fill="#000000" r="5"/>
<circle cx="108" cy="-36347891296.104324" fill="#000000" r="5"/>
<circle cx="110" cy="-51740981830.81557" fill="#000000" r="5"/>
<circle cx="112" cy="-3369354048.501457" fill="#000000" r="5"/>
<circle cx="114" cy="-16327794807.679031" fill="#000000" r="5"/>
<circle cx="116" cy="-17411082314.439655" fill="#000000" r="5"/>
<circle cx="118" cy="-22860021941.343983" fill="#000000" r="5"/>
<circle cx="120" cy="-49999791362.37802" fill="#000000" r="5"/>
<circle cx="122" cy="-58436999227.21983" fill="#000000" r="5"/>
<circle cx="124" cy="-37149888232.762405" fill="#000000" r="5"/>
<circle cx="126" cy="-58842484791.66114" fill="#000000" r="5"/>
<circle cx="128" cy="-39767115987.972336" fill="#000000" r="5"/>
<circle cx="130" cy="-7633697412.815012" fill="#000000" r="5"/>
<circle cx="132" cy="-39495946866.83145" fill="#000000" r="5"/>
<circle cx="134" cy="-6335730214.581406" fill="#000000" r="5"/>
<circle cx="136" cy="-33280865351.926964" fill="#000000" r="5"/>
<circle cx="138" cy="-41078422728.632645" fill="#000000" r="5"/>
<circle cx="140" cy="-14924514249.257355" fill="#000000" r="5"/>
<circle cx="142" cy="-11635359079.922739" fill="#000000" r="5"/>
<circle cx="144" cy="-63044223409.07049" fill="#000000" r="5"/>
<circle cx="146" cy="-65554719442.0375" fill="#000000" r="5"/>
<circle cx="148" cy="-9654296678.275806" fill="#000000" r="5"/>
<circle cx="150" cy="-53575740843.80144" fill="#000000" r="5"/>
<circle cx="152" cy="-14181842918.887766" fill="#000000" r="5"/>
<circle cx="154" cy="-8018631352.50342" fill="#000000" r="5"/>
<circle cx="156" cy="-45602022771.39013" fill="#000000" r="5"/>
<circle cx="158" cy="-41983984903.13852" fill="#000000" r="5"/>
<circle cx="160" cy="-21415168287.16262" fill="#000000" r="5"/>
<circle cx="162" cy="-50472260542.58944" fill="#000000" r="5"/>
<circle cx="164" cy="-71704488593.1315" fill="#000000" r="5"/>
<circle cx="166" cy="-46884615786.10592" fill="#000000" r="5"/>
<circle cx="168" cy="-51484055255.71169" fill="#000000" r="5"/>
<circle cx="170" cy="-2675607532.1225696" fill="#000000" r="5"/>
<circle cx="172" cy="-16293455397.053055" fill="#000000" r="5"/>
<circle cx="174" cy="-21708327646.251034" fill="#000000" r="5"/>
<circle cx="176" cy="-55472593761.0468" fill="#000000" r="5"/>
<circle cx="178" cy="-27724038938.737473" fill="#000000" r="5"/>
<circle cx="180" cy="-13911808336.390026" fill="#000000" r="5"/>
<circle cx="182" cy="-7337543220.556444" fill="#000000" r="5"/>
<circle cx="184" cy="-47188494778.29421" fill="#000000" r="5"/>
<circle cx="186" cy="-57828056580.59623" fill="#000000" r="5"/>
<circle cx="188" cy="-44480992403.35159" fill="#000000" r="5"/>
<circle cx="190" cy="-41025632723.83308" fill="#000000" r="5"/>
<circle cx="192" cy="-18339185026.51351" fill="#000000" r="5"/>
<circle cx="194" cy="-37637809165.1103" fill="#000000" r="5"/>
<circle cx="196" cy="-82557722643.56242" fill="#000000" r="5"/>
<circle cx="198" cy="-41263794927.57119" fill="#000000" r="5"/>
<circle cx="200" cy="-20735577158.229355" fill="#000000" r="5"/>
<circle cx="202" cy="-56000827139.33178" fill="#000000" r="5"/>
<circle cx="204" cy="-35186973828.79693" fill="#000000" r="5"/>
<circle cx="206" cy="-69290016340.55261" fill="#000000" r="5"/>
<circle cx="208" cy="-39759468094.37057" fill="#000000" r="5"/>
<circle cx="210" cy="-10826092804.126713" fill="#000000" r="5"/>
<circle cx="212" cy="-80104705259.35709" fill="#000000" r="5"/>
<circle cx="214" cy="-26504234197.809406" fill="#000000" r="5"/>
<circle cx="216" cy="-7439618812.096244" fill="#000000" r="5"/>
<circle cx="218" cy="-56882333488.1356" fill="#000000" r="5"/>
<circle cx="220" cy="-45165456878.45836" fill="#000000" r="5"/>
<circle cx="222" cy="-53837101972.7789" fill="#000000" r="5"/>
<circle cx="224" cy="-22117432068.774456" fill="#000000" r="5"/>
<circle cx="226" cy="-74871792041.13747" fill="#000000" r="5"/>
<circle cx="228" cy="-89625007273.61214" fill="#000000" r="5"/>
<circle cx="230" cy="-2487211328.307759" fill="#000000" r="5"/>
<circle cx="232" cy="-20620719962.983578" fill="#000000" r="5"/>
<circle cx="234" cy="-65963958629.317986" fill="#000000" r="5"/>
<circle cx="236" cy="-18375259608.00519" fill="#000000" r="5"/>
<circle cx="238" cy="-48298505805.66828" fill="#000000" r="5"/>
<circle cx="240" cy="-87260805896.04366" fill="#000000" r="5"/>
<circle cx="242" cy="-94393625193.84633" fill="#000000" r="5"/>
<circle cx="244" cy="-45329159270.03383" fill="#000000" r="5"/>
<circle cx="246" cy="-63819910169.925224" fill="#000000" r="5"/>
<circle cx="248" cy="-173549999.7768703" fill="#000000" r="5"/>
<circle cx="250" cy="-1613846138.4881358" fill="#000000" r="5"/>
<circle cx="252" cy="-15212776925.852135" fill="#000000" r="5"/>
<circle cx="254" cy="-23440105296.509018" fill="#000000" r="5"/>
<circle cx="256" cy="-103509050681.57756" fill="#000000" r="5"/>
<circle cx="258" cy="-14032494210.40313" fill="#000000" r="5"/>
<circle cx="260" cy="-12688434738.14622" fill="#000000" r="5"/>
<circle cx="262" cy="-128400988521.95015" fill="#000000" r="5"/>
<circle cx="264" cy="-8206173713.083121" fill="#000000" r="5"/>
<circle cx="266" cy="-85559059164.21136" fill="#000000" r="5"/>
<circle cx="268" cy="-95256664462.11438" fill="#000000" r="5"/>
<circle cx="270" cy="-63816042959.17288" fill="#000000" r="5"/>
<circle cx="272" cy="-164366888.60959208" fill="#000000" r="5"/>
<circle cx="274" cy="-1824281585.9118059" fill="#000000" r="5"/>
<circle cx="276" cy="-20579331789.37193" fill="#000000" r="5"/>
<circle cx="278" cy="-89676070774.54234" fill="#000000" r="5"/>
<circle cx="280" cy="-4136677565.1758375" fill="#000000" r="5"/>
<circle cx="282" cy="-49078683785.700554" fill="#000000" r="5"/>
<circle cx="284" cy="-130359052260.186" fill="#000000" r="5"/>
<circle cx="286" cy="-33878787907.876446" fill="#000000" r="5"/>
<circle cx="288" cy="-104575312860.01726" fill="#000000" r="5"/>
<circle cx="290" cy="-31777767686.170563" fill="#000000" r="5"/>
<circle cx="292" cy="-81242855927.90347" fill="#000000" r="5"/>
<circle cx="294" cy="-61953517104.67411" fill="#000000" r="5"/>
<circle cx="296" cy="-147242139252.22266" fill="#000000" r="5"/>
<circle cx="298" cy="-94685736588.22803" fill="#000000" r="5"/>
<circle cx="300" cy="-75333781497.65439" fill="#000000" r="5"/>
<circle cx="302" cy="-165334031228.96387" fill="#000000" r="5"/>
<circle cx="304" cy="-178790938138.22446" fill="#000000" r="5"/>
<circle cx="306" cy="-2216264608.2763658" fill="#000000" r="5"/>
<circle cx="308" cy="-33890527385.88914" fill="#000000" r="5"/>
<circle cx="310" cy="-130902737973.3323" fill="#000000" r="5"/>
<circle cx="312" cy="-52821801982.7144" fill="#000000" r="5"/>
<circle cx="314" cy="-29180005676.64912" fill="#000000" r="5"/>
<circle cx="316" cy="-61421428977.820564" fill="#000000" r="5"/>
<circle cx="318" cy="-178580109082.69046" fill="#000000" r="5"/>
<circle cx="320" cy="-224038999352.3026" fill="#000000" r="5"/>
<circle cx="322" cy="-128854092153.80162" fill="#000000" r="5"/>
<circle cx="324" cy="-23286673912.28576" fill="#000000" r="5"/>
<circle cx="326" cy="-201210060189.67883" fill="#000000" r="5"/>
<circle cx="328" cy="-192814960340.51144" fill="#000000" r="5"/>
<circle cx="330" cy="-28577068909.11848" fill="#000000" r="5"/>
<circle cx="332" cy="-63738815640.09493" fill="#000000" r="5"/>
<circle cx="334" cy="-273058219138.90558" fill="#000000" r="5"/>
<circle cx="336" cy="-113075885768.28502" fill="#000000" r="5"/>
<circle cx="338" cy="-252182722975.77133" fill="#000000" r="5"/>
<circle cx="340" cy="-231091013560.10562" fill="#000000" r="5"/>
<circle cx="342" cy="-34589062698.05555" fill="#000000" r="5"/>
<circle cx="344" cy="-231126006596.9143" fill="#000000" r="5"/>
<circle cx="346" cy="-38175901691.48451" fill="#000000" r="5"/>
<circle cx="348" cy="-348344260839.47656" fill="#000000" r="5"/>
<circle cx="350" cy="-109495195318.03008" fill="#000000" r="5"/>
<circle cx="352" cy="-221804710048.6938" fill="#000000" r="5"/>
<circle cx="354" cy="-152680839633.199" fill="#000000" r="5"/>
<circle cx="356" cy="-403657564055.7728" fill="#000000" r="5"/>
<circle cx="358" cy="-278395834345.6573" fill="#000000" r="5"/>
<circle cx="360" cy="-377806049253.06396" fill="#000000" r="5"/>
<circle cx="362" cy="-296670325940.3413" fill="#000000" r="5"/>
<circle cx="364" cy="-128953172335.49353" fill="#000000" r="5"/>
<circle cx="366" cy="-58111673876.33694" fill="#000000" r="5"/>
<circle cx="368" cy="-324377946988.88873" fill="#000000" r="5"/>
<circle cx="370" cy="-264092387744.7631" fill="#000000" r="5"/>
<circle cx="372" cy="-470489462485.6686" fill="#000000" r="5"/>
<circle cx="374" cy="-637797199520.9624" fill="#000000" r="5"/>
<circle cx="376" cy="-784932048796.3186" fill="#000000" r="5"/>
<circle cx="378" cy="-451405994988.28064" fill="#000000" r="5"/>
<circle cx="380" cy="-366927583477.1834" fill="#000000" r="5"/>
<circle cx="382" cy="-829367393573.3184" fill="#000000" r="5"/>
<circle cx="384" cy="-1249902049047.548" fill="#000000" r="5"/>
<circle cx="386" cy="-1394921639278.985" fill="#000000" r="5"/>
<circle cx="388" cy="-558753654684.6477" fill="#000000" r="5"/>
<circle cx="390" cy="-1731519297537.5696" fill="#000000" r="5"/>
<circle cx="392" cy="-2039712333119.006" fill="#000000" r="5"/>
<circle cx="394" cy="-3729894944940.8335" fill="#000000" r="5"/>
<circle cx="396" cy="-2695296379208.129" fill="#000000" r="5"/>
<circle cx="398" cy="-inf" fill="#000000" r="5"/>
</g>
<g>
<g>
<line stroke="black" stroke-width="1" x1="0" x2="0" y1="0" y2="10"/>
<line stroke="black" stroke-width="1" x1="100" x2="100" y1="0" y2="10"/>
<line stroke="black" stroke-width="1" x1="200" x2="200" y1="0" y2="10"/>
<line stroke="black" stroke-width="1" x1="300" x2="300" y1="0" y2="10"/>
<line stroke="black" stroke-width="1" x1="400" x2="400" y1="0" y2="10"/>
<line stroke="black" stroke-width="1" x1="500" x2="500" y1="0" y2="10"/>
</g>
<line stroke="black" stroke-width="1" x1="0" x2="500" y1="0" y2="0"/>
<g>
<text font-size="12" text-anchor="middle" x="0" y="20">
0
</text>
<text font-size="12" text-anchor="middle" x="100" y="20">
50000
</text>
<text font-size="12" text-anchor="middle" x="200" y="20">
100000
</text>
<text font-size="12" text-anchor="middle" x="300" y="20">
150000
</text>
<text font-size="12" text-anchor="middle" x="400" y="20">
200000
</text>
<text font-size="12" text-anchor="middle" x="500" y="20">
250000
</text>
</g>
<text font-size="12" text-anchor="middle" x="250" y="30">
Gas
</text>
</g>
<g>
<g>
<line stroke="black" stroke-width="1" x1="0" x2="-10" y1="0" y2="0"/>
<line stroke="black" stroke-width="1" x1="0" x2="-10" y1="-113.33333333333333" y2="-113.33333333333333"/>
<line stroke="black" stroke-width="1" x1="0" x2="-10" y1="-226.66666666666666" y2="-226.66666666666666"/>
<line stroke="black" stroke-width="1" x1="0" x2="-10" y1="-340" y2="-340"/>
</g>
<line stroke="black" stroke-0="1" x1="0" x2="0" y1="0" y2="-340"/>
<g>
<text dominant-baseline="middle" font-size="12" text-anchor="end" x="-15" y="0">
0
</text>
<text dominant-baseline="middle" font-size="12" text-anchor="end" x="-15" y="-113.33333333333333">
5000000
</text>
<text dominant-baseline="middle" font-size="12" text-anchor="end" x="-15" y="-226.66666666666666">
10000000
</text>
<text dominant-baseline="middle" font-size="12" text-anchor="end" x="-15" y="-340">
15000000
</text>
</g>
<text font-size="12" text-anchor="middle" transform="rotate(-90 -30 -170)" x="-30" y="-170">
Score
</text>
</g>
</g>
</svg>