<svg viewBox="0 0 600 400" xmlns="http://www.w3.org/2000/svg">
<g transform="translate(50, 360)">
<g>
<circle cx="0" cy="-37.70294" fill="#000000" r="5"/>
<circle cx="2.5" cy="-25952.863696319997" fill="#000000" r="5"/>
<circle cx="5" cy="-17858900.550891038" fill="#000000" r="5"/>
<circle cx="7.5" cy="-12289209526.58875" fill="#000000" r="5"/>
<circle cx="10" cy="-8456549173120.723" fill="#000000" r="5"/>
<circle cx="12.5" cy="-7495432118846.693" fill="#000000" r="5"/>
<circle cx="15" cy="-4672639226798.148" fill="#000000" r="5"/>
<circle cx="17.5" cy="-4948664129938.608" fill="#000000" r="5"/>
<circle cx="20" cy="-13788218734533.113" fill="#000000" r="5"/>
<circle cx="22.5" cy="-4957187944204.3955" fill="#000000" r="5"/>
<circle cx="25" cy="-3189974911834.9526" fill="#000000" r="5"/>
<circle cx="27.5" cy="-5436417721662.449" fill="#000000" r="5"/>
<circle cx="30" cy="-3687021498775.4565" fill="#000000" r="5"/>
<circle cx="32.5" cy="-1729990698356.2302" fill="#000000" r="5"/>
<circle cx="35" cy="-5067265101907.927" fill="#000000" r="5"/>
<circle cx="37.5" cy="-13082272944907.516" fill="#000000" r="5"/>
<circle cx="40" cy="-13087696194294.117" fill="#000000" r="5"/>
<circle cx="42.5" cy="-355866862410.58496" fill="#000000" r="5"/>
<circle cx="45" cy="-14389885095877.871" fill="#000000" r="5"/>
<circle cx="47.5" cy="-7387680699004.957" fill="#000000" r="5"/>
<circle cx="50" cy="-12844465622871.436" fill="#000000" r="5"/>
<circle cx="52.5" cy="-14083010154107.443" fill="#000000" r="5"/>
<circle cx="55" cy="-10246788883618.271" fill="#000000" r="5"/>
<circle cx="57.5" cy="-4630572190169.912" fill="#000000" r="5"/>
<circle cx="60" cy="-8928596520594.459" fill="#000000" r="5"/>
<circle cx="62.5" cy="-3050047525538.014" fill="#000000" r="5"/>
<circle cx="65" cy="-7930779758636.571" fill="#000000" r="5"/>
<circle cx="67.5" cy="-7900596355982.531" fill="#000000" r="5"/>
<circle cx="70" cy="-3594270940249.2476" fill="#000000" r="5"/>
<circle cx="72.5" cy="-3760610703975.256" fill="#000000" r="5"/>
<circle cx="75" cy="-2977626036725.414" fill="#000000" r="5"/>
<circle cx="77.5" cy="-7486682762356.691" fill="#000000" r="5"/>
<circle cx="80" cy="-15115681129830.338" fill="#000000" r="5"/>
<circle cx="82.5" cy="-12916681377074.36" fill="#000000" r="5"/>
<circle cx="85" cy="-14385535404899.363" fill="#000000" r="5"/>
<circle cx="87.5" cy="-4394536545344.974" fill="#000000" r="5"/>
<circle cx="90" cy="-11143051176356.627" fill="#000000" r="5"/>
<circle cx="92.5" cy="-12216144993553.766" fill="#000000" r="5"/>
<circle cx="95" cy="-9774688373428.07" fill="#000000" r="5"/>
<circle cx="97.5" cy="-9039374029722.234" fill="#000000" r="5"/>
<circle cx="100" cy="-13424276983471.527" fill="#000000" r="5"/>
<circle cx="102.5" cy="-1474464956482.9924" fill="#000000" r="5"/>
<circle cx="105" cy="-10333757341802.996" fill="#000000" r="5"/>
<circle cx="107.5" cy="-15084846126549.713" fill="#000000" r="5"/>
<circle cx="110" cy="-8161971325369.112" fill="#000000" r="5"/>
<circle cx="112.5" cy="-2352795930654.1304" fill="#000000" r="5"/>
<circle cx="115" cy="-5580287762165.863" fill="#000000" r="5"/>
<circle cx="117.5" cy="-3905710215592.2036" fill="#000000" r="5"/>
<circle cx="120" cy="-4042348251957.249" fill="#000000" r="5"/>
<circle cx="122.5" cy="-15748211510834.02" fill="#000000" r="5"/>
<circle cx="125" cy="-3658132080159.127" fill="#000000" r="5"/>
<circle cx="127.5" cy="-14777811016308.123" fill="#000000" r="5"/>
<circle cx="130" cy="-10910863100260.268" fill="#000000" r="5"/>
<circle cx="132.5" cy="-614500337590.1461" fill="#000000" r="5"/>
<circle cx="135" cy="-11261911160593.906" fill="#000000" r="5"/>
<circle cx="137.5" cy="-11688432797855.027" fill="#000000" r="5"/>
<circle cx="140" cy="-8842970458932.785" fill="#000000" r="5"/>
<circle cx="142.5" cy="-9983233309554.633" fill="#000000" r="5"/>
<circle cx="145" cy="-4371512064547.7017" fill="#000000" r="5"/>
<circle cx="147.5" cy="-11762980340076.014" fill="#000000" r="5"/>
<circle cx="150" cy="-10750064335018.166" fill="#000000" r="5"/>
<circle cx="152.5" cy="-5210401209573.011" fill="#000000" r="5"/>
<circle cx="155" cy="-12795921925548.994" fill="#000000" r="5"/>
<circle cx="157.5" cy="-13606170974580.666" fill="#000000" r="5"/>
<circle cx="160" cy="-11394779669930.889" fill="#000000" r="5"/>
<circle cx="162.5" cy="-4336659876179.4746" fill="#000000" r="5"/>
<circle cx="165" cy="-4243932748409.77" fill="#000000" r="5"/>
<circle cx="167.5" cy="-6290676113641.568" fill="#000000" r="5"/>
<circle cx="170" cy="-15295972252077.58" fill="#000000" r="5"/>
<circle cx="172.5" cy="-5270298060536.9375" fill="#000000" r="5"/>
<circle cx="175" cy="-4621464928296.874" fill="#000000" r="5"/>
<circle cx="177.5" cy="-2661634622422.2676" fill="#000000" r="5"/>
<circle cx="180" cy="-4072490935974.249" fill="#000000" r="5"/>
<circle cx="182.5" cy="-3562798206511.514" fill="#000000" r="5"/>
<circle cx="185" cy="-15030779554065.883" fill="#000000" r="5"/>
<circle cx="187.5" cy="-3884687106786.8696" fill="#000000" r="5"/>
<circle cx="190" cy="-6039477521744.655" fill="#000000" r="5"/>
<circle cx="192.5" cy="-7076378465096.242" fill="#000000" r="5"/>
<circle cx="195" cy="-12657030122948.664" fill="#000000" r="5"/>
<circle cx="197.5" cy="-349428063748.1524" fill="#000000" r="5"/>
<circle cx="200" cy="-9959167449892.793" fill="#000000" r="5"/>
<circle cx="202.5" cy="-4274839272950.4155" fill="#000000" r="5"/>
<circle cx="205" cy="-11094601946960.367" fill="#000000" r="5"/>
<circle cx="207.5" cy="-11804311839134.64" fill="#000000" r="5"/>
<circle cx="210" cy="-6263987947659.182" fill="#000000" r="5"/>
<circle cx="212.5" cy="-13394817056735.1" fill="#000000" r="5"/>
<circle cx="215" cy="-14129702662766.803" fill="#000000" r="5"/>
<circle cx="217.5" cy="-9449773310792.262" fill="#000000" r="5"/>
<circle cx="220" cy="-15948289009267.049" fill="#000000" r="5"/>
<circle cx="222.5" cy="-9627308235593.852" fill="#000000" r="5"/>
<circle cx="225" cy="-6405289056849.235" fill="#000000" r="5"/>
<circle cx="227.5" cy="-11845752206753.232" fill="#000000" r="5"/>
<circle cx="230" cy="-1852827064735.3088" fill="#000000" r="5"/>
<circle cx="232.5" cy="-7275812796678.349" fill="#000000" r="5"/>
<circle cx="235" cy="-1719906073807.8313" fill="#000000" r="5"/>
<circle cx="237.5" cy="-14591471666449.703" fill="#000000" r="5"/>
<circle cx="240" cy="-14395291647169.314" fill="#000000" r="5"/>
<circle cx="242.5" cy="-11108080026080.531" fill="#000000" r="5"/>
<circle cx="245" cy="-4615236382148.221" fill="#000000" r="5"/>
<circle cx="247.5" cy="-14839316704026.365" fill="#000000" r="5"/>
<circle cx="250" cy="-3843491721079.059" fill="#000000" r="5"/>
<circle cx="252.5" cy="-10619217316970.71" fill="#000000" r="5"/>
<circle cx="255" cy="-13953218889326.998" fill="#000000" r="5"/>
<circle cx="257.5" cy="-3252380861704.7954" fill="#000000" r="5"/>
<circle cx="260" cy="-15452261022121.996" fill="#000000" r="5"/>
<circle cx="262.5" cy="-14034662298943.771" fill="#000000" r="5"/>
<circle cx="265" cy="-9904714177118.969" fill="#000000" r="5"/>
<circle cx="267.5" cy="-16195174843000.232" fill="#000000" r="5"/>
<circle cx="270" cy="-14879172372883.734" fill="#000000" r="5"/>
<circle cx="272.5" cy="-14805574334776.047" fill="#000000" r="5"/>
<circle cx="275" cy="-13551860825167.193" fill="#000000" r="5"/>
<circle cx="277.5" cy="-6949883345905.683" fill="#000000" r="5"/>
<circle cx="280" cy="-7930792173514.75" fill="#000000" r="5"/>
<circle cx="282.5" cy="-7909139381270.134" fill="#000000" r="5"/>
<circle cx="285" cy="-9472965845352.746" fill="#000000" r="5"/>
<circle cx="287.5" cy="-15444002345517.797" fill="#000000" r="5"/>
<circle cx="290" cy="-8351635684649.908" fill="#000000" r="5"/>
<circle cx="292.5" cy="-1156399467539.856" fill="#000000" r="5"/>
<circle cx="295" cy="-5492336681552.227" fill="#000000" r="5"/>
<circle cx="297.5" cy="-9238985358231.03" fill="#000000" r="5"/>
<circle cx="300" cy="-2608949475496.6" fill="#000000" r="5"/>
<circle cx="302.5" cy="-745804323878.3074" fill="#000000" r="5"/>
<circle cx="305" cy="-2833546122376.0986" fill="#000000" r="5"/>
<circle cx="307.5" cy="-7123573975701.889" fill="#000000" r="5"/>
<circle cx="310" cy="-12206144273417.238" fill="#000000" r="5"/>
<circle cx="312.5" cy="-2892912827315.1934" fill="#000000" r="5"/>
<circle cx="315" cy="-15048027740459.639" fill="#000000" r="5"/>
<circle cx="317.5" cy="-15753647113546.418" fill="#000000" r="5"/>
<circle cx="320" cy="-7398522503432.219" fill="#000000" r="5"/>
<circle cx="322.5" cy="-3841295734004.36" fill="#000000" r="5"/>
<circle cx="325" cy="-9108097123231.145" fill="#000000" r="5"/>
<circle cx="327.5" cy="-11323404616209.283" fill="#000000" r="5"/>
<circle cx="330" cy="-4612644166193.319" fill="#000000" r="5"/>
<circle cx="332.5" cy="-13055540323410.393" fill="#000000" r="5"/>
<circle cx="335" cy="-11155949914502.482" fill="#000000" r="5"/>
<circle cx="337.5" cy="-4628408790595.754" fill="#000000" r="5"/>
<circle cx="340" cy="-7439900698423.064" fill="#000000" r="5"/>
<circle cx="342.5" cy="-15851071210879.064" fill="#000000" r="5"/>
<circle cx="345" cy="-8583895409608.544" fill="#000000" r="5"/>
<circle cx="347.5" cy="-12807347711803.387" fill="#000000" r="5"/>
<circle cx="350" cy="-5004855332452.886" fill="#000000" r="5"/>
<circle cx="352.5" cy="-3063801280915.011" fill="#000000" r="5"/>
<circle cx="355" cy="-931404852907.8253" fill="#000000" r="5"/>
<circle cx="357.5" cy="-15304433361898.93" fill="#000000" r="5"/>
<circle cx="360" cy="-11092624639679.297" fill="#000000" r="5"/>
<circle cx="362.5" cy="-10443671334424.31" fill="#000000" r="5"/>
<circle cx="365" cy="-8401146612135.639" fill="#000000" r="5"/>
<circle cx="367.5" cy="-2298816804868.0503" fill="#000000" r="5"/>
<circle cx="370" cy="-1363178064809.4604" fill="#000000" r="5"/>
<circle cx="372.5" cy="-16072726577203.236" fill="#000000" r="5"/>
<circle cx="375" cy="-12937687555456.225" fill="#000000" r="5"/>
<circle cx="377.5" cy="-12376755836664.48" fill="#000000" r="5"/>
<circle cx="380" cy="-5049473021011.601" fill="#000000" r="5"/>
<circle cx="382.5" cy="-839043901873.8083" fill="#000000" r="5"/>
<circle cx="385" cy="-1139434106119.8413" fill="#000000" r="5"/>
<circle cx="387.5" cy="-10281715544104.588" fill="#000000" r="5"/>
<circle cx="390" cy="-12200866131506.033" fill="#000000" r="5"/>
<circle cx="392.5" cy="-15724594676025.414" fill="#000000" r="5"/>
<circle cx="395" cy="-3870445862764.1577" fill="#000000" r="5"/>
<circle cx="397.5" cy="-12703397840666.58" fill="#000000" r="5"/>
<circle cx="400" cy="-15792633835754.025" fill="#000000" r="5"/>
<circle cx="402.5" cy="-1298939511136.0334" fill="#000000" r="5"/>
<circle cx="405" cy="-4795817286586.132" fill="#000000" r="5"/>
<circle cx="407.5" cy="-7392340626787.692" fill="#000000" r="5"/>
<circle cx="410" cy="-16051092408143.984" fill="#000000" r="5"/>
<circle cx="412.5" cy="-14514329154836.398" fill="#000000" r="5"/>
<circle cx="415" cy="-10702526673082.469" fill="#000000" r="5"/>
<circle cx="417.5" cy="-5425843148653.218" fill="#000000" r="5"/>
<circle cx="420" cy="-12874080808857.475" fill="#000000" r="5"/>
<circle cx="422.5" cy="-1534610684730.5674" fill="#000000" r="5"/>
<circle cx="425" cy="-2330559771987.459" fill="#000000" r="5"/>
<circle cx="427.5" cy="-6742683456967.439" fill="#000000" r="5"/>
<circle cx="430" cy="-13524218770288.865" fill="#000000" r="5"/>
<circle cx="432.5" cy="-4392330492374.5103" fill="#000000" r="5"/>
<circle cx="435" cy="-9625004357891.307" fill="#000000" r="5"/>
<circle cx="437.5" cy="-4819926301149.259" fill="#000000" r="5"/>
<circle cx="440" cy="-7518709514297.702" fill="#000000" r="5"/>
<circle cx="442.5" cy="-4226747717916.7246" fill="#000000" r="5"/>
<circle cx="445" cy="-10928894536304.39" fill="#000000" r="5"/>
<circle cx="447.5" cy="-13022436359754.318" fill="#000000" r="5"/>
<circle cx="450" cy="-4839904697558.698" fill="#000000" r="5"/>
<circle cx="452.5" cy="-4802684392946.044" fill="#000000" r="5"/>
<circle cx="455" cy="-12117788792021.342" fill="#000000" r="5"/>
<circle cx="457.5" cy="-7947908468461.146" fill="#000000" r="5"/>
<circle cx="460" cy="-3223622104354.8726" fill="#000000" r="5"/>
<circle cx="462.5" cy="-12126273930216.514" fill="#000000" r="5"/>
<circle cx="465" cy="-13786769644428.01" fill="#000000" r="5"/>
<circle cx="467.5" cy="-3960028468351.3853" fill="#000000" r="5"/>
<circle cx="470" cy="-8492820715049.534" fill="#000000" r="5"/>
<circle cx="472.5" cy="-15991176637442.533" fill="#000000" r="5"/>
<circle cx="475" cy="-6212047865157.795" fill="#000000" r="5"/>
<circle cx="477.5" cy="-10580830136787.518" fill="#000000" r="5"/>
<circle cx="480" cy="-4001644450008.2983" fill="#000000" r="5"/>
<circle cx="482.5" cy="-4202504769086.442" fill="#000000" r="5"/>
<circle cx="485" cy="-10710361729404.725" fill="#000000" r="5"/>
<circle cx="487.5" cy="-10817364785573.184" fill="#000000" r="5"/>
<circle cx="490" cy="-2130568391732.9338" fill="#000000" r="5"/>
<circle cx="492.5" cy="-832767631466.4102" fill="#000000" r="5"/>
<circle cx="495" cy="-13284275789001.598" fill="#000000" r="5"/>
<circle cx="497.5" cy="-3918037522986.4395" fill="#000000" r="5"/>
</g>
<g>
<g>
<line stroke="black" stroke-width="1" x1="0" x2="0" y1="0" y2="10"/>
<line stroke="black" stroke-width="1" x1="100" x2="100" y1="0" y2="10"/>
<line stroke="black" stroke-width="1" x1="200" x2="200" y1="0" y2="10"/>
<line stroke="black" stroke-width="1" x1="300" x2="300" y1="0" y2="10"/>
<line stroke="black" stroke-width="1" x1="400" x2="400" y1="0" y2="10"/>
<line stroke="black" stroke-width="1" x1="500" x2="500" y1="0" y2="10"/>
</g>
<line stroke="black" stroke-width="1" x1="0" x2="500" y1="0" y2="0"/>
<g>
<text font-size="12" text-anchor="middle" x="0" y="20">
0
</text>
<text font-size="12" text-anchor="middle" x="100" y="20">
40000
</text>
<text font-size="12" text-anchor="middle" x="200" y="20">
80000
</text>
<text font-size="12" text-anchor="middle" x="300" y="20">
120000
</text>
<text font-size="12" text-anchor="middle" x="400" y="20">
160000
</text>
<text font-size="12" text-anchor="middle" x="500" y="20">
200000
</text>
</g>
<text font-size="12" text-anchor="middle" x="250" y="30">
Gas Price
</text>
</g>
<g>
<g>
<line stroke="black" stroke-width="1" x1="0" x2="-10" y1="0" y2="0"/>
<line stroke="black" stroke-width="1" x1="0" x2="-10" y1="-85" y2="-85"/>
<line stroke="black" stroke-width="1" x1="0" x2="-10" y1="-170" y2="-170"/>
<line stroke="black" stroke-width="1" x1="0" x2="-10" y1="-255" y2="-255"/>
<line stroke="black" stroke-width="1" x1="0" x2="-10" y1="-340" y2="-340"/>
</g>
<line stroke="black" stroke-0="1" x1="0" x2="0" y1="0" y2="-340"/>
<g>
<text dominant-baseline="middle" font-size="12" text-anchor="end" x="-15" y="0">
0
</text>
<text dominant-baseline="middle" font-size="12" text-anchor="end" x="-15" y="-85">
2000000
</text>
<text dominant-baseline="middle" font-size="12" text-anchor="end" x="-15" y="-170">
4000000
</text>
<text dominant-baseline="middle" font-size="12" text-anchor="end" x="-15" y="-255">
6000000
</text>
<text dominant-baseline="middle" font-size="12" text-anchor="end" x="-15" y="-340">
8000000
</text>
</g>
<text font-size="12" text-anchor="middle" transform="rotate(-90 -30 -170)" x="-30" y="-170">
Score
</text>
</g>
</g>
</svg>