<svg viewBox="0 0 600 400" xmlns="http://www.w3.org/2000/svg">
<g transform="translate(50, 360)">
<g>
<circle cx="0" cy="-270.66856" fill="#000000" r="5"/>
<circle cx="2.272727272727273" cy="-186523.89485568" fill="#000000" r="5"/>
<circle cx="4.545454545454546" cy="-128352581.99538177" fill="#000000" r="5"/>
<circle cx="6.818181818181818" cy="-88323005809.86308" fill="#000000" r="5"/>
<circle cx="9.090909090909092" cy="-60777533342194.35" fill="#000000" r="5"/>
<circle cx="11.363636363636363" cy="-202440614831341.94" fill="#000000" r="5"/>
<circle cx="13.636363636363637" cy="-219556565943690.38" fill="#000000" r="5"/>
<circle cx="15.909090909090908" cy="-407063536588617.4" fill="#000000" r="5"/>
<circle cx="18.181818181818183" cy="-360302599980439.2" fill="#000000" r="5"/>
<circle cx="20.454545454545453" cy="-319972469121875.4" fill="#000000" r="5"/>
<circle cx="22.727272727272727" cy="-490147751172735.3" fill="#000000" r="5"/>
<circle cx="25" cy="-107424842099568.88" fill="#000000" r="5"/>
<circle cx="27.272727272727273" cy="-164580239972104.6" fill="#000000" r="5"/>
<circle cx="29.545454545454547" cy="-508723072063664" fill="#000000" r="5"/>
<circle cx="31.818181818181817" cy="-245486998249106.88" fill="#000000" r="5"/>
<circle cx="34.09090909090909" cy="-337993692715329.94" fill="#000000" r="5"/>
<circle cx="36.36363636363637" cy="-246920042205957.7" fill="#000000" r="5"/>
<circle cx="38.63636363636363" cy="-270433343164884.75" fill="#000000" r="5"/>
<circle cx="40.90909090909091" cy="-118584772329940.94" fill="#000000" r="5"/>
<circle cx="43.18181818181818" cy="-468294559105546.3" fill="#000000" r="5"/>
<circle cx="45.45454545454545" cy="-347962802898139.56" fill="#000000" r="5"/>
<circle cx="47.72727272727273" cy="-258036754395474.78" fill="#000000" r="5"/>
<circle cx="50" cy="-17569107535714.613" fill="#000000" r="5"/>
<circle cx="52.27272727272727" cy="-499336593943278.7" fill="#000000" r="5"/>
<circle cx="54.54545454545455" cy="-108456711166324.2" fill="#000000" r="5"/>
<circle cx="56.81818181818182" cy="-347799226395151.56" fill="#000000" r="5"/>
<circle cx="59.09090909090909" cy="-145475182547372.3" fill="#000000" r="5"/>
<circle cx="61.36363636363637" cy="-6134374380945.49" fill="#000000" r="5"/>
<circle cx="63.63636363636363" cy="-6522688050332.569" fill="#000000" r="5"/>
<circle cx="65.9090909090909" cy="-273732196738323.2" fill="#000000" r="5"/>
<circle cx="68.18181818181819" cy="-281262241132384.13" fill="#000000" r="5"/>
<circle cx="70.45454545454545" cy="-194506522477319.53" fill="#000000" r="5"/>
<circle cx="72.72727272727273" cy="-28275570006369.9" fill="#000000" r="5"/>
<circle cx="75" cy="-491007050518318.75" fill="#000000" r="5"/>
<circle cx="77.27272727272727" cy="-171893771432035.47" fill="#000000" r="5"/>
<circle cx="79.54545454545455" cy="-272978741071508.03" fill="#000000" r="5"/>
<circle cx="81.81818181818181" cy="-289627310783373.44" fill="#000000" r="5"/>
<circle cx="84.0909090909091" cy="-155516053076669.03" fill="#000000" r="5"/>
<circle cx="86.36363636363636" cy="-66631390277937.58" fill="#000000" r="5"/>
<circle cx="88.63636363636364" cy="-15931394349252.988" fill="#000000" r="5"/>
<circle cx="90.9090909090909" cy="-426058315860081.6" fill="#000000" r="5"/>
<circle cx="93.18181818181819" cy="-260166801865974.06" fill="#000000" r="5"/>
<circle cx="95.45454545454545" cy="-429636391825113.6" fill="#000000" r="5"/>
<circle cx="97.72727272727273" cy="-88146005805771.61" fill="#000000" r="5"/>
<circle cx="100" cy="-69248447422558.16" fill="#000000" r="5"/>
<circle cx="102.27272727272727" cy="-236284660927280.34" fill="#000000" r="5"/>
<circle cx="104.54545454545455" cy="-327675845063175.8" fill="#000000" r="5"/>
<circle cx="106.81818181818181" cy="-522666323456418.5" fill="#000000" r="5"/>
<circle cx="109.0909090909091" cy="-357126499229807.94" fill="#000000" r="5"/>
<circle cx="111.36363636363636" cy="-241764654771987.7" fill="#000000" r="5"/>
<circle cx="113.63636363636364" cy="-410739974217924.56" fill="#000000" r="5"/>
<circle cx="115.9090909090909" cy="-255967219234566.94" fill="#000000" r="5"/>
<circle cx="118.18181818181819" cy="-173981048565916.34" fill="#000000" r="5"/>
<circle cx="120.45454545454545" cy="-128775548419201.9" fill="#000000" r="5"/>
<circle cx="122.72727272727273" cy="-105106777424442.66" fill="#000000" r="5"/>
<circle cx="125" cy="-149972063442230.66" fill="#000000" r="5"/>
<circle cx="127.27272727272727" cy="-466368977072236.2" fill="#000000" r="5"/>
<circle cx="129.54545454545453" cy="-76593910970769.48" fill="#000000" r="5"/>
<circle cx="131.8181818181818" cy="-22513693979384.75" fill="#000000" r="5"/>
<circle cx="134.0909090909091" cy="-213971899037060.34" fill="#000000" r="5"/>
<circle cx="136.36363636363637" cy="-251970942679043.28" fill="#000000" r="5"/>
<circle cx="138.63636363636363" cy="-58226308692247.664" fill="#000000" r="5"/>
<circle cx="140.9090909090909" cy="-27388531148184.7" fill="#000000" r="5"/>
<circle cx="143.1818181818182" cy="-407449785858158.5" fill="#000000" r="5"/>
<circle cx="145.45454545454547" cy="-99252526586052.34" fill="#000000" r="5"/>
<circle cx="147.72727272727272" cy="-336210228483533.1" fill="#000000" r="5"/>
<circle cx="150" cy="-73346388798286.23" fill="#000000" r="5"/>
<circle cx="152.27272727272728" cy="-421997810198537.9" fill="#000000" r="5"/>
<circle cx="154.54545454545453" cy="-100214215724886.06" fill="#000000" r="5"/>
<circle cx="156.8181818181818" cy="-471136441465756.7" fill="#000000" r="5"/>
<circle cx="159.0909090909091" cy="-196185584684355.3" fill="#000000" r="5"/>
<circle cx="161.36363636363637" cy="-130007266919173.44" fill="#000000" r="5"/>
<circle cx="163.63636363636363" cy="-425847754627685.1" fill="#000000" r="5"/>
<circle cx="165.9090909090909" cy="-115273722139389.69" fill="#000000" r="5"/>
<circle cx="168.1818181818182" cy="-297224256562395.7" fill="#000000" r="5"/>
<circle cx="170.45454545454547" cy="-114797050652198.6" fill="#000000" r="5"/>
<circle cx="172.72727272727272" cy="-496052270169710.94" fill="#000000" r="5"/>
<circle cx="175" cy="-482616615234337.4" fill="#000000" r="5"/>
<circle cx="177.27272727272728" cy="-193429438533072.63" fill="#000000" r="5"/>
<circle cx="179.54545454545453" cy="-340781971109870.56" fill="#000000" r="5"/>
<circle cx="181.8181818181818" cy="-58256434303762.695" fill="#000000" r="5"/>
<circle cx="184.0909090909091" cy="-48118807948771.49" fill="#000000" r="5"/>
<circle cx="186.36363636363637" cy="-447880409973412.3" fill="#000000" r="5"/>
<circle cx="188.63636363636363" cy="-525068479019892.9" fill="#000000" r="5"/>
<circle cx="190.9090909090909" cy="-429599970576826.8" fill="#000000" r="5"/>
<circle cx="193.1818181818182" cy="-63083525064607" fill="#000000" r="5"/>
<circle cx="195.45454545454547" cy="-208741054556162.94" fill="#000000" r="5"/>
<circle cx="197.72727272727272" cy="-340353466944062.7" fill="#000000" r="5"/>
<circle cx="200" cy="-290229730439823.8" fill="#000000" r="5"/>
<circle cx="202.27272727272728" cy="-43218875685357.016" fill="#000000" r="5"/>
<circle cx="204.54545454545453" cy="-237133885885392.7" fill="#000000" r="5"/>
<circle cx="206.8181818181818" cy="-385212306293896.7" fill="#000000" r="5"/>
<circle cx="209.0909090909091" cy="-75351500598852.86" fill="#000000" r="5"/>
<circle cx="211.36363636363637" cy="-221254351063373.13" fill="#000000" r="5"/>
<circle cx="213.63636363636363" cy="-521678993935251.6" fill="#000000" r="5"/>
<circle cx="215.9090909090909" cy="-204556421233349.2" fill="#000000" r="5"/>
<circle cx="218.1818181818182" cy="-94985161508594.38" fill="#000000" r="5"/>
<circle cx="220.45454545454547" cy="-33911886188210.836" fill="#000000" r="5"/>
<circle cx="222.72727272727272" cy="-154801946134912.9" fill="#000000" r="5"/>
<circle cx="225" cy="-102073419406227.11" fill="#000000" r="5"/>
<circle cx="227.27272727272728" cy="-169989520064127.8" fill="#000000" r="5"/>
<circle cx="229.54545454545453" cy="-16288077266141.572" fill="#000000" r="5"/>
<circle cx="231.8181818181818" cy="-144662807347559.56" fill="#000000" r="5"/>
<circle cx="234.0909090909091" cy="-500794274374380.94" fill="#000000" r="5"/>
<circle cx="236.36363636363637" cy="-57849409369461.234" fill="#000000" r="5"/>
<circle cx="238.63636363636363" cy="-294872564702888.7" fill="#000000" r="5"/>
<circle cx="240.9090909090909" cy="-77049066988775.31" fill="#000000" r="5"/>
<circle cx="243.1818181818182" cy="-335719294337624.9" fill="#000000" r="5"/>
<circle cx="245.45454545454547" cy="-262359867587869.5" fill="#000000" r="5"/>
<circle cx="247.72727272727272" cy="-358229288666070.6" fill="#000000" r="5"/>
<circle cx="250" cy="-473785933223384.7" fill="#000000" r="5"/>
<circle cx="252.27272727272728" cy="-438858016641910.06" fill="#000000" r="5"/>
<circle cx="254.54545454545453" cy="-111736118796442.02" fill="#000000" r="5"/>
<circle cx="256.8181818181818" cy="-497095397112165.5" fill="#000000" r="5"/>
<circle cx="259.09090909090907" cy="-146743450401354.03" fill="#000000" r="5"/>
<circle cx="261.3636363636364" cy="-352025985460397.5" fill="#000000" r="5"/>
<circle cx="263.6363636363636" cy="-419831390871053.7" fill="#000000" r="5"/>
<circle cx="265.90909090909093" cy="-189957448977173.88" fill="#000000" r="5"/>
<circle cx="268.1818181818182" cy="-58964784968893.27" fill="#000000" r="5"/>
<circle cx="270.45454545454544" cy="-8715723698549.785" fill="#000000" r="5"/>
<circle cx="272.72727272727275" cy="-202304399039181.88" fill="#000000" r="5"/>
<circle cx="275" cy="-125822665316022.33" fill="#000000" r="5"/>
<circle cx="277.27272727272725" cy="-180501276380165.94" fill="#000000" r="5"/>
<circle cx="279.54545454545456" cy="-400814787821905.8" fill="#000000" r="5"/>
<circle cx="281.8181818181818" cy="-275075694601788.2" fill="#000000" r="5"/>
<circle cx="284.09090909090907" cy="-152082717432418.34" fill="#000000" r="5"/>
<circle cx="286.3636363636364" cy="-338252053796591.25" fill="#000000" r="5"/>
<circle cx="288.6363636363636" cy="-424705536331967.94" fill="#000000" r="5"/>
<circle cx="290.90909090909093" cy="-382959352234328.3" fill="#000000" r="5"/>
<circle cx="293.1818181818182" cy="-105547761731592.13" fill="#000000" r="5"/>
<circle cx="295.45454545454544" cy="-453425712752289.3" fill="#000000" r="5"/>
<circle cx="297.72727272727275" cy="-126234503681723.72" fill="#000000" r="5"/>
<circle cx="300" cy="-463898787293523.8" fill="#000000" r="5"/>
<circle cx="302.27272727272725" cy="-484143201905451.7" fill="#000000" r="5"/>
<circle cx="304.54545454545456" cy="-190238449863234.78" fill="#000000" r="5"/>
<circle cx="306.8181818181818" cy="-252329362692200.94" fill="#000000" r="5"/>
<circle cx="309.09090909090907" cy="-304865155506284.2" fill="#000000" r="5"/>
<circle cx="311.3636363636364" cy="-104323451660796.16" fill="#000000" r="5"/>
<circle cx="313.6363636363636" cy="-137782683100729.22" fill="#000000" r="5"/>
<circle cx="315.90909090909093" cy="-507939233357753.9" fill="#000000" r="5"/>
<circle cx="318.1818181818182" cy="-232944647973548.28" fill="#000000" r="5"/>
<circle cx="320.45454545454544" cy="-136675454217892.47" fill="#000000" r="5"/>
<circle cx="322.72727272727275" cy="-272863047414210.06" fill="#000000" r="5"/>
<circle cx="325" cy="-210015265774075.4" fill="#000000" r="5"/>
<circle cx="327.27272727272725" cy="-163495862413377.22" fill="#000000" r="5"/>
<circle cx="329.54545454545456" cy="-289371522076660.44" fill="#000000" r="5"/>
<circle cx="331.8181818181818" cy="-506339692648686.4" fill="#000000" r="5"/>
<circle cx="334.09090909090907" cy="-185933920414599.84" fill="#000000" r="5"/>
<circle cx="336.3636363636364" cy="-451296186732788.7" fill="#000000" r="5"/>
<circle cx="338.6363636363636" cy="-241365055170235.06" fill="#000000" r="5"/>
<circle cx="340.90909090909093" cy="-135764299462984.92" fill="#000000" r="5"/>
<circle cx="343.1818181818182" cy="-172710958974324.84" fill="#000000" r="5"/>
<circle cx="345.45454545454544" cy="-308469359426682.4" fill="#000000" r="5"/>
<circle cx="347.72727272727275" cy="-477121044015922.3" fill="#000000" r="5"/>
<circle cx="350" cy="-99646082363405.94" fill="#000000" r="5"/>
<circle cx="352.27272727272725" cy="-80187967697038.73" fill="#000000" r="5"/>
<circle cx="354.54545454545456" cy="-388328717932870.4" fill="#000000" r="5"/>
<circle cx="356.8181818181818" cy="-112485565921850.33" fill="#000000" r="5"/>
<circle cx="359.09090909090907" cy="-485971937879940.3" fill="#000000" r="5"/>
<circle cx="361.3636363636364" cy="-394964857025842.4" fill="#000000" r="5"/>
<circle cx="363.6363636363636" cy="-464286601729339.3" fill="#000000" r="5"/>
<circle cx="365.90909090909093" cy="-224170163249096.6" fill="#000000" r="5"/>
<circle cx="368.1818181818182" cy="-420774958692099.1" fill="#000000" r="5"/>
<circle cx="370.45454545454544" cy="-312413875792303.7" fill="#000000" r="5"/>
<circle cx="372.72727272727275" cy="-30419137187328.863" fill="#000000" r="5"/>
<circle cx="375" cy="-385538615381636" fill="#000000" r="5"/>
<circle cx="377.27272727272725" cy="-299893920526668.75" fill="#000000" r="5"/>
<circle cx="379.54545454545456" cy="-371350542823911.9" fill="#000000" r="5"/>
<circle cx="381.8181818181818" cy="-19786120937612.18" fill="#000000" r="5"/>
<circle cx="384.09090909090907" cy="-444408559928615.06" fill="#000000" r="5"/>
<circle cx="386.3636363636364" cy="-243347294374051.44" fill="#000000" r="5"/>
<circle cx="388.6363636363636" cy="-446120576816404.56" fill="#000000" r="5"/>
<circle cx="390.90909090909093" cy="-367756029844590.8" fill="#000000" r="5"/>
<circle cx="393.1818181818182" cy="-180496147229127.6" fill="#000000" r="5"/>
<circle cx="395.45454545454544" cy="-397285275376131.94" fill="#000000" r="5"/>
<circle cx="397.72727272727275" cy="-480514408041985.75" fill="#000000" r="5"/>
<circle cx="400" cy="-327358839909805.75" fill="#000000" r="5"/>
<circle cx="402.27272727272725" cy="-304526201277987.4" fill="#000000" r="5"/>
<circle cx="404.54545454545456" cy="-397918567196430.44" fill="#000000" r="5"/>
<circle cx="406.8181818181818" cy="-389461231015174.3" fill="#000000" r="5"/>
<circle cx="409.09090909090907" cy="-364960517476370" fill="#000000" r="5"/>
<circle cx="411.3636363636364" cy="-364181855290639.1" fill="#000000" r="5"/>
<circle cx="413.6363636363636" cy="-355201613493168.9" fill="#000000" r="5"/>
<circle cx="415.90909090909093" cy="-497713914825324.06" fill="#000000" r="5"/>
<circle cx="418.1818181818182" cy="-45523796576472.65" fill="#000000" r="5"/>
<circle cx="420.45454545454544" cy="-242697456611445.6" fill="#000000" r="5"/>
<circle cx="422.72727272727275" cy="-525788027655104.8" fill="#000000" r="5"/>
<circle cx="425" cy="-397902523082674.06" fill="#000000" r="5"/>
<circle cx="427.27272727272725" cy="-378420827104232.9" fill="#000000" r="5"/>
<circle cx="429.54545454545456" cy="-143495605480050.75" fill="#000000" r="5"/>
<circle cx="431.8181818181818" cy="-224448998434291.7" fill="#000000" r="5"/>
<circle cx="434.09090909090907" cy="-85810246264839.94" fill="#000000" r="5"/>
<circle cx="436.3636363636364" cy="-42463938275558.81" fill="#000000" r="5"/>
<circle cx="438.6363636363636" cy="-244479326700777.47" fill="#000000" r="5"/>
<circle cx="440.90909090909093" cy="-171425696251417.72" fill="#000000" r="5"/>
<circle cx="443.1818181818182" cy="-477722113928289.44" fill="#000000" r="5"/>
<circle cx="445.45454545454544" cy="-513259119020769.9" fill="#000000" r="5"/>
<circle cx="447.72727272727275" cy="-205833854277304.84" fill="#000000" r="5"/>
<circle cx="450" cy="-447183596434433.56" fill="#000000" r="5"/>
<circle cx="452.27272727272725" cy="-45571572069366.27" fill="#000000" r="5"/>
</g>
<g>
<g>
<line stroke="black" stroke-width="1" x1="0" x2="0" y1="0" y2="10"/>
<line stroke="black" stroke-width="1" x1="90.9090909090909" x2="90.9090909090909" y1="0" y2="10"/>
<line stroke="black" stroke-width="1" x1="181.8181818181818" x2="181.8181818181818" y1="0" y2="10"/>
<line stroke="black" stroke-width="1" x1="272.72727272727275" x2="272.72727272727275" y1="0" y2="10"/>
<line stroke="black" stroke-width="1" x1="363.6363636363636" x2="363.6363636363636" y1="0" y2="10"/>
<line stroke="black" stroke-width="1" x1="454.54545454545456" x2="454.54545454545456" y1="0" y2="10"/>
</g>
<line stroke="black" stroke-width="1" x1="0" x2="500" y1="0" y2="0"/>
<g>
<text font-size="12" text-anchor="middle" x="0" y="20">
0
</text>
<text font-size="12" text-anchor="middle" x="90.9090909090909" y="20">
40000
</text>
<text font-size="12" text-anchor="middle" x="181.8181818181818" y="20">
80000
</text>
<text font-size="12" text-anchor="middle" x="272.72727272727275" y="20">
120000
</text>
<text font-size="12" text-anchor="middle" x="363.6363636363636" y="20">
160000
</text>
<text font-size="12" text-anchor="middle" x="454.54545454545456" y="20">
200000
</text>
</g>
<text font-size="12" text-anchor="middle" x="250" y="30">
Gas Price
</text>
</g>
<g>
<g>
<line stroke="black" stroke-width="1" x1="0" x2="-10" y1="0" y2="0"/>
<line stroke="black" stroke-width="1" x1="0" x2="-10" y1="-68" y2="-68"/>
<line stroke="black" stroke-width="1" x1="0" x2="-10" y1="-136" y2="-136"/>
<line stroke="black" stroke-width="1" x1="0" x2="-10" y1="-204" y2="-204"/>
<line stroke="black" stroke-width="1" x1="0" x2="-10" y1="-272" y2="-272"/>
<line stroke="black" stroke-width="1" x1="0" x2="-10" y1="-340" y2="-340"/>
</g>
<line stroke="black" stroke-0="1" x1="0" x2="0" y1="0" y2="-340"/>
<g>
<text dominant-baseline="middle" font-size="12" text-anchor="end" x="-15" y="0">
0
</text>
<text dominant-baseline="middle" font-size="12" text-anchor="end" x="-15" y="-68">
50000
</text>
<text dominant-baseline="middle" font-size="12" text-anchor="end" x="-15" y="-136">
100000
</text>
<text dominant-baseline="middle" font-size="12" text-anchor="end" x="-15" y="-204">
150000
</text>
<text dominant-baseline="middle" font-size="12" text-anchor="end" x="-15" y="-272">
200000
</text>
<text dominant-baseline="middle" font-size="12" text-anchor="end" x="-15" y="-340">
250000
</text>
</g>
<text font-size="12" text-anchor="middle" transform="rotate(-90 -30 -170)" x="-30" y="-170">
Score
</text>
</g>
</g>
</svg>