<svg viewBox="0 0 600 400" xmlns="http://www.w3.org/2000/svg">
<g transform="translate(50, 360)">
<g>
<rect fill="#DD3355" height="10" width="10" x="61.66666666666667" y="-187.75"/>
<rect fill="#DD3355" height="10" width="10" x="108.33333333333333" y="-315.25"/>
<rect fill="#DD3355" height="10" width="10" x="171.66666666666666" y="-119.75000000000001"/>
<rect fill="#DD3355" height="10" width="10" x="305" y="-30.500000000000004"/>
<rect fill="#DD3355" height="10" width="10" x="375" y="-272.75"/>
<rect fill="#DD3355" height="10" width="10" x="445" y="-247.25"/>
</g>
<g>
<circle cx="120" cy="-191.25" fill="#35C788" r="5"/>
<circle cx="406.6666666666667" cy="-72.25" fill="#35C788" r="5"/>
</g>
<g>
<g>
<line stroke="black" stroke-width="1" x1="0" x2="0" y1="0" y2="10"/>
<line stroke="black" stroke-width="1" x1="166.66666666666666" x2="166.66666666666666" y1="0" y2="10"/>
<line stroke="black" stroke-width="1" x1="333.3333333333333" x2="333.3333333333333" y1="0" y2="10"/>
<line stroke="black" stroke-width="1" x1="500" x2="500" y1="0" y2="10"/>
</g>
<line stroke="black" stroke-width="1" x1="0" x2="500" y1="0" y2="0"/>
<g>
<text font-size="12" text-anchor="middle" x="0" y="20">
-5
</text>
<text font-size="12" text-anchor="middle" x="166.66666666666666" y="20">
0
</text>
<text font-size="12" text-anchor="middle" x="333.3333333333333" y="20">
5
</text>
<text font-size="12" text-anchor="middle" x="500" y="20">
10
</text>
</g>
<text font-size="12" text-anchor="middle" x="250" y="30">
Some varying variable
</text>
</g>
<g>
<g>
<line stroke="black" stroke-width="1" x1="0" x2="-10" y1="0" y2="0"/>
<line stroke="black" stroke-width="1" x1="0" x2="-10" y1="-85" y2="-85"/>
<line stroke="black" stroke-width="1" x1="0" x2="-10" y1="-170" y2="-170"/>
<line stroke="black" stroke-width="1" x1="0" x2="-10" y1="-255" y2="-255"/>
<line stroke="black" stroke-width="1" x1="0" x2="-10" y1="-340" y2="-340"/>
</g>
<line stroke="black" stroke-0="1" x1="0" x2="0" y1="0" y2="-340"/>
<g>
<text dominant-baseline="middle" font-size="12" text-anchor="end" x="-15" y="0">
-2
</text>
<text dominant-baseline="middle" font-size="12" text-anchor="end" x="-15" y="-85">
0
</text>
<text dominant-baseline="middle" font-size="12" text-anchor="end" x="-15" y="-170">
2
</text>
<text dominant-baseline="middle" font-size="12" text-anchor="end" x="-15" y="-255">
4
</text>
<text dominant-baseline="middle" font-size="12" text-anchor="end" x="-15" y="-340">
6
</text>
</g>
<text font-size="12" text-anchor="middle" transform="rotate(-90 -30 -170)" x="-30" y="-170">
The response of something
</text>
</g>
</g>
</svg>